<svg id="a91fb4d1-d522-43c7-b628-6b96cc69fd89" data-name="Layer 1" xmlns="http://www.w3.org/2000/svg" viewBox="0 0 66.3333 79.6"><title>icon-marker-coffee</title><path d="M33.1667,0A32.9279,32.9279,0,0,0,9.7178,56.2838L33.1667,79.6,56.6155,56.2838A32.9279,32.9279,0,0,0,33.1667,0Z" fill="#c53580" fill-rule="evenodd"/><path d="M43.4412,26.5311" fill="#fff"/><path d="M45.2875,50.9141H20.2325a4.5208,4.5208,0,0,1-4.5154-4.5154h1.8062a2.7121,2.7121,0,0,0,2.7092,2.7092h25.055a2.7122,2.7122,0,0,0,2.7092-2.7092h1.8061A4.5207,4.5207,0,0,1,45.2875,50.9141Z" fill="#fff"/><path d="M28.966,22.8615,28.3328,21.17a2,2,0,0,0,1.22-1.8635,2.05,2.05,0,0,0-.6879-1.4944,3.7691,3.7691,0,0,1-1.1183-2.6647,2.9487,2.9487,0,0,1,2.64-3.1025l.1808,1.7969a1.15,1.15,0,0,0-1.0142,1.3056,2.0513,2.0513,0,0,0,.6879,1.4949,3.7688,3.7688,0,0,1,1.1182,2.6642A3.832,3.832,0,0,1,28.966,22.8615Z" fill="#fff"/><path d="M34.3845,22.8615,33.7512,21.17a2,2,0,0,0,1.22-1.8635,2.05,2.05,0,0,0-.6879-1.4944,3.77,3.77,0,0,1-1.1182-2.6647,2.9487,2.9487,0,0,1,2.6395-3.1025l.1808,1.7969a1.15,1.15,0,0,0-1.0142,1.3056,2.0513,2.0513,0,0,0,.6879,1.4949,3.7688,3.7688,0,0,1,1.1183,2.6642A3.832,3.832,0,0,1,34.3845,22.8615Z" fill="#fff"/><path d="M50.5833,25.628h-30.76l1.9049,16.33a3.5986,3.5986,0,0,0,3.5938,3.5373H39.1767a3.5993,3.5993,0,0,0,3.5947-3.5373l.6406-5.4915,7.1713.014Zm-1.8061,9.0431-5.1546-.01.8431-7.2268h4.3115Z" fill="#fff"/><path d="M42.7712,35.5618" fill="#fff"/></svg>