<svg id="bb14bd06-2d0c-4c33-be93-58d686faa0fd" data-name="Layer 1" xmlns="http://www.w3.org/2000/svg" viewBox="0 0 66.3333 79.6"><title>icon-coffee-cup-marker</title><path d="M33.1667,0A32.9279,32.9279,0,0,0,9.7178,56.2838L33.1667,79.6,56.6155,56.2838A32.9279,32.9279,0,0,0,33.1667,0Z" fill="#c53580" fill-rule="evenodd"/><path d="M43.3737,26.4775" fill="#fff" stroke="#fff" stroke-miterlimit="10" stroke-width="1.7976"/><polyline points="42.393 35.466 49.583 35.48 49.583 26.477 43.279 26.477" fill="#fff" stroke="#fff" stroke-miterlimit="10" stroke-width="1.7976"/><path d="M48.8067,46.2512a3.6058,3.6058,0,0,1-3.5952,3.5953H20.2749A3.6058,3.6058,0,0,1,16.68,46.2512" fill="#fff" stroke="#fff" stroke-miterlimit="10" stroke-width="1.7976"/><path d="M30.4631,12.9545a2.0639,2.0639,0,0,0-1.811,2.1933c0,2.0247,1.7976,2.1146,1.7976,4.1392a2.923,2.923,0,0,1-1.7976,2.6965" fill="#fff" stroke="#fff" stroke-miterlimit="10" stroke-width="1.7976"/><path d="M35.8559,12.9545a2.0639,2.0639,0,0,0-1.811,2.1933c0,2.0247,1.7976,2.1146,1.7976,4.1392a2.923,2.923,0,0,1-1.7976,2.6965" fill="#fff" stroke="#fff" stroke-miterlimit="10" stroke-width="1.7976"/><path d="M43.5933,26.4775,41.8079,41.7754A2.686,2.686,0,0,1,39.13,44.4536H25.34a2.6861,2.6861,0,0,1-2.6782-2.6782L20.8768,26.4775Z" fill="#fff" stroke="#fff" stroke-miterlimit="10" stroke-width="1.7976"/><path d="M42.7069,35.4656" fill="#fff" stroke="#fff" stroke-miterlimit="10" stroke-width="1.7976"/></svg>
