<svg id="b604eb3f-d228-4ed4-b9f6-44864bf09ece" data-name="a8ab29e0-a898-442f-b744-5a0f2f82ace0" xmlns="http://www.w3.org/2000/svg" viewBox="0 0 36.8 44.0009"><title>icon-coffee-marker</title><path d="M18.3,0A18.0966,18.0966,0,0,0,0,17.9v.2a19.5139,19.5139,0,0,0,1.4,7.1,17.1428,17.1428,0,0,0,4,5.9l6.5,6.4L18.4,44l6.5-6.5L31.4,31a18.1075,18.1075,0,0,0,.1-25.7,19.4142,19.4142,0,0,0-6.2-4A20.6826,20.6826,0,0,0,18.3,0Z" transform="translate(0 0.0009)" fill="#c53580"/><path d="M24.9,28H11.6a2.4334,2.4334,0,0,1-2.4-2.4h1A1.3671,1.3671,0,0,0,11.6,27H24.9a1.3671,1.3671,0,0,0,1.4-1.4h1A2.4334,2.4334,0,0,1,24.9,28Z" transform="translate(0 0.0009)" fill="#fff"/><path d="M16.2,13.1l-.3-.9a.9952.9952,0,0,0,.6-1c0-.4-.1-.5-.4-.8A1.8414,1.8414,0,0,1,15.5,9a1.4732,1.4732,0,0,1,1.4-1.6l.1,1V7.9l.1.5c-.2,0-.5.1-.5.7,0,.4.1.5.4.8a1.8414,1.8414,0,0,1,.6,1.4A2.1094,2.1094,0,0,1,16.2,13.1Z" transform="translate(0 0.0009)" fill="#fff"/><path d="M19.1,13.1l-.3-.9a.9952.9952,0,0,0,.6-1c0-.4-.1-.5-.4-.8A1.8414,1.8414,0,0,1,18.4,9a1.4732,1.4732,0,0,1,1.4-1.6v1c-.2,0-.5.1-.5.7,0,.4.1.5.4.8a1.8414,1.8414,0,0,1,.6,1.4A1.763,1.763,0,0,1,19.1,13.1Z" transform="translate(0 0.0009)" fill="#fff"/><path d="M23.7,14.6h-12l1,8.7a2.13,2.13,0,0,0,1.9,1.9h6.7a1.9669,1.9669,0,0,0,1.9-1.9l.9-7.7h2.5v3.8H25.2v1h2.4V14.6Zm-1.4,8.6c-.1.5-.4,1-1,1H14.6c-.5,0-.9-.6-1-1l-.9-7.6H23.1Z" transform="translate(0 0.0009)" fill="#fff"/></svg>