<svg id="b0677eb7-f753-4f1c-bf09-ac1b136bec36" data-name="Layer 1" xmlns="http://www.w3.org/2000/svg" viewBox="0 0 66.3333 79.6"><title>icon-scenario-1-marker</title><path d="M33.1667,0A32.9279,32.9279,0,0,0,9.7178,56.2838L33.1667,79.6,56.6155,56.2838A32.9279,32.9279,0,0,0,33.1667,0Z" fill="#c53580" fill-rule="evenodd"/><polygon points="41.618 25.579 41.618 27.376 48.72 27.376 48.72 34.572 41.618 34.572 41.618 36.38 50.517 36.38 50.517 25.579 41.618 25.579" fill="#fff"/><path d="M45.2463,50.7456H20.31a4.4987,4.4987,0,0,1-4.4931-4.4941h1.7968A2.7,2.7,0,0,0,20.31,48.9478H45.2463a2.7,2.7,0,0,0,2.6972-2.6963H49.74A4.4989,4.4989,0,0,1,45.2463,50.7456Z" fill="#fff"/><path d="M29.0011,22.8252l-.6289-1.6836a1.992,1.992,0,0,0,1.2139-1.8545,2.0413,2.0413,0,0,0-.6855-1.4878,3.7524,3.7524,0,0,1-1.1124-2.6514,2.9345,2.9345,0,0,1,2.627-3.0883l.1787,1.7885a1.1446,1.1446,0,0,0-1.0088,1.3,2.0408,2.0408,0,0,0,.6856,1.4874,3.7538,3.7538,0,0,1,1.1123,2.6518A3.8118,3.8118,0,0,1,29.0011,22.8252Z" fill="#fff"/><path d="M34.3947,22.8252l-.6289-1.6836a1.9917,1.9917,0,0,0,1.2129-1.8545,2.0429,2.0429,0,0,0-.6846-1.4878,3.75,3.75,0,0,1-1.1123-2.6514,2.9345,2.9345,0,0,1,2.626-3.0883l.1787,1.7885a1.1441,1.1441,0,0,0-1.0078,1.3,2.0426,2.0426,0,0,0,.6845,1.4874,3.75,3.75,0,0,1,1.1124,2.6518A3.8123,3.8123,0,0,1,34.3947,22.8252Z" fill="#fff"/><path d="M19.9025,25.5786,21.799,41.8315a3.5755,3.5755,0,0,0,3.5762,3.521h13.79a3.5755,3.5755,0,0,0,3.5762-3.521l1.8965-16.2529Z" fill="#fff"/></svg>