<svg id="a04cdd26-a017-43fc-aa84-fcdd5c3826c7" data-name="Layer 1" xmlns="http://www.w3.org/2000/svg" viewBox="0 0 253 84"><title>img-chat-nav-4</title><path d="M23.7666,15.9863l-.6084.7119-.6084.712a4.3121,4.3121,0,0,0-1.1683-.6979,3.4672,3.4672,0,0,0-1.2643-.23,1.87,1.87,0,0,0-1.0862.28.9442.9442,0,0,0-.4021.808.9087.9087,0,0,0,.4241.8286,6.6692,6.6692,0,0,0,1.72.7085,6.019,6.019,0,0,1,2.4347,1.2761,3.0474,3.0474,0,0,1,.8622,2.3089,3.1642,3.1642,0,0,1-1.1625,2.527,5.0352,5.0352,0,0,1-3.2389.9779,6.5017,6.5017,0,0,1-2.4832-.4617,5.4422,5.4422,0,0,1-1.7267-1.1223l.664-.7285.6641-.7286a4.7982,4.7982,0,0,0,1.2929.8027,3.9661,3.9661,0,0,0,1.5089.2862,2.0941,2.0941,0,0,0,1.2887-.3623,1.2074,1.2074,0,0,0,.472-.998,1.1293,1.1293,0,0,0-.41-.96,4.8353,4.8353,0,0,0-1.6231-.72A6.0862,6.0862,0,0,1,16.69,19.8134a2.7865,2.7865,0,0,1-.7661-2.0507A2.8778,2.8778,0,0,1,17.06,15.4292a4.63,4.63,0,0,1,2.8647-.8687,6.04,6.04,0,0,1,2.1908.3647A4.93,4.93,0,0,1,23.7666,15.9863Z" fill="#383c45"/><path d="M30.7891,25.5254a3.6589,3.6589,0,0,1-1.1044.504,4.5214,4.5214,0,0,1-1.2.1679,2.7018,2.7018,0,0,1-2.095-.792,3.3244,3.3244,0,0,1-.69-2.28V19.1875h-1.2V17.4258h1.2v-1.84l1.2647-.1445,1.2646-.1445v2.1289h1.9531l-.1362.8808-.1362.8809H28.2285v3.9053a1.4053,1.4053,0,0,0,.2019.8584.7008.7008,0,0,0,.5989.2461,1.5387,1.5387,0,0,0,.4377-.0641,2.2087,2.2087,0,0,0,.4744-.2084l.4238.8Z" fill="#383c45"/><path d="M38.87,24.501l-.2641.8247-.2642.8247a3.001,3.001,0,0,1-1.2581-.3284,1.8787,1.8787,0,0,1-.7907-.904,2.6407,2.6407,0,0,1-1.13.9934,3.4026,3.4026,0,0,1-1.43.2859,2.8181,2.8181,0,0,1-2.0212-.7459,2.6118,2.6118,0,0,1-.7483-1.91,2.4738,2.4738,0,0,1,1.0264-2.1291,5.0651,5.0651,0,0,1,2.96-.7361h.8633v-.3682a1.2966,1.2966,0,0,0-.33-1.0345,1.6511,1.6511,0,0,0-1.11-.278,5.3369,5.3369,0,0,0-.9989.1161,9.8521,9.8521,0,0,0-1.2266.3322l-.2881-.8326-.2881-.8325a10.4681,10.4681,0,0,1,1.6427-.4618,8.302,8.302,0,0,1,1.5585-.1622,3.951,3.951,0,0,1,2.6854.7666,2.8341,2.8341,0,0,1,.836,2.2432v3.2968a1.401,1.401,0,0,0,.1384.7123A.768.768,0,0,0,38.87,24.501Zm-3.0576-.9287V22.0684H35.19a2.1956,2.1956,0,0,0-1.289.3061,1.0831,1.0831,0,0,0-.4239.9419,1.1318,1.1318,0,0,0,.2617.7881.9556.9556,0,0,0,.73.2842,1.4445,1.4445,0,0,0,.78-.216A1.7338,1.7338,0,0,0,35.8125,23.5723Z" fill="#383c45"/><path d="M45.749,17.2988l-.2,1.2241-.2,1.2242c-.1367-.0318-.261-.06-.3851-.08a2.3612,2.3612,0,0,0-.3844-.0323,1.3829,1.3829,0,0,0-1.1623.5345,3.745,3.745,0,0,0-.5975,1.483v4.2735H40.291v-8.5h2.1934l.1118.8247.1118.8247a3.0364,3.0364,0,0,1,.8739-1.389A2.0006,2.0006,0,0,1,44.9,17.1855a3.2119,3.2119,0,0,1,.4364.0267A3.0175,3.0175,0,0,1,45.749,17.2988Z" fill="#383c45"/><path d="M52.0371,25.5254a3.6594,3.6594,0,0,1-1.1047.504,4.5231,4.5231,0,0,1-1.2.1679,2.7015,2.7015,0,0,1-2.0949-.792,3.3244,3.3244,0,0,1-.69-2.28V19.1875H45.7461V17.4258h1.2012v-1.84l1.2646-.1445,1.2647-.1445v2.1289h1.9521l-.1362.8808-.1363.8809h-1.68v3.9053a1.4061,1.4061,0,0,0,.2017.8584.7.7,0,0,0,.5981.2461,1.5389,1.5389,0,0,0,.4381-.0641,2.2105,2.2105,0,0,0,.474-.2084l.4243.8Z" fill="#383c45"/><path d="M55.6191,14.3848a1.4118,1.4118,0,0,1-.4216,1.0268,1.5286,1.5286,0,0,1-1.0823.4146,1.5024,1.5024,0,0,1-1.0744-.4146,1.48,1.48,0,0,1,0-2.0532,1.503,1.503,0,0,1,1.0744-.4141,1.5291,1.5291,0,0,1,1.0823.4141A1.4105,1.4105,0,0,1,55.6191,14.3848Zm-.2236,11.541H52.8672v-8.5h2.5283v8.5Z" fill="#383c45"/><path d="M64.6777,19.7148v6.211H62.1484V20.1475a1.4406,1.4406,0,0,0-.2143-.9046.6979.6979,0,0,0-.5864-.2322,1.2656,1.2656,0,0,0-.784.2883,3.0018,3.0018,0,0,0-.6887.8162v5.8106H57.3467v-8.5h2.1924l.0962.5127.0961.5127a3.7207,3.7207,0,0,1,1.1584-.9667,3.0862,3.0862,0,0,1,1.4344-.33,2.2629,2.2629,0,0,1,1.729.6742A2.7078,2.7078,0,0,1,64.6777,19.7148Z" fill="#383c45"/><path d="M74.3574,17.9219a4.2871,4.2871,0,0,1-1.0444.2585,10.6978,10.6978,0,0,1-1.4048.0784,2.8882,2.8882,0,0,1,1.2029.8563,2.1264,2.1264,0,0,1,.3987,1.3361,2.5774,2.5774,0,0,1-.9568,2.0429,4.0618,4.0618,0,0,1-2.6135.8067c-.1758,0-.3438-.0081-.5059-.0241a4.4487,4.4487,0,0,1-.4707-.0716.5053.5053,0,0,0-.2017.2036.58.58,0,0,0-.07.2768.4005.4005,0,0,0,.1577.3519,1.3218,1.3218,0,0,0,.77.16H70.9a3.83,3.83,0,0,1,2.3686.6981,2.1877,2.1877,0,0,1,.88,1.7667,2.35,2.35,0,0,1-1.1323,2.0623,6.137,6.137,0,0,1-3.3179.7541,5.3167,5.3167,0,0,1-3.2385-.7379,2.3335,2.3335,0,0,1-.8259-1.9984h2.2724a.8431.8431,0,0,0,.3518.8044,2.9739,2.9739,0,0,0,1.5047.2522,2.8686,2.8686,0,0,0,1.4785-.2761.7449.7449,0,0,0,.3623-.6848.71.71,0,0,0-.29-.6021,1.5526,1.5526,0,0,0-.9258-.23H69.1562a3.38,3.38,0,0,1-2.0012-.4983,1.4145,1.4145,0,0,1-.6081-1.1824,1.7233,1.7233,0,0,1,.2761-.9065,2.3279,2.3279,0,0,1,.7317-.7263,2.8963,2.8963,0,0,1-1.1682-1.0186,2.6288,2.6288,0,0,1-.3523-1.414,2.8342,2.8342,0,0,1,1.0305-2.2731,4.2071,4.2071,0,0,1,2.699-.8324,6.8318,6.8318,0,0,0,2.325-.3062,8.1142,8.1142,0,0,0,1.6769-.7983l.2959.936Zm-5.8105,2.3056a1.537,1.537,0,0,0,.3524,1.0685,1.2182,1.2182,0,0,0,.9288.372,1.2043,1.2043,0,0,0,.9522-.37,1.6309,1.6309,0,0,0,.3281-1.1026,1.4655,1.4655,0,0,0-.3223-1.0426,1.2577,1.2577,0,0,0-.958-.3343,1.2242,1.2242,0,0,0-.935.3746A1.4933,1.4933,0,0,0,68.5469,20.2275Z" fill="#383c45"/><path d="M84.58,17.2988l-.2,1.2241-.2,1.2242c-.1363-.0318-.2605-.06-.3847-.08a2.3578,2.3578,0,0,0-.3839-.0323,1.3829,1.3829,0,0,0-1.1627.5345,3.7493,3.7493,0,0,0-.598,1.483v4.2735H79.123v-8.5h2.1924l.1118.8247.1119.8247a3.0391,3.0391,0,0,1,.8747-1.389,2.0011,2.0011,0,0,1,1.3186-.5007,3.2083,3.2083,0,0,1,.4363.0267A2.9977,2.9977,0,0,1,84.58,17.2988Z" fill="#383c45"/><path d="M93.0615,21.6836a4.7713,4.7713,0,0,1-1.1083,3.2775,4.4417,4.4417,0,0,1-6.1007.046,4.7784,4.7784,0,0,1-1.1142-3.3391,4.7706,4.7706,0,0,1,1.1084-3.2771,4.4484,4.4484,0,0,1,6.1065-.0464A4.7858,4.7858,0,0,1,93.0615,21.6836Zm-5.6982-.0156a4.125,4.125,0,0,0,.384,2.0451,1.365,1.365,0,0,0,2.3049-.01,4.08,4.08,0,0,0,.3843-2.02,4.1222,4.1222,0,0,0-.3843-2.0447,1.3653,1.3653,0,0,0-2.3049.01A4.0781,4.0781,0,0,0,87.3633,21.668Z" fill="#383c45"/><path d="M101.6855,25.9258H99.4922l-.0557-.5362-.0556-.5361A3.013,3.013,0,0,1,98.29,25.8616a3.1427,3.1427,0,0,1-1.4863.3357,2.2212,2.2212,0,0,1-1.7789-.7178,2.9515,2.9515,0,0,1-.59-1.9541v-6.1h2.5293v5.7793a1.4089,1.4089,0,0,0,.21.8838.72.72,0,0,0,.6055.2363,1.263,1.263,0,0,0,.7493-.2564,2.3181,2.3181,0,0,0,.6276-.7368V17.4258h2.5293v8.5Z" fill="#383c45"/><path d="M108.9805,25.5254a3.6589,3.6589,0,0,1-1.1044.504,4.5214,4.5214,0,0,1-1.2.1679,2.7018,2.7018,0,0,1-2.095-.792,3.3249,3.3249,0,0,1-.69-2.28V19.1875h-1.2V17.4258h1.2v-1.84l1.2647-.1445,1.2646-.1445v2.1289h1.9531l-.1362.8808-.1362.8809H106.42v3.9053a1.4053,1.4053,0,0,0,.2019.8584.7009.7009,0,0,0,.5989.2461,1.5387,1.5387,0,0,0,.4377-.0641,2.2087,2.2087,0,0,0,.4744-.2084l.4238.8Z" fill="#383c45"/><path d="M116.9014,22.42h-5.2666a2.3157,2.3157,0,0,0,.6443,1.5393,1.8718,1.8718,0,0,0,1.2932.3982,2.7832,2.7832,0,0,0,.9983-.1841,4.773,4.773,0,0,0,1.0349-.5678l.5195.7041.5195.7041a5.5742,5.5742,0,0,1-1.4577.8437,5.115,5.115,0,0,1-1.8548.34,4.1326,4.1326,0,0,1-3.1994-1.2442,4.7132,4.7132,0,0,1-1.074-3.2363,5.0861,5.0861,0,0,1,1.0183-3.236,3.6559,3.6559,0,0,1,2.95-1.3265,3.7347,3.7347,0,0,1,2.8736,1.1444,4.6531,4.6531,0,0,1,1.0483,3.2091c0,.1362-.0039.3-.0118.4623S116.9175,22.292,116.9014,22.42Zm-2.4326-1.6328a2.7616,2.7616,0,0,0-.3168-1.4082,1.3137,1.3137,0,0,0-2.0648-.0818,3.068,3.068,0,0,0-.4524,1.6033h2.834v-.1133Z" fill="#383c45"/><path d="M130.0215,17.9219a4.2883,4.2883,0,0,1-1.0444.2585,10.6978,10.6978,0,0,1-1.4048.0784,2.885,2.885,0,0,1,1.2024.8563,2.1274,2.1274,0,0,1,.3982,1.3361,2.5775,2.5775,0,0,1-.9563,2.0429,4.06,4.06,0,0,1-2.6131.8067c-.1758,0-.3437-.0081-.5058-.0241a4.4447,4.4447,0,0,1-.4707-.0716.5053.5053,0,0,0-.2017.2036.58.58,0,0,0-.07.2768.4005.4005,0,0,0,.1577.3519,1.3218,1.3218,0,0,0,.77.16h1.2813a3.828,3.828,0,0,1,2.3681.6981,2.1881,2.1881,0,0,1,.88,1.7667,2.35,2.35,0,0,1-1.1322,2.0623,6.1345,6.1345,0,0,1-3.317.7541,5.3189,5.3189,0,0,1-3.239-.7379,2.333,2.333,0,0,1-.8264-1.9984H123.57a.8428.8428,0,0,0,.3523.8044,2.9764,2.9764,0,0,0,1.5051.2522,2.8661,2.8661,0,0,0,1.4781-.2761.745.745,0,0,0,.3618-.6848.71.71,0,0,0-.29-.6021,1.5523,1.5523,0,0,0-.9261-.23h-1.2325a3.38,3.38,0,0,1-2.0008-.4983,1.4144,1.4144,0,0,1-.6085-1.1824,1.7226,1.7226,0,0,1,.2762-.9065,2.3279,2.3279,0,0,1,.7326-.7263,2.8967,2.8967,0,0,1-1.1691-1.0186,2.6279,2.6279,0,0,1-.3524-1.414,2.8337,2.8337,0,0,1,1.031-2.2731,4.2087,4.2087,0,0,1,2.6994-.8324,6.8292,6.8292,0,0,0,2.3247-.3062A8.1325,8.1325,0,0,0,129.43,16.05l.2959.936Zm-5.8106,2.3056a1.5383,1.5383,0,0,0,.352,1.0685,1.2168,1.2168,0,0,0,.9283.372,1.204,1.204,0,0,0,.9525-.37,1.6309,1.6309,0,0,0,.3278-1.1026,1.4659,1.4659,0,0,0-.3219-1.0426,1.2579,1.2579,0,0,0-.9584-.3343,1.2232,1.2232,0,0,0-.9342.3746A1.4943,1.4943,0,0,0,124.2109,20.2275Z" fill="#383c45"/><path d="M138.0527,25.9258h-2.1933l-.0557-.5362-.0557-.5361a3.0127,3.0127,0,0,1-1.0908,1.0081,3.1427,3.1427,0,0,1-1.4863.3357,2.2212,2.2212,0,0,1-1.7789-.7178,2.9515,2.9515,0,0,1-.59-1.9541v-6.1h2.5293v5.7793a1.4089,1.4089,0,0,0,.21.8838.72.72,0,0,0,.6055.2363,1.263,1.263,0,0,0,.7493-.2564,2.3194,2.3194,0,0,0,.6276-.7368V17.4258h2.5293v8.5Z" fill="#383c45"/><path d="M142.7549,14.3848a1.4114,1.4114,0,0,1-.4221,1.0268,1.53,1.53,0,0,1-1.0828.4146,1.5029,1.5029,0,0,1-1.0741-.4146,1.4793,1.4793,0,0,1,0-2.0532,1.5034,1.5034,0,0,1,1.0741-.4141,1.5309,1.5309,0,0,1,1.0828.4141A1.41,1.41,0,0,1,142.7549,14.3848Zm-.2237,11.541H140.002v-8.5h2.5292v8.5Z" fill="#383c45"/><path d="M152.0371,14.0488v11.877h-2.24l-.0645-.4961-.0644-.4961a3.0212,3.0212,0,0,1-.9619.8959,2.8742,2.8742,0,0,1-1.4541.3678,2.7777,2.7777,0,0,1-2.428-1.24,5.9025,5.9025,0,0,1-.8064-3.3049,5.3155,5.3155,0,0,1,.9507-3.2334,3.0892,3.0892,0,0,1,2.5239-1.2646,2.9778,2.9778,0,0,1,1.1338.2144,2.67,2.67,0,0,1,.8818.5864V13.7773l1.2647.1358Zm-2.5293,9.3321V19.7148a2.3842,2.3842,0,0,0-.5978-.5275,1.4129,1.4129,0,0,0-.73-.1922,1.2473,1.2473,0,0,0-1.1047.6223,3.8832,3.8832,0,0,0-.4324,2.0506,4.2314,4.2314,0,0,0,.39,2.1294,1.0828,1.0828,0,0,0,1.0025.5444,1.436,1.436,0,0,0,.8147-.24A2.3032,2.3032,0,0,0,149.5078,23.3809Z" fill="#383c45"/><path d="M161.333,24.501l-.2642.8247-.2641.8247a3.001,3.001,0,0,1-1.2581-.3284,1.8782,1.8782,0,0,1-.7907-.904,2.6413,2.6413,0,0,1-1.13.9934,3.4026,3.4026,0,0,1-1.43.2859,2.8181,2.8181,0,0,1-2.0212-.7459,2.6114,2.6114,0,0,1-.7483-1.91,2.474,2.474,0,0,1,1.0263-2.1291,5.0655,5.0655,0,0,1,2.96-.7361h.8633v-.3682a1.2966,1.2966,0,0,0-.33-1.0345,1.6511,1.6511,0,0,0-1.11-.278,5.3369,5.3369,0,0,0-.9989.1161,9.8521,9.8521,0,0,0-1.2266.3322l-.2881-.8326-.2881-.8325a10.4681,10.4681,0,0,1,1.6427-.4618,8.3011,8.3011,0,0,1,1.5585-.1622,3.951,3.951,0,0,1,2.6854.7666,2.8341,2.8341,0,0,1,.836,2.2432v3.2968a1.4022,1.4022,0,0,0,.1383.7123A.7686.7686,0,0,0,161.333,24.501Zm-3.0576-.9287V22.0684h-.6231a2.1955,2.1955,0,0,0-1.2889.3061,1.0828,1.0828,0,0,0-.4239.9419,1.1313,1.1313,0,0,0,.2617.7881.9555.9555,0,0,0,.73.2842,1.4442,1.4442,0,0,0,.78-.216A1.7341,1.7341,0,0,0,158.2754,23.5723Z" fill="#383c45"/><path d="M170.084,19.7148v6.211h-2.5283V20.1475a1.443,1.443,0,0,0-.2139-.9046.6965.6965,0,0,0-.5859-.2322,1.2662,1.2662,0,0,0-.7847.2883,2.9917,2.9917,0,0,0-.688.8162v5.8106h-2.5293v-8.5h2.1934l.0957.5127.0957.5127a3.7185,3.7185,0,0,1,1.1584-.9667,3.0891,3.0891,0,0,1,1.4353-.33,2.26,2.26,0,0,1,1.7277.6742A2.71,2.71,0,0,1,170.084,19.7148Z" fill="#383c45"/><path d="M178.5322,18.1953l-.5444.752-.5444.7519a3.1474,3.1474,0,0,0-.7957-.46,2.2749,2.2749,0,0,0-.8206-.1482,1.4287,1.4287,0,0,0-1.2642.6063,3.61,3.61,0,0,0-.4477,2.0353,3.1636,3.1636,0,0,0,.4619,1.9407,1.4363,1.4363,0,0,0,1.2178.5242,2.2444,2.2444,0,0,0,.8168-.1442,4.54,4.54,0,0,0,.816-.432l.5523.7842.5522.7842a4.6183,4.6183,0,0,1-1.2883.7382,4.5113,4.5113,0,0,1-1.5769.27,4.0837,4.0837,0,0,1-3.0831-1.2161,4.6213,4.6213,0,0,1-1.1269-3.2332,4.8946,4.8946,0,0,1,1.1267-3.3112,3.9422,3.9422,0,0,1,3.0354-1.2825,4.6026,4.6026,0,0,1,1.5946.262A4.3154,4.3154,0,0,1,178.5322,18.1953Z" fill="#383c45"/><path d="M186.709,22.42h-5.2656a2.3166,2.3166,0,0,0,.644,1.5393,1.8686,1.8686,0,0,0,1.2915.3982,2.7814,2.7814,0,0,0,.999-.1841,4.774,4.774,0,0,0,1.0342-.5678l.52.7041.52.7041a5.5855,5.5855,0,0,1-1.459.8437,5.1162,5.1162,0,0,1-1.8545.34,4.134,4.134,0,0,1-3.2-1.2442,4.7117,4.7117,0,0,1-1.0749-3.2363,5.0851,5.0851,0,0,1,1.0186-3.236,3.6582,3.6582,0,0,1,2.9521-1.3265,3.7331,3.7331,0,0,1,2.8727,1.1444,4.6531,4.6531,0,0,1,1.0482,3.2091c0,.1362-.0041.3-.0122.4623S186.7246,22.292,186.709,22.42Zm-2.4336-1.6328a2.758,2.758,0,0,0-.3156-1.4082,1.3138,1.3138,0,0,0-2.0649-.0818,3.0661,3.0661,0,0,0-.4515,1.6033h2.832v-.1133Z" fill="#383c45"/><path d="M197.332,25.5254a3.6589,3.6589,0,0,1-1.1048.504,4.5272,4.5272,0,0,1-1.2008.1679,2.7015,2.7015,0,0,1-2.0946-.792,3.324,3.324,0,0,1-.6906-2.28V19.1875h-1.2V17.4258h1.2v-1.84l1.2647-.1445,1.2646-.1445v2.1289h1.9522l-.1358.8808-.1357.8809h-1.6807v3.9053a1.4043,1.4043,0,0,0,.2022.8584.6993.6993,0,0,0,.5976.2461,1.5385,1.5385,0,0,0,.4385-.0641,2.208,2.208,0,0,0,.4736-.2084l.4248.8Z" fill="#383c45"/><path d="M205.7324,21.6836a4.7708,4.7708,0,0,1-1.1084,3.2775,4.4412,4.4412,0,0,1-6.1.046,4.7781,4.7781,0,0,1-1.1145-3.3391,4.7707,4.7707,0,0,1,1.1086-3.2771,4.448,4.448,0,0,1,6.1062-.0464A4.7854,4.7854,0,0,1,205.7324,21.6836Zm-5.6982-.0156a4.1245,4.1245,0,0,0,.3843,2.0451,1.365,1.365,0,0,0,2.3049-.01,4.0805,4.0805,0,0,0,.384-2.02,4.1227,4.1227,0,0,0-.384-2.0447,1.3653,1.3653,0,0,0-2.3049.01A4.0776,4.0776,0,0,0,200.0342,21.668Z" fill="#383c45"/><path d="M217.62,18.1953l-.5444.752-.5445.7519a3.1452,3.1452,0,0,0-.7956-.46,2.2749,2.2749,0,0,0-.8206-.1482,1.4287,1.4287,0,0,0-1.2642.6063,3.61,3.61,0,0,0-.4477,2.0353,3.1636,3.1636,0,0,0,.4619,1.9407,1.4363,1.4363,0,0,0,1.2178.5242,2.2444,2.2444,0,0,0,.8168-.1442,4.54,4.54,0,0,0,.816-.432l.5523.7842.5522.7842a4.6183,4.6183,0,0,1-1.2883.7382,4.5113,4.5113,0,0,1-1.5769.27,4.0837,4.0837,0,0,1-3.0831-1.2161,4.6213,4.6213,0,0,1-1.1269-3.2332,4.8946,4.8946,0,0,1,1.1267-3.3112,3.9421,3.9421,0,0,1,3.0354-1.2825,4.6026,4.6026,0,0,1,1.5946.262A4.3154,4.3154,0,0,1,217.62,18.1953Z" fill="#383c45"/><path d="M225.9248,24.501l-.2642.8247-.2641.8247a3.0019,3.0019,0,0,1-1.2588-.3284,1.875,1.875,0,0,1-.79-.904,2.6447,2.6447,0,0,1-1.1307.9934,3.4034,3.4034,0,0,1-1.4309.2859,2.8167,2.8167,0,0,1-2.02-.7459,2.6121,2.6121,0,0,1-.7481-1.91,2.4742,2.4742,0,0,1,1.0262-2.1291,5.0632,5.0632,0,0,1,2.9591-.7361h.8643v-.3682a1.2955,1.2955,0,0,0-.33-1.0345,1.6529,1.6529,0,0,0-1.11-.278,5.3339,5.3339,0,0,0-.9982.1161,9.8858,9.8858,0,0,0-1.2274.3322l-.2881-.8326-.2881-.8325a10.4681,10.4681,0,0,1,1.6427-.4618,8.302,8.302,0,0,1,1.5585-.1622,3.9529,3.9529,0,0,1,2.6859.7666,2.8333,2.8333,0,0,1,.8365,2.2432v3.2968a1.4036,1.4036,0,0,0,.138.7123A.767.767,0,0,0,225.9248,24.501Zm-3.0576-.9287V22.0684h-.624a2.1956,2.1956,0,0,0-1.289.3061,1.0831,1.0831,0,0,0-.4239.9419,1.131,1.131,0,0,0,.2621.7881.9556.9556,0,0,0,.73.2842,1.445,1.445,0,0,0,.78-.216A1.74,1.74,0,0,0,222.8672,23.5723Z" fill="#383c45"/><path d="M230.2266,16.77v.6563h2.0009l-.1362.8808-.1362.8809h-1.7285v6.7383h-2.5293V19.1875h-1.28V17.4258h1.28v-.752a2.7845,2.7845,0,0,1,.8087-2.06,3.4091,3.4091,0,0,1,2.4413-.836,5.3028,5.3028,0,0,1,1.2561.1519,4.8813,4.8813,0,0,1,1.0642.3921l-.3438.8242-.3437.8242a3.06,3.06,0,0,0-.7067-.25,2.9,2.9,0,0,0-.6224-.07,1.0084,1.0084,0,0,0-.7884.26A1.243,1.243,0,0,0,230.2266,16.77Z" fill="#383c45"/><path d="M240.26,22.42h-5.2666a2.3186,2.3186,0,0,0,.6446,1.5393,1.871,1.871,0,0,0,1.2929.3982,2.7794,2.7794,0,0,0,.9978-.1841,4.7773,4.7773,0,0,0,1.0344-.5678l.52.7041.52.7041a5.5855,5.5855,0,0,1-1.459.8437,5.1162,5.1162,0,0,1-1.8545.34,4.1344,4.1344,0,0,1-3.2-1.2442,4.7121,4.7121,0,0,1-1.0748-3.2363,5.0862,5.0862,0,0,1,1.0184-3.236,3.6571,3.6571,0,0,1,2.9513-1.3265,3.7347,3.7347,0,0,1,2.8736,1.1444,4.6531,4.6531,0,0,1,1.0483,3.2091c0,.1362-.0039.3-.0118.4623S240.2759,22.292,240.26,22.42Zm-2.4327-1.6328a2.7617,2.7617,0,0,0-.3164-1.4082,1.314,1.314,0,0,0-2.0651-.0818,3.068,3.068,0,0,0-.4524,1.6033h2.8339v-.1133Z" fill="#383c45"/><path d="M24.15,40.8848a4.771,4.771,0,0,1-1.1084,3.2771,3.9814,3.9814,0,0,1-3.0537,1.2365,4.0029,4.0029,0,0,1-3.0466-1.1906,4.78,4.78,0,0,1-1.1146-3.34,4.7708,4.7708,0,0,1,1.1087-3.2775,3.98,3.98,0,0,1,3.0525-1.2362,4.003,4.003,0,0,1,3.0537,1.1907A4.7869,4.7869,0,0,1,24.15,40.8848Zm-5.6983-.0166a4.1218,4.1218,0,0,0,.3843,2.0446,1.3655,1.3655,0,0,0,2.305-.01,4.0742,4.0742,0,0,0,.384-2.018,4.1254,4.1254,0,0,0-.384-2.0452,1.3651,1.3651,0,0,0-2.305.01A4.0774,4.0774,0,0,0,18.4521,40.8682Z" fill="#383c45"/><path d="M32.9668,38.916v6.21H30.4375V39.3477a1.4405,1.4405,0,0,0-.2144-.9046.6976.6976,0,0,0-.5864-.2322,1.2656,1.2656,0,0,0-.7839.2882,3.0021,3.0021,0,0,0-.6887.8163V45.126H25.6357V36.627h2.1924l.0962.5117.0962.5117a3.7236,3.7236,0,0,1,1.1583-.9658,3.0878,3.0878,0,0,1,1.4345-.33,2.2626,2.2626,0,0,1,1.729.6743A2.71,2.71,0,0,1,32.9668,38.916Z" fill="#383c45"/><path d="M45.19,35.9062H41.2852v2.6573h3.4082v1.8408H41.2852v2.833h4.1777V45.126H38.66V34.0332h6.8027l-.1362.9365Z" fill="#383c45"/><path d="M54.1816,43.7012l-.2636.8242-.2637.8242a3.005,3.005,0,0,1-1.2588-.328,1.8733,1.8733,0,0,1-.79-.9044,2.6442,2.6442,0,0,1-1.1306.9951,3.4,3.4,0,0,1-1.431.2861,2.8152,2.8152,0,0,1-2.02-.7467,2.6137,2.6137,0,0,1-.7482-1.91,2.4745,2.4745,0,0,1,1.0262-2.1288,5.0631,5.0631,0,0,1,2.9591-.7364h.8643v-.3682a1.2958,1.2958,0,0,0-.33-1.0342,1.6527,1.6527,0,0,0-1.11-.2783,5.3339,5.3339,0,0,0-.9982.1161,9.8858,9.8858,0,0,0-1.2274.3322l-.2881-.8326-.2881-.8325a10.3942,10.3942,0,0,1,1.6427-.4621,8.3088,8.3088,0,0,1,1.5585-.1619,3.952,3.952,0,0,1,2.6854.7661,2.8324,2.8324,0,0,1,.8361,2.2427v3.2978a1.4,1.4,0,0,0,.1383.7119A.7712.7712,0,0,0,54.1816,43.7012Zm-3.0566-.9278V41.2686h-.624a2.195,2.195,0,0,0-1.289.3059,1.084,1.084,0,0,0-.4239.9431,1.131,1.131,0,0,0,.2621.7881.9561.9561,0,0,0,.73.2841,1.4432,1.4432,0,0,0,.78-.2163A1.7422,1.7422,0,0,0,51.125,42.7734Z" fill="#383c45"/><path d="M61.7344,37.3945l-.4644.7124-.4643.7124a4.4307,4.4307,0,0,0-1.0183-.4841,3.5226,3.5226,0,0,0-1.0784-.1721,1.41,1.41,0,0,0-.7709.1763.5318.5318,0,0,0-.2545.4633.5688.5688,0,0,0,.3024.545,6.17,6.17,0,0,0,1.4427.5449,4.6057,4.6057,0,0,1,1.9428.9618,2.2674,2.2674,0,0,1,.6822,1.7433,2.4511,2.4511,0,0,1-1.0965,2.06,4.6683,4.6683,0,0,1-2.6808.74,5.8066,5.8066,0,0,1-2.0171-.35,4.7431,4.7431,0,0,1-1.5366-.9143l.6162-.6885.6162-.6885a4.1782,4.1782,0,0,0,1.0567.6029,3.3428,3.3428,0,0,0,1.2011.23,1.6863,1.6863,0,0,0,.904-.2085.7526.7526,0,0,0,.0083-1.2384,5.8664,5.8664,0,0,0-1.4729-.5384,4.0994,4.0994,0,0,1-1.887-1.0162,2.3625,2.3625,0,0,1,.3061-3.4838,4.1091,4.1091,0,0,1,2.5419-.75,5.3609,5.3609,0,0,1,1.7283.28A4.4943,4.4943,0,0,1,61.7344,37.3945Z" fill="#383c45"/><path d="M68.6289,44.7256a3.666,3.666,0,0,1-1.1044.5045,4.514,4.514,0,0,1-1.2.1683,2.7032,2.7032,0,0,1-2.095-.7926,3.327,3.327,0,0,1-.69-2.2816V38.3867h-1.2v-1.76h1.2V34.7852l1.2646-.1436,1.2647-.1436v2.129h1.9531l-.1362.88-.1363.88H66.0684V42.293a1.4046,1.4046,0,0,0,.2019.8584.7006.7006,0,0,0,.5988.2461,1.54,1.54,0,0,0,.4378-.0641,2.2081,2.2081,0,0,0,.4743-.2084l.4239.8Z" fill="#383c45"/><path d="M84.3271,45.126H81.75l-.0957-2.169-.0957-2.1689c-.04-.7764-.0681-1.5647-.0762-2.3311s.0039-1.5107.044-2.1992l-.8565,3.85-.8564,3.85H77.332l-.9121-3.85-.9121-3.85c.0557.8164.0835,1.5689.09,2.3113s-.01,1.4748-.0416,2.2512L75.46,42.9731l-.0962,2.1529H72.8027l.4161-5.5464.416-5.5464h3.3134l.8326,3.7617.8325,3.7617.7763-3.7617.7764-3.7617h3.3291l.416,5.5464Z" fill="#383c45"/><path d="M93.6855,40.8848a4.7714,4.7714,0,0,1-1.1082,3.2771,4.44,4.44,0,0,1-6.1.0459,4.7807,4.7807,0,0,1-1.1141-3.34,4.7711,4.7711,0,0,1,1.1083-3.2775,4.4472,4.4472,0,0,1,6.1057-.0455A4.7873,4.7873,0,0,1,93.6855,40.8848Zm-5.6972-.0166a4.1236,4.1236,0,0,0,.3839,2.0446,1.3649,1.3649,0,0,0,2.3044-.01,4.0755,4.0755,0,0,0,.3839-2.018,4.1267,4.1267,0,0,0-.3839-2.0452,1.3646,1.3646,0,0,0-2.3044.01A4.0791,4.0791,0,0,0,87.9883,40.8682Z" fill="#383c45"/><path d="M102.502,38.916v6.21H99.9727V39.3477a1.4405,1.4405,0,0,0-.2144-.9046.6979.6979,0,0,0-.5864-.2322,1.2661,1.2661,0,0,0-.784.2882,3.0039,3.0039,0,0,0-.6887.8163V45.126H95.1709V36.627h2.1924l.0962.5117.0962.5117a3.7214,3.7214,0,0,1,1.1583-.9658,3.0874,3.0874,0,0,1,1.4344-.33,2.2624,2.2624,0,0,1,1.729.6743A2.71,2.71,0,0,1,102.502,38.916Z" fill="#383c45"/><path d="M109.7969,36.498l-.2,1.2247-.2,1.2246c-.1358-.0323-.26-.06-.3838-.08a2.4036,2.4036,0,0,0-.3838-.0315,1.3837,1.3837,0,0,0-1.1628.534,3.7484,3.7484,0,0,0-.5989,1.4817V45.126h-2.5283V36.627h2.1923l.1124.8242.1123.8242a3.0328,3.0328,0,0,1,.8743-1.3886,2.0032,2.0032,0,0,1,1.319-.5,3.2932,3.2932,0,0,1,.4356.0257A2.9419,2.9419,0,0,1,109.7969,36.498Z" fill="#383c45"/><path d="M118.2773,40.8848a4.7714,4.7714,0,0,1-1.1082,3.2771,4.44,4.44,0,0,1-6.1.0459,4.7807,4.7807,0,0,1-1.1141-3.34,4.7711,4.7711,0,0,1,1.1083-3.2775,4.4472,4.4472,0,0,1,6.1057-.0455A4.7873,4.7873,0,0,1,118.2773,40.8848Zm-5.6972-.0166a4.1236,4.1236,0,0,0,.3839,2.0446,1.3649,1.3649,0,0,0,2.3044-.01,4.0755,4.0755,0,0,0,.3839-2.018,4.1267,4.1267,0,0,0-.3839-2.0452,1.3646,1.3646,0,0,0-2.3044.01A4.0791,4.0791,0,0,0,112.58,40.8682Z" fill="#383c45"/><path d="M127.1416,41.6211H121.875a2.3126,2.3126,0,0,0,.6443,1.5376,1.8733,1.8733,0,0,0,1.2932.3979,2.7867,2.7867,0,0,0,.9983-.1837,4.75,4.75,0,0,0,1.0349-.5682l.52.7041.52.7041a5.5756,5.5756,0,0,1-1.4578.8451,5.1059,5.1059,0,0,1-1.8547.34,4.132,4.132,0,0,1-3.2-1.2447,4.7168,4.7168,0,0,1-1.074-3.2377,5.0851,5.0851,0,0,1,1.0183-3.2351,3.6561,3.6561,0,0,1,2.9505-1.3264,3.7344,3.7344,0,0,1,2.8735,1.1444A4.6527,4.6527,0,0,1,127.19,40.708c0,.1362-.004.3-.0119.4624S127.1577,41.4927,127.1416,41.6211Zm-2.4326-1.6328a2.7631,2.7631,0,0,0-.3168-1.4087,1.3134,1.3134,0,0,0-2.0648-.0824A3.0674,3.0674,0,0,0,121.875,40.1h2.834v-.1113Z" fill="#383c45"/><path d="M139.8936,35.1855l-.608.7124-.6079.7125a4.3183,4.3183,0,0,0-1.1688-.6984,3.4664,3.4664,0,0,0-1.2648-.23,1.8668,1.8668,0,0,0-1.0861.28.9454.9454,0,0,0-.4021.8085.9093.9093,0,0,0,.424.8285,6.6407,6.6407,0,0,0,1.72.7076,6.0212,6.0212,0,0,1,2.435,1.277,3.048,3.048,0,0,1,.8619,2.309,3.1658,3.1658,0,0,1-1.1621,2.5271,5.0333,5.0333,0,0,1-3.2393.9787,6.4913,6.4913,0,0,1-2.4829-.4625,5.466,5.466,0,0,1-1.7271-1.1224l.6646-.7281.6645-.728a4.8058,4.8058,0,0,0,1.2925.8018,3.9682,3.9682,0,0,0,1.5093.2861,2.0925,2.0925,0,0,0,1.2878-.3619,1.2073,1.2073,0,0,0,.472-.9984,1.1291,1.1291,0,0,0-.41-.9605,4.8336,4.8336,0,0,0-1.623-.72,6.0845,6.0845,0,0,1-2.6265-1.3908,2.7857,2.7857,0,0,1-.7661-2.0506,2.8764,2.8764,0,0,1,1.1363-2.333,4.6333,4.6333,0,0,1,2.8656-.8682,6.0479,6.0479,0,0,1,2.1907.364A4.9224,4.9224,0,0,1,139.8936,35.1855Z" fill="#383c45"/><path d="M146.916,44.7256a3.666,3.666,0,0,1-1.1044.5045,4.514,4.514,0,0,1-1.2.1683,2.7028,2.7028,0,0,1-2.0949-.7926,3.3265,3.3265,0,0,1-.69-2.2816V38.3867h-1.2v-1.76h1.2V34.7852l1.2646-.1436,1.2647-.1436v2.129h1.9531l-.1362.88-.1363.88h-1.6806V42.293a1.4046,1.4046,0,0,0,.2019.8584.7006.7006,0,0,0,.5988.2461,1.54,1.54,0,0,0,.4378-.0641,2.2109,2.2109,0,0,0,.4744-.2084l.4238.8Z" fill="#383c45"/><path d="M153.2041,36.498l-.2,1.2247-.2,1.2246c-.1367-.0323-.261-.06-.3851-.08a2.4083,2.4083,0,0,0-.3844-.0315,1.3832,1.3832,0,0,0-1.1623.534,3.7369,3.7369,0,0,0-.5975,1.4817V45.126h-2.5293V36.627H149.94l.1118.8242.1118.8242a3.0331,3.0331,0,0,1,.8739-1.3886,2.0014,2.0014,0,0,1,1.3185-.5,3.3026,3.3026,0,0,1,.4364.0257A2.9372,2.9372,0,0,1,153.2041,36.498Z" fill="#383c45"/><path d="M161.2051,41.6211H155.94a2.3135,2.3135,0,0,0,.644,1.5376,1.87,1.87,0,0,0,1.2915.3979,2.7857,2.7857,0,0,0,.999-.1837,4.7513,4.7513,0,0,0,1.0342-.5682l.52.7041.52.7041a5.5862,5.5862,0,0,1-1.459.8451,5.1077,5.1077,0,0,1-1.8545.34,4.1332,4.1332,0,0,1-3.2-1.2447,4.7152,4.7152,0,0,1-1.0749-3.2377,5.0835,5.0835,0,0,1,1.0186-3.2351,3.6584,3.6584,0,0,1,2.9521-1.3264,3.7331,3.7331,0,0,1,2.8727,1.1444,4.6531,4.6531,0,0,1,1.0482,3.2091c0,.1362-.0041.3-.0122.4624S161.2207,41.4927,161.2051,41.6211Zm-2.4336-1.6328a2.76,2.76,0,0,0-.3156-1.4087,1.3135,1.3135,0,0,0-2.0649-.0824A3.0636,3.0636,0,0,0,155.94,40.1h2.832v-.1113Z" fill="#383c45"/><path d="M170.0693,41.6211h-5.2666a2.3126,2.3126,0,0,0,.6443,1.5376,1.8733,1.8733,0,0,0,1.2932.3979,2.7863,2.7863,0,0,0,.9983-.1837,4.7481,4.7481,0,0,0,1.0349-.5682l.52.7041.5195.7041a5.5739,5.5739,0,0,1-1.4578.8451,5.1055,5.1055,0,0,1-1.8547.34,4.132,4.132,0,0,1-3.2-1.2447,4.7167,4.7167,0,0,1-1.0739-3.2377,5.0845,5.0845,0,0,1,1.0183-3.2351,3.6558,3.6558,0,0,1,2.95-1.3264,3.7343,3.7343,0,0,1,2.8735,1.1444,4.6527,4.6527,0,0,1,1.0484,3.2091c0,.1362-.0039.3-.0119.4624S170.0854,41.4927,170.0693,41.6211Zm-2.4326-1.6328A2.7631,2.7631,0,0,0,167.32,38.58a1.3134,1.3134,0,0,0-2.0648-.0824,3.0674,3.0674,0,0,0-.4524,1.6024h2.834v-.1113Z" fill="#383c45"/><path d="M176.9,44.7256a3.6666,3.6666,0,0,1-1.1049.5045,4.5187,4.5187,0,0,1-1.2008.1683,2.7031,2.7031,0,0,1-2.0946-.7926,3.326,3.326,0,0,1-.6905-2.2816V38.3867h-1.2v-1.76h1.2V34.7852l1.2646-.1436,1.2647-.1436v2.129h1.9521l-.1357.88-.1358.88h-1.6806V42.293a1.4051,1.4051,0,0,0,.2021.8584.7.7,0,0,0,.5977.2461,1.5378,1.5378,0,0,0,.4384-.0641,2.2087,2.2087,0,0,0,.4737-.2084l.4248.8Z" fill="#383c45"/><path d="M188.8516,38.916v6.21h-2.5284V39.3477a1.4431,1.4431,0,0,0-.2138-.9046.6967.6967,0,0,0-.586-.2322,1.2667,1.2667,0,0,0-.7846.2882,2.9921,2.9921,0,0,0-.688.8163V45.126h-2.5293V36.627h2.1933l.0957.5117.0957.5117a3.722,3.722,0,0,1,1.1585-.9658,3.09,3.09,0,0,1,1.4353-.33,2.26,2.26,0,0,1,1.7277.6743A2.7112,2.7112,0,0,1,188.8516,38.916Z" fill="#383c45"/><path d="M198.5488,40.8848a4.771,4.771,0,0,1-1.1084,3.2771,4.4414,4.4414,0,0,1-6.1012.0459,4.78,4.78,0,0,1-1.1146-3.34,4.77,4.77,0,0,1,1.1088-3.2775,4.4489,4.4489,0,0,1,6.107-.0455A4.7869,4.7869,0,0,1,198.5488,40.8848Zm-5.6992-.0166a4.12,4.12,0,0,0,.3844,2.0446,1.3658,1.3658,0,0,0,2.3054-.01,4.0714,4.0714,0,0,0,.3844-2.018,4.1225,4.1225,0,0,0-.3844-2.0452,1.3655,1.3655,0,0,0-2.3054.01A4.0761,4.0761,0,0,0,192.85,40.8682Z" fill="#383c45"/><path d="M209.2051,45.126H206.18l-.5684-3.1216-.5683-3.1216-.56,3.1216-.56,3.1216H200.93l-.9043-4.2495-.9043-4.2495h2.56l.44,3.3051.44,3.3052.6641-3.3052.664-3.3051h2.4649l.5844,3.3051.5845,3.3052.5122-3.3052.5122-3.3051h2.417l-.88,4.2495Z" fill="#383c45"/><polygon points="234.802 15.97 234.45 15.322 234.098 14.674 235.842 13.617 237.587 12.561 238.083 13.505 238.579 14.449 236.69 15.209 234.802 15.97" fill="#383c45"/></svg>
