<svg id="bb60e81b-45c7-45ee-b263-f41552e23c9a" data-name="Layer 1" xmlns="http://www.w3.org/2000/svg" viewBox="0 0 200 63"><title>img-chat-nav-1</title><path d="M18.7666,14.9858l-.6084.7122L17.55,16.41a4.3186,4.3186,0,0,0-1.1683-.6982,3.4673,3.4673,0,0,0-1.2643-.23,1.8679,1.8679,0,0,0-1.0862.28.9447.9447,0,0,0-.4021.8082.9091.9091,0,0,0,.4241.8286,6.6547,6.6547,0,0,0,1.72.708,6.0205,6.0205,0,0,1,2.4347,1.2766,3.0474,3.0474,0,0,1,.8622,2.3089,3.1646,3.1646,0,0,1-1.1625,2.527,5.0342,5.0342,0,0,1-3.2389.9784,6.5,6.5,0,0,1-2.4832-.4621,5.4492,5.4492,0,0,1-1.7267-1.1224l.664-.7283.6641-.7283a4.8012,4.8012,0,0,0,1.2929.8022,3.9661,3.9661,0,0,0,1.5089.2862,2.0941,2.0941,0,0,0,1.2887-.3621,1.2075,1.2075,0,0,0,.472-.9982,1.1293,1.1293,0,0,0-.41-.96,4.8353,4.8353,0,0,0-1.6231-.72A6.0862,6.0862,0,0,1,11.69,18.8134a2.7865,2.7865,0,0,1-.7661-2.0507A2.8773,2.8773,0,0,1,12.06,14.4294a4.6313,4.6313,0,0,1,2.8647-.8684,6.0446,6.0446,0,0,1,2.1908.3644A4.9283,4.9283,0,0,1,18.7666,14.9858Z" fill="#383c45"/><path d="M27.7734,18.7153v6.2105H25.2451V19.1475a1.424,1.424,0,0,0-.22-.9046.6965.6965,0,0,0-.58-.2322,1.276,1.276,0,0,0-.7847.2863,3.0042,3.0042,0,0,0-.6879.8026v5.8262H20.4434V13.0488l1.2646-.1279,1.2647-.1279v4.5459a3.6055,3.6055,0,0,1,1.1037-.8866,2.9689,2.9689,0,0,1,1.3455-.298,2.2611,2.2611,0,0,1,1.7218.6743A2.7027,2.7027,0,0,1,27.7734,18.7153Z" fill="#383c45"/><path d="M37.4707,20.6841a4.7708,4.7708,0,0,1-1.1084,3.2773,3.9817,3.9817,0,0,1-3.0537,1.2364,4.0048,4.0048,0,0,1-3.0475-1.19,4.7783,4.7783,0,0,1-1.1146-3.3393,4.77,4.77,0,0,1,1.1087-3.2773,3.9817,3.9817,0,0,1,3.0534-1.2364,4.0032,4.0032,0,0,1,3.0537,1.19A4.7864,4.7864,0,0,1,37.4707,20.6841Zm-5.6992-.0161a4.1223,4.1223,0,0,0,.3844,2.0449,1.3657,1.3657,0,0,0,2.3054-.01,4.0756,4.0756,0,0,0,.3844-2.0189,4.1218,4.1218,0,0,0-.3844-2.0449,1.3656,1.3656,0,0,0-2.3054.01A4.0763,4.0763,0,0,0,31.7715,20.668Z" fill="#383c45"/><path d="M48.127,24.9258H45.1016l-.5684-3.1214-.5684-3.1213-.56,3.1213-.56,3.1214H39.8516l-.9043-4.25-.9043-4.25h2.56l.44,3.3054.4405,3.3054.664-3.3054.6641-3.3054h2.4648l.584,3.3054.584,3.3054.5127-3.3054.5127-3.3054h2.416l-.88,4.25Z" fill="#383c45"/><path d="M66.3359,18.7153v6.2105H63.8066V19.1475a1.5175,1.5175,0,0,0-.2081-.9046.5805.5805,0,0,0-.496-.2322,1.0373,1.0373,0,0,0-.7142.2883,2.8691,2.8691,0,0,0-.5817.8162v5.8106H59.2773V19.1475a1.48,1.48,0,0,0-.216-.9046.6.6,0,0,0-.5047-.2322,1.0406,1.0406,0,0,0-.7077.2883,2.8539,2.8539,0,0,0-.5891.8162v5.8106H54.7314V16.4263h2.1924l.0962.5041.0962.5042a3.28,3.28,0,0,1,1.0823-.9582,2.9074,2.9074,0,0,1,1.3826-.3221,2.173,2.173,0,0,1,1.2286.3481,2.0749,2.0749,0,0,1,.7723.9966,3.4622,3.4622,0,0,1,1.1165-1.0085,2.944,2.944,0,0,1,1.4285-.3362,2.0645,2.0645,0,0,1,1.5966.6743A2.7835,2.7835,0,0,1,66.3359,18.7153Z" fill="#383c45"/><path d="M75.5664,21.42H70.3a2.3147,2.3147,0,0,0,.6442,1.5385,1.871,1.871,0,0,0,1.2923.398,2.7841,2.7841,0,0,0,.9987-.1839,4.7553,4.7553,0,0,0,1.0345-.568l.52.7041.52.7041a5.5852,5.5852,0,0,1-1.4586.8444,5.1117,5.1117,0,0,1-1.8549.34,4.1322,4.1322,0,0,1-3.1991-1.2445,4.7145,4.7145,0,0,1-1.0743-3.237,5.0845,5.0845,0,0,1,1.0184-3.2355,3.657,3.657,0,0,1,2.9513-1.3265,3.7332,3.7332,0,0,1,2.8727,1.1444,4.6536,4.6536,0,0,1,1.0482,3.2091c0,.1362-.0039.3-.0117.4624S75.582,21.2922,75.5664,21.42Zm-2.4336-1.6328a2.7569,2.7569,0,0,0-.316-1.4084,1.3133,1.3133,0,0,0-2.0647-.0821A3.07,3.07,0,0,0,70.3,19.9h2.833v-.1123Z" fill="#383c45"/><path d="M87.4531,17.1948l-.5439.7522-.544.7522a3.17,3.17,0,0,0-.7968-.46,2.2738,2.2738,0,0,0-.82-.1482,1.43,1.43,0,0,0-1.2644.6063,3.6046,3.6046,0,0,0-.4484,2.0348,3.1615,3.1615,0,0,0,.4625,1.9411,1.4383,1.4383,0,0,0,1.2191.5243,2.2382,2.2382,0,0,0,.8155-.1442,4.5651,4.5651,0,0,0,.8163-.432l.5523.7842.5522.7842a4.631,4.631,0,0,1-1.2883.7383,4.5089,4.5089,0,0,1-1.5769.27,4.0817,4.0817,0,0,1-3.083-1.2165,4.6239,4.6239,0,0,1-1.126-3.2333,4.8958,4.8958,0,0,1,1.1262-3.3112A3.9407,3.9407,0,0,1,84.54,16.1543a4.6026,4.6026,0,0,1,1.5946.2621A4.3256,4.3256,0,0,1,87.4531,17.1948Z" fill="#383c45"/><path d="M95.7578,23.501l-.2641.8244L95.23,25.15a3.0034,3.0034,0,0,1-1.2588-.3282,1.8741,1.8741,0,0,1-.79-.9042,2.6444,2.6444,0,0,1-1.13.9942,3.4,3.4,0,0,1-1.4313.2861,2.8165,2.8165,0,0,1-2.02-.7463,2.613,2.613,0,0,1-.7485-1.91,2.4744,2.4744,0,0,1,1.0266-2.129,5.0638,5.0638,0,0,1,2.9587-.7362h.8653v-.3682a1.2948,1.2948,0,0,0-.33-1.0343,1.6545,1.6545,0,0,0-1.111-.2782,5.3321,5.3321,0,0,0-.9981.1161,9.8555,9.8555,0,0,0-1.2265.3322l-.2881-.8326-.2881-.8325a10.4488,10.4488,0,0,1,1.6423-.462,8.3083,8.3083,0,0,1,1.5589-.162,3.9509,3.9509,0,0,1,2.685.7664,2.8328,2.8328,0,0,1,.8364,2.2429v3.2973a1.4025,1.4025,0,0,0,.138.7121A.7686.7686,0,0,0,95.7578,23.501Zm-3.0566-.9282V21.0684h-.625a2.1948,2.1948,0,0,0-1.2886.306,1.0833,1.0833,0,0,0-.4243.9425,1.1311,1.1311,0,0,0,.2624.7881.956.956,0,0,0,.73.2842,1.4464,1.4464,0,0,0,.7809-.2162A1.74,1.74,0,0,0,92.7012,22.5728Z" fill="#383c45"/><path d="M100.06,15.77v.6563h2.0009l-.1357.88-.1357.88h-1.73v6.7388H97.5312V18.187H96.25V16.4263h1.2812v-.7525a2.7863,2.7863,0,0,1,.8082-2.0606,3.4048,3.4048,0,0,1,2.44-.8363,5.3,5.3,0,0,1,1.2571.1521,4.9013,4.9013,0,0,1,1.0652.3923l-.3448.8242-.3447.8242a3.0455,3.0455,0,0,0-.7058-.25,2.8988,2.8988,0,0,0-.6223-.07,1.0077,1.0077,0,0,0-.7883.26A1.2433,1.2433,0,0,0,100.06,15.77Z" fill="#383c45"/><path d="M110.0938,21.42h-5.2657a2.3152,2.3152,0,0,0,.6441,1.5385,1.8693,1.8693,0,0,0,1.2915.398,2.7837,2.7837,0,0,0,.999-.1839,4.7584,4.7584,0,0,0,1.0342-.568l.5205.7041.52.7041a5.5844,5.5844,0,0,1-1.459.8444,5.1119,5.1119,0,0,1-1.8545.34,4.1338,4.1338,0,0,1-3.2-1.2445,4.7138,4.7138,0,0,1-1.0748-3.237,5.0834,5.0834,0,0,1,1.0186-3.2355,3.6581,3.6581,0,0,1,2.9521-1.3265,3.7332,3.7332,0,0,1,2.8727,1.1444,4.6536,4.6536,0,0,1,1.0482,3.2091c0,.1362-.0041.3-.0122.4624S110.1094,21.2922,110.0938,21.42ZM107.66,19.7876a2.7611,2.7611,0,0,0-.3156-1.4084,1.3135,1.3135,0,0,0-2.0649-.0821,3.0645,3.0645,0,0,0-.4516,1.6028H107.66v-.1123Z" fill="#383c45"/><path d="M113.7227,13.9614a2.0676,2.0676,0,0,1-.1056.6422,6.3075,6.3075,0,0,1-.3583.8466l-.5122,1.0564-.5122,1.0564h-1.2969l.3364-1.2566L111.61,15.05a1.4086,1.4086,0,0,1-.4345-.4563,1.283,1.283,0,0,1-.1583-.6482,1.239,1.239,0,0,1,.3924-.91,1.4022,1.4022,0,0,1,.9689-.37,1.365,1.365,0,0,1,.96.3721A1.27,1.27,0,0,1,113.7227,13.9614Z" fill="#383c45"/><path d="M121.2773,17.1948l-.4643.7122-.4644.7121a4.4287,4.4287,0,0,0-1.0183-.4841,3.5219,3.5219,0,0,0-1.0783-.1721,1.4112,1.4112,0,0,0-.7709.1761.5325.5325,0,0,0-.2545.464.5686.5686,0,0,0,.3023.5445,6.1528,6.1528,0,0,0,1.4428.5444,4.6083,4.6083,0,0,1,1.9427.9622,2.2667,2.2667,0,0,1,.6823,1.7429A2.451,2.451,0,0,1,120.5,24.4575a4.6688,4.6688,0,0,1-2.6808.74,5.8122,5.8122,0,0,1-2.0171-.35,4.742,4.742,0,0,1-1.5366-.9141l.6162-.6885.6162-.6885a4.1853,4.1853,0,0,0,1.0568.6025,3.345,3.345,0,0,0,1.2011.23,1.69,1.69,0,0,0,.904-.2081.7527.7527,0,0,0,.0083-1.2385,5.8552,5.8552,0,0,0-1.4729-.5383,4.1032,4.1032,0,0,1-1.8871-1.0164,2.362,2.362,0,0,1,.3062-3.4834,4.1088,4.1088,0,0,1,2.5418-.75,5.36,5.36,0,0,1,1.7283.28A4.4968,4.4968,0,0,1,121.2773,17.1948Z" fill="#383c45"/><path d="M133.9492,18.7153v6.2105H131.42V19.1475a1.4406,1.4406,0,0,0-.2143-.9046.6979.6979,0,0,0-.5865-.2322,1.2654,1.2654,0,0,0-.7839.2883,3.0018,3.0018,0,0,0-.6887.8162v5.8106h-2.5283V16.4263H128.81l.0962.5122.0962.5122a3.722,3.722,0,0,1,1.1584-.9663,3.0874,3.0874,0,0,1,1.4344-.33,2.2626,2.2626,0,0,1,1.729.6743A2.7085,2.7085,0,0,1,133.9492,18.7153Z" fill="#383c45"/><path d="M143.165,21.42h-5.2666a2.3143,2.3143,0,0,0,.6443,1.5385,1.8729,1.8729,0,0,0,1.2932.398,2.7844,2.7844,0,0,0,.9983-.1839,4.7528,4.7528,0,0,0,1.0349-.568l.52.7041.5195.7041a5.5722,5.5722,0,0,1-1.4578.8444,5.11,5.11,0,0,1-1.8547.34,4.1324,4.1324,0,0,1-3.2-1.2445,4.7148,4.7148,0,0,1-1.0739-3.237,5.0851,5.0851,0,0,1,1.0183-3.2355,3.6556,3.6556,0,0,1,2.95-1.3265,3.7347,3.7347,0,0,1,2.8736,1.1444,4.6531,4.6531,0,0,1,1.0483,3.2091c0,.1362-.0039.3-.0119.4624S143.1812,21.2922,143.165,21.42Zm-2.4326-1.6328a2.7616,2.7616,0,0,0-.3168-1.4084,1.3134,1.3134,0,0,0-2.0648-.0821,3.0684,3.0684,0,0,0-.4524,1.6028h2.834v-.1123Z" fill="#383c45"/><path d="M151.8691,23.501l-.2641.8244-.2642.8245a3.0038,3.0038,0,0,1-1.2588-.3282,1.8741,1.8741,0,0,1-.79-.9042,2.6438,2.6438,0,0,1-1.13.9942,3.4,3.4,0,0,1-1.4312.2861,2.8168,2.8168,0,0,1-2.02-.7463,2.613,2.613,0,0,1-.7485-1.91,2.4744,2.4744,0,0,1,1.0266-2.129,5.0639,5.0639,0,0,1,2.9588-.7362h.8652v-.3682a1.2951,1.2951,0,0,0-.33-1.0343,1.6548,1.6548,0,0,0-1.1111-.2782,5.3321,5.3321,0,0,0-.9981.1161,9.86,9.86,0,0,0-1.2265.3322l-.2881-.8326-.2881-.8325a10.4488,10.4488,0,0,1,1.6423-.462,8.3083,8.3083,0,0,1,1.5589-.162,3.9508,3.9508,0,0,1,2.685.7664,2.8328,2.8328,0,0,1,.8365,2.2429v3.2973a1.4027,1.4027,0,0,0,.1379.7121A.7686.7686,0,0,0,151.8691,23.501Zm-3.0566-.9282V21.0684h-.625a2.1948,2.1948,0,0,0-1.2886.306,1.0833,1.0833,0,0,0-.4243.9425,1.1306,1.1306,0,0,0,.2625.7881.9557.9557,0,0,0,.73.2842,1.4464,1.4464,0,0,0,.7809-.2162A1.7392,1.7392,0,0,0,148.8125,22.5728Z" fill="#383c45"/><path d="M158.748,16.2983l-.2,1.2244-.2,1.2244c-.1358-.032-.26-.06-.3838-.08a2.37,2.37,0,0,0-.3838-.0319,1.3839,1.3839,0,0,0-1.1629.5342,3.7535,3.7535,0,0,0-.5988,1.4824v4.2739H153.29V16.4263h2.1924l.1123.8244.1123.8245a3.0334,3.0334,0,0,1,.8744-1.3888,2.003,2.003,0,0,1,1.319-.5,3.2531,3.2531,0,0,1,.4355.0262A2.9713,2.9713,0,0,1,158.748,16.2983Z" fill="#383c45"/><path d="M175.0859,18.7153v6.2105h-2.5283V19.1475a1.5182,1.5182,0,0,0-.2081-.9046.5807.5807,0,0,0-.496-.2322,1.0376,1.0376,0,0,0-.7147.2883,2.8794,2.8794,0,0,0-.5822.8162v5.8106h-2.5293V19.1475a1.48,1.48,0,0,0-.216-.9046.6.6,0,0,0-.5047-.2322,1.04,1.04,0,0,0-.7076.2883,2.8492,2.8492,0,0,0-.5883.8162v5.8106h-2.5283V16.4263h2.1924l.0962.5041.0962.5042a3.2812,3.2812,0,0,1,1.0819-.9582,2.9072,2.9072,0,0,1,1.3829-.3221,2.1711,2.1711,0,0,1,1.2278.3481,2.0754,2.0754,0,0,1,.7722.9966,3.47,3.47,0,0,1,1.1169-1.0085,2.9421,2.9421,0,0,1,1.4281-.3362,2.0645,2.0645,0,0,1,1.5966.6743A2.7835,2.7835,0,0,1,175.0859,18.7153Z" fill="#383c45"/><path d="M184.3164,21.42h-5.2656a2.3157,2.3157,0,0,0,.644,1.5385,1.87,1.87,0,0,0,1.2915.398,2.7839,2.7839,0,0,0,.9991-.1839,4.7578,4.7578,0,0,0,1.0341-.568l.52.7041.52.7041a5.5838,5.5838,0,0,1-1.4589.8444,5.1119,5.1119,0,0,1-1.8545.34,4.1338,4.1338,0,0,1-3.2-1.2445,4.7133,4.7133,0,0,1-1.0748-3.237,5.084,5.084,0,0,1,1.0185-3.2355,3.6583,3.6583,0,0,1,2.9522-1.3265,3.7329,3.7329,0,0,1,2.8726,1.1444,4.6531,4.6531,0,0,1,1.0483,3.2091c0,.1362-.0042.3-.0122.4624S184.332,21.2922,184.3164,21.42Zm-2.4336-1.6328a2.76,2.76,0,0,0-.3155-1.4084,1.3137,1.3137,0,0,0-2.065-.0821,3.0646,3.0646,0,0,0-.4515,1.6028h2.832v-.1123Z" fill="#383c45"/><polygon points="104.635 14.97 104.283 14.322 103.932 13.673 105.676 12.617 107.42 11.561 107.917 12.505 108.413 13.449 106.524 14.209 104.635 14.97" fill="#383c45"/></svg>
