<svg id="b25c6e6a-7ac6-4728-ba24-4b04d6c77961" data-name="Layer 1" xmlns="http://www.w3.org/2000/svg" viewBox="0 0 252 84"><title>img-chat-nav-2</title><path d="M21.31,20.1719H17.9805v4.7539h-2.625V13.8335h2.625v4.29H21.31V13.8335h2.6259V24.9258H21.31V20.1719Z" fill="#383c45"/><path d="M33.3262,21.42H28.0605a2.3157,2.3157,0,0,0,.6441,1.5385,1.87,1.87,0,0,0,1.2915.398,2.7837,2.7837,0,0,0,.999-.1839,4.7584,4.7584,0,0,0,1.0342-.568l.52.7041.5205.7041a5.5844,5.5844,0,0,1-1.459.8444,5.1119,5.1119,0,0,1-1.8545.34,4.1335,4.1335,0,0,1-3.1995-1.2445,4.7134,4.7134,0,0,1-1.0749-3.237,5.084,5.084,0,0,1,1.0186-3.2355,3.6582,3.6582,0,0,1,2.9521-1.3265,3.7331,3.7331,0,0,1,2.8727,1.1444,4.6531,4.6531,0,0,1,1.0482,3.2091c0,.1362-.0041.3-.0122.4624S33.3418,21.2922,33.3262,21.42Zm-2.4336-1.6328a2.759,2.759,0,0,0-.3156-1.4084,1.3135,1.3135,0,0,0-2.0649-.0821A3.0655,3.0655,0,0,0,28.0605,19.9h2.8321v-.1123Z" fill="#383c45"/><path d="M40.27,16.2983l-.2,1.2244-.2,1.2244c-.1362-.032-.26-.06-.3842-.08a2.371,2.371,0,0,0-.3843-.0319,1.3835,1.3835,0,0,0-1.1624.5342,3.7477,3.7477,0,0,0-.5984,1.4824v4.2739H34.8105V16.4263h2.1934l.1123.8244.1123.8245a3.0291,3.0291,0,0,1,.8736-1.3888,2.0021,2.0021,0,0,1,1.3188-.5,3.2583,3.2583,0,0,1,.4357.0262A2.9938,2.9938,0,0,1,40.27,16.2983Z" fill="#383c45"/><path d="M48.27,21.42H43.0039a2.3147,2.3147,0,0,0,.6442,1.5385,1.871,1.871,0,0,0,1.2923.398,2.7841,2.7841,0,0,0,.9987-.1839,4.7553,4.7553,0,0,0,1.0345-.568l.52.7041.52.7041a5.5746,5.5746,0,0,1-1.4582.8444,5.11,5.11,0,0,1-1.8543.34,4.1339,4.1339,0,0,1-3.2-1.2445,4.7141,4.7141,0,0,1-1.0744-3.237,5.0845,5.0845,0,0,1,1.0184-3.2355,3.657,3.657,0,0,1,2.9513-1.3265A3.7347,3.7347,0,0,1,47.27,17.2987a4.6528,4.6528,0,0,1,1.0487,3.2091c0,.1362-.0042.3-.0124.4624S48.2856,21.2922,48.27,21.42Zm-2.4326-1.6328a2.7639,2.7639,0,0,0-.3163-1.4084,1.3136,1.3136,0,0,0-2.065-.0821A3.0635,3.0635,0,0,0,43.0039,19.9h2.833v-.1123Z" fill="#383c45"/><path d="M60.8936,23.501l-.2642.8244-.2642.8245a3.0017,3.0017,0,0,1-1.258-.3282,1.8775,1.8775,0,0,1-.7908-.9042,2.64,2.64,0,0,1-1.13.9942,3.4,3.4,0,0,1-1.43.2861,2.8179,2.8179,0,0,1-2.0213-.7463,2.6129,2.6129,0,0,1-.7483-1.91,2.4742,2.4742,0,0,1,1.0264-2.129,5.066,5.066,0,0,1,2.96-.7362h.8632v-.3682a1.2961,1.2961,0,0,0-.33-1.0343,1.6508,1.6508,0,0,0-1.11-.2782,5.336,5.336,0,0,0-.9989.1161,9.8534,9.8534,0,0,0-1.2267.3322l-.2881-.8326-.2881-.8325a10.4534,10.4534,0,0,1,1.6427-.462,8.3093,8.3093,0,0,1,1.5585-.162,3.9509,3.9509,0,0,1,2.6854.7664,2.833,2.833,0,0,1,.8361,2.2429v3.2973a1.4011,1.4011,0,0,0,.1383.7121A.77.77,0,0,0,60.8936,23.501Zm-3.0577-.9282V21.0684h-.623a2.1943,2.1943,0,0,0-1.2889.306,1.0833,1.0833,0,0,0-.424.9425,1.1318,1.1318,0,0,0,.2617.7881.9558.9558,0,0,0,.73.2842,1.4435,1.4435,0,0,0,.78-.2162A1.734,1.734,0,0,0,57.8359,22.5728Z" fill="#383c45"/><path d="M67.7725,16.2983l-.2,1.2244-.2,1.2244c-.1367-.032-.2609-.06-.3851-.08a2.3722,2.3722,0,0,0-.3844-.0319,1.3829,1.3829,0,0,0-1.1622.5342,3.739,3.739,0,0,0-.5975,1.4824v4.2739H62.3145V16.4263h2.1933l.1118.8244.1118.8245a3.0352,3.0352,0,0,1,.8739-1.3888,2.0014,2.0014,0,0,1,1.3185-.5,3.2638,3.2638,0,0,1,.4364.0262A2.9739,2.9739,0,0,1,67.7725,16.2983Z" fill="#383c45"/><path d="M75.7734,21.42H70.5078a2.3152,2.3152,0,0,0,.6441,1.5385,1.8693,1.8693,0,0,0,1.2915.398,2.7837,2.7837,0,0,0,.999-.1839,4.7584,4.7584,0,0,0,1.0342-.568l.52.7041.52.7041a5.5844,5.5844,0,0,1-1.459.8444,5.1119,5.1119,0,0,1-1.8545.34,4.1338,4.1338,0,0,1-3.2-1.2445,4.7133,4.7133,0,0,1-1.0748-3.237,5.084,5.084,0,0,1,1.0185-3.2355A3.6584,3.6584,0,0,1,71.9,16.1543a3.7332,3.7332,0,0,1,2.8727,1.1444,4.6536,4.6536,0,0,1,1.0482,3.2091c0,.1362-.0042.3-.0122.4624S75.7891,21.2922,75.7734,21.42ZM73.34,19.7876a2.76,2.76,0,0,0-.3155-1.4084,1.3135,1.3135,0,0,0-2.0649-.0821A3.0645,3.0645,0,0,0,70.5078,19.9H73.34v-.1123Z" fill="#383c45"/><path d="M86.3965,24.5254a3.6643,3.6643,0,0,1-1.1044.5043,4.5218,4.5218,0,0,1-1.2.1681,2.703,2.703,0,0,1-2.095-.7923,3.3262,3.3262,0,0,1-.69-2.281V18.187h-1.2V16.4263h1.2V14.5854l1.2647-.144,1.2646-.144v2.1289h1.9532l-.1363.88-.1362.88H83.8359v3.9058a1.4053,1.4053,0,0,0,.2019.8584.7009.7009,0,0,0,.5989.2461,1.54,1.54,0,0,0,.4378-.0641,2.2081,2.2081,0,0,0,.4743-.2084l.4239.8Z" fill="#383c45"/><path d="M94.5566,18.7153v6.2105H92.0283V19.1475a1.424,1.424,0,0,0-.22-.9046.6965.6965,0,0,0-.58-.2322,1.276,1.276,0,0,0-.7847.2863,3.0042,3.0042,0,0,0-.6879.8026v5.8262H87.2266V13.0488l1.2646-.1279,1.2647-.1279v4.5459a3.6055,3.6055,0,0,1,1.1037-.8866,2.9689,2.9689,0,0,1,1.3455-.298,2.2611,2.2611,0,0,1,1.7218.6743A2.7027,2.7027,0,0,1,94.5566,18.7153Z" fill="#383c45"/><path d="M103.7734,21.42H98.5078a2.3152,2.3152,0,0,0,.6441,1.5385,1.8693,1.8693,0,0,0,1.2915.398,2.7837,2.7837,0,0,0,.999-.1839,4.7584,4.7584,0,0,0,1.0342-.568l.52.7041.52.7041a5.5844,5.5844,0,0,1-1.459.8444,5.1119,5.1119,0,0,1-1.8545.34,4.1338,4.1338,0,0,1-3.2-1.2445,4.7133,4.7133,0,0,1-1.0748-3.237,5.084,5.084,0,0,1,1.0185-3.2355A3.6584,3.6584,0,0,1,99.9,16.1543a3.7332,3.7332,0,0,1,2.8727,1.1444,4.6536,4.6536,0,0,1,1.0482,3.2091c0,.1362-.0042.3-.0122.4624S103.7891,21.2922,103.7734,21.42ZM101.34,19.7876a2.76,2.76,0,0,0-.3155-1.4084,1.3135,1.3135,0,0,0-2.0649-.0821A3.0645,3.0645,0,0,0,98.5078,19.9h2.832v-.1123Z" fill="#383c45"/><path d="M116.3809,18.7153v6.2105h-2.5293V19.1475a1.4405,1.4405,0,0,0-.2144-.9046.6979.6979,0,0,0-.5864-.2322,1.2656,1.2656,0,0,0-.784.2883,3.0018,3.0018,0,0,0-.6887.8162v5.8106H109.05V16.4263h2.1924l.0962.5122.0962.5122a3.7205,3.7205,0,0,1,1.1583-.9663,3.0874,3.0874,0,0,1,1.4344-.33,2.2623,2.2623,0,0,1,1.729.6743A2.7085,2.7085,0,0,1,116.3809,18.7153Z" fill="#383c45"/><path d="M125.5967,21.42H120.33a2.3143,2.3143,0,0,0,.6443,1.5385,1.8727,1.8727,0,0,0,1.2932.398,2.7852,2.7852,0,0,0,.9983-.1839,4.7574,4.7574,0,0,0,1.0349-.568l.52.7041.5195.7041a5.5732,5.5732,0,0,1-1.4577.8444,5.1107,5.1107,0,0,1-1.8548.34,4.1322,4.1322,0,0,1-3.1994-1.2445,4.7149,4.7149,0,0,1-1.074-3.237,5.0856,5.0856,0,0,1,1.0183-3.2355,3.6559,3.6559,0,0,1,2.9505-1.3265,3.7344,3.7344,0,0,1,2.8735,1.1444,4.6527,4.6527,0,0,1,1.0483,3.2091c0,.1362-.0039.3-.0118.4624S125.6128,21.2922,125.5967,21.42Zm-2.4326-1.6328a2.7616,2.7616,0,0,0-.3168-1.4084,1.3134,1.3134,0,0,0-2.0648-.0821A3.0665,3.0665,0,0,0,120.33,19.9h2.834v-.1123Z" fill="#383c45"/><path d="M134.3008,23.501l-.2642.8244-.2641.8245a3.0034,3.0034,0,0,1-1.2588-.3282,1.8738,1.8738,0,0,1-.79-.9042,2.6441,2.6441,0,0,1-1.13.9942,3.4,3.4,0,0,1-1.4313.2861,2.8165,2.8165,0,0,1-2.02-.7463,2.613,2.613,0,0,1-.7485-1.91,2.4742,2.4742,0,0,1,1.0266-2.129,5.0636,5.0636,0,0,1,2.9587-.7362h.8652v-.3682a1.2951,1.2951,0,0,0-.33-1.0343,1.6548,1.6548,0,0,0-1.1111-.2782,5.332,5.332,0,0,0-.998.1161,9.8568,9.8568,0,0,0-1.2266.3322l-.2881-.8326-.288-.8325a10.4458,10.4458,0,0,1,1.6423-.462,8.3073,8.3073,0,0,1,1.5588-.162,3.9512,3.9512,0,0,1,2.6851.7664,2.8331,2.8331,0,0,1,.8364,2.2429v3.2973a1.4037,1.4037,0,0,0,.1379.7121A.7688.7688,0,0,0,134.3008,23.501Zm-3.0567-.9282V21.0684h-.625a2.1944,2.1944,0,0,0-1.2885.306,1.0833,1.0833,0,0,0-.4244.9425,1.1306,1.1306,0,0,0,.2625.7881.9559.9559,0,0,0,.73.2842,1.4462,1.4462,0,0,0,.7809-.2162A1.7383,1.7383,0,0,0,131.2441,22.5728Z" fill="#383c45"/><path d="M141.18,16.2983l-.2,1.2244-.2,1.2244c-.1357-.032-.26-.06-.3838-.08a2.3676,2.3676,0,0,0-.3838-.0319,1.3835,1.3835,0,0,0-1.1628.5342,3.752,3.752,0,0,0-.5989,1.4824v4.2739h-2.5283V16.4263h2.1924l.1123.8244.1123.8245a3.0334,3.0334,0,0,1,.8744-1.3888,2.003,2.003,0,0,1,1.3189-.5,3.2557,3.2557,0,0,1,.4356.0262A2.9743,2.9743,0,0,1,141.18,16.2983Z" fill="#383c45"/><path d="M149.1807,21.42h-5.2666a2.3147,2.3147,0,0,0,.6442,1.5385,1.8731,1.8731,0,0,0,1.2933.398,2.7852,2.7852,0,0,0,.9983-.1839,4.7574,4.7574,0,0,0,1.0349-.568l.5195.7041.5195.7041a5.5732,5.5732,0,0,1-1.4577.8444,5.1107,5.1107,0,0,1-1.8548.34,4.132,4.132,0,0,1-3.1994-1.2445,4.7149,4.7149,0,0,1-1.074-3.237,5.0851,5.0851,0,0,1,1.0183-3.2355,3.6559,3.6559,0,0,1,2.95-1.3265,3.7347,3.7347,0,0,1,2.8736,1.1444,4.6531,4.6531,0,0,1,1.0483,3.2091c0,.1362-.0039.3-.0118.4624S149.1968,21.2922,149.1807,21.42Zm-2.4327-1.6328a2.7617,2.7617,0,0,0-.3167-1.4084,1.3134,1.3134,0,0,0-2.0648-.0821,3.0665,3.0665,0,0,0-.4524,1.6028h2.8339v-.1123Z" fill="#383c45"/><path d="M156.7959,17.1948l-.4644.7122-.4643.7121a4.4287,4.4287,0,0,0-1.0183-.4841,3.5221,3.5221,0,0,0-1.0784-.1721,1.409,1.409,0,0,0-.77.1761.5326.5326,0,0,0-.254.464.5687.5687,0,0,0,.3022.5445,6.15,6.15,0,0,0,1.4419.5444,4.61,4.61,0,0,1,1.9436.9622,2.2664,2.2664,0,0,1,.6824,1.7429,2.4506,2.4506,0,0,1-1.0967,2.0605,4.6708,4.6708,0,0,1-2.6816.74,5.808,5.808,0,0,1-2.0166-.35,4.7416,4.7416,0,0,1-1.5361-.9141l.6162-.6885.6162-.6885a4.1823,4.1823,0,0,0,1.0563.6025,3.3405,3.3405,0,0,0,1.2005.23,1.6893,1.6893,0,0,0,.9044-.2081.7531.7531,0,0,0,.0081-1.2385,5.852,5.852,0,0,0-1.4721-.5383,4.1007,4.1007,0,0,1-1.8874-1.0164,2.363,2.363,0,0,1,.306-3.4834,4.1071,4.1071,0,0,1,2.5414-.75,5.3632,5.3632,0,0,1,1.7286.28A4.49,4.49,0,0,1,156.7959,17.1948Z" fill="#383c45"/><path d="M163.6914,24.5254a3.6632,3.6632,0,0,1-1.1044.5043,4.5218,4.5218,0,0,1-1.2.1681,2.703,2.703,0,0,1-2.095-.7923,3.3262,3.3262,0,0,1-.69-2.281V18.187h-1.2V16.4263h1.2V14.5854l1.2646-.144,1.2647-.144v2.1289h1.9531l-.1362.88-.1363.88h-1.6806v3.9058a1.4046,1.4046,0,0,0,.2019.8584.7006.7006,0,0,0,.5988.2461,1.54,1.54,0,0,0,.4378-.0641,2.2109,2.2109,0,0,0,.4744-.2084l.4238.8Z" fill="#383c45"/><path d="M174.9238,17.1948l-.5439.7522-.544.7522a3.17,3.17,0,0,0-.7968-.46,2.2737,2.2737,0,0,0-.82-.1482,1.43,1.43,0,0,0-1.2645.6063,3.6046,3.6046,0,0,0-.4484,2.0348,3.1615,3.1615,0,0,0,.4625,1.9411,1.4383,1.4383,0,0,0,1.2191.5243,2.2391,2.2391,0,0,0,.8156-.1442,4.5679,4.5679,0,0,0,.8162-.432l.5523.7842.5522.7842a4.631,4.631,0,0,1-1.2883.7383,4.5089,4.5089,0,0,1-1.5769.27,4.0817,4.0817,0,0,1-3.083-1.2165,4.6239,4.6239,0,0,1-1.126-3.2333,4.8958,4.8958,0,0,1,1.1262-3.3112,3.9407,3.9407,0,0,1,3.0349-1.2825,4.6026,4.6026,0,0,1,1.5946.2621A4.3256,4.3256,0,0,1,174.9238,17.1948Z" fill="#383c45"/><path d="M183.2285,23.501l-.2646.8244-.2647.8245a3.0017,3.0017,0,0,1-1.258-.3282,1.8775,1.8775,0,0,1-.7908-.9042,2.64,2.64,0,0,1-1.13.9942,3.4,3.4,0,0,1-1.4308.2861,2.8179,2.8179,0,0,1-2.0208-.7463,2.6123,2.6123,0,0,1-.7487-1.91,2.4742,2.4742,0,0,1,1.0267-2.129,5.0663,5.0663,0,0,1,2.96-.7362h.8643v-.3682a1.2955,1.2955,0,0,0-.33-1.0343,1.6528,1.6528,0,0,0-1.11-.2782,5.3342,5.3342,0,0,0-.9988.1161,9.8233,9.8233,0,0,0-1.2258.3322l-.2881-.8326-.2881-.8325a10.4488,10.4488,0,0,1,1.6423-.462,8.3083,8.3083,0,0,1,1.5589-.162,3.9508,3.9508,0,0,1,2.685.7664,2.8328,2.8328,0,0,1,.8364,2.2429v3.2973a1.4025,1.4025,0,0,0,.138.7121A.7686.7686,0,0,0,183.2285,23.501Zm-3.0576-.9282V21.0684h-.624a2.1948,2.1948,0,0,0-1.2886.306,1.0833,1.0833,0,0,0-.4243.9425,1.131,1.131,0,0,0,.2621.7881.9558.9558,0,0,0,.73.2842,1.4459,1.4459,0,0,0,.78-.2162A1.7343,1.7343,0,0,0,180.1709,22.5728Z" fill="#383c45"/><path d="M187.53,15.77v.6563h2.0009l-.1357.88-.1357.88h-1.73v6.7388H185.002V18.187h-1.2813V16.4263h1.2813v-.7525a2.7862,2.7862,0,0,1,.8081-2.0606,3.4048,3.4048,0,0,1,2.44-.8363,5.3,5.3,0,0,1,1.2571.1521,4.9013,4.9013,0,0,1,1.0652.3923l-.3448.8242-.3447.8242a3.0455,3.0455,0,0,0-.7058-.25,2.8988,2.8988,0,0,0-.6223-.07,1.0077,1.0077,0,0,0-.7883.26A1.2433,1.2433,0,0,0,187.53,15.77Z" fill="#383c45"/><path d="M197.5645,21.42h-5.2666a2.3147,2.3147,0,0,0,.6441,1.5385,1.8714,1.8714,0,0,0,1.2924.398,2.784,2.784,0,0,0,.9986-.1839,4.7581,4.7581,0,0,0,1.0346-.568l.52.7041.52.7041a5.5836,5.5836,0,0,1-1.4586.8444,5.1117,5.1117,0,0,1-1.8549.34,4.1324,4.1324,0,0,1-3.1991-1.2445,4.7145,4.7145,0,0,1-1.0743-3.237,5.0845,5.0845,0,0,1,1.0184-3.2355,3.6571,3.6571,0,0,1,2.9513-1.3265,3.7331,3.7331,0,0,1,2.8727,1.1444,4.6531,4.6531,0,0,1,1.0482,3.2091c0,.1362-.0039.3-.0117.4624S197.58,21.2922,197.5645,21.42Zm-2.4336-1.6328a2.7578,2.7578,0,0,0-.3161-1.4084,1.3133,1.3133,0,0,0-2.0647-.0821,3.0686,3.0686,0,0,0-.4522,1.6028h2.833v-.1123Z" fill="#383c45"/><path d="M201.1934,13.9614a2.0628,2.0628,0,0,1-.106.6422,6.3638,6.3638,0,0,1-.3579.8466l-.5122,1.0564-.5122,1.0564h-1.2969l.3359-1.2566.336-1.2566a1.4088,1.4088,0,0,1-.4336-.4563,1.284,1.284,0,0,1-.1582-.6482,1.2387,1.2387,0,0,1,.3921-.91,1.4017,1.4017,0,0,1,.9692-.37,1.365,1.365,0,0,1,.96.3721A1.27,1.27,0,0,1,201.1934,13.9614Z" fill="#383c45"/><path d="M208.748,17.1948l-.4643.7122-.4644.7121a4.4287,4.4287,0,0,0-1.0183-.4841,3.5219,3.5219,0,0,0-1.0783-.1721,1.4112,1.4112,0,0,0-.7709.1761.5325.5325,0,0,0-.2545.464.5686.5686,0,0,0,.3023.5445,6.1528,6.1528,0,0,0,1.4428.5444,4.6083,4.6083,0,0,1,1.9427.9622,2.2667,2.2667,0,0,1,.6823,1.7429,2.451,2.451,0,0,1-1.0966,2.0605,4.6688,4.6688,0,0,1-2.6808.74,5.8122,5.8122,0,0,1-2.0171-.35,4.742,4.742,0,0,1-1.5366-.9141l.6162-.6885.6163-.6885a4.1829,4.1829,0,0,0,1.0567.6025,3.345,3.345,0,0,0,1.2011.23,1.6893,1.6893,0,0,0,.904-.2081.7527.7527,0,0,0,.0083-1.2385,5.8552,5.8552,0,0,0-1.4729-.5383,4.1032,4.1032,0,0,1-1.8871-1.0164,2.362,2.362,0,0,1,.3062-3.4834,4.1089,4.1089,0,0,1,2.5419-.75,5.36,5.36,0,0,1,1.7282.28A4.4968,4.4968,0,0,1,208.748,17.1948Z" fill="#383c45"/><path d="M219.4355,24.5254a3.6632,3.6632,0,0,1-1.1048.5043,4.5271,4.5271,0,0,1-1.2008.1681,2.7028,2.7028,0,0,1-2.0946-.7923,3.3252,3.3252,0,0,1-.6906-2.281V18.187h-1.2V16.4263h1.2V14.5854l1.2647-.144,1.2646-.144v2.1289h1.9522l-.1358.88-.1357.88H216.874v3.9058a1.4043,1.4043,0,0,0,.2022.8584.6994.6994,0,0,0,.5976.2461,1.538,1.538,0,0,0,.4385-.0641,2.208,2.208,0,0,0,.4736-.2084l.4248.8Z" fill="#383c45"/><path d="M227.8359,20.6841a4.77,4.77,0,0,1-1.1087,3.2773,4.4413,4.4413,0,0,1-6.1009.0459,4.7788,4.7788,0,0,1-1.1146-3.3393,4.7705,4.7705,0,0,1,1.1088-3.2773,4.4486,4.4486,0,0,1,6.1067-.046A4.786,4.786,0,0,1,227.8359,20.6841Zm-5.6992-.0161a4.1223,4.1223,0,0,0,.3844,2.0449,1.3657,1.3657,0,0,0,2.3054-.01,4.0745,4.0745,0,0,0,.3844-2.0189,4.1207,4.1207,0,0,0-.3844-2.0449,1.3656,1.3656,0,0,0-2.3054.01A4.0763,4.0763,0,0,0,222.1367,20.668Z" fill="#383c45"/><path d="M19.9971,44.1421a4.8985,4.8985,0,0,1-1.6424,2.5187,5.5007,5.5007,0,0,1-3.1438,1.0184l-.1357-.8882-.1357-.8882a4.1128,4.1128,0,0,0,1.8182-.5583,2.5845,2.5845,0,0,0,.9181-1.2185h-.8633l-1.2969-4.25-1.2968-4.25h2.6894l.76,3.4414.76,3.4414.8325-3.4414.8326-3.4414h2.6083L21.35,39.8843Z" fill="#383c45"/><path d="M31.3105,39.8843a4.77,4.77,0,0,1-1.1084,3.2773,3.9816,3.9816,0,0,1-3.0537,1.2363,4.0045,4.0045,0,0,1-3.0474-1.19,4.7784,4.7784,0,0,1-1.1147-3.3393,4.7705,4.7705,0,0,1,1.1088-3.2773,3.9815,3.9815,0,0,1,3.0533-1.2364,4.0032,4.0032,0,0,1,3.0537,1.19A4.7859,4.7859,0,0,1,31.3105,39.8843Zm-5.6992-.0161a4.1223,4.1223,0,0,0,.3844,2.0449,1.3657,1.3657,0,0,0,2.3054-.01,4.0745,4.0745,0,0,0,.3844-2.0189,4.1207,4.1207,0,0,0-.3844-2.0449,1.3656,1.3656,0,0,0-2.3054.01A4.0761,4.0761,0,0,0,25.6113,39.8682Z" fill="#383c45"/><path d="M39.9336,44.126H37.7412l-.0561-.5362-.0562-.5361a3.0109,3.0109,0,0,1-1.09,1.0081,3.1385,3.1385,0,0,1-1.4862.3361,2.221,2.221,0,0,1-1.7793-.7182,2.9545,2.9545,0,0,1-.59-1.9546V35.6265h2.5293v5.7783a1.4106,1.4106,0,0,0,.21.8844.72.72,0,0,0,.6058.2362,1.2629,1.2629,0,0,0,.7486-.2561,2.3253,2.3253,0,0,0,.6284-.7366V35.6265h2.5283V44.126Z" fill="#383c45"/><path d="M47.3418,35.4985l-.2,1.2244-.2,1.2244c-.1362-.032-.26-.06-.3843-.08a2.3686,2.3686,0,0,0-.3842-.032,1.3835,1.3835,0,0,0-1.1624.5343,3.7462,3.7462,0,0,0-.5984,1.4824V44.126H41.8828V35.6265h2.1934l.1123.8244.1123.8245a3.0289,3.0289,0,0,1,.8735-1.3888,2.0026,2.0026,0,0,1,1.3189-.5,3.2578,3.2578,0,0,1,.4356.0262A2.9951,2.9951,0,0,1,47.3418,35.4985Z" fill="#383c45"/><path d="M58.6855,36.395l-.5439.7522-.5439.7522a3.1721,3.1721,0,0,0-.7969-.46,2.2733,2.2733,0,0,0-.82-.1482,1.43,1.43,0,0,0-1.2644.6063,3.6037,3.6037,0,0,0-.4485,2.0348,3.1615,3.1615,0,0,0,.4625,1.9411,1.4383,1.4383,0,0,0,1.2191.5243,2.2391,2.2391,0,0,0,.8156-.1442,4.5651,4.5651,0,0,0,.8163-.432l.5522.7842.5522.7841a4.6274,4.6274,0,0,1-1.2883.7384,4.5089,4.5089,0,0,1-1.5769.27,4.0817,4.0817,0,0,1-3.083-1.2164,4.6239,4.6239,0,0,1-1.126-3.2333,4.8958,4.8958,0,0,1,1.1262-3.3112,3.9407,3.9407,0,0,1,3.035-1.2825,4.6034,4.6034,0,0,1,1.5946.2621A4.3243,4.3243,0,0,1,58.6855,36.395Z" fill="#383c45"/><path d="M66.7021,44.126H64.51l-.0562-.5362-.0561-.5361a3.0162,3.0162,0,0,1-1.09,1.0081,3.1392,3.1392,0,0,1-1.4867.3361,2.2207,2.2207,0,0,1-1.7789-.7182,2.9535,2.9535,0,0,1-.59-1.9546V35.6265h2.5293v5.7783a1.4082,1.4082,0,0,0,.21.8844.7207.7207,0,0,0,.6063.2362,1.2619,1.2619,0,0,0,.7478-.2561,2.33,2.33,0,0,0,.6291-.7366V35.6265h2.5283V44.126Z" fill="#383c45"/><path d="M74.1094,35.4985l-.2,1.2244-.2,1.2244c-.1358-.032-.26-.06-.3838-.08a2.3683,2.3683,0,0,0-.3838-.032,1.3836,1.3836,0,0,0-1.1628.5343,3.752,3.752,0,0,0-.5989,1.4824V44.126H68.6514V35.6265h2.1924l.1123.8244.1123.8245a3.0341,3.0341,0,0,1,.8743-1.3888,2.003,2.003,0,0,1,1.319-.5,3.2557,3.2557,0,0,1,.4356.0262A2.9743,2.9743,0,0,1,74.1094,35.4985Z" fill="#383c45"/><path d="M80.5088,35.4985l-.2,1.2244-.2,1.2244c-.1367-.032-.261-.06-.3852-.08a2.3711,2.3711,0,0,0-.3844-.032,1.3831,1.3831,0,0,0-1.1622.5343,3.74,3.74,0,0,0-.5975,1.4824V44.126H75.0508V35.6265h2.1933l.1119.8244.1118.8245a3.0343,3.0343,0,0,1,.8739-1.3888,2.0012,2.0012,0,0,1,1.3185-.5,3.2659,3.2659,0,0,1,.4364.0262A2.9726,2.9726,0,0,1,80.5088,35.4985Z" fill="#383c45"/><path d="M88.51,40.6206H83.2441a2.3157,2.3157,0,0,0,.6441,1.5385,1.87,1.87,0,0,0,1.2915.398,2.7837,2.7837,0,0,0,.999-.1839,4.7584,4.7584,0,0,0,1.0342-.568l.52.7041.52.7041a5.5844,5.5844,0,0,1-1.459.8444,5.1119,5.1119,0,0,1-1.8545.34,4.1338,4.1338,0,0,1-3.2-1.2444,4.7138,4.7138,0,0,1-1.0748-3.237,5.084,5.084,0,0,1,1.0186-3.2355,3.6582,3.6582,0,0,1,2.9521-1.3265,3.7331,3.7331,0,0,1,2.8727,1.1444,4.6536,4.6536,0,0,1,1.0482,3.2091c0,.1362-.0041.3-.0122.4623S88.5254,40.4924,88.51,40.6206Zm-2.4336-1.6328a2.76,2.76,0,0,0-.3156-1.4085,1.3136,1.3136,0,0,0-2.0649-.082A3.0655,3.0655,0,0,0,83.2441,39.1h2.8321v-.1123Z" fill="#383c45"/><path d="M97.3262,37.9155v6.21H94.7969V38.3477a1.4405,1.4405,0,0,0-.2144-.9046.6979.6979,0,0,0-.5864-.2322,1.2656,1.2656,0,0,0-.7839.2882,3.0023,3.0023,0,0,0-.6888.8163V44.126H89.9951V35.6265h2.1924l.0962.5122.0962.5122a3.7216,3.7216,0,0,1,1.1583-.9663,3.0878,3.0878,0,0,1,1.4345-.33,2.2629,2.2629,0,0,1,1.729.6742A2.709,2.709,0,0,1,97.3262,37.9155Z" fill="#383c45"/><path d="M104.51,43.7256a3.6638,3.6638,0,0,1-1.1049.5043,4.5268,4.5268,0,0,1-1.2008.168,2.7026,2.7026,0,0,1-2.0946-.7922,3.3252,3.3252,0,0,1-.6906-2.281V37.3872h-1.2V35.6265h1.2V33.7856l1.2647-.144,1.2646-.144v2.1289H103.9l-.1358.88-.1357.88h-1.6807V41.293a1.405,1.405,0,0,0,.2022.8584.6994.6994,0,0,0,.5976.2461,1.538,1.538,0,0,0,.4385-.0641,2.2108,2.2108,0,0,0,.4737-.2084l.4248.8Z" fill="#383c45"/><path d="M109.0186,41.9653V32.249l1.2646-.136,1.2647-.1359v9.892a.6042.6042,0,0,0,.11.3962.4162.4162,0,0,0,.3384.1322,1.1523,1.1523,0,0,0,.2259-.0221.9815.9815,0,0,0,.19-.058l.24.8962.24.8963a3.3758,3.3758,0,0,1-.6726.2041,4.4284,4.4284,0,0,1-.8645.0839,2.3046,2.3046,0,0,1-1.7207-.6342A2.506,2.506,0,0,1,109.0186,41.9653Z" fill="#383c45"/><path d="M121.709,39.8843a4.7713,4.7713,0,0,1-1.1083,3.2773,4.44,4.44,0,0,1-6.1.0459,4.7791,4.7791,0,0,1-1.1142-3.3393,4.7713,4.7713,0,0,1,1.1083-3.2773,4.4474,4.4474,0,0,1,6.1057-.046A4.7868,4.7868,0,0,1,121.709,39.8843Zm-5.6973-.0161a4.1254,4.1254,0,0,0,.3839,2.0449,1.3648,1.3648,0,0,0,2.3045-.01,4.0787,4.0787,0,0,0,.3839-2.0189,4.1249,4.1249,0,0,0-.3839-2.0449,1.3648,1.3648,0,0,0-2.3045.01A4.0791,4.0791,0,0,0,116.0117,39.8682Z" fill="#383c45"/><path d="M129.8047,36.395l-.544.7522-.5439.7522a3.17,3.17,0,0,0-.7969-.46,2.2729,2.2729,0,0,0-.82-.1482,1.43,1.43,0,0,0-1.2644.6063,3.6045,3.6045,0,0,0-.4485,2.0348,3.1615,3.1615,0,0,0,.4625,1.9411,1.4387,1.4387,0,0,0,1.2192.5243,2.2385,2.2385,0,0,0,.8155-.1442,4.5651,4.5651,0,0,0,.8163-.432l.5522.7842.5523.7841a4.63,4.63,0,0,1-1.2883.7384,4.5093,4.5093,0,0,1-1.5769.27,4.0819,4.0819,0,0,1-3.0831-1.2164,4.6243,4.6243,0,0,1-1.1259-3.2333,4.8953,4.8953,0,0,1,1.1262-3.3112,3.9405,3.9405,0,0,1,3.0349-1.2825,4.6026,4.6026,0,0,1,1.5946.2621A4.3236,4.3236,0,0,1,129.8047,36.395Z" fill="#383c45"/><path d="M138.1094,42.7012l-.2642.8244-.2641.8245a3.0034,3.0034,0,0,1-1.2588-.3282,1.8742,1.8742,0,0,1-.79-.9042,2.6441,2.6441,0,0,1-1.13.9942,3.4,3.4,0,0,1-1.4313.286,2.8163,2.8163,0,0,1-2.02-.7462,2.6131,2.6131,0,0,1-.7486-1.91,2.4742,2.4742,0,0,1,1.0267-2.129,5.0636,5.0636,0,0,1,2.9587-.7362h.8652v-.3682a1.2955,1.2955,0,0,0-.33-1.0344,1.6554,1.6554,0,0,0-1.1111-.2781,5.332,5.332,0,0,0-.998.1161,9.8568,9.8568,0,0,0-1.2266.3322l-.2881-.8326-.2881-.8325a10.45,10.45,0,0,1,1.6424-.462,8.3065,8.3065,0,0,1,1.5588-.162,3.9518,3.9518,0,0,1,2.6851.7663,2.8335,2.8335,0,0,1,.8364,2.243v3.2973a1.4027,1.4027,0,0,0,.1379.7121A.7688.7688,0,0,0,138.1094,42.7012Zm-3.0567-.9283V40.2686h-.625a2.1944,2.1944,0,0,0-1.2885.306,1.0833,1.0833,0,0,0-.4244.9425,1.1306,1.1306,0,0,0,.2625.7881.9559.9559,0,0,0,.73.2842,1.4462,1.4462,0,0,0,.7809-.2162A1.7378,1.7378,0,0,0,135.0527,41.7729Z" fill="#383c45"/><path d="M144.877,43.7256a3.6649,3.6649,0,0,1-1.1049.5043,4.5268,4.5268,0,0,1-1.2008.168,2.7026,2.7026,0,0,1-2.0946-.7922,3.3252,3.3252,0,0,1-.6906-2.281V37.3872h-1.2V35.6265h1.2V33.7856l1.2647-.144,1.2646-.144v2.1289h1.9522l-.1358.88-.1357.88h-1.6807V41.293a1.4043,1.4043,0,0,0,.2022.8584.6994.6994,0,0,0,.5976.2461,1.538,1.538,0,0,0,.4385-.0641,2.208,2.208,0,0,0,.4736-.2084l.4248.8Z" fill="#383c45"/><path d="M148.459,32.5854a1.41,1.41,0,0,1-.422,1.0264,1.5293,1.5293,0,0,1-1.0819.4141,1.5048,1.5048,0,0,1-1.075-.4141,1.4788,1.4788,0,0,1,0-2.053,1.5049,1.5049,0,0,1,1.075-.4143,1.53,1.53,0,0,1,1.0819.4143A1.4111,1.4111,0,0,1,148.459,32.5854Zm-.2246,11.5406h-2.5283V35.6265h2.5283V44.126Z" fill="#383c45"/><path d="M158.0449,39.8843a4.7713,4.7713,0,0,1-1.1083,3.2773,4.44,4.44,0,0,1-6.1.0459,4.78,4.78,0,0,1-1.1141-3.3393,4.7712,4.7712,0,0,1,1.1082-3.2773,4.4474,4.4474,0,0,1,6.1057-.046A4.7868,4.7868,0,0,1,158.0449,39.8843Zm-5.6972-.0161a4.1254,4.1254,0,0,0,.3839,2.0449,1.3647,1.3647,0,0,0,2.3044-.01,4.0787,4.0787,0,0,0,.3839-2.0189,4.1249,4.1249,0,0,0-.3839-2.0449,1.3647,1.3647,0,0,0-2.3044.01A4.0791,4.0791,0,0,0,152.3477,39.8682Z" fill="#383c45"/><path d="M166.8613,37.9155v6.21H164.332V38.3477a1.4406,1.4406,0,0,0-.2143-.9046.6979.6979,0,0,0-.5865-.2322,1.2661,1.2661,0,0,0-.7839.2882,3.0039,3.0039,0,0,0-.6887.8163V44.126H159.53V35.6265h2.1924l.0961.5122.0962.5122a3.722,3.722,0,0,1,1.1584-.9663,3.0874,3.0874,0,0,1,1.4344-.33,2.2629,2.2629,0,0,1,1.729.6742A2.709,2.709,0,0,1,166.8613,37.9155Z" fill="#383c45"/><polygon points="192.105 14.97 191.753 14.322 191.401 13.673 193.146 12.617 194.891 11.561 195.387 12.505 195.883 13.449 193.994 14.209 192.105 14.97" fill="#383c45"/></svg>
