<svg id="b5c582d1-69c5-4064-a6e7-f6422f02f7d9" data-name="Layer 1" xmlns="http://www.w3.org/2000/svg" viewBox="0 0 201 84"><title>img-chat-nav-3</title><path d="M19.9512,14.9219l-.6641.6963-.6641.6963a4.4382,4.4382,0,0,0-1.075-.64,3.1524,3.1524,0,0,0-1.1828-.2083,2.325,2.325,0,0,0-1.9348.9206,4.8772,4.8772,0,0,0-.77,2.9852,5.8964,5.8964,0,0,0,.5763,3.0453,1.8612,1.8612,0,0,0,1.7283.86,3.3372,3.3372,0,0,0,.783-.0881,2.8852,2.8852,0,0,0,.7229-.28V20.396H16.0293l-.1279-.9285-.128-.9284h4.2422v5.49a7.5752,7.5752,0,0,1-3.9863,1.168,4.7787,4.7787,0,0,1-3.8171-1.49A6.4844,6.4844,0,0,1,10.94,19.3716,6.0057,6.0057,0,0,1,12.48,15.0557a5.1551,5.1551,0,0,1,3.7738-1.4947,5.6883,5.6883,0,0,1,2.1127.38A5.394,5.394,0,0,1,19.9512,14.9219Z" fill="#383c45"/><path d="M28.8457,24.9258H26.6533l-.0561-.5362-.0562-.5361a3.0075,3.0075,0,0,1-1.09,1.0081,3.142,3.142,0,0,1-1.4862.3357,2.2212,2.2212,0,0,1-1.7793-.7179,2.9531,2.9531,0,0,1-.59-1.9545V16.4263H24.125v5.7783a1.4106,1.4106,0,0,0,.21.8844.72.72,0,0,0,.6058.2362,1.2629,1.2629,0,0,0,.7486-.2561,2.3253,2.3253,0,0,0,.6284-.7366V16.4263h2.5283v8.4995Z" fill="#383c45"/><path d="M33.5488,13.3853a1.4093,1.4093,0,0,1-.4225,1.0263,1.5308,1.5308,0,0,1-1.0824.4141,1.5047,1.5047,0,0,1-1.0745-.4141,1.4778,1.4778,0,0,1,0-2.053,1.5049,1.5049,0,0,1,1.0745-.4143,1.5309,1.5309,0,0,1,1.0824.4143A1.4106,1.4106,0,0,1,33.5488,13.3853Zm-.2246,11.54H30.7949V16.4263h2.5293v8.4995Z" fill="#383c45"/><path d="M42.83,13.0488v11.877H40.59l-.0644-.4961-.0645-.4961a3.0192,3.0192,0,0,1-.9619.8959,2.8736,2.8736,0,0,1-1.4541.3678,2.7778,2.7778,0,0,1-2.428-1.24,5.9039,5.9039,0,0,1-.8064-3.3052,5.3153,5.3153,0,0,1,.9507-3.2332,3.0892,3.0892,0,0,1,2.524-1.2644,2.9788,2.9788,0,0,1,1.1337.2141,2.6713,2.6713,0,0,1,.8819.5862V12.7769l1.2646.1359Zm-2.5293,9.3321V18.7153a2.38,2.38,0,0,0-.5978-.5282,1.4141,1.4141,0,0,0-.73-.192,1.2473,1.2473,0,0,0-1.1048.6221,3.8845,3.8845,0,0,0-.4324,2.0508,4.2292,4.2292,0,0,0,.39,2.1289,1.0827,1.0827,0,0,0,1.0024.5444,1.4355,1.4355,0,0,0,.8147-.24A2.3022,2.3022,0,0,0,40.3008,22.3809Z" fill="#383c45"/><path d="M52.1582,21.42H46.8926a2.3157,2.3157,0,0,0,.644,1.5385,1.87,1.87,0,0,0,1.2915.398,2.783,2.783,0,0,0,.999-.1839,4.7561,4.7561,0,0,0,1.0342-.568l.52.7043.52.7044a5.5848,5.5848,0,0,1-1.4589.8437,5.1162,5.1162,0,0,1-1.8545.34,4.1344,4.1344,0,0,1-3.2-1.2442,4.7126,4.7126,0,0,1-1.0748-3.2368,5.084,5.084,0,0,1,1.0185-3.2355,3.6583,3.6583,0,0,1,2.9522-1.3265,3.7332,3.7332,0,0,1,2.8723,1.1444,4.6532,4.6532,0,0,1,1.0486,3.2091c0,.1362-.0042.3-.0123.4624S52.1738,21.2922,52.1582,21.42Zm-2.4336-1.6328a2.76,2.76,0,0,0-.3155-1.4084,1.3137,1.3137,0,0,0-2.065-.0821A3.0646,3.0646,0,0,0,46.8926,19.9h2.832v-.1123Z" fill="#383c45"/><path d="M69.0391,18.7153v6.2105H66.5107V19.1475a1.5175,1.5175,0,0,0-.2081-.9046.5805.5805,0,0,0-.496-.2322,1.0376,1.0376,0,0,0-.7147.2883,2.8773,2.8773,0,0,0-.5821.8162v5.8106H61.9805V19.1475a1.48,1.48,0,0,0-.2161-.9046.6.6,0,0,0-.5046-.2322,1.04,1.04,0,0,0-.7077.2883,2.8472,2.8472,0,0,0-.5882.8162v5.8106H57.4355V16.4263h2.1924l.0962.5041.0962.5042a3.2812,3.2812,0,0,1,1.0819-.9582,2.9073,2.9073,0,0,1,1.383-.3221,2.1707,2.1707,0,0,1,1.2277.3481,2.0761,2.0761,0,0,1,.7723.9966,3.4682,3.4682,0,0,1,1.1168-1.0085,2.9421,2.9421,0,0,1,1.4281-.3362,2.0647,2.0647,0,0,1,1.5967.6743A2.7841,2.7841,0,0,1,69.0391,18.7153Z" fill="#383c45"/><path d="M78.27,21.42H73.0039a2.3147,2.3147,0,0,0,.6442,1.5385,1.871,1.871,0,0,0,1.2923.398,2.7841,2.7841,0,0,0,.9987-.1839,4.7553,4.7553,0,0,0,1.0345-.568l.52.7043.52.7044a5.5757,5.5757,0,0,1-1.4582.8437,5.1143,5.1143,0,0,1-1.8543.34,4.1344,4.1344,0,0,1-3.2-1.2442,4.7134,4.7134,0,0,1-1.0744-3.2368,5.0845,5.0845,0,0,1,1.0184-3.2355,3.657,3.657,0,0,1,2.9513-1.3265A3.7343,3.7343,0,0,1,77.27,17.2987a4.6527,4.6527,0,0,1,1.0484,3.2091c0,.1362-.0042.3-.0124.4624S78.2856,21.2922,78.27,21.42Zm-2.4326-1.6328a2.7639,2.7639,0,0,0-.3163-1.4084,1.3136,1.3136,0,0,0-2.065-.0821A3.0635,3.0635,0,0,0,73.0039,19.9h2.833v-.1123Z" fill="#383c45"/><path d="M88.8926,24.5254a3.6589,3.6589,0,0,1-1.1048.504,4.5218,4.5218,0,0,1-1.2.1679,2.7015,2.7015,0,0,1-2.095-.7921,3.3257,3.3257,0,0,1-.69-2.2807V18.187H82.6016V16.4263h1.2011V14.5854l1.2647-.144,1.2646-.144v2.1289h1.9522l-.1363.88-.1362.88h-1.68v3.9058a1.406,1.406,0,0,0,.2018.8584.7.7,0,0,0,.598.2461,1.5384,1.5384,0,0,0,.4381-.0641,2.2062,2.2062,0,0,0,.474-.2084l.4244.8Z" fill="#383c45"/><path d="M97.293,20.6841a4.77,4.77,0,0,1-1.1083,3.277,4.4407,4.4407,0,0,1-6.1.046,4.7789,4.7789,0,0,1-1.1141-3.3391,4.7713,4.7713,0,0,1,1.1083-3.2773,4.4474,4.4474,0,0,1,6.1057-.046A4.7868,4.7868,0,0,1,97.293,20.6841Zm-5.6973-.0161a4.1254,4.1254,0,0,0,.3839,2.0449,1.3648,1.3648,0,0,0,2.3045-.01,4.08,4.08,0,0,0,.3839-2.0189,4.126,4.126,0,0,0-.3839-2.0449,1.3648,1.3648,0,0,0-2.3045.01A4.0794,4.0794,0,0,0,91.5957,20.668Z" fill="#383c45"/><path d="M107.917,24.5254a3.6583,3.6583,0,0,1-1.1045.504,4.5256,4.5256,0,0,1-1.2012.1679,2.7015,2.7015,0,0,1-2.0946-.7921,3.3247,3.3247,0,0,1-.6905-2.2807V18.187H101.627V16.4263h1.1992V14.5854l1.2646-.144,1.2647-.144v2.1289h1.9531l-.1357.88-.1358.88h-1.6816v3.9058a1.4043,1.4043,0,0,0,.2022.8584.7008.7008,0,0,0,.5985.2461,1.54,1.54,0,0,0,.4382-.0641,2.2105,2.2105,0,0,0,.474-.2084l.4243.8Z" fill="#383c45"/><path d="M116.0771,18.7153v6.2105h-2.5283V19.1475a1.4226,1.4226,0,0,0-.22-.9046.6978.6978,0,0,0-.5806-.2322,1.2758,1.2758,0,0,0-.7846.2863,3.0026,3.0026,0,0,0-.688.8026v5.8262h-2.5293V13.0488l1.2646-.1279,1.2647-.1279v4.5459a3.6128,3.6128,0,0,1,1.1045-.8866,2.9667,2.9667,0,0,1,1.3447-.298,2.2626,2.2626,0,0,1,1.7227.6743A2.7023,2.7023,0,0,1,116.0771,18.7153Z" fill="#383c45"/><path d="M125.293,21.42h-5.2657a2.3152,2.3152,0,0,0,.6442,1.5385,1.8712,1.8712,0,0,0,1.2924.398,2.784,2.784,0,0,0,.9986-.1839,4.7581,4.7581,0,0,0,1.0346-.568l.52.7043.52.7044a5.5734,5.5734,0,0,1-1.4581.8437,5.1152,5.1152,0,0,1-1.8544.34,4.134,4.134,0,0,1-3.2-1.2442,4.7129,4.7129,0,0,1-1.0745-3.2368,5.0845,5.0845,0,0,1,1.0184-3.2355,3.657,3.657,0,0,1,2.9513-1.3265,3.7347,3.7347,0,0,1,2.8736,1.1444,4.6531,4.6531,0,0,1,1.0483,3.2091c0,.1362-.0042.3-.0123.4624S125.3091,21.2922,125.293,21.42ZM122.86,19.7876a2.7649,2.7649,0,0,0-.3163-1.4084,1.3138,1.3138,0,0,0-2.0651-.0821,3.0644,3.0644,0,0,0-.4517,1.6028H122.86v-.1123Z" fill="#383c45"/><path d="M137.18,17.1948l-.544.7522-.5439.7522a3.1581,3.1581,0,0,0-.7965-.46,2.2758,2.2758,0,0,0-.8207-.1482,1.429,1.429,0,0,0-1.2639.6063,3.6067,3.6067,0,0,0-.448,2.0348,3.1623,3.1623,0,0,0,.4624,1.9411,1.4373,1.4373,0,0,0,1.2183.5243,2.242,2.242,0,0,0,.816-.1442,4.5612,4.5612,0,0,0,.8168-.432l.5517.7842.5518.7842a4.6075,4.6075,0,0,1-1.2876.7382,4.5137,4.5137,0,0,1-1.5776.27,4.0822,4.0822,0,0,1-3.0827-1.2163,4.6226,4.6226,0,0,1-1.1263-3.233,4.8946,4.8946,0,0,1,1.1267-3.3112,3.9419,3.9419,0,0,1,3.0354-1.2825,4.599,4.599,0,0,1,1.5937.2621A4.3263,4.3263,0,0,1,137.18,17.1948Z" fill="#383c45"/><path d="M145.4844,23.501l-.2637.8247-.2637.8247a3.0023,3.0023,0,0,1-1.2588-.3284,1.8753,1.8753,0,0,1-.79-.9045,2.6441,2.6441,0,0,1-1.1306.9938,3.4019,3.4019,0,0,1-1.4309.286,2.8166,2.8166,0,0,1-2.02-.7459,2.6121,2.6121,0,0,1-.7482-1.91,2.4744,2.4744,0,0,1,1.0263-2.129,5.0637,5.0637,0,0,1,2.9591-.7362h.8642v-.3682a1.2955,1.2955,0,0,0-.33-1.0343,1.6528,1.6528,0,0,0-1.11-.2782,5.3339,5.3339,0,0,0-.9982.1161,9.8858,9.8858,0,0,0-1.2274.3322l-.2881-.8326-.2881-.8325a10.4534,10.4534,0,0,1,1.6427-.462,8.3093,8.3093,0,0,1,1.5585-.162,3.9509,3.9509,0,0,1,2.6854.7664,2.833,2.833,0,0,1,.8361,2.2429v3.2973a1.4011,1.4011,0,0,0,.1383.7121A.77.77,0,0,0,145.4844,23.501Zm-3.0567-.9282V21.0684h-.624a2.1945,2.1945,0,0,0-1.2889.306,1.0833,1.0833,0,0,0-.424.9425,1.1314,1.1314,0,0,0,.2621.7881.9558.9558,0,0,0,.73.2842,1.444,1.444,0,0,0,.78-.2162A1.74,1.74,0,0,0,142.4277,22.5728Z" fill="#383c45"/><path d="M149.7871,15.77v.6563h2l-.1357.88-.1358.88h-1.7285v6.7388h-2.5293V18.187h-1.2812V16.4263h1.2812v-.7525a2.7863,2.7863,0,0,1,.8082-2.0606,3.4069,3.4069,0,0,1,2.4408-.8363,5.2947,5.2947,0,0,1,1.2563.1521,4.9014,4.9014,0,0,1,1.065.3923l-.3442.8242-.3443.8242a3.0446,3.0446,0,0,0-.7059-.25,2.9039,2.9039,0,0,0-.6232-.07,1.0063,1.0063,0,0,0-.7878.26A1.245,1.245,0,0,0,149.7871,15.77Z" fill="#383c45"/><path d="M159.82,21.42h-5.2656a2.3147,2.3147,0,0,0,.6442,1.5385,1.871,1.871,0,0,0,1.2923.398,2.7845,2.7845,0,0,0,.9987-.1839,4.7576,4.7576,0,0,0,1.0345-.568l.52.7043.52.7044a5.5757,5.5757,0,0,1-1.4582.8437,5.1147,5.1147,0,0,1-1.8543.34,4.1344,4.1344,0,0,1-3.2-1.2442,4.7129,4.7129,0,0,1-1.0745-3.2368,5.0846,5.0846,0,0,1,1.0185-3.2355,3.657,3.657,0,0,1,2.9513-1.3265,3.7344,3.7344,0,0,1,2.8735,1.1444,4.6527,4.6527,0,0,1,1.0483,3.2091c0,.1362-.0041.3-.0123.4624S159.8364,21.2922,159.82,21.42Zm-2.4326-1.6328a2.7639,2.7639,0,0,0-.3163-1.4084,1.3138,1.3138,0,0,0-2.0651-.0821,3.0645,3.0645,0,0,0-.4516,1.6028h2.833v-.1123Z" fill="#383c45"/><path d="M172.957,20.6841a4.77,4.77,0,0,1-1.1084,3.277,4.4423,4.4423,0,0,1-6.1012.046,4.7781,4.7781,0,0,1-1.1146-3.3391,4.77,4.77,0,0,1,1.1088-3.2773,4.449,4.449,0,0,1,6.107-.046A4.7864,4.7864,0,0,1,172.957,20.6841Zm-5.6992-.0161a4.1223,4.1223,0,0,0,.3844,2.0449,1.3657,1.3657,0,0,0,2.3054-.01,4.0745,4.0745,0,0,0,.3844-2.0189,4.1207,4.1207,0,0,0-.3844-2.0449,1.3656,1.3656,0,0,0-2.3054.01A4.0763,4.0763,0,0,0,167.2578,20.668Z" fill="#383c45"/><path d="M181.7725,18.7153v6.2105h-2.5284V19.1475a1.4406,1.4406,0,0,0-.2143-.9046.6979.6979,0,0,0-.5864-.2322,1.2662,1.2662,0,0,0-.7847.2883,2.9917,2.9917,0,0,0-.688.8162v5.8106h-2.5293V16.4263h2.1934l.0957.5122.0957.5122a3.7279,3.7279,0,0,1,1.1592-.9663,3.0881,3.0881,0,0,1,1.4345-.33,2.261,2.261,0,0,1,1.7285.6743A2.7093,2.7093,0,0,1,181.7725,18.7153Z" fill="#383c45"/><path d="M17.9824,34.9062H14.0762v2.6573h3.41v1.8408h-3.41v2.833h4.1777V44.126H11.4512V33.0332h6.8027l-.1357.9365Z" fill="#383c45"/><path d="M26.9746,42.7012l-.2646.8242-.2647.8242a3.0032,3.0032,0,0,1-1.258-.328,1.8766,1.8766,0,0,1-.7908-.9044,2.64,2.64,0,0,1-1.13.9951,3.3981,3.3981,0,0,1-1.4308.2861,2.8168,2.8168,0,0,1-2.0208-.7467,2.6128,2.6128,0,0,1-.7487-1.91,2.4744,2.4744,0,0,1,1.0267-2.1288,5.0655,5.0655,0,0,1,2.96-.7364h.8643v-.3682a1.2964,1.2964,0,0,0-.33-1.0342,1.6529,1.6529,0,0,0-1.1106-.2783,5.3342,5.3342,0,0,0-.9988.1161,9.8233,9.8233,0,0,0-1.2258.3322l-.2881-.8326-.2881-.8325a10.3956,10.3956,0,0,1,1.6423-.4621,8.3078,8.3078,0,0,1,1.5589-.1619,3.952,3.952,0,0,1,2.685.7661,2.8322,2.8322,0,0,1,.8364,2.2427v3.2978a1.4017,1.4017,0,0,0,.138.7119A.77.77,0,0,0,26.9746,42.7012Zm-3.0576-.9278V40.2686h-.624a2.1948,2.1948,0,0,0-1.2886.3059,1.0838,1.0838,0,0,0-.4243.9431,1.131,1.131,0,0,0,.2621.7881.9561.9561,0,0,0,.73.2841,1.4451,1.4451,0,0,0,.78-.2163A1.7366,1.7366,0,0,0,23.917,41.7734Z" fill="#383c45"/><path d="M34.5254,36.3945l-.4639.7124-.4638.7124a4.43,4.43,0,0,0-1.0188-.4841A3.5267,3.5267,0,0,0,31.5,37.1631a1.405,1.405,0,0,0-.77.1763.5319.5319,0,0,0-.2539.4633.5689.5689,0,0,0,.3018.545,6.1592,6.1592,0,0,0,1.4423.5449,4.6057,4.6057,0,0,1,1.9428.9618,2.2674,2.2674,0,0,1,.6822,1.7433,2.4511,2.4511,0,0,1-1.0962,2.06,4.668,4.668,0,0,1-2.6811.74,5.8029,5.8029,0,0,1-2.0166-.35,4.7443,4.7443,0,0,1-1.5362-.9143l.6162-.6885.6162-.6885a4.1694,4.1694,0,0,0,1.0558.6029,3.3383,3.3383,0,0,0,1.2.23,1.6865,1.6865,0,0,0,.9048-.2085.7533.7533,0,0,0,.0077-1.2384,5.8632,5.8632,0,0,0-1.4721-.5384,4.0967,4.0967,0,0,1-1.8866-1.0162,2.3635,2.3635,0,0,1,.3061-3.4838,4.1049,4.1049,0,0,1,2.54-.75,5.3661,5.3661,0,0,1,1.729.28A4.4759,4.4759,0,0,1,34.5254,36.3945Z" fill="#383c45"/><path d="M41.4219,43.7256a3.6672,3.6672,0,0,1-1.1048.5045,4.5145,4.5145,0,0,1-1.2.1683,2.7032,2.7032,0,0,1-2.095-.7926,3.327,3.327,0,0,1-.69-2.2816V37.3867H35.1309v-1.76H36.332V33.7852l1.2647-.1436,1.2646-.1436v2.129h1.9522l-.1363.88-.1362.88h-1.68V41.293a1.406,1.406,0,0,0,.2018.8584.7.7,0,0,0,.598.2461,1.5384,1.5384,0,0,0,.4381-.0641,2.2062,2.2062,0,0,0,.474-.2084l.4244.8Z" fill="#383c45"/><path d="M57.1191,44.126H54.543l-.0962-2.169-.0962-2.1689c-.04-.7764-.0681-1.5647-.0762-2.3311s.0039-1.5107.044-2.1992l-.8565,3.85-.8564,3.85h-2.48l-.9121-3.85-.9121-3.85c.0556.8164.0835,1.5689.0893,2.3113s-.01,1.4748-.0424,2.2512l-.0957,2.1528-.0958,2.1529h-2.56l.416-5.5464.416-5.5464H49.74l.8326,3.7617.8325,3.7617.7763-3.7617.7764-3.7617h3.3291l.416,5.5464Z" fill="#383c45"/><path d="M66.4785,39.8848A4.771,4.771,0,0,1,65.37,43.1619a4.4414,4.4414,0,0,1-6.1012.0459,4.78,4.78,0,0,1-1.1146-3.34,4.77,4.77,0,0,1,1.1088-3.2775,4.4489,4.4489,0,0,1,6.107-.0455A4.7869,4.7869,0,0,1,66.4785,39.8848Zm-5.6992-.0166a4.12,4.12,0,0,0,.3844,2.0446,1.3658,1.3658,0,0,0,2.3054-.01,4.0725,4.0725,0,0,0,.3844-2.018,4.1236,4.1236,0,0,0-.3844-2.0452,1.3655,1.3655,0,0,0-2.3054.01A4.0761,4.0761,0,0,0,60.7793,39.8682Z" fill="#383c45"/><path d="M75.2939,37.916v6.21H72.7656V38.3477a1.4406,1.4406,0,0,0-.2143-.9046.6979.6979,0,0,0-.5865-.2322,1.2667,1.2667,0,0,0-.7846.2882,2.9921,2.9921,0,0,0-.688.8163V44.126H67.9629V35.627h2.1933l.0958.5117.0957.5117a3.73,3.73,0,0,1,1.1591-.9658,3.0888,3.0888,0,0,1,1.4346-.33,2.261,2.261,0,0,1,1.7285.6743A2.71,2.71,0,0,1,75.2939,37.916Z" fill="#383c45"/><path d="M82.59,35.498l-.2,1.2247-.2,1.2246c-.1363-.0323-.26-.06-.3843-.08a2.4051,2.4051,0,0,0-.3843-.0315,1.3837,1.3837,0,0,0-1.1624.534,3.7426,3.7426,0,0,0-.5983,1.4817V44.126H77.1309V35.627h2.1933l.1123.8242.1123.8242a3.0279,3.0279,0,0,1,.8736-1.3886,2.0023,2.0023,0,0,1,1.3188-.5,3.2958,3.2958,0,0,1,.4357.0257A2.961,2.961,0,0,1,82.59,35.498Z" fill="#383c45"/><path d="M91.07,39.8848a4.771,4.771,0,0,1-1.1084,3.2771,4.44,4.44,0,0,1-6.1.0459,4.78,4.78,0,0,1-1.1145-3.34,4.7707,4.7707,0,0,1,1.1086-3.2775,4.4479,4.4479,0,0,1,6.1062-.0455A4.7869,4.7869,0,0,1,91.07,39.8848Zm-5.6982-.0166a4.1219,4.1219,0,0,0,.3842,2.0446,1.3655,1.3655,0,0,0,2.305-.01,4.0742,4.0742,0,0,0,.384-2.018,4.1254,4.1254,0,0,0-.384-2.0452,1.3651,1.3651,0,0,0-2.305.01A4.0775,4.0775,0,0,0,85.3721,39.8682Z" fill="#383c45"/><path d="M99.9336,40.6211H94.668a2.3135,2.3135,0,0,0,.6441,1.5376,1.8718,1.8718,0,0,0,1.2924.3979,2.7859,2.7859,0,0,0,.9986-.1837,4.7511,4.7511,0,0,0,1.0346-.5682l.52.7041.52.7041a5.5742,5.5742,0,0,1-1.4581.8451,5.1067,5.1067,0,0,1-1.8544.34,4.1332,4.1332,0,0,1-3.2-1.2447,4.7155,4.7155,0,0,1-1.0745-3.2377,5.084,5.084,0,0,1,1.0185-3.2351,3.657,3.657,0,0,1,2.9512-1.3264,3.7347,3.7347,0,0,1,2.8736,1.1444,4.6527,4.6527,0,0,1,1.0483,3.2091c0,.1362-.0041.3-.0123.4624S99.95,40.4927,99.9336,40.6211ZM97.501,38.9883a2.7663,2.7663,0,0,0-.3163-1.4087,1.3137,1.3137,0,0,0-2.0651-.0824A3.0626,3.0626,0,0,0,94.668,39.1h2.833v-.1113Z" fill="#383c45"/><path d="M112.6855,34.1855l-.6084.7124-.6083.7125a4.3116,4.3116,0,0,0-1.168-.6984,3.4655,3.4655,0,0,0-1.2647-.23,1.8668,1.8668,0,0,0-1.0861.28.9454.9454,0,0,0-.4021.8085.9093.9093,0,0,0,.424.8285,6.6407,6.6407,0,0,0,1.7205.7076,6.0282,6.0282,0,0,1,2.4352,1.277,3.0476,3.0476,0,0,1,.8626,2.309,3.1653,3.1653,0,0,1-1.1626,2.5271,5.0348,5.0348,0,0,1-3.24.9787,6.4905,6.4905,0,0,1-2.4824-.4625,5.4578,5.4578,0,0,1-1.7266-1.1224l.6641-.7281.664-.728A4.8073,4.8073,0,0,0,107,42.1592a3.9652,3.9652,0,0,0,1.508.2861,2.0968,2.0968,0,0,0,1.2892-.3619,1.2069,1.2069,0,0,0,.4725-.9984,1.129,1.129,0,0,0-.41-.9605,4.8383,4.8383,0,0,0-1.6227-.72,6.0864,6.0864,0,0,1-2.6273-1.3908,2.7854,2.7854,0,0,1-.7662-2.0506,2.8764,2.8764,0,0,1,1.1362-2.333,4.6315,4.6315,0,0,1,2.8648-.8682,6.0486,6.0486,0,0,1,2.1911.364A4.9281,4.9281,0,0,1,112.6855,34.1855Z" fill="#383c45"/><path d="M119.709,43.7256a3.6672,3.6672,0,0,1-1.1048.5045,4.5145,4.5145,0,0,1-1.2.1683,2.7032,2.7032,0,0,1-2.095-.7926,3.327,3.327,0,0,1-.69-2.2816V37.3867H113.418v-1.76h1.2011V33.7852l1.2647-.1436,1.2646-.1436v2.129h1.9522l-.1362.88-.1363.88h-1.68V41.293a1.406,1.406,0,0,0,.2018.8584.7.7,0,0,0,.598.2461,1.54,1.54,0,0,0,.4382-.0641,2.2105,2.2105,0,0,0,.474-.2084l.4243.8Z" fill="#383c45"/><path d="M125.9961,35.498l-.2,1.2247-.2,1.2246c-.1363-.0323-.26-.06-.3847-.08a2.4048,2.4048,0,0,0-.3839-.0315,1.3835,1.3835,0,0,0-1.1627.534,3.7441,3.7441,0,0,0-.598,1.4817V44.126h-2.5283V35.627h2.1923l.1119.8242.1118.8242a3.0383,3.0383,0,0,1,.8747-1.3886,2.0022,2.0022,0,0,1,1.3186-.5,3.2989,3.2989,0,0,1,.4363.0257A2.9182,2.9182,0,0,1,125.9961,35.498Z" fill="#383c45"/><path d="M133.998,40.6211h-5.2666a2.3135,2.3135,0,0,0,.6442,1.5376,1.8717,1.8717,0,0,0,1.2924.3979,2.7859,2.7859,0,0,0,.9986-.1837,4.7511,4.7511,0,0,0,1.0346-.5682l.52.7041.52.7041a5.5854,5.5854,0,0,1-1.4586.8451,5.1074,5.1074,0,0,1-1.8549.34,4.1321,4.1321,0,0,1-3.1991-1.2447,4.7164,4.7164,0,0,1-1.0743-3.2377,5.0839,5.0839,0,0,1,1.0184-3.2351,3.6572,3.6572,0,0,1,2.9513-1.3264,3.7331,3.7331,0,0,1,2.8727,1.1444,4.6531,4.6531,0,0,1,1.0482,3.2091c0,.1362-.0039.3-.0117.4624S134.0137,40.4927,133.998,40.6211Zm-2.4335-1.6328a2.7593,2.7593,0,0,0-.3161-1.4087,1.3133,1.3133,0,0,0-2.0647-.0824,3.0684,3.0684,0,0,0-.4523,1.6024h2.8331v-.1113Z" fill="#383c45"/><path d="M142.8613,40.6211h-5.2656a2.314,2.314,0,0,0,.644,1.5376,1.87,1.87,0,0,0,1.2915.3979,2.7858,2.7858,0,0,0,.9991-.1837,4.7513,4.7513,0,0,0,1.0342-.5682l.52.7041.52.7041a5.5862,5.5862,0,0,1-1.459.8451,5.1077,5.1077,0,0,1-1.8545.34,4.1336,4.1336,0,0,1-3.2-1.2447,4.7152,4.7152,0,0,1-1.0748-3.2377,5.0834,5.0834,0,0,1,1.0185-3.2351,3.6585,3.6585,0,0,1,2.9522-1.3264,3.7332,3.7332,0,0,1,2.8723,1.1444,4.6527,4.6527,0,0,1,1.0486,3.2091c0,.1362-.0042.3-.0122.4624S142.877,40.4927,142.8613,40.6211Zm-2.4336-1.6328a2.7616,2.7616,0,0,0-.3155-1.4087,1.3136,1.3136,0,0,0-2.065-.0824,3.0645,3.0645,0,0,0-.4515,1.6024h2.832v-.1113Z" fill="#383c45"/><path d="M149.6924,43.7256a3.6666,3.6666,0,0,1-1.1045.5045,4.5188,4.5188,0,0,1-1.2012.1683,2.7031,2.7031,0,0,1-2.0946-.7926,3.326,3.326,0,0,1-.6905-2.2816V37.3867h-1.1993v-1.76h1.1993V33.7852l1.2646-.1436,1.2647-.1436v2.129h1.9531l-.1358.88-.1357.88h-1.6816V41.293a1.4043,1.4043,0,0,0,.2022.8584.7008.7008,0,0,0,.5985.2461,1.54,1.54,0,0,0,.4382-.0641,2.2105,2.2105,0,0,0,.474-.2084l.4243.8Z" fill="#383c45"/><polygon points="154.362 14.97 154.01 14.322 153.658 13.673 155.403 12.617 157.147 11.561 157.644 12.505 158.141 13.449 156.251 14.209 154.362 14.97" fill="#383c45"/></svg>
