<svg id="adc85ecb-e142-42c7-a495-983ad1cc40b8" data-name="grey" xmlns="http://www.w3.org/2000/svg" viewBox="0 0 322 376.2188"><title>img-scenario-2-grey</title><path d="M280.2764,376.2188H41v-60H280.2764Z" fill="#383c45"/><path d="M90,164.2188H0v-90H90Z" fill="#383c45"/><path d="M90,280.2188H0v-90H90Z" fill="#383c45"/><path d="M322,164.2188H232v-90h90Z" fill="#383c45"/><path d="M206,280.2188H116v-90h90Z" fill="#383c45"/><path d="M322,280.2188H232v-90h90Z" fill="#383c45"/><path d="M206,164.2188H116v-90h90Z" fill="#383c45"/><path d="M52.7864,17.9487h-8.044l-.81,2.6411-.81,2.6412H40.4807l3.3467-10.3248L47.1741,2.5815h3.3008l3.3315,10.3247L57.1379,23.231H54.3772L53.5818,20.59Zm-.66-2.1313L50.4456,10.28,48.7649,4.7422,47.0691,10.28l-1.6958,5.5376h6.7529Z" fill="#383c45"/><path d="M66.2668,23.231H63.2053l-2.7461-7.8938L57.7131,7.4434h2.7618l2.1459,6.7683,2.146,6.7683,2.1158-6.7683,2.1157-6.7683H71.67l-2.7017,7.8938Z" fill="#383c45"/><path d="M86.5608,21.82l-.3.8855-.3.8855a3.8533,3.8533,0,0,1-1.8871-.6981,3.0838,3.0838,0,0,1-1.0543-1.733A5.23,5.23,0,0,1,80.963,23.006a6,6,0,0,1-2.6864.5853,5.0772,5.0772,0,0,1-3.6616-1.3282,4.7019,4.7019,0,0,1-1.3208-3.4443,4.5312,4.5312,0,0,1,1.801-3.8417,8.403,8.403,0,0,1,5.0427-1.3209H82.719v-1.26a3.2188,3.2188,0,0,0-.84-2.4988,3.6522,3.6522,0,0,0-2.5513-.7429,9.8978,9.8978,0,0,0-1.9738.2214,17.6149,17.6149,0,0,0-2.2879.6492l-.3155-.93-.3154-.93a17.4568,17.4568,0,0,1,2.7274-.8106,12.9852,12.9852,0,0,1,2.6154-.27A5.6513,5.6513,0,0,1,83.916,8.4529a5.1759,5.1759,0,0,1,1.3245,3.823v7.3232a2.7269,2.7269,0,0,0,.3448,1.5495A1.83,1.83,0,0,0,86.5608,21.82ZM82.719,19.0889V15.3374H80.468a5.6281,5.6281,0,0,0-3.354.8366,2.94,2.94,0,0,0-1.1479,2.5247,3.0748,3.0748,0,0,0,.7314,2.2062,2.86,2.86,0,0,0,2.1494.7655,3.91,3.91,0,0,0,2.24-.6492A5.1418,5.1418,0,0,0,82.719,19.0889Z" fill="#383c45"/><path d="M94.0081,1.7407a1.7177,1.7177,0,0,1-.4954,1.2421,1.8188,1.8188,0,0,1-1.3054.4991,1.7735,1.7735,0,0,1-1.2793-.4991,1.7305,1.7305,0,0,1-.4912-1.2421A1.73,1.73,0,0,1,90.928.499,1.7739,1.7739,0,0,1,92.2073,0a1.8192,1.8192,0,0,1,1.3054.499A1.7173,1.7173,0,0,1,94.0081,1.7407Zm-.5108,21.49h-2.52V7.4434h2.52V23.231Z" fill="#383c45"/><path d="M99.0217,20.23V1.0806l1.2608-.15,1.2607-.15V20.1694a1.6181,1.6181,0,0,0,.2438.9869.943.943,0,0,0,.807.3339,3.34,3.34,0,0,0,.5586-.045,2.4131,2.4131,0,0,0,.4912-.1351l.3306.8855.3305.8855a4.4421,4.4421,0,0,1-.972.3675,4.633,4.633,0,0,1-1.1295.1427,3.1321,3.1321,0,0,1-2.3112-.8593A3.4574,3.4574,0,0,1,99.0217,20.23Z" fill="#383c45"/><path d="M119.7043,21.82l-.3.8855-.3.8855a3.8529,3.8529,0,0,1-1.8871-.6981,3.0833,3.0833,0,0,1-1.0543-1.733,5.2311,5.2311,0,0,1-2.0558,1.8458,6.0007,6.0007,0,0,1-2.6864.5853,5.0773,5.0773,0,0,1-3.6617-1.3282,4.7023,4.7023,0,0,1-1.3208-3.4443,4.531,4.531,0,0,1,1.8011-3.8417,8.4028,8.4028,0,0,1,5.0427-1.3209h2.581v-1.26a3.2184,3.2184,0,0,0-.84-2.4988,3.6518,3.6518,0,0,0-2.5513-.7429,9.8976,9.8976,0,0,0-1.9737.2214,17.6161,17.6161,0,0,0-2.288.6492l-.3154-.93-.3154-.93a17.4568,17.4568,0,0,1,2.7274-.8106,12.9842,12.9842,0,0,1,2.6153-.27A5.6518,5.6518,0,0,1,117.06,8.4529a5.1759,5.1759,0,0,1,1.3244,3.823v7.3232a2.726,2.726,0,0,0,.3449,1.5495A1.83,1.83,0,0,0,119.7043,21.82Zm-3.8418-2.7314V15.3374h-2.2509a5.6281,5.6281,0,0,0-3.354.8366,2.94,2.94,0,0,0-1.148,2.5247,3.0749,3.0749,0,0,0,.7315,2.2062,2.86,2.86,0,0,0,2.1494.7655,3.9106,3.9106,0,0,0,2.24-.6492A5.1407,5.1407,0,0,0,115.8625,19.0889Z" fill="#383c45"/><path d="M137.0266,15.3071a10.1318,10.1318,0,0,1-1.6473,6.01,5.3876,5.3876,0,0,1-4.506,2.2737,5.1684,5.1684,0,0,1-2.4273-.5854,5.8912,5.8912,0,0,1-1.8647-1.5757l-.12.9-.12.9H124.12V1.0806l1.26-.15,1.26-.15V9.4546a5.9315,5.9315,0,0,1,1.94-1.7371,5.3567,5.3567,0,0,1,2.592-.634A5.06,5.06,0,0,1,135.44,9.2256,10.302,10.302,0,0,1,137.0266,15.3071Zm-2.7314,0a8.7417,8.7417,0,0,0-1.0281-4.806,3.1285,3.1285,0,0,0-2.7844-1.4069,3.7139,3.7139,0,0,0-2.27.7655,6.85,6.85,0,0,0-1.5722,1.756v7.7735a5.4665,5.4665,0,0,0,1.58,1.5794,3.8048,3.8048,0,0,0,2.0518.6115,3.3574,3.3574,0,0,0,2.9231-1.4931A8.4679,8.4679,0,0,0,134.2952,15.3071Z" fill="#383c45"/><path d="M141.4417,20.23V1.0806l1.2607-.15,1.2607-.15V20.1694a1.6181,1.6181,0,0,0,.2438.9869.943.943,0,0,0,.807.3339,3.34,3.34,0,0,0,.5586-.045,2.4131,2.4131,0,0,0,.4912-.1351l.3306.8855.3306.8855a4.4449,4.4449,0,0,1-.9721.3675,4.633,4.633,0,0,1-1.13.1427,3.1321,3.1321,0,0,1-2.3112-.8593A3.4573,3.4573,0,0,1,141.4417,20.23Z" fill="#383c45"/><path d="M162.0349,16.2075H151.86a6.66,6.66,0,0,0,1.4066,4.0858,3.8689,3.8689,0,0,0,3.0055,1.2267,6.3481,6.3481,0,0,0,2.15-.3451,8.2855,8.2855,0,0,0,1.992-1.0655l.5555.75.5554.75a9.155,9.155,0,0,1-2.48,1.4519,8.2037,8.2037,0,0,1-2.9529.529,6.374,6.374,0,0,1-5.0835-2.1724,9.0337,9.0337,0,0,1-1.82-5.9316,10.0148,10.0148,0,0,1,1.7337-6.059,5.7465,5.7465,0,0,1,4.75-2.3448A5.8437,5.8437,0,0,1,160.47,9.1656a8.9166,8.9166,0,0,1,1.6245,5.6615c0,.27-.0076.5326-.0188.769S162.05,16.0425,162.0349,16.2075Zm-2.4321-2.1006a6.1274,6.1274,0,0,0-.9568-3.6994,3.4243,3.4243,0,0,0-2.9153-1.3133,3.2284,3.2284,0,0,0-2.6782,1.242,7.11,7.11,0,0,0-1.1929,4.0105h7.7432v-.24Z" fill="#383c45"/><path d="M186.0818,4.5923l-.7051.7954-.7051.7954A8.4117,8.4117,0,0,0,182.3674,4.81a6.7549,6.7549,0,0,0-2.4389-.4276,4.5645,4.5645,0,0,0-2.7423.7765,2.7275,2.7275,0,0,0-1.1,2.2846,2.5949,2.5949,0,0,0,.9007,2.18,10.59,10.59,0,0,0,3.692,1.6618,11.7349,11.7349,0,0,1,4.3031,2.0372,5.1483,5.1483,0,0,1,1.7594,4.1756,5.631,5.631,0,0,1-1.9171,4.3974,7.9772,7.9772,0,0,1-5.3163,1.6959A10.6257,10.6257,0,0,1,175.58,22.89a9.1038,9.1038,0,0,1-3.0045-1.94l.72-.81.72-.81a9.5778,9.5778,0,0,0,2.461,1.5345,7.74,7.74,0,0,0,3.0009.5666,5.24,5.24,0,0,0,3.2268-.9642,3.4851,3.4851,0,0,0,1.3357-2.8776,3.0333,3.0333,0,0,0-.953-2.4649,9.6314,9.6314,0,0,0-3.6095-1.6772,11.7062,11.7062,0,0,1-4.5507-2.236,4.6835,4.6835,0,0,1-1.5118-3.6766,4.8682,4.8682,0,0,1,1.79-3.8155,7.1187,7.1187,0,0,1,4.6037-1.497,9.4339,9.4339,0,0,1,3.564.6115A8.8718,8.8718,0,0,1,186.0818,4.5923Z" fill="#383c45"/><path d="M202.6833,16.2075H192.5085a6.659,6.659,0,0,0,1.4067,4.0858,3.8688,3.8688,0,0,0,3.0055,1.2267,6.3475,6.3475,0,0,0,2.1495-.3451,8.2879,8.2879,0,0,0,1.9921-1.0655l.5551.75.5552.75a9.1493,9.1493,0,0,1-2.48,1.4519,8.2033,8.2033,0,0,1-2.9529.529,6.374,6.374,0,0,1-5.0835-2.1724,9.0337,9.0337,0,0,1-1.82-5.9316,10.0148,10.0148,0,0,1,1.7336-6.059,5.7466,5.7466,0,0,1,4.75-2.3448,5.8431,5.8431,0,0,1,4.7986,2.0821,8.9178,8.9178,0,0,1,1.6242,5.6615c0,.27-.0075.5326-.0188.769S202.698,16.0425,202.6833,16.2075Zm-2.4316-2.1006a6.1274,6.1274,0,0,0-.9568-3.6994A3.4243,3.4243,0,0,0,196.38,9.0942a3.2284,3.2284,0,0,0-2.6782,1.242,7.11,7.11,0,0,0-1.1929,4.0105h7.7432v-.24Z" fill="#383c45"/><path d="M215.4431,7.2637l-.24,1.23-.24,1.2305a5.2108,5.2108,0,0,0-.6453-.1351,5.28,5.28,0,0,0-.7355-.0451,3.0054,3.0054,0,0,0-2.4312,1.1069,8.021,8.021,0,0,0-1.4409,3.4254V23.231h-2.52V7.4434H209.35l.12,1.6508.12,1.6509a6.1361,6.1361,0,0,1,1.7179-2.7425,3.8587,3.8587,0,0,1,2.5741-.9191,7.0986,7.0986,0,0,1,.8026.045A5.9078,5.9078,0,0,1,215.4431,7.2637Z" fill="#383c45"/><path d="M224.63,23.231h-3.0615l-2.7461-7.8938-2.7461-7.8938h2.7617l2.146,6.7683L223.13,20.98l2.1158-6.7683,2.1157-6.7683h2.6719l-2.7017,7.8938Z" fill="#383c45"/><path d="M236.2488,1.7407a1.7177,1.7177,0,0,1-.4954,1.2421,1.8188,1.8188,0,0,1-1.3054.4991,1.7735,1.7735,0,0,1-1.2793-.4991,1.7305,1.7305,0,0,1-.4912-1.2421A1.73,1.73,0,0,1,233.1687.499,1.7739,1.7739,0,0,1,234.448,0a1.8192,1.8192,0,0,1,1.3054.499A1.7173,1.7173,0,0,1,236.2488,1.7407Zm-.5108,21.49h-2.52V7.4434h2.52V23.231Z" fill="#383c45"/><path d="M251.948,8.7642l-.6152.7954-.6153.7954a6.0066,6.0066,0,0,0-1.5985-.8778,5.404,5.404,0,0,0-1.8233-.2926,3.5976,3.5976,0,0,0-3.0842,1.5343,8.1,8.1,0,0,0-1.1483,4.7083,7.5542,7.5542,0,0,0,1.1483,4.5773,3.6493,3.6493,0,0,0,3.0842,1.4257,5.0526,5.0526,0,0,0,1.8084-.3115,7.61,7.61,0,0,0,1.673-.919l.5854.8252.5855.8252a7.3594,7.3594,0,0,1-2.2023,1.2983,7.27,7.27,0,0,1-2.54.4429,6.3043,6.3043,0,0,1-4.9977-2.1536,9.0688,9.0688,0,0,1-1.846-5.98A9.5624,9.5624,0,0,1,242.1968,9.38a6.2029,6.2029,0,0,1,5.009-2.2961,7.5555,7.5555,0,0,1,2.5176.39A7.0725,7.0725,0,0,1,251.948,8.7642Z" fill="#383c45"/><path d="M267.0486,16.2075H256.8738a6.6584,6.6584,0,0,0,1.4066,4.0858,3.8689,3.8689,0,0,0,3.0055,1.2267,6.3471,6.3471,0,0,0,2.1495-.3451,8.2842,8.2842,0,0,0,1.9921-1.0655l.5552.75.5551.75a9.1493,9.1493,0,0,1-2.48,1.4519,8.2029,8.2029,0,0,1-2.9529.529,6.374,6.374,0,0,1-5.0835-2.1724,9.0337,9.0337,0,0,1-1.82-5.9316,10.0155,10.0155,0,0,1,1.7336-6.059,5.7467,5.7467,0,0,1,4.75-2.3448,5.8431,5.8431,0,0,1,4.7986,2.0821,8.9178,8.9178,0,0,1,1.6243,5.6615c0,.27-.0076.5326-.0188.769S267.0632,16.0425,267.0486,16.2075Zm-2.4317-2.1006a6.1274,6.1274,0,0,0-.9567-3.6994,3.4244,3.4244,0,0,0-2.9153-1.3133,3.2284,3.2284,0,0,0-2.6782,1.242,7.11,7.11,0,0,0-1.1929,4.0105h7.7431v-.24Z" fill="#383c45"/><path d="M281.0984,8.8843l-.5552.7954-.5552.7954a8.58,8.58,0,0,0-2.0109-1.0394,6.3556,6.3556,0,0,0-2.1-.3415,3.72,3.72,0,0,0-2.2141.6042,1.939,1.939,0,0,0-.8181,1.617,1.7817,1.7817,0,0,0,.7619,1.5681,8.3078,8.3078,0,0,0,2.7205,1.073,9.423,9.423,0,0,1,3.8567,1.7372,3.9266,3.9266,0,0,1,1.3357,3.1554,4.1776,4.1776,0,0,1-1.8538,3.5754,7.4833,7.4833,0,0,1-4.24,1.1668,9.5942,9.5942,0,0,1-3.4246-.5854,7.8554,7.8554,0,0,1-2.4572-1.4859l.6753-.7654.6753-.7653a7.7652,7.7652,0,0,0,2.0443,1.1406,6.996,6.996,0,0,0,2.4274.42,4.3736,4.3736,0,0,0,2.5549-.6791,2.2169,2.2169,0,0,0,.9568-1.8722,2.0962,2.0962,0,0,0-.7918-1.85,9.23,9.23,0,0,0-3.1106-1.2417,8.1859,8.1859,0,0,1-3.6685-1.7708,3.6374,3.6374,0,0,1-1.1029-2.7614,3.8282,3.8282,0,0,1,1.5979-3.08,6.56,6.56,0,0,1,3.9841-1.2118,8.59,8.59,0,0,1,2.9155.4727A8.795,8.795,0,0,1,281.0984,8.8843Z" fill="#383c45"/></svg>