<svg id="ac3248f7-b24e-46a1-9e0e-9ff7ab045105" data-name="Layer 1" xmlns="http://www.w3.org/2000/svg" viewBox="0 0 90 90"><title>img-scenario-2-spanner</title><path d="M90,90H0V0H90Z" fill="#c53580"/><path d="M59.6675,71.2516A11.2512,11.2512,0,0,1,48.975,56.4465L33.1883,40.6593A11.2566,11.2566,0,0,1,19.1017,26.0074l.5856-1.558,8.1148,6.7054L30.897,28.22,24.1146,20.021l1.5585-.585a11.2481,11.2481,0,0,1,14.838,13.4326L56.7662,49.1232a11.2481,11.2481,0,0,1,13.4327,14.838l-.5856,1.5579-8.1148-6.7047-3.0938,2.9343,6.78,8.1989-1.5573.585A11.2417,11.2417,0,0,1,59.6675,71.2516ZM33.7681,37.88,51.7533,55.8667l-.3026.7323a8.88,8.88,0,0,0,9.671,12.1583L56.65,63.3449a2.27,2.27,0,0,1-.6192-1.5956,2.36,2.36,0,0,1,.6946-1.68l3.01-3.01a2.4356,2.4356,0,0,1,3.3594.0006l5.3271,4.3965A8.8692,8.8692,0,0,0,56.8091,51.59l-.698.2365L37.8081,33.5244l.2366-.6987a8.8708,8.8708,0,0,0-9.8658-11.6144l4.4726,5.4124a2.347,2.347,0,0,1-.0754,3.2752L29.5646,32.91a2.376,2.376,0,0,1-3.3581,0l-5.3283-4.3977A8.8777,8.8777,0,0,0,33.0353,38.183Z" fill="#fff"/></svg>