<svg id="b8fcd528-8a9c-4e34-be5e-d9efd05651b9" data-name="Layer 1" xmlns="http://www.w3.org/2000/svg" viewBox="0 0 239.2764 60"><title>img-scenario-2-button</title><path d="M239.2764,60H0V0H239.2764Z" fill="#2dd5c9"/><path d="M57.43,24.9585l-.47.56-.47.56a4.8905,4.8905,0,0,0-1.3051-.7723,3.8494,3.8494,0,0,0-1.3951-.2472,3.4013,3.4013,0,0,0-2.78,1.2576,6.9765,6.9765,0,0,0-1.16,4.423,6.976,6.976,0,0,0,1.135,4.3285A3.38,3.38,0,0,0,53.77,36.3813a4.0431,4.0431,0,0,0,1.6752-.345,6.571,6.571,0,0,0,1.2848-.7956l.43.55.43.55a5.0666,5.0666,0,0,1-1.55,1.0529,5.7586,5.7586,0,0,1-2.33.4676,5.1753,5.1753,0,0,1-4.0884-1.8281,8.067,8.067,0,0,1-1.6128-5.294,7.9711,7.9711,0,0,1,1.67-5.3157A5.178,5.178,0,0,1,53.69,23.6187a5.6828,5.6828,0,0,1,2.1026.3472A6.2077,6.2077,0,0,1,57.43,24.9585Z" fill="#fff"/><path d="M67.61,30.08v7.542H65.93V30.32a2.4268,2.4268,0,0,0-.4728-1.6778,1.6232,1.6232,0,0,0-1.2674-.4628,2.5833,2.5833,0,0,0-1.5733.5327A5.2432,5.2432,0,0,0,61.3892,30.1v7.5215H59.7085V22.8784l.84-.1.84-.1V28.62a4.5906,4.5906,0,0,1,1.3825-1.278,3.5769,3.5769,0,0,1,1.8177-.4827,2.92,2.92,0,0,1,2.2306.8677A3.3814,3.3814,0,0,1,67.61,30.08Z" fill="#fff"/><path d="M79.8306,32.34a6.2311,6.2311,0,0,1-1.2178,3.9986,4.6337,4.6337,0,0,1-6.8365.035A6.176,6.176,0,0,1,70.5689,32.38a6.2316,6.2316,0,0,1,1.2176-3.9986A4.65,4.65,0,0,1,78.63,28.34,6.1865,6.1865,0,0,1,79.8306,32.34Zm-7.4619.04a5.4273,5.4273,0,0,0,.7275,3.1031,2.667,2.667,0,0,0,4.1962-.005A5.4751,5.4751,0,0,0,78.03,32.34a5.4273,5.4273,0,0,0-.7275-3.1031,2.6591,2.6591,0,0,0-4.1885.005A5.45,5.45,0,0,0,72.3687,32.38Z" fill="#fff"/><path d="M91.4507,32.34a6.23,6.23,0,0,1-1.2178,3.9986,4.6337,4.6337,0,0,1-6.8365.035A6.176,6.176,0,0,1,82.189,32.38a6.2316,6.2316,0,0,1,1.2176-3.9986,4.65,4.65,0,0,1,6.8439-.0423A6.1859,6.1859,0,0,1,91.4507,32.34Zm-7.4619.04a5.4273,5.4273,0,0,0,.7275,3.1031,2.667,2.667,0,0,0,4.1962-.005A5.4751,5.4751,0,0,0,89.65,32.34a5.4273,5.4273,0,0,0-.7275-3.1031,2.6591,2.6591,0,0,0-4.1885.005A5.45,5.45,0,0,0,83.9888,32.38Z" fill="#fff"/><path d="M100.8892,28.0591l-.37.53-.37.53a5.7135,5.7135,0,0,0-1.34-.6925,4.2413,4.2413,0,0,0-1.4-.2274,2.479,2.479,0,0,0-1.4753.4025,1.2915,1.2915,0,0,0-.5452,1.077,1.188,1.188,0,0,0,.5076,1.0455,5.5257,5.5257,0,0,0,1.8127.7152,6.283,6.283,0,0,1,2.5706,1.1576,2.617,2.617,0,0,1,.89,2.1032,2.7852,2.7852,0,0,1-1.2352,2.3833,4.9848,4.9848,0,0,1-2.8253.7778,6.4,6.4,0,0,1-2.2834-.39,5.2261,5.2261,0,0,1-1.6375-.9907l.45-.51.45-.51a5.1828,5.1828,0,0,0,1.3633.7608,4.6611,4.6611,0,0,0,1.6182.28,2.9128,2.9128,0,0,0,1.7024-.4529A1.4787,1.4787,0,0,0,99.4087,34.8a1.3966,1.3966,0,0,0-.5276-1.2323,6.1465,6.1465,0,0,0-2.073-.8273A5.4582,5.4582,0,0,1,94.3627,31.56a2.4248,2.4248,0,0,1-.7352-1.8407,2.5511,2.5511,0,0,1,1.0653-2.0527,4.3725,4.3725,0,0,1,2.6554-.8076,5.7245,5.7245,0,0,1,1.9433.3152A5.8707,5.8707,0,0,1,100.8892,28.0591Z" fill="#fff"/><path d="M111.67,32.94h-6.7812a4.4388,4.4388,0,0,0,.9374,2.7234,2.5777,2.5777,0,0,0,2.003.8177,4.2308,4.2308,0,0,0,1.4327-.23,5.5243,5.5243,0,0,0,1.328-.71l.37.5.37.5005a6.1146,6.1146,0,0,1-1.6531.9674,5.4636,5.4636,0,0,1-1.968.3529,4.2476,4.2476,0,0,1-3.388-1.4479,6.022,6.022,0,0,1-1.2126-3.9535,6.6773,6.6773,0,0,1,1.1549-4.0385,3.8288,3.8288,0,0,1,3.1654-1.563,3.895,3.895,0,0,1,3.1983,1.3878,5.9428,5.9428,0,0,1,1.083,3.7733c0,.18-.0052.3552-.0127.5127S111.68,32.83,111.67,32.94Zm-1.62-1.3994a4.0834,4.0834,0,0,0-.6379-2.4658,2.2828,2.2828,0,0,0-1.9431-.875,2.1523,2.1523,0,0,0-1.7852.8275,4.7353,4.7353,0,0,0-.7949,2.6725H110.05v-.1592Z" fill="#fff"/><path d="M127.69,25.1987l-.47.53-.47.53a5.5909,5.5909,0,0,0-1.5355-.9154,4.504,4.504,0,0,0-1.6256-.2848,3.0419,3.0419,0,0,0-1.8278.5176,1.8178,1.8178,0,0,0-.7328,1.5224,1.73,1.73,0,0,0,.6,1.4531,7.0538,7.0538,0,0,0,2.46,1.1075,7.8177,7.8177,0,0,1,2.8683,1.3576,3.4315,3.4315,0,0,1,1.1727,2.783,3.7537,3.7537,0,0,1-1.2776,2.9309,5.3168,5.3168,0,0,1-3.5437,1.1306,7.08,7.08,0,0,1-2.6177-.4676,6.0646,6.0646,0,0,1-2.0024-1.2931l.48-.54.48-.54a6.3774,6.3774,0,0,0,1.64,1.0228,5.158,5.158,0,0,0,2.0005.3776,3.4919,3.4919,0,0,0,2.1507-.6427,2.3228,2.3228,0,0,0,.89-1.9179,2.022,2.022,0,0,0-.6354-1.6433A6.4182,6.4182,0,0,0,123.2886,31.1a7.8053,7.8053,0,0,1-3.0331-1.4906,3.1221,3.1221,0,0,1-1.0079-2.4508,3.2443,3.2443,0,0,1,1.1928-2.5424,4.7446,4.7446,0,0,1,3.0679-.9976,6.29,6.29,0,0,1,2.3757.4073A5.92,5.92,0,0,1,127.69,25.1987Z" fill="#fff"/><path d="M138.75,32.94h-6.7812a4.4388,4.4388,0,0,0,.9374,2.7234,2.5777,2.5777,0,0,0,2.003.8177,4.2308,4.2308,0,0,0,1.4327-.23,5.5224,5.5224,0,0,0,1.328-.71l.37.5.37.5005a6.1146,6.1146,0,0,1-1.6531.9674,5.4632,5.4632,0,0,1-1.968.3529,4.2473,4.2473,0,0,1-3.3879-1.4479A6.0214,6.0214,0,0,1,130.188,32.46a6.6773,6.6773,0,0,1,1.1549-4.0385,3.8288,3.8288,0,0,1,3.1654-1.563,3.8946,3.8946,0,0,1,3.1986,1.3878A5.9427,5.9427,0,0,1,138.79,32.02c0,.18-.0052.3552-.0127.5127S138.7593,32.83,138.75,32.94Zm-1.62-1.3994a4.0834,4.0834,0,0,0-.6379-2.4658,2.2828,2.2828,0,0,0-1.9431-.875,2.1523,2.1523,0,0,0-1.7852.8275,4.7353,4.7353,0,0,0-.7949,2.6725h5.1611v-.1592Z" fill="#fff"/><path d="M147.2486,26.979l-.16.82-.16.82a3.4842,3.4842,0,0,0-.43-.09,3.5255,3.5255,0,0,0-.49-.03,2.0024,2.0024,0,0,0-1.62.7376,5.3446,5.3446,0,0,0-.96,2.2829v6.1016h-1.6806V27.0991h1.44l.08,1.1.08,1.1a4.0893,4.0893,0,0,1,1.1449-1.8277,2.5717,2.5717,0,0,1,1.7154-.6127,4.7264,4.7264,0,0,1,.535.03A3.94,3.94,0,0,1,147.2486,26.979Z" fill="#fff"/><path d="M153.3677,37.6216h-2.04L149.4971,32.36l-1.8306-5.2613h1.8408l1.43,4.5108,1.43,4.5107,1.41-4.5107,1.41-4.5108h1.7813L155.1685,32.36Z" fill="#fff"/><path d="M161.1079,23.2983a1.1445,1.1445,0,0,1-.33.8277,1.2125,1.2125,0,0,1-.87.3325,1.1835,1.1835,0,0,1-.8529-.3325,1.209,1.209,0,0,1,0-1.6553,1.1835,1.1835,0,0,1,.8529-.3325,1.2125,1.2125,0,0,1,.87.3325A1.1444,1.1444,0,0,1,161.1079,23.2983Zm-.34,14.3233h-1.6807V27.0991h1.6807V37.6216Z" fill="#fff"/><path d="M171.5689,27.979l-.41.53-.41.53a3.9977,3.9977,0,0,0-1.0656-.5854,3.6051,3.6051,0,0,0-1.2157-.1949,2.3971,2.3971,0,0,0-2.0551,1.0229,5.4,5.4,0,0,0-.7652,3.1382,5.0355,5.0355,0,0,0,.7652,3.0508,2.4318,2.4318,0,0,0,2.0551.95,3.3691,3.3691,0,0,0,1.2057-.2077,5.0754,5.0754,0,0,0,1.1156-.6126l.39.55.39.55a4.9055,4.9055,0,0,1-1.4682.8658,4.8456,4.8456,0,0,1-1.693.2953,4.2,4.2,0,0,1-3.3305-1.4354,6.0461,6.0461,0,0,1-1.23-3.9865,6.3736,6.3736,0,0,1,1.2226-4.0506,4.1334,4.1334,0,0,1,3.3379-1.53,5.0355,5.0355,0,0,1,1.678.26A4.7274,4.7274,0,0,1,171.5689,27.979Z" fill="#fff"/><path d="M181.6284,32.94h-6.7812a4.4388,4.4388,0,0,0,.9374,2.7234,2.5777,2.5777,0,0,0,2.003.8177,4.2318,4.2318,0,0,0,1.4328-.23,5.5261,5.5261,0,0,0,1.328-.71l.37.5.37.5005a6.1146,6.1146,0,0,1-1.6531.9674,5.4632,5.4632,0,0,1-1.968.3529,4.2474,4.2474,0,0,1-3.3879-1.4479,6.0214,6.0214,0,0,1-1.2127-3.9535,6.6773,6.6773,0,0,1,1.1549-4.0385,3.8288,3.8288,0,0,1,3.1654-1.563,3.8946,3.8946,0,0,1,3.1986,1.3878,5.9427,5.9427,0,0,1,1.0827,3.7733c0,.18-.0052.3552-.0127.5127S181.6382,32.83,181.6284,32.94Zm-1.62-1.3994a4.0834,4.0834,0,0,0-.6379-2.4658,2.2828,2.2828,0,0,0-1.9431-.875,2.1523,2.1523,0,0,0-1.7852.8275,4.7353,4.7353,0,0,0-.7949,2.6725h5.1611v-.1592Z" fill="#fff"/><path d="M190.9878,28.0591l-.37.53-.37.53a5.714,5.714,0,0,0-1.34-.6925,4.2413,4.2413,0,0,0-1.4-.2274,2.479,2.479,0,0,0-1.4753.4025,1.2915,1.2915,0,0,0-.5452,1.077,1.1883,1.1883,0,0,0,.5076,1.0455,5.5257,5.5257,0,0,0,1.8127.7152,6.2824,6.2824,0,0,1,2.5706,1.1576,2.6171,2.6171,0,0,1,.89,2.1032,2.7849,2.7849,0,0,1-1.2354,2.3833,4.9868,4.9868,0,0,1-2.8261.7778,6.3963,6.3963,0,0,1-2.2826-.39,5.2279,5.2279,0,0,1-1.6374-.9907l.45-.51.45-.51a5.1839,5.1839,0,0,0,1.3632.7608,4.6615,4.6615,0,0,0,1.6182.28,2.9126,2.9126,0,0,0,1.7024-.4529,1.4785,1.4785,0,0,0,.6374-1.2483,1.3968,1.3968,0,0,0-.5275-1.2323,6.1474,6.1474,0,0,0-2.073-.8273,5.4586,5.4586,0,0,1-2.4455-1.1808,2.4248,2.4248,0,0,1-.7352-1.8407,2.5511,2.5511,0,0,1,1.0653-2.0527,4.3727,4.3727,0,0,1,2.6554-.8076,5.7251,5.7251,0,0,1,1.9434.3152A5.8716,5.8716,0,0,1,190.9878,28.0591Z" fill="#fff"/></svg>