<svg id="bcc8734e-7c46-447f-a57e-53018ef9dd98" data-name="Layer 1" xmlns="http://www.w3.org/2000/svg" viewBox="0 0 402 85"><title>img-text-scenario-2</title><path d="M60.51318,25.43164l-.47021.56055-.47022.56054a4.90075,4.90075,0,0,0-1.30505-.77282,3.84524,3.84524,0,0,0-1.39514-.24768,3.40127,3.40127,0,0,0-2.78027,1.25756,6.97693,6.97693,0,0,0-1.16016,4.4231,6.97558,6.97558,0,0,0,1.135,4.32886A3.3798,3.3798,0,0,0,56.853,36.85449a4.04177,4.04177,0,0,0,1.67517-.34509,6.571,6.571,0,0,0,1.28479-.79553l.43017.55029.43018.55029a5.06686,5.06686,0,0,1-1.55042,1.05286,5.75891,5.75891,0,0,1-2.33044.46765,5.17534,5.17534,0,0,1-4.08838-1.82812,8.067,8.067,0,0,1-1.61279-5.29395,7.97116,7.97116,0,0,1,1.67041-5.3158A5.17789,5.17789,0,0,1,56.773,24.0918a5.67975,5.67975,0,0,1,2.10266.34765A6.22079,6.22079,0,0,1,60.51318,25.43164Z" fill="#383c45"/><path d="M70.69287,30.55273v7.542H69.01318V30.793a2.42693,2.42693,0,0,0-.47277-1.67786,1.62348,1.62348,0,0,0-1.26746-.46277,2.58291,2.58291,0,0,0-1.57324.53272,5.24226,5.24226,0,0,0-1.22754,1.38818v7.52149H62.7915V23.35156l.84034-.1001.84033-.10009v5.9414a4.5899,4.5899,0,0,1,1.38257-1.27807,3.57743,3.57743,0,0,1,1.81762-.48267,2.91954,2.91954,0,0,1,2.23059.86768A3.38131,3.38131,0,0,1,70.69287,30.55273Z" fill="#383c45"/><path d="M82.91357,32.81348A6.23063,6.23063,0,0,1,81.6958,36.812a4.6337,4.6337,0,0,1-6.83655.035,6.17617,6.17617,0,0,1-1.20739-3.99353A6.2313,6.2313,0,0,1,74.86951,28.855a4.6497,4.6497,0,0,1,6.84387-.04236A6.18617,6.18617,0,0,1,82.91357,32.81348Zm-7.46191.04a5.42713,5.42713,0,0,0,.72754,3.10315,2.66711,2.66711,0,0,0,4.19617-.005,5.4749,5.4749,0,0,0,.73742-3.13818,5.42711,5.42711,0,0,0-.72754-3.10315,2.65919,2.65919,0,0,0-4.18847.005A5.44986,5.44986,0,0,0,75.45166,32.85352Z" fill="#383c45"/><path d="M94.53369,32.81348A6.23069,6.23069,0,0,1,93.31592,36.812a4.6337,4.6337,0,0,1-6.83655.035,6.17612,6.17612,0,0,1-1.2074-3.99353A6.23136,6.23136,0,0,1,86.48962,28.855a4.64971,4.64971,0,0,1,6.84388-.04236A6.18623,6.18623,0,0,1,94.53369,32.81348Zm-7.46191.04a5.42713,5.42713,0,0,0,.72754,3.10315,2.6671,2.6671,0,0,0,4.19616-.005,5.47481,5.47481,0,0,0,.73743-3.13818,5.42711,5.42711,0,0,0-.72754-3.10315,2.6592,2.6592,0,0,0-4.18848.005A5.44994,5.44994,0,0,0,87.07178,32.85352Z" fill="#383c45"/><path d="M103.97217,28.53223l-.37012.53027-.37012.53027a5.71014,5.71014,0,0,0-1.34008-.6925,4.23911,4.23911,0,0,0-1.40015-.22742,2.47863,2.47863,0,0,0-1.47534.40259,1.29263,1.29263,0,0,0-.54517,1.07788,1.18717,1.18717,0,0,0,.50757,1.04468,5.53249,5.53249,0,0,0,1.81274.71509,6.27929,6.27929,0,0,1,2.57056,1.158,2.617,2.617,0,0,1,.89038,2.10279,2.78518,2.78518,0,0,1-1.23523,2.3833,4.985,4.985,0,0,1-2.82532.77783,6.39959,6.39959,0,0,1-2.28344-.39014A5.22545,5.22545,0,0,1,96.271,36.9541l.4497-.50976.44971-.50977a5.19287,5.19287,0,0,0,1.36328.75989,4.66457,4.66457,0,0,0,1.61817.28015,2.91336,2.91336,0,0,0,1.70239-.45276,1.47756,1.47756,0,0,0,.63745-1.24744,1.39782,1.39782,0,0,0-.52759-1.23315,6.14325,6.14325,0,0,0-2.073-.82739,5.46157,5.46157,0,0,1-2.44543-1.1803,2.42342,2.42342,0,0,1-.73523-1.84021,2.55222,2.55222,0,0,1,1.06531-2.05359,4.37213,4.37213,0,0,1,2.65539-.80774,5.72523,5.72523,0,0,1,1.94336.31519A5.87088,5.87088,0,0,1,103.97217,28.53223Z" fill="#383c45"/><path d="M114.75342,33.41406h-6.78125a4.43728,4.43728,0,0,0,.93738,2.72254,2.57844,2.57844,0,0,0,2.00305.8175,4.2334,4.2334,0,0,0,1.43274-.22986,5.53,5.53,0,0,0,1.328-.70959l.37012.5.37011.5a6.1,6.1,0,0,1-1.65307.96777,5.46684,5.46684,0,0,1-1.968.35254,4.24769,4.24769,0,0,1-3.38794-1.44788,6.02162,6.02162,0,0,1-1.21265-3.95349A6.67742,6.67742,0,0,1,107.3468,28.895a3.8288,3.8288,0,0,1,3.16541-1.563,3.89487,3.89487,0,0,1,3.19824,1.38782,5.94233,5.94233,0,0,1,1.083,3.77331c0,.18018-.00513.35523-.0127.51282S114.76318,33.30371,114.75342,33.41406Zm-1.62012-1.40039a4.083,4.083,0,0,0-.63794-2.46582,2.28283,2.28283,0,0,0-1.94311-.875,2.152,2.152,0,0,0-1.78516.82764,4.73789,4.73789,0,0,0-.79492,2.67334h5.16113v-.16016Z" fill="#383c45"/><path d="M129.47217,28.53223l-.37012.53027-.37012.53027a5.71014,5.71014,0,0,0-1.34008-.6925,4.23911,4.23911,0,0,0-1.40015-.22742,2.47863,2.47863,0,0,0-1.47534.40259,1.29263,1.29263,0,0,0-.54517,1.07788,1.18717,1.18717,0,0,0,.50757,1.04468,5.53249,5.53249,0,0,0,1.81274.71509,6.27929,6.27929,0,0,1,2.57056,1.158,2.617,2.617,0,0,1,.89038,2.10279,2.78518,2.78518,0,0,1-1.23523,2.3833,4.985,4.985,0,0,1-2.82532.77783,6.39959,6.39959,0,0,1-2.28344-.39014,5.22545,5.22545,0,0,1-1.63745-.99072l.4497-.50976.44971-.50977a5.19287,5.19287,0,0,0,1.36328.75989,4.66457,4.66457,0,0,0,1.61817.28015,2.91336,2.91336,0,0,0,1.70239-.45276,1.47756,1.47756,0,0,0,.63745-1.24744,1.39782,1.39782,0,0,0-.52759-1.23315,6.14325,6.14325,0,0,0-2.073-.82739,5.46157,5.46157,0,0,1-2.44543-1.1803,2.42342,2.42342,0,0,1-.73523-1.84021,2.55222,2.55222,0,0,1,1.06531-2.05359,4.37213,4.37213,0,0,1,2.65539-.80774,5.72523,5.72523,0,0,1,1.94336.31519A5.87088,5.87088,0,0,1,129.47217,28.53223Z" fill="#383c45"/><path d="M140.25244,33.41406h-6.78125a4.43741,4.43741,0,0,0,.93738,2.72254,2.57845,2.57845,0,0,0,2.00305.8175,4.23335,4.23335,0,0,0,1.43274-.22986,5.52977,5.52977,0,0,0,1.328-.70959l.37012.5.37012.5a6.1,6.1,0,0,1-1.65308.96777,5.4668,5.4668,0,0,1-1.968.35254,4.24769,4.24769,0,0,1-3.38794-1.44788,6.02167,6.02167,0,0,1-1.21264-3.95349,6.67735,6.67735,0,0,1,1.15491-4.03857,3.82877,3.82877,0,0,1,3.1654-1.563,3.89479,3.89479,0,0,1,3.19861,1.38782,5.943,5.943,0,0,1,1.08264,3.77331c0,.18018-.00513.35523-.01269.51282S140.26221,33.30371,140.25244,33.41406Zm-1.62012-1.40039a4.083,4.083,0,0,0-.63794-2.46582,2.28281,2.28281,0,0,0-1.94311-.875,2.152,2.152,0,0,0-1.78516.82764,4.738,4.738,0,0,0-.79492,2.67334h5.16113v-.16016Z" fill="#383c45"/><path d="M148.75146,27.45215l-.16015.82031-.16016.82031a3.46181,3.46181,0,0,0-.42993-.09008,3.52268,3.52268,0,0,0-.49-.03,2.00239,2.00239,0,0,0-1.62.73755,5.3444,5.3444,0,0,0-.96009,2.28295v6.10157h-1.68066V27.57227h1.44043l.08008,1.10058.08007,1.10059a4.09109,4.09109,0,0,1,1.1449-1.82862,2.57124,2.57124,0,0,1,1.71546-.61279,4.723,4.723,0,0,1,.535.03A3.93571,3.93571,0,0,1,148.75146,27.45215Z" fill="#383c45"/><path d="M154.87061,38.09473h-2.04L151,32.8335l-1.83057-5.26123h1.84082l1.43018,4.51123,1.43018,4.51123,1.41015-4.51123,1.41016-4.51123h1.78125l-1.80078,5.26123Z" fill="#383c45"/><path d="M162.61084,23.77148a1.1445,1.1445,0,0,1-.3302.82764,1.21249,1.21249,0,0,1-.87.33252,1.18337,1.18337,0,0,1-.8529-.33252,1.20882,1.20882,0,0,1,0-1.65527,1.18337,1.18337,0,0,1,.8529-.33252,1.21249,1.21249,0,0,1,.87.33252A1.14449,1.14449,0,0,1,162.61084,23.77148ZM162.271,38.09473h-1.68067V27.57227H162.271V38.09473Z" fill="#383c45"/><path d="M173.07178,28.45312l-.41016.52979-.41016.52979a4.01344,4.01344,0,0,0-1.06555-.585,3.60215,3.60215,0,0,0-1.2157-.19531,2.3969,2.3969,0,0,0-2.05505,1.02295,5.39943,5.39943,0,0,0-.76526,3.13818,5.03525,5.03525,0,0,0,.76526,3.05079,2.43152,2.43152,0,0,0,2.05505.95019,3.36946,3.36946,0,0,0,1.20569-.20764,5.07769,5.07769,0,0,0,1.1156-.61267l.39014.55029.39014.55029a4.91028,4.91028,0,0,1-1.46814.865,4.84859,4.84859,0,0,1-1.693.29517,4.20077,4.20077,0,0,1-3.33056-1.4353,6.04452,6.04452,0,0,1-1.23-3.9856,6.3756,6.3756,0,0,1,1.22265-4.05151,4.133,4.133,0,0,1,3.33789-1.53052,5.03086,5.03086,0,0,1,1.678.26026A4.722,4.722,0,0,1,173.07178,28.45312Z" fill="#383c45"/><path d="M183.13232,33.41406h-6.78125a4.43741,4.43741,0,0,0,.93738,2.72254,2.57847,2.57847,0,0,0,2.00305.8175,4.23331,4.23331,0,0,0,1.43274-.22986,5.52983,5.52983,0,0,0,1.328-.70959l.37011.5.37012.5a6.09989,6.09989,0,0,1-1.65308.96777,5.46678,5.46678,0,0,1-1.968.35254,4.24766,4.24766,0,0,1-3.38794-1.44788,6.02162,6.02162,0,0,1-1.21265-3.95349,6.67735,6.67735,0,0,1,1.15491-4.03857,3.82877,3.82877,0,0,1,3.1654-1.563,3.89489,3.89489,0,0,1,3.19825,1.38782,5.94233,5.94233,0,0,1,1.083,3.77331c0,.18018-.00512.35523-.01269.51282S183.14209,33.30371,183.13232,33.41406Zm-1.62011-1.40039a4.083,4.083,0,0,0-.63794-2.46582,2.28285,2.28285,0,0,0-1.94312-.875,2.15192,2.15192,0,0,0-1.78515.82764,4.738,4.738,0,0,0-.79493,2.67334h5.16114v-.16016Z" fill="#383c45"/><path d="M192.4917,28.53223l-.37012.53027-.37012.53027a5.71,5.71,0,0,0-1.34008-.6925,4.23911,4.23911,0,0,0-1.40015-.22742,2.47863,2.47863,0,0,0-1.47534.40259,1.29263,1.29263,0,0,0-.54517,1.07788,1.18717,1.18717,0,0,0,.50757,1.04468,5.53247,5.53247,0,0,0,1.81275.71509,6.27931,6.27931,0,0,1,2.57055,1.158,2.617,2.617,0,0,1,.89038,2.10279,2.78516,2.78516,0,0,1-1.23523,2.3833,4.985,4.985,0,0,1-2.82531.77783,6.39961,6.39961,0,0,1-2.28345-.39014,5.22545,5.22545,0,0,1-1.63745-.99072l.4497-.50976.44971-.50977a5.19287,5.19287,0,0,0,1.36328.75989,4.66457,4.66457,0,0,0,1.61817.28015,2.91336,2.91336,0,0,0,1.70239-.45276,1.47756,1.47756,0,0,0,.63745-1.24744,1.39782,1.39782,0,0,0-.52759-1.23315,6.14325,6.14325,0,0,0-2.073-.82739,5.46157,5.46157,0,0,1-2.44543-1.1803,2.42342,2.42342,0,0,1-.73523-1.84021,2.55222,2.55222,0,0,1,1.06531-2.05359,4.37213,4.37213,0,0,1,2.65539-.80774,5.72523,5.72523,0,0,1,1.94336.31519A5.87088,5.87088,0,0,1,192.4917,28.53223Z" fill="#383c45"/><path d="M204.84961,38.1543a6.6561,6.6561,0,0,1-1.59,2.78589,5.297,5.297,0,0,1-3.14972,1.37524l-.10009-.66016-.1001-.66015a4.21153,4.21153,0,0,0,2.2409-.96973A4.83815,4.83815,0,0,0,203.25,38.09473h-.58008L200.8894,32.8335l-1.78051-5.26123h1.80078l1.45044,4.65087,1.45044,4.65088,1.41992-4.65088,1.41992-4.65087h1.74023l-1.7705,5.291Z" fill="#383c45"/><path d="M218.99219,32.81348a6.22943,6.22943,0,0,1-1.21826,3.99853,4.63329,4.63329,0,0,1-6.83619.035,6.17683,6.17683,0,0,1-1.20727-3.99353,6.232,6.232,0,0,1,1.21728-3.99854,4.65012,4.65012,0,0,1,6.84424-.04236A6.18617,6.18617,0,0,1,218.99219,32.81348Zm-7.46289.04a5.42713,5.42713,0,0,0,.72754,3.10315,2.668,2.668,0,0,0,4.197-.005,5.47387,5.47387,0,0,0,.73755-3.13818,5.42711,5.42711,0,0,0-.72754-3.10315,2.65971,2.65971,0,0,0-4.189.005A5.44768,5.44768,0,0,0,211.5293,32.85352Z" fill="#383c45"/><path d="M229.77148,38.09473H228.332l-.06055-.8501-.06054-.8501a4.13637,4.13637,0,0,1-1.37451,1.45032,3.67214,3.67214,0,0,1-1.94581.49011,2.825,2.825,0,0,1-2.16064-.83765,3.41756,3.41756,0,0,1-.78076-2.383v-7.542h1.68164v7.36132a2.39644,2.39644,0,0,0,.417,1.59314,1.61115,1.61115,0,0,0,1.30176.46741,2.60327,2.60327,0,0,0,1.574-.52759,4.56881,4.56881,0,0,0,1.16822-1.35229v-7.542h1.67968V38.09473Z" fill="#383c45"/><path d="M248.43164,38.09473h-2.30078l-.9707-4.501-.97071-4.501-1,4.501-1,4.501h-2.24023l-1.25-5.26123-1.25-5.26123h1.69922l.99023,4.67089.99024,4.6709,1.08105-4.6709,1.08106-4.67089h1.8789l1.041,4.67089,1.041,4.6709,1-4.6709,1-4.67089h1.59961l-1.21,5.26123Z" fill="#383c45"/><path d="M261.08984,37.1543l-.19922.59033-.19921.59033a2.57168,2.57168,0,0,1-1.25879-.46545,2.05242,2.05242,0,0,1-.70215-1.15467,3.48678,3.48678,0,0,1-1.37061,1.23011,3.99869,3.99869,0,0,1-1.78955.39,3.386,3.386,0,0,1-2.44189-.88538,3.133,3.133,0,0,1-.88037-2.29528,3.02048,3.02048,0,0,1,1.20092-2.56079,5.602,5.602,0,0,1,3.36158-.88062h1.71875v-.83984a2.145,2.145,0,0,0-.56006-1.66529,2.43337,2.43337,0,0,0-1.69971-.49487,6.58954,6.58954,0,0,0-1.31518.14758,11.76736,11.76736,0,0,0-1.52466.4325l-.21-.62012-.21-.62012a11.63552,11.63552,0,0,1,1.81762-.54052,8.64312,8.64312,0,0,1,1.74292-.18018,3.76608,3.76608,0,0,1,2.75781.91272,3.45018,3.45018,0,0,1,.88282,2.54822v4.88086a1.81745,1.81745,0,0,0,.23,1.03284A1.22013,1.22013,0,0,0,261.08984,37.1543ZM258.5293,35.334v-2.5h-1.5a3.75,3.75,0,0,0-2.23462.55762,1.95947,1.95947,0,0,0-.76538,1.68262,2.0492,2.0492,0,0,0,.48755,1.47034,1.90582,1.90582,0,0,0,1.43237.51013,2.606,2.606,0,0,0,1.49292-.43262A3.42406,3.42406,0,0,0,258.5293,35.334Z" fill="#383c45"/><path d="M271.92969,30.55273v7.542H270.25V30.793a2.47177,2.47177,0,0,0-.45532-1.67786,1.59471,1.59471,0,0,0-1.26538-.46277,2.59852,2.59852,0,0,0-1.59766.53516,5.205,5.205,0,0,0-1.22266,1.40527v7.502H264.0293V27.57227h1.43945l.07031.80029.07032.80029a4.44427,4.44427,0,0,1,1.41015-1.33313,3.72192,3.72192,0,0,1,1.89063-.50769,2.92142,2.92142,0,0,1,2.23706.86035A3.389,3.389,0,0,1,271.92969,30.55273Z" fill="#383c45"/><path d="M280.84961,37.63477a4.02008,4.02008,0,0,1-1.08472.52258,4.20184,4.20184,0,0,1-1.23559.17761,2.73331,2.73331,0,0,1-2.04322-.75024,3.05041,3.05041,0,0,1-.738-2.19019V28.87305h-1.82032V27.57227h1.82032V25.15234l.84082-.09033.84082-.09033v2.60059h2.541l-.09082.65039-.09082.65039h-2.35937v6.4414a1.94685,1.94685,0,0,0,.30713,1.22242,1.20428,1.20428,0,0,0,1.01318.3977,2.42844,2.42844,0,0,0,.72217-.10742,3.53427,3.53427,0,0,0,.73681-.333l.32032.57031Z" fill="#383c45"/><path d="M293.34961,37.63477a4.02008,4.02008,0,0,1-1.08472.52258,4.20184,4.20184,0,0,1-1.23559.17761,2.73331,2.73331,0,0,1-2.04322-.75024,3.05041,3.05041,0,0,1-.738-2.19019V28.87305h-1.82032V27.57227h1.82032V25.15234l.84082-.09033.84082-.09033v2.60059h2.541l-.09082.65039-.09082.65039h-2.35937v6.4414a1.94685,1.94685,0,0,0,.30713,1.22242,1.20428,1.20428,0,0,0,1.01318.3977,2.42844,2.42844,0,0,0,.72217-.10742,3.53427,3.53427,0,0,0,.73681-.333l.32032.57031Z" fill="#383c45"/><path d="M303.51172,32.81348a6.22937,6.22937,0,0,1-1.21826,3.99853,4.63328,4.63328,0,0,1-6.83618.035A6.17678,6.17678,0,0,1,294.25,32.85352a6.2319,6.2319,0,0,1,1.21729-3.99854,4.65011,4.65011,0,0,1,6.84423-.04236A6.18617,6.18617,0,0,1,303.51172,32.81348Zm-7.46289.04a5.42713,5.42713,0,0,0,.72754,3.10315,2.668,2.668,0,0,0,4.197-.005,5.47387,5.47387,0,0,0,.73755-3.13818,5.42711,5.42711,0,0,0-.72754-3.10315,2.65971,2.65971,0,0,0-4.189.005A5.44768,5.44768,0,0,0,296.04883,32.85352Z" fill="#383c45"/><path d="M320.49023,32.81348A6.23194,6.23194,0,0,1,319.273,36.812a4.6341,4.6341,0,0,1-6.83691.035,6.17546,6.17546,0,0,1-1.20752-3.99353,6.23077,6.23077,0,0,1,1.218-3.99854,4.64929,4.64929,0,0,1,6.84351-.04236A6.18617,6.18617,0,0,1,320.49023,32.81348Zm-7.46093.04a5.42713,5.42713,0,0,0,.72754,3.10315,2.66622,2.66622,0,0,0,4.19531-.005,5.47593,5.47593,0,0,0,.7373-3.13818,5.42711,5.42711,0,0,0-.72754-3.10315,2.65869,2.65869,0,0,0-4.188.005A5.452,5.452,0,0,0,313.0293,32.85352Z" fill="#383c45"/><path d="M330.99023,26.05176v1.52051h2.59961l-.08984.65039-.08984.65039h-2.41993v9.22168h-1.68164V28.87305h-4.01953v9.22168h-1.68164V28.87305h-1.67969V27.57227h1.67969V26.27246a2.77422,2.77422,0,0,1,.84546-2.1228,3.67628,3.67628,0,0,1,2.55493-.81763,6.7502,6.7502,0,0,1,1.5083.15235,8.633,8.633,0,0,1,1.55225.52734,2.68173,2.68173,0,0,1,1.01855-.65015,4.11471,4.11471,0,0,1,1.42286-.22973,5.86153,5.86153,0,0,1,1.31.13488,6.42809,6.42809,0,0,1,1.19.40516l-.26954.60986-.26953.60986a4.708,4.708,0,0,0-.97534-.31213,4.47459,4.47459,0,0,0-.886-.08728,1.698,1.698,0,0,0-1.24463.38244A1.58557,1.58557,0,0,0,330.99023,26.05176Zm-1.68164.02051a3.87155,3.87155,0,0,1,.03052-.49256,3.05019,3.05019,0,0,1,.09058-.44787,6.732,6.732,0,0,0-1.16748-.34034,6.12141,6.12141,0,0,0-1.15283-.10009,2.06709,2.06709,0,0,0-1.41334.38293,1.49053,1.49053,0,0,0-.407,1.17761v1.32032h4.01953v-1.5Z" fill="#383c45"/><path d="M343.36914,33.41406h-6.78125a4.43659,4.43659,0,0,0,.9375,2.72254,2.57978,2.57978,0,0,0,2.00391.8175,4.2321,4.2321,0,0,0,1.43261-.22986,5.51839,5.51839,0,0,0,1.32715-.70959l.37012.5.37012.5a6.08878,6.08878,0,0,1-1.65235.96777,5.46886,5.46886,0,0,1-1.96875.35254,4.24632,4.24632,0,0,1-3.38745-1.44788,6.02289,6.02289,0,0,1-1.21216-3.95349,6.67816,6.67816,0,0,1,1.15454-4.03857,3.82868,3.82868,0,0,1,3.16578-1.563,3.89487,3.89487,0,0,1,3.19824,1.38782,5.94233,5.94233,0,0,1,1.083,3.77331c0,.18018-.00537.35523-.01319.51282S343.37891,33.30371,343.36914,33.41406ZM341.75,32.01367a4.08123,4.08123,0,0,0-.63843-2.46582,2.28407,2.28407,0,0,0-1.9436-.875,2.1512,2.1512,0,0,0-1.78443.82764,4.74145,4.74145,0,0,0-.79565,2.67334H341.75v-.16016Z" fill="#383c45"/><path d="M351.86914,27.45215l-.16016.82031-.16015.82031a3.21278,3.21278,0,0,0-.91992-.12011,2.00329,2.00329,0,0,0-1.62037.73755,5.33712,5.33712,0,0,0-.95971,2.28295v6.10157h-1.68164V27.57227h1.4414l.08008,1.10058.08008,1.10059a4.087,4.087,0,0,1,1.144-1.82862,2.5707,2.5707,0,0,1,1.71533-.61279,4.73328,4.73328,0,0,1,.53589.03A3.93434,3.93434,0,0,1,351.86914,27.45215Z" fill="#383c45"/><path d="M39.41357,53.45312l-.41015.52979-.41016.52979a4.01359,4.01359,0,0,0-1.06555-.585,3.60215,3.60215,0,0,0-1.2157-.19531,2.3969,2.3969,0,0,0-2.05505,1.023,5.39943,5.39943,0,0,0-.76526,3.13818,5.03525,5.03525,0,0,0,.76526,3.05079,2.43152,2.43152,0,0,0,2.05505.95019,3.36946,3.36946,0,0,0,1.20569-.20764,5.07792,5.07792,0,0,0,1.1156-.61267l.39014.55029.39013.55029a4.91016,4.91016,0,0,1-1.46814.865,4.84853,4.84853,0,0,1-1.693.29517,4.20076,4.20076,0,0,1-3.33056-1.4353,6.04452,6.04452,0,0,1-1.23-3.9856,6.37554,6.37554,0,0,1,1.22266-4.05151A4.133,4.133,0,0,1,36.25244,52.332a5.0309,5.0309,0,0,1,1.678.26026A4.72181,4.72181,0,0,1,39.41357,53.45312Z" fill="#383c45"/><path d="M49.4126,63.09473H47.97314l-.06005-.8501-.06006-.8501a4.1415,4.1415,0,0,1-1.37537,1.45032,3.67284,3.67284,0,0,1-1.94592.49011,2.82353,2.82353,0,0,1-2.16016-.83765,3.4186,3.4186,0,0,1-.78027-2.383v-7.542H43.272v7.36132a2.39491,2.39491,0,0,0,.41748,1.59314,1.61257,1.61257,0,0,0,1.30225.46741,2.60134,2.60134,0,0,0,1.57349-.52759,4.57107,4.57107,0,0,0,1.16772-1.35229v-7.542H49.4126V63.09473Z" fill="#383c45"/><path d="M59.57275,53.53223l-.37011.53027-.37012.53027a5.71,5.71,0,0,0-1.34009-.6925,4.239,4.239,0,0,0-1.40014-.22742,2.47866,2.47866,0,0,0-1.47535.40259,1.29265,1.29265,0,0,0-.54516,1.07788,1.18717,1.18717,0,0,0,.50757,1.04468,5.5323,5.5323,0,0,0,1.81274.71509,6.27935,6.27935,0,0,1,2.57056,1.158,2.617,2.617,0,0,1,.89038,2.10279,2.785,2.785,0,0,1-1.23535,2.3833,4.9871,4.9871,0,0,1-2.82618.77783,6.39622,6.39622,0,0,1-2.28259-.39014,5.22643,5.22643,0,0,1-1.63733-.99072l.44971-.50976.44971-.50977a5.19271,5.19271,0,0,0,1.36328.75989,4.66451,4.66451,0,0,0,1.61816.28015,2.91336,2.91336,0,0,0,1.70239-.45276,1.47757,1.47757,0,0,0,.63746-1.24744,1.39782,1.39782,0,0,0-.52759-1.23315,6.14335,6.14335,0,0,0-2.073-.82739,5.46162,5.46162,0,0,1-2.44544-1.1803,2.42341,2.42341,0,0,1-.73522-1.84021,2.55221,2.55221,0,0,1,1.0653-2.05359,4.37216,4.37216,0,0,1,2.6554-.80774,5.72528,5.72528,0,0,1,1.94336.31519A5.871,5.871,0,0,1,59.57275,53.53223Z" fill="#383c45"/><path d="M67.75244,62.63477a4.03137,4.03137,0,0,1-1.08545.52258,4.19928,4.19928,0,0,1-1.23486.17761,2.73327,2.73327,0,0,1-2.04321-.75024,3.05037,3.05037,0,0,1-.738-2.19019V53.87305H60.83057V52.57227h1.82031V50.15234l.84033-.09033.84033-.09033v2.60059h2.541l-.09033.65039-.09034.65039H64.33154v6.4414a1.946,1.946,0,0,0,.3075,1.22242,1.20429,1.20429,0,0,0,1.01282.3977,2.43275,2.43275,0,0,0,.72265-.10742,3.532,3.532,0,0,0,.73731-.333l.32031.57031Z" fill="#383c45"/><path d="M77.91357,57.81348A6.23063,6.23063,0,0,1,76.6958,61.812a4.6337,4.6337,0,0,1-6.83655.035,6.17617,6.17617,0,0,1-1.20739-3.99353A6.2313,6.2313,0,0,1,69.86951,53.855a4.6497,4.6497,0,0,1,6.84387-.04236A6.18617,6.18617,0,0,1,77.91357,57.81348Zm-7.46191.04a5.42713,5.42713,0,0,0,.72754,3.10315,2.66711,2.66711,0,0,0,4.19617-.005,5.4749,5.4749,0,0,0,.73742-3.13818,5.42711,5.42711,0,0,0-.72754-3.10315,2.65919,2.65919,0,0,0-4.18847.005A5.44986,5.44986,0,0,0,70.45166,57.85352Z" fill="#383c45"/><path d="M94.31494,55.55273v7.542H92.63428V55.793a2.5575,2.5575,0,0,0-.45032-1.67786,1.37758,1.37758,0,0,0-1.11023-.46277,2.16571,2.16571,0,0,0-1.44751.53516,6.04956,6.04956,0,0,0-1.13257,1.40527v7.502H86.813V55.793a2.55837,2.55837,0,0,0-.45-1.67786,1.37753,1.37753,0,0,0-1.1106-.46277,2.19063,2.19063,0,0,0-1.4552.53516,5.72231,5.72231,0,0,0-1.12488,1.40527v7.502H80.9917V52.57227h1.44043l.06982.80029.06983.80029a4.53533,4.53533,0,0,1,1.31042-1.33313,3.27465,3.27465,0,0,1,1.79016-.50769A2.62874,2.62874,0,0,1,88.313,54.27246a4.75893,4.75893,0,0,1,1.3407-1.40527,3.25069,3.25069,0,0,1,1.82043-.53516,2.67175,2.67175,0,0,1,2.06531.86768A3.47223,3.47223,0,0,1,94.31494,55.55273Z" fill="#383c45"/><path d="M105.83252,58.41406H99.05127a4.43728,4.43728,0,0,0,.93738,2.72254,2.57845,2.57845,0,0,0,2.003.8175,4.2334,4.2334,0,0,0,1.43274-.22986,5.53,5.53,0,0,0,1.328-.70959l.37012.5.37012.5a6.1,6.1,0,0,1-1.65308.96777,5.46684,5.46684,0,0,1-1.968.35254,4.24769,4.24769,0,0,1-3.38794-1.44788A6.02162,6.02162,0,0,1,97.271,57.93359,6.67742,6.67742,0,0,1,98.4259,53.895a3.8288,3.8288,0,0,1,3.16541-1.563,3.89481,3.89481,0,0,1,3.19861,1.38782,5.943,5.943,0,0,1,1.08264,3.77331c0,.18018-.00513.35523-.0127.51282S105.84229,58.30371,105.83252,58.41406Zm-1.62012-1.40039a4.083,4.083,0,0,0-.63794-2.46582,2.28283,2.28283,0,0,0-1.94311-.875,2.152,2.152,0,0,0-1.78516.82764,4.73789,4.73789,0,0,0-.79492,2.67334h5.16113v-.16016Z" fill="#383c45"/><path d="M114.33154,52.45215l-.16015.82031-.16016.82031a3.46181,3.46181,0,0,0-.42993-.09008,3.52268,3.52268,0,0,0-.49-.03,2.00242,2.00242,0,0,0-1.62.73755,5.34453,5.34453,0,0,0-.96008,2.283v6.10157h-1.68066V52.57227H110.271l.08007,1.10058.08008,1.10059a4.09109,4.09109,0,0,1,1.1449-1.82862,2.57124,2.57124,0,0,1,1.71545-.61279,4.72309,4.72309,0,0,1,.535.03A3.936,3.936,0,0,1,114.33154,52.45215Z" fill="#383c45"/><path d="M122.4917,53.53223l-.37012.53027-.37012.53027a5.71,5.71,0,0,0-1.34008-.6925,4.23911,4.23911,0,0,0-1.40015-.22742,2.47863,2.47863,0,0,0-1.47534.40259,1.29263,1.29263,0,0,0-.54517,1.07788,1.18717,1.18717,0,0,0,.50757,1.04468,5.53247,5.53247,0,0,0,1.81275.71509,6.27931,6.27931,0,0,1,2.57055,1.158,2.617,2.617,0,0,1,.89038,2.10279,2.78516,2.78516,0,0,1-1.23523,2.3833,4.985,4.985,0,0,1-2.82531.77783,6.39961,6.39961,0,0,1-2.28345-.39014,5.22545,5.22545,0,0,1-1.63745-.99072l.4497-.50976.44971-.50977a5.19287,5.19287,0,0,0,1.36328.75989,4.66457,4.66457,0,0,0,1.61817.28015,2.91336,2.91336,0,0,0,1.70239-.45276,1.47756,1.47756,0,0,0,.63745-1.24744,1.39782,1.39782,0,0,0-.52759-1.23315,6.14325,6.14325,0,0,0-2.073-.82739,5.46157,5.46157,0,0,1-2.44543-1.1803,2.42342,2.42342,0,0,1-.73523-1.84021,2.55222,2.55222,0,0,1,1.06531-2.05359,4.37213,4.37213,0,0,1,2.65539-.80774,5.72523,5.72523,0,0,1,1.94336.31519A5.87088,5.87088,0,0,1,122.4917,53.53223Z" fill="#383c45"/><path d="M132.69092,51.05176v1.52051h2.60058l-.08984.65039-.08984.65039h-2.4209v9.22168h-1.68067V53.87305H129.1499V52.57227h1.86035v-1.5a2.845,2.845,0,0,1,.82788-2.12281,3.33909,3.33909,0,0,1,2.3733-.81762,5.86571,5.86571,0,0,1,1.31042.13488,6.40962,6.40962,0,0,1,1.18958.40516l-.27.60986-.27.60986a4.709,4.709,0,0,0-.97486-.31213,4.46813,4.46813,0,0,0-.88549-.08728,1.7,1.7,0,0,0-1.25245.38244A1.59364,1.59364,0,0,0,132.69092,51.05176Z" fill="#383c45"/><path d="M145.772,57.81348A6.23069,6.23069,0,0,1,144.5542,61.812a4.6337,4.6337,0,0,1-6.83655.035,6.17618,6.17618,0,0,1-1.2074-3.99353,6.2313,6.2313,0,0,1,1.21766-3.99854,4.6497,4.6497,0,0,1,6.84387-.04236A6.18623,6.18623,0,0,1,145.772,57.81348Zm-7.46191.04a5.42713,5.42713,0,0,0,.72754,3.10315,2.6671,2.6671,0,0,0,4.19616-.005,5.47481,5.47481,0,0,0,.73743-3.13818,5.42711,5.42711,0,0,0-.72754-3.10315,2.65919,2.65919,0,0,0-4.18847.005A5.44986,5.44986,0,0,0,138.31006,57.85352Z" fill="#383c45"/><path d="M154.35107,52.45215l-.16015.82031-.16016.82031a3.46181,3.46181,0,0,0-.42993-.09008,3.52268,3.52268,0,0,0-.49-.03,2.00242,2.00242,0,0,0-1.62.73755,5.34453,5.34453,0,0,0-.96008,2.283v6.10157H148.8501V52.57227h1.44043l.08008,1.10058.08007,1.10059a4.09109,4.09109,0,0,1,1.1449-1.82862A2.57124,2.57124,0,0,1,153.311,52.332a4.723,4.723,0,0,1,.535.03A3.93571,3.93571,0,0,1,154.35107,52.45215Z" fill="#383c45"/><path d="M169.71143,62.1543l-.19971.59033-.19971.59033a2.57074,2.57074,0,0,1-1.258-.46545,2.05582,2.05582,0,0,1-.70289-1.15467,3.4866,3.4866,0,0,1-1.37024,1.23011,3.99844,3.99844,0,0,1-1.78991.39,3.38445,3.38445,0,0,1-2.441-.88538,3.13338,3.13338,0,0,1-.88025-2.29528,3.02072,3.02072,0,0,1,1.20044-2.56079,5.59983,5.59983,0,0,1,3.36108-.88062h1.71973v-.83984a2.145,2.145,0,0,0-.56006-1.66529,2.43337,2.43337,0,0,0-1.69971-.49487,6.59611,6.59611,0,0,0-1.31567.14758,11.76244,11.76244,0,0,0-1.52515.4325l-.21-.62012-.21-.62012a11.63531,11.63531,0,0,1,1.81763-.54052,8.643,8.643,0,0,1,1.74292-.18018,3.76609,3.76609,0,0,1,2.75781.91272,3.45018,3.45018,0,0,1,.88281,2.54822v4.88086a1.81626,1.81626,0,0,0,.23011,1.03284A1.221,1.221,0,0,0,169.71143,62.1543ZM167.15088,60.334v-2.5h-1.5a3.75216,3.75216,0,0,0-2.23547.55762,1.95925,1.95925,0,0,0-.76551,1.68262,2.04871,2.04871,0,0,0,.48767,1.47034,1.90736,1.90736,0,0,0,1.43323.51013,2.60618,2.60618,0,0,0,1.49255-.43262A3.4236,3.4236,0,0,0,167.15088,60.334Z" fill="#383c45"/><path d="M180.59131,48.332v14.7627h-1.46l-.08985-.74024-.08984-.74023a3.76361,3.76361,0,0,1-1.27551,1.25036,3.50662,3.50662,0,0,1-1.786.47034,3.43094,3.43094,0,0,1-2.9325-1.493,6.88078,6.88078,0,0,1-1.02746-3.9679,6.811,6.811,0,0,1,1.09253-3.97876,3.71129,3.71129,0,0,1,4.6831-1.173,4.47034,4.47034,0,0,1,1.20581.93005v-5.5205l.83984.10009ZM178.91162,60.334V55.09277a3.89413,3.89413,0,0,0-1.078-1.03259,2.6728,2.6728,0,0,0-1.423-.38733,2.24157,2.24157,0,0,0-1.95556,1.04,5.67506,5.67506,0,0,0-.7251,3.14063,5.97709,5.97709,0,0,0,.65759,3.1206,2.054,2.054,0,0,0,1.84339,1.02,2.69953,2.69953,0,0,0,1.53515-.43237A4.15922,4.15922,0,0,0,178.91162,60.334Z" fill="#383c45"/><path d="M192.33057,48.332v14.7627h-1.46l-.08985-.74024-.08984-.74023a3.7637,3.7637,0,0,1-1.27551,1.25036,3.50666,3.50666,0,0,1-1.786.47034,3.43092,3.43092,0,0,1-2.93249-1.493,6.8807,6.8807,0,0,1-1.02747-3.9679,6.811,6.811,0,0,1,1.09253-3.97876,3.7113,3.7113,0,0,1,4.68311-1.173,4.47049,4.47049,0,0,1,1.20581.93005v-5.5205l.83984.10009ZM190.65088,60.334V55.09277a3.89413,3.89413,0,0,0-1.078-1.03259,2.67282,2.67282,0,0,0-1.423-.38733,2.24156,2.24156,0,0,0-1.95556,1.04,5.67506,5.67506,0,0,0-.7251,3.14063,5.97709,5.97709,0,0,0,.65759,3.1206,2.054,2.054,0,0,0,1.84338,1.02,2.69954,2.69954,0,0,0,1.53516-.43237A4.15922,4.15922,0,0,0,190.65088,60.334Z" fill="#383c45"/><path d="M203.9707,58.41406h-6.78076a4.43741,4.43741,0,0,0,.93738,2.72254,2.57845,2.57845,0,0,0,2.00305.8175,4.23276,4.23276,0,0,0,1.43268-.22986,5.52415,5.52415,0,0,0,1.32757-.70959l.37012.5.37012.5a6.08942,6.08942,0,0,1-1.65247.96777,5.46746,5.46746,0,0,1-1.96814.35254,4.24769,4.24769,0,0,1-3.38794-1.44788,6.02167,6.02167,0,0,1-1.21264-3.95349,6.67735,6.67735,0,0,1,1.15491-4.03857,3.82877,3.82877,0,0,1,3.1654-1.563,3.8955,3.8955,0,0,1,3.19867,1.38782,5.942,5.942,0,0,1,1.08307,3.77331c0,.18018-.00537.35523-.01318.51282S203.98047,58.30371,203.9707,58.41406Zm-1.61914-1.40039a4.0821,4.0821,0,0,0-.63818-2.46582,2.28346,2.28346,0,0,0-1.94336-.875,2.152,2.152,0,0,0-1.78516.82764,4.738,4.738,0,0,0-.79492,2.67334h5.16162v-.16016Z" fill="#383c45"/><path d="M214.91016,48.332v14.7627h-1.459l-.08984-.74024-.08985-.74023a3.76279,3.76279,0,0,1-1.27563,1.25036,3.50882,3.50882,0,0,1-1.78687.47034,3.42987,3.42987,0,0,1-2.93164-1.493A6.88171,6.88171,0,0,1,206.25,57.874a6.81277,6.81277,0,0,1,1.092-3.97876,3.71162,3.71162,0,0,1,4.68335-1.173,4.45933,4.45933,0,0,1,1.20508.93005v-5.5205l.83984.10009ZM213.23047,60.334V55.09277a3.89539,3.89539,0,0,0-1.07788-1.03259,2.67071,2.67071,0,0,0-1.42212-.38733,2.24269,2.24269,0,0,0-1.95606,1.04,5.67266,5.67266,0,0,0-.72558,3.14063,5.97578,5.97578,0,0,0,.65771,3.1206,2.055,2.055,0,0,0,1.84424,1.02,2.69906,2.69906,0,0,0,1.53467-.43237A4.15185,4.15185,0,0,0,213.23047,60.334Z" fill="#383c45"/><path d="M229.57031,52.45215l-.16015.82031-.16016.82031a3.21265,3.21265,0,0,0-.91992-.12011,2.00327,2.00327,0,0,0-1.62036.73755,5.337,5.337,0,0,0-.95972,2.283v6.10157h-1.68164V52.57227h1.44141l.08007,1.10058.08008,1.10059a4.087,4.087,0,0,1,1.144-1.82862,2.57073,2.57073,0,0,1,1.71534-.61279,4.73341,4.73341,0,0,1,.53589.03A3.93418,3.93418,0,0,1,229.57031,52.45215Z" fill="#383c45"/><path d="M239.13086,58.41406h-6.78125a4.438,4.438,0,0,0,.93726,2.72254,2.57714,2.57714,0,0,0,2.00219.8175,4.23451,4.23451,0,0,0,1.43286-.22986,5.54123,5.54123,0,0,0,1.32886-.70959l.37012.5.37012.5a6.11147,6.11147,0,0,1-1.65381.96777,5.46477,5.46477,0,0,1-1.96729.35254,4.24907,4.24907,0,0,1-3.38843-1.44788,6.02041,6.02041,0,0,1-1.21313-3.95349,6.67668,6.67668,0,0,1,1.15527-4.03857,3.82893,3.82893,0,0,1,3.165-1.563,3.89486,3.89486,0,0,1,3.19824,1.38782,5.94227,5.94227,0,0,1,1.083,3.77331c0,.18018-.00488.35523-.01221.51282S239.14062,58.30371,239.13086,58.41406Zm-1.62109-1.40039a4.08478,4.08478,0,0,0-.63746-2.46582,2.28158,2.28158,0,0,0-1.94262-.875,2.15271,2.15271,0,0,0-1.78589.82764,4.73449,4.73449,0,0,0-.79419,2.67334h5.16016v-.16016Z" fill="#383c45"/><path d="M246.06836,63.09473H244.0293l-1.83106-5.26123-1.83105-5.26123H242.209l1.42969,4.51123,1.42969,4.51123,1.41016-4.51123,1.41015-4.51123h1.78125l-1.80078,5.26123Z" fill="#383c45"/><path d="M259.57031,58.41406h-6.78125a4.43665,4.43665,0,0,0,.9375,2.72254,2.57978,2.57978,0,0,0,2.00391.8175,4.2322,4.2322,0,0,0,1.43262-.22986,5.51852,5.51852,0,0,0,1.32714-.70959l.37012.5.37012.5a6.08878,6.08878,0,0,1-1.65235.96777,5.46884,5.46884,0,0,1-1.96874.35254,4.24633,4.24633,0,0,1-3.38746-1.44788,6.02289,6.02289,0,0,1-1.21215-3.95349,6.67809,6.67809,0,0,1,1.15454-4.03857,3.82865,3.82865,0,0,1,3.16577-1.563,3.89487,3.89487,0,0,1,3.19824,1.38782,5.94233,5.94233,0,0,1,1.083,3.77331c0,.18018-.00537.35523-.01319.51282S259.58008,58.30371,259.57031,58.41406Zm-1.61914-1.40039a4.08123,4.08123,0,0,0-.63843-2.46582,2.28406,2.28406,0,0,0-1.9436-.875,2.15119,2.15119,0,0,0-1.78442.82764,4.74145,4.74145,0,0,0-.79566,2.67334h5.16211v-.16016Z" fill="#383c45"/><path d="M270.4707,55.55273v7.542H268.791V55.793a2.47171,2.47171,0,0,0-.45533-1.67786,1.5947,1.5947,0,0,0-1.26538-.46277,2.59851,2.59851,0,0,0-1.59765.53516A5.205,5.205,0,0,0,264.25,55.59277v7.502h-1.68164V52.57227h1.44141l.06933.80029.06934.80029a4.45921,4.45921,0,0,1,1.41089-1.33313,3.71852,3.71852,0,0,1,1.88989-.50769,2.92426,2.92426,0,0,1,2.23877.86035A3.388,3.388,0,0,1,270.4707,55.55273Z" fill="#383c45"/><path d="M281.84961,63.09473h-1.43945l-.06055-.8501-.06055-.8501a4.13628,4.13628,0,0,1-1.37451,1.45032,3.67211,3.67211,0,0,1-1.9458.49011,2.825,2.825,0,0,1-2.16064-.83765,3.41751,3.41751,0,0,1-.78077-2.383v-7.542H275.709v7.36132a2.39644,2.39644,0,0,0,.417,1.59314,1.61111,1.61111,0,0,0,1.30175.46741,2.6033,2.6033,0,0,0,1.574-.52759,4.56878,4.56878,0,0,0,1.16821-1.35229v-7.542h1.67969V63.09473Z" fill="#383c45"/><path d="M293.49023,58.41406H286.709a4.43817,4.43817,0,0,0,.93726,2.72254,2.57715,2.57715,0,0,0,2.0022.8175,4.23459,4.23459,0,0,0,1.43286-.22986,5.54123,5.54123,0,0,0,1.32886-.70959l.37011.5.37012.5a6.11117,6.11117,0,0,1-1.65381.96777,5.46472,5.46472,0,0,1-1.96728.35254,4.249,4.249,0,0,1-3.38843-1.44788,6.02041,6.02041,0,0,1-1.21314-3.95349A6.67662,6.67662,0,0,1,286.083,53.895a3.8289,3.8289,0,0,1,3.165-1.563,3.89487,3.89487,0,0,1,3.19824,1.38782,5.94233,5.94233,0,0,1,1.083,3.77331c0,.18018-.00489.35523-.01221.51282S293.5,58.30371,293.49023,58.41406Zm-1.62109-1.40039a4.08479,4.08479,0,0,0-.63745-2.46582,2.28159,2.28159,0,0,0-1.94263-.875,2.15271,2.15271,0,0,0-1.78589.82764,4.73456,4.73456,0,0,0-.79419,2.67334h5.16016v-.16016Z" fill="#383c45"/><path d="M308.209,53.53223l-.37011.53027-.37012.53027a5.71,5.71,0,0,0-1.34009-.6925,4.239,4.239,0,0,0-1.40014-.22742,2.47653,2.47653,0,0,0-1.47486.40259,1.29283,1.29283,0,0,0-.54468,1.07788,1.18717,1.18717,0,0,0,.50757,1.04468,5.53247,5.53247,0,0,0,1.81275.71509,6.27931,6.27931,0,0,1,2.57055,1.158,2.617,2.617,0,0,1,.89038,2.10279,2.7848,2.7848,0,0,1-1.23584,2.3833,4.98921,4.98921,0,0,1-2.82666.77783,6.39362,6.39362,0,0,1-2.28222-.39014,5.23531,5.23531,0,0,1-1.6377-.99072l.4502-.50976.45019-.50977a5.18219,5.18219,0,0,0,1.3628.75989,4.66375,4.66375,0,0,0,1.61767.28015,2.91336,2.91336,0,0,0,1.70239-.45276,1.47755,1.47755,0,0,0,.63746-1.24744,1.39811,1.39811,0,0,0-.5271-1.23315,6.13746,6.13746,0,0,0-2.07251-.82739,5.46337,5.46337,0,0,1-2.44629-1.1803,2.423,2.423,0,0,1-.73535-1.84021,2.55225,2.55225,0,0,1,1.06567-2.05359,4.37232,4.37232,0,0,1,2.655-.80774,5.72528,5.72528,0,0,1,1.94336.31519A5.871,5.871,0,0,1,308.209,53.53223Z" fill="#383c45"/><path d="M316.38867,62.63477a4.02016,4.02016,0,0,1-1.08471.52258,4.20191,4.20191,0,0,1-1.2356.17761,2.73327,2.73327,0,0,1-2.04321-.75024,3.05037,3.05037,0,0,1-.738-2.19019V53.87305H309.4668V52.57227h1.82031V50.15234l.84082-.09033.84082-.09033v2.60059h2.541l-.09082.65039-.09083.65039h-2.35937v6.4414a1.94692,1.94692,0,0,0,.30713,1.22242,1.20428,1.20428,0,0,0,1.01318.3977,2.4284,2.4284,0,0,0,.72217-.10742,3.53433,3.53433,0,0,0,.73682-.333l.32031.57031Z" fill="#383c45"/><path d="M323.78906,52.45215l-.16015.82031-.16016.82031a3.21265,3.21265,0,0,0-.91992-.12011,2.00327,2.00327,0,0,0-1.62036.73755,5.337,5.337,0,0,0-.95972,2.283v6.10157h-1.68164V52.57227h1.44141l.08007,1.10058.08008,1.10059a4.087,4.087,0,0,1,1.144-1.82862,2.57073,2.57073,0,0,1,1.71534-.61279,4.73341,4.73341,0,0,1,.53589.03A3.93418,3.93418,0,0,1,323.78906,52.45215Z" fill="#383c45"/><path d="M333.34961,58.41406h-6.78125a4.438,4.438,0,0,0,.93726,2.72254,2.57714,2.57714,0,0,0,2.00219.8175,4.23451,4.23451,0,0,0,1.43286-.22986,5.54123,5.54123,0,0,0,1.32886-.70959l.37012.5.37012.5a6.11147,6.11147,0,0,1-1.65381.96777,5.46477,5.46477,0,0,1-1.96729.35254,4.24907,4.24907,0,0,1-3.38843-1.44788,6.02041,6.02041,0,0,1-1.21313-3.95349,6.67668,6.67668,0,0,1,1.15527-4.03857,3.82893,3.82893,0,0,1,3.165-1.563,3.89486,3.89486,0,0,1,3.19824,1.38782,5.94227,5.94227,0,0,1,1.083,3.77331c0,.18018-.00488.35523-.01221.51282S333.35938,58.30371,333.34961,58.41406Zm-1.62109-1.40039a4.08478,4.08478,0,0,0-.63746-2.46582,2.28158,2.28158,0,0,0-1.94262-.875,2.15271,2.15271,0,0,0-1.78589.82764,4.73449,4.73449,0,0,0-.79419,2.67334h5.16016v-.16016Z" fill="#383c45"/><path d="M344.14844,62.1543l-.19922.59033L343.75,63.335a2.57175,2.57175,0,0,1-1.25879-.46545,2.05242,2.05242,0,0,1-.70215-1.15467,3.48676,3.48676,0,0,1-1.3706,1.23011,3.99875,3.99875,0,0,1-1.78955.39,3.386,3.386,0,0,1-2.4419-.88538,3.133,3.133,0,0,1-.88037-2.29528,3.02046,3.02046,0,0,1,1.20093-2.56079,5.602,5.602,0,0,1,3.36157-.88062h1.71875v-.83984a2.145,2.145,0,0,0-.56006-1.66529,2.43337,2.43337,0,0,0-1.69971-.49487,6.58954,6.58954,0,0,0-1.31518.14758,11.7678,11.7678,0,0,0-1.52466.4325l-.21-.62012-.21-.62012a11.63531,11.63531,0,0,1,1.81763-.54052,8.643,8.643,0,0,1,1.74292-.18018,3.76609,3.76609,0,0,1,2.75781.91272,3.45018,3.45018,0,0,1,.88281,2.54822v4.88086a1.81745,1.81745,0,0,0,.23,1.03284A1.22012,1.22012,0,0,0,344.14844,62.1543ZM341.58789,60.334v-2.5h-1.5a3.75006,3.75006,0,0,0-2.23462.55762,1.95947,1.95947,0,0,0-.76538,1.68262,2.0492,2.0492,0,0,0,.48755,1.47034,1.90582,1.90582,0,0,0,1.43237.51013,2.606,2.606,0,0,0,1.49292-.43262A3.424,3.424,0,0,0,341.58789,60.334Z" fill="#383c45"/><path d="M360.41016,55.55273v7.542h-1.67969V55.793a2.55663,2.55663,0,0,0-.45068-1.67786,1.37765,1.37765,0,0,0-1.10987-.46277,2.16571,2.16571,0,0,0-1.44751.53516,6.04956,6.04956,0,0,0-1.13257,1.40527v7.502H352.9082V55.793a2.55837,2.55837,0,0,0-.45-1.67786,1.37751,1.37751,0,0,0-1.11059-.46277,2.18944,2.18944,0,0,0-1.45484.53516,5.73693,5.73693,0,0,0-1.12524,1.40527v7.502h-1.67969V52.57227h1.43945l.07032.80029.07031.80029a4.53655,4.53655,0,0,1,1.3103-1.33313,3.27263,3.27263,0,0,1,1.78931-.50769,2.628,2.628,0,0,1,2.64062,1.94043,4.766,4.766,0,0,1,1.34156-1.40527,3.25138,3.25138,0,0,1,1.82055-.53516,2.67044,2.67044,0,0,1,2.06446.86768A3.47284,3.47284,0,0,1,360.41016,55.55273Z" fill="#383c45"/><path d="M370.44922,53.53223l-.37012.53027-.37012.53027a5.71014,5.71014,0,0,0-1.34008-.6925,4.23911,4.23911,0,0,0-1.40015-.22742,2.48077,2.48077,0,0,0-1.47583.40259,1.29244,1.29244,0,0,0-.54565,1.07788,1.18718,1.18718,0,0,0,.50756,1.04468,5.53247,5.53247,0,0,0,1.81275.71509,6.27924,6.27924,0,0,1,2.57055,1.158,2.617,2.617,0,0,1,.89039,2.10279,2.78518,2.78518,0,0,1-1.23487,2.3833,4.98487,4.98487,0,0,1-2.82568.77783,6.39882,6.39882,0,0,1-2.283-.39014,5.21745,5.21745,0,0,1-1.637-.99072l.44922-.50976.44921-.50977a5.20348,5.20348,0,0,0,1.36377.75989,4.66537,4.66537,0,0,0,1.61866.28015,2.91336,2.91336,0,0,0,1.70239-.45276,1.47756,1.47756,0,0,0,.63745-1.24744,1.39753,1.39753,0,0,0-.52808-1.23315,6.14916,6.14916,0,0,0-2.07348-.82739,5.45971,5.45971,0,0,1-2.44458-1.1803,2.42376,2.42376,0,0,1-.73511-1.84021,2.55219,2.55219,0,0,1,1.06494-2.05359,4.372,4.372,0,0,1,2.65576-.80774,5.72523,5.72523,0,0,1,1.94336.31519A5.87088,5.87088,0,0,1,370.44922,53.53223Z" fill="#383c45"/></svg>