<svg id="a3843416-5434-4659-ad1c-cbe2f00ce77f" data-name="Layer 1" xmlns="http://www.w3.org/2000/svg" viewBox="0 0 90 90"><title>img-scenario-2-parking</title><path d="M90,90.2188H0v-90H90Z" fill="#673a93"/><path d="M40.9329,71.749H26.15V69.4747h12.509V52.417h5.7863c11.2491,0,17.4441-5.607,17.4441-15.7894,0-9.8959-6.2233-14.9143-18.498-14.9143H28.424V62.6516H26.15V19.4389H43.391c17.1687,0,20.7724,9.3473,20.7724,17.1887,0,11.48-7.1873,18.0638-19.7185,18.0638h-3.512Z" fill="#fff"/><path d="M43.0151,43.32H39.7957V29.6735h3.0018c5.2727,0,7.6237,2.0067,7.6237,6.5065C50.4212,41.1841,48.2063,43.32,43.0151,43.32Zm-.945-2.2743h.945c3.933,0,5.1318-1.1372,5.1318-4.8653,0-2.3976-.3937-4.2322-5.3494-4.2322H42.07Z" fill="#fff"/></svg>
