<svg id="fbe205c5-0c53-469c-a0c0-4e8021251f9c" data-name="icons" xmlns="http://www.w3.org/2000/svg" viewBox="0 0 322 376.2188"><title>img-scenario-2-white-icons</title><g id="a6179768-6549-45b0-8f57-c6d8500b5f55" data-name="a2ae9277-3787-40bf-85da-f7a76c96e558"><rect x="41" y="316.2188" width="239.276" height="60" fill="none"/></g><g id="e01a70a6-c2db-4ce4-b43c-f3236b474e41" data-name="fc1ff899-ca02-406d-8c09-bdd2e85ce815"><rect x="-0.226" y="74.2188" width="90" height="90" fill="none"/></g><g id="a0c640b7-1ba1-4ab2-8ec4-1f214059dc84" data-name="bcf74824-9ed2-47f6-9b21-118fbfc8b4cc"><rect y="190.2188" width="90" height="90" fill="none"/></g><g id="b0cba064-81d3-40ea-9d6f-f52b42bbe960" data-name="bd2c109c-e2d4-4e82-9323-f5cd45c26c8d"><rect x="232" y="74.2188" width="90" height="90" fill="none"/></g><g id="bbf063b6-131f-4a6d-ae9f-400a79db40ed" data-name="bfb9a0c4-35e8-43ec-b26f-56fc9dd52393"><rect x="116" y="190.2188" width="90" height="90" fill="none"/></g><g id="fda1f89f-b4d6-4427-9a2c-1f74570c06f7" data-name="f53776a0-fba7-49c8-bd1d-3ca14a4c69bf"><rect x="232" y="190.2188" width="90" height="90" fill="none"/></g><g id="a2d86ca6-6a6c-491e-abfe-095b53a00a08" data-name="ae057782-0ed4-4446-a5b7-2885da6b4fac"><rect x="116" y="74.2188" width="90" height="90" fill="none"/></g><path d="M62.0194,145.475H59.6407V95.5229H57.262a3.5719,3.5719,0,0,0-3.568,3.568V120.499h3.568v2.3786H51.3153V99.0909a5.9536,5.9536,0,0,1,5.9467-5.9466h4.7574Z" fill="#fff"/><rect x="35.2593" y="114.5523" width="2.3787" height="30.9227" fill="#fff"/><rect x="35.2593" y="94.3336" width="2.3787" height="14.272" fill="#48dad0"/><path d="M38.2327,115.7416h-3.568a7.1439,7.1439,0,0,1-7.1361-7.136V94.3336h2.3787v14.272a4.7625,4.7625,0,0,0,4.7574,4.7574h3.568a4.7624,4.7624,0,0,0,4.7573-4.7574V94.3336h2.3787v14.272A7.1438,7.1438,0,0,1,38.2327,115.7416Z" fill="#fff"/><polygon points="148.223 130.919 146.176 129.6 153.489 118.245 144.608 118.245 151.712 107.587 153.738 108.938 149.156 115.81 157.955 115.81 148.223 130.919" fill="#2dd5c9"/><path d="M153.7524,249.7464c-3.9768,4.7865-16.1851,4.9438-17.768,4.9438h-.1576l.0242-2.4175c3.481.036,13.1875-.6406,16.04-4.0736a3.1608,3.1608,0,0,0,.6894-2.8282c-.3146-1.644-1.9943-2.2605-4.7022-3.0944-2.4056-.7375-5.1371-1.5714-6.4786-3.9889a3.78,3.78,0,0,1-.1936-3.6746c.713-1.4262,2.3815-2.4175,4.0854-3.0944a7.0139,7.0139,0,0,0,1.16.689l.2178.1089,1.9583.713c-2.2245.532-4.678,1.4988-5.2581,2.6715a1.37,1.37,0,0,0,.1452,1.4142c.87,1.5714,2.9126,2.1878,5.0763,2.8524,2.6836.8222,5.7415,1.7529,6.3582,4.9317A5.5826,5.5826,0,0,1,153.7524,249.7464Z" fill="#fff"/><path d="M185.3371,253.1067c-.29,8.34-18.7838,8.6423-21.3465,8.6423h-.0967l.0118-2.4175h.0849c4.9436,0,18.7472-1.1482,18.929-6.31.1086-3.1307-1.4991-3.6867-7.688-5.282l-1.16-.3022c-3.046-.7859-4.6779-2.0309-5.0043-3.7835a4.0483,4.0483,0,0,1,.7135-2.925l2.3567.8581a2.3028,2.3028,0,0,0-.7006,1.62c.1328.6888,1.3416,1.402,3.2391,1.8975l1.16.3022C181.8679,246.9662,185.5183,247.9091,185.3371,253.1067Z" fill="#fff"/><path d="M291.6675,145.47a11.2512,11.2512,0,0,1-10.6925-14.8051l-15.7867-15.7872a11.2567,11.2567,0,0,1-14.0866-14.652l.5856-1.5579,8.1148,6.7054,3.0949-2.935L256.1146,94.24l1.5585-.585a11.2481,11.2481,0,0,1,14.838,13.4326l16.2551,16.2545A11.2482,11.2482,0,0,1,302.1989,138.18l-.5856,1.5579-8.1148-6.7047-3.0938,2.9343,6.78,8.1989-1.5573.585A11.2417,11.2417,0,0,1,291.6675,145.47Zm-25.8994-33.3712,17.9852,17.9863-.3026.7323a8.88,8.88,0,0,0,9.671,12.1583l-4.4714-5.4124a2.27,2.27,0,0,1-.6192-1.5956,2.36,2.36,0,0,1,.6946-1.68l3.01-3.01a2.4357,2.4357,0,0,1,3.3594,0l5.3271,4.3966a8.8692,8.8692,0,0,0-11.6133-9.8663l-.698.2365-18.303-18.3023.2366-.6987A8.8708,8.8708,0,0,0,260.1789,95.43l4.4726,5.4124a2.347,2.347,0,0,1-.0754,3.2752l-3.0115,3.0109a2.376,2.376,0,0,1-3.3581,0l-5.3283-4.3977a8.8777,8.8777,0,0,0,12.1571,9.6709Z" fill="#fff"/><path d="M40.9329,261.749H26.15v-2.2743h12.509V242.417h5.7863c11.2491,0,17.4441-5.607,17.4441-15.7894,0-9.8959-6.2233-14.9143-18.498-14.9143H28.424v40.9383H26.15V209.4389H43.391c17.1687,0,20.7724,9.3473,20.7724,17.1887,0,11.48-7.1873,18.0638-19.7185,18.0638h-3.512Z" fill="#fff"/><path d="M43.0151,233.32H39.7957V219.6735h3.0018c5.2727,0,7.6237,2.0067,7.6237,6.5065C50.4212,231.1841,48.2063,233.32,43.0151,233.32Zm-.945-2.2743h.945c3.933,0,5.1318-1.1372,5.1318-4.8653,0-2.3976-.3937-4.2322-5.3494-4.2322H42.07Z" fill="#50bcbd"/><path d="M98.43,341.1773l-.94,1.12a4.1074,4.1074,0,0,0-2.7-1.0195c-2.16,0-3.94,1.46-3.94,5.6807,0,4.0205,1.72,5.6416,3.9209,5.6416a4.61,4.61,0,0,0,2.96-1.1407l.86,1.1006a5.37,5.37,0,0,1-3.8808,1.5205c-3.3008,0-5.7012-2.5009-5.7012-7.122,0-4.6807,2.5606-7.1211,5.6817-7.1211A5.34,5.34,0,0,1,98.43,341.1773Z" fill="#fff"/><path d="M108.61,346.2984v7.542h-1.68v-7.3018c0-1.62-.6807-2.1406-1.74-2.1406a3.4161,3.4161,0,0,0-2.8008,1.9209V353.84h-1.6807V339.0972l1.6807-.2v5.9414a3.9055,3.9055,0,0,1,3.2-1.7607C107.51,343.0777,108.61,344.3179,108.61,346.2984Z" fill="#fff"/><path d="M120.8306,348.5591c0,3.3008-1.7,5.5215-4.6416,5.5215s-4.62-2.1406-4.62-5.4814c0-3.3008,1.7-5.5215,4.6406-5.5215C119.17,343.0777,120.8306,345.1988,120.8306,348.5591Zm-7.4619.04c0,2.78,1,4.1211,2.82,4.1211s2.8408-1.3408,2.8408-4.1612c0-2.78-1-4.1211-2.82-4.1211C114.4087,344.438,113.3687,345.7789,113.3687,348.5992Z" fill="#fff"/><path d="M132.4507,348.5591c0,3.3008-1.7,5.5215-4.6416,5.5215s-4.62-2.1406-4.62-5.4814c0-3.3008,1.7-5.5215,4.6406-5.5215C130.7905,343.0777,132.4507,345.1988,132.4507,348.5591Zm-7.4619.04c0,2.78,1,4.1211,2.82,4.1211s2.8408-1.3408,2.8408-4.1612c0-2.78-1-4.1211-2.82-4.1211C126.0288,344.438,124.9888,345.7789,124.9888,348.5992Z" fill="#fff"/><path d="M141.8892,344.2779l-.74,1.06a4.6513,4.6513,0,0,0-2.74-.92c-1.24,0-2.02.58-2.02,1.48s.58,1.3008,2.32,1.7608c2.24.58,3.4609,1.42,3.4609,3.2607,0,2.1406-1.94,3.1611-4.06,3.1611A5.6766,5.6766,0,0,1,134.188,352.7l.8994-1.02a4.7689,4.7689,0,0,0,2.9815,1.041c1.42,0,2.34-.6406,2.34-1.7012,0-1.1-.54-1.5-2.6006-2.06-2.28-.6006-3.1806-1.541-3.1806-3.0215,0-1.66,1.6005-2.86,3.7207-2.86A5.5263,5.5263,0,0,1,141.8892,344.2779Z" fill="#fff"/><path d="M152.67,349.1588h-6.7812c.18,2.541,1.34,3.541,2.94,3.541a4.4725,4.4725,0,0,0,2.7607-.94l.74,1.001a5.5886,5.5886,0,0,1-3.6211,1.32c-2.9,0-4.6006-2.06-4.6006-5.4013,0-3.3008,1.64-5.6016,4.32-5.6016,2.82,0,4.2813,1.9805,4.2813,5.1611C152.7105,348.5992,152.69,348.939,152.67,349.1588Zm-1.62-1.3995c0-2.1211-.8408-3.3408-2.581-3.3408-1.46,0-2.4405,1.04-2.58,3.5H151.05Z" fill="#fff"/><path d="M168.69,341.4175l-.94,1.0606a4.7468,4.7468,0,0,0-3.1611-1.2c-1.46,0-2.5606.7-2.5606,2.04,0,1.2207.58,1.8008,3.0606,2.5606,2.2607.68,4.041,1.5605,4.041,4.1406,0,2.4-1.8,4.0615-4.8213,4.0615a6.4,6.4,0,0,1-4.62-1.7607l.96-1.08a5.3783,5.3783,0,0,0,3.6406,1.4c1.6807,0,3.041-.86,3.041-2.56,0-1.4209-.6807-2.0411-3.041-2.7608-2.7-.82-4.041-1.8408-4.041-3.9414,0-2.06,1.7607-3.54,4.2607-3.54A5.6577,5.6577,0,0,1,168.69,341.4175Z" fill="#fff"/><path d="M179.75,349.1588h-6.7812c.18,2.541,1.34,3.541,2.94,3.541a4.4723,4.4723,0,0,0,2.7607-.94l.74,1.001a5.5886,5.5886,0,0,1-3.6211,1.32c-2.9,0-4.6006-2.06-4.6006-5.4013,0-3.3008,1.64-5.6016,4.32-5.6016,2.8213,0,4.2813,1.9805,4.2813,5.1611C179.79,348.5992,179.7691,348.939,179.75,349.1588Zm-1.62-1.3995c0-2.1211-.8408-3.3408-2.581-3.3408-1.46,0-2.44,1.04-2.58,3.5h5.1611Z" fill="#fff"/><path d="M188.2486,343.1978l-.32,1.6406a3.2053,3.2053,0,0,0-.92-.12c-1.34,0-2.12.96-2.58,3.0205V353.84h-1.6806V343.3179h1.44l.16,2.2c.56-1.62,1.54-2.44,2.86-2.44A4.3556,4.3556,0,0,1,188.2486,343.1978Z" fill="#fff"/><path d="M194.3677,353.84h-2.04l-3.6612-10.5225h1.8408l2.86,9.0215,2.82-9.0215h1.7813Z" fill="#fff"/><path d="M202.1079,339.5172a1.1908,1.1908,0,1,1-1.2-1.16A1.135,1.135,0,0,1,202.1079,339.5172Zm-.34,14.3232h-1.6807V343.3179h1.6807Z" fill="#fff"/><path d="M212.5689,344.1978l-.82,1.0606a3.5815,3.5815,0,0,0-2.2813-.78c-1.72,0-2.82,1.3408-2.82,4.1611,0,2.8008,1.1006,4.001,2.82,4.001a3.7807,3.7807,0,0,0,2.3213-.82l.78,1.1a4.778,4.778,0,0,1-3.1612,1.1611c-2.8008,0-4.5605-2.0205-4.5605-5.4218,0-3.36,1.74-5.5811,4.5605-5.5811A4.6177,4.6177,0,0,1,212.5689,344.1978Z" fill="#fff"/><path d="M222.6284,349.1588h-6.7812c.18,2.541,1.34,3.541,2.94,3.541a4.4728,4.4728,0,0,0,2.7608-.94l.74,1.001a5.5886,5.5886,0,0,1-3.6211,1.32c-2.9,0-4.6006-2.06-4.6006-5.4013,0-3.3008,1.64-5.6016,4.32-5.6016,2.8213,0,4.2813,1.9805,4.2813,5.1611C222.6685,348.5992,222.648,348.939,222.6284,349.1588Zm-1.62-1.3995c0-2.1211-.8408-3.3408-2.581-3.3408-1.46,0-2.4405,1.04-2.58,3.5h5.1611Z" fill="#fff"/><path d="M231.9878,344.2779l-.74,1.06a4.6516,4.6516,0,0,0-2.74-.92c-1.24,0-2.02.58-2.02,1.48s.58,1.3008,2.32,1.7608c2.24.58,3.461,1.42,3.461,3.2607,0,2.1406-1.94,3.1611-4.0615,3.1611a5.676,5.676,0,0,1-3.92-1.3808l.9-1.02a4.7687,4.7687,0,0,0,2.9814,1.041c1.42,0,2.34-.6406,2.34-1.7012,0-1.1-.54-1.5-2.6-2.06-2.28-.6006-3.1807-1.541-3.1807-3.0215,0-1.66,1.6006-2.86,3.7207-2.86A5.5263,5.5263,0,0,1,231.9878,344.2779Z" fill="#fff"/><path d="M293.51,258.1593H259.8288a6.0764,6.0764,0,0,1-6.0689-6.07h2.427a3.6463,3.6463,0,0,0,3.6419,3.6419H293.51a3.6466,3.6466,0,0,0,3.6432-3.6419h2.427A6.0767,6.0767,0,0,1,293.51,258.1593Z" fill="#fff"/><path d="M271.5681,220.4476l-.85-2.274a2.69,2.69,0,0,0,1.64-2.5048,2.7563,2.7563,0,0,0-.926-2.01,5.0689,5.0689,0,0,1-1.5023-3.5812,3.9636,3.9636,0,0,1,3.5482-4.1714l.2413,2.4158a1.5459,1.5459,0,0,0-1.3625,1.7556,2.7565,2.7565,0,0,0,.9259,2.0089,5.07,5.07,0,0,1,1.5024,3.5818A5.1487,5.1487,0,0,1,271.5681,220.4476Z" fill="#fff"/><path d="M278.8531,220.4476l-.8495-2.274a2.69,2.69,0,0,0,1.6383-2.5048,2.7588,2.7588,0,0,0-.9247-2.01,5.0649,5.0649,0,0,1-1.5023-3.5812,3.9636,3.9636,0,0,1,3.5468-4.1714l.2414,2.4158a1.5452,1.5452,0,0,0-1.3612,1.7556,2.7588,2.7588,0,0,0,.9246,2.0089,5.0645,5.0645,0,0,1,1.5024,3.5818A5.1492,5.1492,0,0,1,278.8531,220.4476Z" fill="#fff"/><path d="M179.27,119.8345v10.1286a2.0511,2.0511,0,0,1-2.0451,2.0451h-7.6938v2.4348h7.706a4.4678,4.4678,0,0,0,4.4677-4.4678V119.8345Z" fill="#fff"/><path d="M163.225,93.0523H140.4941a6.305,6.305,0,0,0-6.267,6.34l.01,38.3233h2.4251V99.3582a3.8825,3.8825,0,0,1,3.8712-3.8711h22.6919a3.8825,3.8825,0,0,1,3.8712,3.8712v43.6063H136.6618v-5.2492h-2.4246l.002,7.684h35.2917V99.3582A6.3059,6.3059,0,0,0,163.225,93.0523Z" fill="#fff"/><path d="M185.3568,105.226v-4.87H182.922v4.87h-3.045v2.4348h6.6971v6.0868A3.6629,3.6629,0,0,1,182.922,117.4h-4.8695a3.6629,3.6629,0,0,1-3.6521-3.6522v-6.0868h5.4766V105.226h-1.8245v-4.87h-2.4348v4.87h-3.6521v8.5216a6.0869,6.0869,0,0,0,6.0869,6.0869h4.8695a6.0869,6.0869,0,0,0,6.0869-6.0869V105.226Z" fill="#fff"/><path d="M292.6884,224.1666H275.1292v2.4311h14.0514l-2.25,19.2778a2.77,2.77,0,0,1-2.4385,2.5725H267.4512c-1.2519,0-2.3081-1.5073-2.4112-2.5434l-2.2536-19.3069h12.3428v-2.4311H259.2787l1.2807,10.9763,1.2809,10.9763a4.7123,4.7123,0,0,0,1.4186,3.3459,4.8456,4.8456,0,0,0,3.4116,1.41h18.626a4.8465,4.8465,0,0,0,3.4118-1.41,4.713,4.713,0,0,0,1.4185-3.3459l1.2808-10.9763.9974-8.5479h5.7969v9.7187h-3.1846v2.442h5.6116V224.1666Z" fill="#fff"/><path d="M185.45,224.8953l-2.8623-1.0418a2.5529,2.5529,0,0,1-.6474-.3772,2.4414,2.4414,0,0,1-.6472-.943l-2.2433-5.7817-.0537-.1353a2.0671,2.0671,0,0,0-1.2647-1.2964l-6.9638-2.5346-.8363,2.2811,6.8215,2.4829,2.554,6.5892-12.5837-2.5348-11.2689-6.1469,6.192-3.406,8.2851,3.0157.8363-2.2812-8.4381-3.0712a2.0671,2.0671,0,0,0-1.8021.18l-.1281.0692-5.4349,2.987a2.44,2.44,0,0,1-1.102.3064,2.5519,2.5519,0,0,1-.7383-.1272l-2.8623-1.0418-.8806,2.4193,1.8514.6739-.4152.2218a1.8056,1.8056,0,0,0-.9081,1.1873l-.943,2.5911,3.4046,1.2482.4747-1.3041,4.5433,1.6536-1.24,3.4076-4.5434-1.6537.7656-2.1034-3.4046-1.2482-1.9013,5.2235a2.7479,2.7479,0,0,0,1.4851,3.4476l4.3957,1.6.8268-2.2717,9.0072,3.2784,1.2482-3.4046-4.4718-1.6276,1.24-3.4075,10.2,3.7124-1.24,3.4075-5.728-2.0847-1.2482,3.4045,10.302,3.75-.8268,2.2716,4.373,1.5916a2.7476,2.7476,0,0,0,3.3536-1.6864l1.8345-5.04-3.4046-1.2483-.7047,1.9361-4.5433-1.6537,1.24-3.4075,4.5434,1.6537-.5356,1.4714,3.4046,1.2483,1.01-2.7744a1.805,1.805,0,0,0,.0676-1.4932l-.1755-.4369,1.8514.6739Z" fill="#fff"/></svg>