<svg id="bcf75f82-9028-4025-a5bf-d5b8f6e56850" data-name="Layer 1" xmlns="http://www.w3.org/2000/svg" viewBox="0 0 706 60"><title>img-text-scenario-2</title><path d="M39.34619,25.43164l-.47021.56055-.47022.56054a4.90075,4.90075,0,0,0-1.30505-.77282,3.84528,3.84528,0,0,0-1.39514-.24768,3.4013,3.4013,0,0,0-2.78028,1.25756,6.977,6.977,0,0,0-1.16015,4.4231,6.97558,6.97558,0,0,0,1.135,4.32886A3.37979,3.37979,0,0,0,35.686,36.85449a4.04177,4.04177,0,0,0,1.67517-.34509,6.57131,6.57131,0,0,0,1.28479-.79553l.43017.55029.43018.55029a5.067,5.067,0,0,1-1.55042,1.05286,5.75895,5.75895,0,0,1-2.33044.46765,5.17533,5.17533,0,0,1-4.08838-1.82812,8.06691,8.06691,0,0,1-1.61279-5.29395,7.9711,7.9711,0,0,1,1.67041-5.3158A5.17789,5.17789,0,0,1,35.606,24.0918a5.67982,5.67982,0,0,1,2.10266.34765A6.22079,6.22079,0,0,1,39.34619,25.43164Z" fill="#383c45"/><path d="M49.52588,30.55273v7.542H47.84619V30.793a2.42687,2.42687,0,0,0-.47278-1.67786,1.62344,1.62344,0,0,0-1.26745-.46277,2.58294,2.58294,0,0,0-1.57325.53272,5.24224,5.24224,0,0,0-1.22753,1.38818v7.52149H41.62451V23.35156l.84033-.1001.84034-.10009v5.9414a4.58986,4.58986,0,0,1,1.38256-1.27807,3.57746,3.57746,0,0,1,1.81763-.48267,2.91954,2.91954,0,0,1,2.23059.86768A3.38131,3.38131,0,0,1,49.52588,30.55273Z" fill="#383c45"/><path d="M61.74658,32.81348A6.23069,6.23069,0,0,1,60.52881,36.812a4.6337,4.6337,0,0,1-6.83655.035,6.17618,6.17618,0,0,1-1.2074-3.99353A6.23136,6.23136,0,0,1,53.70251,28.855a4.64971,4.64971,0,0,1,6.84388-.04236A6.18623,6.18623,0,0,1,61.74658,32.81348Zm-7.46191.04a5.42713,5.42713,0,0,0,.72754,3.10315,2.6671,2.6671,0,0,0,4.19616-.005,5.47481,5.47481,0,0,0,.73743-3.13818,5.42711,5.42711,0,0,0-.72754-3.10315,2.65919,2.65919,0,0,0-4.18847.005A5.44986,5.44986,0,0,0,54.28467,32.85352Z" fill="#383c45"/><path d="M73.3667,32.81348A6.23069,6.23069,0,0,1,72.14893,36.812a4.6337,4.6337,0,0,1-6.83655.035,6.17612,6.17612,0,0,1-1.2074-3.99353A6.23136,6.23136,0,0,1,65.32263,28.855a4.6497,4.6497,0,0,1,6.84387-.04236A6.18617,6.18617,0,0,1,73.3667,32.81348Zm-7.46191.04a5.42722,5.42722,0,0,0,.72753,3.10315,2.66711,2.66711,0,0,0,4.19617-.005,5.47481,5.47481,0,0,0,.73743-3.13818,5.42711,5.42711,0,0,0-.72754-3.10315,2.6592,2.6592,0,0,0-4.18848.005A5.44986,5.44986,0,0,0,65.90479,32.85352Z" fill="#383c45"/><path d="M82.80518,28.53223l-.37012.53027-.37012.53027a5.71,5.71,0,0,0-1.34009-.6925,4.239,4.239,0,0,0-1.40014-.22742,2.47861,2.47861,0,0,0-1.47534.40259,1.29263,1.29263,0,0,0-.54517,1.07788,1.18717,1.18717,0,0,0,.50757,1.04468,5.53239,5.53239,0,0,0,1.81274.71509,6.27935,6.27935,0,0,1,2.57056,1.158,2.617,2.617,0,0,1,.89038,2.10279,2.785,2.785,0,0,1-1.23535,2.3833,4.98708,4.98708,0,0,1-2.82617.77783,6.39627,6.39627,0,0,1-2.2826-.39014A5.22643,5.22643,0,0,1,75.104,36.9541l.44971-.50976.44971-.50977a5.19271,5.19271,0,0,0,1.36328.75989,4.66455,4.66455,0,0,0,1.61816.28015,2.9134,2.9134,0,0,0,1.7024-.45276,1.47756,1.47756,0,0,0,.63745-1.24744,1.39782,1.39782,0,0,0-.52759-1.23315,6.14335,6.14335,0,0,0-2.073-.82739,5.46152,5.46152,0,0,1-2.44543-1.1803,2.42339,2.42339,0,0,1-.73523-1.84021,2.55221,2.55221,0,0,1,1.0653-2.05359,4.37219,4.37219,0,0,1,2.6554-.80774,5.72528,5.72528,0,0,1,1.94336.31519A5.87088,5.87088,0,0,1,82.80518,28.53223Z" fill="#383c45"/><path d="M93.58643,33.41406H86.80518a4.43735,4.43735,0,0,0,.93737,2.72254,2.57847,2.57847,0,0,0,2.00306.8175,4.2333,4.2333,0,0,0,1.43273-.22986,5.52983,5.52983,0,0,0,1.328-.70959l.37011.5.37012.5a6.1,6.1,0,0,1-1.65307.96777,5.46688,5.46688,0,0,1-1.968.35254,4.24768,4.24768,0,0,1-3.38794-1.44788,6.02162,6.02162,0,0,1-1.21265-3.95349A6.67735,6.67735,0,0,1,86.17981,28.895a3.82877,3.82877,0,0,1,3.1654-1.563,3.89479,3.89479,0,0,1,3.19861,1.38782,5.943,5.943,0,0,1,1.08264,3.77331c0,.18018-.00512.35523-.01269.51282S93.59619,33.30371,93.58643,33.41406Zm-1.62012-1.40039a4.083,4.083,0,0,0-.63794-2.46582,2.28285,2.28285,0,0,0-1.94312-.875,2.15194,2.15194,0,0,0-1.78515.82764,4.73789,4.73789,0,0,0-.79492,2.67334h5.16113v-.16016Z" fill="#383c45"/><path d="M108.30518,28.53223l-.37012.53027-.37012.53027a5.71,5.71,0,0,0-1.34009-.6925,4.239,4.239,0,0,0-1.40014-.22742,2.47861,2.47861,0,0,0-1.47534.40259,1.29263,1.29263,0,0,0-.54517,1.07788,1.18717,1.18717,0,0,0,.50757,1.04468,5.53239,5.53239,0,0,0,1.81274.71509,6.27935,6.27935,0,0,1,2.57056,1.158,2.617,2.617,0,0,1,.89038,2.10279,2.785,2.785,0,0,1-1.23535,2.3833,4.98708,4.98708,0,0,1-2.82617.77783,6.39627,6.39627,0,0,1-2.2826-.39014,5.22643,5.22643,0,0,1-1.63733-.99072l.44971-.50976.44971-.50977a5.19271,5.19271,0,0,0,1.36328.75989,4.66455,4.66455,0,0,0,1.61816.28015,2.9134,2.9134,0,0,0,1.7024-.45276,1.47756,1.47756,0,0,0,.63745-1.24744,1.39782,1.39782,0,0,0-.52759-1.23315,6.14335,6.14335,0,0,0-2.073-.82739,5.46152,5.46152,0,0,1-2.44543-1.1803,2.42339,2.42339,0,0,1-.73523-1.84021,2.55221,2.55221,0,0,1,1.0653-2.05359,4.37219,4.37219,0,0,1,2.6554-.80774,5.72528,5.72528,0,0,1,1.94336.31519A5.87088,5.87088,0,0,1,108.30518,28.53223Z" fill="#383c45"/><path d="M119.08545,33.41406H112.3042a4.43728,4.43728,0,0,0,.93738,2.72254,2.57845,2.57845,0,0,0,2.00305.8175,4.2334,4.2334,0,0,0,1.43274-.22986,5.53,5.53,0,0,0,1.328-.70959l.37012.5.37012.5a6.1,6.1,0,0,1-1.65308.96777,5.46684,5.46684,0,0,1-1.968.35254,4.24769,4.24769,0,0,1-3.38794-1.44788,6.02162,6.02162,0,0,1-1.21264-3.95349,6.67742,6.67742,0,0,1,1.1549-4.03857,3.8288,3.8288,0,0,1,3.16541-1.563,3.89487,3.89487,0,0,1,3.19824,1.38782,5.94233,5.94233,0,0,1,1.083,3.77331c0,.18018-.00513.35523-.0127.51282S119.09521,33.30371,119.08545,33.41406Zm-1.62012-1.40039a4.083,4.083,0,0,0-.63794-2.46582,2.28283,2.28283,0,0,0-1.94311-.875,2.152,2.152,0,0,0-1.78516.82764,4.73789,4.73789,0,0,0-.79492,2.67334h5.16113v-.16016Z" fill="#383c45"/><path d="M127.58447,27.45215l-.16015.82031-.16016.82031a3.46181,3.46181,0,0,0-.42993-.09008,3.52268,3.52268,0,0,0-.49-.03,2.00242,2.00242,0,0,0-1.62.73755,5.34453,5.34453,0,0,0-.96008,2.28295v6.10157H122.0835V27.57227h1.44043l.08007,1.10058.08008,1.10059a4.09109,4.09109,0,0,1,1.1449-1.82862,2.57124,2.57124,0,0,1,1.71545-.61279,4.72309,4.72309,0,0,1,.535.03A3.936,3.936,0,0,1,127.58447,27.45215Z" fill="#383c45"/><path d="M133.70361,38.09473h-2.04L129.833,32.8335l-1.83057-5.26123h1.84082l1.43018,4.51123,1.43017,4.51123,1.41016-4.51123,1.41016-4.51123h1.78125l-1.80079,5.26123Z" fill="#383c45"/><path d="M141.44385,23.77148a1.1445,1.1445,0,0,1-.3302.82764,1.21251,1.21251,0,0,1-.87.33252,1.18335,1.18335,0,0,1-.8529-.33252,1.20882,1.20882,0,0,1,0-1.65527,1.18335,1.18335,0,0,1,.8529-.33252,1.21251,1.21251,0,0,1,.87.33252A1.14449,1.14449,0,0,1,141.44385,23.77148ZM141.104,38.09473h-1.68066V27.57227H141.104V38.09473Z" fill="#383c45"/><path d="M151.90479,28.45312l-.41016.52979-.41016.52979a4.01344,4.01344,0,0,0-1.06555-.585,3.60215,3.60215,0,0,0-1.2157-.19531,2.3969,2.3969,0,0,0-2.05505,1.02295,5.39943,5.39943,0,0,0-.76526,3.13818,5.03525,5.03525,0,0,0,.76526,3.05079,2.43152,2.43152,0,0,0,2.05505.95019,3.36946,3.36946,0,0,0,1.20569-.20764,5.07769,5.07769,0,0,0,1.1156-.61267l.39014.55029.39014.55029a4.91028,4.91028,0,0,1-1.46814.865,4.84859,4.84859,0,0,1-1.693.29517,4.20076,4.20076,0,0,1-3.33056-1.4353,6.04452,6.04452,0,0,1-1.23-3.9856,6.37554,6.37554,0,0,1,1.22265-4.05151,4.133,4.133,0,0,1,3.33789-1.53052,5.0309,5.0309,0,0,1,1.678.26026A4.722,4.722,0,0,1,151.90479,28.45312Z" fill="#383c45"/><path d="M161.96533,33.41406h-6.78125a4.43741,4.43741,0,0,0,.93738,2.72254,2.57845,2.57845,0,0,0,2.003.8175,4.23331,4.23331,0,0,0,1.43274-.22986,5.52977,5.52977,0,0,0,1.328-.70959l.37012.5.37012.5a6.1,6.1,0,0,1-1.65308.96777,5.4668,5.4668,0,0,1-1.968.35254,4.24765,4.24765,0,0,1-3.38793-1.44788,6.02162,6.02162,0,0,1-1.21265-3.95349,6.67735,6.67735,0,0,1,1.15491-4.03857,3.82877,3.82877,0,0,1,3.1654-1.563,3.89479,3.89479,0,0,1,3.19861,1.38782,5.943,5.943,0,0,1,1.08264,3.77331c0,.18018-.00513.35523-.01269.51282S161.9751,33.30371,161.96533,33.41406Zm-1.62012-1.40039a4.083,4.083,0,0,0-.63793-2.46582,2.28285,2.28285,0,0,0-1.94312-.875,2.152,2.152,0,0,0-1.78516.82764,4.738,4.738,0,0,0-.79492,2.67334h5.16113v-.16016Z" fill="#383c45"/><path d="M171.32471,28.53223l-.37012.53027-.37012.53027a5.71,5.71,0,0,0-1.34009-.6925,4.239,4.239,0,0,0-1.40014-.22742,2.47861,2.47861,0,0,0-1.47534.40259,1.29263,1.29263,0,0,0-.54517,1.07788,1.18717,1.18717,0,0,0,.50757,1.04468,5.53249,5.53249,0,0,0,1.81274.71509,6.27935,6.27935,0,0,1,2.57056,1.158,2.617,2.617,0,0,1,.89038,2.10279,2.785,2.785,0,0,1-1.23535,2.3833,4.98708,4.98708,0,0,1-2.82617.77783,6.39627,6.39627,0,0,1-2.2826-.39014,5.22626,5.22626,0,0,1-1.63732-.99072l.4497-.50976.44971-.50977a5.19271,5.19271,0,0,0,1.36328.75989,4.66455,4.66455,0,0,0,1.61816.28015,2.91337,2.91337,0,0,0,1.7024-.45276,1.47756,1.47756,0,0,0,.63745-1.24744,1.39782,1.39782,0,0,0-.52759-1.23315,6.14325,6.14325,0,0,0-2.073-.82739,5.46157,5.46157,0,0,1-2.44543-1.1803,2.42342,2.42342,0,0,1-.73523-1.84021,2.5522,2.5522,0,0,1,1.06531-2.05359,4.37213,4.37213,0,0,1,2.65539-.80774,5.72528,5.72528,0,0,1,1.94336.31519A5.87088,5.87088,0,0,1,171.32471,28.53223Z" fill="#383c45"/><path d="M183.68311,38.1543a6.65555,6.65555,0,0,1-1.59009,2.78589,5.29786,5.29786,0,0,1-3.15015,1.37524l-.1001-.66016-.10009-.66015a4.21155,4.21155,0,0,0,2.2406-.96973,4.844,4.844,0,0,0,1.10022-1.93066h-.58008l-1.78076-5.26123-1.78077-5.26123h1.80079l1.45019,4.65087,1.4502,4.65088,1.42041-4.65088,1.42041-4.65087h1.74023l-1.77051,5.291Z" fill="#383c45"/><path d="M197.82471,32.81348a6.23063,6.23063,0,0,1-1.21778,3.99853,4.63369,4.63369,0,0,1-6.83654.035,6.17612,6.17612,0,0,1-1.2074-3.99353,6.23136,6.23136,0,0,1,1.21765-3.99854,4.6497,4.6497,0,0,1,6.84387-.04236A6.18617,6.18617,0,0,1,197.82471,32.81348Zm-7.46192.04a5.42713,5.42713,0,0,0,.72754,3.10315,2.66711,2.66711,0,0,0,4.19617-.005,5.47489,5.47489,0,0,0,.73743-3.13818,5.42711,5.42711,0,0,0-.72754-3.10315,2.6592,2.6592,0,0,0-4.18848.005A5.44986,5.44986,0,0,0,190.36279,32.85352Z" fill="#383c45"/><path d="M208.604,38.09473h-1.43945l-.06006-.8501-.06006-.8501a4.14139,4.14139,0,0,1-1.37536,1.45032,3.67288,3.67288,0,0,1-1.94593.49011,2.82351,2.82351,0,0,1-2.16015-.83765,3.41855,3.41855,0,0,1-.78028-2.383v-7.542h1.68067v7.36132a2.39491,2.39491,0,0,0,.41748,1.59314,1.61255,1.61255,0,0,0,1.30225.46741,2.60131,2.60131,0,0,0,1.57348-.52759,4.571,4.571,0,0,0,1.16773-1.35229v-7.542H208.604V38.09473Z" fill="#383c45"/><path d="M227.26416,38.09473h-2.30078l-.97022-4.501-.97021-4.501-1,4.501-1,4.501h-2.24024l-1.25048-5.26123-1.25049-5.26123h1.70019l.99024,4.67089.99023,4.6709,1.08057-4.6709,1.08057-4.67089h1.87988l1.04053,4.67089,1.04052,4.6709,1-4.6709,1-4.67089h1.60059l-1.21045,5.26123Z" fill="#383c45"/><path d="M239.92334,37.1543l-.19971.59033-.1997.59033a2.57078,2.57078,0,0,1-1.25806-.46545,2.05575,2.05575,0,0,1-.70288-1.15467,3.48674,3.48674,0,0,1-1.37024,1.23011,3.99851,3.99851,0,0,1-1.78992.39,3.38445,3.38445,0,0,1-2.441-.88538,3.13338,3.13338,0,0,1-.88025-2.29528,3.02074,3.02074,0,0,1,1.20044-2.56079,5.59989,5.59989,0,0,1,3.36109-.88062h1.71972v-.83984a2.145,2.145,0,0,0-.56006-1.66529,2.43336,2.43336,0,0,0-1.6997-.49487,6.5962,6.5962,0,0,0-1.31568.14758,11.76277,11.76277,0,0,0-1.52514.4325l-.21-.62012-.21-.62012a11.63552,11.63552,0,0,1,1.81762-.54052,8.64312,8.64312,0,0,1,1.74292-.18018,3.76608,3.76608,0,0,1,2.75781.91272,3.45018,3.45018,0,0,1,.88282,2.54822v4.88086a1.81635,1.81635,0,0,0,.2301,1.03284A1.221,1.221,0,0,0,239.92334,37.1543ZM237.36279,35.334v-2.5h-1.5a3.75218,3.75218,0,0,0-2.23547.55762,1.95925,1.95925,0,0,0-.7655,1.68262,2.04871,2.04871,0,0,0,.48767,1.47034,1.90732,1.90732,0,0,0,1.43322.51013,2.60619,2.60619,0,0,0,1.49256-.43262A3.42358,3.42358,0,0,0,237.36279,35.334Z" fill="#383c45"/><path d="M250.76318,30.55273v7.542H249.0835V30.793a2.47171,2.47171,0,0,0-.45533-1.67786,1.5947,1.5947,0,0,0-1.26538-.46277,2.59851,2.59851,0,0,0-1.59765.53516,5.205,5.205,0,0,0-1.22266,1.40527v7.502h-1.68066V27.57227h1.44043l.06982.80029.06982.80029a4.45181,4.45181,0,0,1,1.41053-1.33313,3.7202,3.7202,0,0,1,1.89026-.50769,2.92282,2.92282,0,0,1,2.23791.86035A3.38851,3.38851,0,0,1,250.76318,30.55273Z" fill="#383c45"/><path d="M259.68311,37.63477a4.03151,4.03151,0,0,1-1.08545.52258,4.19935,4.19935,0,0,1-1.23487.17761,2.73328,2.73328,0,0,1-2.04321-.75024,3.05042,3.05042,0,0,1-.738-2.19019V28.87305h-1.82031V27.57227h1.82031V25.15234l.84034-.09033.84033-.09033v2.60059h2.541l-.09033.65039-.09033.65039h-2.36035v6.4414a1.946,1.946,0,0,0,.30749,1.22242,1.2043,1.2043,0,0,0,1.01282.3977,2.43281,2.43281,0,0,0,.72266-.10742,3.53211,3.53211,0,0,0,.7373-.333l.32031.57031Z" fill="#383c45"/><path d="M272.18311,37.63477a4.03151,4.03151,0,0,1-1.08545.52258,4.19935,4.19935,0,0,1-1.23487.17761,2.73328,2.73328,0,0,1-2.04321-.75024,3.05042,3.05042,0,0,1-.738-2.19019V28.87305h-1.82031V27.57227h1.82031V25.15234l.84034-.09033.84033-.09033v2.60059h2.541l-.09033.65039-.09033.65039h-2.36035v6.4414a1.946,1.946,0,0,0,.30749,1.22242,1.2043,1.2043,0,0,0,1.01282.3977,2.43281,2.43281,0,0,0,.72266-.10742,3.53211,3.53211,0,0,0,.7373-.333l.32031.57031Z" fill="#383c45"/><path d="M282.34326,32.81348a6.23069,6.23069,0,0,1-1.21777,3.99853,4.6337,4.6337,0,0,1-6.83655.035,6.17612,6.17612,0,0,1-1.2074-3.99353,6.23136,6.23136,0,0,1,1.21765-3.99854,4.64971,4.64971,0,0,1,6.84388-.04236A6.18623,6.18623,0,0,1,282.34326,32.81348Zm-7.46191.04a5.42713,5.42713,0,0,0,.72754,3.10315,2.6671,2.6671,0,0,0,4.19616-.005,5.47481,5.47481,0,0,0,.73743-3.13818,5.42711,5.42711,0,0,0-.72754-3.10315,2.6592,2.6592,0,0,0-4.18848.005A5.44994,5.44994,0,0,0,274.88135,32.85352Z" fill="#383c45"/><path d="M299.32373,32.81348A6.23069,6.23069,0,0,1,298.106,36.812a4.6337,4.6337,0,0,1-6.83655.035,6.17612,6.17612,0,0,1-1.2074-3.99353,6.23136,6.23136,0,0,1,1.21765-3.99854,4.64971,4.64971,0,0,1,6.84388-.04236A6.18623,6.18623,0,0,1,299.32373,32.81348Zm-7.46191.04a5.42713,5.42713,0,0,0,.72754,3.10315,2.6671,2.6671,0,0,0,4.19616-.005,5.47481,5.47481,0,0,0,.73743-3.13818,5.42711,5.42711,0,0,0-.72754-3.10315,2.6592,2.6592,0,0,0-4.18848.005A5.44994,5.44994,0,0,0,291.86182,32.85352Z" fill="#383c45"/><path d="M309.82275,26.05176v1.52051h2.60059l-.09033.65039-.09033.65039h-2.41993v9.22168h-1.68066V28.87305h-4.02051v9.22168h-1.68066V28.87305h-1.68067V27.57227h1.68067V26.27246a2.77439,2.77439,0,0,1,.84509-2.1228,3.67621,3.67621,0,0,1,2.5553-.81763,6.75058,6.75058,0,0,1,1.50793.15235,8.63268,8.63268,0,0,1,1.55262.52734,2.68111,2.68111,0,0,1,1.01818-.65015,4.11436,4.11436,0,0,1,1.42322-.22973,5.862,5.862,0,0,1,1.30969.13488,6.428,6.428,0,0,1,1.19031.40516l-.27.60986-.27.60986a4.70874,4.70874,0,0,0-.97485-.31213,4.46822,4.46822,0,0,0-.8855-.08728,1.69967,1.69967,0,0,0-1.24512.38244A1.58467,1.58467,0,0,0,309.82275,26.05176Zm-1.68066.02051a3.91775,3.91775,0,0,1,.03-.49256,3.01843,3.01843,0,0,1,.09009-.44787,6.732,6.732,0,0,0-1.16748-.34034,6.12144,6.12144,0,0,0-1.15284-.10009,2.067,2.067,0,0,0-1.413.38293,1.49023,1.49023,0,0,0-.40735,1.17761v1.32032h4.02051v-1.5Z" fill="#383c45"/><path d="M322.20264,33.41406h-6.78125a4.43735,4.43735,0,0,0,.93737,2.72254,2.57847,2.57847,0,0,0,2.00306.8175,4.2334,4.2334,0,0,0,1.43274-.22986,5.53,5.53,0,0,0,1.328-.70959l.37012.5.37011.5a6.1,6.1,0,0,1-1.65307.96777,5.46688,5.46688,0,0,1-1.968.35254,4.24768,4.24768,0,0,1-3.38794-1.44788,6.02162,6.02162,0,0,1-1.21265-3.95349A6.67742,6.67742,0,0,1,314.796,28.895a3.82879,3.82879,0,0,1,3.16541-1.563,3.89489,3.89489,0,0,1,3.19824,1.38782,5.94233,5.94233,0,0,1,1.083,3.77331c0,.18018-.00513.35523-.0127.51282S322.2124,33.30371,322.20264,33.41406Zm-1.62012-1.40039a4.083,4.083,0,0,0-.63794-2.46582,2.28283,2.28283,0,0,0-1.94312-.875,2.15194,2.15194,0,0,0-1.78515.82764,4.73789,4.73789,0,0,0-.79492,2.67334h5.16113v-.16016Z" fill="#383c45"/><path d="M330.70166,27.45215l-.16016.82031-.16015.82031a3.46181,3.46181,0,0,0-.42993-.09008,3.52268,3.52268,0,0,0-.49-.03,2.0024,2.0024,0,0,0-1.62.73755,5.34453,5.34453,0,0,0-.96008,2.28295v6.10157h-1.68067V27.57227h1.44043l.08008,1.10058.08008,1.10059a4.09092,4.09092,0,0,1,1.1449-1.82862,2.57122,2.57122,0,0,1,1.71545-.61279,4.72309,4.72309,0,0,1,.535.03A3.93633,3.93633,0,0,1,330.70166,27.45215Z" fill="#383c45"/><path d="M345.1626,28.45312l-.41016.52979-.41015.52979a4.01364,4.01364,0,0,0-1.06556-.585,3.60213,3.60213,0,0,0-1.21569-.19531,2.39691,2.39691,0,0,0-2.05506,1.02295,5.39943,5.39943,0,0,0-.76526,3.13818,5.03525,5.03525,0,0,0,.76526,3.05079,2.43153,2.43153,0,0,0,2.05506.95019,3.36945,3.36945,0,0,0,1.20568-.20764,5.07769,5.07769,0,0,0,1.1156-.61267l.39014.55029.39014.55029a4.91028,4.91028,0,0,1-1.46814.865,4.84859,4.84859,0,0,1-1.693.29517,4.20077,4.20077,0,0,1-3.33056-1.4353,6.04452,6.04452,0,0,1-1.23-3.9856,6.3756,6.3756,0,0,1,1.22265-4.05151,4.133,4.133,0,0,1,3.33789-1.53052,5.03082,5.03082,0,0,1,1.678.26026A4.722,4.722,0,0,1,345.1626,28.45312Z" fill="#383c45"/><path d="M355.16211,38.09473h-1.43994l-.06006-.8501-.06006-.8501a4.14141,4.14141,0,0,1-1.37537,1.45032,3.67284,3.67284,0,0,1-1.94592.49011,2.82349,2.82349,0,0,1-2.16015-.83765,3.41855,3.41855,0,0,1-.78028-2.383v-7.542H349.021v7.36132a2.39491,2.39491,0,0,0,.41748,1.59314,1.61254,1.61254,0,0,0,1.30224.46741,2.60134,2.60134,0,0,0,1.57349-.52759,4.57079,4.57079,0,0,0,1.16772-1.35229v-7.542h1.68018V38.09473Z" fill="#383c45"/><path d="M365.32227,28.53223l-.37012.53027-.37012.53027a5.71,5.71,0,0,0-1.34009-.6925,4.239,4.239,0,0,0-1.40014-.22742,2.48077,2.48077,0,0,0-1.47583.40259,1.29243,1.29243,0,0,0-.54566,1.07788,1.18717,1.18717,0,0,0,.50757,1.04468,5.53249,5.53249,0,0,0,1.81274.71509,6.27929,6.27929,0,0,1,2.57056,1.158,2.617,2.617,0,0,1,.89038,2.10279,2.78517,2.78517,0,0,1-1.23486,2.3833,4.98489,4.98489,0,0,1-2.82568.77783,6.39877,6.39877,0,0,1-2.283-.39014,5.2175,5.2175,0,0,1-1.637-.99072l.44922-.50976.44922-.50977a5.20332,5.20332,0,0,0,1.36377.75989,4.66532,4.66532,0,0,0,1.61865.28015,2.9134,2.9134,0,0,0,1.7024-.45276,1.47756,1.47756,0,0,0,.63745-1.24744,1.39756,1.39756,0,0,0-.52808-1.23315,6.14914,6.14914,0,0,0-2.07349-.82739,5.45976,5.45976,0,0,1-2.44458-1.1803,2.42375,2.42375,0,0,1-.7351-1.84021,2.55219,2.55219,0,0,1,1.06494-2.05359,4.372,4.372,0,0,1,2.65576-.80774,5.72528,5.72528,0,0,1,1.94336.31519A5.87088,5.87088,0,0,1,365.32227,28.53223Z" fill="#383c45"/><path d="M373.502,37.63477a4.0427,4.0427,0,0,1-1.08618.52258,4.19673,4.19673,0,0,1-1.23413.17761,2.73327,2.73327,0,0,1-2.04321-.75024,3.05037,3.05037,0,0,1-.738-2.19019V28.87305h-1.82031V27.57227h1.82031V25.15234l.83984-.09033.83985-.09033v2.60059h2.541l-.08984.65039-.08984.65039h-2.36133v6.4414a1.94507,1.94507,0,0,0,.30786,1.22242,1.2043,1.2043,0,0,0,1.01245.3977,2.43723,2.43723,0,0,0,.72315-.10742,3.52951,3.52951,0,0,0,.73779-.333l.32031.57031Z" fill="#383c45"/><path d="M383.66211,32.81348a6.23194,6.23194,0,0,1-1.21729,3.99853,4.6341,4.6341,0,0,1-6.83691.035,6.17546,6.17546,0,0,1-1.20752-3.99353,6.23071,6.23071,0,0,1,1.218-3.99854,4.64927,4.64927,0,0,1,6.8435-.04236A6.18617,6.18617,0,0,1,383.66211,32.81348Zm-7.46094.04a5.42713,5.42713,0,0,0,.72754,3.10315,2.66622,2.66622,0,0,0,4.19531-.005,5.47584,5.47584,0,0,0,.73731-3.13818,5.42711,5.42711,0,0,0-.72754-3.10315,2.6587,2.6587,0,0,0-4.188.005A5.45212,5.45212,0,0,0,376.20117,32.85352Z" fill="#383c45"/><path d="M400.06445,30.55273v7.542h-1.68164V30.793a2.55837,2.55837,0,0,0-.45-1.67786,1.37751,1.37751,0,0,0-1.11059-.46277,2.16571,2.16571,0,0,0-1.44751.53516,6.04931,6.04931,0,0,0-1.13257,1.40527v7.502H392.5625V30.793a2.55663,2.55663,0,0,0-.45068-1.67786,1.37765,1.37765,0,0,0-1.10987-.46277,2.1918,2.1918,0,0,0-1.45556.53516,5.707,5.707,0,0,0-1.12451,1.40527v7.502h-1.68165V27.57227h1.44141l.06934.80029.06933.80029a4.53438,4.53438,0,0,1,1.31055-1.33313,3.27668,3.27668,0,0,1,1.791-.50769,2.62951,2.62951,0,0,1,2.64062,1.94043,4.752,4.752,0,0,1,1.33984-1.40527,3.25,3.25,0,0,1,1.82032-.53516,2.673,2.673,0,0,1,2.06616.86768A3.47167,3.47167,0,0,1,400.06445,30.55273Z" fill="#383c45"/><path d="M411.582,33.41406h-6.78125a4.4381,4.4381,0,0,0,.93726,2.72254,2.57714,2.57714,0,0,0,2.00219.8175,4.23461,4.23461,0,0,0,1.43287-.22986,5.54118,5.54118,0,0,0,1.32885-.70959l.37012.5.37012.5a6.11117,6.11117,0,0,1-1.65381.96777,5.46477,5.46477,0,0,1-1.96729.35254,4.249,4.249,0,0,1-3.38842-1.44788,6.02036,6.02036,0,0,1-1.21314-3.95349A6.67668,6.67668,0,0,1,404.1748,28.895a3.82893,3.82893,0,0,1,3.165-1.563,3.89489,3.89489,0,0,1,3.19825,1.38782,5.94233,5.94233,0,0,1,1.083,3.77331c0,.18018-.00488.35523-.0122.51282S411.5918,33.30371,411.582,33.41406Zm-1.62109-1.40039a4.08479,4.08479,0,0,0-.63745-2.46582,2.28159,2.28159,0,0,0-1.94263-.875,2.15271,2.15271,0,0,0-1.78589.82764,4.73449,4.73449,0,0,0-.79419,2.67334h5.16016v-.16016Z" fill="#383c45"/><path d="M420.08008,27.45215l-.16016.82031-.16015.82031a3.433,3.433,0,0,0-.4292-.09008,3.529,3.529,0,0,0-.49073-.03,2.00154,2.00154,0,0,0-1.61963.73755,5.35184,5.35184,0,0,0-.96044,2.28295v6.10157h-1.67969V27.57227h1.43945l.08008,1.10058.08008,1.10059a4.095,4.095,0,0,1,1.14575-1.82862A2.57178,2.57178,0,0,1,419.041,27.332a4.71286,4.71286,0,0,1,.53418.03A3.93818,3.93818,0,0,1,420.08008,27.45215Z" fill="#383c45"/><path d="M428.24023,28.53223l-.37011.53027-.37012.53027a5.71,5.71,0,0,0-1.34009-.6925,4.239,4.239,0,0,0-1.40014-.22742,2.47653,2.47653,0,0,0-1.47486.40259,1.29283,1.29283,0,0,0-.54468,1.07788,1.18717,1.18717,0,0,0,.50757,1.04468,5.53247,5.53247,0,0,0,1.81275.71509,6.27931,6.27931,0,0,1,2.57055,1.158,2.617,2.617,0,0,1,.89038,2.10279,2.7848,2.7848,0,0,1-1.23584,2.3833,4.98921,4.98921,0,0,1-2.82666.77783,6.39362,6.39362,0,0,1-2.28222-.39014,5.23531,5.23531,0,0,1-1.6377-.99072l.4502-.50976.45019-.50977a5.18235,5.18235,0,0,0,1.3628.75989,4.66375,4.66375,0,0,0,1.61767.28015,2.91336,2.91336,0,0,0,1.70239-.45276,1.47755,1.47755,0,0,0,.63746-1.24744,1.39811,1.39811,0,0,0-.5271-1.23315,6.13746,6.13746,0,0,0-2.07251-.82739,5.46337,5.46337,0,0,1-2.44629-1.1803,2.423,2.423,0,0,1-.73535-1.84021,2.55225,2.55225,0,0,1,1.06567-2.05359,4.37232,4.37232,0,0,1,2.655-.80774,5.72528,5.72528,0,0,1,1.94336.31519A5.871,5.871,0,0,1,428.24023,28.53223Z" fill="#383c45"/><path d="M438.43945,26.05176v1.52051H441.041l-.08985.65039-.08984.65039h-2.42188v9.22168h-1.67968V28.87305h-1.86133V27.57227h1.86133v-1.5a2.84492,2.84492,0,0,1,.82788-2.12281,3.339,3.339,0,0,1,2.37329-.81762,5.86169,5.86169,0,0,1,1.31006.13488,6.42825,6.42825,0,0,1,1.18994.40516l-.27051.60986-.27051.60986a4.7097,4.7097,0,0,0-.97436-.31213,4.46176,4.46176,0,0,0-.885-.08728,1.70161,1.70161,0,0,0-1.25293.38244A1.59262,1.59262,0,0,0,438.43945,26.05176Z" fill="#383c45"/><path d="M451.52148,32.81348a6.22937,6.22937,0,0,1-1.21826,3.99853,4.63328,4.63328,0,0,1-6.83618.035,6.17683,6.17683,0,0,1-1.20727-3.99353,6.232,6.232,0,0,1,1.21728-3.99854,4.65012,4.65012,0,0,1,6.84424-.04236A6.18617,6.18617,0,0,1,451.52148,32.81348Zm-7.46289.04a5.42713,5.42713,0,0,0,.72754,3.10315,2.668,2.668,0,0,0,4.197-.005,5.47379,5.47379,0,0,0,.73755-3.13818,5.42711,5.42711,0,0,0-.72754-3.10315,2.6597,2.6597,0,0,0-4.189.005A5.44768,5.44768,0,0,0,444.05859,32.85352Z" fill="#383c45"/><path d="M460.09961,27.45215l-.16016.82031-.16015.82031a3.433,3.433,0,0,0-.4292-.09008,3.5289,3.5289,0,0,0-.49072-.03,2.00151,2.00151,0,0,0-1.61963.73755,5.35184,5.35184,0,0,0-.96045,2.28295v6.10157h-1.67969V27.57227h1.43945l.08008,1.10058.08008,1.10059a4.0951,4.0951,0,0,1,1.14575-1.82862,2.5718,2.5718,0,0,1,1.71558-.61279,4.71286,4.71286,0,0,1,.53418.03A3.93818,3.93818,0,0,1,460.09961,27.45215Z" fill="#383c45"/><path d="M475.46094,37.1543l-.2002.59033-.20019.59033a2.56985,2.56985,0,0,1-1.25733-.46545,2.05919,2.05919,0,0,1-.70361-1.15467,3.48662,3.48662,0,0,1-1.36987,1.23011,3.99828,3.99828,0,0,1-1.79029.39,3.38291,3.38291,0,0,1-2.44018-.88538,3.13378,3.13378,0,0,1-.88013-2.29528,3.021,3.021,0,0,1,1.2-2.56079,5.59774,5.59774,0,0,1,3.3606-.88062h1.7207v-.83984a2.145,2.145,0,0,0-.56006-1.66529,2.43337,2.43337,0,0,0-1.69971-.49487,6.6026,6.6026,0,0,0-1.31616.14758,11.75743,11.75743,0,0,0-1.52563.4325l-.21-.62012-.21-.62012a11.63552,11.63552,0,0,1,1.81762-.54052,8.64319,8.64319,0,0,1,1.74292-.18018,3.76612,3.76612,0,0,1,2.75782.91272,3.45022,3.45022,0,0,1,.88281,2.54822v4.88086a1.81525,1.81525,0,0,0,.23022,1.03284A1.22187,1.22187,0,0,0,475.46094,37.1543ZM472.90039,35.334v-2.5h-1.5a3.75434,3.75434,0,0,0-2.23633.55762,1.959,1.959,0,0,0-.76562,1.68262,2.04821,2.04821,0,0,0,.48779,1.47034,1.90884,1.90884,0,0,0,1.43408.51013,2.60637,2.60637,0,0,0,1.49219-.43262A3.42321,3.42321,0,0,0,472.90039,35.334Z" fill="#383c45"/><path d="M486.33984,23.332v14.7627h-1.459l-.08984-.74024-.08985-.74023a3.76288,3.76288,0,0,1-1.27563,1.25036,3.50882,3.50882,0,0,1-1.78687.47034,3.42986,3.42986,0,0,1-2.93164-1.493,6.88171,6.88171,0,0,1-1.02734-3.9679,6.81269,6.81269,0,0,1,1.092-3.97876,3.71162,3.71162,0,0,1,4.68335-1.173,4.45949,4.45949,0,0,1,1.20508.93v-5.5205l.83984.10009ZM484.66016,35.334V30.09277a3.89553,3.89553,0,0,0-1.07788-1.03259,2.67074,2.67074,0,0,0-1.42212-.38733,2.24267,2.24267,0,0,0-1.95606,1.04,5.67266,5.67266,0,0,0-.72558,3.14063,5.97578,5.97578,0,0,0,.65771,3.1206,2.055,2.055,0,0,0,1.84424,1.02,2.69908,2.69908,0,0,0,1.53467-.43237A4.15185,4.15185,0,0,0,484.66016,35.334Z" fill="#383c45"/><path d="M498.08008,23.332v14.7627h-1.46094l-.08984-.74024-.08985-.74023a3.76425,3.76425,0,0,1-1.27539,1.25036,3.5044,3.5044,0,0,1-1.78515.47034,3.432,3.432,0,0,1-2.93335-1.493A6.87978,6.87978,0,0,1,489.418,32.874a6.80924,6.80924,0,0,1,1.093-3.97876,3.711,3.711,0,0,1,4.68286-1.173,4.48169,4.48169,0,0,1,1.20654.93v-5.5205l.83984.10009ZM496.40039,35.334V30.09277a3.89287,3.89287,0,0,0-1.07812-1.03259,2.67493,2.67493,0,0,0-1.42383-.38733,2.24046,2.24046,0,0,0-1.95508,1.04,5.67756,5.67756,0,0,0-.72461,3.14063,5.9784,5.9784,0,0,0,.65747,3.1206,2.05308,2.05308,0,0,0,1.84253,1.02,2.7,2.7,0,0,0,1.53564-.43237A4.16675,4.16675,0,0,0,496.40039,35.334Z" fill="#383c45"/><path d="M509.7207,33.41406h-6.78125a4.43817,4.43817,0,0,0,.93726,2.72254,2.57715,2.57715,0,0,0,2.0022.8175,4.23459,4.23459,0,0,0,1.43286-.22986,5.54118,5.54118,0,0,0,1.32885-.70959l.37012.5.37012.5a6.11117,6.11117,0,0,1-1.65381.96777,5.46476,5.46476,0,0,1-1.96728.35254,4.249,4.249,0,0,1-3.38843-1.44788,6.02041,6.02041,0,0,1-1.21314-3.95349,6.67662,6.67662,0,0,1,1.15528-4.03857,3.8289,3.8289,0,0,1,3.165-1.563,3.89489,3.89489,0,0,1,3.19824,1.38782,5.94233,5.94233,0,0,1,1.083,3.77331c0,.18018-.00489.35523-.01221.51282S509.73047,33.30371,509.7207,33.41406Zm-1.62109-1.40039a4.08479,4.08479,0,0,0-.63745-2.46582,2.28159,2.28159,0,0,0-1.94263-.875,2.15271,2.15271,0,0,0-1.78589.82764,4.73449,4.73449,0,0,0-.79419,2.67334h5.16016v-.16016Z" fill="#383c45"/><path d="M520.66016,23.332v14.7627h-1.46094l-.08984-.74024-.08985-.74023a3.76434,3.76434,0,0,1-1.27539,1.25036,3.50444,3.50444,0,0,1-1.78516.47034,3.432,3.432,0,0,1-2.93335-1.493,6.87985,6.87985,0,0,1-1.02758-3.9679,6.80932,6.80932,0,0,1,1.093-3.97876,3.711,3.711,0,0,1,4.68287-1.173,4.48169,4.48169,0,0,1,1.20654.93v-5.5205l.83984.10009ZM518.98047,35.334V30.09277a3.89277,3.89277,0,0,0-1.07813-1.03259,2.67487,2.67487,0,0,0-1.42382-.38733,2.24046,2.24046,0,0,0-1.95508,1.04,5.67747,5.67747,0,0,0-.72461,3.14063,5.9784,5.9784,0,0,0,.65747,3.1206,2.05308,2.05308,0,0,0,1.84253,1.02,2.7,2.7,0,0,0,1.53564-.43237A4.16675,4.16675,0,0,0,518.98047,35.334Z" fill="#383c45"/><path d="M535.31836,27.45215l-.16016.82031-.16015.82031a3.433,3.433,0,0,0-.4292-.09008,3.529,3.529,0,0,0-.49073-.03,2.0015,2.0015,0,0,0-1.61962.73755,5.35184,5.35184,0,0,0-.96045,2.28295v6.10157h-1.67969V27.57227h1.43945l.08008,1.10058.08008,1.10059a4.0951,4.0951,0,0,1,1.14575-1.82862,2.5718,2.5718,0,0,1,1.71558-.61279,4.71286,4.71286,0,0,1,.53418.03A3.93818,3.93818,0,0,1,535.31836,27.45215Z" fill="#383c45"/><path d="M544.87891,33.41406h-6.78125a4.43653,4.43653,0,0,0,.9375,2.72254,2.57974,2.57974,0,0,0,2.0039.8175,4.23212,4.23212,0,0,0,1.43262-.22986,5.51857,5.51857,0,0,0,1.32715-.70959l.37012.5.37011.5a6.08857,6.08857,0,0,1-1.65234.96777,5.46894,5.46894,0,0,1-1.96875.35254,4.24629,4.24629,0,0,1-3.38745-1.44788,6.02283,6.02283,0,0,1-1.21216-3.95349A6.67816,6.67816,0,0,1,537.4729,28.895a3.82865,3.82865,0,0,1,3.16577-1.563,3.89486,3.89486,0,0,1,3.19824,1.38782,5.94227,5.94227,0,0,1,1.083,3.77331c0,.18018-.00537.35523-.01318.51282S544.88867,33.30371,544.87891,33.41406Zm-1.61914-1.40039a4.08123,4.08123,0,0,0-.63843-2.46582,2.28409,2.28409,0,0,0-1.94361-.875,2.15119,2.15119,0,0,0-1.78442.82764,4.74138,4.74138,0,0,0-.79565,2.67334h5.16211v-.16016Z" fill="#383c45"/><path d="M551.81836,38.09473h-2.041l-1.83007-5.26123-1.83008-5.26123H547.957l1.43067,4.51123,1.43066,4.51123,1.41016-4.51123,1.41015-4.51123h1.78125l-1.80078,5.26123Z" fill="#383c45"/><path d="M565.32031,33.41406h-6.78125a4.43817,4.43817,0,0,0,.93726,2.72254,2.57715,2.57715,0,0,0,2.0022.8175,4.23459,4.23459,0,0,0,1.43286-.22986,5.54118,5.54118,0,0,0,1.32885-.70959l.37012.5.37012.5a6.11117,6.11117,0,0,1-1.65381.96777,5.46476,5.46476,0,0,1-1.96728.35254,4.249,4.249,0,0,1-3.38843-1.44788,6.02041,6.02041,0,0,1-1.21314-3.95349,6.67662,6.67662,0,0,1,1.15528-4.03857,3.82889,3.82889,0,0,1,3.165-1.563,3.89489,3.89489,0,0,1,3.19825,1.38782,5.94233,5.94233,0,0,1,1.083,3.77331c0,.18018-.00489.35523-.01221.51282S565.33008,33.30371,565.32031,33.41406Zm-1.62109-1.40039a4.08479,4.08479,0,0,0-.63745-2.46582,2.28159,2.28159,0,0,0-1.94263-.875,2.15271,2.15271,0,0,0-1.78589.82764,4.73449,4.73449,0,0,0-.79419,2.67334h5.16016v-.16016Z" fill="#383c45"/><path d="M576.21875,30.55273v7.542h-1.67969V30.793a2.47171,2.47171,0,0,0-.45532-1.67786,1.59471,1.59471,0,0,0-1.26538-.46277,2.59852,2.59852,0,0,0-1.59766.53516,5.20484,5.20484,0,0,0-1.22265,1.40527v7.502h-1.67969V27.57227h1.43945l.07031.80029.07032.80029a4.44427,4.44427,0,0,1,1.41015-1.33313,3.72192,3.72192,0,0,1,1.89063-.50769,2.9214,2.9214,0,0,1,2.23706.86035A3.389,3.389,0,0,1,576.21875,30.55273Z" fill="#383c45"/><path d="M587.59766,38.09473H586.1582l-.05957-.8501-.05957-.8501a4.14663,4.14663,0,0,1-1.37622,1.45032,3.6736,3.6736,0,0,1-1.946.49011,2.822,2.822,0,0,1-2.15967-.83765,3.4196,3.4196,0,0,1-.77979-2.383v-7.542H581.457v7.36132a2.39338,2.39338,0,0,0,.418,1.59314,1.614,1.614,0,0,0,1.30273.46741,2.59935,2.59935,0,0,0,1.573-.52759,4.57326,4.57326,0,0,0,1.16724-1.35229v-7.542h1.67969V38.09473Z" fill="#383c45"/><path d="M599.23828,33.41406H592.457a4.43665,4.43665,0,0,0,.9375,2.72254,2.57978,2.57978,0,0,0,2.00391.8175,4.2321,4.2321,0,0,0,1.43261-.22986,5.51839,5.51839,0,0,0,1.32715-.70959l.37012.5.37012.5a6.08878,6.08878,0,0,1-1.65235.96777,5.46886,5.46886,0,0,1-1.96875.35254,4.24632,4.24632,0,0,1-3.38745-1.44788,6.02289,6.02289,0,0,1-1.21216-3.95349,6.67809,6.67809,0,0,1,1.15455-4.03857,3.82865,3.82865,0,0,1,3.16577-1.563,3.89487,3.89487,0,0,1,3.19824,1.38782,5.94233,5.94233,0,0,1,1.083,3.77331c0,.18018-.00537.35523-.01319.51282S599.24805,33.30371,599.23828,33.41406Zm-1.61914-1.40039a4.08123,4.08123,0,0,0-.63843-2.46582,2.28407,2.28407,0,0,0-1.9436-.875,2.15117,2.15117,0,0,0-1.78442.82764,4.74137,4.74137,0,0,0-.79566,2.67334h5.16211v-.16016Z" fill="#383c45"/><path d="M613.959,28.53223l-.37011.53027-.37012.53027a5.71,5.71,0,0,0-1.34009-.6925,4.239,4.239,0,0,0-1.40014-.22742,2.48077,2.48077,0,0,0-1.47583.40259,1.29243,1.29243,0,0,0-.54566,1.07788,1.18717,1.18717,0,0,0,.50757,1.04468,5.53249,5.53249,0,0,0,1.81274.71509,6.27929,6.27929,0,0,1,2.57056,1.158,2.617,2.617,0,0,1,.89038,2.10279,2.78517,2.78517,0,0,1-1.23486,2.3833,4.9849,4.9849,0,0,1-2.82569.77783,6.39876,6.39876,0,0,1-2.283-.39014,5.2175,5.2175,0,0,1-1.637-.99072l.44922-.50976.44922-.50977a5.20332,5.20332,0,0,0,1.36377.75989,4.66532,4.66532,0,0,0,1.61865.28015,2.91336,2.91336,0,0,0,1.70239-.45276,1.47755,1.47755,0,0,0,.63746-1.24744,1.39756,1.39756,0,0,0-.52808-1.23315,6.14914,6.14914,0,0,0-2.07349-.82739,5.45971,5.45971,0,0,1-2.44458-1.1803,2.42375,2.42375,0,0,1-.7351-1.84021,2.55219,2.55219,0,0,1,1.06494-2.05359A4.372,4.372,0,0,1,610.418,27.332a5.72528,5.72528,0,0,1,1.94336.31519A5.871,5.871,0,0,1,613.959,28.53223Z" fill="#383c45"/><path d="M622.13867,37.63477a4.0427,4.0427,0,0,1-1.08618.52258,4.19673,4.19673,0,0,1-1.23413.17761,2.73327,2.73327,0,0,1-2.04321-.75024,3.05037,3.05037,0,0,1-.738-2.19019V28.87305H615.2168V27.57227h1.82031V25.15234l.83984-.09033.83985-.09033v2.60059h2.541l-.08984.65039-.08985.65039H618.7168v6.4414a1.94507,1.94507,0,0,0,.30786,1.22242,1.20429,1.20429,0,0,0,1.01245.3977,2.43712,2.43712,0,0,0,.72314-.10742,3.52935,3.52935,0,0,0,.7378-.333l.32031.57031Z" fill="#383c45"/><path d="M629.53711,27.45215l-.16016.82031-.16015.82031a3.433,3.433,0,0,0-.4292-.09008,3.5289,3.5289,0,0,0-.49072-.03,2.00151,2.00151,0,0,0-1.61963.73755,5.35184,5.35184,0,0,0-.96045,2.28295v6.10157h-1.67969V27.57227h1.43945l.08008,1.10058.08008,1.10059a4.0951,4.0951,0,0,1,1.14575-1.82862,2.5718,2.5718,0,0,1,1.71558-.61279,4.71286,4.71286,0,0,1,.53418.03A3.93818,3.93818,0,0,1,629.53711,27.45215Z" fill="#383c45"/><path d="M639.09766,33.41406h-6.78125a4.43653,4.43653,0,0,0,.9375,2.72254,2.57974,2.57974,0,0,0,2.0039.8175,4.23212,4.23212,0,0,0,1.43262-.22986,5.51857,5.51857,0,0,0,1.32715-.70959l.37012.5.37011.5a6.08872,6.08872,0,0,1-1.65234.96777,5.46894,5.46894,0,0,1-1.96875.35254,4.24629,4.24629,0,0,1-3.38745-1.44788,6.02283,6.02283,0,0,1-1.21216-3.95349,6.67816,6.67816,0,0,1,1.15454-4.03857,3.82865,3.82865,0,0,1,3.16577-1.563,3.89486,3.89486,0,0,1,3.19824,1.38782,5.94227,5.94227,0,0,1,1.083,3.77331c0,.18018-.00537.35523-.01318.51282S639.10742,33.30371,639.09766,33.41406Zm-1.61914-1.40039a4.08123,4.08123,0,0,0-.63843-2.46582,2.28409,2.28409,0,0,0-1.94361-.875,2.15119,2.15119,0,0,0-1.78442.82764,4.74138,4.74138,0,0,0-.79565,2.67334h5.16211v-.16016Z" fill="#383c45"/><path d="M649.89844,37.1543l-.2002.59033-.20019.59033a2.56985,2.56985,0,0,1-1.25733-.46545,2.05919,2.05919,0,0,1-.70361-1.15467,3.48662,3.48662,0,0,1-1.36987,1.23011,3.99828,3.99828,0,0,1-1.79029.39,3.38291,3.38291,0,0,1-2.44018-.88538,3.13378,3.13378,0,0,1-.88013-2.29528,3.021,3.021,0,0,1,1.19995-2.56079,5.59774,5.59774,0,0,1,3.3606-.88062h1.7207v-.83984a2.145,2.145,0,0,0-.56006-1.66529,2.43337,2.43337,0,0,0-1.69971-.49487,6.6026,6.6026,0,0,0-1.31616.14758,11.75743,11.75743,0,0,0-1.52563.4325l-.21-.62012-.21-.62012a11.63552,11.63552,0,0,1,1.81762-.54052A8.64319,8.64319,0,0,1,645.377,27.332a3.76612,3.76612,0,0,1,2.75782.91272,3.45022,3.45022,0,0,1,.88281,2.54822v4.88086a1.81525,1.81525,0,0,0,.23022,1.03284A1.22187,1.22187,0,0,0,649.89844,37.1543ZM647.33789,35.334v-2.5h-1.5a3.75434,3.75434,0,0,0-2.23633.55762,1.959,1.959,0,0,0-.76562,1.68262,2.04821,2.04821,0,0,0,.48779,1.47034,1.90884,1.90884,0,0,0,1.43408.51013,2.60637,2.60637,0,0,0,1.49219-.43262A3.42321,3.42321,0,0,0,647.33789,35.334Z" fill="#383c45"/><path d="M666.16016,30.55273v7.542h-1.68164V30.793a2.55837,2.55837,0,0,0-.45-1.67786,1.37749,1.37749,0,0,0-1.11059-.46277,2.16571,2.16571,0,0,0-1.44751.53516,6.04956,6.04956,0,0,0-1.13257,1.40527v7.502H658.6582V30.793a2.55663,2.55663,0,0,0-.45068-1.67786,1.37763,1.37763,0,0,0-1.10986-.46277,2.19183,2.19183,0,0,0-1.45557.53516,5.707,5.707,0,0,0-1.12451,1.40527v7.502h-1.68164V27.57227h1.4414l.06934.80029.06934.80029a4.53422,4.53422,0,0,1,1.31054-1.33313,3.27671,3.27671,0,0,1,1.791-.50769,2.62951,2.62951,0,0,1,2.64062,1.94043,4.75211,4.75211,0,0,1,1.33985-1.40527,3.25,3.25,0,0,1,1.82031-.53516,2.673,2.673,0,0,1,2.06616.86768A3.47167,3.47167,0,0,1,666.16016,30.55273Z" fill="#383c45"/><path d="M676.19727,28.53223l-.37012.53027-.37012.53027a5.71,5.71,0,0,0-1.34009-.6925,4.239,4.239,0,0,0-1.40014-.22742,2.47653,2.47653,0,0,0-1.47486.40259,1.29282,1.29282,0,0,0-.54467,1.07788,1.18718,1.18718,0,0,0,.50756,1.04468,5.53247,5.53247,0,0,0,1.81275.71509,6.27924,6.27924,0,0,1,2.57055,1.158,2.617,2.617,0,0,1,.89039,2.10279,2.78482,2.78482,0,0,1-1.23584,2.3833,4.98926,4.98926,0,0,1-2.82666.77783,6.39363,6.39363,0,0,1-2.28223-.39014,5.23531,5.23531,0,0,1-1.6377-.99072l.4502-.50976.45019-.50977a5.18235,5.18235,0,0,0,1.3628.75989,4.66375,4.66375,0,0,0,1.61767.28015,2.9134,2.9134,0,0,0,1.7024-.45276,1.47756,1.47756,0,0,0,.63745-1.24744,1.39811,1.39811,0,0,0-.5271-1.23315,6.13746,6.13746,0,0,0-2.07251-.82739,5.46337,5.46337,0,0,1-2.44629-1.1803,2.423,2.423,0,0,1-.73535-1.84021,2.55225,2.55225,0,0,1,1.06567-2.05359,4.37232,4.37232,0,0,1,2.655-.80774,5.72528,5.72528,0,0,1,1.94336.31519A5.87088,5.87088,0,0,1,676.19727,28.53223Z" fill="#383c45"/></svg>