<svg id="ed715549-46ed-4303-b431-8255142ebf40" data-name="Layer 1" xmlns="http://www.w3.org/2000/svg" viewBox="0 0 560 60"><title>img-text-video</title><path d="M32.72412,36.57422h5.68067l-.1001.76025-.1001.76026H31.00342V24.332h1.7207V36.57422Z" fill="#383c45"/><path d="M48.04541,33.41406H41.26416a4.43728,4.43728,0,0,0,.93738,2.72254,2.57845,2.57845,0,0,0,2.00305.8175,4.2334,4.2334,0,0,0,1.43274-.22986,5.53,5.53,0,0,0,1.328-.70959l.37012.5.37012.5a6.1,6.1,0,0,1-1.65308.96777,5.46684,5.46684,0,0,1-1.968.35254,4.24769,4.24769,0,0,1-3.38794-1.44788,6.02167,6.02167,0,0,1-1.21264-3.95349,6.67742,6.67742,0,0,1,1.1549-4.03857,3.8288,3.8288,0,0,1,3.16541-1.563,3.89481,3.89481,0,0,1,3.19861,1.38782,5.943,5.943,0,0,1,1.08264,3.77331c0,.18018-.00513.35523-.0127.51282S48.05518,33.30371,48.04541,33.41406Zm-1.62012-1.40039a4.083,4.083,0,0,0-.63794-2.46582,2.28281,2.28281,0,0,0-1.94311-.875,2.152,2.152,0,0,0-1.78516.82764,4.73789,4.73789,0,0,0-.79492,2.67334h5.16113v-.16016Z" fill="#383c45"/><path d="M58.84521,37.1543l-.1997.59033-.19971.59033a2.57082,2.57082,0,0,1-1.25806-.46545,2.05586,2.05586,0,0,1-.70288-1.15467A3.4866,3.4866,0,0,1,55.11462,37.945a3.99844,3.99844,0,0,1-1.78991.39,3.38445,3.38445,0,0,1-2.441-.88538,3.13338,3.13338,0,0,1-.88025-2.29528,3.02072,3.02072,0,0,1,1.20044-2.56079,5.59983,5.59983,0,0,1,3.36108-.88062h1.71973v-.83984a2.145,2.145,0,0,0-.56006-1.66529,2.43337,2.43337,0,0,0-1.69971-.49487,6.59611,6.59611,0,0,0-1.31567.14758,11.76244,11.76244,0,0,0-1.52515.4325l-.21-.62012-.21-.62012a11.63531,11.63531,0,0,1,1.81763-.54052,8.643,8.643,0,0,1,1.74292-.18018,3.76609,3.76609,0,0,1,2.75781.91272,3.45018,3.45018,0,0,1,.88281,2.54822v4.88086a1.81635,1.81635,0,0,0,.2301,1.03284A1.221,1.221,0,0,0,58.84521,37.1543ZM56.28467,35.334v-2.5h-1.5a3.75222,3.75222,0,0,0-2.23548.55762,1.95927,1.95927,0,0,0-.7655,1.68262,2.04871,2.04871,0,0,0,.48767,1.47034,1.90734,1.90734,0,0,0,1.43323.51013,2.60618,2.60618,0,0,0,1.49255-.43262A3.4236,3.4236,0,0,0,56.28467,35.334Z" fill="#383c45"/><path d="M67.28467,27.45215l-.16016.82031-.16015.82031a3.46234,3.46234,0,0,0-.42994-.09008,3.52258,3.52258,0,0,0-.49-.03,2.00239,2.00239,0,0,0-1.62.73755,5.34441,5.34441,0,0,0-.96008,2.28295v6.10157H61.78369V27.57227h1.44043l.08008,1.10058.08008,1.10059a4.091,4.091,0,0,1,1.14489-1.82862,2.57126,2.57126,0,0,1,1.71546-.61279,4.72291,4.72291,0,0,1,.535.03A3.93618,3.93618,0,0,1,67.28467,27.45215Z" fill="#383c45"/><path d="M77.28467,30.55273v7.542H75.605V30.793a2.47177,2.47177,0,0,0-.45532-1.67786,1.59471,1.59471,0,0,0-1.26538-.46277,2.59852,2.59852,0,0,0-1.59766.53516A5.205,5.205,0,0,0,71.064,30.59277v7.502H69.3833V27.57227h1.44043l.06982.80029.06983.80029a4.45178,4.45178,0,0,1,1.41052-1.33313,3.72023,3.72023,0,0,1,1.89026-.50769,2.92284,2.92284,0,0,1,2.23792.86035A3.38851,3.38851,0,0,1,77.28467,30.55273Z" fill="#383c45"/><path d="M94.22412,30.55273v7.542H92.54443V30.793a2.42693,2.42693,0,0,0-.47277-1.67786,1.62348,1.62348,0,0,0-1.26746-.46277,2.58291,2.58291,0,0,0-1.57324.53272,5.24226,5.24226,0,0,0-1.22754,1.38818v7.52149H86.32275V23.35156l.84034-.1001.84033-.10009v5.9414A4.5899,4.5899,0,0,1,89.386,27.8147a3.57743,3.57743,0,0,1,1.81762-.48267,2.91954,2.91954,0,0,1,2.23059.86768A3.38131,3.38131,0,0,1,94.22412,30.55273Z" fill="#383c45"/><path d="M106.44482,32.81348a6.23063,6.23063,0,0,1-1.21777,3.99853,4.6337,4.6337,0,0,1-6.83655.035,6.17617,6.17617,0,0,1-1.20739-3.99353A6.2313,6.2313,0,0,1,98.40076,28.855a4.6497,4.6497,0,0,1,6.84387-.04236A6.18617,6.18617,0,0,1,106.44482,32.81348Zm-7.46191.04a5.42713,5.42713,0,0,0,.72754,3.10315,2.66711,2.66711,0,0,0,4.19617-.005,5.4749,5.4749,0,0,0,.73742-3.13818,5.42711,5.42711,0,0,0-.72754-3.10315,2.65919,2.65919,0,0,0-4.18847.005A5.44986,5.44986,0,0,0,98.98291,32.85352Z" fill="#383c45"/><path d="M119.02393,38.09473h-2.30079l-.97021-4.501-.97022-4.501-1,4.501-1,4.501h-2.24023L109.292,32.8335l-1.25049-5.26123h1.7002l.99023,4.67089.99024,4.6709,1.08056-4.6709,1.08057-4.67089h1.87988l1.04053,4.67089,1.04053,4.6709,1-4.6709,1-4.67089h1.60058l-1.21044,5.26123Z" fill="#383c45"/><path d="M137.00342,31.57324H131.023v6.52149h-1.7207V24.332h1.7207v5.80078h5.98047V24.332h1.74121v13.7627h-1.74121V31.57324Z" fill="#383c45"/><path d="M150.00342,25.73242h-5.4209v4.64063h4.70019v1.40039h-4.70019v4.9209h5.76074v1.40039h-7.48144V24.332h7.34179l-.10009.7002Z" fill="#383c45"/><path d="M157.46338,32.17383h-2.28027v5.9209H153.4624V24.332h3.541a6.39762,6.39762,0,0,1,3.85571.97766,3.38333,3.38333,0,0,1,1.30542,2.88269,3.53047,3.53047,0,0,1-.7655,2.35816,4.47745,4.47745,0,0,1-2.23548,1.32251l1.86036,3.11084,1.86035,3.11084h-2.06055l-1.68018-2.96045Zm-.26074-1.34082a3.661,3.661,0,0,0,2.30322-.60767,2.42506,2.42506,0,0,0,.81787-2.033,2.20174,2.20174,0,0,0-.7926-1.90259,4.241,4.241,0,0,0-2.54822-.59741h-1.7998V30.833h2.01953Z" fill="#383c45"/><path d="M172.62354,25.73242h-5.4209v4.64063h4.70019v1.40039h-4.70019v4.9209h5.76074v1.40039h-7.48145V24.332h7.3418l-.1001.7002Z" fill="#383c45"/><path d="M190.94385,38.09473h-2.32031l-2.90088-5.93116-2.90088-5.93115c.05029.54981.11035,1.22.15783,2.07019s.0824,1.8805.0824,3.15051v6.64161h-1.62012V24.332h2.26075l2.92041,5.94092,2.92041,5.94092c-.02-.18994-.075-.81006-.12488-1.59522s-.09485-1.73535-.09485-2.58545V24.332h1.62012v13.7627Z" fill="#383c45"/><path d="M202.80322,37.1543l-.1997.59033-.19971.59033a2.57078,2.57078,0,0,1-1.25806-.46545,2.05586,2.05586,0,0,1-.70288-1.15467,3.48667,3.48667,0,0,1-1.37024,1.23011,3.99845,3.99845,0,0,1-1.78992.39,3.38448,3.38448,0,0,1-2.441-.88538,3.13337,3.13337,0,0,1-.88024-2.29528,3.02072,3.02072,0,0,1,1.20044-2.56079,5.59983,5.59983,0,0,1,3.36108-.88062h1.71973v-.83984a2.145,2.145,0,0,0-.56006-1.66529,2.43337,2.43337,0,0,0-1.69971-.49487,6.596,6.596,0,0,0-1.31567.14758,11.76244,11.76244,0,0,0-1.52515.4325l-.21-.62012-.21-.62012a11.63552,11.63552,0,0,1,1.81762-.54052,8.64319,8.64319,0,0,1,1.74292-.18018,3.76612,3.76612,0,0,1,2.75782.91272,3.45022,3.45022,0,0,1,.88281,2.54822v4.88086a1.81635,1.81635,0,0,0,.2301,1.03284A1.221,1.221,0,0,0,202.80322,37.1543ZM200.24268,35.334v-2.5h-1.5a3.75222,3.75222,0,0,0-2.23548.55762,1.95925,1.95925,0,0,0-.7655,1.68262,2.04871,2.04871,0,0,0,.48767,1.47034,1.90734,1.90734,0,0,0,1.43323.51013,2.60618,2.60618,0,0,0,1.49255-.43262A3.42369,3.42369,0,0,0,200.24268,35.334Z" fill="#383c45"/><path d="M209.6626,38.09473h-2.04L205.792,32.8335l-1.83056-5.26123h1.84082l1.43017,4.51123,1.43018,4.51123,1.41015-4.51123,1.41016-4.51123h1.78125l-1.80078,5.26123Z" fill="#383c45"/><path d="M217.40186,23.77148a1.1445,1.1445,0,0,1-.3302.82764,1.21252,1.21252,0,0,1-.87.33252,1.18339,1.18339,0,0,1-.85291-.33252,1.20885,1.20885,0,0,1,0-1.65527,1.18339,1.18339,0,0,1,.85291-.33252,1.21252,1.21252,0,0,1,.87.33252A1.14449,1.14449,0,0,1,217.40186,23.77148ZM217.062,38.09473h-1.68066V27.57227H217.062V38.09473Z" fill="#383c45"/><path d="M229.24365,27.99219a6.62874,6.62874,0,0,1-1.37768.25061c-.50269.045-1.053.05993-1.66333.0697a3.16906,3.16906,0,0,1,1.37817,1.073,2.80049,2.80049,0,0,1,.46265,1.62817,3.36836,3.36836,0,0,1-1.0503,2.54236,4.192,4.192,0,0,1-2.91064.99768,4.78507,4.78507,0,0,1-.69263-.04736,3.72164,3.72164,0,0,1-.64721-.15283,1.33249,1.33249,0,0,0-.42518.45275,1.194,1.194,0,0,0-.1549.58826.74377.74377,0,0,0,.29968.63721,1.92189,1.92189,0,0,0,1.13977.26221h1.68066a3.9927,3.9927,0,0,1,2.57325.81543,2.60065,2.60065,0,0,1,.96777,2.04589,2.64849,2.64849,0,0,1-1.21265,2.33777,6.59349,6.59349,0,0,1-3.62817.82239,5.9135,5.9135,0,0,1-3.50854-.77527,2.71208,2.71208,0,0,1-.97291-2.36536H221.022a1.49434,1.49434,0,0,0,.595,1.38294,4.41729,4.41729,0,0,0,2.366.43738,4.94912,4.94912,0,0,0,2.44043-.44751,1.36466,1.36466,0,0,0,.7002-1.27222,1.34256,1.34256,0,0,0-.58021-1.17065,2.815,2.815,0,0,0-1.60046-.3899h-1.66016a3.14839,3.14839,0,0,1-2.03063-.59008,1.732,1.732,0,0,1-.65-1.37085,1.89876,1.89876,0,0,1,.29224-1.00269,2.70448,2.70448,0,0,1,.84741-.83716,3.04135,3.04135,0,0,1-1.75977-2.94043,3.46328,3.46328,0,0,1,1.13-2.62353,4.22052,4.22052,0,0,1,2.871-1.01807,12.03893,12.03893,0,0,0,2.93518-.21472,8.738,8.738,0,0,0,1.82556-.66516l.25.77Zm-7.542,2.98144a2.57763,2.57763,0,0,0,.60547,1.78479,2.5557,2.5557,0,0,0,3.42822.03,2.60175,2.60175,0,0,0,.5874-1.81482,2.52072,2.52072,0,0,0-.58508-1.79565,2.316,2.316,0,0,0-1.75476-.62525,2.18549,2.18549,0,0,0-1.70349.68531A2.56442,2.56442,0,0,0,221.70166,30.97363Z" fill="#383c45"/><path d="M239.103,37.1543l-.19971.59033-.19971.59033a2.57074,2.57074,0,0,1-1.258-.46545,2.05575,2.05575,0,0,1-.70288-1.15467,3.48674,3.48674,0,0,1-1.37024,1.23011,3.99851,3.99851,0,0,1-1.78992.39,3.38445,3.38445,0,0,1-2.441-.88538,3.13338,3.13338,0,0,1-.88025-2.29528,3.02074,3.02074,0,0,1,1.20044-2.56079,5.59983,5.59983,0,0,1,3.36108-.88062h1.71973v-.83984a2.145,2.145,0,0,0-.56006-1.66529,2.43337,2.43337,0,0,0-1.69971-.49487,6.59611,6.59611,0,0,0-1.31567.14758,11.76244,11.76244,0,0,0-1.52515.4325l-.21-.62012-.21-.62012a11.63563,11.63563,0,0,1,1.81763-.54052,8.64312,8.64312,0,0,1,1.74292-.18018,3.76608,3.76608,0,0,1,2.75781.91272,3.45018,3.45018,0,0,1,.88281,2.54822v4.88086a1.81626,1.81626,0,0,0,.23011,1.03284A1.221,1.221,0,0,0,239.103,37.1543ZM236.54248,35.334v-2.5h-1.5a3.75218,3.75218,0,0,0-2.23547.55762,1.95925,1.95925,0,0,0-.76551,1.68262,2.04871,2.04871,0,0,0,.48767,1.47034,1.90736,1.90736,0,0,0,1.43323.51013,2.60621,2.60621,0,0,0,1.49256-.43262A3.42358,3.42358,0,0,0,236.54248,35.334Z" fill="#383c45"/><path d="M247.28271,37.63477a4.03131,4.03131,0,0,1-1.08544.52258,4.19935,4.19935,0,0,1-1.23487.17761,2.73328,2.73328,0,0,1-2.04321-.75024,3.05042,3.05042,0,0,1-.738-2.19019V28.87305h-1.82031V27.57227h1.82031V25.15234l.84033-.09033.84034-.09033v2.60059h2.541l-.09033.65039-.09033.65039h-2.36035v6.4414a1.946,1.946,0,0,0,.30749,1.22242,1.2043,1.2043,0,0,0,1.01282.3977,2.43281,2.43281,0,0,0,.72266-.10742,3.53211,3.53211,0,0,0,.7373-.333l.32031.57031Z" fill="#383c45"/><path d="M251.20166,23.77148a1.1445,1.1445,0,0,1-.3302.82764,1.21249,1.21249,0,0,1-.87.33252,1.18337,1.18337,0,0,1-.8529-.33252,1.20882,1.20882,0,0,1,0-1.65527,1.18337,1.18337,0,0,1,.8529-.33252,1.21249,1.21249,0,0,1,.87.33252A1.14449,1.14449,0,0,1,251.20166,23.77148Zm-.33984,14.32325h-1.68067V27.57227h1.68067V38.09473Z" fill="#383c45"/><path d="M263.20264,32.81348a6.23063,6.23063,0,0,1-1.21778,3.99853,4.63369,4.63369,0,0,1-6.83654.035,6.17612,6.17612,0,0,1-1.2074-3.99353,6.23136,6.23136,0,0,1,1.21765-3.99854,4.6497,4.6497,0,0,1,6.84387-.04236A6.18617,6.18617,0,0,1,263.20264,32.81348Zm-7.46192.04a5.42713,5.42713,0,0,0,.72754,3.10315,2.66711,2.66711,0,0,0,4.19617-.005,5.47489,5.47489,0,0,0,.73743-3.13818,5.42711,5.42711,0,0,0-.72754-3.10315,2.6592,2.6592,0,0,0-4.18848.005A5.44986,5.44986,0,0,0,255.74072,32.85352Z" fill="#383c45"/><path d="M274.18213,30.55273v7.542h-1.67969V30.793a2.47171,2.47171,0,0,0-.45532-1.67786,1.59471,1.59471,0,0,0-1.26538-.46277,2.59852,2.59852,0,0,0-1.59766.53516,5.20484,5.20484,0,0,0-1.22265,1.40527v7.502h-1.68067V27.57227h1.44043l.06983.80029.06982.80029a4.45178,4.45178,0,0,1,1.41052-1.33313,3.72026,3.72026,0,0,1,1.89026-.50769,2.92284,2.92284,0,0,1,2.23792.86035A3.38851,3.38851,0,0,1,274.18213,30.55273Z" fill="#383c45"/><path d="M294.002,31.2334a8.046,8.046,0,0,1-1.59008,5.25366,5.65557,5.65557,0,0,1-8.33375.03247,7.989,7.989,0,0,1-1.59765-5.2666,8.13593,8.13593,0,0,1,1.605-5.28345,5.59337,5.59337,0,0,1,8.31909-.04748A8.10341,8.10341,0,0,1,294.002,31.2334Zm-9.68164.01953a7.099,7.099,0,0,0,1.09009,4.32117,3.72491,3.72491,0,0,0,5.69189-.00244,7.23228,7.23228,0,0,0,1.05982-4.33826,7.346,7.346,0,0,0-1.05249-4.35828,3.70826,3.70826,0,0,0-5.71387.00244A7.31892,7.31892,0,0,0,284.32031,31.25293Z" fill="#383c45"/><path d="M304.96094,30.55273v7.542h-1.67969V30.793a2.47177,2.47177,0,0,0-.45532-1.67786,1.59471,1.59471,0,0,0-1.26538-.46277,2.59852,2.59852,0,0,0-1.59766.53516,5.205,5.205,0,0,0-1.22266,1.40527v7.502h-1.67968V27.57227H298.5l.07031.80029.07031.80029a4.44441,4.44441,0,0,1,1.41016-1.33313,3.72192,3.72192,0,0,1,1.89063-.50769,2.92142,2.92142,0,0,1,2.23706.86035A3.389,3.389,0,0,1,304.96094,30.55273Z" fill="#383c45"/><path d="M323.7832,31.13281c0,2.8208-.87011,4.56128-2.10791,5.59656a6.65181,6.65181,0,0,1-4.314,1.36536h-3.20117V24.332H317.002a7.50414,7.50414,0,0,1,4.68042,1.26245C322.94775,26.582,323.7832,28.28223,323.7832,31.13281Zm-7.90234-5.40039V36.71484H317.502a4.16011,4.16011,0,0,0,3.03467-1.0581c.83008-.81787,1.38526-2.21338,1.38526-4.52393,0-2.37011-.58008-3.72021-1.44019-4.47778a4.56027,4.56027,0,0,0-3.12036-.92261h-1.48047Z" fill="#383c45"/><path d="M334.66211,33.41406h-6.78125a4.438,4.438,0,0,0,.93726,2.72254,2.57714,2.57714,0,0,0,2.00219.8175,4.23451,4.23451,0,0,0,1.43286-.22986,5.54123,5.54123,0,0,0,1.32886-.70959l.37012.5.37012.5a6.11147,6.11147,0,0,1-1.65381.96777,5.46477,5.46477,0,0,1-1.96729.35254,4.24907,4.24907,0,0,1-3.38843-1.44788,6.02041,6.02041,0,0,1-1.21313-3.95349,6.67668,6.67668,0,0,1,1.15527-4.03857,3.82893,3.82893,0,0,1,3.165-1.563,3.89486,3.89486,0,0,1,3.19824,1.38782,5.94227,5.94227,0,0,1,1.083,3.77331c0,.18018-.00488.35523-.01221.51282S334.67188,33.30371,334.66211,33.41406ZM333.041,32.01367a4.08478,4.08478,0,0,0-.63746-2.46582,2.28158,2.28158,0,0,0-1.94262-.875,2.15271,2.15271,0,0,0-1.78589.82764,4.73449,4.73449,0,0,0-.79419,2.67334H333.041v-.16016Z" fill="#383c45"/><path d="M350.98242,30.55273v7.542h-1.67969V30.793a2.55663,2.55663,0,0,0-.45068-1.67786,1.37763,1.37763,0,0,0-1.10986-.46277,2.16571,2.16571,0,0,0-1.44751.53516,6.04956,6.04956,0,0,0-1.13257,1.40527v7.502h-1.68164V30.793a2.55837,2.55837,0,0,0-.45-1.67786,1.37753,1.37753,0,0,0-1.1106-.46277,2.18941,2.18941,0,0,0-1.45483.53516,5.73718,5.73718,0,0,0-1.12525,1.40527v7.502h-1.67968V27.57227h1.43945l.07031.80029.07031.80029a4.53658,4.53658,0,0,1,1.31031-1.33313,3.27262,3.27262,0,0,1,1.7893-.50769,2.628,2.628,0,0,1,2.64063,1.94043,4.76614,4.76614,0,0,1,1.34155-1.40527,3.25141,3.25141,0,0,1,1.82056-.53516,2.67044,2.67044,0,0,1,2.06445.86768A3.47279,3.47279,0,0,1,350.98242,30.55273Z" fill="#383c45"/><path d="M362.56055,37.1543l-.19922.59033-.19922.59033a2.57175,2.57175,0,0,1-1.25879-.46545,2.05242,2.05242,0,0,1-.70215-1.15467,3.48683,3.48683,0,0,1-1.3706,1.23011,3.99875,3.99875,0,0,1-1.78955.39,3.386,3.386,0,0,1-2.4419-.88538,3.133,3.133,0,0,1-.88037-2.29528,3.02046,3.02046,0,0,1,1.20093-2.56079,5.602,5.602,0,0,1,3.36157-.88062H360v-.83984a2.145,2.145,0,0,0-.56006-1.66529,2.43337,2.43337,0,0,0-1.69971-.49487,6.58954,6.58954,0,0,0-1.31518.14758,11.7678,11.7678,0,0,0-1.52466.4325l-.21-.62012-.21-.62012a11.63531,11.63531,0,0,1,1.81763-.54052A8.643,8.643,0,0,1,358.041,27.332a3.76609,3.76609,0,0,1,2.75781.91272,3.45022,3.45022,0,0,1,.88281,2.54822v4.88086a1.81745,1.81745,0,0,0,.23,1.03284A1.22012,1.22012,0,0,0,362.56055,37.1543ZM360,35.334v-2.5h-1.5a3.75006,3.75006,0,0,0-2.23462.55762A1.95947,1.95947,0,0,0,355.5,35.07422a2.0492,2.0492,0,0,0,.48755,1.47034,1.90582,1.90582,0,0,0,1.43237.51013,2.606,2.606,0,0,0,1.49292-.43262A3.424,3.424,0,0,0,360,35.334Z" fill="#383c45"/><path d="M373.40039,30.55273v7.542H371.7207V30.793a2.47171,2.47171,0,0,0-.45532-1.67786A1.59471,1.59471,0,0,0,370,28.65234a2.59852,2.59852,0,0,0-1.59766.53516,5.20484,5.20484,0,0,0-1.22265,1.40527v7.502H365.5V27.57227h1.43945l.07032.80029.07031.80029a4.44427,4.44427,0,0,1,1.41015-1.33313,3.72192,3.72192,0,0,1,1.89063-.50769,2.9214,2.9214,0,0,1,2.23706.86035A3.389,3.389,0,0,1,373.40039,30.55273Z" fill="#383c45"/><path d="M385.02148,23.332v14.7627h-1.46093l-.08985-.74024-.08984-.74023a3.76434,3.76434,0,0,1-1.27539,1.25036,3.50446,3.50446,0,0,1-1.78516.47034,3.432,3.432,0,0,1-2.93335-1.493,6.87985,6.87985,0,0,1-1.02758-3.9679,6.80932,6.80932,0,0,1,1.093-3.97876,3.711,3.711,0,0,1,4.68286-1.173,4.48159,4.48159,0,0,1,1.20655.93v-5.5205l.83984.10009ZM383.3418,35.334V30.09277a3.89291,3.89291,0,0,0-1.07813-1.03259,2.6749,2.6749,0,0,0-1.42383-.38733,2.24046,2.24046,0,0,0-1.95507,1.04,5.67747,5.67747,0,0,0-.72461,3.14063,5.9784,5.9784,0,0,0,.65747,3.1206,2.05308,2.05308,0,0,0,1.84253,1.02,2.70006,2.70006,0,0,0,1.53564-.43237A4.16675,4.16675,0,0,0,383.3418,35.334Z" fill="#383c45"/><path d="M401.18164,28.45312l-.41016.52979-.41015.52979a4.02491,4.02491,0,0,0-1.06592-.585,3.5995,3.5995,0,0,0-1.21533-.19531,2.39682,2.39682,0,0,0-2.05542,1.02295,5.40055,5.40055,0,0,0-.76489,3.13818,5.03628,5.03628,0,0,0,.76489,3.05079,2.43146,2.43146,0,0,0,2.05542.95019,3.36827,3.36827,0,0,0,1.20556-.20764,5.06489,5.06489,0,0,0,1.11475-.61267l.39063.55029.39062.55029a4.90925,4.90925,0,0,1-1.46826.865,4.85185,4.85185,0,0,1-1.69385.29517,4.20079,4.20079,0,0,1-3.33057-1.4353,6.04458,6.04458,0,0,1-1.23-3.9856,6.37554,6.37554,0,0,1,1.22266-4.05151,4.133,4.133,0,0,1,3.33789-1.53052,5.0348,5.0348,0,0,1,1.67847.26026A4.72135,4.72135,0,0,1,401.18164,28.45312Z" fill="#383c45"/><path d="M411.48047,37.1543l-.2002.59033-.20019.59033a2.56985,2.56985,0,0,1-1.25733-.46545,2.05925,2.05925,0,0,1-.70361-1.15467,3.48662,3.48662,0,0,1-1.36987,1.23011,3.99822,3.99822,0,0,1-1.79029.39,3.38293,3.38293,0,0,1-2.44018-.88538,3.13378,3.13378,0,0,1-.88013-2.29528,3.021,3.021,0,0,1,1.2-2.56079,5.59774,5.59774,0,0,1,3.3606-.88062h1.7207v-.83984a2.145,2.145,0,0,0-.56006-1.66529,2.43336,2.43336,0,0,0-1.6997-.49487,6.60277,6.60277,0,0,0-1.31617.14758,11.75743,11.75743,0,0,0-1.52563.4325l-.21-.62012-.21-.62012a11.63552,11.63552,0,0,1,1.81762-.54052A8.64319,8.64319,0,0,1,406.959,27.332a3.76612,3.76612,0,0,1,2.75782.91272,3.45022,3.45022,0,0,1,.88281,2.54822v4.88086a1.81525,1.81525,0,0,0,.23022,1.03284A1.22191,1.22191,0,0,0,411.48047,37.1543ZM408.91992,35.334v-2.5h-1.5a3.75434,3.75434,0,0,0-2.23633.55762,1.959,1.959,0,0,0-.76562,1.68262,2.04821,2.04821,0,0,0,.48779,1.47034,1.90886,1.90886,0,0,0,1.43408.51013,2.60637,2.60637,0,0,0,1.49219-.43262A3.42312,3.42312,0,0,0,408.91992,35.334Z" fill="#383c45"/><path d="M422.32031,30.55273v7.542h-1.67969V30.793a2.47171,2.47171,0,0,0-.45532-1.67786,1.5947,1.5947,0,0,0-1.26538-.46277,2.59849,2.59849,0,0,0-1.59765.53516,5.205,5.205,0,0,0-1.22266,1.40527v7.502H414.418V27.57227h1.44141l.06933.80029.06934.80029a4.45921,4.45921,0,0,1,1.41089-1.33313,3.71852,3.71852,0,0,1,1.88989-.50769,2.92426,2.92426,0,0,1,2.23877.86035A3.388,3.388,0,0,1,422.32031,30.55273Z" fill="#383c45"/><path d="M439.959,32.81348a6.7563,6.7563,0,0,1-1.09692,4.00622,3.58888,3.58888,0,0,1-3.00268,1.51526,3.4441,3.4441,0,0,1-1.61817-.39026,3.932,3.932,0,0,1-1.24316-1.05017l-.08008.6001-.08008.6001h-1.48047V23.332l.84082-.1001.84082-.10009v5.78125a3.94344,3.94344,0,0,1,1.29151-1.15821,3.5684,3.5684,0,0,1,1.728-.42285,3.37091,3.37091,0,0,1,2.843,1.42786A6.86861,6.86861,0,0,1,439.959,32.81348Zm-1.82031,0a5.82785,5.82785,0,0,0-.68506-3.203,2.08316,2.08316,0,0,0-1.854-.93762,2.47579,2.47579,0,0,0-1.51318.51,4.55546,4.55546,0,0,0-1.04737,1.17066v5.18066a3.63676,3.63676,0,0,0,1.05249,1.05261,2.5354,2.5354,0,0,0,1.36743.40735,2.23612,2.23612,0,0,0,1.94776-.995A5.64707,5.64707,0,0,0,438.13867,32.81348Z" fill="#383c45"/><path d="M450.85938,33.41406h-6.78126a4.43665,4.43665,0,0,0,.9375,2.72254,2.57978,2.57978,0,0,0,2.00391.8175,4.23216,4.23216,0,0,0,1.43262-.22986,5.51857,5.51857,0,0,0,1.32715-.70959l.37011.5.37012.5a6.08872,6.08872,0,0,1-1.65234.96777,5.46894,5.46894,0,0,1-1.96875.35254,4.24629,4.24629,0,0,1-3.38745-1.44788,6.02283,6.02283,0,0,1-1.21216-3.95349,6.67816,6.67816,0,0,1,1.15454-4.03857,3.82865,3.82865,0,0,1,3.16577-1.563,3.89486,3.89486,0,0,1,3.19824,1.38782,5.94227,5.94227,0,0,1,1.083,3.77331c0,.18018-.00537.35523-.01318.51282S450.86914,33.30371,450.85938,33.41406Zm-1.61915-1.40039a4.08123,4.08123,0,0,0-.63842-2.46582,2.28409,2.28409,0,0,0-1.94361-.875,2.15119,2.15119,0,0,0-1.78442.82764,4.74145,4.74145,0,0,0-.79566,2.67334h5.16211v-.16016Z" fill="#383c45"/><path d="M461.75977,30.55273v7.542h-1.67969V30.793a2.47177,2.47177,0,0,0-.45532-1.67786,1.59472,1.59472,0,0,0-1.26538-.46277,2.59852,2.59852,0,0,0-1.59766.53516,5.205,5.205,0,0,0-1.22266,1.40527v7.502h-1.68164V27.57227h1.44141l.06933.80029.06934.80029a4.45932,4.45932,0,0,1,1.41089-1.33313,3.71854,3.71854,0,0,1,1.88989-.50769,2.92425,2.92425,0,0,1,2.23877.86035A3.388,3.388,0,0,1,461.75977,30.55273Z" fill="#383c45"/><path d="M473.2793,33.41406h-6.78125a4.43653,4.43653,0,0,0,.9375,2.72254,2.57974,2.57974,0,0,0,2.0039.8175,4.23212,4.23212,0,0,0,1.43262-.22986,5.51857,5.51857,0,0,0,1.32715-.70959l.37012.5.37011.5a6.08857,6.08857,0,0,1-1.65234.96777,5.46894,5.46894,0,0,1-1.96875.35254,4.24629,4.24629,0,0,1-3.38745-1.44788,6.02283,6.02283,0,0,1-1.21216-3.95349,6.67816,6.67816,0,0,1,1.15454-4.03857,3.82865,3.82865,0,0,1,3.16577-1.563,3.89486,3.89486,0,0,1,3.19824,1.38782,5.94227,5.94227,0,0,1,1.083,3.77331c0,.18018-.00537.35523-.01318.51282S473.28906,33.30371,473.2793,33.41406Zm-1.61914-1.40039a4.08123,4.08123,0,0,0-.63843-2.46582,2.28409,2.28409,0,0,0-1.94361-.875,2.15119,2.15119,0,0,0-1.78442.82764,4.74138,4.74138,0,0,0-.79565,2.67334h5.16211v-.16016Z" fill="#383c45"/><path d="M482.75977,23.85156l-.30079.59033-.30078.59034a4.96777,4.96777,0,0,0-2.27929-.54,2.1153,2.1153,0,0,0-1.481.405,1.56989,1.56989,0,0,0-.3999,1.21508v1.46h5.88086V38.09473h-1.67969V28.87305h-4.20117v9.22168h-1.67969V28.87305h-1.68164V27.57227h1.68164v-1.46a2.80373,2.80373,0,0,1,.84253-2.15051,3.816,3.816,0,0,1,2.65747-.83,6.24534,6.24534,0,0,1,1.59009.1947A6.57922,6.57922,0,0,1,482.75977,23.85156Z" fill="#383c45"/><path d="M492.918,37.63477a4.02022,4.02022,0,0,1-1.08472.52258,4.20184,4.20184,0,0,1-1.23559.17761,2.73331,2.73331,0,0,1-2.04322-.75024,3.05041,3.05041,0,0,1-.738-2.19019V28.87305h-1.82032V27.57227h1.82032V25.15234l.84082-.09033.84082-.09033v2.60059h2.541l-.09082.65039-.09082.65039h-2.35937v6.4414a1.94685,1.94685,0,0,0,.30713,1.22242,1.20428,1.20428,0,0,0,1.01318.3977,2.42844,2.42844,0,0,0,.72217-.10742,3.53427,3.53427,0,0,0,.73681-.333l.32032.57031Z" fill="#383c45"/><path d="M504.23828,38.1543a6.65555,6.65555,0,0,1-1.59009,2.78589,5.29786,5.29786,0,0,1-3.15014,1.37524l-.10059-.66016-.10058-.66015a4.21244,4.21244,0,0,0,2.24072-.96973,4.8491,4.8491,0,0,0,1.10107-1.93066h-.58008l-1.78125-5.26123-1.78125-5.26123h1.80079l1.45019,4.65087,1.4502,4.65088,1.42089-4.65088,1.4209-4.65087h1.74024l-1.77051,5.291Z" fill="#383c45"/><path d="M518.37891,32.81348a6.23194,6.23194,0,0,1-1.21729,3.99853,4.6341,4.6341,0,0,1-6.83691.035,6.17546,6.17546,0,0,1-1.20752-3.99353,6.23071,6.23071,0,0,1,1.218-3.99854,4.64927,4.64927,0,0,1,6.8435-.04236A6.18617,6.18617,0,0,1,518.37891,32.81348Zm-7.46094.04a5.42713,5.42713,0,0,0,.72754,3.10315,2.66622,2.66622,0,0,0,4.19531-.005,5.47593,5.47593,0,0,0,.7373-3.13818,5.42719,5.42719,0,0,0-.72753-3.10315,2.6587,2.6587,0,0,0-4.188.005A5.452,5.452,0,0,0,510.918,32.85352Z" fill="#383c45"/><path d="M529.1582,38.09473h-1.43945l-.05957-.8501-.05957-.8501a4.14671,4.14671,0,0,1-1.37622,1.45032,3.67361,3.67361,0,0,1-1.94605.49011,2.822,2.822,0,0,1-2.15966-.83765,3.41955,3.41955,0,0,1-.77979-2.383v-7.542h1.67969v7.36132a2.39332,2.39332,0,0,0,.418,1.59314,1.614,1.614,0,0,0,1.30273.46741,2.59935,2.59935,0,0,0,1.573-.52759,4.57326,4.57326,0,0,0,1.16724-1.35229v-7.542h1.67968V38.09473Z" fill="#383c45"/></svg>