<svg id="bc477a2f-82cb-4687-9f54-1b150cc9ab36" data-name="Layer 1" xmlns="http://www.w3.org/2000/svg" viewBox="0 0 426 85"><title>img-text-video</title><path d="M37.79248,36.57422h5.68066l-.10009.76025-.1001.76026H36.07178V24.332h1.7207V36.57422Z" fill="#383c45"/><path d="M53.11377,33.41406H46.33252a4.43728,4.43728,0,0,0,.93738,2.72254,2.57845,2.57845,0,0,0,2.00305.8175,4.2334,4.2334,0,0,0,1.43274-.22986,5.53,5.53,0,0,0,1.328-.70959l.37012.5.37012.5a6.1,6.1,0,0,1-1.65308.96777,5.46684,5.46684,0,0,1-1.968.35254,4.24769,4.24769,0,0,1-3.38794-1.44788,6.02162,6.02162,0,0,1-1.21264-3.95349,6.67742,6.67742,0,0,1,1.1549-4.03857,3.8288,3.8288,0,0,1,3.16541-1.563,3.89481,3.89481,0,0,1,3.19861,1.38782,5.943,5.943,0,0,1,1.08264,3.77331c0,.18018-.00513.35523-.0127.51282S53.12354,33.30371,53.11377,33.41406Zm-1.62012-1.40039a4.083,4.083,0,0,0-.63794-2.46582,2.28283,2.28283,0,0,0-1.94311-.875,2.152,2.152,0,0,0-1.78516.82764,4.73789,4.73789,0,0,0-.79492,2.67334h5.16113v-.16016Z" fill="#383c45"/><path d="M63.91357,37.1543l-.1997.59033-.19971.59033a2.57082,2.57082,0,0,1-1.25806-.46545,2.05586,2.05586,0,0,1-.70288-1.15467A3.4866,3.4866,0,0,1,60.183,37.945a3.99844,3.99844,0,0,1-1.78991.39,3.38445,3.38445,0,0,1-2.441-.88538,3.13338,3.13338,0,0,1-.88025-2.29528,3.02072,3.02072,0,0,1,1.20044-2.56079,5.59983,5.59983,0,0,1,3.36108-.88062H61.353v-.83984a2.145,2.145,0,0,0-.56006-1.66529,2.43337,2.43337,0,0,0-1.69971-.49487,6.59611,6.59611,0,0,0-1.31567.14758,11.76244,11.76244,0,0,0-1.52515.4325l-.21-.62012-.21-.62012a11.63531,11.63531,0,0,1,1.81763-.54052,8.643,8.643,0,0,1,1.74292-.18018,3.76609,3.76609,0,0,1,2.75781.91272,3.45018,3.45018,0,0,1,.88281,2.54822v4.88086a1.81635,1.81635,0,0,0,.2301,1.03284A1.221,1.221,0,0,0,63.91357,37.1543ZM61.353,35.334v-2.5h-1.5a3.75222,3.75222,0,0,0-2.23548.55762,1.95925,1.95925,0,0,0-.7655,1.68262,2.04871,2.04871,0,0,0,.48767,1.47034,1.90734,1.90734,0,0,0,1.43323.51013,2.60618,2.60618,0,0,0,1.49255-.43262A3.4236,3.4236,0,0,0,61.353,35.334Z" fill="#383c45"/><path d="M72.353,27.45215l-.16016.82031-.16016.82031a3.46181,3.46181,0,0,0-.42993-.09008,3.52268,3.52268,0,0,0-.49-.03,2.00239,2.00239,0,0,0-1.62.73755,5.34453,5.34453,0,0,0-.96009,2.28295v6.10157H66.85205V27.57227h1.44043l.08008,1.10058.08008,1.10059a4.091,4.091,0,0,1,1.14489-1.82862A2.57126,2.57126,0,0,1,71.313,27.332a4.72291,4.72291,0,0,1,.535.03A3.93618,3.93618,0,0,1,72.353,27.45215Z" fill="#383c45"/><path d="M82.353,30.55273v7.542H80.67334V30.793a2.47177,2.47177,0,0,0-.45532-1.67786,1.59471,1.59471,0,0,0-1.26538-.46277,2.59852,2.59852,0,0,0-1.59766.53516,5.205,5.205,0,0,0-1.22266,1.40527v7.502H74.45166V27.57227h1.44043l.06982.80029.06983.80029a4.45178,4.45178,0,0,1,1.41052-1.33313,3.7202,3.7202,0,0,1,1.89026-.50769,2.92282,2.92282,0,0,1,2.23791.86035A3.38847,3.38847,0,0,1,82.353,30.55273Z" fill="#383c45"/><path d="M99.29248,30.55273v7.542H97.61279V30.793A2.42687,2.42687,0,0,0,97.14,29.11511a1.62344,1.62344,0,0,0-1.26745-.46277,2.58291,2.58291,0,0,0-1.57324.53272,5.24209,5.24209,0,0,0-1.22754,1.38818v7.52149H91.39111V23.35156l.84034-.1001.84033-.10009v5.9414a4.5899,4.5899,0,0,1,1.38257-1.27807A3.57743,3.57743,0,0,1,96.272,27.332a2.91954,2.91954,0,0,1,2.23059.86768A3.38131,3.38131,0,0,1,99.29248,30.55273Z" fill="#383c45"/><path d="M111.51318,32.81348a6.23069,6.23069,0,0,1-1.21777,3.99853,4.6337,4.6337,0,0,1-6.83655.035,6.17618,6.17618,0,0,1-1.2074-3.99353,6.2313,6.2313,0,0,1,1.21766-3.99854,4.6497,4.6497,0,0,1,6.84387-.04236A6.18623,6.18623,0,0,1,111.51318,32.81348Zm-7.46191.04a5.42713,5.42713,0,0,0,.72754,3.10315,2.66711,2.66711,0,0,0,4.19617-.005,5.4749,5.4749,0,0,0,.73742-3.13818,5.42711,5.42711,0,0,0-.72754-3.10315,2.65919,2.65919,0,0,0-4.18847.005A5.44986,5.44986,0,0,0,104.05127,32.85352Z" fill="#383c45"/><path d="M124.09229,38.09473H121.7915l-.97021-4.501-.97022-4.501-1,4.501-1,4.501h-2.24023l-1.25049-5.26123-1.25049-5.26123h1.7002l.99023,4.67089.99024,4.6709,1.08056-4.6709,1.08057-4.67089h1.87988l1.04053,4.67089,1.04053,4.6709,1-4.6709,1-4.67089h1.60058l-1.21045,5.26123Z" fill="#383c45"/><path d="M142.07178,31.57324h-5.98047v6.52149h-1.7207V24.332h1.7207v5.80078h5.98047V24.332H143.813v13.7627h-1.74121V31.57324Z" fill="#383c45"/><path d="M155.07178,25.73242h-5.4209v4.64063h4.70019v1.40039h-4.70019v4.9209h5.76074v1.40039h-7.48144V24.332H155.272l-.10009.7002Z" fill="#383c45"/><path d="M162.53174,32.17383h-2.28028v5.9209h-1.7207V24.332h3.541a6.39762,6.39762,0,0,1,3.85571.97766,3.38336,3.38336,0,0,1,1.30542,2.88269,3.53047,3.53047,0,0,1-.7655,2.35816,4.47745,4.47745,0,0,1-2.23548,1.32251l1.86036,3.11084,1.86035,3.11084h-2.06055l-1.68018-2.96045ZM162.271,30.833a3.661,3.661,0,0,0,2.30322-.60767,2.42506,2.42506,0,0,0,.81787-2.033,2.20174,2.20174,0,0,0-.7926-1.90259,4.241,4.241,0,0,0-2.54822-.59741h-1.79981V30.833H162.271Z" fill="#383c45"/><path d="M177.69189,25.73242H172.271v4.64063h4.70019v1.40039H172.271v4.9209h5.76074v1.40039h-7.48145V24.332h7.3418l-.1001.7002Z" fill="#383c45"/><path d="M196.01221,38.09473h-2.32032L190.791,32.16357l-2.90088-5.93115c.05029.54981.11035,1.22.15783,2.07019s.0824,1.8805.0824,3.15051v6.64161h-1.62012V24.332H188.771l2.92041,5.94092,2.92041,5.94092c-.02-.18994-.075-.81006-.12488-1.59522s-.09485-1.73535-.09485-2.58545V24.332h1.62012v13.7627Z" fill="#383c45"/><path d="M207.87158,37.1543l-.1997.59033-.19971.59033a2.57078,2.57078,0,0,1-1.25806-.46545,2.05581,2.05581,0,0,1-.70288-1.15467A3.48667,3.48667,0,0,1,204.141,37.945a3.99845,3.99845,0,0,1-1.78992.39,3.38447,3.38447,0,0,1-2.441-.88538,3.13337,3.13337,0,0,1-.88024-2.29528,3.02073,3.02073,0,0,1,1.20043-2.56079,5.59989,5.59989,0,0,1,3.36109-.88062H205.311v-.83984a2.145,2.145,0,0,0-.56006-1.66529,2.43337,2.43337,0,0,0-1.69971-.49487,6.596,6.596,0,0,0-1.31567.14758,11.76244,11.76244,0,0,0-1.52515.4325l-.21-.62012-.21-.62012a11.63552,11.63552,0,0,1,1.81762-.54052,8.64319,8.64319,0,0,1,1.74292-.18018,3.76612,3.76612,0,0,1,2.75782.91272,3.45022,3.45022,0,0,1,.88281,2.54822v4.88086a1.81635,1.81635,0,0,0,.2301,1.03284A1.221,1.221,0,0,0,207.87158,37.1543ZM205.311,35.334v-2.5h-1.5a3.7522,3.7522,0,0,0-2.23548.55762,1.95925,1.95925,0,0,0-.7655,1.68262,2.04871,2.04871,0,0,0,.48767,1.47034,1.90734,1.90734,0,0,0,1.43323.51013,2.60618,2.60618,0,0,0,1.49255-.43262A3.42369,3.42369,0,0,0,205.311,35.334Z" fill="#383c45"/><path d="M214.73047,38.09473h-2.03955l-1.83057-5.26123-1.83056-5.26123h1.84082l1.42993,4.51123,1.42993,4.51123,1.41016-4.51123,1.41015-4.51123H218.332l-1.80078,5.26123Z" fill="#383c45"/><path d="M222.4707,23.77148a1.14407,1.14407,0,0,1-.33032.82764,1.214,1.214,0,0,1-.87085.33252,1.18193,1.18193,0,0,1-.852-.33252,1.20914,1.20914,0,0,1,0-1.65527,1.18193,1.18193,0,0,1,.852-.33252,1.214,1.214,0,0,1,.87085.33252A1.14406,1.14406,0,0,1,222.4707,23.77148Zm-.33984,14.32325h-1.68164V27.57227h1.68164V38.09473Z" fill="#383c45"/><path d="M234.3125,27.99219a6.62872,6.62872,0,0,1-1.37769.25061c-.50268.045-1.053.05993-1.66333.0697a3.166,3.166,0,0,1,1.37769,1.073,2.8021,2.8021,0,0,1,.46216,1.62817A3.36839,3.36839,0,0,1,232.061,33.556a4.192,4.192,0,0,1-2.91065.99768,4.78517,4.78517,0,0,1-.69263-.04736,3.72164,3.72164,0,0,1-.64721-.15283,1.33728,1.33728,0,0,0-.42481.45275,1.19293,1.19293,0,0,0-.15527.58826.7438.7438,0,0,0,.3.63721,1.92187,1.92187,0,0,0,1.1394.26221h1.68164a3.99266,3.99266,0,0,1,2.57324.81543,2.60063,2.60063,0,0,1,.96778,2.04589,2.64838,2.64838,0,0,1-1.21314,2.33777,6.59593,6.59593,0,0,1-3.62866.82239,5.91127,5.91127,0,0,1-3.50806-.77527,2.71244,2.71244,0,0,1-.97241-2.36536h1.51953a1.49434,1.49434,0,0,0,.595,1.38294,4.41729,4.41729,0,0,0,2.366.43738,4.94912,4.94912,0,0,0,2.44043-.44751,1.36466,1.36466,0,0,0,.7002-1.27222,1.34276,1.34276,0,0,0-.58008-1.17065,2.8128,2.8128,0,0,0-1.59961-.3899h-1.66016a3.15032,3.15032,0,0,1-2.03149-.59008,1.73174,1.73174,0,0,1-.65015-1.37085,1.89716,1.89716,0,0,1,.29273-1.00269,2.70891,2.70891,0,0,1,.8479-.83716,3.03984,3.03984,0,0,1-1.75977-2.94043,3.4636,3.4636,0,0,1,1.12988-2.62353,4.219,4.219,0,0,1,2.87012-1.01807,12.04058,12.04058,0,0,0,2.9353-.21472,8.75337,8.75337,0,0,0,1.82642-.66516l.25.77Zm-7.543,2.98144a2.57667,2.57667,0,0,0,.606,1.78479,2.55571,2.55571,0,0,0,3.42822.03,2.60275,2.60275,0,0,0,.58692-1.81482,2.52121,2.52121,0,0,0-.58472-1.79565,2.316,2.316,0,0,0-1.75513-.62525,2.18557,2.18557,0,0,0-1.70312.68531A2.564,2.564,0,0,0,226.76953,30.97363Z" fill="#383c45"/><path d="M244.17188,37.1543l-.2002.59033-.2002.59033a2.56985,2.56985,0,0,1-1.25732-.46545,2.05914,2.05914,0,0,1-.70361-1.15467,3.48658,3.48658,0,0,1-1.36988,1.23011,3.9982,3.9982,0,0,1-1.79028.39,3.3829,3.3829,0,0,1-2.44018-.88538,3.13378,3.13378,0,0,1-.88013-2.29528,3.021,3.021,0,0,1,1.2-2.56079,5.59774,5.59774,0,0,1,3.3606-.88062h1.7207v-.83984a2.145,2.145,0,0,0-.56006-1.66529,2.43337,2.43337,0,0,0-1.69971-.49487,6.6026,6.6026,0,0,0-1.31616.14758,11.757,11.757,0,0,0-1.52563.4325l-.21-.62012-.21-.62012a11.63563,11.63563,0,0,1,1.81763-.54052,8.64312,8.64312,0,0,1,1.74292-.18018,3.76608,3.76608,0,0,1,2.75781.91272A3.45018,3.45018,0,0,1,243.291,30.793v4.88086a1.81517,1.81517,0,0,0,.23022,1.03284A1.22187,1.22187,0,0,0,244.17188,37.1543ZM241.61133,35.334v-2.5h-1.5a3.75434,3.75434,0,0,0-2.23633.55762,1.959,1.959,0,0,0-.76562,1.68262,2.04817,2.04817,0,0,0,.48779,1.47034,1.90884,1.90884,0,0,0,1.43408.51013,2.60639,2.60639,0,0,0,1.49219-.43262A3.4233,3.4233,0,0,0,241.61133,35.334Z" fill="#383c45"/><path d="M252.35156,37.63477a4.0427,4.0427,0,0,1-1.08618.52258,4.19673,4.19673,0,0,1-1.23413.17761,2.73327,2.73327,0,0,1-2.04321-.75024,3.05037,3.05037,0,0,1-.738-2.19019V28.87305h-1.82031V27.57227H247.25V25.15234l.83984-.09033.83985-.09033v2.60059h2.541l-.08984.65039-.08984.65039h-2.36133v6.4414a1.94507,1.94507,0,0,0,.30786,1.22242,1.2043,1.2043,0,0,0,1.01245.3977,2.43712,2.43712,0,0,0,.72314-.10742,3.52935,3.52935,0,0,0,.7378-.333l.32031.57031Z" fill="#383c45"/><path d="M256.26953,23.77148a1.1449,1.1449,0,0,1-.33008.82764,1.211,1.211,0,0,1-.86914.33252,1.18483,1.18483,0,0,1-.85376-.33252,1.2085,1.2085,0,0,1,0-1.65527,1.18483,1.18483,0,0,1,.85376-.33252,1.211,1.211,0,0,1,.86914.33252A1.14489,1.14489,0,0,1,256.26953,23.77148Zm-.33984,14.32325H254.25V27.57227h1.67969V38.09473Z" fill="#383c45"/><path d="M268.27148,32.81348a6.22937,6.22937,0,0,1-1.21826,3.99853,4.63328,4.63328,0,0,1-6.83618.035,6.17683,6.17683,0,0,1-1.20727-3.99353,6.232,6.232,0,0,1,1.21728-3.99854,4.65012,4.65012,0,0,1,6.84424-.04236A6.18617,6.18617,0,0,1,268.27148,32.81348Zm-7.46289.04a5.42713,5.42713,0,0,0,.72754,3.10315,2.668,2.668,0,0,0,4.197-.005,5.47379,5.47379,0,0,0,.73755-3.13818,5.42711,5.42711,0,0,0-.72754-3.10315,2.6597,2.6597,0,0,0-4.189.005A5.44768,5.44768,0,0,0,260.80859,32.85352Z" fill="#383c45"/><path d="M279.25,30.55273v7.542h-1.67969V30.793a2.47171,2.47171,0,0,0-.45532-1.67786,1.59471,1.59471,0,0,0-1.26538-.46277,2.59852,2.59852,0,0,0-1.59766.53516,5.20484,5.20484,0,0,0-1.22265,1.40527v7.502h-1.67969V27.57227h1.43945l.07032.80029.07031.80029a4.44427,4.44427,0,0,1,1.41015-1.33313,3.72192,3.72192,0,0,1,1.89063-.50769,2.9214,2.9214,0,0,1,2.23706.86035A3.389,3.389,0,0,1,279.25,30.55273Z" fill="#383c45"/><path d="M299.07031,31.2334a8.046,8.046,0,0,1-1.59009,5.25366,5.65556,5.65556,0,0,1-8.33374.03247,7.989,7.989,0,0,1-1.59765-5.2666,8.13593,8.13593,0,0,1,1.605-5.28345,5.59337,5.59337,0,0,1,8.31909-.04748A8.10341,8.10341,0,0,1,299.07031,31.2334Zm-9.68164.01953a7.099,7.099,0,0,0,1.09009,4.32117,3.72491,3.72491,0,0,0,5.69189-.00244,7.23228,7.23228,0,0,0,1.05982-4.33826,7.346,7.346,0,0,0-1.05249-4.35828,3.70826,3.70826,0,0,0-5.71387.00244A7.31892,7.31892,0,0,0,289.38867,31.25293Z" fill="#383c45"/><path d="M310.0293,30.55273v7.542h-1.67969V30.793a2.47177,2.47177,0,0,0-.45532-1.67786,1.59471,1.59471,0,0,0-1.26538-.46277,2.59852,2.59852,0,0,0-1.59766.53516,5.205,5.205,0,0,0-1.22266,1.40527v7.502h-1.67968V27.57227h1.43945l.07031.80029.07031.80029a4.4443,4.4443,0,0,1,1.41016-1.33313,3.72192,3.72192,0,0,1,1.89063-.50769,2.92142,2.92142,0,0,1,2.23706.86035A3.389,3.389,0,0,1,310.0293,30.55273Z" fill="#383c45"/><path d="M328.85156,31.13281c0,2.8208-.87011,4.56128-2.10791,5.59656a6.65181,6.65181,0,0,1-4.314,1.36536h-3.20117V24.332h2.84179a7.50414,7.50414,0,0,1,4.68042,1.26245C328.01611,26.582,328.85156,28.28223,328.85156,31.13281Zm-7.90234-5.40039V36.71484h1.62109a4.16011,4.16011,0,0,0,3.03467-1.0581c.83008-.81787,1.38525-2.21338,1.38525-4.52393,0-2.37011-.58007-3.72021-1.44018-4.47778a4.56028,4.56028,0,0,0-3.12036-.92261h-1.48047Z" fill="#383c45"/><path d="M339.73047,33.41406h-6.78125a4.43811,4.43811,0,0,0,.93725,2.72254,2.57718,2.57718,0,0,0,2.0022.8175,4.23451,4.23451,0,0,0,1.43286-.22986,5.54123,5.54123,0,0,0,1.32886-.70959l.37012.5.37012.5a6.11147,6.11147,0,0,1-1.65381.96777,5.46477,5.46477,0,0,1-1.96729.35254,4.24907,4.24907,0,0,1-3.38843-1.44788,6.02041,6.02041,0,0,1-1.21313-3.95349,6.67668,6.67668,0,0,1,1.15527-4.03857,3.82893,3.82893,0,0,1,3.165-1.563,3.89486,3.89486,0,0,1,3.19824,1.38782,5.94227,5.94227,0,0,1,1.083,3.77331c0,.18018-.00488.35523-.01221.51282S339.74023,33.30371,339.73047,33.41406Zm-1.62109-1.40039a4.08478,4.08478,0,0,0-.63746-2.46582,2.28158,2.28158,0,0,0-1.94262-.875,2.15271,2.15271,0,0,0-1.78589.82764,4.73441,4.73441,0,0,0-.79419,2.67334h5.16016v-.16016Z" fill="#383c45"/><path d="M356.05078,30.55273v7.542h-1.67969V30.793a2.55663,2.55663,0,0,0-.45068-1.67786,1.37763,1.37763,0,0,0-1.10986-.46277,2.16571,2.16571,0,0,0-1.44751.53516,6.04956,6.04956,0,0,0-1.13257,1.40527v7.502h-1.68164V30.793a2.55837,2.55837,0,0,0-.45-1.67786,1.37753,1.37753,0,0,0-1.1106-.46277,2.18941,2.18941,0,0,0-1.45483.53516,5.737,5.737,0,0,0-1.12525,1.40527v7.502h-1.67968V27.57227H344.168l.07031.80029.07031.80029a4.53658,4.53658,0,0,1,1.31031-1.33313,3.27262,3.27262,0,0,1,1.7893-.50769,2.628,2.628,0,0,1,2.64063,1.94043,4.76614,4.76614,0,0,1,1.34155-1.40527,3.25139,3.25139,0,0,1,1.82056-.53516,2.67044,2.67044,0,0,1,2.06445.86768A3.47279,3.47279,0,0,1,356.05078,30.55273Z" fill="#383c45"/><path d="M367.62891,37.1543l-.19922.59033-.19922.59033a2.57175,2.57175,0,0,1-1.25879-.46545,2.05242,2.05242,0,0,1-.70215-1.15467,3.48683,3.48683,0,0,1-1.3706,1.23011,3.99875,3.99875,0,0,1-1.78955.39,3.386,3.386,0,0,1-2.4419-.88538,3.133,3.133,0,0,1-.88037-2.29528,3.02046,3.02046,0,0,1,1.20093-2.56079,5.602,5.602,0,0,1,3.36157-.88062h1.71875v-.83984a2.145,2.145,0,0,0-.56006-1.66529,2.43337,2.43337,0,0,0-1.69971-.49487,6.58954,6.58954,0,0,0-1.31518.14758,11.76736,11.76736,0,0,0-1.52466.4325l-.21-.62012-.21-.62012a11.63531,11.63531,0,0,1,1.81763-.54052,8.643,8.643,0,0,1,1.74292-.18018,3.76609,3.76609,0,0,1,2.75781.91272A3.45022,3.45022,0,0,1,366.75,30.793v4.88086a1.81745,1.81745,0,0,0,.23,1.03284A1.22012,1.22012,0,0,0,367.62891,37.1543ZM365.06836,35.334v-2.5h-1.5a3.75006,3.75006,0,0,0-2.23462.55762,1.95947,1.95947,0,0,0-.76538,1.68262,2.0492,2.0492,0,0,0,.48755,1.47034,1.90582,1.90582,0,0,0,1.43237.51013,2.606,2.606,0,0,0,1.49292-.43262A3.42406,3.42406,0,0,0,365.06836,35.334Z" fill="#383c45"/><path d="M378.46875,30.55273v7.542h-1.67969V30.793a2.47171,2.47171,0,0,0-.45532-1.67786,1.59471,1.59471,0,0,0-1.26538-.46277,2.59852,2.59852,0,0,0-1.59766.53516,5.20484,5.20484,0,0,0-1.22265,1.40527v7.502h-1.67969V27.57227h1.43945l.07032.80029.07031.80029a4.44427,4.44427,0,0,1,1.41015-1.33313,3.72192,3.72192,0,0,1,1.89063-.50769,2.9214,2.9214,0,0,1,2.23706.86035A3.389,3.389,0,0,1,378.46875,30.55273Z" fill="#383c45"/><path d="M390.08984,23.332v14.7627h-1.46093l-.08985-.74024-.08984-.74023a3.76442,3.76442,0,0,1-1.27539,1.25036,3.50446,3.50446,0,0,1-1.78516.47034,3.432,3.432,0,0,1-2.93335-1.493,6.87978,6.87978,0,0,1-1.02759-3.9679,6.80932,6.80932,0,0,1,1.093-3.97876,3.711,3.711,0,0,1,4.68286-1.173,4.48159,4.48159,0,0,1,1.20655.93v-5.5205l.83984.10009ZM388.41016,35.334V30.09277a3.89291,3.89291,0,0,0-1.07813-1.03259,2.6749,2.6749,0,0,0-1.42383-.38733,2.24046,2.24046,0,0,0-1.95507,1.04,5.67747,5.67747,0,0,0-.72461,3.14063,5.9784,5.9784,0,0,0,.65747,3.1206,2.05308,2.05308,0,0,0,1.84253,1.02,2.70006,2.70006,0,0,0,1.53564-.43237A4.16675,4.16675,0,0,0,388.41016,35.334Z" fill="#383c45"/><path d="M152.51221,53.45312l-.41016.52979-.41016.52979a4.01344,4.01344,0,0,0-1.06555-.585,3.60215,3.60215,0,0,0-1.2157-.19531,2.3969,2.3969,0,0,0-2.055,1.023,5.39943,5.39943,0,0,0-.76526,3.13818,5.03525,5.03525,0,0,0,.76526,3.05079,2.43152,2.43152,0,0,0,2.055.95019,3.36946,3.36946,0,0,0,1.20569-.20764,5.07769,5.07769,0,0,0,1.1156-.61267l.39014.55029.39014.55029a4.91028,4.91028,0,0,1-1.46814.865,4.84859,4.84859,0,0,1-1.693.29517,4.20077,4.20077,0,0,1-3.33056-1.4353,6.04452,6.04452,0,0,1-1.23-3.9856,6.3756,6.3756,0,0,1,1.22265-4.05151,4.133,4.133,0,0,1,3.33789-1.53052,5.03086,5.03086,0,0,1,1.678.26026A4.722,4.722,0,0,1,152.51221,53.45312Z" fill="#383c45"/><path d="M162.812,62.1543l-.19971.59033-.1997.59033a2.57078,2.57078,0,0,1-1.25806-.46545,2.05581,2.05581,0,0,1-.70288-1.15467,3.48667,3.48667,0,0,1-1.37024,1.23011,3.99845,3.99845,0,0,1-1.78992.39,3.38447,3.38447,0,0,1-2.441-.88538,3.13338,3.13338,0,0,1-.88025-2.29528,3.02074,3.02074,0,0,1,1.20044-2.56079,5.59989,5.59989,0,0,1,3.36109-.88062h1.71972v-.83984a2.145,2.145,0,0,0-.56005-1.66529,2.43339,2.43339,0,0,0-1.69971-.49487,6.596,6.596,0,0,0-1.31567.14758,11.76244,11.76244,0,0,0-1.52515.4325l-.21-.62012-.21-.62012a11.63552,11.63552,0,0,1,1.81762-.54052,8.64319,8.64319,0,0,1,1.74292-.18018,3.76612,3.76612,0,0,1,2.75782.91272,3.45022,3.45022,0,0,1,.88281,2.54822v4.88086a1.81635,1.81635,0,0,0,.2301,1.03284A1.221,1.221,0,0,0,162.812,62.1543ZM160.25146,60.334v-2.5h-1.5a3.75218,3.75218,0,0,0-2.23547.55762,1.95925,1.95925,0,0,0-.7655,1.68262,2.04871,2.04871,0,0,0,.48767,1.47034,1.90734,1.90734,0,0,0,1.43323.51013,2.60618,2.60618,0,0,0,1.49255-.43262A3.42358,3.42358,0,0,0,160.25146,60.334Z" fill="#383c45"/><path d="M173.65186,55.55273v7.542h-1.67969V55.793a2.47177,2.47177,0,0,0-.45532-1.67786,1.59473,1.59473,0,0,0-1.26539-.46277,2.59851,2.59851,0,0,0-1.59765.53516,5.205,5.205,0,0,0-1.22266,1.40527v7.502h-1.68066V52.57227h1.44043l.06982.80029.06983.80029a4.45178,4.45178,0,0,1,1.41052-1.33313,3.7202,3.7202,0,0,1,1.89026-.50769,2.92282,2.92282,0,0,1,2.23791.86035A3.38847,3.38847,0,0,1,173.65186,55.55273Z" fill="#383c45"/><path d="M191.2915,57.81348a6.75462,6.75462,0,0,1-1.09741,4.00622,3.59008,3.59008,0,0,1-3.00317,1.51526,3.44356,3.44356,0,0,1-1.61768-.39026,3.92493,3.92493,0,0,1-1.24267-1.05017l-.08008.6001-.08008.6001h-1.48047V48.332l.84033-.1001.84034-.10009v5.78125a3.94975,3.94975,0,0,1,1.29235-1.15821,3.56928,3.56928,0,0,1,1.72815-.42285,3.371,3.371,0,0,1,2.84265,1.42786A6.86758,6.86758,0,0,1,191.2915,57.81348Zm-1.82031,0a5.82664,5.82664,0,0,0-.68518-3.203,2.0842,2.0842,0,0,0-1.85486-.93762,2.47608,2.47608,0,0,0-1.51282.51,4.55437,4.55437,0,0,0-1.04772,1.17066v5.18066a3.63664,3.63664,0,0,0,1.05249,1.05261,2.5354,2.5354,0,0,0,1.36743.40735,2.23723,2.23723,0,0,0,1.94824-.995A5.6446,5.6446,0,0,0,189.47119,57.81348Z" fill="#383c45"/><path d="M202.19189,58.41406h-6.78125a4.43741,4.43741,0,0,0,.93738,2.72254,2.57847,2.57847,0,0,0,2.00305.8175,4.23331,4.23331,0,0,0,1.43274-.22986,5.52983,5.52983,0,0,0,1.328-.70959l.37011.5.37012.5a6.09989,6.09989,0,0,1-1.65308.96777,5.46678,5.46678,0,0,1-1.968.35254,4.24768,4.24768,0,0,1-3.38794-1.44788,6.02162,6.02162,0,0,1-1.21265-3.95349,6.67735,6.67735,0,0,1,1.15491-4.03857,3.82877,3.82877,0,0,1,3.1654-1.563,3.89479,3.89479,0,0,1,3.19861,1.38782,5.943,5.943,0,0,1,1.08264,3.77331c0,.18018-.00512.35523-.01269.51282S202.20166,58.30371,202.19189,58.41406Zm-1.62011-1.40039a4.083,4.083,0,0,0-.63794-2.46582,2.28285,2.28285,0,0,0-1.94312-.875,2.15192,2.15192,0,0,0-1.78515.82764,4.738,4.738,0,0,0-.79493,2.67334h5.16114v-.16016Z" fill="#383c45"/><path d="M213.0918,55.55273v7.542h-1.68018V55.793a2.47177,2.47177,0,0,0-.45532-1.67786,1.59471,1.59471,0,0,0-1.26538-.46277,2.59852,2.59852,0,0,0-1.59766.53516,5.20484,5.20484,0,0,0-1.22265,1.40527v7.502h-1.68067V52.57227h1.44043l.06983.80029.06982.80029a4.45178,4.45178,0,0,1,1.41052-1.33313,3.72026,3.72026,0,0,1,1.89026-.50769,2.92358,2.92358,0,0,1,2.23816.86035A3.388,3.388,0,0,1,213.0918,55.55273Z" fill="#383c45"/><path d="M224.61133,58.41406h-6.78125a4.43811,4.43811,0,0,0,.93725,2.72254,2.57718,2.57718,0,0,0,2.0022.8175,4.23455,4.23455,0,0,0,1.43286-.22986,5.54123,5.54123,0,0,0,1.32886-.70959l.37012.5.37011.5a6.11127,6.11127,0,0,1-1.6538.96777,5.46477,5.46477,0,0,1-1.96729.35254,4.24906,4.24906,0,0,1-3.38843-1.44788,6.02041,6.02041,0,0,1-1.21313-3.95349A6.67661,6.67661,0,0,1,217.2041,53.895a3.82893,3.82893,0,0,1,3.165-1.563,3.89486,3.89486,0,0,1,3.19824,1.38782,5.94227,5.94227,0,0,1,1.083,3.77331c0,.18018-.00488.35523-.01221.51282S224.62109,58.30371,224.61133,58.41406Zm-1.6211-1.40039a4.08479,4.08479,0,0,0-.63745-2.46582,2.28158,2.28158,0,0,0-1.94262-.875,2.15271,2.15271,0,0,0-1.78589.82764,4.73441,4.73441,0,0,0-.79419,2.67334h5.16015v-.16016Z" fill="#383c45"/><path d="M234.08984,48.85156l-.2998.59033-.29981.59034a4.97,4.97,0,0,0-2.28125-.54,2.11152,2.11152,0,0,0-1.47924.405,1.57072,1.57072,0,0,0-.39966,1.21508v1.46h5.88086V63.09473H233.5293V53.87305h-4.19922v9.22168h-1.68164V53.87305h-1.67969V52.57227h1.67969v-1.46a2.803,2.803,0,0,1,.84277-2.15051,3.81948,3.81948,0,0,1,2.65918-.83,6.24189,6.24189,0,0,1,1.58984.1947A6.54791,6.54791,0,0,1,234.08984,48.85156Z" fill="#383c45"/><path d="M244.25,62.63477a4.02008,4.02008,0,0,1-1.08472.52258,4.20184,4.20184,0,0,1-1.23559.17761,2.73331,2.73331,0,0,1-2.04322-.75024,3.05041,3.05041,0,0,1-.738-2.19019V53.87305h-1.82031V52.57227h1.82031V50.15234l.84082-.09033.84082-.09033v2.60059h2.541l-.09082.65039-.09082.65039h-2.35937v6.4414a1.94685,1.94685,0,0,0,.30713,1.22242,1.20428,1.20428,0,0,0,1.01318.3977,2.42844,2.42844,0,0,0,.72217-.10742,3.53456,3.53456,0,0,0,.73682-.333l.32031.57031Z" fill="#383c45"/><path d="M255.56836,63.1543a6.65555,6.65555,0,0,1-1.59009,2.78589,5.29786,5.29786,0,0,1-3.15014,1.37524l-.09961-.66016-.09961-.66015a4.21059,4.21059,0,0,0,2.24047-.96973,4.83869,4.83869,0,0,0,1.09937-1.93066h-.58008L251.6084,57.8335l-1.78027-5.26123h1.80078l1.45019,4.65087,1.4502,4.65088,1.41992-4.65088,1.41992-4.65087h1.74024l-1.77051,5.291Z" fill="#383c45"/><path d="M269.71094,57.81348a6.22943,6.22943,0,0,1-1.21826,3.99853,4.63329,4.63329,0,0,1-6.83619.035,6.17683,6.17683,0,0,1-1.20727-3.99353A6.232,6.232,0,0,1,261.6665,53.855a4.65012,4.65012,0,0,1,6.84424-.04236A6.18617,6.18617,0,0,1,269.71094,57.81348Zm-7.46289.04a5.42713,5.42713,0,0,0,.72754,3.10315,2.668,2.668,0,0,0,4.197-.005,5.47387,5.47387,0,0,0,.73755-3.13818,5.42711,5.42711,0,0,0-.72754-3.10315,2.65971,2.65971,0,0,0-4.189.005A5.44768,5.44768,0,0,0,262.24805,57.85352Z" fill="#383c45"/><path d="M280.49023,63.09473h-1.43945l-.06055-.8501-.06054-.8501a4.13637,4.13637,0,0,1-1.37451,1.45032,3.67213,3.67213,0,0,1-1.9458.49011,2.825,2.825,0,0,1-2.16065-.83765,3.41756,3.41756,0,0,1-.78076-2.383v-7.542h1.68164v7.36132a2.3965,2.3965,0,0,0,.417,1.59314,1.61115,1.61115,0,0,0,1.30176.46741,2.60327,2.60327,0,0,0,1.574-.52759,4.56881,4.56881,0,0,0,1.16822-1.35229v-7.542h1.67968V63.09473Z" fill="#383c45"/></svg>