<svg id="e8cc4fe1-7549-4ced-b50c-65bf2ead6abe" data-name="Layer 1" xmlns="http://www.w3.org/2000/svg" viewBox="0 0 258 60"><title>img-whitepaper-cta</title><rect width="258" height="60" fill="#48dad0"/><path d="M42.1731,31.1328c0,2.8208-.87,4.5613-2.1079,5.5966a6.6523,6.6523,0,0,1-4.314,1.3653h-3.2V24.332h2.8408a7.5036,7.5036,0,0,1,4.6808,1.2625C41.3379,26.582,42.1731,28.2822,42.1731,31.1328Zm-7.9014-5.4V36.7148h1.62a4.1616,4.1616,0,0,0,3.0356-1.0581c.83-.8178,1.3853-2.2133,1.3853-4.5239,0-2.37-.58-3.72-1.44-4.4778a4.5622,4.5622,0,0,0-3.1212-.9226H34.2717Z" fill="#383c45"/><path d="M53.7532,32.8135a6.2308,6.2308,0,0,1-1.2178,3.9985,4.6335,4.6335,0,0,1-6.8365.035,6.1758,6.1758,0,0,1-1.2074-3.9935,6.2313,6.2313,0,0,1,1.2176-3.9985,4.65,4.65,0,0,1,6.8439-.0424A6.1866,6.1866,0,0,1,53.7532,32.8135Zm-7.4619.04a5.4276,5.4276,0,0,0,.7275,3.1032,2.6672,2.6672,0,0,0,4.1962-.005,5.4755,5.4755,0,0,0,.7374-3.1382,5.4276,5.4276,0,0,0-.7275-3.1032,2.6593,2.6593,0,0,0-4.1885.005A5.45,5.45,0,0,0,46.2913,32.8535Z" fill="#383c45"/><path d="M66.3323,38.0947H64.0315l-.97-4.5009-.97-4.501-1,4.501-1,4.5009h-2.24L56.6,32.8335l-1.25-5.2612h1.7l.99,4.6709.99,4.6709,1.0806-4.6709,1.0806-4.6709h1.88l1.0406,4.6709,1.0405,4.6709,1-4.6709,1-4.6709h1.6006l-1.2105,5.2612Z" fill="#383c45"/><path d="M78.9915,30.5527v7.542h-1.68V30.793a2.4717,2.4717,0,0,0-.4554-1.6779,1.5946,1.5946,0,0,0-1.2653-.4628,2.5984,2.5984,0,0,0-1.5977.5352,5.2047,5.2047,0,0,0-1.2226,1.4053v7.5019H71.09V27.5723h1.44l.07.8.07.8a4.4514,4.4514,0,0,1,1.41-1.3332,3.72,3.72,0,0,1,1.89-.5077,2.9229,2.9229,0,0,1,2.238.86A3.3887,3.3887,0,0,1,78.9915,30.5527Z" fill="#383c45"/><path d="M82.55,36.0947V23.332l.84-.1.84-.1V36.0547a1.0777,1.0777,0,0,0,.1626.6575.6288.6288,0,0,0,.5376.2224,2.2151,2.2151,0,0,0,.3724-.03,1.6137,1.6137,0,0,0,.3278-.09l.22.59.22.59a2.9735,2.9735,0,0,1-.6475.2446,3.0846,3.0846,0,0,1-.7529.0953,2.087,2.087,0,0,1-1.54-.5727A2.3039,2.3039,0,0,1,82.55,36.0947Z" fill="#383c45"/><path d="M96.9729,32.8135a6.23,6.23,0,0,1-1.2178,3.9985,4.6335,4.6335,0,0,1-6.8365.035,6.1758,6.1758,0,0,1-1.2074-3.9935,6.2313,6.2313,0,0,1,1.2176-3.9985,4.65,4.65,0,0,1,6.8439-.0424A6.186,6.186,0,0,1,96.9729,32.8135Zm-7.4619.04a5.4276,5.4276,0,0,0,.7275,3.1032,2.6672,2.6672,0,0,0,4.1962-.005,5.4755,5.4755,0,0,0,.7374-3.1382,5.4276,5.4276,0,0,0-.7275-3.1032,2.6593,2.6593,0,0,0-4.1885.005A5.45,5.45,0,0,0,89.511,32.8535Z" fill="#383c45"/><path d="M107.8518,37.1543l-.2.59-.2.59a2.5719,2.5719,0,0,1-1.2581-.4655,2.0557,2.0557,0,0,1-.7028-1.1547,3.4871,3.4871,0,0,1-1.37,1.23,3.9971,3.9971,0,0,1-1.79.39A3.3842,3.3842,0,0,1,99.89,37.45a3.1335,3.1335,0,0,1-.88-2.2953,3.0209,3.0209,0,0,1,1.2-2.5608,5.6,5.6,0,0,1,3.3611-.8806h1.72v-.84a2.1448,2.1448,0,0,0-.56-1.6652,2.4331,2.4331,0,0,0-1.7-.4949,6.5913,6.5913,0,0,0-1.3157.1476,11.7442,11.7442,0,0,0-1.5251.4325l-.21-.62-.21-.62a11.6329,11.6329,0,0,1,1.8176-.5405,8.6439,8.6439,0,0,1,1.7429-.18,3.7658,3.7658,0,0,1,2.7578.9128,3.45,3.45,0,0,1,.8828,2.5482v4.8808a1.8167,1.8167,0,0,0,.23,1.0329A1.2214,1.2214,0,0,0,107.8518,37.1543Zm-2.56-1.82v-2.5h-1.5a3.7519,3.7519,0,0,0-2.2355.5576,1.9591,1.9591,0,0,0-.7655,1.6826,2.0485,2.0485,0,0,0,.4877,1.47,1.9075,1.9075,0,0,0,1.4332.51,2.606,2.606,0,0,0,1.4925-.4326A3.424,3.424,0,0,0,105.2913,35.334Z" fill="#383c45"/><path d="M118.7317,23.332V38.0947h-1.46l-.09-.74-.09-.74a3.7619,3.7619,0,0,1-1.2755,1.25,3.5062,3.5062,0,0,1-1.786.47,3.4309,3.4309,0,0,1-2.9325-1.4931,6.8805,6.8805,0,0,1-1.0274-3.9679,6.811,6.811,0,0,1,1.0925-3.9787,3.7111,3.7111,0,0,1,4.6831-1.173,4.471,4.471,0,0,1,1.2058.93V23.1318l.84.1Zm-1.68,12.002V30.0928a3.8929,3.8929,0,0,0-1.078-1.0326,2.6723,2.6723,0,0,0-1.423-.3873,2.2413,2.2413,0,0,0-1.9555,1.04,5.6749,5.6749,0,0,0-.7251,3.1406,5.976,5.976,0,0,0,.6576,3.1206,2.0538,2.0538,0,0,0,1.8433,1.02,2.7,2.7,0,0,0,1.5352-.4323A4.1591,4.1591,0,0,0,117.052,35.334Z" fill="#383c45"/><path d="M137.3918,38.0947h-2.3007l-.97-4.5009-.97-4.501-1,4.501-1,4.5009h-2.24L127.66,32.8335l-1.25-5.2612h1.7l.99,4.6709.99,4.6709,1.0806-4.6709,1.0805-4.6709h1.88l1.0405,4.6709,1.0406,4.6709,1-4.6709,1-4.6709h1.6005l-1.21,5.2612Z" fill="#383c45"/><path d="M150.051,30.5527v7.542h-1.68V30.793a2.4272,2.4272,0,0,0-.4727-1.6779,1.6238,1.6238,0,0,0-1.2675-.4628,2.5825,2.5825,0,0,0-1.5732.5328,5.24,5.24,0,0,0-1.2276,1.3881v7.5215H142.15V23.3516l.84-.1.84-.1v5.9414a4.59,4.59,0,0,1,1.3826-1.2781,3.5776,3.5776,0,0,1,1.8176-.4827,2.92,2.92,0,0,1,2.2306.8677A3.3814,3.3814,0,0,1,150.051,30.5527Z" fill="#383c45"/><path d="M155.75,23.7715a1.1443,1.1443,0,0,1-.33.8276,1.2124,1.2124,0,0,1-.87.3325,1.1837,1.1837,0,0,1-.8529-.3325,1.209,1.209,0,0,1,0-1.6553,1.1837,1.1837,0,0,1,.8529-.3325,1.2124,1.2124,0,0,1,.87.3325A1.1447,1.1447,0,0,1,155.75,23.7715Zm-.34,14.3232H153.73V27.5723H155.41V38.0947Z" fill="#383c45"/><path d="M164.45,37.6348a4.0311,4.0311,0,0,1-1.0854.5225,4.1976,4.1976,0,0,1-1.2349.1777,2.7334,2.7334,0,0,1-2.0432-.75,3.05,3.05,0,0,1-.738-2.19V28.873h-1.82V27.5723h1.82v-2.42l.84-.09.84-.09v2.6006h2.5411l-.09.65-.09.65h-2.36v6.4415a1.9461,1.9461,0,0,0,.3075,1.2224,1.2047,1.2047,0,0,0,1.0129.3977,2.4293,2.4293,0,0,0,.7226-.1075,3.53,3.53,0,0,0,.7373-.333l.32.57Z" fill="#383c45"/><path d="M173.9114,33.4141H167.13a4.4374,4.4374,0,0,0,.9374,2.7225,2.5786,2.5786,0,0,0,2.0031.8175,4.2312,4.2312,0,0,0,1.4327-.23,5.5281,5.5281,0,0,0,1.328-.71l.37.5.37.5a6.0974,6.0974,0,0,1-1.653.9678,5.4658,5.4658,0,0,1-1.9681.3526,4.2477,4.2477,0,0,1-3.3879-1.4479,6.0218,6.0218,0,0,1-1.2126-3.9535,6.6774,6.6774,0,0,1,1.1549-4.0386,3.8287,3.8287,0,0,1,3.1654-1.563,3.8949,3.8949,0,0,1,3.1982,1.3878,5.9423,5.9423,0,0,1,1.083,3.7734c0,.18-.0051.3552-.0127.5128S173.9211,33.3037,173.9114,33.4141Zm-1.62-1.4a4.0822,4.0822,0,0,0-.638-2.4658,2.2827,2.2827,0,0,0-1.9431-.875,2.1521,2.1521,0,0,0-1.7852.8276,4.739,4.739,0,0,0-.7949,2.6733h5.1612v-.16Z" fill="#383c45"/><path d="M185.511,32.8135a6.8907,6.8907,0,0,1-1.0451,3.9685,3.5736,3.5736,0,0,1-3.0555,1.553,3.8954,3.8954,0,0,1-1.6053-.3151,3.2579,3.2579,0,0,1-1.215-.9457v5.041l-.84.1-.84.1V27.5723h1.44l.07.73.07.73a4.0976,4.0976,0,0,1,1.3832-1.256,3.6476,3.6476,0,0,1,1.7574-.4452,3.3167,3.3167,0,0,1,2.9684,1.4879A7.32,7.32,0,0,1,185.511,32.8135Zm-1.82,0a6.209,6.209,0,0,0-.6151-3.1206,2.0062,2.0062,0,0,0-1.8449-1.02,2.6052,2.6052,0,0,0-1.5382.5124A4.5342,4.5342,0,0,0,178.59,30.373v5.2208a3.1867,3.1867,0,0,0,1.0452,1.0028,2.7211,2.7211,0,0,0,1.3747.3575,2.237,2.237,0,0,0,1.9929-1.0127A5.7127,5.7127,0,0,0,183.6907,32.8135Z" fill="#383c45"/><path d="M196.3713,37.1543l-.2.59-.2.59a2.5715,2.5715,0,0,1-1.258-.4655,2.0553,2.0553,0,0,1-.7029-1.1547,3.4858,3.4858,0,0,1-1.37,1.23,3.9971,3.9971,0,0,1-1.79.39,3.3844,3.3844,0,0,1-2.441-.8854,3.1335,3.1335,0,0,1-.88-2.2953,3.0207,3.0207,0,0,1,1.2-2.5608,5.6,5.6,0,0,1,3.3611-.8806h1.72v-.84a2.1448,2.1448,0,0,0-.56-1.6652,2.4331,2.4331,0,0,0-1.7-.4949,6.59,6.59,0,0,0-1.3156.1476,11.7454,11.7454,0,0,0-1.5252.4325l-.21-.62-.21-.62a11.6392,11.6392,0,0,1,1.8176-.5405,8.6454,8.6454,0,0,1,1.7429-.18,3.7658,3.7658,0,0,1,2.7578.9128,3.45,3.45,0,0,1,.8829,2.5482v4.8808a1.8159,1.8159,0,0,0,.23,1.0329A1.2211,1.2211,0,0,0,196.3713,37.1543Zm-2.56-1.82v-2.5h-1.5a3.7521,3.7521,0,0,0-2.2355.5576,1.9594,1.9594,0,0,0-.7655,1.6826,2.0489,2.0489,0,0,0,.4877,1.47,1.9075,1.9075,0,0,0,1.4332.51,2.6063,2.6063,0,0,0,1.4926-.4326A3.4238,3.4238,0,0,0,193.8108,35.334Z" fill="#383c45"/><path d="M207.9114,32.8135a6.8907,6.8907,0,0,1-1.0451,3.9685,3.5736,3.5736,0,0,1-3.0555,1.553,3.8963,3.8963,0,0,1-1.6054-.3151,3.2584,3.2584,0,0,1-1.2149-.9457v5.041l-.84.1-.84.1V27.5723h1.44l.07.73.07.73a4.0976,4.0976,0,0,1,1.3832-1.256,3.6476,3.6476,0,0,1,1.7574-.4452,3.3167,3.3167,0,0,1,2.9684,1.4879A7.32,7.32,0,0,1,207.9114,32.8135Zm-1.82,0a6.209,6.209,0,0,0-.6151-3.1206,2.0062,2.0062,0,0,0-1.8449-1.02,2.6052,2.6052,0,0,0-1.5382.5124,4.5342,4.5342,0,0,0-1.1024,1.1877v5.2208a3.1874,3.1874,0,0,0,1.0451,1.0028,2.7217,2.7217,0,0,0,1.3748.3575,2.237,2.237,0,0,0,1.9929-1.0127A5.7127,5.7127,0,0,0,206.0911,32.8135Z" fill="#383c45"/><path d="M218.8108,33.4141H212.03a4.4374,4.4374,0,0,0,.9374,2.7225,2.5786,2.5786,0,0,0,2.0031.8175,4.2312,4.2312,0,0,0,1.4327-.23,5.5263,5.5263,0,0,0,1.328-.71l.37.5.37.5a6.0974,6.0974,0,0,1-1.653.9678,5.4657,5.4657,0,0,1-1.968.3526,4.2479,4.2479,0,0,1-3.388-1.4479,6.0218,6.0218,0,0,1-1.2126-3.9535,6.6774,6.6774,0,0,1,1.1549-4.0386,3.8287,3.8287,0,0,1,3.1654-1.563,3.8949,3.8949,0,0,1,3.1986,1.3878,5.9434,5.9434,0,0,1,1.0826,3.7734c0,.18-.0051.3552-.0127.5128S218.8206,33.3037,218.8108,33.4141Zm-1.62-1.4a4.0822,4.0822,0,0,0-.638-2.4658,2.2827,2.2827,0,0,0-1.9431-.875,2.1518,2.1518,0,0,0-1.7851.8276,4.7382,4.7382,0,0,0-.795,2.6733h5.1612v-.16Z" fill="#383c45"/><path d="M227.31,27.4521l-.16.82-.16.82a3.4478,3.4478,0,0,0-.43-.09,3.5265,3.5265,0,0,0-.49-.03,2.0022,2.0022,0,0,0-1.62.7375,5.3444,5.3444,0,0,0-.96,2.283v6.1015h-1.6807V27.5723h1.4405l.08,1.1006.08,1.1005a4.0913,4.0913,0,0,1,1.1449-1.8286,2.5713,2.5713,0,0,1,1.7155-.6128,4.7032,4.7032,0,0,1,.535.03A3.9386,3.9386,0,0,1,227.31,27.4521Z" fill="#383c45"/></svg>