<svg id="af6e877f-2c3c-4093-ae6c-ec84218bc585" data-name="Layer 1" xmlns="http://www.w3.org/2000/svg" viewBox="0 0 456 60"><title>img-text-scenario-5</title><path d="M47.1343,25.7324H41.7134V30.373h4.7v1.4h-4.7v4.9209h5.7607v1.4H39.9927V24.332h7.3418l-.1.7Z" fill="#383c45"/><path d="M57.9741,23.332V38.0947h-1.46l-.09-.74-.09-.74a3.7637,3.7637,0,0,1-1.2755,1.25,3.5066,3.5066,0,0,1-1.7861.47,3.4306,3.4306,0,0,1-2.9324-1.4931A6.8805,6.8805,0,0,1,49.313,32.874a6.811,6.811,0,0,1,1.0925-3.9787,3.7111,3.7111,0,0,1,4.6831-1.173,4.471,4.471,0,0,1,1.2058.93V23.1318l.84.1Zm-1.68,12.002V30.0928a3.8929,3.8929,0,0,0-1.078-1.0326,2.672,2.672,0,0,0-1.4229-.3873,2.2414,2.2414,0,0,0-1.9556,1.04,5.6749,5.6749,0,0,0-.7251,3.1406,5.977,5.977,0,0,0,.6576,3.1206,2.0539,2.0539,0,0,0,1.8434,1.02,2.7,2.7,0,0,0,1.5351-.4323A4.1591,4.1591,0,0,0,56.2944,35.334Z" fill="#383c45"/><path d="M63.7935,23.7715a1.1447,1.1447,0,0,1-.33.8276,1.2127,1.2127,0,0,1-.87.3325,1.1834,1.1834,0,0,1-.8529-.3325,1.2088,1.2088,0,0,1,0-1.6553,1.1834,1.1834,0,0,1,.8529-.3325,1.2127,1.2127,0,0,1,.87.3325A1.1451,1.1451,0,0,1,63.7935,23.7715Zm-.34,14.3232H61.7729V27.5723h1.6807V38.0947Z" fill="#383c45"/><path d="M72.4937,37.6348a4.0332,4.0332,0,0,1-1.0855.5225,4.1976,4.1976,0,0,1-1.2349.1777,2.7334,2.7334,0,0,1-2.0432-.75,3.05,3.05,0,0,1-.738-2.19V28.873h-1.82V27.5723h1.82v-2.42l.84-.09.84-.09v2.6006h2.541l-.09.65-.09.65h-2.36v6.4415a1.9462,1.9462,0,0,0,.3074,1.2224,1.2048,1.2048,0,0,0,1.0129.3977,2.4293,2.4293,0,0,0,.7226-.1075,3.528,3.528,0,0,0,.7373-.333l.32.57Z" fill="#383c45"/><path d="M84.9937,37.6348a4.0332,4.0332,0,0,1-1.0855.5225,4.1976,4.1976,0,0,1-1.2349.1777,2.7334,2.7334,0,0,1-2.0432-.75,3.05,3.05,0,0,1-.738-2.19V28.873h-1.82V27.5723h1.82v-2.42l.84-.09.84-.09v2.6006h2.541l-.09.65-.09.65h-2.36v6.4415a1.9462,1.9462,0,0,0,.3074,1.2224,1.2048,1.2048,0,0,0,1.0129.3977,2.4293,2.4293,0,0,0,.7226-.1075,3.528,3.528,0,0,0,.7373-.333l.32.57Z" fill="#383c45"/><path d="M94.7935,30.5527v7.542h-1.68V30.793a2.4271,2.4271,0,0,0-.4728-1.6779,1.6237,1.6237,0,0,0-1.2675-.4628,2.5825,2.5825,0,0,0-1.5732.5328,5.2411,5.2411,0,0,0-1.2275,1.3881v7.5215H86.8921V23.3516l.84-.1.84-.1v5.9414a4.59,4.59,0,0,1,1.3825-1.2781,3.5778,3.5778,0,0,1,1.8176-.4827,2.92,2.92,0,0,1,2.2306.8677A3.3809,3.3809,0,0,1,94.7935,30.5527Z" fill="#383c45"/><path d="M106.314,33.4141H99.5327a4.4374,4.4374,0,0,0,.9374,2.7225,2.5785,2.5785,0,0,0,2.003.8175,4.2314,4.2314,0,0,0,1.4328-.23,5.5281,5.5281,0,0,0,1.328-.71l.37.5.37.5a6.0964,6.0964,0,0,1-1.6531.9678,5.4653,5.4653,0,0,1-1.968.3526,4.2477,4.2477,0,0,1-3.3879-1.4479,6.0218,6.0218,0,0,1-1.2127-3.9535,6.6781,6.6781,0,0,1,1.1549-4.0386,3.8289,3.8289,0,0,1,3.1655-1.563A3.8949,3.8949,0,0,1,105.271,28.72a5.9423,5.9423,0,0,1,1.083,3.7734c0,.18-.0051.3552-.0127.5128S106.3237,33.3037,106.314,33.4141Zm-1.62-1.4a4.0829,4.0829,0,0,0-.6379-2.4658,2.2827,2.2827,0,0,0-1.9431-.875,2.1521,2.1521,0,0,0-1.7852.8276,4.7383,4.7383,0,0,0-.7949,2.6733h5.1611v-.16Z" fill="#383c45"/><path d="M127.9946,30.5527v7.542H126.314V30.793a2.5573,2.5573,0,0,0-.45-1.6779,1.3775,1.3775,0,0,0-1.11-.4628,2.1657,2.1657,0,0,0-1.4475.5352,6.0507,6.0507,0,0,0-1.1326,1.4053v7.5019h-1.6806V30.793a2.5581,2.5581,0,0,0-.45-1.6779,1.3775,1.3775,0,0,0-1.1106-.4628,2.1909,2.1909,0,0,0-1.4552.5352,5.721,5.721,0,0,0-1.1248,1.4053v7.5019h-1.6807V27.5723h1.44l.07.8.07.8a4.5365,4.5365,0,0,1,1.31-1.3332,3.2748,3.2748,0,0,1,1.79-.5077,2.6287,2.6287,0,0,1,2.6406,1.9405,4.7574,4.7574,0,0,1,1.3407-1.4053,3.25,3.25,0,0,1,1.82-.5352,2.6717,2.6717,0,0,1,2.0653.8677A3.4719,3.4719,0,0,1,127.9946,30.5527Z" fill="#383c45"/><path d="M139.5728,37.1543l-.2.59-.2.59a2.5715,2.5715,0,0,1-1.258-.4655,2.0553,2.0553,0,0,1-.7029-1.1547,3.4862,3.4862,0,0,1-1.37,1.23,3.9979,3.9979,0,0,1-1.79.39,3.3844,3.3844,0,0,1-2.441-.8854,3.1334,3.1334,0,0,1-.88-2.2953,3.0207,3.0207,0,0,1,1.2-2.5608,5.6,5.6,0,0,1,3.3611-.8806h1.72v-.84a2.1448,2.1448,0,0,0-.56-1.6652,2.4331,2.4331,0,0,0-1.7-.4949,6.5911,6.5911,0,0,0-1.3156.1476,11.75,11.75,0,0,0-1.5252.4325l-.21-.62-.21-.62a11.6392,11.6392,0,0,1,1.8176-.5405,8.6454,8.6454,0,0,1,1.7429-.18,3.7662,3.7662,0,0,1,2.7579.9128,3.45,3.45,0,0,1,.8828,2.5482v4.8808a1.8159,1.8159,0,0,0,.23,1.0329A1.221,1.221,0,0,0,139.5728,37.1543Zm-2.5606-1.82v-2.5h-1.5a3.7521,3.7521,0,0,0-2.2355.5576,1.9594,1.9594,0,0,0-.7655,1.6826,2.0489,2.0489,0,0,0,.4877,1.47,1.9076,1.9076,0,0,0,1.4332.51,2.6061,2.6061,0,0,0,1.4926-.4326A3.4238,3.4238,0,0,0,137.0122,35.334Z" fill="#383c45"/><path d="M151.1128,32.8135a6.8907,6.8907,0,0,1-1.0451,3.9685,3.5736,3.5736,0,0,1-3.0555,1.553,3.8958,3.8958,0,0,1-1.6053-.3151,3.2579,3.2579,0,0,1-1.215-.9457v5.041l-.84.1-.84.1V27.5723h1.44l.07.73.07.73a4.0976,4.0976,0,0,1,1.3832-1.256,3.6478,3.6478,0,0,1,1.7574-.4452A3.3166,3.3166,0,0,1,150.2,28.82,7.32,7.32,0,0,1,151.1128,32.8135Zm-1.82,0a6.209,6.209,0,0,0-.6151-3.1206,2.0062,2.0062,0,0,0-1.8449-1.02,2.6052,2.6052,0,0,0-1.5382.5124,4.5342,4.5342,0,0,0-1.1024,1.1877v5.2208a3.1867,3.1867,0,0,0,1.0452,1.0028,2.7213,2.7213,0,0,0,1.3747.3575,2.237,2.237,0,0,0,1.9929-1.0127A5.7127,5.7127,0,0,0,149.2925,32.8135Z" fill="#383c45"/><path d="M167.4722,23.332V38.0947h-1.46l-.09-.74-.09-.74a3.7628,3.7628,0,0,1-1.2755,1.25,3.5065,3.5065,0,0,1-1.786.47,3.4309,3.4309,0,0,1-2.9325-1.4931,6.8805,6.8805,0,0,1-1.0275-3.9679,6.81,6.81,0,0,1,1.0926-3.9787,3.7111,3.7111,0,0,1,4.6831-1.173,4.4725,4.4725,0,0,1,1.2058.93V23.1318l.84.1Zm-1.68,12.002V30.0928a3.8929,3.8929,0,0,0-1.078-1.0326,2.6723,2.6723,0,0,0-1.423-.3873,2.2416,2.2416,0,0,0-1.9556,1.04,5.6749,5.6749,0,0,0-.7251,3.1406,5.977,5.977,0,0,0,.6576,3.1206,2.054,2.054,0,0,0,1.8434,1.02,2.7,2.7,0,0,0,1.5352-.4323A4.16,4.16,0,0,0,165.7925,35.334Z" fill="#383c45"/><path d="M179.1118,33.4141h-6.7812a4.4374,4.4374,0,0,0,.9373,2.7225,2.5786,2.5786,0,0,0,2.0031.8175,4.2308,4.2308,0,0,0,1.4327-.23,5.5263,5.5263,0,0,0,1.328-.71l.37.5.37.5a6.0979,6.0979,0,0,1-1.6531.9678,5.4657,5.4657,0,0,1-1.968.3526,4.2479,4.2479,0,0,1-3.388-1.4479,6.0218,6.0218,0,0,1-1.2126-3.9535,6.6774,6.6774,0,0,1,1.1549-4.0386,3.8288,3.8288,0,0,1,3.1654-1.563,3.8946,3.8946,0,0,1,3.1986,1.3878,5.9429,5.9429,0,0,1,1.0827,3.7734c0,.18-.0052.3552-.0127.5128S179.1216,33.3037,179.1118,33.4141Zm-1.62-1.4a4.0829,4.0829,0,0,0-.6379-2.4658,2.2829,2.2829,0,0,0-1.9432-.875,2.152,2.152,0,0,0-1.7851.8276,4.7375,4.7375,0,0,0-.7949,2.6733h5.1611v-.16Z" fill="#383c45"/><path d="M188.4712,28.5322l-.37.53-.37.53a5.7084,5.7084,0,0,0-1.34-.6925,4.2387,4.2387,0,0,0-1.4-.2274,2.479,2.479,0,0,0-1.4753.4025,1.2927,1.2927,0,0,0-.5452,1.0779,1.1871,1.1871,0,0,0,.5076,1.0447,5.5327,5.5327,0,0,0,1.8127.7151,6.2791,6.2791,0,0,1,2.5706,1.1579,2.6171,2.6171,0,0,1,.89,2.1028,2.7849,2.7849,0,0,1-1.2354,2.3833,4.987,4.987,0,0,1-2.8262.7779,6.3971,6.3971,0,0,1-2.2826-.39,5.2267,5.2267,0,0,1-1.6373-.9907l.45-.51.45-.51a5.1941,5.1941,0,0,0,1.3633.76,4.6657,4.6657,0,0,0,1.6182.28,2.9136,2.9136,0,0,0,1.7024-.4527,1.4779,1.4779,0,0,0,.6374-1.2475,1.3977,1.3977,0,0,0-.5276-1.2331,6.141,6.141,0,0,0-2.073-.8274,5.4613,5.4613,0,0,1-2.4454-1.18,2.4235,2.4235,0,0,1-.7352-1.84,2.5521,2.5521,0,0,1,1.0653-2.0536,4.3719,4.3719,0,0,1,2.6554-.8078,5.7245,5.7245,0,0,1,1.9433.3152A5.8707,5.8707,0,0,1,188.4712,28.5322Z" fill="#383c45"/><path d="M193.4312,23.7715a1.1447,1.1447,0,0,1-.33.8276,1.2127,1.2127,0,0,1-.87.3325,1.1834,1.1834,0,0,1-.8529-.3325,1.2088,1.2088,0,0,1,0-1.6553,1.1834,1.1834,0,0,1,.8529-.3325,1.2127,1.2127,0,0,1,.87.3325A1.1451,1.1451,0,0,1,193.4312,23.7715Zm-.34,14.3232h-1.6807V27.5723h1.6807V38.0947Z" fill="#383c45"/><path d="M205.272,27.9922a6.6232,6.6232,0,0,1-1.3777.2506c-.5027.045-1.053.06-1.6633.07a3.1686,3.1686,0,0,1,1.3781,1.073,2.8007,2.8007,0,0,1,.4627,1.6282,3.368,3.368,0,0,1-1.05,2.5423,4.1919,4.1919,0,0,1-2.9107.9977,4.7805,4.7805,0,0,1-.6926-.0474,3.7171,3.7171,0,0,1-.6472-.1528,1.3372,1.3372,0,0,0-.4257.4528,1.1918,1.1918,0,0,0-.1554.5882.7435.7435,0,0,0,.3.6372,1.9239,1.9239,0,0,0,1.14.2622h1.6806a3.9927,3.9927,0,0,1,2.5733.8155,2.6005,2.6005,0,0,1,.9678,2.0459,2.6484,2.6484,0,0,1-1.2127,2.3377,6.5933,6.5933,0,0,1-3.6282.8224,5.9137,5.9137,0,0,1-3.5085-.7752,2.7121,2.7121,0,0,1-.9729-2.3654h1.52a1.4941,1.4941,0,0,0,.595,1.3829,4.4167,4.4167,0,0,0,2.3659.4374,4.9493,4.9493,0,0,0,2.44-.4475,1.3647,1.3647,0,0,0,.7-1.2722,1.3427,1.3427,0,0,0-.58-1.1707,2.8153,2.8153,0,0,0-1.6-.39h-1.66a3.1484,3.1484,0,0,1-2.0306-.59,1.7321,1.7321,0,0,1-.65-1.3709,1.8987,1.8987,0,0,1,.2922-1.0027,2.7042,2.7042,0,0,1,.8474-.8371,3.0414,3.0414,0,0,1-1.76-2.94,3.4631,3.4631,0,0,1,1.13-2.6235,4.22,4.22,0,0,1,2.8709-1.0181,12.0393,12.0393,0,0,0,2.9352-.2147,8.7332,8.7332,0,0,0,1.8256-.6652l.25.77Zm-7.542,2.9814a2.5777,2.5777,0,0,0,.6054,1.7848,2.5558,2.5558,0,0,0,3.4283.03,2.6023,2.6023,0,0,0,.5874-1.8149,2.5207,2.5207,0,0,0-.5851-1.7956,2.3159,2.3159,0,0,0-1.7548-.6253,2.1858,2.1858,0,0,0-1.7035.6853A2.5644,2.5644,0,0,0,197.73,30.9736Z" fill="#383c45"/><path d="M215.1313,30.5527v7.542h-1.68V30.793a2.4717,2.4717,0,0,0-.4554-1.6779,1.5946,1.5946,0,0,0-1.2653-.4628,2.5984,2.5984,0,0,0-1.5977.5352,5.2067,5.2067,0,0,0-1.2227,1.4053v7.5019H207.23V27.5723h1.44l.07.8.07.8a4.4514,4.4514,0,0,1,1.41-1.3332,3.72,3.72,0,0,1,1.89-.5077,2.9229,2.9229,0,0,1,2.238.86A3.3887,3.3887,0,0,1,215.1313,30.5527Z" fill="#383c45"/><path d="M229.41,37.6348a4.0219,4.0219,0,0,1-1.0848.5225,4.2,4.2,0,0,1-1.2356.1777,2.7325,2.7325,0,0,1-2.0427-.75,3.05,3.05,0,0,1-.738-2.19V28.873h-1.82V27.5723h1.82v-2.42l.84-.09.84-.09v2.6006h2.5416l-.0909.65-.0908.65h-2.36v6.4415a1.9455,1.9455,0,0,0,.3076,1.2224,1.2052,1.2052,0,0,0,1.0132.3977,2.4258,2.4258,0,0,0,.7222-.1075,3.5317,3.5317,0,0,0,.7368-.333l.32.57Z" fill="#383c45"/><path d="M239.5723,32.8135a6.2292,6.2292,0,0,1-1.2183,3.9985,4.6332,4.6332,0,0,1-6.8362.035,6.1769,6.1769,0,0,1-1.2073-3.9935,6.2324,6.2324,0,0,1,1.2173-3.9985,4.65,4.65,0,0,1,6.8443-.0424A6.1866,6.1866,0,0,1,239.5723,32.8135Zm-7.4629.04a5.4276,5.4276,0,0,0,.7275,3.1032,2.668,2.668,0,0,0,4.197-.005,5.4738,5.4738,0,0,0,.7376-3.1382,5.4268,5.4268,0,0,0-.7276-3.1032,2.66,2.66,0,0,0-4.1889.005A5.4476,5.4476,0,0,0,232.1094,32.8535Z" fill="#383c45"/><path d="M255.91,37.1543l-.1993.59-.1992.59a2.5731,2.5731,0,0,1-1.2588-.4655,2.0523,2.0523,0,0,1-.7021-1.1547,3.4865,3.4865,0,0,1-1.3706,1.23,3.998,3.998,0,0,1-1.79.39,3.386,3.386,0,0,1-2.4419-.8854,3.1331,3.1331,0,0,1-.88-2.2953,3.0205,3.0205,0,0,1,1.2009-2.5608,5.6021,5.6021,0,0,1,3.3616-.8806H253.35v-.84a2.1447,2.1447,0,0,0-.56-1.6652,2.4334,2.4334,0,0,0-1.7-.4949,6.5841,6.5841,0,0,0-1.3151.1476,11.7484,11.7484,0,0,0-1.5247.4325l-.21-.62-.21-.62a11.6392,11.6392,0,0,1,1.8176-.5405,8.6446,8.6446,0,0,1,1.7429-.18,3.7658,3.7658,0,0,1,2.7578.9128,3.45,3.45,0,0,1,.8829,2.5482v4.8808a1.8177,1.8177,0,0,0,.23,1.0329A1.22,1.22,0,0,0,255.91,37.1543Zm-2.5606-1.82v-2.5h-1.5a3.75,3.75,0,0,0-2.2346.5576,1.96,1.96,0,0,0-.7654,1.6826,2.0489,2.0489,0,0,0,.4876,1.47,1.9059,1.9059,0,0,0,1.4323.51,2.6063,2.6063,0,0,0,1.493-.4326A3.4249,3.4249,0,0,0,253.35,35.334Z" fill="#383c45"/><path d="M258.6289,36.0947V23.332l.8408-.1.8408-.1V36.0547a1.0792,1.0792,0,0,0,.1622.6575.6274.6274,0,0,0,.5371.2224,2.2189,2.2189,0,0,0,.3725-.03,1.627,1.627,0,0,0,.3286-.09l.22.59.22.59a2.9876,2.9876,0,0,1-.6482.2446,3.0814,3.0814,0,0,1-.7522.0953,2.0884,2.0884,0,0,1-1.541-.5727A2.3036,2.3036,0,0,1,258.6289,36.0947Z" fill="#383c45"/><path d="M266.6309,23.7715a1.144,1.144,0,0,1-.33.8276,1.214,1.214,0,0,1-.8708.3325,1.1823,1.1823,0,0,1-.8521-.3325,1.2093,1.2093,0,0,1,0-1.6553,1.1823,1.1823,0,0,1,.8521-.3325,1.214,1.214,0,0,1,.8708.3325A1.1444,1.1444,0,0,1,266.6309,23.7715Zm-.34,14.3232h-1.6816V27.5723h1.6816V38.0947Z" fill="#383c45"/><path d="M278.4707,27.9922a6.6232,6.6232,0,0,1-1.3777.2506c-.5027.045-1.053.06-1.6633.07a3.1714,3.1714,0,0,1,1.3786,1.073,2.7988,2.7988,0,0,1,.4632,1.6282,3.368,3.368,0,0,1-1.05,2.5423,4.1919,4.1919,0,0,1-2.9107.9977,4.7805,4.7805,0,0,1-.6926-.0474,3.7171,3.7171,0,0,1-.6472-.1528,1.3348,1.3348,0,0,0-.4265.4528,1.19,1.19,0,0,0-.1555.5882.7434.7434,0,0,0,.3.6372,1.926,1.926,0,0,0,1.1411.2622h1.68a3.9924,3.9924,0,0,1,2.5732.8155,2.6005,2.6005,0,0,1,.9678,2.0459,2.6485,2.6485,0,0,1-1.2122,2.3377,6.5907,6.5907,0,0,1-3.6277.8224,5.9161,5.9161,0,0,1-3.509-.7752,2.7118,2.7118,0,0,1-.9734-2.3654H270.25a1.4941,1.4941,0,0,0,.595,1.3829,4.4167,4.4167,0,0,0,2.3659.4374,4.9491,4.9491,0,0,0,2.4405-.4475,1.3647,1.3647,0,0,0,.7-1.2722,1.3424,1.3424,0,0,0-.58-1.1707,2.8171,2.8171,0,0,0-1.6013-.39h-1.66a3.1463,3.1463,0,0,1-2.03-.59,1.7323,1.7323,0,0,1-.65-1.3709,1.9008,1.9008,0,0,1,.2917-1.0027,2.7,2.7,0,0,1,.847-.8371,3.0429,3.0429,0,0,1-1.76-2.94,3.4628,3.4628,0,0,1,1.13-2.6235,4.2222,4.2222,0,0,1,2.8718-1.0181,12.0379,12.0379,0,0,0,2.9351-.2147,8.7145,8.7145,0,0,0,1.8247-.6652l.25.77Zm-7.541,2.9814a2.578,2.578,0,0,0,.605,1.7848,2.5557,2.5557,0,0,0,3.4282.03,2.601,2.601,0,0,0,.5879-1.8149,2.52,2.52,0,0,0-.5855-1.7956,2.3159,2.3159,0,0,0-1.7544-.6253,2.1856,2.1856,0,0,0-1.7038.6853A2.5648,2.5648,0,0,0,270.93,30.9736Z" fill="#383c45"/><path d="M288.33,30.5527v7.542h-1.68V30.793a2.4723,2.4723,0,0,0-.4553-1.6779,1.595,1.595,0,0,0-1.2654-.4628,2.5988,2.5988,0,0,0-1.5977.5352,5.2047,5.2047,0,0,0-1.2226,1.4053v7.5019h-1.68V27.5723h1.4394l.07.8.07.8a4.4439,4.4439,0,0,1,1.41-1.3332,3.7224,3.7224,0,0,1,1.8906-.5077,2.9212,2.9212,0,0,1,2.2371.86A3.3887,3.3887,0,0,1,288.33,30.5527Z" fill="#383c45"/><path d="M302.6094,37.6348a4.0213,4.0213,0,0,1-1.0847.5225,4.2008,4.2008,0,0,1-1.2356.1777,2.7335,2.7335,0,0,1-2.0433-.75,3.0507,3.0507,0,0,1-.738-2.19V28.873h-1.82V27.5723h1.82v-2.42l.8408-.09.8409-.09v2.6006h2.541l-.0909.65-.0908.65H299.19v6.4415a1.9469,1.9469,0,0,0,.3071,1.2224,1.2045,1.2045,0,0,0,1.0132.3977,2.4251,2.4251,0,0,0,.7221-.1075,3.5347,3.5347,0,0,0,.7369-.333l.32.57Z" fill="#383c45"/><path d="M312.7715,32.8135a6.2292,6.2292,0,0,1-1.2183,3.9985,4.6332,4.6332,0,0,1-6.8362.035,6.1769,6.1769,0,0,1-1.2072-3.9935,6.2318,6.2318,0,0,1,1.2173-3.9985,4.65,4.65,0,0,1,6.8442-.0424A6.1866,6.1866,0,0,1,312.7715,32.8135Zm-7.4629.04a5.4276,5.4276,0,0,0,.7275,3.1032,2.6681,2.6681,0,0,0,4.1971-.005,5.4747,5.4747,0,0,0,.7375-3.1382,5.4276,5.4276,0,0,0-.7275-3.1032,2.66,2.66,0,0,0-4.189.005A5.4476,5.4476,0,0,0,305.3086,32.8535Z" fill="#383c45"/><path d="M325.27,38.1543a6.6553,6.6553,0,0,1-1.59,2.7859,5.2967,5.2967,0,0,1-3.15,1.3752l-.1006-.66-.1006-.66a4.2121,4.2121,0,0,0,2.2407-.97,4.8475,4.8475,0,0,0,1.1011-1.9307h-.58l-1.7812-5.2612-1.7813-5.2612h1.8008l1.45,4.6508,1.45,4.6509,1.4209-4.6509,1.4209-4.6508h1.74l-1.77,5.291Z" fill="#383c45"/><path d="M339.41,32.8135a6.2318,6.2318,0,0,1-1.2173,3.9985,4.6339,4.6339,0,0,1-6.8369.035,6.1753,6.1753,0,0,1-1.2076-3.9935,6.23,6.23,0,0,1,1.2181-3.9985,4.6492,4.6492,0,0,1,6.8435-.0424A6.1866,6.1866,0,0,1,339.41,32.8135Zm-7.461.04a5.4268,5.4268,0,0,0,.7276,3.1032,2.6663,2.6663,0,0,0,4.1953-.005,5.4764,5.4764,0,0,0,.7373-3.1382,5.4268,5.4268,0,0,0-.7276-3.1032,2.6588,2.6588,0,0,0-4.188.005A5.4529,5.4529,0,0,0,331.9492,32.8535Z" fill="#383c45"/><path d="M350.19,38.0947h-1.44l-.06-.85-.06-.85a4.1462,4.1462,0,0,1-1.3763,1.45,3.673,3.673,0,0,1-1.946.49,2.8222,2.8222,0,0,1-2.16-.8377,3.42,3.42,0,0,1-.78-2.383v-7.542h1.68v7.3613a2.3933,2.3933,0,0,0,.418,1.5931,1.614,1.614,0,0,0,1.3027.4674,2.5994,2.5994,0,0,0,1.573-.5275,4.5746,4.5746,0,0,0,1.1673-1.3523v-7.542h1.68V38.0947Z" fill="#383c45"/><path d="M359.49,27.4521l-.16.82-.16.82a3.4769,3.4769,0,0,0-.4306-.09,3.5209,3.5209,0,0,0-.4893-.03,2.0033,2.0033,0,0,0-1.62.7375,5.3383,5.3383,0,0,0-.96,2.283v6.1015h-1.6816V27.5723H355.43l.08,1.1006.08,1.1005a4.087,4.087,0,0,1,1.1441-1.8286,2.5708,2.5708,0,0,1,1.7153-.6128,4.7138,4.7138,0,0,1,.5359.03A3.934,3.934,0,0,1,359.49,27.4521Z" fill="#383c45"/><path d="M375.5488,32.8135a6.7562,6.7562,0,0,1-1.0969,4.0062,3.589,3.589,0,0,1-3.0027,1.5153,3.4439,3.4439,0,0,1-1.6181-.39,3.9307,3.9307,0,0,1-1.2432-1.05l-.08.6-.08.6h-1.48V23.332l.8408-.1.8408-.1v5.7813a3.9444,3.9444,0,0,1,1.2915-1.1582,3.5685,3.5685,0,0,1,1.728-.4229,3.3709,3.3709,0,0,1,2.8431,1.4279A6.8692,6.8692,0,0,1,375.5488,32.8135Zm-1.82,0a5.8281,5.8281,0,0,0-.685-3.203,2.0832,2.0832,0,0,0-1.854-.9376,2.4756,2.4756,0,0,0-1.5132.51,4.5537,4.5537,0,0,0-1.0474,1.1706v5.1807a3.6364,3.6364,0,0,0,1.0525,1.0526,2.5358,2.5358,0,0,0,1.3674.4073,2.236,2.236,0,0,0,1.9478-.995A5.6466,5.6466,0,0,0,373.7285,32.8135Z" fill="#383c45"/><path d="M384.1094,27.4521l-.16.82-.16.82a3.4784,3.4784,0,0,0-.4307-.09,3.52,3.52,0,0,0-.4893-.03,2.0029,2.0029,0,0,0-1.62.7375,5.3371,5.3371,0,0,0-.96,2.283v6.1015h-1.6817V27.5723h1.4414l.08,1.1006.08,1.1005a4.0869,4.0869,0,0,1,1.144-1.8286,2.5709,2.5709,0,0,1,1.7154-.6128,4.7134,4.7134,0,0,1,.5358.03A3.9387,3.9387,0,0,1,384.1094,27.4521Z" fill="#383c45"/><path d="M393.709,37.1543l-.1992.59-.1993.59a2.5723,2.5723,0,0,1-1.2587-.4655,2.0524,2.0524,0,0,1-.7022-1.1547,3.4859,3.4859,0,0,1-1.3706,1.23,3.9975,3.9975,0,0,1-1.7895.39,3.3858,3.3858,0,0,1-2.4419-.8854,3.1328,3.1328,0,0,1-.88-2.2953,3.0205,3.0205,0,0,1,1.2009-2.5608,5.6023,5.6023,0,0,1,3.3616-.8806h1.7187v-.84a2.1447,2.1447,0,0,0-.56-1.6652,2.4333,2.4333,0,0,0-1.7-.4949,6.5842,6.5842,0,0,0-1.3152.1476,11.7528,11.7528,0,0,0-1.5247.4325l-.21-.62-.21-.62a11.6392,11.6392,0,0,1,1.8176-.5405,8.6456,8.6456,0,0,1,1.743-.18,3.7659,3.7659,0,0,1,2.7578.9128,3.45,3.45,0,0,1,.8828,2.5482v4.8808a1.8176,1.8176,0,0,0,.23,1.0329A1.22,1.22,0,0,0,393.709,37.1543Zm-2.5606-1.82v-2.5h-1.5a3.75,3.75,0,0,0-2.2346.5576,1.96,1.96,0,0,0-.7654,1.6826,2.0493,2.0493,0,0,0,.4876,1.47,1.9061,1.9061,0,0,0,1.4324.51,2.606,2.606,0,0,0,1.4929-.4326A3.424,3.424,0,0,0,391.1484,35.334Z" fill="#383c45"/><path d="M404.5488,30.5527v7.542h-1.68V30.793a2.4717,2.4717,0,0,0-.4553-1.6779,1.5947,1.5947,0,0,0-1.2654-.4628,2.5983,2.5983,0,0,0-1.5976.5352,5.205,5.205,0,0,0-1.2227,1.4053v7.5019h-1.68V27.5723h1.44l.07.8.07.8a4.4452,4.4452,0,0,1,1.41-1.3332,3.7219,3.7219,0,0,1,1.8906-.5077,2.9215,2.9215,0,0,1,2.2371.86A3.3891,3.3891,0,0,1,404.5488,30.5527Z" fill="#383c45"/><path d="M416.17,23.332V38.0947H414.709l-.09-.74-.09-.74a3.7643,3.7643,0,0,1-1.2754,1.25,3.5039,3.5039,0,0,1-1.7851.47,3.4319,3.4319,0,0,1-2.9334-1.4931,6.88,6.88,0,0,1-1.0276-3.9679,6.81,6.81,0,0,1,1.093-3.9787,3.7108,3.7108,0,0,1,4.6829-1.173,4.4822,4.4822,0,0,1,1.2065.93V23.1318l.84.1Zm-1.68,12.002V30.0928a3.8918,3.8918,0,0,0-1.0781-1.0326,2.6742,2.6742,0,0,0-1.4238-.3873,2.24,2.24,0,0,0-1.9551,1.04,5.6779,5.6779,0,0,0-.7246,3.1406,5.9781,5.9781,0,0,0,.6575,3.1206,2.053,2.053,0,0,0,1.8425,1.02,2.7,2.7,0,0,0,1.5356-.4323A4.1668,4.1668,0,0,0,414.49,35.334Z" fill="#383c45"/></svg>