<svg id="b4c1fc54-07ba-4bbb-a742-f1366311b591" data-name="Layer 1" xmlns="http://www.w3.org/2000/svg" viewBox="0 0 310 85"><title>img-text-scenario-5</title><path d="M38.11377,25.73242h-5.4209v4.64063h4.7002v1.40039h-4.7002v4.9209h5.76074v1.40039H30.97217V24.332H38.314l-.10009.7002Z" fill="#383c45"/><path d="M48.95361,23.332v14.7627h-1.46l-.08984-.74024-.08985-.74023a3.76352,3.76352,0,0,1-1.27551,1.25036,3.50662,3.50662,0,0,1-1.786.47034,3.43091,3.43091,0,0,1-2.93249-1.493,6.8807,6.8807,0,0,1-1.02747-3.9679A6.811,6.811,0,0,1,41.385,28.89526a3.7113,3.7113,0,0,1,4.68311-1.173,4.47065,4.47065,0,0,1,1.20581.93v-5.5205l.83984.10009ZM47.27393,35.334V30.09277a3.89416,3.89416,0,0,0-1.078-1.03259,2.67279,2.67279,0,0,0-1.423-.38733,2.24158,2.24158,0,0,0-1.95557,1.04,5.67507,5.67507,0,0,0-.72509,3.14063,5.97709,5.97709,0,0,0,.65759,3.1206,2.054,2.054,0,0,0,1.84338,1.02,2.69956,2.69956,0,0,0,1.53516-.43237A4.15935,4.15935,0,0,0,47.27393,35.334Z" fill="#383c45"/><path d="M54.773,23.77148a1.1445,1.1445,0,0,1-.3302.82764,1.21249,1.21249,0,0,1-.87.33252,1.18337,1.18337,0,0,1-.8529-.33252,1.20882,1.20882,0,0,1,0-1.65527,1.18337,1.18337,0,0,1,.8529-.33252,1.21249,1.21249,0,0,1,.87.33252A1.14449,1.14449,0,0,1,54.773,23.77148Zm-.33984,14.32325H52.75244V27.57227h1.68067V38.09473Z" fill="#383c45"/><path d="M63.47314,37.63477a4.03131,4.03131,0,0,1-1.08544.52258,4.19935,4.19935,0,0,1-1.23487.17761,2.73327,2.73327,0,0,1-2.04321-.75024,3.05042,3.05042,0,0,1-.738-2.19019V28.87305H56.55127V27.57227h1.82031V25.15234l.84033-.09033.84034-.09033v2.60059h2.541l-.09033.65039-.09033.65039H60.05225v6.4414a1.946,1.946,0,0,0,.30749,1.22242,1.2043,1.2043,0,0,0,1.01282.3977,2.4327,2.4327,0,0,0,.72265-.10742,3.532,3.532,0,0,0,.73731-.333l.32031.57031Z" fill="#383c45"/><path d="M75.97217,37.63477a4.03137,4.03137,0,0,1-1.08545.52258,4.19928,4.19928,0,0,1-1.23486.17761,2.73331,2.73331,0,0,1-2.04322-.75024,3.05041,3.05041,0,0,1-.738-2.19019V28.87305H69.05029V27.57227h1.82032V25.15234l.84033-.09033.84033-.09033v2.60059h2.541l-.09034.65039-.09033.65039H72.55127v6.4414a1.946,1.946,0,0,0,.30749,1.22242,1.20431,1.20431,0,0,0,1.01282.3977,2.43281,2.43281,0,0,0,.72266-.10742,3.53165,3.53165,0,0,0,.7373-.333l.32032.57031Z" fill="#383c45"/><path d="M85.773,30.55273v7.542H84.09326V30.793a2.42687,2.42687,0,0,0-.47278-1.67786,1.62344,1.62344,0,0,0-1.26745-.46277,2.58289,2.58289,0,0,0-1.57324.53272,5.24209,5.24209,0,0,0-1.22754,1.38818v7.52149H77.87158V23.35156l.84033-.1001.84034-.10009v5.9414a4.58986,4.58986,0,0,1,1.38256-1.27807,3.57749,3.57749,0,0,1,1.81763-.48267,2.91954,2.91954,0,0,1,2.23059.86768A3.38131,3.38131,0,0,1,85.773,30.55273Z" fill="#383c45"/><path d="M97.29346,33.41406H90.51221a4.43735,4.43735,0,0,0,.93737,2.72254,2.57847,2.57847,0,0,0,2.00306.8175,4.2334,4.2334,0,0,0,1.43274-.22986,5.53,5.53,0,0,0,1.328-.70959l.37012.5.37011.5a6.1,6.1,0,0,1-1.65307.96777,5.46688,5.46688,0,0,1-1.968.35254,4.24768,4.24768,0,0,1-3.38794-1.44788,6.02162,6.02162,0,0,1-1.21265-3.95349A6.67742,6.67742,0,0,1,89.88684,28.895a3.82879,3.82879,0,0,1,3.16541-1.563,3.89479,3.89479,0,0,1,3.1986,1.38782,5.943,5.943,0,0,1,1.08265,3.77331c0,.18018-.00513.35523-.0127.51282S97.30322,33.30371,97.29346,33.41406Zm-1.62012-1.40039a4.083,4.083,0,0,0-.63794-2.46582,2.28283,2.28283,0,0,0-1.94311-.875,2.15194,2.15194,0,0,0-1.78516.82764,4.73789,4.73789,0,0,0-.79492,2.67334h5.16113v-.16016Z" fill="#383c45"/><path d="M118.97412,30.55273v7.542h-1.68066V30.793a2.5575,2.5575,0,0,0-.45032-1.67786,1.37758,1.37758,0,0,0-1.11023-.46277,2.16571,2.16571,0,0,0-1.44751.53516,6.04956,6.04956,0,0,0-1.13257,1.40527v7.502h-1.68066V30.793a2.5575,2.5575,0,0,0-.45032-1.67786,1.37758,1.37758,0,0,0-1.11023-.46277,2.19063,2.19063,0,0,0-1.4552.53516,5.72231,5.72231,0,0,0-1.12488,1.40527v7.502h-1.68066V27.57227h1.44043l.06982.80029.06983.80029a4.53533,4.53533,0,0,1,1.31042-1.33313,3.27465,3.27465,0,0,1,1.79016-.50769,2.62874,2.62874,0,0,1,2.64063,1.94043,4.75893,4.75893,0,0,1,1.3407-1.40527,3.25069,3.25069,0,0,1,1.82043-.53516,2.67175,2.67175,0,0,1,2.06531.86768A3.47223,3.47223,0,0,1,118.97412,30.55273Z" fill="#383c45"/><path d="M130.55225,37.1543l-.19971.59033-.19971.59033a2.57074,2.57074,0,0,1-1.258-.46545,2.05582,2.05582,0,0,1-.70289-1.15467,3.48664,3.48664,0,0,1-1.37023,1.23011,3.99851,3.99851,0,0,1-1.78992.39,3.38445,3.38445,0,0,1-2.441-.88538,3.13338,3.13338,0,0,1-.88025-2.29528,3.02074,3.02074,0,0,1,1.20044-2.56079,5.59983,5.59983,0,0,1,3.36108-.88062h1.71973v-.83984a2.145,2.145,0,0,0-.56006-1.66529,2.43337,2.43337,0,0,0-1.69971-.49487,6.59611,6.59611,0,0,0-1.31567.14758,11.76244,11.76244,0,0,0-1.52515.4325l-.21-.62012-.21-.62012a11.63531,11.63531,0,0,1,1.81763-.54052,8.643,8.643,0,0,1,1.74292-.18018,3.76609,3.76609,0,0,1,2.75781.91272,3.45018,3.45018,0,0,1,.88281,2.54822v4.88086a1.81626,1.81626,0,0,0,.23011,1.03284A1.221,1.221,0,0,0,130.55225,37.1543ZM127.9917,35.334v-2.5h-1.5a3.75216,3.75216,0,0,0-2.23547.55762,1.95925,1.95925,0,0,0-.76551,1.68262,2.04871,2.04871,0,0,0,.48767,1.47034,1.90736,1.90736,0,0,0,1.43323.51013,2.60616,2.60616,0,0,0,1.49255-.43262A3.4236,3.4236,0,0,0,127.9917,35.334Z" fill="#383c45"/><path d="M142.09229,32.81348a6.89083,6.89083,0,0,1-1.04505,3.9685,3.5737,3.5737,0,0,1-3.05554,1.553,3.89633,3.89633,0,0,1-1.60535-.31506,3.25794,3.25794,0,0,1-1.215-.94568v5.041l-.84034.1001-.84033.1001V27.57227h1.44043l.06983.73046.06982.73047a4.09663,4.09663,0,0,1,1.38318-1.256,3.64707,3.64707,0,0,1,1.75745-.44519A3.31649,3.31649,0,0,1,141.17981,28.82,7.32048,7.32048,0,0,1,142.09229,32.81348Zm-1.82032,0a6.20889,6.20889,0,0,0-.61511-3.12061,2.00615,2.00615,0,0,0-1.84485-1.02,2.60523,2.60523,0,0,0-1.53821.51245,4.53259,4.53259,0,0,0-1.10241,1.18775v5.2207a3.18634,3.18634,0,0,0,1.04516,1.00281,2.72106,2.72106,0,0,0,1.37476.35754,2.237,2.237,0,0,0,1.99292-1.01269A5.7133,5.7133,0,0,0,140.272,32.81348Z" fill="#383c45"/><path d="M158.45117,23.332v14.7627h-1.459l-.08985-.74024-.08984-.74023a3.76325,3.76325,0,0,1-1.27557,1.25036,3.50773,3.50773,0,0,1-1.78644.47034,3.43094,3.43094,0,0,1-2.9325-1.493,6.88078,6.88078,0,0,1-1.02746-3.9679,6.811,6.811,0,0,1,1.09253-3.97876,3.7117,3.7117,0,0,1,4.68341-1.173,4.45991,4.45991,0,0,1,1.205.93v-5.5205l.83985.10009ZM156.77148,35.334V30.09277a3.89476,3.89476,0,0,0-1.07794-1.03259,2.67174,2.67174,0,0,0-1.42254-.38733,2.24157,2.24157,0,0,0-1.95557,1.04,5.67506,5.67506,0,0,0-.7251,3.14063,5.97709,5.97709,0,0,0,.65759,3.1206,2.054,2.054,0,0,0,1.84339,1.02,2.7,2.7,0,0,0,1.53509-.43237A4.151,4.151,0,0,0,156.77148,35.334Z" fill="#383c45"/><path d="M170.0918,33.41406h-6.78125a4.43653,4.43653,0,0,0,.9375,2.72254,2.57974,2.57974,0,0,0,2.0039.8175,4.23212,4.23212,0,0,0,1.43262-.22986,5.51857,5.51857,0,0,0,1.32715-.70959l.37012.5.37011.5a6.08857,6.08857,0,0,1-1.65234.96777,5.46894,5.46894,0,0,1-1.96875.35254,4.24629,4.24629,0,0,1-3.38745-1.44788,6.02283,6.02283,0,0,1-1.21216-3.95349,6.67816,6.67816,0,0,1,1.15454-4.03857,3.82865,3.82865,0,0,1,3.16577-1.563,3.89486,3.89486,0,0,1,3.19824,1.38782,5.94227,5.94227,0,0,1,1.083,3.77331c0,.18018-.00537.35523-.01318.51282S170.10156,33.30371,170.0918,33.41406Zm-1.61914-1.40039a4.08123,4.08123,0,0,0-.63843-2.46582,2.28409,2.28409,0,0,0-1.9436-.875,2.15119,2.15119,0,0,0-1.78443.82764,4.74138,4.74138,0,0,0-.79565,2.67334h5.16211v-.16016Z" fill="#383c45"/><path d="M179.45117,28.53223l-.37012.53027-.37011.53027a5.71,5.71,0,0,0-1.34009-.6925,4.23911,4.23911,0,0,0-1.40015-.22742,2.47649,2.47649,0,0,0-1.47485.40259,1.29283,1.29283,0,0,0-.54468,1.07788,1.18717,1.18717,0,0,0,.50757,1.04468,5.53249,5.53249,0,0,0,1.81274.71509,6.27929,6.27929,0,0,1,2.57056,1.158,2.617,2.617,0,0,1,.89038,2.10279,2.7848,2.7848,0,0,1-1.23584,2.3833,4.98923,4.98923,0,0,1-2.82666.77783,6.39362,6.39362,0,0,1-2.28222-.39014,5.2352,5.2352,0,0,1-1.6377-.99072l.4502-.50976.45019-.50977a5.1823,5.1823,0,0,0,1.36279.75989,4.66385,4.66385,0,0,0,1.61768.28015,2.91336,2.91336,0,0,0,1.70239-.45276,1.47756,1.47756,0,0,0,.63745-1.24744,1.39809,1.39809,0,0,0-.5271-1.23315,6.13728,6.13728,0,0,0-2.07251-.82739,5.46348,5.46348,0,0,1-2.44629-1.1803,2.42308,2.42308,0,0,1-.73535-1.84021,2.55223,2.55223,0,0,1,1.06568-2.05359,4.37232,4.37232,0,0,1,2.655-.80774,5.72528,5.72528,0,0,1,1.94336.31519A5.871,5.871,0,0,1,179.45117,28.53223Z" fill="#383c45"/><path d="M184.41016,23.77148a1.1449,1.1449,0,0,1-.33008.82764,1.211,1.211,0,0,1-.86914.33252,1.1848,1.1848,0,0,1-.85376-.33252,1.2085,1.2085,0,0,1,0-1.65527,1.1848,1.1848,0,0,1,.85376-.33252,1.211,1.211,0,0,1,.86914.33252A1.14489,1.14489,0,0,1,184.41016,23.77148Zm-.33985,14.32325h-1.67968V27.57227h1.67968V38.09473Z" fill="#383c45"/><path d="M196.252,27.99219a6.62874,6.62874,0,0,1-1.37768.25061c-.50269.045-1.053.05993-1.66333.0697a3.166,3.166,0,0,1,1.37768,1.073,2.802,2.802,0,0,1,.46216,1.62817,3.36839,3.36839,0,0,1-1.05029,2.54236,4.192,4.192,0,0,1-2.91065.99768,4.78493,4.78493,0,0,1-.69262-.04736,3.72153,3.72153,0,0,1-.64722-.15283,1.33715,1.33715,0,0,0-.4248.45275,1.19294,1.19294,0,0,0-.15528.58826.7438.7438,0,0,0,.3.63721,1.92188,1.92188,0,0,0,1.13941.26221H192.291a3.9927,3.9927,0,0,1,2.57324.81543,2.60065,2.60065,0,0,1,.96777,2.04589A2.64837,2.64837,0,0,1,194.6189,41.493a6.59594,6.59594,0,0,1-3.62867.82239,5.91123,5.91123,0,0,1-3.508-.77527,2.71244,2.71244,0,0,1-.97241-2.36536h1.51953a1.49432,1.49432,0,0,0,.595,1.38294,4.41724,4.41724,0,0,0,2.366.43738,4.94909,4.94909,0,0,0,2.44043-.44751,1.36466,1.36466,0,0,0,.7002-1.27222,1.34276,1.34276,0,0,0-.58008-1.17065,2.8128,2.8128,0,0,0-1.59961-.3899H190.291a3.15037,3.15037,0,0,1-2.0315-.59008,1.73176,1.73176,0,0,1-.65014-1.37085,1.89715,1.89715,0,0,1,.29272-1.00269,2.709,2.709,0,0,1,.8479-.83716,3.03988,3.03988,0,0,1-1.75977-2.94043,3.4636,3.4636,0,0,1,1.12989-2.62353,4.21892,4.21892,0,0,1,2.87011-1.01807,12.04072,12.04072,0,0,0,2.93531-.21472,8.75349,8.75349,0,0,0,1.82641-.66516l.25.77Zm-7.543,2.98144a2.57667,2.57667,0,0,0,.606,1.78479,2.55571,2.55571,0,0,0,3.42822.03,2.60275,2.60275,0,0,0,.58692-1.81482,2.52121,2.52121,0,0,0-.58472-1.79565,2.316,2.316,0,0,0-1.75513-.62525,2.18557,2.18557,0,0,0-1.70312.68531A2.564,2.564,0,0,0,188.709,30.97363Z" fill="#383c45"/><path d="M206.11133,30.55273v7.542h-1.67969V30.793a2.47177,2.47177,0,0,0-.45532-1.67786,1.59471,1.59471,0,0,0-1.26538-.46277,2.59852,2.59852,0,0,0-1.59766.53516,5.20484,5.20484,0,0,0-1.22265,1.40527v7.502H198.209V27.57227h1.44141l.06934.80029.06933.80029A4.45932,4.45932,0,0,1,201.2,27.83972a3.71854,3.71854,0,0,1,1.88989-.50769,2.92423,2.92423,0,0,1,2.23877.86035A3.388,3.388,0,0,1,206.11133,30.55273Z" fill="#383c45"/><path d="M220.39063,37.63477a4.04291,4.04291,0,0,1-1.08619.52258,4.19668,4.19668,0,0,1-1.23413.17761,2.73328,2.73328,0,0,1-2.04321-.75024,3.05042,3.05042,0,0,1-.738-2.19019V28.87305h-1.82031V27.57227h1.82031V25.15234l.83985-.09033.83984-.09033v2.60059h2.541l-.08985.65039-.08984.65039h-2.36133v6.4414a1.94507,1.94507,0,0,0,.30786,1.22242,1.20431,1.20431,0,0,0,1.01245.3977,2.43723,2.43723,0,0,0,.72315-.10742,3.52951,3.52951,0,0,0,.73779-.333l.32031.57031Z" fill="#383c45"/><path d="M230.55078,32.81348A6.23194,6.23194,0,0,1,229.3335,36.812a4.63411,4.63411,0,0,1-6.83692.035,6.17546,6.17546,0,0,1-1.20752-3.99353,6.23077,6.23077,0,0,1,1.218-3.99854,4.64929,4.64929,0,0,1,6.84351-.04236A6.18623,6.18623,0,0,1,230.55078,32.81348Zm-7.46094.04a5.42713,5.42713,0,0,0,.72754,3.10315,2.66623,2.66623,0,0,0,4.19532-.005,5.47593,5.47593,0,0,0,.7373-3.13818,5.42711,5.42711,0,0,0-.72754-3.10315,2.6587,2.6587,0,0,0-4.188.005A5.45212,5.45212,0,0,0,223.08984,32.85352Z" fill="#383c45"/><path d="M246.89063,37.1543l-.2002.59033-.2002.59033a2.56985,2.56985,0,0,1-1.25732-.46545,2.05914,2.05914,0,0,1-.70361-1.15467,3.48658,3.48658,0,0,1-1.36988,1.23011,3.9982,3.9982,0,0,1-1.79028.39,3.3829,3.3829,0,0,1-2.44018-.88538,3.13378,3.13378,0,0,1-.88013-2.29528,3.021,3.021,0,0,1,1.2-2.56079,5.59774,5.59774,0,0,1,3.3606-.88062h1.7207v-.83984a2.145,2.145,0,0,0-.56006-1.66529,2.43337,2.43337,0,0,0-1.69971-.49487,6.6026,6.6026,0,0,0-1.31616.14758,11.757,11.757,0,0,0-1.52563.4325l-.21-.62012-.21-.62012a11.63563,11.63563,0,0,1,1.81763-.54052,8.64312,8.64312,0,0,1,1.74292-.18018,3.76608,3.76608,0,0,1,2.75781.91272,3.45018,3.45018,0,0,1,.88282,2.54822v4.88086a1.81517,1.81517,0,0,0,.23022,1.03284A1.22187,1.22187,0,0,0,246.89063,37.1543ZM244.33008,35.334v-2.5h-1.5a3.75434,3.75434,0,0,0-2.23633.55762,1.959,1.959,0,0,0-.76562,1.68262,2.04817,2.04817,0,0,0,.48779,1.47034,1.90884,1.90884,0,0,0,1.43408.51013,2.60639,2.60639,0,0,0,1.49219-.43262A3.4233,3.4233,0,0,0,244.33008,35.334Z" fill="#383c45"/><path d="M249.60938,36.09473V23.332l.83984-.1001.83984-.10009V36.05469a1.07531,1.07531,0,0,0,.16309.65747.62986.62986,0,0,0,.53808.22241,2.22211,2.22211,0,0,0,.37232-.03,1.598,1.598,0,0,0,.3269-.09009l.21973.59034.21973.59033a2.95775,2.95775,0,0,1-.64673.24463,3.08954,3.08954,0,0,1-.75366.09521,2.08563,2.08563,0,0,1-1.53931-.57263A2.30457,2.30457,0,0,1,249.60938,36.09473Z" fill="#383c45"/><path d="M257.60938,23.77148a1.1449,1.1449,0,0,1-.33008.82764,1.211,1.211,0,0,1-.86914.33252,1.1848,1.1848,0,0,1-.85376-.33252,1.2085,1.2085,0,0,1,0-1.65527,1.1848,1.1848,0,0,1,.85376-.33252,1.211,1.211,0,0,1,.86914.33252A1.14489,1.14489,0,0,1,257.60938,23.77148Zm-.33985,14.32325h-1.67969V27.57227h1.67969V38.09473Z" fill="#383c45"/><path d="M269.45117,27.99219a6.62874,6.62874,0,0,1-1.37768.25061c-.50269.045-1.053.05993-1.66333.0697a3.166,3.166,0,0,1,1.37768,1.073,2.8021,2.8021,0,0,1,.46216,1.62817,3.36839,3.36839,0,0,1-1.05029,2.54236,4.192,4.192,0,0,1-2.91065.99768,4.78493,4.78493,0,0,1-.69262-.04736,3.72153,3.72153,0,0,1-.64722-.15283,1.33728,1.33728,0,0,0-.42481.45275,1.193,1.193,0,0,0-.15527.58826.7438.7438,0,0,0,.3.63721,1.92187,1.92187,0,0,0,1.1394.26221h1.68164a3.9927,3.9927,0,0,1,2.57325.81543,2.60065,2.60065,0,0,1,.96777,2.04589,2.64837,2.64837,0,0,1-1.21313,2.33777,6.596,6.596,0,0,1-3.62867.82239,5.91123,5.91123,0,0,1-3.50805-.77527,2.71245,2.71245,0,0,1-.97242-2.36536h1.51954a1.49432,1.49432,0,0,0,.595,1.38294,4.41722,4.41722,0,0,0,2.366.43738,4.94909,4.94909,0,0,0,2.44043-.44751,1.36466,1.36466,0,0,0,.7002-1.27222,1.34276,1.34276,0,0,0-.58008-1.17065,2.8128,2.8128,0,0,0-1.59961-.3899h-1.66016a3.15036,3.15036,0,0,1-2.03149-.59008,1.73174,1.73174,0,0,1-.65015-1.37085,1.89716,1.89716,0,0,1,.29273-1.00269,2.709,2.709,0,0,1,.8479-.83716,3.03988,3.03988,0,0,1-1.75977-2.94043,3.4636,3.4636,0,0,1,1.12989-2.62353,4.21892,4.21892,0,0,1,2.87011-1.01807,12.04072,12.04072,0,0,0,2.93531-.21472,8.75349,8.75349,0,0,0,1.82641-.66516l.25.77Zm-7.543,2.98144a2.57667,2.57667,0,0,0,.606,1.78479,2.55571,2.55571,0,0,0,3.42822.03,2.60275,2.60275,0,0,0,.58692-1.81482,2.52121,2.52121,0,0,0-.58472-1.79565,2.316,2.316,0,0,0-1.75513-.62525,2.18557,2.18557,0,0,0-1.70312.68531A2.564,2.564,0,0,0,261.9082,30.97363Z" fill="#383c45"/><path d="M279.31055,30.55273v7.542h-1.67969V30.793a2.47177,2.47177,0,0,0-.45532-1.67786,1.59471,1.59471,0,0,0-1.26538-.46277,2.59852,2.59852,0,0,0-1.59766.53516,5.205,5.205,0,0,0-1.22266,1.40527v7.502H271.4082V27.57227h1.44141l.06934.80029.06933.80029a4.45932,4.45932,0,0,1,1.41089-1.33313,3.71854,3.71854,0,0,1,1.88989-.50769,2.92423,2.92423,0,0,1,2.23877.86035A3.388,3.388,0,0,1,279.31055,30.55273Z" fill="#383c45"/><path d="M100.84229,62.63477a4.03151,4.03151,0,0,1-1.08545.52258A4.19935,4.19935,0,0,1,98.522,63.335a2.73328,2.73328,0,0,1-2.04321-.75024,3.05042,3.05042,0,0,1-.738-2.19019V53.87305H93.92041V52.57227h1.82031V50.15234l.84033-.09033.84034-.09033v2.60059h2.541l-.09033.65039-.09033.65039H97.42139v6.4414a1.946,1.946,0,0,0,.30749,1.22242,1.2043,1.2043,0,0,0,1.01282.3977,2.43281,2.43281,0,0,0,.72266-.10742,3.53211,3.53211,0,0,0,.7373-.333l.32031.57031Z" fill="#383c45"/><path d="M111.00342,57.81348a6.23063,6.23063,0,0,1-1.21778,3.99853,4.63369,4.63369,0,0,1-6.83654.035,6.17612,6.17612,0,0,1-1.2074-3.99353,6.23136,6.23136,0,0,1,1.21765-3.99854,4.6497,4.6497,0,0,1,6.84387-.04236A6.18617,6.18617,0,0,1,111.00342,57.81348Zm-7.46192.04a5.42713,5.42713,0,0,0,.72754,3.10315,2.66711,2.66711,0,0,0,4.19617-.005,5.47489,5.47489,0,0,0,.73743-3.13818,5.42711,5.42711,0,0,0-.72754-3.10315,2.6592,2.6592,0,0,0-4.18848.005A5.44986,5.44986,0,0,0,103.5415,57.85352Z" fill="#383c45"/><path d="M123.50146,63.1543a6.65543,6.65543,0,0,1-1.59008,2.78589,5.29786,5.29786,0,0,1-3.15015,1.37524l-.1001-.66016-.10009-.66015a4.21155,4.21155,0,0,0,2.2406-.96973,4.844,4.844,0,0,0,1.10022-1.93066h-.58008L119.541,57.8335l-1.78077-5.26123H119.561l1.45019,4.65087,1.4502,4.65088,1.42041-4.65088,1.42041-4.65087h1.74023l-1.77051,5.291Z" fill="#383c45"/><path d="M137.64307,57.81348a6.23063,6.23063,0,0,1-1.21778,3.99853,4.63369,4.63369,0,0,1-6.83654.035,6.17612,6.17612,0,0,1-1.2074-3.99353A6.23136,6.23136,0,0,1,129.599,53.855a4.6497,4.6497,0,0,1,6.84387-.04236A6.18617,6.18617,0,0,1,137.64307,57.81348Zm-7.46192.04a5.42713,5.42713,0,0,0,.72754,3.10315,2.66711,2.66711,0,0,0,4.19617-.005,5.47489,5.47489,0,0,0,.73743-3.13818,5.42711,5.42711,0,0,0-.72754-3.10315,2.6592,2.6592,0,0,0-4.18848.005A5.44986,5.44986,0,0,0,130.18115,57.85352Z" fill="#383c45"/><path d="M148.42236,63.09473h-1.43945l-.06006-.8501-.06006-.8501a4.14139,4.14139,0,0,1-1.37536,1.45032,3.67288,3.67288,0,0,1-1.94593.49011,2.82349,2.82349,0,0,1-2.16015-.83765,3.41855,3.41855,0,0,1-.78028-2.383v-7.542h1.68067v7.36132a2.39491,2.39491,0,0,0,.41748,1.59314,1.61254,1.61254,0,0,0,1.30224.46741,2.60134,2.60134,0,0,0,1.57349-.52759,4.571,4.571,0,0,0,1.16773-1.35229v-7.542h1.67968V63.09473Z" fill="#383c45"/><path d="M157.7207,52.45215l-.16015.82031-.16016.82031a3.43266,3.43266,0,0,0-.4292-.09008,3.5288,3.5288,0,0,0-.49072-.03,2.00176,2.00176,0,0,0-1.61975.73755,5.34611,5.34611,0,0,0-.95984,2.283v6.10157h-1.68067V52.57227h1.44043l.08008,1.10058.08008,1.10059a4.09032,4.09032,0,0,1,1.14514-1.82862,2.57211,2.57211,0,0,1,1.7157-.61279,4.7126,4.7126,0,0,1,.53418.03A3.93755,3.93755,0,0,1,157.7207,52.45215Z" fill="#383c45"/><path d="M173.78125,57.81348a6.75637,6.75637,0,0,1-1.09692,4.00622,3.5889,3.5889,0,0,1-3.00269,1.51526,3.44406,3.44406,0,0,1-1.61816-.39026,3.93212,3.93212,0,0,1-1.24317-1.05017l-.08008.6001-.08007.6001h-1.48047V48.332l.84082-.1001.84082-.10009v5.78125a3.94341,3.94341,0,0,1,1.2915-1.15821,3.56844,3.56844,0,0,1,1.728-.42285,3.37091,3.37091,0,0,1,2.843,1.42786A6.86861,6.86861,0,0,1,173.78125,57.81348Zm-1.82031,0a5.82785,5.82785,0,0,0-.68506-3.203,2.08318,2.08318,0,0,0-1.854-.93762,2.47582,2.47582,0,0,0-1.51319.51,4.55542,4.55542,0,0,0-1.04736,1.17066v5.18066a3.63676,3.63676,0,0,0,1.05249,1.05261,2.5354,2.5354,0,0,0,1.36743.40735,2.23609,2.23609,0,0,0,1.94775-.995A5.647,5.647,0,0,0,171.96094,57.81348Z" fill="#383c45"/><path d="M182.3418,52.45215l-.16016.82031-.16016.82031a3.21265,3.21265,0,0,0-.91992-.12011,2.00329,2.00329,0,0,0-1.62036.73755,5.33724,5.33724,0,0,0-.95972,2.283v6.10157h-1.68164V52.57227h1.44141l.08008,1.10058.08008,1.10059a4.0869,4.0869,0,0,1,1.144-1.82862,2.5707,2.5707,0,0,1,1.71533-.61279,4.73328,4.73328,0,0,1,.53589.03A3.93434,3.93434,0,0,1,182.3418,52.45215Z" fill="#383c45"/><path d="M191.94141,62.1543l-.19922.59033-.19922.59033a2.57175,2.57175,0,0,1-1.25879-.46545,2.05242,2.05242,0,0,1-.70215-1.15467,3.48683,3.48683,0,0,1-1.3706,1.23011,3.99875,3.99875,0,0,1-1.78955.39,3.386,3.386,0,0,1-2.4419-.88538,3.133,3.133,0,0,1-.88037-2.29528,3.02046,3.02046,0,0,1,1.20093-2.56079,5.602,5.602,0,0,1,3.36157-.88062h1.71875v-.83984a2.145,2.145,0,0,0-.56006-1.66529,2.43337,2.43337,0,0,0-1.69971-.49487,6.58954,6.58954,0,0,0-1.31518.14758,11.76736,11.76736,0,0,0-1.52466.4325l-.21-.62012-.21-.62012a11.63531,11.63531,0,0,1,1.81763-.54052,8.643,8.643,0,0,1,1.74292-.18018,3.76609,3.76609,0,0,1,2.75781.91272,3.45022,3.45022,0,0,1,.88281,2.54822v4.88086a1.81745,1.81745,0,0,0,.23,1.03284A1.22012,1.22012,0,0,0,191.94141,62.1543ZM189.38086,60.334v-2.5h-1.5a3.75006,3.75006,0,0,0-2.23462.55762,1.95947,1.95947,0,0,0-.76538,1.68262,2.0492,2.0492,0,0,0,.48755,1.47034,1.90582,1.90582,0,0,0,1.43237.51013,2.606,2.606,0,0,0,1.49292-.43262A3.42406,3.42406,0,0,0,189.38086,60.334Z" fill="#383c45"/><path d="M202.78125,55.55273v7.542h-1.67969V55.793a2.47171,2.47171,0,0,0-.45532-1.67786,1.59471,1.59471,0,0,0-1.26538-.46277,2.59852,2.59852,0,0,0-1.59766.53516,5.20484,5.20484,0,0,0-1.22265,1.40527v7.502h-1.67969V52.57227h1.43945l.07032.80029.07031.80029a4.44427,4.44427,0,0,1,1.41015-1.33313,3.72192,3.72192,0,0,1,1.89063-.50769,2.9214,2.9214,0,0,1,2.23706.86035A3.389,3.389,0,0,1,202.78125,55.55273Z" fill="#383c45"/><path d="M214.40039,48.332v14.7627h-1.459l-.08985-.74024-.08984-.74023a3.76291,3.76291,0,0,1-1.27564,1.25036,3.50878,3.50878,0,0,1-1.78686.47034,3.42986,3.42986,0,0,1-2.93164-1.493,6.88163,6.88163,0,0,1-1.02735-3.9679,6.81269,6.81269,0,0,1,1.09205-3.97876,3.71162,3.71162,0,0,1,4.68335-1.173,4.45928,4.45928,0,0,1,1.20507.93005v-5.5205l.83985.10009ZM212.7207,60.334V55.09277a3.89539,3.89539,0,0,0-1.07788-1.03259,2.67068,2.67068,0,0,0-1.42212-.38733,2.24266,2.24266,0,0,0-1.95605,1.04,5.67265,5.67265,0,0,0-.72559,3.14063,5.97567,5.97567,0,0,0,.65772,3.1206,2.055,2.055,0,0,0,1.84424,1.02,2.699,2.699,0,0,0,1.53466-.43237A4.15172,4.15172,0,0,0,212.7207,60.334Z" fill="#383c45"/></svg>