<svg id="ad426212-71ac-4c13-991d-50a5a991b555" data-name="Layer 1" xmlns="http://www.w3.org/2000/svg" viewBox="0 0 346 140"><title>img-text-scenario-4</title><path d="M39.75244,36.57422h5.68067l-.1001.76025-.1001.76026H38.03174V24.332h1.7207V36.57422Z" fill="#383c45"/><path d="M55.07373,33.41406H48.29248a4.43735,4.43735,0,0,0,.93738,2.72254,2.57845,2.57845,0,0,0,2.003.8175,4.2334,4.2334,0,0,0,1.43274-.22986,5.53,5.53,0,0,0,1.328-.70959l.37012.5.37012.5a6.1,6.1,0,0,1-1.65308.96777,5.46684,5.46684,0,0,1-1.968.35254,4.24769,4.24769,0,0,1-3.38794-1.44788,6.02167,6.02167,0,0,1-1.21264-3.95349,6.67742,6.67742,0,0,1,1.1549-4.03857,3.8288,3.8288,0,0,1,3.16541-1.563,3.89486,3.89486,0,0,1,3.19824,1.38782,5.94227,5.94227,0,0,1,1.083,3.77331c0,.18018-.00513.35523-.0127.51282S55.0835,33.30371,55.07373,33.41406Zm-1.62012-1.40039a4.083,4.083,0,0,0-.63794-2.46582,2.28281,2.28281,0,0,0-1.94311-.875,2.152,2.152,0,0,0-1.78516.82764,4.73789,4.73789,0,0,0-.79492,2.67334h5.16113v-.16016Z" fill="#383c45"/><path d="M65.87256,37.1543l-.19971.59033-.19971.59033a2.57074,2.57074,0,0,1-1.258-.46545,2.05575,2.05575,0,0,1-.70288-1.15467A3.48674,3.48674,0,0,1,62.142,37.945a3.99851,3.99851,0,0,1-1.78992.39,3.38445,3.38445,0,0,1-2.441-.88538,3.13338,3.13338,0,0,1-.88025-2.29528,3.02074,3.02074,0,0,1,1.20044-2.56079,5.59987,5.59987,0,0,1,3.36109-.88062H63.312v-.83984a2.145,2.145,0,0,0-.56006-1.66529,2.43336,2.43336,0,0,0-1.6997-.49487,6.5962,6.5962,0,0,0-1.31568.14758,11.76188,11.76188,0,0,0-1.52514.4325l-.21-.62012-.21-.62012a11.63563,11.63563,0,0,1,1.81763-.54052,8.64312,8.64312,0,0,1,1.74292-.18018,3.76608,3.76608,0,0,1,2.75781.91272,3.45018,3.45018,0,0,1,.88282,2.54822v4.88086a1.81627,1.81627,0,0,0,.2301,1.03284A1.221,1.221,0,0,0,65.87256,37.1543ZM63.312,35.334v-2.5h-1.5a3.75218,3.75218,0,0,0-2.23547.55762,1.95925,1.95925,0,0,0-.7655,1.68262,2.04866,2.04866,0,0,0,.48767,1.47034,1.90732,1.90732,0,0,0,1.43322.51013,2.60619,2.60619,0,0,0,1.49256-.43262A3.42358,3.42358,0,0,0,63.312,35.334Z" fill="#383c45"/><path d="M74.312,27.45215l-.16015.82031-.16016.82031a3.46181,3.46181,0,0,0-.42993-.09008,3.52268,3.52268,0,0,0-.49-.03,2.00242,2.00242,0,0,0-1.62.73755,5.34453,5.34453,0,0,0-.96008,2.28295v6.10157H68.811V27.57227h1.44042l.08008,1.10058.08008,1.10059a4.09109,4.09109,0,0,1,1.1449-1.82862A2.57124,2.57124,0,0,1,73.272,27.332a4.72309,4.72309,0,0,1,.535.03A3.936,3.936,0,0,1,74.312,27.45215Z" fill="#383c45"/><path d="M84.313,30.55273v7.542H82.6333V30.793a2.47177,2.47177,0,0,0-.45532-1.67786,1.59471,1.59471,0,0,0-1.26538-.46277,2.59852,2.59852,0,0,0-1.59766.53516,5.20484,5.20484,0,0,0-1.22265,1.40527v7.502H76.41162V27.57227h1.44043l.06983.80029.06982.80029a4.45178,4.45178,0,0,1,1.41052-1.33313,3.72026,3.72026,0,0,1,1.89026-.50769,2.92284,2.92284,0,0,1,2.23792.86035A3.38851,3.38851,0,0,1,84.313,30.55273Z" fill="#383c45"/><path d="M101.25244,30.55273v7.542H99.57275V30.793A2.42693,2.42693,0,0,0,99.1,29.11511a1.62348,1.62348,0,0,0-1.26746-.46277,2.58291,2.58291,0,0,0-1.57324.53272,5.24226,5.24226,0,0,0-1.22754,1.38818v7.52149H93.35107V23.35156l.84034-.1001.84033-.10009v5.9414a4.59,4.59,0,0,1,1.38257-1.27807,3.57743,3.57743,0,0,1,1.81762-.48267,2.91954,2.91954,0,0,1,2.23059.86768A3.38131,3.38131,0,0,1,101.25244,30.55273Z" fill="#383c45"/><path d="M113.47314,32.81348a6.23063,6.23063,0,0,1-1.21777,3.99853,4.6337,4.6337,0,0,1-6.83655.035,6.17617,6.17617,0,0,1-1.20739-3.99353,6.2313,6.2313,0,0,1,1.21765-3.99854,4.6497,4.6497,0,0,1,6.84387-.04236A6.18617,6.18617,0,0,1,113.47314,32.81348Zm-7.46191.04a5.42713,5.42713,0,0,0,.72754,3.10315,2.66711,2.66711,0,0,0,4.19617-.005,5.4749,5.4749,0,0,0,.73742-3.13818,5.42711,5.42711,0,0,0-.72754-3.10315,2.65919,2.65919,0,0,0-4.18847.005A5.44986,5.44986,0,0,0,106.01123,32.85352Z" fill="#383c45"/><path d="M126.05322,38.09473h-2.30078l-.97021-4.501-.97022-4.501-1,4.501-1,4.501h-2.24023l-1.25049-5.26123-1.25049-5.26123h1.7002l.99023,4.67089.99023,4.6709,1.08057-4.6709,1.08057-4.67089h1.87988l1.04053,4.67089,1.04053,4.6709,1-4.6709,1-4.67089h1.60058l-1.21045,5.26123Z" fill="#383c45"/><path d="M140.231,38.1543a6.65555,6.65555,0,0,1-1.59009,2.78589,5.29786,5.29786,0,0,1-3.15015,1.37524l-.10009-.66016-.1001-.66015a4.21152,4.21152,0,0,0,2.2406-.96973,4.844,4.844,0,0,0,1.10022-1.93066h-.58008l-1.78076-5.26123-1.78076-5.26123h1.80078l1.45019,4.65087,1.4502,4.65088,1.42041-4.65088,1.42041-4.65087H143.772l-1.77051,5.291Z" fill="#383c45"/><path d="M154.37256,32.81348a6.23069,6.23069,0,0,1-1.21777,3.99853,4.6337,4.6337,0,0,1-6.83655.035,6.17612,6.17612,0,0,1-1.2074-3.99353,6.23136,6.23136,0,0,1,1.21765-3.99854,4.6497,4.6497,0,0,1,6.84387-.04236A6.18617,6.18617,0,0,1,154.37256,32.81348Zm-7.46192.04a5.42713,5.42713,0,0,0,.72754,3.10315,2.66711,2.66711,0,0,0,4.19617-.005,5.47489,5.47489,0,0,0,.73743-3.13818,5.42711,5.42711,0,0,0-.72754-3.10315,2.6592,2.6592,0,0,0-4.18848.005A5.44986,5.44986,0,0,0,146.91064,32.85352Z" fill="#383c45"/><path d="M165.15283,38.09473H163.7124l-.06006-.8501-.06005-.8501a4.1415,4.1415,0,0,1-1.37537,1.45032,3.67286,3.67286,0,0,1-1.94592.49011,2.82351,2.82351,0,0,1-2.16016-.83765,3.41855,3.41855,0,0,1-.78027-2.383v-7.542h1.68066v7.36132a2.39491,2.39491,0,0,0,.41748,1.59314,1.61255,1.61255,0,0,0,1.30225.46741,2.60131,2.60131,0,0,0,1.57348-.52759,4.571,4.571,0,0,0,1.16773-1.35229v-7.542h1.68066V38.09473Z" fill="#383c45"/><path d="M174.45117,27.45215l-.16015.82031-.16016.82031a3.43266,3.43266,0,0,0-.4292-.09008,3.5288,3.5288,0,0,0-.49072-.03,2.00181,2.00181,0,0,0-1.61957.73755,5.3453,5.3453,0,0,0-.96,2.28295v6.10157h-1.68067V27.57227h1.44043l.08008,1.10058.08008,1.10059a4.09047,4.09047,0,0,1,1.145-1.82862,2.572,2.572,0,0,1,1.71588-.61279,4.71273,4.71273,0,0,1,.53418.03A3.93787,3.93787,0,0,1,174.45117,27.45215Z" fill="#383c45"/><path d="M188.91211,28.45312l-.41016.52979-.41015.52979a4.02491,4.02491,0,0,0-1.06592-.585,3.5995,3.5995,0,0,0-1.21533-.19531,2.39682,2.39682,0,0,0-2.05542,1.02295,5.40054,5.40054,0,0,0-.7649,3.13818,5.03628,5.03628,0,0,0,.7649,3.05079,2.43146,2.43146,0,0,0,2.05542.95019,3.36827,3.36827,0,0,0,1.20556-.20764,5.06489,5.06489,0,0,0,1.11475-.61267l.39062.55029.39063.55029a4.90937,4.90937,0,0,1-1.46826.865A4.85185,4.85185,0,0,1,185.75,38.335a4.20079,4.20079,0,0,1-3.33057-1.4353,6.04452,6.04452,0,0,1-1.23-3.9856,6.37554,6.37554,0,0,1,1.22266-4.05151A4.133,4.133,0,0,1,185.75,27.332a5.03484,5.03484,0,0,1,1.67847.26026A4.72135,4.72135,0,0,1,188.91211,28.45312Z" fill="#383c45"/><path d="M198.91016,38.09473H197.4707l-.05957-.8501-.05957-.8501a4.14654,4.14654,0,0,1-1.37622,1.45032,3.6736,3.6736,0,0,1-1.946.49011,2.822,2.822,0,0,1-2.15967-.83765,3.4196,3.4196,0,0,1-.77979-2.383v-7.542h1.67969v7.36132a2.39338,2.39338,0,0,0,.418,1.59314,1.614,1.614,0,0,0,1.30273.46741,2.59935,2.59935,0,0,0,1.573-.52759,4.57311,4.57311,0,0,0,1.16724-1.35229v-7.542h1.67969V38.09473Z" fill="#383c45"/><path d="M209.07031,28.53223l-.37011.53027-.37012.53027a5.71,5.71,0,0,0-1.34009-.6925,4.23911,4.23911,0,0,0-1.40015-.22742,2.47649,2.47649,0,0,0-1.47485.40259,1.29283,1.29283,0,0,0-.54468,1.07788,1.18717,1.18717,0,0,0,.50757,1.04468,5.53247,5.53247,0,0,0,1.81275.71509,6.27931,6.27931,0,0,1,2.57055,1.158,2.617,2.617,0,0,1,.89038,2.10279,2.7848,2.7848,0,0,1-1.23584,2.3833,4.98923,4.98923,0,0,1-2.82666.77783,6.39362,6.39362,0,0,1-2.28222-.39014,5.23531,5.23531,0,0,1-1.6377-.99072l.4502-.50976.45019-.50977a5.1823,5.1823,0,0,0,1.36279.75989,4.66385,4.66385,0,0,0,1.61768.28015,2.91336,2.91336,0,0,0,1.70239-.45276,1.47756,1.47756,0,0,0,.63745-1.24744,1.39809,1.39809,0,0,0-.5271-1.23315,6.13728,6.13728,0,0,0-2.07251-.82739,5.46338,5.46338,0,0,1-2.44628-1.1803,2.42306,2.42306,0,0,1-.73536-1.84021,2.55223,2.55223,0,0,1,1.06568-2.05359,4.37232,4.37232,0,0,1,2.655-.80774,5.72528,5.72528,0,0,1,1.94336.31519A5.871,5.871,0,0,1,209.07031,28.53223Z" fill="#383c45"/><path d="M217.252,37.63477a4.0427,4.0427,0,0,1-1.08618.52258,4.19673,4.19673,0,0,1-1.23413.17761,2.73327,2.73327,0,0,1-2.04321-.75024,3.05037,3.05037,0,0,1-.738-2.19019V28.87305h-1.82031V27.57227h1.82031V25.15234l.83984-.09033.83985-.09033v2.60059h2.541l-.08984.65039-.08984.65039h-2.36133v6.4414a1.94507,1.94507,0,0,0,.30786,1.22242,1.2043,1.2043,0,0,0,1.01245.3977,2.43723,2.43723,0,0,0,.72315-.10742,3.52951,3.52951,0,0,0,.73779-.333l.32031.57031Z" fill="#383c45"/><path d="M227.41211,32.81348a6.22937,6.22937,0,0,1-1.21826,3.99853,4.63328,4.63328,0,0,1-6.83618.035,6.17678,6.17678,0,0,1-1.20728-3.99353,6.232,6.232,0,0,1,1.21729-3.99854,4.65011,4.65011,0,0,1,6.84423-.04236A6.18617,6.18617,0,0,1,227.41211,32.81348Zm-7.46289.04a5.42713,5.42713,0,0,0,.72754,3.10315,2.668,2.668,0,0,0,4.197-.005,5.47379,5.47379,0,0,0,.73755-3.13818,5.42711,5.42711,0,0,0-.72754-3.10315,2.65971,2.65971,0,0,0-4.189.005A5.44768,5.44768,0,0,0,219.94922,32.85352Z" fill="#383c45"/><path d="M243.8125,30.55273v7.542h-1.67969V30.793a2.55663,2.55663,0,0,0-.45068-1.67786,1.37763,1.37763,0,0,0-1.10986-.46277,2.16571,2.16571,0,0,0-1.44751.53516,6.04931,6.04931,0,0,0-1.13257,1.40527v7.502h-1.68164V30.793a2.55837,2.55837,0,0,0-.45-1.67786,1.37753,1.37753,0,0,0-1.1106-.46277,2.18941,2.18941,0,0,0-1.45483.53516,5.73672,5.73672,0,0,0-1.12525,1.40527v7.502h-1.67969V27.57227h1.43946L232,28.37256l.07031.80029a4.53658,4.53658,0,0,1,1.31031-1.33313,3.27262,3.27262,0,0,1,1.7893-.50769,2.628,2.628,0,0,1,2.64063,1.94043,4.76614,4.76614,0,0,1,1.34155-1.40527,3.25139,3.25139,0,0,1,1.82056-.53516,2.67044,2.67044,0,0,1,2.06445.86768A3.47279,3.47279,0,0,1,243.8125,30.55273Z" fill="#383c45"/><path d="M255.332,33.41406h-6.78125a4.43817,4.43817,0,0,0,.93726,2.72254,2.57714,2.57714,0,0,0,2.00219.8175,4.23461,4.23461,0,0,0,1.43287-.22986,5.54118,5.54118,0,0,0,1.32885-.70959l.37012.5.37012.5a6.11117,6.11117,0,0,1-1.65381.96777,5.46477,5.46477,0,0,1-1.96729.35254,4.249,4.249,0,0,1-3.38842-1.44788,6.02036,6.02036,0,0,1-1.21314-3.95349A6.67668,6.67668,0,0,1,247.9248,28.895a3.82893,3.82893,0,0,1,3.165-1.563,3.89489,3.89489,0,0,1,3.19825,1.38782,5.94233,5.94233,0,0,1,1.083,3.77331c0,.18018-.00488.35523-.0122.51282S255.3418,33.30371,255.332,33.41406Zm-1.62109-1.40039a4.08479,4.08479,0,0,0-.63745-2.46582,2.28159,2.28159,0,0,0-1.94263-.875,2.15271,2.15271,0,0,0-1.78589.82764,4.73449,4.73449,0,0,0-.79419,2.67334h5.16016v-.16016Z" fill="#383c45"/><path d="M263.83008,27.45215l-.16016.82031-.16015.82031a3.433,3.433,0,0,0-.4292-.09008,3.529,3.529,0,0,0-.49073-.03,2.00154,2.00154,0,0,0-1.61963.73755,5.35184,5.35184,0,0,0-.96044,2.28295v6.10157h-1.67969V27.57227h1.43945l.08008,1.10058.08008,1.10059a4.095,4.095,0,0,1,1.14575-1.82862A2.57178,2.57178,0,0,1,262.791,27.332a4.71286,4.71286,0,0,1,.53418.03A3.93818,3.93818,0,0,1,263.83008,27.45215Z" fill="#383c45"/><path d="M271.99023,28.53223l-.37011.53027-.37012.53027a5.71,5.71,0,0,0-1.34009-.6925,4.239,4.239,0,0,0-1.40014-.22742,2.47653,2.47653,0,0,0-1.47486.40259,1.29283,1.29283,0,0,0-.54468,1.07788,1.18717,1.18717,0,0,0,.50757,1.04468,5.53247,5.53247,0,0,0,1.81275.71509,6.27931,6.27931,0,0,1,2.57055,1.158,2.617,2.617,0,0,1,.89038,2.10279,2.7848,2.7848,0,0,1-1.23584,2.3833,4.98921,4.98921,0,0,1-2.82666.77783,6.39362,6.39362,0,0,1-2.28222-.39014,5.23531,5.23531,0,0,1-1.6377-.99072l.4502-.50976.45019-.50977a5.18235,5.18235,0,0,0,1.3628.75989,4.66375,4.66375,0,0,0,1.61767.28015,2.91336,2.91336,0,0,0,1.70239-.45276,1.47755,1.47755,0,0,0,.63746-1.24744,1.39811,1.39811,0,0,0-.5271-1.23315,6.13746,6.13746,0,0,0-2.07251-.82739,5.46337,5.46337,0,0,1-2.44629-1.1803,2.423,2.423,0,0,1-.73535-1.84021,2.55225,2.55225,0,0,1,1.06567-2.05359,4.37232,4.37232,0,0,1,2.655-.80774,5.72528,5.72528,0,0,1,1.94336.31519A5.871,5.871,0,0,1,271.99023,28.53223Z" fill="#383c45"/><path d="M287.99023,38.09473h-1.43945l-.06055-.8501-.06054-.8501a4.13637,4.13637,0,0,1-1.37451,1.45032,3.67213,3.67213,0,0,1-1.9458.49011,2.825,2.825,0,0,1-2.16065-.83765,3.41756,3.41756,0,0,1-.78076-2.383v-7.542h1.68164v7.36132a2.3965,2.3965,0,0,0,.417,1.59314,1.61115,1.61115,0,0,0,1.30176.46741,2.60327,2.60327,0,0,0,1.574-.52759,4.56881,4.56881,0,0,0,1.16822-1.35229v-7.542h1.67968V38.09473Z" fill="#383c45"/><path d="M298.15039,28.53223l-.37012.53027-.37011.53027a5.71,5.71,0,0,0-1.34009-.6925,4.23911,4.23911,0,0,0-1.40015-.22742,2.48077,2.48077,0,0,0-1.47583.40259,1.29244,1.29244,0,0,0-.54565,1.07788A1.18717,1.18717,0,0,0,293.156,31.198a5.5323,5.5323,0,0,0,1.81274.71509,6.27935,6.27935,0,0,1,2.57056,1.158,2.617,2.617,0,0,1,.89038,2.10279,2.78518,2.78518,0,0,1-1.23487,2.3833,4.98487,4.98487,0,0,1-2.82568.77783,6.39886,6.39886,0,0,1-2.283-.39014,5.21756,5.21756,0,0,1-1.637-.99072l.44922-.50976.44922-.50977a5.20316,5.20316,0,0,0,1.36377.75989,4.66527,4.66527,0,0,0,1.61865.28015,2.91336,2.91336,0,0,0,1.70239-.45276,1.47756,1.47756,0,0,0,.63745-1.24744,1.39755,1.39755,0,0,0-.52807-1.23315,6.14933,6.14933,0,0,0-2.07349-.82739,5.45971,5.45971,0,0,1-2.44458-1.1803,2.42376,2.42376,0,0,1-.73511-1.84021,2.55219,2.55219,0,0,1,1.06494-2.05359,4.372,4.372,0,0,1,2.65577-.80774,5.72522,5.72522,0,0,1,1.94335.31519A5.87088,5.87088,0,0,1,298.15039,28.53223Z" fill="#383c45"/><path d="M308.92969,33.41406h-6.78125a4.43653,4.43653,0,0,0,.9375,2.72254,2.57974,2.57974,0,0,0,2.0039.8175,4.23212,4.23212,0,0,0,1.43262-.22986,5.51857,5.51857,0,0,0,1.32715-.70959l.37012.5.37011.5a6.08857,6.08857,0,0,1-1.65234.96777,5.46894,5.46894,0,0,1-1.96875.35254,4.24629,4.24629,0,0,1-3.38745-1.44788,6.02289,6.02289,0,0,1-1.21216-3.95349,6.67816,6.67816,0,0,1,1.15454-4.03857,3.82865,3.82865,0,0,1,3.16577-1.563,3.89489,3.89489,0,0,1,3.19825,1.38782,5.94233,5.94233,0,0,1,1.083,3.77331c0,.18018-.00537.35523-.01318.51282S308.93945,33.30371,308.92969,33.41406Zm-1.61914-1.40039a4.08123,4.08123,0,0,0-.63843-2.46582,2.28409,2.28409,0,0,0-1.9436-.875,2.15119,2.15119,0,0,0-1.78443.82764,4.74138,4.74138,0,0,0-.79565,2.67334h5.16211v-.16016Z" fill="#383c45"/><path d="M49.25342,62.63477a4.03137,4.03137,0,0,1-1.08545.52258,4.19928,4.19928,0,0,1-1.23486.17761,2.73331,2.73331,0,0,1-2.04322-.75024,3.05041,3.05041,0,0,1-.738-2.19019V53.87305H42.33154V52.57227h1.82032V50.15234l.84033-.09033.84033-.09033v2.60059h2.541l-.09034.65039-.09033.65039H45.83252v6.4414A1.946,1.946,0,0,0,46.14,61.53687a1.20431,1.20431,0,0,0,1.01282.3977,2.43281,2.43281,0,0,0,.72266-.10742,3.53165,3.53165,0,0,0,.7373-.333l.32032.57031Z" fill="#383c45"/><path d="M59.05322,55.55273v7.542H57.37354V55.793a2.42692,2.42692,0,0,0-.47278-1.67786,1.62346,1.62346,0,0,0-1.26746-.46277,2.58291,2.58291,0,0,0-1.57324.53272,5.24226,5.24226,0,0,0-1.22754,1.38818v7.52149H51.15186V48.35156l.84033-.1001.84033-.10009v5.9414a4.59,4.59,0,0,1,1.38257-1.27807,3.57743,3.57743,0,0,1,1.81762-.48267,2.91957,2.91957,0,0,1,2.2306.86768A3.38135,3.38135,0,0,1,59.05322,55.55273Z" fill="#383c45"/><path d="M70.57373,58.41406H63.79248a4.43735,4.43735,0,0,0,.93738,2.72254,2.57845,2.57845,0,0,0,2.00305.8175,4.2334,4.2334,0,0,0,1.43274-.22986,5.53,5.53,0,0,0,1.328-.70959l.37012.5.37012.5a6.1,6.1,0,0,1-1.65308.96777,5.46684,5.46684,0,0,1-1.968.35254,4.24769,4.24769,0,0,1-3.38794-1.44788,6.02167,6.02167,0,0,1-1.21264-3.95349,6.67742,6.67742,0,0,1,1.1549-4.03857,3.8288,3.8288,0,0,1,3.16541-1.563,3.89486,3.89486,0,0,1,3.19824,1.38782,5.94227,5.94227,0,0,1,1.083,3.77331c0,.18018-.00513.35523-.0127.51282S70.5835,58.30371,70.57373,58.41406Zm-1.62012-1.40039a4.083,4.083,0,0,0-.63794-2.46582,2.28281,2.28281,0,0,0-1.94311-.875,2.152,2.152,0,0,0-1.78516.82764,4.73789,4.73789,0,0,0-.79492,2.67334h5.16113v-.16016Z" fill="#383c45"/><path d="M75.59229,48.77148a1.14447,1.14447,0,0,1-.33021.82764,1.21248,1.21248,0,0,1-.87.33252,1.18339,1.18339,0,0,1-.85291-.33252,1.20885,1.20885,0,0,1,0-1.65527,1.18339,1.18339,0,0,1,.85291-.33252,1.21248,1.21248,0,0,1,.87.33252A1.14446,1.14446,0,0,1,75.59229,48.77148Zm-.33985,14.32325H73.57178V52.57227h1.68066V63.09473Z" fill="#383c45"/><path d="M84.55225,52.45215l-.16016.82031-.16016.82031a3.46181,3.46181,0,0,0-.42993-.09008,3.52268,3.52268,0,0,0-.49-.03,2.00239,2.00239,0,0,0-1.62.73755,5.3444,5.3444,0,0,0-.96009,2.283v6.10157H79.05127V52.57227H80.4917l.08008,1.10058.08008,1.10059a4.091,4.091,0,0,1,1.14489-1.82862,2.57126,2.57126,0,0,1,1.71546-.61279,4.723,4.723,0,0,1,.535.03A3.93618,3.93618,0,0,1,84.55225,52.45215Z" fill="#383c45"/><path d="M99.9126,55.55273v7.542H98.23291V55.793a2.47177,2.47177,0,0,0-.45532-1.67786,1.59471,1.59471,0,0,0-1.26538-.46277,2.59852,2.59852,0,0,0-1.59766.53516,5.205,5.205,0,0,0-1.22266,1.40527v7.502H92.01123V52.57227h1.44043l.06982.80029.06983.80029a4.45178,4.45178,0,0,1,1.41052-1.33313,3.7202,3.7202,0,0,1,1.89026-.50769,2.92282,2.92282,0,0,1,2.23791.86035A3.38847,3.38847,0,0,1,99.9126,55.55273Z" fill="#383c45"/><path d="M111.49268,62.1543l-.19971.59033-.19971.59033a2.57074,2.57074,0,0,1-1.258-.46545,2.05582,2.05582,0,0,1-.70289-1.15467,3.4866,3.4866,0,0,1-1.37024,1.23011,3.99844,3.99844,0,0,1-1.78991.39,3.38445,3.38445,0,0,1-2.441-.88538,3.13338,3.13338,0,0,1-.88025-2.29528,3.02072,3.02072,0,0,1,1.20044-2.56079,5.59983,5.59983,0,0,1,3.36108-.88062h1.71973v-.83984a2.145,2.145,0,0,0-.56006-1.66529,2.43337,2.43337,0,0,0-1.69971-.49487,6.59611,6.59611,0,0,0-1.31567.14758,11.76244,11.76244,0,0,0-1.52515.4325l-.21-.62012-.21-.62012a11.63531,11.63531,0,0,1,1.81763-.54052,8.643,8.643,0,0,1,1.74292-.18018,3.76609,3.76609,0,0,1,2.75781.91272,3.45018,3.45018,0,0,1,.88281,2.54822v4.88086a1.81626,1.81626,0,0,0,.23011,1.03284A1.221,1.221,0,0,0,111.49268,62.1543ZM108.93213,60.334v-2.5h-1.5a3.75216,3.75216,0,0,0-2.23547.55762,1.95925,1.95925,0,0,0-.76551,1.68262,2.04871,2.04871,0,0,0,.48767,1.47034,1.90736,1.90736,0,0,0,1.43323.51013,2.60616,2.60616,0,0,0,1.49255-.43262A3.4236,3.4236,0,0,0,108.93213,60.334Z" fill="#383c45"/><path d="M118.35205,63.09473h-2.04l-1.83056-5.26123-1.83057-5.26123h1.84082l1.43018,4.51123,1.43017,4.51123,1.41016-4.51123,1.41015-4.51123h1.78125l-1.80078,5.26123Z" fill="#383c45"/><path d="M126.09131,48.77148a1.1445,1.1445,0,0,1-.3302.82764,1.21249,1.21249,0,0,1-.87.33252,1.18337,1.18337,0,0,1-.8529-.33252,1.20882,1.20882,0,0,1,0-1.65527,1.18337,1.18337,0,0,1,.8529-.33252,1.21249,1.21249,0,0,1,.87.33252A1.14449,1.14449,0,0,1,126.09131,48.77148Zm-.33985,14.32325H124.0708V52.57227h1.68066V63.09473Z" fill="#383c45"/><path d="M137.93311,52.99219a6.62884,6.62884,0,0,1-1.37769.25061c-.50269.045-1.053.05993-1.66333.0697a3.169,3.169,0,0,1,1.37817,1.073,2.80049,2.80049,0,0,1,.46265,1.62817,3.36839,3.36839,0,0,1-1.05029,2.54236,4.192,4.192,0,0,1-2.91065.99768,4.78493,4.78493,0,0,1-.69262-.04736,3.72153,3.72153,0,0,1-.64722-.15283,1.33237,1.33237,0,0,0-.42517.45275,1.19389,1.19389,0,0,0-.15491.58826.74377.74377,0,0,0,.29968.63721,1.92191,1.92191,0,0,0,1.13977.26221h1.68067a3.9927,3.9927,0,0,1,2.57324.81543,2.60062,2.60062,0,0,1,.96777,2.04589,2.6485,2.6485,0,0,1-1.21264,2.33777,6.59355,6.59355,0,0,1-3.62818.82239,5.9135,5.9135,0,0,1-3.50854-.77527,2.71207,2.71207,0,0,1-.9729-2.36536h1.52051a1.49432,1.49432,0,0,0,.595,1.38294,4.41722,4.41722,0,0,0,2.366.43738,4.94909,4.94909,0,0,0,2.44043-.44751,1.36466,1.36466,0,0,0,.7002-1.27222,1.34258,1.34258,0,0,0-.5802-1.17065,2.815,2.815,0,0,0-1.60047-.3899h-1.66015a3.14842,3.14842,0,0,1-2.03064-.59008,1.732,1.732,0,0,1-.65-1.37085,1.89885,1.89885,0,0,1,.29224-1.00269,2.70458,2.70458,0,0,1,.84741-.83716,3.04136,3.04136,0,0,1-1.75976-2.94043,3.46327,3.46327,0,0,1,1.13-2.62353,4.22052,4.22052,0,0,1,2.871-1.01807,12.03893,12.03893,0,0,0,2.93518-.21472,8.738,8.738,0,0,0,1.82557-.66516l.25.77Zm-7.542,2.98144a2.57763,2.57763,0,0,0,.60547,1.78479,2.5557,2.5557,0,0,0,3.42822.03,2.6017,2.6017,0,0,0,.58741-1.81482,2.52072,2.52072,0,0,0-.58509-1.79565,2.316,2.316,0,0,0-1.75476-.62525,2.18551,2.18551,0,0,0-1.70349.68531A2.56442,2.56442,0,0,0,130.39111,55.97363Z" fill="#383c45"/><path d="M147.79248,62.1543l-.19971.59033-.1997.59033a2.57078,2.57078,0,0,1-1.25806-.46545,2.05581,2.05581,0,0,1-.70288-1.15467,3.48674,3.48674,0,0,1-1.37024,1.23011,3.99845,3.99845,0,0,1-1.78992.39,3.38447,3.38447,0,0,1-2.441-.88538,3.13338,3.13338,0,0,1-.88025-2.29528,3.02074,3.02074,0,0,1,1.20044-2.56079,5.59989,5.59989,0,0,1,3.36109-.88062h1.71972v-.83984a2.145,2.145,0,0,0-.56005-1.66529,2.43339,2.43339,0,0,0-1.69971-.49487,6.5962,6.5962,0,0,0-1.31568.14758,11.76277,11.76277,0,0,0-1.52514.4325l-.21-.62012-.21-.62012a11.63552,11.63552,0,0,1,1.81762-.54052A8.64312,8.64312,0,0,1,143.272,52.332a3.76612,3.76612,0,0,1,2.75782.91272,3.45022,3.45022,0,0,1,.88281,2.54822v4.88086a1.81635,1.81635,0,0,0,.2301,1.03284A1.221,1.221,0,0,0,147.79248,62.1543ZM145.23193,60.334v-2.5h-1.5a3.75218,3.75218,0,0,0-2.23547.55762,1.95925,1.95925,0,0,0-.7655,1.68262,2.04871,2.04871,0,0,0,.48767,1.47034,1.90733,1.90733,0,0,0,1.43323.51013,2.60618,2.60618,0,0,0,1.49255-.43262A3.42358,3.42358,0,0,0,145.23193,60.334Z" fill="#383c45"/><path d="M155.97217,62.63477a4.03137,4.03137,0,0,1-1.08545.52258,4.19928,4.19928,0,0,1-1.23486.17761,2.73331,2.73331,0,0,1-2.04322-.75024,3.05041,3.05041,0,0,1-.738-2.19019V53.87305h-1.82032V52.57227h1.82032V50.15234l.84033-.09033.84033-.09033v2.60059h2.541l-.09034.65039-.09033.65039h-2.36035v6.4414a1.946,1.946,0,0,0,.30749,1.22242,1.20431,1.20431,0,0,0,1.01282.3977,2.43281,2.43281,0,0,0,.72266-.10742,3.53165,3.53165,0,0,0,.7373-.333l.32032.57031Z" fill="#383c45"/><path d="M159.89111,48.77148a1.14446,1.14446,0,0,1-.3302.82764,1.21248,1.21248,0,0,1-.87.33252,1.18337,1.18337,0,0,1-.85291-.33252,1.20882,1.20882,0,0,1,0-1.65527,1.18337,1.18337,0,0,1,.85291-.33252,1.21248,1.21248,0,0,1,.87.33252A1.14445,1.14445,0,0,1,159.89111,48.77148Zm-.33984,14.32325h-1.68066V52.57227h1.68066V63.09473Z" fill="#383c45"/><path d="M171.89209,57.81348a6.23069,6.23069,0,0,1-1.21777,3.99853,4.6337,4.6337,0,0,1-6.83655.035,6.17612,6.17612,0,0,1-1.2074-3.99353A6.23136,6.23136,0,0,1,163.848,53.855a4.6497,4.6497,0,0,1,6.84387-.04236A6.18617,6.18617,0,0,1,171.89209,57.81348Zm-7.46191.04a5.42722,5.42722,0,0,0,.72753,3.10315,2.66711,2.66711,0,0,0,4.19617-.005,5.47481,5.47481,0,0,0,.73743-3.13818,5.42711,5.42711,0,0,0-.72754-3.10315,2.6592,2.6592,0,0,0-4.18848.005A5.44994,5.44994,0,0,0,164.43018,57.85352Z" fill="#383c45"/><path d="M182.87109,55.55273v7.542h-1.67968V55.793a2.47171,2.47171,0,0,0-.45533-1.67786,1.5947,1.5947,0,0,0-1.26538-.46277,2.59851,2.59851,0,0,0-1.59765.53516,5.205,5.205,0,0,0-1.22266,1.40527v7.502H174.9707V52.57227h1.43946l.07031.80029.07031.80029a4.4442,4.4442,0,0,1,1.41016-1.33313,3.72188,3.72188,0,0,1,1.89062-.50769,2.9214,2.9214,0,0,1,2.23706.86035A3.389,3.389,0,0,1,182.87109,55.55273Z" fill="#383c45"/><path d="M193.81055,51.05176v1.52051h2.59961l-.08985.65039-.08984.65039h-2.41992v9.22168h-1.68164V53.87305h-1.85938V52.57227h1.85938v-1.5a2.84492,2.84492,0,0,1,.82788-2.12281,3.339,3.339,0,0,1,2.37329-.81762,5.86994,5.86994,0,0,1,1.31079.13488,6.39123,6.39123,0,0,1,1.18921.40516l-.26953.60986-.26953.60986a4.70806,4.70806,0,0,0-.97535-.31213,4.47459,4.47459,0,0,0-.886-.08728,1.69828,1.69828,0,0,0-1.252.38244A1.59458,1.59458,0,0,0,193.81055,51.05176Z" fill="#383c45"/><path d="M206.25,63.09473h-1.43945l-.05957-.8501-.05957-.8501a4.14671,4.14671,0,0,1-1.37622,1.45032,3.67363,3.67363,0,0,1-1.94605.49011,2.822,2.822,0,0,1-2.15967-.83765,3.4196,3.4196,0,0,1-.77978-2.383v-7.542h1.67969v7.36132a2.39338,2.39338,0,0,0,.418,1.59314,1.614,1.614,0,0,0,1.30274.46741,2.59939,2.59939,0,0,0,1.573-.52759,4.57323,4.57323,0,0,0,1.16723-1.35229v-7.542H206.25V63.09473Z" fill="#383c45"/><path d="M217.95117,55.55273v7.542h-1.67969V55.793a2.47171,2.47171,0,0,0-.45532-1.67786,1.5947,1.5947,0,0,0-1.26538-.46277,2.59847,2.59847,0,0,0-1.59765.53516,5.205,5.205,0,0,0-1.22266,1.40527v7.502h-1.68164V52.57227h1.4414l.06934.80029.06934.80029a4.45928,4.45928,0,0,1,1.41088-1.33313,3.71858,3.71858,0,0,1,1.8899-.50769,2.92426,2.92426,0,0,1,2.23877.86035A3.388,3.388,0,0,1,217.95117,55.55273Z" fill="#383c45"/><path d="M228.63086,53.45312l-.41016.52979-.41015.52979a4.00238,4.00238,0,0,0-1.06519-.585,3.60482,3.60482,0,0,0-1.21606-.19531,2.397,2.397,0,0,0-2.05469,1.023,5.3983,5.3983,0,0,0-.76563,3.13818,5.03423,5.03423,0,0,0,.76563,3.05079,2.43159,2.43159,0,0,0,2.05469.95019,3.37064,3.37064,0,0,0,1.20581-.20764,5.09075,5.09075,0,0,0,1.11645-.61267l.38965.55029.38965.55029a4.91119,4.91119,0,0,1-1.468.865,4.84528,4.84528,0,0,1-1.69214.29517,4.20077,4.20077,0,0,1-3.33056-1.4353,6.04452,6.04452,0,0,1-1.23-3.9856,6.37554,6.37554,0,0,1,1.22265-4.05151A4.133,4.133,0,0,1,225.4707,52.332a5.027,5.027,0,0,1,1.67749.26026A4.72254,4.72254,0,0,1,228.63086,53.45312Z" fill="#383c45"/><path d="M236.37109,62.63477a4.0427,4.0427,0,0,1-1.08618.52258,4.19673,4.19673,0,0,1-1.23413.17761,2.73327,2.73327,0,0,1-2.04321-.75024,3.05042,3.05042,0,0,1-.738-2.19019V53.87305h-1.82031V52.57227h1.82031V50.15234l.83985-.09033.83984-.09033v2.60059h2.541l-.08984.65039-.08984.65039h-2.36133v6.4414a1.94507,1.94507,0,0,0,.30786,1.22242,1.2043,1.2043,0,0,0,1.01245.3977,2.43723,2.43723,0,0,0,.72315-.10742,3.52951,3.52951,0,0,0,.73779-.333l.32031.57031Z" fill="#383c45"/><path d="M240.28906,48.77148a1.14486,1.14486,0,0,1-.33008.82764,1.211,1.211,0,0,1-.86914.33252,1.18483,1.18483,0,0,1-.85376-.33252,1.2085,1.2085,0,0,1,0-1.65527,1.18483,1.18483,0,0,1,.85376-.33252,1.211,1.211,0,0,1,.86914.33252A1.14485,1.14485,0,0,1,240.28906,48.77148Zm-.33984,14.32325h-1.67969V52.57227h1.67969V63.09473Z" fill="#383c45"/><path d="M252.291,57.81348a6.22938,6.22938,0,0,1-1.21827,3.99853,4.63328,4.63328,0,0,1-6.83618.035,6.17683,6.17683,0,0,1-1.20727-3.99353,6.232,6.232,0,0,1,1.21728-3.99854,4.65012,4.65012,0,0,1,6.84424-.04236A6.18617,6.18617,0,0,1,252.291,57.81348Zm-7.46289.04a5.42722,5.42722,0,0,0,.72753,3.10315,2.668,2.668,0,0,0,4.197-.005,5.47387,5.47387,0,0,0,.73754-3.13818,5.42719,5.42719,0,0,0-.72753-3.10315,2.65971,2.65971,0,0,0-4.189.005A5.44768,5.44768,0,0,0,244.82813,57.85352Z" fill="#383c45"/><path d="M263.26953,55.55273v7.542h-1.67969V55.793a2.47171,2.47171,0,0,0-.45532-1.67786,1.5947,1.5947,0,0,0-1.26538-.46277,2.59852,2.59852,0,0,0-1.59766.53516,5.205,5.205,0,0,0-1.22265,1.40527v7.502h-1.67969V52.57227h1.43945l.07032.80029.07031.80029a4.4442,4.4442,0,0,1,1.41016-1.33313A3.72186,3.72186,0,0,1,260.25,52.332a2.9214,2.9214,0,0,1,2.23706.86035A3.389,3.389,0,0,1,263.26953,55.55273Z" fill="#383c45"/><path d="M274.84961,62.1543l-.19922.59033-.19922.59033a2.57175,2.57175,0,0,1-1.25879-.46545,2.05248,2.05248,0,0,1-.70215-1.15467,3.48669,3.48669,0,0,1-1.3706,1.23011,3.99875,3.99875,0,0,1-1.78955.39,3.386,3.386,0,0,1-2.4419-.88538,3.133,3.133,0,0,1-.88037-2.29528,3.02046,3.02046,0,0,1,1.20093-2.56079,5.602,5.602,0,0,1,3.36157-.88062h1.71875v-.83984a2.145,2.145,0,0,0-.56006-1.66529,2.43336,2.43336,0,0,0-1.6997-.49487,6.58963,6.58963,0,0,0-1.31519.14758,11.7678,11.7678,0,0,0-1.52466.4325l-.21-.62012-.21-.62012a11.63531,11.63531,0,0,1,1.81763-.54052,8.643,8.643,0,0,1,1.74292-.18018,3.76609,3.76609,0,0,1,2.75781.91272,3.45018,3.45018,0,0,1,.88281,2.54822v4.88086a1.81745,1.81745,0,0,0,.23,1.03284A1.22016,1.22016,0,0,0,274.84961,62.1543ZM272.28906,60.334v-2.5h-1.5a3.75006,3.75006,0,0,0-2.23462.55762,1.9595,1.9595,0,0,0-.76538,1.68262,2.0492,2.0492,0,0,0,.48755,1.47034,1.90582,1.90582,0,0,0,1.43237.51013,2.606,2.606,0,0,0,1.49292-.43262A3.424,3.424,0,0,0,272.28906,60.334Z" fill="#383c45"/><path d="M277.56836,61.09473V48.332l.84082-.1001.84082-.10009V61.05469a1.07891,1.07891,0,0,0,.16211.65747.62729.62729,0,0,0,.53711.22241,2.22727,2.22727,0,0,0,.37256-.03,1.628,1.628,0,0,0,.32861-.09009l.21973.59034.21972.59033a2.9897,2.9897,0,0,1-.64819.24463,3.08368,3.08368,0,0,1-.7522.09521,2.08854,2.08854,0,0,1-1.541-.57263A2.30359,2.30359,0,0,1,277.56836,61.09473Z" fill="#383c45"/><path d="M285.56836,48.77148a1.1449,1.1449,0,0,1-.33008.82764,1.211,1.211,0,0,1-.86914.33252,1.1848,1.1848,0,0,1-.85376-.33252,1.2085,1.2085,0,0,1,0-1.65527,1.1848,1.1848,0,0,1,.85376-.33252,1.211,1.211,0,0,1,.86914.33252A1.14489,1.14489,0,0,1,285.56836,48.77148Zm-.33984,14.32325h-1.67969V52.57227h1.67969V63.09473Z" fill="#383c45"/><path d="M294.26953,62.63477a4.02008,4.02008,0,0,1-1.08472.52258,4.20184,4.20184,0,0,1-1.23559.17761,2.73327,2.73327,0,0,1-2.04321-.75024,3.05037,3.05037,0,0,1-.738-2.19019V53.87305h-1.82031V52.57227H289.168V50.15234l.84082-.09033.84082-.09033v2.60059h2.541l-.09083.65039-.09082.65039h-2.35937v6.4414a1.94692,1.94692,0,0,0,.30713,1.22242,1.20428,1.20428,0,0,0,1.01318.3977,2.4284,2.4284,0,0,0,.72217-.10742,3.53456,3.53456,0,0,0,.73682-.333l.32031.57031Z" fill="#383c45"/><path d="M300.12891,63.1543a6.65555,6.65555,0,0,1-1.59009,2.78589,5.29786,5.29786,0,0,1-3.15015,1.37524l-.09961-.66016-.09961-.66015a4.21059,4.21059,0,0,0,2.24048-.96973,4.83881,4.83881,0,0,0,1.09937-1.93066h-.58008L296.169,57.8335l-1.78028-5.26123h1.80078l1.4502,4.65087,1.45019,4.65088,1.41993-4.65088,1.41992-4.65087h1.74023l-1.77051,5.291Z" fill="#383c45"/><path d="M44.15381,88.09473H41.853l-.97022-4.501-.97021-4.501-1,4.501-1,4.501H35.67236L34.42188,82.8335l-1.25049-5.26123h1.70019l.99024,4.67089.99023,4.6709,1.08057-4.6709,1.08056-4.67089h1.87989l1.04052,4.67089,1.04053,4.6709,1-4.6709,1-4.67089h1.60059L45.36426,82.8335Z" fill="#383c45"/><path d="M50.93213,73.77148a1.1445,1.1445,0,0,1-.3302.82764,1.21249,1.21249,0,0,1-.87.33252,1.18337,1.18337,0,0,1-.8529-.33252,1.20882,1.20882,0,0,1,0-1.65527,1.18337,1.18337,0,0,1,.8529-.33252,1.21249,1.21249,0,0,1,.87.33252A1.14449,1.14449,0,0,1,50.93213,73.77148Zm-.33984,14.32325H48.91162V77.57227h1.68067V88.09473Z" fill="#383c45"/><path d="M59.63232,87.63477a4.03146,4.03146,0,0,1-1.08544.52258A4.19935,4.19935,0,0,1,57.312,88.335a2.73327,2.73327,0,0,1-2.04321-.75024,3.05042,3.05042,0,0,1-.738-2.19019V78.87305H52.71045V77.57227h1.82031V75.15234l.84033-.09033.84034-.09033v2.60059h2.541l-.09033.65039-.09033.65039H56.21143v6.4414a1.946,1.946,0,0,0,.30749,1.22242,1.2043,1.2043,0,0,0,1.01282.3977,2.4327,2.4327,0,0,0,.72265-.10742,3.532,3.532,0,0,0,.73731-.333l.32031.57031Z" fill="#383c45"/><path d="M69.43311,80.55273v7.542H67.75342V80.793a2.42692,2.42692,0,0,0-.47278-1.67786,1.62345,1.62345,0,0,0-1.26746-.46277,2.58294,2.58294,0,0,0-1.57324.53272,5.24226,5.24226,0,0,0-1.22754,1.38818v7.52149H61.53174V73.35156l.84033-.1001.84033-.10009v5.9414A4.59,4.59,0,0,1,64.595,77.8147,3.57744,3.57744,0,0,1,66.4126,77.332a2.91955,2.91955,0,0,1,2.23059.86768A3.38135,3.38135,0,0,1,69.43311,80.55273Z" fill="#383c45"/><path d="M81.65381,82.81348A6.23069,6.23069,0,0,1,80.436,86.812a4.6337,4.6337,0,0,1-6.83655.035,7.191,7.191,0,0,1,.01025-7.99207,4.6497,4.6497,0,0,1,6.84387-.04236A6.18617,6.18617,0,0,1,81.65381,82.81348Zm-7.46192.04a5.42713,5.42713,0,0,0,.72754,3.10315,2.66711,2.66711,0,0,0,4.19617-.005,7.0139,7.0139,0,0,0,.00989-6.24133,2.6592,2.6592,0,0,0-4.18848.005A5.44986,5.44986,0,0,0,74.19189,82.85352Z" fill="#383c45"/><path d="M92.43213,88.09473H90.99268l-.06006-.8501-.06006-.8501a4.1415,4.1415,0,0,1-1.37537,1.45032,3.67284,3.67284,0,0,1-1.94592.49011,2.82353,2.82353,0,0,1-2.16016-.83765,3.4186,3.4186,0,0,1-.78027-2.383v-7.542H86.2915v7.36132a2.39491,2.39491,0,0,0,.41748,1.59314,1.61258,1.61258,0,0,0,1.30225.46741,2.60134,2.60134,0,0,0,1.57349-.52759,4.57107,4.57107,0,0,0,1.16772-1.35229v-7.542h1.67969V88.09473Z" fill="#383c45"/><path d="M101.47217,87.63477a4.03137,4.03137,0,0,1-1.08545.52258,4.19928,4.19928,0,0,1-1.23486.17761,2.73331,2.73331,0,0,1-2.04322-.75024,3.05041,3.05041,0,0,1-.738-2.19019V78.87305H94.55029V77.57227h1.82032V75.15234l.84033-.09033.84033-.09033v2.60059h2.541l-.09034.65039-.09033.65039H98.05127v6.4414a1.946,1.946,0,0,0,.30749,1.22242,1.20431,1.20431,0,0,0,1.01282.3977,2.43281,2.43281,0,0,0,.72266-.10742,3.53165,3.53165,0,0,0,.7373-.333l.32032.57031Z" fill="#383c45"/><path d="M113.97217,87.63477a4.03137,4.03137,0,0,1-1.08545.52258,4.19928,4.19928,0,0,1-1.23486.17761,2.73331,2.73331,0,0,1-2.04322-.75024,3.05041,3.05041,0,0,1-.738-2.19019V78.87305h-1.82032V77.57227h1.82032V75.15234l.84033-.09033.84033-.09033v2.60059h2.541l-.09034.65039-.09033.65039h-2.36035v6.4414a1.946,1.946,0,0,0,.30749,1.22242,1.20431,1.20431,0,0,0,1.01282.3977,2.43281,2.43281,0,0,0,.72266-.10742,3.53165,3.53165,0,0,0,.7373-.333l.32032.57031Z" fill="#383c45"/><path d="M123.772,80.55273v7.542h-1.67968V80.793a2.42692,2.42692,0,0,0-.47278-1.67786,1.62346,1.62346,0,0,0-1.26746-.46277,2.58291,2.58291,0,0,0-1.57324.53272,5.24226,5.24226,0,0,0-1.22754,1.38818v7.52149h-1.68066V73.35156l.84033-.1001.84033-.10009v5.9414a4.59,4.59,0,0,1,1.38257-1.27807,3.57743,3.57743,0,0,1,1.81762-.48267,2.91957,2.91957,0,0,1,2.2306.86768A3.38135,3.38135,0,0,1,123.772,80.55273Z" fill="#383c45"/><path d="M135.29248,83.41406h-6.78125a4.43735,4.43735,0,0,0,.93738,2.72254,2.57845,2.57845,0,0,0,2.00305.8175,4.2334,4.2334,0,0,0,1.43274-.22986,5.53,5.53,0,0,0,1.328-.70959l.37012.5.37012.5a6.1,6.1,0,0,1-1.65308.96777,5.46684,5.46684,0,0,1-1.968.35254,4.24769,4.24769,0,0,1-3.38794-1.44788,6.02167,6.02167,0,0,1-1.21264-3.95349,6.67742,6.67742,0,0,1,1.1549-4.03857,3.8288,3.8288,0,0,1,3.16541-1.563,3.89486,3.89486,0,0,1,3.19824,1.38782,5.94227,5.94227,0,0,1,1.083,3.77331c0,.18018-.00513.35523-.0127.51282S135.30225,83.30371,135.29248,83.41406Zm-1.62012-1.40039a4.083,4.083,0,0,0-.63794-2.46582,2.28281,2.28281,0,0,0-1.94311-.875,2.152,2.152,0,0,0-1.78516.82764,4.73789,4.73789,0,0,0-.79492,2.67334h5.16113v-.16016Z" fill="#383c45"/><path d="M151.55127,80.55273v7.542h-1.67969V80.793a2.47171,2.47171,0,0,0-.45532-1.67786,1.59471,1.59471,0,0,0-1.26538-.46277,2.59852,2.59852,0,0,0-1.59766.53516,5.20484,5.20484,0,0,0-1.22265,1.40527v7.502H143.6499V77.57227h1.44043l.06983.80029.06982.80029a4.45178,4.45178,0,0,1,1.41052-1.33313,3.72026,3.72026,0,0,1,1.89026-.50769,2.92284,2.92284,0,0,1,2.23792.86035A3.38851,3.38851,0,0,1,151.55127,80.55273Z" fill="#383c45"/><path d="M163.07178,83.41406h-6.78125a4.43728,4.43728,0,0,0,.93738,2.72254,2.57844,2.57844,0,0,0,2.00305.8175,4.2334,4.2334,0,0,0,1.43274-.22986,5.53,5.53,0,0,0,1.328-.70959l.37012.5.37011.5a6.1,6.1,0,0,1-1.65307.96777,5.46688,5.46688,0,0,1-1.968.35254,4.24768,4.24768,0,0,1-3.38794-1.44788,6.02162,6.02162,0,0,1-1.21265-3.95349,6.67742,6.67742,0,0,1,1.15491-4.03857,3.82879,3.82879,0,0,1,3.16541-1.563,3.89487,3.89487,0,0,1,3.19824,1.38782,5.94233,5.94233,0,0,1,1.083,3.77331c0,.18018-.00513.35523-.0127.51282S163.08154,83.30371,163.07178,83.41406Zm-1.62012-1.40039a4.083,4.083,0,0,0-.63794-2.46582,2.28283,2.28283,0,0,0-1.94311-.875,2.152,2.152,0,0,0-1.78516.82764,4.73789,4.73789,0,0,0-.79492,2.67334h5.16113v-.16016Z" fill="#383c45"/><path d="M173.91211,83.41406h-6.78174a4.43735,4.43735,0,0,0,.93738,2.72254,2.57845,2.57845,0,0,0,2.00305.8175,4.23335,4.23335,0,0,0,1.43274-.22986,5.53,5.53,0,0,0,1.328-.70959l.37036.5.37037.5a6.105,6.105,0,0,1-1.65351.96777,5.4674,5.4674,0,0,1-1.96808.35254,4.24769,4.24769,0,0,1-3.38794-1.44788,6.02167,6.02167,0,0,1-1.21264-3.95349A6.67742,6.67742,0,0,1,166.505,78.895a3.8288,3.8288,0,0,1,3.16541-1.563,3.89421,3.89421,0,0,1,3.198,1.38782,5.943,5.943,0,0,1,1.08276,3.77331c0,.18018-.00488.35523-.01221.51282S173.92188,83.30371,173.91211,83.41406Zm-1.62061-1.40039a4.083,4.083,0,0,0-.63794-2.46582,2.28281,2.28281,0,0,0-1.94311-.875,2.152,2.152,0,0,0-1.78516.82764,4.738,4.738,0,0,0-.79492,2.67334h5.16113v-.16016Z" fill="#383c45"/><path d="M184.85156,73.332v14.7627h-1.46093l-.08985-.74024-.08984-.74023a3.76442,3.76442,0,0,1-1.27539,1.25036,3.50446,3.50446,0,0,1-1.78516.47034,3.432,3.432,0,0,1-2.93335-1.493,6.87978,6.87978,0,0,1-1.02759-3.9679,6.80932,6.80932,0,0,1,1.093-3.97876,3.711,3.711,0,0,1,4.68286-1.173,4.48174,4.48174,0,0,1,1.20655.93v-5.5205l.83984.10009ZM183.17188,85.334V80.09277a3.893,3.893,0,0,0-1.07813-1.03259,2.6749,2.6749,0,0,0-1.42383-.38733,2.24049,2.24049,0,0,0-1.95508,1.04,5.67756,5.67756,0,0,0-.72461,3.14063,5.97829,5.97829,0,0,0,.65748,3.1206,2.05307,2.05307,0,0,0,1.84252,1.02,2.70007,2.70007,0,0,0,1.53565-.43237A4.16688,4.16688,0,0,0,183.17188,85.334Z" fill="#383c45"/><path d="M199.25,87.63477a4.02008,4.02008,0,0,1-1.08472.52258,4.20184,4.20184,0,0,1-1.23559.17761,2.73331,2.73331,0,0,1-2.04322-.75024,3.05041,3.05041,0,0,1-.738-2.19019V78.87305h-1.82031V77.57227h1.82031V75.15234l.84082-.09033.84082-.09033v2.60059h2.541l-.09082.65039-.09082.65039h-2.35937v6.4414a1.94685,1.94685,0,0,0,.30713,1.22242,1.20428,1.20428,0,0,0,1.01318.3977,2.42844,2.42844,0,0,0,.72217-.10742,3.53456,3.53456,0,0,0,.73682-.333l.32031.57031Z" fill="#383c45"/><path d="M209.41211,82.81348a6.22937,6.22937,0,0,1-1.21826,3.99853,4.63328,4.63328,0,0,1-6.83618.035,7.1922,7.1922,0,0,1,.01-7.99207,4.65011,4.65011,0,0,1,6.84423-.04236A6.18617,6.18617,0,0,1,209.41211,82.81348Zm-7.46289.04a5.42713,5.42713,0,0,0,.72754,3.10315,2.668,2.668,0,0,0,4.197-.005,7.01339,7.01339,0,0,0,.01-6.24133,2.65971,2.65971,0,0,0-4.189.005A5.44768,5.44768,0,0,0,201.94922,82.85352Z" fill="#383c45"/><path d="M219.86914,73.77148a1.1449,1.1449,0,0,1-.33008.82764,1.211,1.211,0,0,1-.86914.33252,1.18483,1.18483,0,0,1-.85376-.33252,1.2085,1.2085,0,0,1,0-1.65527,1.18483,1.18483,0,0,1,.85376-.33252,1.211,1.211,0,0,1,.86914.33252A1.14489,1.14489,0,0,1,219.86914,73.77148Zm-.33984,14.32325h-1.67969V77.57227h1.67969V88.09473Z" fill="#383c45"/><path d="M236.65234,80.55273v7.542H234.9707V80.793a2.55837,2.55837,0,0,0-.45-1.67786,1.37751,1.37751,0,0,0-1.11059-.46277,2.16571,2.16571,0,0,0-1.44751.53516,6.04956,6.04956,0,0,0-1.13257,1.40527v7.502h-1.67969V80.793a2.55663,2.55663,0,0,0-.45068-1.67786,1.37765,1.37765,0,0,0-1.10987-.46277,2.1918,2.1918,0,0,0-1.45556.53516,5.707,5.707,0,0,0-1.12451,1.40527v7.502h-1.68164V77.57227h1.4414l.06934.80029.06933.80029a4.53438,4.53438,0,0,1,1.31055-1.33313,3.27668,3.27668,0,0,1,1.791-.50769,2.62951,2.62951,0,0,1,2.64062,1.94043,4.752,4.752,0,0,1,1.33984-1.40527,3.25,3.25,0,0,1,1.82032-.53516,2.673,2.673,0,0,1,2.06616.86768A3.47167,3.47167,0,0,1,236.65234,80.55273Z" fill="#383c45"/><path d="M248.92969,82.81348a6.89174,6.89174,0,0,1-1.04492,3.9685,3.57266,3.57266,0,0,1-3.05469,1.553,3.896,3.896,0,0,1-1.60571-.31506,3.25766,3.25766,0,0,1-1.2146-.94568v5.041l-.84082.1001-.84082.1001V77.57227h1.4414l.06934.73046.06933.73047a4.10338,4.10338,0,0,1,1.38355-1.256,3.64533,3.64533,0,0,1,1.75708-.44519A3.31643,3.31643,0,0,1,248.01758,78.82,7.32168,7.32168,0,0,1,248.92969,82.81348Zm-1.82031,0a6.21023,6.21023,0,0,0-.615-3.12061,2.0052,2.0052,0,0,0-1.844-1.02,2.60489,2.60489,0,0,0-1.53857.51245,4.53327,4.53327,0,0,0-1.102,1.18775v5.2207a3.18625,3.18625,0,0,0,1.04516,1.00281,2.72106,2.72106,0,0,0,1.37476.35754,2.23593,2.23593,0,0,0,1.99243-1.01269A5.71594,5.71594,0,0,0,247.10938,82.81348Z" fill="#383c45"/><path d="M251.86914,86.09473V73.332l.83984-.1001.83985-.10009V86.05469a1.07531,1.07531,0,0,0,.16308.65747.62989.62989,0,0,0,.53809.22241,2.22207,2.22207,0,0,0,.37231-.03,1.598,1.598,0,0,0,.32691-.09009l.21973.59034.21972.59033a2.95755,2.95755,0,0,1-.64673.24463,3.08954,3.08954,0,0,1-.75366.09521,2.08564,2.08564,0,0,1-1.53931-.57263A2.30457,2.30457,0,0,1,251.86914,86.09473Z" fill="#383c45"/><path d="M265.58984,83.41406h-6.78125a4.43665,4.43665,0,0,0,.9375,2.72254,2.57978,2.57978,0,0,0,2.00391.8175,4.2322,4.2322,0,0,0,1.43262-.22986,5.51876,5.51876,0,0,0,1.32715-.70959l.37011.5.37012.5a6.08887,6.08887,0,0,1-1.65234.96777,5.46894,5.46894,0,0,1-1.96875.35254,4.24629,4.24629,0,0,1-3.38745-1.44788,6.02283,6.02283,0,0,1-1.21216-3.95349,6.67809,6.67809,0,0,1,1.15454-4.03857,3.82865,3.82865,0,0,1,3.16577-1.563,3.89486,3.89486,0,0,1,3.19824,1.38782,5.94227,5.94227,0,0,1,1.083,3.77331c0,.18018-.00537.35523-.01318.51282S265.59961,83.30371,265.58984,83.41406Zm-1.61914-1.40039a4.0813,4.0813,0,0,0-.63842-2.46582,2.28409,2.28409,0,0,0-1.94361-.875,2.15119,2.15119,0,0,0-1.78442.82764,4.74145,4.74145,0,0,0-.79566,2.67334h5.16211v-.16016Z" fill="#383c45"/><path d="M281.91211,80.55273v7.542h-1.68164V80.793a2.55837,2.55837,0,0,0-.45-1.67786,1.37753,1.37753,0,0,0-1.1106-.46277,2.16571,2.16571,0,0,0-1.44751.53516,6.04956,6.04956,0,0,0-1.13257,1.40527v7.502h-1.67968V80.793a2.55657,2.55657,0,0,0-.45069-1.67786,1.37763,1.37763,0,0,0-1.10986-.46277,2.19183,2.19183,0,0,0-1.45557.53516,5.7075,5.7075,0,0,0-1.12451,1.40527v7.502h-1.68164V77.57227h1.44141l.06933.80029.06934.80029a4.53425,4.53425,0,0,1,1.31055-1.33313,3.27665,3.27665,0,0,1,1.791-.50769,2.62953,2.62953,0,0,1,2.64063,1.94043A4.752,4.752,0,0,1,277.25,77.86719a3.25,3.25,0,0,1,1.82031-.53516,2.673,2.673,0,0,1,2.06616.86768A3.47162,3.47162,0,0,1,281.91211,80.55273Z" fill="#383c45"/><path d="M293.42969,83.41406h-6.78125a4.43653,4.43653,0,0,0,.9375,2.72254,2.57974,2.57974,0,0,0,2.0039.8175,4.23212,4.23212,0,0,0,1.43262-.22986,5.51857,5.51857,0,0,0,1.32715-.70959l.37012.5.37011.5a6.08857,6.08857,0,0,1-1.65234.96777,5.46894,5.46894,0,0,1-1.96875.35254,4.24629,4.24629,0,0,1-3.38745-1.44788,6.02289,6.02289,0,0,1-1.21216-3.95349,6.67816,6.67816,0,0,1,1.15454-4.03857,3.82865,3.82865,0,0,1,3.16577-1.563,3.89489,3.89489,0,0,1,3.19825,1.38782,5.94233,5.94233,0,0,1,1.083,3.77331c0,.18018-.00537.35523-.01318.51282S293.43945,83.30371,293.42969,83.41406Zm-1.61914-1.40039a4.08123,4.08123,0,0,0-.63843-2.46582,2.28409,2.28409,0,0,0-1.9436-.875,2.15119,2.15119,0,0,0-1.78443.82764,4.74138,4.74138,0,0,0-.79565,2.67334h5.16211v-.16016Z" fill="#383c45"/><path d="M304.33008,80.55273v7.542h-1.67969V80.793a2.47177,2.47177,0,0,0-.45532-1.67786,1.59471,1.59471,0,0,0-1.26538-.46277,2.59852,2.59852,0,0,0-1.59766.53516,5.20484,5.20484,0,0,0-1.22265,1.40527v7.502h-1.68165V77.57227h1.44141l.06934.80029.06933.80029a4.45932,4.45932,0,0,1,1.41089-1.33313,3.71854,3.71854,0,0,1,1.88989-.50769,2.92423,2.92423,0,0,1,2.23877.86035A3.388,3.388,0,0,1,304.33008,80.55273Z" fill="#383c45"/><path d="M313.25,87.63477a4.0427,4.0427,0,0,1-1.08618.52258,4.19673,4.19673,0,0,1-1.23413.17761,2.73331,2.73331,0,0,1-2.04322-.75024,3.05041,3.05041,0,0,1-.738-2.19019V78.87305h-1.82031V77.57227h1.82031V75.15234l.83984-.09033.83985-.09033v2.60059h2.541l-.08984.65039-.08985.65039h-2.36132v6.4414a1.94507,1.94507,0,0,0,.30786,1.22242,1.20429,1.20429,0,0,0,1.01245.3977,2.43712,2.43712,0,0,0,.72314-.10742,3.52935,3.52935,0,0,0,.7378-.333l.32031.57031Z" fill="#383c45"/><path d="M94.03271,112.1543l-.1997.59033-.19971.59033a2.57082,2.57082,0,0,1-1.25806-.46545,2.05586,2.05586,0,0,1-.70288-1.15467,3.4866,3.4866,0,0,1-1.37024,1.23011,3.99844,3.99844,0,0,1-1.78991.39,3.38445,3.38445,0,0,1-2.441-.88538,3.13338,3.13338,0,0,1-.88025-2.29528,3.02072,3.02072,0,0,1,1.20044-2.56079,5.59983,5.59983,0,0,1,3.36108-.88062h1.71973v-.83984a2.145,2.145,0,0,0-.56006-1.66529,2.43337,2.43337,0,0,0-1.69971-.49487,6.59611,6.59611,0,0,0-1.31567.14758,11.76244,11.76244,0,0,0-1.52515.4325l-.21-.62012-.21-.62012a11.63531,11.63531,0,0,1,1.81763-.54052,8.643,8.643,0,0,1,1.74292-.18018,3.76609,3.76609,0,0,1,2.75781.91272,3.45018,3.45018,0,0,1,.88281,2.54822v4.88086a1.81635,1.81635,0,0,0,.2301,1.03284A1.221,1.221,0,0,0,94.03271,112.1543ZM91.47217,110.334v-2.5h-1.5a3.75222,3.75222,0,0,0-2.23548.55762,1.95927,1.95927,0,0,0-.7655,1.68262,2.04871,2.04871,0,0,0,.48767,1.47034,1.90734,1.90734,0,0,0,1.43323.51013,2.60618,2.60618,0,0,0,1.49255-.43262A3.4236,3.4236,0,0,0,91.47217,110.334Z" fill="#383c45"/><path d="M104.9126,98.332v14.7627h-1.46l-.08985-.74024-.08984-.74023a3.76361,3.76361,0,0,1-1.27551,1.25036,3.50662,3.50662,0,0,1-1.786.47034,3.43094,3.43094,0,0,1-2.9325-1.493,6.88078,6.88078,0,0,1-1.02747-3.9679,6.811,6.811,0,0,1,1.09253-3.97876,3.7113,3.7113,0,0,1,4.68311-1.173,4.47049,4.47049,0,0,1,1.20581.93v-5.5205l.83984.10009ZM103.23291,110.334v-5.24121a3.89413,3.89413,0,0,0-1.078-1.03259,2.67282,2.67282,0,0,0-1.423-.38733,2.24157,2.24157,0,0,0-1.95556,1.04,5.67506,5.67506,0,0,0-.7251,3.14063,5.97709,5.97709,0,0,0,.65759,3.1206,2.054,2.054,0,0,0,1.84339,1.02,2.69953,2.69953,0,0,0,1.53515-.43237A4.15922,4.15922,0,0,0,103.23291,110.334Z" fill="#383c45"/><path d="M116.65283,98.332v14.7627h-1.46l-.08984-.74024-.08985-.74023a3.76352,3.76352,0,0,1-1.27551,1.25036,3.50662,3.50662,0,0,1-1.786.47034,3.43091,3.43091,0,0,1-2.93249-1.493,6.8807,6.8807,0,0,1-1.02747-3.9679,6.811,6.811,0,0,1,1.09253-3.97876,3.71129,3.71129,0,0,1,4.6831-1.173,4.47034,4.47034,0,0,1,1.20581.93v-5.5205l.83985.10009ZM114.97314,110.334v-5.24121a3.89413,3.89413,0,0,0-1.078-1.03259,2.67279,2.67279,0,0,0-1.423-.38733,2.24158,2.24158,0,0,0-1.95557,1.04,5.67506,5.67506,0,0,0-.7251,3.14063,5.977,5.977,0,0,0,.6576,3.1206,2.054,2.054,0,0,0,1.84338,1.02,2.69959,2.69959,0,0,0,1.53516-.43237A4.1592,4.1592,0,0,0,114.97314,110.334Z" fill="#383c45"/><path d="M122.47119,98.77148a1.1445,1.1445,0,0,1-.3302.82764,1.21248,1.21248,0,0,1-.87.33252,1.18337,1.18337,0,0,1-.85291-.33252,1.20882,1.20882,0,0,1,0-1.65527,1.18337,1.18337,0,0,1,.85291-.33252,1.21248,1.21248,0,0,1,.87.33252A1.14449,1.14449,0,0,1,122.47119,98.77148Zm-.33984,14.32325h-1.68067V102.57227h1.68067v10.52246Z" fill="#383c45"/><path d="M131.17139,112.63477a4.03151,4.03151,0,0,1-1.08545.52258,4.1993,4.1993,0,0,1-1.23487.17761,2.73328,2.73328,0,0,1-2.04321-.75024,3.05042,3.05042,0,0,1-.738-2.19019v-6.52148h-1.82031v-1.30078h1.82031v-2.41993l.84034-.09033.84033-.09033v2.60059h2.541l-.09033.65039-.09033.65039h-2.36035v6.4414a1.946,1.946,0,0,0,.30749,1.22242,1.20431,1.20431,0,0,0,1.01282.3977,2.43281,2.43281,0,0,0,.72266-.10742,3.53165,3.53165,0,0,0,.7373-.333l.32031.57031Z" fill="#383c45"/><path d="M135.09131,98.77148a1.1445,1.1445,0,0,1-.3302.82764,1.21249,1.21249,0,0,1-.87.33252,1.18337,1.18337,0,0,1-.8529-.33252,1.20882,1.20882,0,0,1,0-1.65527,1.18337,1.18337,0,0,1,.8529-.33252,1.21249,1.21249,0,0,1,.87.33252A1.14449,1.14449,0,0,1,135.09131,98.77148Zm-.33985,14.32325H133.0708V102.57227h1.68066v10.52246Z" fill="#383c45"/><path d="M147.09229,107.81348a6.23063,6.23063,0,0,1-1.21778,3.99853,4.6337,4.6337,0,0,1-6.83655.035,7.191,7.191,0,0,1,.01026-7.99207,4.6497,4.6497,0,0,1,6.84387-.04236A6.18617,6.18617,0,0,1,147.09229,107.81348Zm-7.46192.04a5.42713,5.42713,0,0,0,.72754,3.10315,2.66711,2.66711,0,0,0,4.19617-.005,7.01395,7.01395,0,0,0,.00988-6.24133,2.65919,2.65919,0,0,0-4.18847.005A5.44986,5.44986,0,0,0,139.63037,107.85352Z" fill="#383c45"/><path d="M158.07178,105.55273v7.542h-1.67969V105.793a2.47177,2.47177,0,0,0-.45532-1.67786,1.59471,1.59471,0,0,0-1.26538-.46277,2.59852,2.59852,0,0,0-1.59766.53516,5.205,5.205,0,0,0-1.22266,1.40527v7.502h-1.68066V102.57227h1.44043l.06982.80029.06983.80029a4.45178,4.45178,0,0,1,1.41052-1.33313,3.7202,3.7202,0,0,1,1.89026-.50769,2.92282,2.92282,0,0,1,2.23791.86035A3.38847,3.38847,0,0,1,158.07178,105.55273Z" fill="#383c45"/><path d="M169.65088,112.1543l-.19971.59033-.19971.59033a2.57074,2.57074,0,0,1-1.258-.46545,2.05575,2.05575,0,0,1-.70288-1.15467,3.48674,3.48674,0,0,1-1.37024,1.23011,3.99851,3.99851,0,0,1-1.78992.39,3.38445,3.38445,0,0,1-2.441-.88538,3.13338,3.13338,0,0,1-.88025-2.29528,3.02074,3.02074,0,0,1,1.20044-2.56079,5.59987,5.59987,0,0,1,3.36109-.88062h1.71972v-.83984a2.145,2.145,0,0,0-.56006-1.66529,2.43336,2.43336,0,0,0-1.6997-.49487,6.5962,6.5962,0,0,0-1.31568.14758,11.76232,11.76232,0,0,0-1.52514.4325l-.21-.62012-.21-.62012a11.63563,11.63563,0,0,1,1.81763-.54052,8.64312,8.64312,0,0,1,1.74292-.18018,3.76608,3.76608,0,0,1,2.75781.91272,3.45018,3.45018,0,0,1,.88282,2.54822v4.88086a1.81627,1.81627,0,0,0,.2301,1.03284A1.221,1.221,0,0,0,169.65088,112.1543Zm-2.56055-1.82032v-2.5h-1.5a3.75218,3.75218,0,0,0-2.23547.55762,1.95925,1.95925,0,0,0-.7655,1.68262,2.04866,2.04866,0,0,0,.48767,1.47034,1.90732,1.90732,0,0,0,1.43322.51013,2.60619,2.60619,0,0,0,1.49256-.43262A3.42358,3.42358,0,0,0,167.09033,110.334Z" fill="#383c45"/><path d="M172.36963,111.09473V98.332l.84058-.1001.84057-.10009v12.92285a1.079,1.079,0,0,0,.16211.65747.6273.6273,0,0,0,.53711.22241,2.22727,2.22727,0,0,0,.37256-.03,1.62777,1.62777,0,0,0,.32861-.09009l.21973.59034.21973.59033a2.98979,2.98979,0,0,1-.6482.24463,3.08368,3.08368,0,0,1-.7522.09521,2.08779,2.08779,0,0,1-1.54077-.57263A2.30406,2.30406,0,0,1,172.36963,111.09473Z" fill="#383c45"/><path d="M191.61133,112.1543l-.2002.59033-.20019.59033a2.56985,2.56985,0,0,1-1.25733-.46545,2.05925,2.05925,0,0,1-.70361-1.15467,3.48662,3.48662,0,0,1-1.36987,1.23011,3.99828,3.99828,0,0,1-1.79029.39,3.38291,3.38291,0,0,1-2.44018-.88538,3.13378,3.13378,0,0,1-.88013-2.29528,3.021,3.021,0,0,1,1.2-2.56079,5.59774,5.59774,0,0,1,3.3606-.88062h1.7207v-.83984a2.145,2.145,0,0,0-.56006-1.66529,2.43336,2.43336,0,0,0-1.6997-.49487,6.60277,6.60277,0,0,0-1.31617.14758,11.75743,11.75743,0,0,0-1.52563.4325l-.21-.62012-.21-.62012a11.63552,11.63552,0,0,1,1.81762-.54052,8.64319,8.64319,0,0,1,1.74292-.18018,3.76612,3.76612,0,0,1,2.75782.91272,3.45022,3.45022,0,0,1,.88281,2.54822v4.88086a1.81525,1.81525,0,0,0,.23022,1.03284A1.22187,1.22187,0,0,0,191.61133,112.1543Zm-2.56055-1.82032v-2.5h-1.5a3.75434,3.75434,0,0,0-2.23633.55762,1.959,1.959,0,0,0-.76562,1.68262,2.04821,2.04821,0,0,0,.48779,1.47034,1.90886,1.90886,0,0,0,1.43408.51013,2.60637,2.60637,0,0,0,1.49219-.43262A3.42312,3.42312,0,0,0,189.05078,110.334Z" fill="#383c45"/><path d="M202.45117,105.55273v7.542h-1.67969V105.793a2.47171,2.47171,0,0,0-.45532-1.67786,1.5947,1.5947,0,0,0-1.26538-.46277,2.59847,2.59847,0,0,0-1.59765.53516,5.205,5.205,0,0,0-1.22266,1.40527v7.502h-1.68164V102.57227h1.4414l.06934.80029.06934.80029a4.45928,4.45928,0,0,1,1.41088-1.33313,3.71858,3.71858,0,0,1,1.8899-.50769,2.92426,2.92426,0,0,1,2.23877.86035A3.388,3.388,0,0,1,202.45117,105.55273Z" fill="#383c45"/><path d="M214.03125,112.1543l-.2002.59033-.20019.59033a2.56977,2.56977,0,0,1-1.25732-.46545,2.05921,2.05921,0,0,1-.70362-1.15467,3.48662,3.48662,0,0,1-1.36987,1.23011,3.9982,3.9982,0,0,1-1.79028.39,3.38294,3.38294,0,0,1-2.44019-.88538,3.13378,3.13378,0,0,1-.88013-2.29528,3.021,3.021,0,0,1,1.2-2.56079,5.59774,5.59774,0,0,1,3.3606-.88062h1.7207v-.83984a2.145,2.145,0,0,0-.56006-1.66529,2.43336,2.43336,0,0,0-1.6997-.49487,6.6026,6.6026,0,0,0-1.31616.14758,11.7571,11.7571,0,0,0-1.52564.4325l-.21-.62012-.21-.62012a11.63531,11.63531,0,0,1,1.81763-.54052,8.643,8.643,0,0,1,1.74292-.18018,3.76609,3.76609,0,0,1,2.75781.91272,3.45022,3.45022,0,0,1,.88281,2.54822v4.88086a1.81516,1.81516,0,0,0,.23023,1.03284A1.22184,1.22184,0,0,0,214.03125,112.1543ZM211.4707,110.334v-2.5h-1.5a3.75431,3.75431,0,0,0-2.23632.55762,1.959,1.959,0,0,0-.76563,1.68262,2.04821,2.04821,0,0,0,.48779,1.47034,1.90888,1.90888,0,0,0,1.43409.51013,2.60636,2.60636,0,0,0,1.49218-.43262A3.42312,3.42312,0,0,0,211.4707,110.334Z" fill="#383c45"/><path d="M216.75,111.09473V98.332l.83984-.1001.83985-.10009v12.92285a1.07531,1.07531,0,0,0,.16308.65747.62989.62989,0,0,0,.53809.22241,2.22207,2.22207,0,0,0,.37231-.03,1.598,1.598,0,0,0,.32691-.09009l.21972.59034.21973.59033a2.95755,2.95755,0,0,1-.64673.24463,3.08954,3.08954,0,0,1-.75366.09521,2.08564,2.08564,0,0,1-1.53931-.57263A2.30457,2.30457,0,0,1,216.75,111.09473Z" fill="#383c45"/><path d="M226.58984,113.1543a6.65543,6.65543,0,0,1-1.59008,2.78589,5.29786,5.29786,0,0,1-3.15015,1.37524l-.09961-.66016-.09961-.66015a4.21063,4.21063,0,0,0,2.24048-.96973,4.8388,4.8388,0,0,0,1.09936-1.93066h-.58007l-1.78028-5.26123-1.78027-5.26123h1.80078l1.4502,4.65087,1.45019,4.65088,1.41992-4.65088,1.41993-4.65087h1.74023l-1.77051,5.291Z" fill="#383c45"/><path d="M237.49023,112.63477a4.02,4.02,0,0,1-1.08471.52258,4.20191,4.20191,0,0,1-1.2356.17761,2.73327,2.73327,0,0,1-2.04321-.75024,3.05042,3.05042,0,0,1-.738-2.19019v-6.52148h-1.82031v-1.30078h1.82031v-2.41993l.84082-.09033.84082-.09033v2.60059h2.541l-.09082.65039-.09082.65039h-2.35938v6.4414a1.94692,1.94692,0,0,0,.30713,1.22242,1.20429,1.20429,0,0,0,1.01319.3977,2.42833,2.42833,0,0,0,.72216-.10742,3.53433,3.53433,0,0,0,.73682-.333l.32031.57031Z" fill="#383c45"/><path d="M241.41016,98.77148a1.14407,1.14407,0,0,1-.33033.82764,1.21394,1.21394,0,0,1-.87085.33252,1.18194,1.18194,0,0,1-.852-.33252,1.20917,1.20917,0,0,1,0-1.65527,1.18194,1.18194,0,0,1,.852-.33252,1.21394,1.21394,0,0,1,.87085.33252A1.14407,1.14407,0,0,1,241.41016,98.77148Zm-.33985,14.32325h-1.68164V102.57227h1.68164v10.52246Z" fill="#383c45"/><path d="M251.87109,103.45312l-.41015.52979-.41016.52979a4.00232,4.00232,0,0,0-1.06518-.585,3.60488,3.60488,0,0,0-1.21607-.19531,2.397,2.397,0,0,0-2.05469,1.02295,5.39831,5.39831,0,0,0-.76562,3.13818,5.03423,5.03423,0,0,0,.76562,3.05079,2.43162,2.43162,0,0,0,2.05469.95019,3.3706,3.3706,0,0,0,1.20581-.20764,5.091,5.091,0,0,0,1.11646-.61267l.38965.55029.38964.55029a4.91114,4.91114,0,0,1-1.468.865,4.84528,4.84528,0,0,1-1.69214.29517,4.20079,4.20079,0,0,1-3.33057-1.4353,6.04452,6.04452,0,0,1-1.23-3.9856,6.37554,6.37554,0,0,1,1.22266-4.05151,4.133,4.133,0,0,1,3.33789-1.53052,5.027,5.027,0,0,1,1.67749.26026A4.7225,4.7225,0,0,1,251.87109,103.45312Z" fill="#383c45"/><path d="M260.73047,103.53223l-.37012.53027-.37012.53027a5.71014,5.71014,0,0,0-1.34008-.6925,4.23911,4.23911,0,0,0-1.40015-.22742,2.48077,2.48077,0,0,0-1.47583.40259,1.29244,1.29244,0,0,0-.54565,1.07788,1.18718,1.18718,0,0,0,.50756,1.04468,5.53247,5.53247,0,0,0,1.81275.71509,6.27924,6.27924,0,0,1,2.57055,1.15795,2.617,2.617,0,0,1,.89039,2.10279,2.78518,2.78518,0,0,1-1.23487,2.3833,4.98487,4.98487,0,0,1-2.82568.77783,6.39882,6.39882,0,0,1-2.283-.39014,5.21745,5.21745,0,0,1-1.637-.99072l.44922-.50976.44921-.50977a5.20348,5.20348,0,0,0,1.36377.75989,4.66537,4.66537,0,0,0,1.61866.28015,2.91336,2.91336,0,0,0,1.70239-.45276,1.47756,1.47756,0,0,0,.63745-1.24744,1.39753,1.39753,0,0,0-.52808-1.23315,6.14916,6.14916,0,0,0-2.07348-.82739,5.45971,5.45971,0,0,1-2.44458-1.1803,2.42376,2.42376,0,0,1-.73511-1.84021,2.55219,2.55219,0,0,1,1.06494-2.05359,4.372,4.372,0,0,1,2.65576-.80774,5.72523,5.72523,0,0,1,1.94336.31519A5.87088,5.87088,0,0,1,260.73047,103.53223Z" fill="#383c45"/></svg>