<svg id="b4d65815-5f3a-4f71-bbc1-3c9ea1c58296" data-name="Layer 1" xmlns="http://www.w3.org/2000/svg" viewBox="0 0 680 85"><title>img-text-scenario-4</title><path d="M36.145,36.5742h5.6807l-.1.76-.1.76H34.4243V24.332H36.145V36.5742Z" fill="#383c45"/><path d="M51.4663,33.4141H44.6851a4.4374,4.4374,0,0,0,.9373,2.7225,2.5786,2.5786,0,0,0,2.0031.8175,4.2308,4.2308,0,0,0,1.4327-.23,5.5263,5.5263,0,0,0,1.328-.71l.37.5.37.5a6.0994,6.0994,0,0,1-1.6531.9678,5.4657,5.4657,0,0,1-1.968.3526,4.2479,4.2479,0,0,1-3.388-1.4479,6.0218,6.0218,0,0,1-1.2126-3.9535A6.6774,6.6774,0,0,1,44.06,28.895a3.8288,3.8288,0,0,1,3.1654-1.563A3.8946,3.8946,0,0,1,50.4233,28.72a5.9423,5.9423,0,0,1,1.083,3.7734c0,.18-.0051.3552-.0126.5128S51.4761,33.3037,51.4663,33.4141Zm-1.62-1.4a4.0829,4.0829,0,0,0-.6379-2.4658,2.2829,2.2829,0,0,0-1.9432-.875,2.1519,2.1519,0,0,0-1.7851.8276,4.7375,4.7375,0,0,0-.7949,2.6733h5.1611v-.16Z" fill="#383c45"/><path d="M62.2651,37.1543l-.2.59-.2.59a2.5715,2.5715,0,0,1-1.258-.4655,2.0553,2.0553,0,0,1-.7029-1.1547,3.4858,3.4858,0,0,1-1.37,1.23,3.9971,3.9971,0,0,1-1.79.39,3.3844,3.3844,0,0,1-2.441-.8854,3.1335,3.1335,0,0,1-.88-2.2953,3.0207,3.0207,0,0,1,1.2005-2.5608,5.6,5.6,0,0,1,3.3611-.8806h1.72v-.84a2.1448,2.1448,0,0,0-.56-1.6652,2.4331,2.4331,0,0,0-1.7-.4949,6.59,6.59,0,0,0-1.3156.1476,11.7454,11.7454,0,0,0-1.5252.4325l-.21-.62-.21-.62a11.6392,11.6392,0,0,1,1.8176-.5405,8.6454,8.6454,0,0,1,1.7429-.18,3.7658,3.7658,0,0,1,2.7578.9128,3.45,3.45,0,0,1,.8829,2.5482v4.8808a1.8159,1.8159,0,0,0,.23,1.0329A1.2211,1.2211,0,0,0,62.2651,37.1543Zm-2.56-1.82v-2.5h-1.5a3.7521,3.7521,0,0,0-2.2355.5576,1.9594,1.9594,0,0,0-.7655,1.6826,2.0489,2.0489,0,0,0,.4877,1.47,1.9075,1.9075,0,0,0,1.4332.51,2.6063,2.6063,0,0,0,1.4926-.4326A3.4238,3.4238,0,0,0,59.7046,35.334Z" fill="#383c45"/><path d="M70.7046,27.4521l-.16.82-.16.82a3.4455,3.4455,0,0,0-.43-.09,3.525,3.525,0,0,0-.49-.03,2.0021,2.0021,0,0,0-1.62.7375,5.3444,5.3444,0,0,0-.96,2.283v6.1015H65.2036V27.5723h1.44l.08,1.1006.08,1.1005a4.0913,4.0913,0,0,1,1.1449-1.8286,2.5713,2.5713,0,0,1,1.7155-.6128,4.7045,4.7045,0,0,1,.535.03A3.9418,3.9418,0,0,1,70.7046,27.4521Z" fill="#383c45"/><path d="M80.7056,30.5527v7.542h-1.68V30.793a2.4723,2.4723,0,0,0-.4553-1.6779,1.595,1.595,0,0,0-1.2654-.4628,2.5986,2.5986,0,0,0-1.5977.5352,5.2047,5.2047,0,0,0-1.2226,1.4053v7.5019H72.8042V27.5723h1.44l.07.8.07.8a4.4514,4.4514,0,0,1,1.41-1.3332,3.7208,3.7208,0,0,1,1.89-.5077,2.9228,2.9228,0,0,1,2.2379.86A3.3887,3.3887,0,0,1,80.7056,30.5527Z" fill="#383c45"/><path d="M97.645,30.5527v7.542h-1.68V30.793a2.4272,2.4272,0,0,0-.4727-1.6779,1.6238,1.6238,0,0,0-1.2675-.4628,2.5825,2.5825,0,0,0-1.5732.5328,5.24,5.24,0,0,0-1.2276,1.3881v7.5215H89.7437V23.3516l.84-.1.84-.1v5.9414a4.59,4.59,0,0,1,1.3826-1.2781,3.5776,3.5776,0,0,1,1.8176-.4827,2.92,2.92,0,0,1,2.2306.8677A3.3814,3.3814,0,0,1,97.645,30.5527Z" fill="#383c45"/><path d="M109.8657,32.8135a6.23,6.23,0,0,1-1.2178,3.9985,4.6335,4.6335,0,0,1-6.8365.035,6.1758,6.1758,0,0,1-1.2074-3.9935,6.2313,6.2313,0,0,1,1.2177-3.9985,4.65,4.65,0,0,1,6.8438-.0424A6.186,6.186,0,0,1,109.8657,32.8135Zm-7.4619.04a5.4276,5.4276,0,0,0,.7275,3.1032,2.6672,2.6672,0,0,0,4.1962-.005,5.4748,5.4748,0,0,0,.7374-3.1382,5.4276,5.4276,0,0,0-.7275-3.1032,2.6593,2.6593,0,0,0-4.1885.005A5.45,5.45,0,0,0,102.4038,32.8535Z" fill="#383c45"/><path d="M122.4458,38.0947H120.145l-.97-4.5009-.97-4.501-1,4.501-1,4.5009h-2.24l-1.2505-5.2612-1.2505-5.2612h1.7l.99,4.6709.99,4.6709,1.0806-4.6709,1.0806-4.6709h1.88l1.04,4.6709,1.04,4.6709,1-4.6709,1-4.6709h1.6006l-1.21,5.2612Z" fill="#383c45"/><path d="M136.6235,38.1543a6.6553,6.6553,0,0,1-1.59,2.7859,5.2967,5.2967,0,0,1-3.15,1.3752l-.1-.66-.1-.66a4.2114,4.2114,0,0,0,2.2406-.97,4.8431,4.8431,0,0,0,1.1-1.9307h-.58l-1.7807-5.2612-1.7808-5.2612h1.8008l1.45,4.6508,1.45,4.6509,1.42-4.6509,1.42-4.6508h1.74l-1.7706,5.291Z" fill="#383c45"/><path d="M150.7651,32.8135a6.2307,6.2307,0,0,1-1.2177,3.9985,4.6336,4.6336,0,0,1-6.8366.035,6.1758,6.1758,0,0,1-1.2074-3.9935,6.2313,6.2313,0,0,1,1.2177-3.9985,4.65,4.65,0,0,1,6.8438-.0424A6.186,6.186,0,0,1,150.7651,32.8135Zm-7.4619.04a5.4268,5.4268,0,0,0,.7276,3.1032,2.6671,2.6671,0,0,0,4.1961-.005,5.4747,5.4747,0,0,0,.7375-3.1382,5.4268,5.4268,0,0,0-.7276-3.1032,2.6593,2.6593,0,0,0-4.1885.005A5.45,5.45,0,0,0,143.3032,32.8535Z" fill="#383c45"/><path d="M161.5454,38.0947h-1.44l-.06-.85-.06-.85a4.1406,4.1406,0,0,1-1.3754,1.45,3.6726,3.6726,0,0,1-1.9459.49,2.8237,2.8237,0,0,1-2.16-.8377,3.4187,3.4187,0,0,1-.78-2.383v-7.542h1.6807v7.3613a2.3946,2.3946,0,0,0,.4175,1.5931,1.6126,1.6126,0,0,0,1.3022.4674,2.6013,2.6013,0,0,0,1.5735-.5275,4.57,4.57,0,0,0,1.1677-1.3523v-7.542h1.6807V38.0947Z" fill="#383c45"/><path d="M170.8442,27.4521l-.16.82-.16.82a3.4478,3.4478,0,0,0-.43-.09,3.5265,3.5265,0,0,0-.49-.03,2.0024,2.0024,0,0,0-1.62.7375,5.3456,5.3456,0,0,0-.96,2.283v6.1015h-1.6806V27.5723h1.44l.08,1.1006.08,1.1005a4.0913,4.0913,0,0,1,1.1449-1.8286,2.5713,2.5713,0,0,1,1.7155-.6128,4.7032,4.7032,0,0,1,.535.03A3.9355,3.9355,0,0,1,170.8442,27.4521Z" fill="#383c45"/><path d="M185.3042,28.4531l-.41.53-.41.53a4.0142,4.0142,0,0,0-1.0656-.585,3.6025,3.6025,0,0,0-1.2157-.1953,2.3968,2.3968,0,0,0-2.055,1.023,5.3993,5.3993,0,0,0-.7653,3.1382,5.0351,5.0351,0,0,0,.7653,3.0507,2.4313,2.4313,0,0,0,2.055.95,3.3687,3.3687,0,0,0,1.2057-.2076,5.0779,5.0779,0,0,0,1.1156-.6127l.39.55.39.55a4.9109,4.9109,0,0,1-1.4681.865,4.8483,4.8483,0,0,1-1.693.2952A4.201,4.201,0,0,1,178.8125,36.9a6.0448,6.0448,0,0,1-1.23-3.9856,6.3759,6.3759,0,0,1,1.2227-4.0516,4.1331,4.1331,0,0,1,3.3379-1.53,5.03,5.03,0,0,1,1.6779.26A4.7225,4.7225,0,0,1,185.3042,28.4531Z" fill="#383c45"/><path d="M195.3032,38.0947h-1.4394l-.06-.85-.06-.85a4.1414,4.1414,0,0,1-1.3754,1.45,3.6726,3.6726,0,0,1-1.9459.49,2.8235,2.8235,0,0,1-2.16-.8377,3.4187,3.4187,0,0,1-.78-2.383v-7.542h1.6807v7.3613a2.3946,2.3946,0,0,0,.4175,1.5931,1.6125,1.6125,0,0,0,1.3022.4674,2.6013,2.6013,0,0,0,1.5735-.5275,4.5714,4.5714,0,0,0,1.1677-1.3523v-7.542h1.68V38.0947Z" fill="#383c45"/><path d="M205.4634,28.5322l-.37.53-.37.53a5.7059,5.7059,0,0,0-1.34-.6925,4.2387,4.2387,0,0,0-1.4-.2274,2.479,2.479,0,0,0-1.4753.4025,1.2927,1.2927,0,0,0-.5452,1.0779,1.1871,1.1871,0,0,0,.5076,1.0447,5.5327,5.5327,0,0,0,1.8127.7151,6.2791,6.2791,0,0,1,2.5706,1.1579,2.6171,2.6171,0,0,1,.89,2.1028,2.7851,2.7851,0,0,1-1.2354,2.3833,4.987,4.987,0,0,1-2.8262.7779,6.3967,6.3967,0,0,1-2.2826-.39,5.2267,5.2267,0,0,1-1.6373-.9907l.45-.51.45-.51a5.1941,5.1941,0,0,0,1.3633.76,4.6657,4.6657,0,0,0,1.6182.28,2.9136,2.9136,0,0,0,1.7024-.4527,1.4779,1.4779,0,0,0,.6374-1.2475,1.3977,1.3977,0,0,0-.5276-1.2331,6.142,6.142,0,0,0-2.073-.8274,5.4613,5.4613,0,0,1-2.4454-1.18,2.4235,2.4235,0,0,1-.7352-1.84A2.5521,2.5521,0,0,1,199.267,28.14a4.3719,4.3719,0,0,1,2.6554-.8078,5.7245,5.7245,0,0,1,1.9433.3152A5.8707,5.8707,0,0,1,205.4634,28.5322Z" fill="#383c45"/><path d="M213.644,37.6348a4.0311,4.0311,0,0,1-1.0854.5225,4.1976,4.1976,0,0,1-1.2349.1777,2.7334,2.7334,0,0,1-2.0432-.75,3.05,3.05,0,0,1-.738-2.19V28.873h-1.82V27.5723h1.82v-2.42l.84-.09.84-.09v2.6006h2.5411l-.09.65-.09.65h-2.36v6.4415a1.9461,1.9461,0,0,0,.3075,1.2224,1.2047,1.2047,0,0,0,1.0129.3977,2.4293,2.4293,0,0,0,.7226-.1075,3.528,3.528,0,0,0,.7373-.333l.32.57Z" fill="#383c45"/><path d="M223.8042,32.8135a6.23,6.23,0,0,1-1.2178,3.9985,4.6335,4.6335,0,0,1-6.8365.035,6.1758,6.1758,0,0,1-1.2074-3.9935A6.2313,6.2313,0,0,1,215.76,28.855a4.65,4.65,0,0,1,6.8439-.0424A6.186,6.186,0,0,1,223.8042,32.8135Zm-7.4619.04a5.4276,5.4276,0,0,0,.7275,3.1032,2.6672,2.6672,0,0,0,4.1962-.005,5.4755,5.4755,0,0,0,.7374-3.1382,5.4276,5.4276,0,0,0-.7275-3.1032,2.6593,2.6593,0,0,0-4.1885.005A5.45,5.45,0,0,0,216.3423,32.8535Z" fill="#383c45"/><path d="M240.2056,30.5527v7.542h-1.6807V30.793a2.558,2.558,0,0,0-.45-1.6779,1.3778,1.3778,0,0,0-1.11-.4628,2.1659,2.1659,0,0,0-1.4476.5352,6.0505,6.0505,0,0,0-1.1325,1.4053v7.5019h-1.6807V30.793a2.5587,2.5587,0,0,0-.45-1.6779,1.3778,1.3778,0,0,0-1.1106-.4628,2.19,2.19,0,0,0-1.4552.5352,5.7212,5.7212,0,0,0-1.1249,1.4053v7.5019h-1.6807V27.5723h1.4405l.07.8.07.8a4.5365,4.5365,0,0,1,1.31-1.3332,3.2751,3.2751,0,0,1,1.79-.5077,2.6287,2.6287,0,0,1,2.6406,1.9405,4.76,4.76,0,0,1,1.3407-1.4053,3.2509,3.2509,0,0,1,1.82-.5352A2.6721,2.6721,0,0,1,239.43,28.2,3.4724,3.4724,0,0,1,240.2056,30.5527Z" fill="#383c45"/><path d="M251.7241,33.4141h-6.7812a4.4374,4.4374,0,0,0,.9373,2.7225,2.5786,2.5786,0,0,0,2.0031.8175,4.2308,4.2308,0,0,0,1.4327-.23,5.5263,5.5263,0,0,0,1.328-.71l.37.5.37.5a6.0979,6.0979,0,0,1-1.6531.9678,5.4657,5.4657,0,0,1-1.968.3526,4.2479,4.2479,0,0,1-3.388-1.4479,6.0218,6.0218,0,0,1-1.2126-3.9535,6.6774,6.6774,0,0,1,1.1549-4.0386,3.8288,3.8288,0,0,1,3.1654-1.563,3.895,3.895,0,0,1,3.1983,1.3878,5.9429,5.9429,0,0,1,1.083,3.7734c0,.18-.0052.3552-.0127.5128S251.7339,33.3037,251.7241,33.4141Zm-1.62-1.4a4.0829,4.0829,0,0,0-.6379-2.4658,2.2829,2.2829,0,0,0-1.9432-.875,2.152,2.152,0,0,0-1.7851.8276,4.7375,4.7375,0,0,0-.7949,2.6733h5.1611v-.16Z" fill="#383c45"/><path d="M260.2231,27.4521l-.16.82-.16.82a3.4478,3.4478,0,0,0-.43-.09,3.5255,3.5255,0,0,0-.49-.03,2.0024,2.0024,0,0,0-1.62.7375,5.3456,5.3456,0,0,0-.96,2.283v6.1015h-1.6806V27.5723h1.44l.08,1.1006.08,1.1005a4.09,4.09,0,0,1,1.1449-1.8286,2.5711,2.5711,0,0,1,1.7154-.6128,4.7032,4.7032,0,0,1,.535.03A3.9355,3.9355,0,0,1,260.2231,27.4521Z" fill="#383c45"/><path d="M268.3833,28.5322l-.37.53-.37.53a5.7084,5.7084,0,0,0-1.34-.6925,4.2387,4.2387,0,0,0-1.4-.2274,2.479,2.479,0,0,0-1.4753.4025,1.2927,1.2927,0,0,0-.5452,1.0779,1.1871,1.1871,0,0,0,.5076,1.0447,5.5327,5.5327,0,0,0,1.8127.7151,6.2785,6.2785,0,0,1,2.5706,1.1579,2.6171,2.6171,0,0,1,.89,2.1028,2.7849,2.7849,0,0,1-1.2354,2.3833,4.9869,4.9869,0,0,1-2.8261.7779,6.3963,6.3963,0,0,1-2.2826-.39,5.226,5.226,0,0,1-1.6374-.9907l.45-.51.45-.51a5.1957,5.1957,0,0,0,1.3633.76,4.6662,4.6662,0,0,0,1.6182.28,2.9136,2.9136,0,0,0,1.7024-.4527,1.4777,1.4777,0,0,0,.6374-1.2475,1.3977,1.3977,0,0,0-.5276-1.2331,6.141,6.141,0,0,0-2.073-.8274,5.4613,5.4613,0,0,1-2.4454-1.18,2.4235,2.4235,0,0,1-.7352-1.84,2.5521,2.5521,0,0,1,1.0653-2.0536,4.3721,4.3721,0,0,1,2.6554-.8078,5.7241,5.7241,0,0,1,1.9433.3152A5.8707,5.8707,0,0,1,268.3833,28.5322Z" fill="#383c45"/><path d="M284.3833,38.0947h-1.44l-.06-.85-.06-.85a4.1414,4.1414,0,0,1-1.3754,1.45,3.6726,3.6726,0,0,1-1.9459.49,2.8235,2.8235,0,0,1-2.16-.8377,3.4187,3.4187,0,0,1-.78-2.383v-7.542h1.6807v7.3613a2.3946,2.3946,0,0,0,.4175,1.5931,1.6126,1.6126,0,0,0,1.3022.4674,2.6013,2.6013,0,0,0,1.5735-.5275,4.5714,4.5714,0,0,0,1.1677-1.3523v-7.542h1.6807V38.0947Z" fill="#383c45"/><path d="M294.5425,28.5322l-.37.53-.37.53a5.7059,5.7059,0,0,0-1.34-.6925,4.2387,4.2387,0,0,0-1.4-.2274,2.479,2.479,0,0,0-1.4753.4025,1.2927,1.2927,0,0,0-.5452,1.0779,1.1871,1.1871,0,0,0,.5076,1.0447,5.5327,5.5327,0,0,0,1.8127.7151,6.2791,6.2791,0,0,1,2.5706,1.1579,2.6171,2.6171,0,0,1,.89,2.1028,2.7853,2.7853,0,0,1-1.2353,2.3833,4.9849,4.9849,0,0,1-2.8253.7779,6.4,6.4,0,0,1-2.2834-.39,5.2254,5.2254,0,0,1-1.6375-.9907l.45-.51.45-.51a5.1941,5.1941,0,0,0,1.3633.76,4.6657,4.6657,0,0,0,1.6182.28,2.9136,2.9136,0,0,0,1.7024-.4527,1.4779,1.4779,0,0,0,.6374-1.2475,1.3977,1.3977,0,0,0-.5276-1.2331,6.142,6.142,0,0,0-2.073-.8274,5.4613,5.4613,0,0,1-2.4454-1.18,2.4235,2.4235,0,0,1-.7352-1.84,2.5521,2.5521,0,0,1,1.0653-2.0536,4.3719,4.3719,0,0,1,2.6554-.8078,5.7245,5.7245,0,0,1,1.9433.3152A5.8707,5.8707,0,0,1,294.5425,28.5322Z" fill="#383c45"/><path d="M305.3228,33.4141h-6.7813a4.4368,4.4368,0,0,0,.9374,2.7225,2.5784,2.5784,0,0,0,2.003.8175,4.2314,4.2314,0,0,0,1.4328-.23,5.5281,5.5281,0,0,0,1.328-.71l.37.5.37.5a6.0964,6.0964,0,0,1-1.6531.9678,5.4653,5.4653,0,0,1-1.968.3526,4.2477,4.2477,0,0,1-3.3879-1.4479,6.0218,6.0218,0,0,1-1.2127-3.9535,6.6774,6.6774,0,0,1,1.1549-4.0386,3.8288,3.8288,0,0,1,3.1654-1.563A3.895,3.895,0,0,1,304.28,28.72a5.9434,5.9434,0,0,1,1.0826,3.7734c0,.18-.0051.3552-.0127.5128S305.3325,33.3037,305.3228,33.4141Zm-1.62-1.4a4.0829,4.0829,0,0,0-.6379-2.4658,2.2827,2.2827,0,0,0-1.9431-.875,2.1521,2.1521,0,0,0-1.7852.8276,4.7383,4.7383,0,0,0-.7949,2.6733h5.1611v-.16Z" fill="#383c45"/><path d="M318.9224,37.6348a4.0332,4.0332,0,0,1-1.0855.5225,4.1974,4.1974,0,0,1-1.2348.1777,2.7335,2.7335,0,0,1-2.0433-.75,3.0507,3.0507,0,0,1-.738-2.19V28.873h-1.82V27.5723h1.82v-2.42l.84-.09.84-.09v2.6006h2.541l-.09.65-.09.65h-2.36v6.4415a1.9455,1.9455,0,0,0,.3075,1.2224,1.2044,1.2044,0,0,0,1.0128.3977,2.4293,2.4293,0,0,0,.7226-.1075,3.528,3.528,0,0,0,.7373-.333l.32.57Z" fill="#383c45"/><path d="M328.7222,30.5527v7.542h-1.68V30.793a2.4271,2.4271,0,0,0-.4728-1.6779,1.6237,1.6237,0,0,0-1.2675-.4628,2.5827,2.5827,0,0,0-1.5732.5328,5.2411,5.2411,0,0,0-1.2275,1.3881v7.5215h-1.6807V23.3516l.84-.1.84-.1v5.9414a4.59,4.59,0,0,1,1.3825-1.2781,3.5779,3.5779,0,0,1,1.8177-.4827,2.92,2.92,0,0,1,2.2306.8677A3.3814,3.3814,0,0,1,328.7222,30.5527Z" fill="#383c45"/><path d="M340.2422,33.4141h-6.7808a4.4374,4.4374,0,0,0,.9374,2.7225,2.5786,2.5786,0,0,0,2.0031.8175,4.23,4.23,0,0,0,1.4326-.23,5.52,5.52,0,0,0,1.3276-.71l.37.5.37.5a6.0923,6.0923,0,0,1-1.6526.9678,5.4649,5.4649,0,0,1-1.968.3526,4.2477,4.2477,0,0,1-3.3879-1.4479,6.0218,6.0218,0,0,1-1.2126-3.9535,6.6774,6.6774,0,0,1,1.1549-4.0386,3.8287,3.8287,0,0,1,3.1654-1.563A3.8954,3.8954,0,0,1,339.2,28.72a5.9423,5.9423,0,0,1,1.0829,3.7734c0,.18-.0054.3552-.0132.5128S340.252,33.3037,340.2422,33.4141Zm-1.62-1.4a4.0822,4.0822,0,0,0-.638-2.4658,2.2827,2.2827,0,0,0-1.9431-.875,2.1521,2.1521,0,0,0-1.7852.8276,4.739,4.739,0,0,0-.7949,2.6733h5.1612v-.16Z" fill="#383c45"/><path d="M345.2617,23.7715a1.1439,1.1439,0,0,1-.33.8276,1.2141,1.2141,0,0,1-.8709.3325,1.1819,1.1819,0,0,1-.852-.3325,1.2093,1.2093,0,0,1,0-1.6553,1.1819,1.1819,0,0,1,.852-.3325,1.2141,1.2141,0,0,1,.8709.3325A1.1443,1.1443,0,0,1,345.2617,23.7715Zm-.34,14.3232H343.24V27.5723h1.6817V38.0947Z" fill="#383c45"/><path d="M354.2207,27.4521l-.16.82-.16.82a3.4189,3.4189,0,0,0-.4292-.09,3.5321,3.5321,0,0,0-.4907-.03,2.0015,2.0015,0,0,0-1.62.7375,5.353,5.353,0,0,0-.96,2.283v6.1015h-1.68V27.5723H350.16l.08,1.1006.08,1.1005a4.0948,4.0948,0,0,1,1.1458-1.8286,2.5717,2.5717,0,0,1,1.7155-.6128,4.6943,4.6943,0,0,1,.5342.03A3.9433,3.9433,0,0,1,354.2207,27.4521Z" fill="#383c45"/><path d="M369.582,30.5527v7.542h-1.68V30.793a2.4717,2.4717,0,0,0-.4553-1.6779,1.5947,1.5947,0,0,0-1.2654-.4628,2.5983,2.5983,0,0,0-1.5976.5352,5.205,5.205,0,0,0-1.2227,1.4053v7.5019H361.68V27.5723h1.4414l.0693.8.0694.8a4.4589,4.4589,0,0,1,1.4109-1.3332,3.7187,3.7187,0,0,1,1.89-.5077,2.9241,2.9241,0,0,1,2.2388.86A3.3878,3.3878,0,0,1,369.582,30.5527Z" fill="#383c45"/><path d="M381.1621,37.1543l-.2.59-.2.59a2.5708,2.5708,0,0,1-1.2573-.4655,2.0593,2.0593,0,0,1-.7036-1.1547,3.4861,3.4861,0,0,1-1.37,1.23,3.9971,3.9971,0,0,1-1.79.39,3.383,3.383,0,0,1-2.44-.8854,3.1342,3.1342,0,0,1-.88-2.2953,3.0209,3.0209,0,0,1,1.2-2.5608,5.5977,5.5977,0,0,1,3.3606-.8806h1.7207v-.84a2.1448,2.1448,0,0,0-.56-1.6652,2.4331,2.4331,0,0,0-1.7-.4949,6.5983,6.5983,0,0,0-1.3162.1476,11.7412,11.7412,0,0,0-1.5256.4325l-.21-.62-.21-.62a11.6392,11.6392,0,0,1,1.8176-.5405,8.6446,8.6446,0,0,1,1.7429-.18,3.7658,3.7658,0,0,1,2.7578.9128,3.45,3.45,0,0,1,.8829,2.5482v4.8808a1.815,1.815,0,0,0,.23,1.0329A1.2216,1.2216,0,0,0,381.1621,37.1543Zm-2.56-1.82v-2.5h-1.5a3.7543,3.7543,0,0,0-2.2364.5576,1.9592,1.9592,0,0,0-.7656,1.6826,2.0481,2.0481,0,0,0,.4878,1.47,1.9092,1.9092,0,0,0,1.4341.51,2.6066,2.6066,0,0,0,1.4922-.4326A3.4237,3.4237,0,0,0,378.6016,35.334Z" fill="#383c45"/><path d="M388.02,38.0947h-2.039l-1.8311-5.2612-1.831-5.2612H384.16l1.43,4.5112,1.43,4.5112,1.41-4.5112,1.41-4.5112h1.7813L389.82,32.8335Z" fill="#383c45"/><path d="M395.76,23.7715a1.145,1.145,0,0,1-.33.8276,1.2113,1.2113,0,0,1-.8692.3325,1.1849,1.1849,0,0,1-.8537-.3325,1.2085,1.2085,0,0,1,0-1.6553,1.1849,1.1849,0,0,1,.8537-.3325,1.2113,1.2113,0,0,1,.8692.3325A1.1454,1.1454,0,0,1,395.76,23.7715Zm-.34,14.3232h-1.68V27.5723h1.68V38.0947Z" fill="#383c45"/><path d="M407.6016,27.9922a6.6244,6.6244,0,0,1-1.3777.2506c-.5027.045-1.053.06-1.6634.07a3.1649,3.1649,0,0,1,1.3777,1.073,2.802,2.802,0,0,1,.4622,1.6282,3.368,3.368,0,0,1-1.05,2.5423,4.1918,4.1918,0,0,1-2.9106.9977,4.7809,4.7809,0,0,1-.6927-.0474,3.7171,3.7171,0,0,1-.6472-.1528,1.3373,1.3373,0,0,0-.4248.4528,1.1928,1.1928,0,0,0-.1553.5882.7437.7437,0,0,0,.3.6372,1.9215,1.9215,0,0,0,1.1394.2622h1.6816a3.9927,3.9927,0,0,1,2.5733.8155,2.6008,2.6008,0,0,1,.9677,2.0459,2.6481,2.6481,0,0,1-1.2131,2.3377,6.5959,6.5959,0,0,1-3.6287.8224,5.9115,5.9115,0,0,1-3.508-.7752,2.7126,2.7126,0,0,1-.9724-2.3654h1.5195a1.4941,1.4941,0,0,0,.595,1.3829,4.4167,4.4167,0,0,0,2.3659.4374,4.9491,4.9491,0,0,0,2.44-.4475,1.3647,1.3647,0,0,0,.7-1.2722,1.3429,1.3429,0,0,0-.58-1.1707,2.8128,2.8128,0,0,0-1.6-.39h-1.66a3.15,3.15,0,0,1-2.0315-.59,1.7319,1.7319,0,0,1-.65-1.3709,1.8974,1.8974,0,0,1,.2927-1.0027,2.7082,2.7082,0,0,1,.8479-.8371,3.04,3.04,0,0,1-1.76-2.94,3.4637,3.4637,0,0,1,1.13-2.6235,4.2192,4.2192,0,0,1,2.87-1.0181,12.0407,12.0407,0,0,0,2.9353-.2147,8.7477,8.7477,0,0,0,1.8265-.6652l.25.77Zm-7.543,2.9814a2.5761,2.5761,0,0,0,.606,1.7848,2.5557,2.5557,0,0,0,3.4282.03,2.6031,2.6031,0,0,0,.5869-1.8149,2.5211,2.5211,0,0,0-.5847-1.7956,2.316,2.316,0,0,0-1.7552-.6253,2.1858,2.1858,0,0,0-1.7031.6853A2.5641,2.5641,0,0,0,400.0586,30.9736Z" fill="#383c45"/><path d="M417.4609,37.1543l-.2.59-.2.59a2.5711,2.5711,0,0,1-1.2573-.4655,2.0593,2.0593,0,0,1-.7036-1.1547,3.4861,3.4861,0,0,1-1.37,1.23,3.9969,3.9969,0,0,1-1.79.39,3.3827,3.3827,0,0,1-2.44-.8854,3.1338,3.1338,0,0,1-.88-2.2953,3.0211,3.0211,0,0,1,1.2-2.5608,5.598,5.598,0,0,1,3.3606-.8806H414.9v-.84a2.1448,2.1448,0,0,0-.56-1.6652,2.4331,2.4331,0,0,0-1.7-.4949,6.5966,6.5966,0,0,0-1.3161.1476,11.7424,11.7424,0,0,0-1.5257.4325l-.21-.62-.21-.62a11.6392,11.6392,0,0,1,1.8176-.5405,8.6456,8.6456,0,0,1,1.743-.18,3.7659,3.7659,0,0,1,2.7578.9128,3.45,3.45,0,0,1,.8828,2.5482v4.8808a1.8158,1.8158,0,0,0,.23,1.0329A1.222,1.222,0,0,0,417.4609,37.1543Zm-2.56-1.82v-2.5h-1.5a3.7537,3.7537,0,0,0-2.2363.5576,1.959,1.959,0,0,0-.7657,1.6826,2.0485,2.0485,0,0,0,.4878,1.47,1.9094,1.9094,0,0,0,1.4341.51,2.6064,2.6064,0,0,0,1.4922-.4326A3.4237,3.4237,0,0,0,414.9,35.334Z" fill="#383c45"/><path d="M425.6406,37.6348a4.0416,4.0416,0,0,1-1.0862.5225,4.1946,4.1946,0,0,1-1.2341.1777,2.7334,2.7334,0,0,1-2.0432-.75,3.05,3.05,0,0,1-.738-2.19V28.873h-1.82V27.5723h1.82v-2.42l.84-.09.84-.09v2.6006h2.541l-.09.65-.09.65h-2.3613v6.4415a1.9454,1.9454,0,0,0,.3078,1.2224,1.2046,1.2046,0,0,0,1.0125.3977,2.4341,2.4341,0,0,0,.7231-.1075,3.5289,3.5289,0,0,0,.7378-.333l.32.57Z" fill="#383c45"/><path d="M429.5605,23.7715a1.1439,1.1439,0,0,1-.33.8276,1.214,1.214,0,0,1-.8708.3325,1.1821,1.1821,0,0,1-.8521-.3325,1.2093,1.2093,0,0,1,0-1.6553,1.1821,1.1821,0,0,1,.8521-.3325,1.214,1.214,0,0,1,.8708.3325A1.1443,1.1443,0,0,1,429.5605,23.7715Zm-.34,14.3232h-1.6816V27.5723h1.6816V38.0947Z" fill="#383c45"/><path d="M441.5605,32.8135a6.2323,6.2323,0,0,1-1.2172,3.9985,4.6341,4.6341,0,0,1-6.837.035,6.1758,6.1758,0,0,1-1.2075-3.9935,6.2308,6.2308,0,0,1,1.218-3.9985,4.6493,4.6493,0,0,1,6.8436-.0424A6.1865,6.1865,0,0,1,441.5605,32.8135Zm-7.4609.04a5.4276,5.4276,0,0,0,.7275,3.1032,2.6664,2.6664,0,0,0,4.1954-.005,5.4764,5.4764,0,0,0,.7373-3.1382,5.4268,5.4268,0,0,0-.7276-3.1032,2.6588,2.6588,0,0,0-4.188.005A5.4529,5.4529,0,0,0,434.1,32.8535Z" fill="#383c45"/><path d="M452.541,30.5527v7.542h-1.68V30.793a2.4717,2.4717,0,0,0-.4553-1.6779,1.5949,1.5949,0,0,0-1.2654-.4628,2.5983,2.5983,0,0,0-1.5976.5352,5.2033,5.2033,0,0,0-1.2227,1.4053v7.5019h-1.6816V27.5723H446.08l.0693.8.0694.8A4.46,4.46,0,0,1,447.63,27.84a3.719,3.719,0,0,1,1.89-.5077,2.9242,2.9242,0,0,1,2.2388.86A3.3878,3.3878,0,0,1,452.541,30.5527Z" fill="#383c45"/><path d="M463.4785,26.0518v1.52H466.08l-.09.65-.09.65h-2.4219v9.2217h-1.68V28.873h-1.8613V27.5723h1.8613v-1.5a2.8448,2.8448,0,0,1,.8279-2.1228A3.3389,3.3389,0,0,1,465,23.1318a5.8657,5.8657,0,0,1,1.31.1349,6.43,6.43,0,0,1,1.19.4052l-.2705.61-.27.61a4.7063,4.7063,0,0,0-.9744-.3121,4.46,4.46,0,0,0-.885-.0873,1.7018,1.7018,0,0,0-1.2529.3824A1.593,1.593,0,0,0,463.4785,26.0518Z" fill="#383c45"/><path d="M475.92,38.0947h-1.4394l-.0606-.85-.06-.85a4.1359,4.1359,0,0,1-1.3745,1.45,3.672,3.672,0,0,1-1.9458.49,2.8251,2.8251,0,0,1-2.1607-.8377,3.4174,3.4174,0,0,1-.7807-2.383v-7.542h1.6816v7.3613a2.3964,2.3964,0,0,0,.417,1.5931,1.6111,1.6111,0,0,0,1.3017.4674,2.6034,2.6034,0,0,0,1.574-.5275,4.5684,4.5684,0,0,0,1.1682-1.3523v-7.542h1.68V38.0947Z" fill="#383c45"/><path d="M487.6191,30.5527v7.542h-1.68V30.793a2.4717,2.4717,0,0,0-.4554-1.6779,1.5946,1.5946,0,0,0-1.2653-.4628,2.5984,2.5984,0,0,0-1.5977.5352,5.2067,5.2067,0,0,0-1.2227,1.4053v7.5019h-1.68V27.5723h1.4394l.07.8.07.8a4.4452,4.4452,0,0,1,1.41-1.3332A3.7222,3.7222,0,0,1,484.6,27.332a2.9215,2.9215,0,0,1,2.2371.86A3.3891,3.3891,0,0,1,487.6191,30.5527Z" fill="#383c45"/><path d="M498.3008,28.4531l-.41.53-.41.53a4.0265,4.0265,0,0,0-1.0659-.585,3.6007,3.6007,0,0,0-1.2154-.1953,2.3968,2.3968,0,0,0-2.0554,1.023,5.4,5.4,0,0,0-.7649,3.1382,5.036,5.036,0,0,0,.7649,3.0507,2.4313,2.4313,0,0,0,2.0554.95,3.3678,3.3678,0,0,0,1.2056-.2076,5.0662,5.0662,0,0,0,1.1147-.6127l.3907.55.3906.55a4.9094,4.9094,0,0,1-1.4683.865,4.8507,4.8507,0,0,1-1.6938.2952A4.201,4.201,0,0,1,491.8081,36.9a6.0448,6.0448,0,0,1-1.23-3.9856,6.3759,6.3759,0,0,1,1.2227-4.0516,4.1331,4.1331,0,0,1,3.3379-1.53,5.034,5.034,0,0,1,1.6784.26A4.7213,4.7213,0,0,1,498.3008,28.4531Z" fill="#383c45"/><path d="M506.0391,37.6348a4.02,4.02,0,0,1-1.0848.5225,4.2,4.2,0,0,1-1.2355.1777,2.7335,2.7335,0,0,1-2.0433-.75,3.0507,3.0507,0,0,1-.738-2.19V28.873h-1.82V27.5723h1.82v-2.42l.8408-.09.8408-.09v2.6006H505.16l-.0909.65-.0908.65h-2.3594v6.4415a1.9469,1.9469,0,0,0,.3072,1.2224,1.2045,1.2045,0,0,0,1.0132.3977,2.4251,2.4251,0,0,0,.7221-.1075,3.5317,3.5317,0,0,0,.7368-.333l.32.57Z" fill="#383c45"/><path d="M509.959,23.7715a1.1439,1.1439,0,0,1-.33.8276,1.2141,1.2141,0,0,1-.8709.3325,1.1819,1.1819,0,0,1-.852-.3325,1.209,1.209,0,0,1,0-1.6553,1.1819,1.1819,0,0,1,.852-.3325,1.2141,1.2141,0,0,1,.8709.3325A1.1443,1.1443,0,0,1,509.959,23.7715Zm-.34,14.3232h-1.6816V27.5723h1.6816V38.0947Z" fill="#383c45"/><path d="M521.959,32.8135a6.2318,6.2318,0,0,1-1.2173,3.9985,4.6339,4.6339,0,0,1-6.8369.035,6.1753,6.1753,0,0,1-1.2075-3.9935,6.2308,6.2308,0,0,1,1.218-3.9985,4.6492,4.6492,0,0,1,6.8435-.0424A6.1866,6.1866,0,0,1,521.959,32.8135Zm-7.461.04a5.4268,5.4268,0,0,0,.7276,3.1032,2.6663,2.6663,0,0,0,4.1953-.005,5.4764,5.4764,0,0,0,.7373-3.1382,5.4276,5.4276,0,0,0-.7275-3.1032,2.6588,2.6588,0,0,0-4.188.005A5.452,5.452,0,0,0,514.498,32.8535Z" fill="#383c45"/><path d="M532.94,30.5527v7.542h-1.68V30.793a2.4717,2.4717,0,0,0-.4554-1.6779,1.5946,1.5946,0,0,0-1.2653-.4628,2.5984,2.5984,0,0,0-1.5977.5352,5.2047,5.2047,0,0,0-1.2226,1.4053v7.5019h-1.6817V27.5723h1.4414l.0694.8.0693.8a4.4589,4.4589,0,0,1,1.4109-1.3332,3.7188,3.7188,0,0,1,1.89-.5077,2.924,2.924,0,0,1,2.2387.86A3.3879,3.3879,0,0,1,532.94,30.5527Z" fill="#383c45"/><path d="M544.52,37.1543l-.2.59-.2.59a2.5711,2.5711,0,0,1-1.2573-.4655,2.0593,2.0593,0,0,1-.7036-1.1547,3.4861,3.4861,0,0,1-1.37,1.23,3.9971,3.9971,0,0,1-1.79.39,3.3826,3.3826,0,0,1-2.44-.8854,3.1338,3.1338,0,0,1-.88-2.2953,3.0211,3.0211,0,0,1,1.2-2.5608,5.598,5.598,0,0,1,3.3606-.8806h1.7207v-.84a2.1448,2.1448,0,0,0-.56-1.6652,2.4331,2.4331,0,0,0-1.7-.4949,6.5966,6.5966,0,0,0-1.3161.1476,11.7424,11.7424,0,0,0-1.5257.4325l-.21-.62-.21-.62a11.6392,11.6392,0,0,1,1.8176-.5405,8.6454,8.6454,0,0,1,1.7429-.18,3.7662,3.7662,0,0,1,2.7579.9128,3.45,3.45,0,0,1,.8828,2.5482v4.8808a1.8158,1.8158,0,0,0,.23,1.0329A1.222,1.222,0,0,0,544.52,37.1543Zm-2.5605-1.82v-2.5h-1.5a3.7537,3.7537,0,0,0-2.2363.5576,1.959,1.959,0,0,0-.7657,1.6826,2.0485,2.0485,0,0,0,.4878,1.47,1.9092,1.9092,0,0,0,1.4341.51,2.6064,2.6064,0,0,0,1.4922-.4326A3.4237,3.4237,0,0,0,541.959,35.334Z" fill="#383c45"/><path d="M547.2383,36.0947V23.332l.84-.1.84-.1V36.0547a1.0755,1.0755,0,0,0,.1631.6575.63.63,0,0,0,.538.2224,2.2151,2.2151,0,0,0,.3724-.03,1.6,1.6,0,0,0,.3269-.09l.22.59.22.59a2.9547,2.9547,0,0,1-.6467.2446,3.0874,3.0874,0,0,1-.7537.0953,2.0856,2.0856,0,0,1-1.5393-.5727A2.3043,2.3043,0,0,1,547.2383,36.0947Z" fill="#383c45"/><path d="M555.2383,23.7715a1.1439,1.1439,0,0,1-.33.8276,1.2141,1.2141,0,0,1-.8709.3325,1.1819,1.1819,0,0,1-.852-.3325,1.209,1.209,0,0,1,0-1.6553,1.1819,1.1819,0,0,1,.852-.3325,1.2141,1.2141,0,0,1,.8709.3325A1.1443,1.1443,0,0,1,555.2383,23.7715Zm-.34,14.3232h-1.6816V27.5723h1.6816V38.0947Z" fill="#383c45"/><path d="M563.9375,37.6348a4.02,4.02,0,0,1-1.0847.5225,4.2,4.2,0,0,1-1.2356.1777,2.7334,2.7334,0,0,1-2.0432-.75,3.05,3.05,0,0,1-.7381-2.19V28.873h-1.82V27.5723h1.82v-2.42l.8409-.09.8408-.09v2.6006h2.541l-.0908.65-.0908.65h-2.3594v6.4415a1.9469,1.9469,0,0,0,.3071,1.2224,1.2045,1.2045,0,0,0,1.0132.3977,2.4258,2.4258,0,0,0,.7222-.1075,3.534,3.534,0,0,0,.7368-.333l.32.57Z" fill="#383c45"/><path d="M569.7969,38.1543a6.6553,6.6553,0,0,1-1.59,2.7859,5.2973,5.2973,0,0,1-3.15,1.3752l-.1-.66-.1-.66a4.2106,4.2106,0,0,0,2.24-.97,4.8388,4.8388,0,0,0,1.0994-1.9307h-.58l-1.78-5.2612-1.78-5.2612h1.8008l1.45,4.6508,1.45,4.6509,1.42-4.6509,1.42-4.6508h1.74l-1.77,5.291Z" fill="#383c45"/><path d="M590.3184,38.0947h-2.3008l-.97-4.5009-.97-4.501-1,4.501-1,4.5009h-2.24l-1.251-5.2612-1.251-5.2612h1.7012l.99,4.6709.99,4.6709,1.08-4.6709,1.08-4.6709h1.8809l1.04,4.6709,1.04,4.6709,1-4.6709,1-4.6709H592.74l-1.2109,5.2612Z" fill="#383c45"/><path d="M597.0977,23.7715a1.144,1.144,0,0,1-.33.8276,1.214,1.214,0,0,1-.8708.3325,1.1823,1.1823,0,0,1-.8521-.3325,1.2093,1.2093,0,0,1,0-1.6553,1.1823,1.1823,0,0,1,.8521-.3325,1.214,1.214,0,0,1,.8708.3325A1.1444,1.1444,0,0,1,597.0977,23.7715Zm-.34,14.3232h-1.6816V27.5723h1.6816V38.0947Z" fill="#383c45"/><path d="M605.7969,37.6348a4.0213,4.0213,0,0,1-1.0847.5225,4.2008,4.2008,0,0,1-1.2356.1777,2.7335,2.7335,0,0,1-2.0433-.75,3.0507,3.0507,0,0,1-.738-2.19V28.873h-1.82V27.5723h1.82v-2.42l.8408-.09.8409-.09v2.6006h2.541l-.0909.65-.0908.65H602.377v6.4415a1.9469,1.9469,0,0,0,.3071,1.2224,1.2045,1.2045,0,0,0,1.0132.3977,2.4251,2.4251,0,0,0,.7221-.1075,3.5347,3.5347,0,0,0,.7369-.333l.32.57Z" fill="#383c45"/><path d="M615.5977,30.5527v7.542h-1.68V30.793a2.4283,2.4283,0,0,0-.4724-1.6779,1.6237,1.6237,0,0,0-1.2679-.4628,2.5825,2.5825,0,0,0-1.5732.5328,5.2411,5.2411,0,0,0-1.2275,1.3881v7.5215h-1.68V23.3516l.84-.1.84-.1v5.9414a4.596,4.596,0,0,1,1.383-1.2781,3.5783,3.5783,0,0,1,1.8181-.4827,2.9183,2.9183,0,0,1,2.23.8677A3.3818,3.3818,0,0,1,615.5977,30.5527Z" fill="#383c45"/><path d="M627.8184,32.8135A6.2292,6.2292,0,0,1,626.6,36.812a4.6332,4.6332,0,0,1-6.8362.035,6.1769,6.1769,0,0,1-1.2073-3.9935,6.2318,6.2318,0,0,1,1.2173-3.9985,4.65,4.65,0,0,1,6.8443-.0424A6.1866,6.1866,0,0,1,627.8184,32.8135Zm-7.4629.04a5.4276,5.4276,0,0,0,.7275,3.1032,2.668,2.668,0,0,0,4.197-.005,5.4738,5.4738,0,0,0,.7376-3.1382A5.4268,5.4268,0,0,0,625.29,29.71a2.66,2.66,0,0,0-4.1889.005A5.4476,5.4476,0,0,0,620.3555,32.8535Z" fill="#383c45"/><path d="M638.5977,38.0947h-1.44l-.06-.85-.0606-.85a4.135,4.135,0,0,1-1.3745,1.45,3.6718,3.6718,0,0,1-1.9458.49,2.8249,2.8249,0,0,1-2.1606-.8377,3.4174,3.4174,0,0,1-.7808-2.383v-7.542h1.6816v7.3613a2.3964,2.3964,0,0,0,.417,1.5931,1.6113,1.6113,0,0,0,1.3018.4674,2.6034,2.6034,0,0,0,1.574-.5275,4.5712,4.5712,0,0,0,1.1682-1.3523v-7.542h1.68V38.0947Z" fill="#383c45"/><path d="M647.6367,37.6348a4.02,4.02,0,0,1-1.0847.5225,4.2,4.2,0,0,1-1.2356.1777,2.7334,2.7334,0,0,1-2.0432-.75,3.05,3.05,0,0,1-.738-2.19V28.873h-1.82V27.5723h1.82v-2.42l.8408-.09.8408-.09v2.6006h2.541l-.0908.65-.0908.65h-2.3594v6.4415a1.9469,1.9469,0,0,0,.3071,1.2224,1.2045,1.2045,0,0,0,1.0132.3977,2.4258,2.4258,0,0,0,.7222-.1075,3.534,3.534,0,0,0,.7368-.333l.32.57Z" fill="#383c45"/><path d="M152.4839,62.6348a4.0317,4.0317,0,0,1-1.0855.5225,4.1974,4.1974,0,0,1-1.2348.1777,2.7332,2.7332,0,0,1-2.0432-.75,3.05,3.05,0,0,1-.7381-2.19V53.873h-1.82V52.5723h1.82v-2.42l.84-.09.84-.09v2.6006h2.541l-.09.65-.09.65h-2.36v6.4415a1.9461,1.9461,0,0,0,.3075,1.2224,1.2044,1.2044,0,0,0,1.0128.3977,2.43,2.43,0,0,0,.7227-.1075,3.5326,3.5326,0,0,0,.7373-.333l.32.57Z" fill="#383c45"/><path d="M162.2837,55.5527v7.542h-1.68V55.793a2.4271,2.4271,0,0,0-.4728-1.6779,1.6234,1.6234,0,0,0-1.2674-.4628,2.5828,2.5828,0,0,0-1.5733.5328,5.2411,5.2411,0,0,0-1.2275,1.3881v7.5215h-1.6807V48.3516l.84-.1.84-.1v5.9414a4.5889,4.5889,0,0,1,1.3826-1.2781,3.5773,3.5773,0,0,1,1.8176-.4827,2.92,2.92,0,0,1,2.2306.8677A3.3814,3.3814,0,0,1,162.2837,55.5527Z" fill="#383c45"/><path d="M173.8042,58.4141h-6.7813a4.438,4.438,0,0,0,.9374,2.7225,2.5786,2.5786,0,0,0,2.0031.8175,4.2308,4.2308,0,0,0,1.4327-.23,5.5263,5.5263,0,0,0,1.328-.71l.37.5.37.5a6.0994,6.0994,0,0,1-1.6531.9678,5.4657,5.4657,0,0,1-1.968.3526,4.2479,4.2479,0,0,1-3.388-1.4479,6.0218,6.0218,0,0,1-1.2126-3.9535,6.6774,6.6774,0,0,1,1.1549-4.0386,3.8288,3.8288,0,0,1,3.1654-1.563,3.8948,3.8948,0,0,1,3.1982,1.3878,5.9423,5.9423,0,0,1,1.083,3.7734c0,.18-.0051.3552-.0127.5128S173.814,58.3037,173.8042,58.4141Zm-1.62-1.4a4.0822,4.0822,0,0,0-.638-2.4658,2.2827,2.2827,0,0,0-1.9431-.875,2.1518,2.1518,0,0,0-1.7851.8276,4.7382,4.7382,0,0,0-.795,2.6733h5.1612v-.16Z" fill="#383c45"/><path d="M190.064,55.5527v7.542h-1.68V55.793a2.4723,2.4723,0,0,0-.4553-1.6779,1.595,1.595,0,0,0-1.2654-.4628,2.5986,2.5986,0,0,0-1.5977.5352,5.2047,5.2047,0,0,0-1.2226,1.4053v7.5019h-1.6807V52.5723h1.44l.07.8.07.8a4.4514,4.4514,0,0,1,1.41-1.3332,3.7208,3.7208,0,0,1,1.89-.5077,2.9228,2.9228,0,0,1,2.2379.86A3.3887,3.3887,0,0,1,190.064,55.5527Z" fill="#383c45"/><path d="M201.5835,58.4141h-6.7813a4.438,4.438,0,0,0,.9374,2.7225,2.5786,2.5786,0,0,0,2.0031.8175,4.2312,4.2312,0,0,0,1.4327-.23,5.5263,5.5263,0,0,0,1.328-.71l.37.5.37.5a6.0994,6.0994,0,0,1-1.6531.9678,5.4657,5.4657,0,0,1-1.968.3526,4.2479,4.2479,0,0,1-3.388-1.4479,6.0218,6.0218,0,0,1-1.2126-3.9535,6.6774,6.6774,0,0,1,1.1549-4.0386,3.8288,3.8288,0,0,1,3.1654-1.563,3.8948,3.8948,0,0,1,3.1982,1.3878,5.9423,5.9423,0,0,1,1.083,3.7734c0,.18-.0051.3552-.0127.5128S201.5933,58.3037,201.5835,58.4141Zm-1.62-1.4a4.0822,4.0822,0,0,0-.638-2.4658,2.2827,2.2827,0,0,0-1.9431-.875,2.1518,2.1518,0,0,0-1.7851.8276,4.7382,4.7382,0,0,0-.795,2.6733h5.1612v-.16Z" fill="#383c45"/><path d="M212.4233,58.4141h-6.7812a4.4368,4.4368,0,0,0,.9374,2.7225,2.5782,2.5782,0,0,0,2.003.8175,4.2314,4.2314,0,0,0,1.4328-.23,5.5281,5.5281,0,0,0,1.328-.71l.37.5.37.5a6.0979,6.0979,0,0,1-1.6531.9678,5.4653,5.4653,0,0,1-1.968.3526,4.2477,4.2477,0,0,1-3.3879-1.4479,6.0218,6.0218,0,0,1-1.2127-3.9535,6.6774,6.6774,0,0,1,1.1549-4.0386,3.8288,3.8288,0,0,1,3.1654-1.563A3.895,3.895,0,0,1,211.38,53.72a5.9429,5.9429,0,0,1,1.083,3.7734c0,.18-.0051.3552-.0127.5128S212.4331,58.3037,212.4233,58.4141Zm-1.62-1.4a4.0829,4.0829,0,0,0-.6379-2.4658,2.2828,2.2828,0,0,0-1.9431-.875,2.1521,2.1521,0,0,0-1.7852.8276,4.7375,4.7375,0,0,0-.7949,2.6733h5.1611v-.16Z" fill="#383c45"/><path d="M223.3628,48.332V63.0947h-1.46l-.09-.74-.09-.74a3.7619,3.7619,0,0,1-1.2755,1.25,3.5062,3.5062,0,0,1-1.786.47,3.4309,3.4309,0,0,1-2.9325-1.4931,6.8805,6.8805,0,0,1-1.0274-3.9679,6.811,6.811,0,0,1,1.0925-3.9787,3.7111,3.7111,0,0,1,4.6831-1.173,4.471,4.471,0,0,1,1.2058.93v-5.52l.84.1Zm-1.68,12.002V55.0928a3.8929,3.8929,0,0,0-1.078-1.0326,2.6723,2.6723,0,0,0-1.423-.3873,2.2414,2.2414,0,0,0-1.9555,1.04,5.6749,5.6749,0,0,0-.7251,3.1406,5.976,5.976,0,0,0,.6576,3.1206,2.0538,2.0538,0,0,0,1.8433,1.02,2.7,2.7,0,0,0,1.5352-.4323A4.1591,4.1591,0,0,0,221.6831,60.334Z" fill="#383c45"/><path d="M237.7622,62.6348a4.0311,4.0311,0,0,1-1.0854.5225,4.1985,4.1985,0,0,1-1.2349.1777,2.7334,2.7334,0,0,1-2.0432-.75,3.05,3.05,0,0,1-.7381-2.19V53.873h-1.82V52.5723h1.82v-2.42l.84-.09.84-.09v2.6006h2.541l-.09.65-.09.65h-2.36v6.4415a1.9461,1.9461,0,0,0,.3075,1.2224,1.2044,1.2044,0,0,0,1.0128.3977,2.43,2.43,0,0,0,.7227-.1075,3.5326,3.5326,0,0,0,.7373-.333l.32.57Z" fill="#383c45"/><path d="M247.9233,57.8135a6.2307,6.2307,0,0,1-1.2177,3.9985,4.6336,4.6336,0,0,1-6.8366.035,6.1758,6.1758,0,0,1-1.2074-3.9935,6.2313,6.2313,0,0,1,1.2177-3.9985,4.65,4.65,0,0,1,6.8438-.0424A6.186,6.186,0,0,1,247.9233,57.8135Zm-7.4619.04a5.4268,5.4268,0,0,0,.7276,3.1032,2.6671,2.6671,0,0,0,4.1961-.005,5.4747,5.4747,0,0,0,.7375-3.1382,5.4268,5.4268,0,0,0-.7276-3.1032,2.6593,2.6593,0,0,0-4.1885.005A5.45,5.45,0,0,0,240.4614,57.8535Z" fill="#383c45"/><path d="M258.3813,48.7715a1.1443,1.1443,0,0,1-.33.8276,1.2123,1.2123,0,0,1-.87.3325,1.1838,1.1838,0,0,1-.853-.3325,1.209,1.209,0,0,1,0-1.6553,1.1838,1.1838,0,0,1,.853-.3325,1.2123,1.2123,0,0,1,.87.3325A1.1447,1.1447,0,0,1,258.3813,48.7715Zm-.34,14.3232h-1.6807V52.5723h1.6807V63.0947Z" fill="#383c45"/><path d="M275.1636,55.5527v7.542h-1.6807V55.793a2.558,2.558,0,0,0-.45-1.6779,1.3778,1.3778,0,0,0-1.11-.4628,2.1655,2.1655,0,0,0-1.4475.5352,6.0481,6.0481,0,0,0-1.1326,1.4053v7.5019h-1.6807V55.793a2.5574,2.5574,0,0,0-.45-1.6779,1.3776,1.3776,0,0,0-1.11-.4628,2.19,2.19,0,0,0-1.4552.5352,5.7212,5.7212,0,0,0-1.1249,1.4053v7.5019H261.84V52.5723h1.44l.07.8.07.8a4.5365,4.5365,0,0,1,1.31-1.3332,3.2753,3.2753,0,0,1,1.79-.5077,2.6287,2.6287,0,0,1,2.6406,1.9405,4.76,4.76,0,0,1,1.3407-1.4053,3.251,3.251,0,0,1,1.82-.5352,2.672,2.672,0,0,1,2.0653.8677A3.4724,3.4724,0,0,1,275.1636,55.5527Z" fill="#383c45"/><path d="M287.4419,57.8135a6.8914,6.8914,0,0,1-1.045,3.9685,3.5739,3.5739,0,0,1-3.0556,1.553,3.8958,3.8958,0,0,1-1.6053-.3151,3.2579,3.2579,0,0,1-1.215-.9457v5.041l-.84.1-.84.1V52.5723h1.44l.07.73.07.73a4.0976,4.0976,0,0,1,1.3832-1.256,3.6478,3.6478,0,0,1,1.7574-.4452,3.3166,3.3166,0,0,1,2.9684,1.4879A7.32,7.32,0,0,1,287.4419,57.8135Zm-1.82,0a6.209,6.209,0,0,0-.6151-3.1206,2.0062,2.0062,0,0,0-1.8449-1.02,2.6052,2.6052,0,0,0-1.5382.5124,4.5342,4.5342,0,0,0-1.1024,1.1877v5.2208a3.1867,3.1867,0,0,0,1.0452,1.0028,2.7213,2.7213,0,0,0,1.3747.3575,2.237,2.237,0,0,0,1.9929-1.0127A5.7127,5.7127,0,0,0,285.6216,57.8135Z" fill="#383c45"/><path d="M290.38,61.0947V48.332l.84-.1.84-.1V61.0547a1.0777,1.0777,0,0,0,.1626.6575.6288.6288,0,0,0,.5376.2224,2.2171,2.2171,0,0,0,.3725-.03,1.6146,1.6146,0,0,0,.3277-.09l.22.59.22.59a2.9715,2.9715,0,0,1-.6475.2446,3.084,3.084,0,0,1-.7529.0953,2.0871,2.0871,0,0,1-1.54-.5727A2.3039,2.3039,0,0,1,290.38,61.0947Z" fill="#383c45"/><path d="M304.1021,58.4141h-6.7813a4.4368,4.4368,0,0,0,.9374,2.7225,2.5784,2.5784,0,0,0,2.003.8175,4.2314,4.2314,0,0,0,1.4328-.23,5.5281,5.5281,0,0,0,1.328-.71l.37.5.37.5a6.0964,6.0964,0,0,1-1.6531.9678,5.4653,5.4653,0,0,1-1.968.3526,4.2477,4.2477,0,0,1-3.3879-1.4479,6.0218,6.0218,0,0,1-1.2127-3.9535,6.6774,6.6774,0,0,1,1.1549-4.0386,3.8288,3.8288,0,0,1,3.1654-1.563,3.8946,3.8946,0,0,1,3.1986,1.3878,5.9429,5.9429,0,0,1,1.0827,3.7734c0,.18-.0051.3552-.0127.5128S304.1118,58.3037,304.1021,58.4141Zm-1.62-1.4a4.0829,4.0829,0,0,0-.6379-2.4658,2.2827,2.2827,0,0,0-1.9431-.875,2.1521,2.1521,0,0,0-1.7852.8276,4.7383,4.7383,0,0,0-.7949,2.6733h5.1611v-.16Z" fill="#383c45"/><path d="M320.4233,55.5527v7.542h-1.6806V55.793a2.558,2.558,0,0,0-.45-1.6779,1.3779,1.3779,0,0,0-1.11-.4628,2.1659,2.1659,0,0,0-1.4475.5352,6.0479,6.0479,0,0,0-1.1325,1.4053v7.5019h-1.6807V55.793a2.558,2.558,0,0,0-.45-1.6779,1.3779,1.3779,0,0,0-1.11-.4628,2.1909,2.1909,0,0,0-1.4552.5352,5.721,5.721,0,0,0-1.1248,1.4053v7.5019H307.1V52.5723h1.44l.07.8.07.8a4.5365,4.5365,0,0,1,1.31-1.3332,3.2748,3.2748,0,0,1,1.79-.5077,2.6287,2.6287,0,0,1,2.6406,1.9405,4.7587,4.7587,0,0,1,1.3407-1.4053,3.25,3.25,0,0,1,1.82-.5352,2.6717,2.6717,0,0,1,2.0653.8677A3.4719,3.4719,0,0,1,320.4233,55.5527Z" fill="#383c45"/><path d="M331.9419,58.4141h-6.7813a4.4374,4.4374,0,0,0,.9374,2.7225,2.5786,2.5786,0,0,0,2.0031.8175,4.2312,4.2312,0,0,0,1.4327-.23,5.5263,5.5263,0,0,0,1.328-.71l.37.5.37.5a6.0994,6.0994,0,0,1-1.6531.9678,5.4657,5.4657,0,0,1-1.968.3526,4.2479,4.2479,0,0,1-3.388-1.4479,6.0218,6.0218,0,0,1-1.2126-3.9535,6.6774,6.6774,0,0,1,1.1549-4.0386,3.8288,3.8288,0,0,1,3.1654-1.563,3.8949,3.8949,0,0,1,3.1986,1.3878,5.9434,5.9434,0,0,1,1.0826,3.7734c0,.18-.0051.3552-.0127.5128S331.9517,58.3037,331.9419,58.4141Zm-1.62-1.4a4.0822,4.0822,0,0,0-.638-2.4658,2.2827,2.2827,0,0,0-1.9431-.875,2.1518,2.1518,0,0,0-1.7851.8276,4.7382,4.7382,0,0,0-.795,2.6733h5.1612v-.16Z" fill="#383c45"/><path d="M342.8418,55.5527v7.542h-1.68V55.793a2.4717,2.4717,0,0,0-.4553-1.6779,1.595,1.595,0,0,0-1.2654-.4628,2.5993,2.5993,0,0,0-1.5981.5352,5.2033,5.2033,0,0,0-1.2227,1.4053v7.5019H334.94V52.5723h1.44l.07.8.07.8a4.4534,4.4534,0,0,1,1.4105-1.3332,3.72,3.72,0,0,1,1.89-.5077,2.9242,2.9242,0,0,1,2.2388.86A3.3878,3.3878,0,0,1,342.8418,55.5527Z" fill="#383c45"/><path d="M351.7617,62.6348a4.043,4.043,0,0,1-1.0862.5225,4.1946,4.1946,0,0,1-1.2341.1777,2.7334,2.7334,0,0,1-2.0432-.75,3.05,3.05,0,0,1-.738-2.19V53.873h-1.82V52.5723h1.82v-2.42l.84-.09.84-.09v2.6006h2.5411l-.09.65-.09.65H348.34v6.4415a1.9454,1.9454,0,0,0,.3079,1.2224,1.2046,1.2046,0,0,0,1.0125.3977,2.4341,2.4341,0,0,0,.7231-.1075,3.5289,3.5289,0,0,0,.7378-.333l.32.57Z" fill="#383c45"/><path d="M366.9219,62.1543l-.2.59-.2.59a2.57,2.57,0,0,1-1.2573-.4655,2.0594,2.0594,0,0,1-.7037-1.1547,3.4859,3.4859,0,0,1-1.37,1.23,3.9971,3.9971,0,0,1-1.79.39,3.383,3.383,0,0,1-2.44-.8854,3.1338,3.1338,0,0,1-.88-2.2953,3.0211,3.0211,0,0,1,1.2-2.5608,5.5982,5.5982,0,0,1,3.3606-.8806h1.7207v-.84a2.1447,2.1447,0,0,0-.56-1.6652,2.4333,2.4333,0,0,0-1.7-.4949,6.5975,6.5975,0,0,0-1.3162.1476,11.7412,11.7412,0,0,0-1.5256.4325l-.21-.62-.21-.62a11.6371,11.6371,0,0,1,1.8177-.5405,8.6439,8.6439,0,0,1,1.7429-.18,3.7659,3.7659,0,0,1,2.7578.9128,3.45,3.45,0,0,1,.8828,2.5482v4.8808a1.8158,1.8158,0,0,0,.23,1.0329A1.2223,1.2223,0,0,0,366.9219,62.1543Zm-2.5606-1.82v-2.5h-1.5a3.7542,3.7542,0,0,0-2.2363.5576,1.9589,1.9589,0,0,0-.7656,1.6826,2.0481,2.0481,0,0,0,.4878,1.47,1.909,1.909,0,0,0,1.4341.51,2.6061,2.6061,0,0,0,1.4921-.4326A3.4228,3.4228,0,0,0,364.3613,60.334Z" fill="#383c45"/><path d="M377.8008,48.332V63.0947h-1.459l-.09-.74-.09-.74a3.7622,3.7622,0,0,1-1.2756,1.25,3.5087,3.5087,0,0,1-1.7869.47,3.43,3.43,0,0,1-2.9316-1.4931,6.8813,6.8813,0,0,1-1.0274-3.9679,6.8124,6.8124,0,0,1,1.0921-3.9787,3.7114,3.7114,0,0,1,4.6833-1.173,4.46,4.46,0,0,1,1.2051.93v-5.52l.84.1Zm-1.68,12.002V55.0928a3.8939,3.8939,0,0,0-1.0779-1.0326,2.67,2.67,0,0,0-1.4221-.3873,2.2427,2.2427,0,0,0-1.9561,1.04,5.6729,5.6729,0,0,0-.7255,3.1406,5.9749,5.9749,0,0,0,.6577,3.1206,2.0548,2.0548,0,0,0,1.8442,1.02,2.7,2.7,0,0,0,1.5347-.4323A4.1515,4.1515,0,0,0,376.1211,60.334Z" fill="#383c45"/><path d="M389.541,48.332V63.0947H388.08l-.09-.74-.09-.74a3.7643,3.7643,0,0,1-1.2754,1.25,3.504,3.504,0,0,1-1.7852.47,3.4319,3.4319,0,0,1-2.9333-1.4931,6.88,6.88,0,0,1-1.0276-3.9679,6.81,6.81,0,0,1,1.093-3.9787,3.7108,3.7108,0,0,1,4.6829-1.173,4.4822,4.4822,0,0,1,1.2065.93v-5.52l.84.1Zm-1.68,12.002V55.0928a3.8918,3.8918,0,0,0-1.0781-1.0326,2.6742,2.6742,0,0,0-1.4238-.3873,2.24,2.24,0,0,0-1.9551,1.04,5.6779,5.6779,0,0,0-.7246,3.1406,5.9781,5.9781,0,0,0,.6575,3.1206,2.0528,2.0528,0,0,0,1.8425,1.02,2.7,2.7,0,0,0,1.5356-.4323A4.1668,4.1668,0,0,0,387.8613,60.334Z" fill="#383c45"/><path d="M395.3594,48.7715a1.1446,1.1446,0,0,1-.33.8276,1.2112,1.2112,0,0,1-.8691.3325,1.185,1.185,0,0,1-.8538-.3325,1.2085,1.2085,0,0,1,0-1.6553,1.185,1.185,0,0,1,.8538-.3325,1.2112,1.2112,0,0,1,.8691.3325A1.145,1.145,0,0,1,395.3594,48.7715Zm-.34,14.3232h-1.68V52.5723h1.68V63.0947Z" fill="#383c45"/><path d="M404.0605,62.6348a4.0424,4.0424,0,0,1-1.0861.5225,4.1953,4.1953,0,0,1-1.2342.1777,2.7334,2.7334,0,0,1-2.0432-.75,3.05,3.05,0,0,1-.738-2.19V53.873h-1.82V52.5723h1.82v-2.42l.84-.09.84-.09v2.6006h2.541l-.09.65-.09.65h-2.3613v6.4415a1.9454,1.9454,0,0,0,.3078,1.2224,1.2047,1.2047,0,0,0,1.0125.3977,2.4341,2.4341,0,0,0,.7231-.1075,3.5266,3.5266,0,0,0,.7378-.333l.32.57Z" fill="#383c45"/><path d="M407.9785,48.7715a1.1446,1.1446,0,0,1-.33.8276,1.2109,1.2109,0,0,1-.8691.3325,1.185,1.185,0,0,1-.8538-.3325,1.2088,1.2088,0,0,1,0-1.6553,1.185,1.185,0,0,1,.8538-.3325,1.2109,1.2109,0,0,1,.8691.3325A1.145,1.145,0,0,1,407.9785,48.7715Zm-.34,14.3232h-1.68V52.5723h1.68V63.0947Z" fill="#383c45"/><path d="M419.9805,57.8135a6.2318,6.2318,0,0,1-1.2173,3.9985,4.6339,4.6339,0,0,1-6.8369.035,6.1753,6.1753,0,0,1-1.2075-3.9935,6.23,6.23,0,0,1,1.218-3.9985,4.6492,4.6492,0,0,1,6.8435-.0424A6.1866,6.1866,0,0,1,419.9805,57.8135Zm-7.461.04a5.4268,5.4268,0,0,0,.7276,3.1032,2.6663,2.6663,0,0,0,4.1953-.005,5.4764,5.4764,0,0,0,.7373-3.1382,5.4268,5.4268,0,0,0-.7276-3.1032,2.6587,2.6587,0,0,0-4.1879.005A5.452,5.452,0,0,0,412.52,57.8535Z" fill="#383c45"/><path d="M430.959,55.5527v7.542h-1.68V55.793a2.4723,2.4723,0,0,0-.4553-1.6779,1.595,1.595,0,0,0-1.2654-.4628,2.5988,2.5988,0,0,0-1.5977.5352,5.2047,5.2047,0,0,0-1.2226,1.4053v7.5019h-1.68V52.5723h1.4394l.07.8.07.8a4.4459,4.4459,0,0,1,1.41-1.3332,3.7225,3.7225,0,0,1,1.8907-.5077,2.9212,2.9212,0,0,1,2.237.86A3.3887,3.3887,0,0,1,430.959,55.5527Z" fill="#383c45"/><path d="M442.5391,62.1543l-.1993.59-.1992.59a2.5731,2.5731,0,0,1-1.2588-.4655,2.0523,2.0523,0,0,1-.7021-1.1547,3.4865,3.4865,0,0,1-1.3706,1.23,3.998,3.998,0,0,1-1.79.39,3.386,3.386,0,0,1-2.4419-.8854,3.1331,3.1331,0,0,1-.88-2.2953,3.0205,3.0205,0,0,1,1.2009-2.5608,5.6021,5.6021,0,0,1,3.3616-.8806h1.7187v-.84a2.1447,2.1447,0,0,0-.56-1.6652,2.4333,2.4333,0,0,0-1.7-.4949,6.5842,6.5842,0,0,0-1.3152.1476,11.7484,11.7484,0,0,0-1.5247.4325l-.21-.62-.21-.62a11.6392,11.6392,0,0,1,1.8176-.5405,8.6454,8.6454,0,0,1,1.7429-.18,3.7658,3.7658,0,0,1,2.7578.9128,3.45,3.45,0,0,1,.8829,2.5482v4.8808a1.8177,1.8177,0,0,0,.23,1.0329A1.22,1.22,0,0,0,442.5391,62.1543Zm-2.5606-1.82v-2.5h-1.5a3.75,3.75,0,0,0-2.2346.5576,1.96,1.96,0,0,0-.7654,1.6826,2.0493,2.0493,0,0,0,.4876,1.47,1.9061,1.9061,0,0,0,1.4323.51,2.6061,2.6061,0,0,0,1.493-.4326A3.4249,3.4249,0,0,0,439.9785,60.334Z" fill="#383c45"/><path d="M445.2578,61.0947V48.332l.8408-.1.8409-.1V61.0547a1.0792,1.0792,0,0,0,.1621.6575.6274.6274,0,0,0,.5371.2224,2.2171,2.2171,0,0,0,.3725-.03,1.627,1.627,0,0,0,.3286-.09l.22.59.22.59a2.9856,2.9856,0,0,1-.6482.2446,3.0808,3.0808,0,0,1-.7522.0953,2.0884,2.0884,0,0,1-1.541-.5727A2.3036,2.3036,0,0,1,445.2578,61.0947Z" fill="#383c45"/><path d="M464.5,62.1543l-.2.59-.2.59a2.57,2.57,0,0,1-1.2573-.4655,2.0587,2.0587,0,0,1-.7036-1.1547,3.4861,3.4861,0,0,1-1.37,1.23,3.9971,3.9971,0,0,1-1.79.39,3.383,3.383,0,0,1-2.44-.8854,3.1342,3.1342,0,0,1-.88-2.2953,3.0209,3.0209,0,0,1,1.2-2.5608,5.5977,5.5977,0,0,1,3.3606-.8806H461.94v-.84a2.1448,2.1448,0,0,0-.56-1.6652,2.4331,2.4331,0,0,0-1.7-.4949,6.5983,6.5983,0,0,0-1.3162.1476,11.7412,11.7412,0,0,0-1.5256.4325l-.21-.62-.21-.62a11.636,11.636,0,0,1,1.8176-.5405,8.6439,8.6439,0,0,1,1.7429-.18,3.7658,3.7658,0,0,1,2.7578.9128,3.45,3.45,0,0,1,.8828,2.5482v4.8808a1.8149,1.8149,0,0,0,.23,1.0329A1.2216,1.2216,0,0,0,464.5,62.1543Zm-2.56-1.82v-2.5h-1.5a3.7543,3.7543,0,0,0-2.2364.5576,1.9592,1.9592,0,0,0-.7656,1.6826,2.0481,2.0481,0,0,0,.4878,1.47,1.909,1.909,0,0,0,1.4341.51,2.6066,2.6066,0,0,0,1.4922-.4326A3.4246,3.4246,0,0,0,461.94,60.334Z" fill="#383c45"/><path d="M475.34,55.5527v7.542h-1.68V55.793a2.4717,2.4717,0,0,0-.4554-1.6779,1.5946,1.5946,0,0,0-1.2653-.4628,2.5984,2.5984,0,0,0-1.5977.5352,5.2067,5.2067,0,0,0-1.2227,1.4053v7.5019h-1.6816V52.5723h1.4414l.0693.8.0694.8a4.4589,4.4589,0,0,1,1.4109-1.3332,3.7188,3.7188,0,0,1,1.89-.5077,2.924,2.924,0,0,1,2.2387.86A3.3878,3.3878,0,0,1,475.34,55.5527Z" fill="#383c45"/><path d="M486.92,62.1543l-.2.59-.2.59a2.5708,2.5708,0,0,1-1.2573-.4655,2.0593,2.0593,0,0,1-.7036-1.1547,3.4861,3.4861,0,0,1-1.37,1.23,3.9971,3.9971,0,0,1-1.79.39,3.3826,3.3826,0,0,1-2.44-.8854,3.1338,3.1338,0,0,1-.88-2.2953,3.0209,3.0209,0,0,1,1.2-2.5608,5.5977,5.5977,0,0,1,3.3606-.8806h1.7207v-.84a2.1448,2.1448,0,0,0-.56-1.6652,2.4331,2.4331,0,0,0-1.7-.4949,6.5983,6.5983,0,0,0-1.3162.1476,11.7457,11.7457,0,0,0-1.5256.4325l-.21-.62-.21-.62a11.6392,11.6392,0,0,1,1.8176-.5405,8.6454,8.6454,0,0,1,1.7429-.18,3.7662,3.7662,0,0,1,2.7579.9128,3.45,3.45,0,0,1,.8828,2.5482v4.8808a1.815,1.815,0,0,0,.23,1.0329A1.2216,1.2216,0,0,0,486.92,62.1543Zm-2.56-1.82v-2.5h-1.5a3.7543,3.7543,0,0,0-2.2364.5576,1.9592,1.9592,0,0,0-.7656,1.6826,2.0485,2.0485,0,0,0,.4878,1.47,1.9092,1.9092,0,0,0,1.4341.51,2.6064,2.6064,0,0,0,1.4922-.4326A3.4237,3.4237,0,0,0,484.3594,60.334Z" fill="#383c45"/><path d="M489.6387,61.0947V48.332l.84-.1.84-.1V61.0547a1.0762,1.0762,0,0,0,.163.6575.63.63,0,0,0,.5381.2224,2.213,2.213,0,0,0,.3723-.03,1.6006,1.6006,0,0,0,.327-.09l.22.59.22.59a2.9547,2.9547,0,0,1-.6467.2446,3.0874,3.0874,0,0,1-.7537.0953,2.0856,2.0856,0,0,1-1.5393-.5727A2.3043,2.3043,0,0,1,489.6387,61.0947Z" fill="#383c45"/><path d="M499.4785,63.1543a6.6553,6.6553,0,0,1-1.59,2.7859,5.2973,5.2973,0,0,1-3.15,1.3752l-.1-.66-.1-.66a4.21,4.21,0,0,0,2.24-.97,4.8388,4.8388,0,0,0,1.0994-1.9307h-.58l-1.78-5.2612-1.78-5.2612h1.8008l1.45,4.6508,1.45,4.6509,1.42-4.6509,1.42-4.6508h1.74l-1.77,5.291Z" fill="#383c45"/><path d="M510.3789,62.6348a4.02,4.02,0,0,1-1.0847.5225,4.2,4.2,0,0,1-1.2356.1777,2.7334,2.7334,0,0,1-2.0432-.75,3.05,3.05,0,0,1-.7381-2.19V53.873h-1.82V52.5723h1.82v-2.42l.8409-.09.8408-.09v2.6006H509.5l-.0908.65-.0908.65H506.959v6.4415a1.9469,1.9469,0,0,0,.3071,1.2224,1.2045,1.2045,0,0,0,1.0132.3977,2.4258,2.4258,0,0,0,.7222-.1075,3.534,3.534,0,0,0,.7368-.333l.32.57Z" fill="#383c45"/><path d="M514.2988,48.7715a1.1439,1.1439,0,0,1-.33.8276,1.214,1.214,0,0,1-.8708.3325,1.1819,1.1819,0,0,1-.8521-.3325,1.2093,1.2093,0,0,1,0-1.6553,1.1819,1.1819,0,0,1,.8521-.3325,1.214,1.214,0,0,1,.8708.3325A1.1443,1.1443,0,0,1,514.2988,48.7715Zm-.34,14.3232h-1.6817V52.5723h1.6817V63.0947Z" fill="#383c45"/><path d="M524.76,53.4531l-.41.53-.41.53a4.0255,4.0255,0,0,0-1.066-.585,3.6,3.6,0,0,0-1.2153-.1953,2.3968,2.3968,0,0,0-2.0554,1.023,5.4,5.4,0,0,0-.7649,3.1382,5.036,5.036,0,0,0,.7649,3.0507,2.4313,2.4313,0,0,0,2.0554.95,3.3678,3.3678,0,0,0,1.2056-.2076,5.0662,5.0662,0,0,0,1.1147-.6127l.3906.55.3907.55a4.9106,4.9106,0,0,1-1.4683.865,4.8511,4.8511,0,0,1-1.6938.2952A4.201,4.201,0,0,1,518.2671,61.9a6.0448,6.0448,0,0,1-1.23-3.9856,6.3759,6.3759,0,0,1,1.2227-4.0516,4.1331,4.1331,0,0,1,3.3379-1.53,5.034,5.034,0,0,1,1.6784.26A4.7224,4.7224,0,0,1,524.76,53.4531Z" fill="#383c45"/><path d="M533.6191,53.5322l-.37.53-.37.53a5.7065,5.7065,0,0,0-1.34-.6925,4.2377,4.2377,0,0,0-1.4-.2274,2.4817,2.4817,0,0,0-1.4759.4025,1.2926,1.2926,0,0,0-.5456,1.0779,1.1871,1.1871,0,0,0,.5076,1.0447,5.5327,5.5327,0,0,0,1.8127.7151,6.2791,6.2791,0,0,1,2.5706,1.1579,2.617,2.617,0,0,1,.89,2.1028,2.7851,2.7851,0,0,1-1.2348,2.3833,4.9851,4.9851,0,0,1-2.8257.7779,6.3994,6.3994,0,0,1-2.283-.39,5.2166,5.2166,0,0,1-1.6369-.9907l.4492-.51.4492-.51a5.2049,5.2049,0,0,0,1.3638.76,4.6664,4.6664,0,0,0,1.6186.28,2.9132,2.9132,0,0,0,1.7024-.4527,1.4778,1.4778,0,0,0,.6375-1.2475,1.3975,1.3975,0,0,0-.5281-1.2331,6.1475,6.1475,0,0,0-2.0735-.8274,5.46,5.46,0,0,1-2.4446-1.18,2.4238,2.4238,0,0,1-.7351-1.84,2.5521,2.5521,0,0,1,1.065-2.0536,4.3718,4.3718,0,0,1,2.6557-.8078,5.7251,5.7251,0,0,1,1.9434.3152A5.8716,5.8716,0,0,1,533.6191,53.5322Z" fill="#383c45"/></svg>