<svg id="eac845ee-e26b-491e-857e-3b3a26145637" data-name="Layer 1" xmlns="http://www.w3.org/2000/svg" viewBox="0 0 588 60"><title>img-text-scenario-3</title><path d="M47.7563,31.2334a8.0451,8.0451,0,0,1-1.59,5.2537,5.656,5.656,0,0,1-8.3342.0324,7.9884,7.9884,0,0,1-1.598-5.2666A8.1354,8.1354,0,0,1,37.8392,25.97a5.5935,5.5935,0,0,1,8.3192-.0475A8.1021,8.1021,0,0,1,47.7563,31.2334Zm-9.6816.02a7.1,7.1,0,0,0,1.09,4.3212,3.7246,3.7246,0,0,0,5.6915-.0024,7.23,7.23,0,0,0,1.06-4.3383,7.3436,7.3436,0,0,0-1.053-4.3583,3.7081,3.7081,0,0,0-5.7138.0025A7.32,7.32,0,0,0,38.0747,31.2529Z" fill="#383c45"/><path d="M58.7153,30.5527v7.542h-1.68V30.793a2.4717,2.4717,0,0,0-.4553-1.6779,1.5947,1.5947,0,0,0-1.2654-.4628,2.5983,2.5983,0,0,0-1.5976.5352,5.205,5.205,0,0,0-1.2227,1.4053v7.5019H50.814V27.5723h1.44l.07.8.07.8A4.4527,4.4527,0,0,1,53.8046,27.84a3.72,3.72,0,0,1,1.89-.5077,2.9226,2.9226,0,0,1,2.2379.86A3.3883,3.3883,0,0,1,58.7153,30.5527Z" fill="#383c45"/><path d="M70.2358,33.4141H63.4546a4.4368,4.4368,0,0,0,.9374,2.7225,2.5782,2.5782,0,0,0,2.003.8175,4.2314,4.2314,0,0,0,1.4328-.23,5.5281,5.5281,0,0,0,1.328-.71l.37.5.37.5a6.0979,6.0979,0,0,1-1.6531.9678,5.4653,5.4653,0,0,1-1.968.3526,4.2477,4.2477,0,0,1-3.3879-1.4479,6.0218,6.0218,0,0,1-1.2127-3.9535,6.6774,6.6774,0,0,1,1.1549-4.0386,3.8288,3.8288,0,0,1,3.1654-1.563A3.895,3.895,0,0,1,69.1929,28.72a5.9429,5.9429,0,0,1,1.083,3.7734c0,.18-.0051.3552-.0127.5128S70.2456,33.3037,70.2358,33.4141Zm-1.62-1.4a4.0829,4.0829,0,0,0-.6379-2.4658,2.2828,2.2828,0,0,0-1.9431-.875,2.1521,2.1521,0,0,0-1.7852.8276,4.7375,4.7375,0,0,0-.7949,2.6733h5.1611v-.16Z" fill="#383c45"/><path d="M84.9546,28.5322l-.37.53-.37.53a5.7084,5.7084,0,0,0-1.34-.6925,4.2387,4.2387,0,0,0-1.4-.2274,2.479,2.479,0,0,0-1.4753.4025,1.2927,1.2927,0,0,0-.5452,1.0779,1.1871,1.1871,0,0,0,.5076,1.0447,5.5327,5.5327,0,0,0,1.8127.7151,6.2791,6.2791,0,0,1,2.5706,1.1579,2.6171,2.6171,0,0,1,.89,2.1028A2.785,2.785,0,0,1,84,37.5571a4.9849,4.9849,0,0,1-2.8253.7779,6.4,6.4,0,0,1-2.2834-.39,5.2254,5.2254,0,0,1-1.6375-.9907l.45-.51.45-.51a5.1941,5.1941,0,0,0,1.3633.76,4.6657,4.6657,0,0,0,1.6182.28,2.9136,2.9136,0,0,0,1.7024-.4527,1.4779,1.4779,0,0,0,.6374-1.2475,1.3977,1.3977,0,0,0-.5276-1.2331,6.141,6.141,0,0,0-2.073-.8274,5.4613,5.4613,0,0,1-2.4454-1.18,2.4235,2.4235,0,0,1-.7352-1.84A2.5521,2.5521,0,0,1,78.7582,28.14a4.3719,4.3719,0,0,1,2.6554-.8078,5.7245,5.7245,0,0,1,1.9433.3152A5.8707,5.8707,0,0,1,84.9546,28.5322Z" fill="#383c45"/><path d="M93.1343,37.6348a4.0332,4.0332,0,0,1-1.0855.5225,4.1974,4.1974,0,0,1-1.2348.1777,2.7331,2.7331,0,0,1-2.0432-.75,3.05,3.05,0,0,1-.7381-2.19V28.873h-1.82V27.5723h1.82v-2.42l.84-.09.84-.09v2.6006h2.541l-.09.65-.09.65h-2.36v6.4415a1.9455,1.9455,0,0,0,.3075,1.2224,1.2044,1.2044,0,0,0,1.0128.3977,2.4293,2.4293,0,0,0,.7226-.1075,3.531,3.531,0,0,0,.7374-.333l.32.57Z" fill="#383c45"/><path d="M103.2954,32.8135a6.23,6.23,0,0,1-1.2178,3.9985,4.6335,4.6335,0,0,1-6.8365.035,6.1758,6.1758,0,0,1-1.2074-3.9935,6.2313,6.2313,0,0,1,1.2176-3.9985,4.65,4.65,0,0,1,6.8439-.0424A6.186,6.186,0,0,1,103.2954,32.8135Zm-7.4619.04a5.4276,5.4276,0,0,0,.7275,3.1032,2.6672,2.6672,0,0,0,4.1962-.005,5.4755,5.4755,0,0,0,.7374-3.1382,5.4276,5.4276,0,0,0-.7275-3.1032,2.6593,2.6593,0,0,0-4.1885.005A5.45,5.45,0,0,0,95.8335,32.8535Z" fill="#383c45"/><path d="M114.9751,32.8135a6.8914,6.8914,0,0,1-1.045,3.9685,3.5739,3.5739,0,0,1-3.0556,1.553,3.8958,3.8958,0,0,1-1.6053-.3151,3.2579,3.2579,0,0,1-1.215-.9457v5.041l-.84.1-.84.1V27.5723h1.44l.07.73.07.73a4.0976,4.0976,0,0,1,1.3832-1.256,3.6478,3.6478,0,0,1,1.7574-.4452,3.3166,3.3166,0,0,1,2.9684,1.4879A7.32,7.32,0,0,1,114.9751,32.8135Zm-1.82,0a6.209,6.209,0,0,0-.6151-3.1206,2.0062,2.0062,0,0,0-1.8449-1.02,2.6052,2.6052,0,0,0-1.5382.5124,4.5342,4.5342,0,0,0-1.1024,1.1877v5.2208a3.1867,3.1867,0,0,0,1.0452,1.0028,2.7213,2.7213,0,0,0,1.3747.3575,2.237,2.237,0,0,0,1.9929-1.0127A5.7127,5.7127,0,0,0,113.1548,32.8135Z" fill="#383c45"/><path d="M129.7544,28.5322l-.37.53-.37.53a5.7084,5.7084,0,0,0-1.34-.6925,4.2387,4.2387,0,0,0-1.4-.2274,2.479,2.479,0,0,0-1.4753.4025,1.2927,1.2927,0,0,0-.5452,1.0779,1.1871,1.1871,0,0,0,.5076,1.0447,5.5327,5.5327,0,0,0,1.8127.7151,6.2791,6.2791,0,0,1,2.5706,1.1579,2.6171,2.6171,0,0,1,.89,2.1028,2.7849,2.7849,0,0,1-1.2354,2.3833,4.987,4.987,0,0,1-2.8262.7779,6.3961,6.3961,0,0,1-2.2825-.39,5.226,5.226,0,0,1-1.6374-.9907l.45-.51.45-.51a5.1941,5.1941,0,0,0,1.3633.76,4.6662,4.6662,0,0,0,1.6182.28,2.9136,2.9136,0,0,0,1.7024-.4527,1.4779,1.4779,0,0,0,.6374-1.2475,1.3977,1.3977,0,0,0-.5276-1.2331,6.141,6.141,0,0,0-2.073-.8274,5.4613,5.4613,0,0,1-2.4454-1.18,2.4235,2.4235,0,0,1-.7352-1.84A2.5521,2.5521,0,0,1,123.558,28.14a4.3719,4.3719,0,0,1,2.6554-.8078,5.7245,5.7245,0,0,1,1.9433.3152A5.8707,5.8707,0,0,1,129.7544,28.5322Z" fill="#383c45"/><path d="M140.5942,30.5527v7.542h-1.68V30.793a2.4271,2.4271,0,0,0-.4728-1.6779,1.6237,1.6237,0,0,0-1.2675-.4628,2.5825,2.5825,0,0,0-1.5732.5328,5.2431,5.2431,0,0,0-1.2276,1.3881v7.5215h-1.6806V23.3516l.84-.1.84-.1v5.9414a4.59,4.59,0,0,1,1.3826-1.2781,3.5778,3.5778,0,0,1,1.8176-.4827,2.92,2.92,0,0,1,2.2306.8677A3.3814,3.3814,0,0,1,140.5942,30.5527Z" fill="#383c45"/><path d="M152.8149,32.8135a6.2307,6.2307,0,0,1-1.2177,3.9985,4.6336,4.6336,0,0,1-6.8366.035,6.1758,6.1758,0,0,1-1.2074-3.9935,6.2313,6.2313,0,0,1,1.2177-3.9985,4.65,4.65,0,0,1,6.8438-.0424A6.186,6.186,0,0,1,152.8149,32.8135Zm-7.4619.04a5.4268,5.4268,0,0,0,.7276,3.1032,2.6671,2.6671,0,0,0,4.1961-.005,5.4747,5.4747,0,0,0,.7375-3.1382,5.4268,5.4268,0,0,0-.7276-3.1032,2.6593,2.6593,0,0,0-4.1885.005A5.45,5.45,0,0,0,145.353,32.8535Z" fill="#383c45"/><path d="M164.4946,32.8135a6.8914,6.8914,0,0,1-1.045,3.9685,3.5738,3.5738,0,0,1-3.0556,1.553,3.8958,3.8958,0,0,1-1.6053-.3151,3.2587,3.2587,0,0,1-1.215-.9457v5.041l-.84.1-.84.1V27.5723h1.44l.07.73.07.73a4.0976,4.0976,0,0,1,1.3832-1.256,3.6479,3.6479,0,0,1,1.7575-.4452,3.3167,3.3167,0,0,1,2.9684,1.4879A7.3214,7.3214,0,0,1,164.4946,32.8135Zm-1.82,0a6.209,6.209,0,0,0-.6151-3.1206,2.006,2.006,0,0,0-1.8448-1.02,2.6055,2.6055,0,0,0-1.5383.5124,4.5342,4.5342,0,0,0-1.1024,1.1877v5.2208a3.1886,3.1886,0,0,0,1.0452,1.0028,2.7214,2.7214,0,0,0,1.3748.3575,2.2371,2.2371,0,0,0,1.9929-1.0127A5.7136,5.7136,0,0,0,162.6743,32.8135Z" fill="#383c45"/><path d="M174.813,26.0518v1.52h2.6006l-.09.65-.09.65H174.813v9.2217h-1.6807V28.873h-1.86V27.5723h1.86v-1.5A2.8448,2.8448,0,0,1,173.96,23.95a3.3389,3.3389,0,0,1,2.3733-.8177,5.8691,5.8691,0,0,1,1.31.1349,6.4122,6.4122,0,0,1,1.19.4052l-.27.61-.27.61a4.7045,4.7045,0,0,0-.9749-.3121,4.4669,4.4669,0,0,0-.8855-.0873,1.7,1.7,0,0,0-1.2524.3824A1.5937,1.5937,0,0,0,174.813,26.0518Z" fill="#383c45"/><path d="M187.894,32.8135a6.2307,6.2307,0,0,1-1.2177,3.9985,4.6336,4.6336,0,0,1-6.8366.035,6.1758,6.1758,0,0,1-1.2074-3.9935A6.2313,6.2313,0,0,1,179.85,28.855a4.65,4.65,0,0,1,6.8438-.0424A6.186,6.186,0,0,1,187.894,32.8135Zm-7.4619.04a5.4268,5.4268,0,0,0,.7276,3.1032,2.6671,2.6671,0,0,0,4.1961-.005,5.4747,5.4747,0,0,0,.7375-3.1382,5.4268,5.4268,0,0,0-.7276-3.1032,2.6593,2.6593,0,0,0-4.1885.005A5.45,5.45,0,0,0,180.4321,32.8535Z" fill="#383c45"/><path d="M196.4731,27.4521l-.16.82-.16.82a3.4478,3.4478,0,0,0-.43-.09,3.5255,3.5255,0,0,0-.49-.03,2.0024,2.0024,0,0,0-1.62.7375,5.3456,5.3456,0,0,0-.96,2.283v6.1015h-1.6806V27.5723h1.44l.08,1.1006.08,1.1005a4.09,4.09,0,0,1,1.1449-1.8286,2.5711,2.5711,0,0,1,1.7154-.6128,4.7032,4.7032,0,0,1,.535.03A3.9355,3.9355,0,0,1,196.4731,27.4521Z" fill="#383c45"/><path d="M212.5327,32.8135a6.7548,6.7548,0,0,1-1.0974,4.0062,3.59,3.59,0,0,1-3.0032,1.5153,3.4434,3.4434,0,0,1-1.6176-.39,3.9236,3.9236,0,0,1-1.2427-1.05l-.08.6-.08.6h-1.48V23.332l.84-.1.84-.1v5.7813a3.95,3.95,0,0,1,1.2924-1.1582,3.5689,3.5689,0,0,1,1.7281-.4229A3.3709,3.3709,0,0,1,211.475,28.76,6.8677,6.8677,0,0,1,212.5327,32.8135Zm-1.82,0a5.8261,5.8261,0,0,0-.6852-3.203,2.0841,2.0841,0,0,0-1.8548-.9376,2.476,2.476,0,0,0-1.5129.51,4.5548,4.5548,0,0,0-1.0477,1.1706v5.1807a3.6376,3.6376,0,0,0,1.0525,1.0526,2.5358,2.5358,0,0,0,1.3674.4073,2.2371,2.2371,0,0,0,1.9483-.995A5.6446,5.6446,0,0,0,210.7124,32.8135Z" fill="#383c45"/><path d="M224.1333,32.8135a6.23,6.23,0,0,1-1.2178,3.9985,4.6335,4.6335,0,0,1-6.8365.035,6.1758,6.1758,0,0,1-1.2074-3.9935,6.2313,6.2313,0,0,1,1.2176-3.9985,4.65,4.65,0,0,1,6.8439-.0424A6.186,6.186,0,0,1,224.1333,32.8135Zm-7.4619.04a5.4276,5.4276,0,0,0,.7275,3.1032,2.6672,2.6672,0,0,0,4.1962-.005,5.4755,5.4755,0,0,0,.7374-3.1382,5.4276,5.4276,0,0,0-.7275-3.1032,2.6593,2.6593,0,0,0-4.1885.005A5.45,5.45,0,0,0,216.6714,32.8535Z" fill="#383c45"/><path d="M232.4526,37.6348a4.0311,4.0311,0,0,1-1.0854.5225,4.1976,4.1976,0,0,1-1.2349.1777,2.7334,2.7334,0,0,1-2.0432-.75,3.05,3.05,0,0,1-.738-2.19V28.873h-1.82V27.5723h1.82v-2.42l.84-.09.84-.09v2.6006h2.5411l-.09.65-.09.65h-2.36v6.4415a1.9461,1.9461,0,0,0,.3075,1.2224,1.2047,1.2047,0,0,0,1.0129.3977,2.4293,2.4293,0,0,0,.7226-.1075,3.53,3.53,0,0,0,.7373-.333l.32.57Z" fill="#383c45"/><path d="M242.2524,30.5527v7.542h-1.68V30.793a2.4271,2.4271,0,0,0-.4728-1.6779,1.6237,1.6237,0,0,0-1.2675-.4628,2.5825,2.5825,0,0,0-1.5732.5328,5.2431,5.2431,0,0,0-1.2276,1.3881v7.5215h-1.6806V23.3516l.84-.1.84-.1v5.9414a4.59,4.59,0,0,1,1.3826-1.2781,3.5778,3.5778,0,0,1,1.8176-.4827,2.92,2.92,0,0,1,2.2306.8677A3.3814,3.3814,0,0,1,242.2524,30.5527Z" fill="#383c45"/><path d="M259.1323,33.4141h-6.7812a4.4368,4.4368,0,0,0,.9374,2.7225,2.5782,2.5782,0,0,0,2.003.8175,4.2308,4.2308,0,0,0,1.4327-.23,5.5263,5.5263,0,0,0,1.328-.71l.37.5.37.5a6.0979,6.0979,0,0,1-1.6531.9678,5.4657,5.4657,0,0,1-1.968.3526,4.2479,4.2479,0,0,1-3.388-1.4479,6.0218,6.0218,0,0,1-1.2126-3.9535,6.6774,6.6774,0,0,1,1.1549-4.0386,3.8288,3.8288,0,0,1,3.1654-1.563,3.895,3.895,0,0,1,3.1983,1.3878,5.9429,5.9429,0,0,1,1.083,3.7734c0,.18-.0052.3552-.0127.5128S259.1421,33.3037,259.1323,33.4141Zm-1.62-1.4a4.0829,4.0829,0,0,0-.6379-2.4658,2.2828,2.2828,0,0,0-1.9431-.875,2.1521,2.1521,0,0,0-1.7852.8276,4.7375,4.7375,0,0,0-.7949,2.6733h5.1611v-.16Z" fill="#383c45"/><path d="M275.4536,30.5527v7.542h-1.6807V30.793a2.5574,2.5574,0,0,0-.45-1.6779,1.3776,1.3776,0,0,0-1.11-.4628,2.1657,2.1657,0,0,0-1.4475.5352,6.0481,6.0481,0,0,0-1.1326,1.4053v7.5019h-1.6806V30.793a2.5587,2.5587,0,0,0-.45-1.6779,1.3777,1.3777,0,0,0-1.1106-.4628,2.19,2.19,0,0,0-1.4552.5352,5.7236,5.7236,0,0,0-1.1249,1.4053v7.5019H262.13V27.5723h1.44l.07.8.07.8a4.5368,4.5368,0,0,1,1.31-1.3332,3.2747,3.2747,0,0,1,1.79-.5077,2.6287,2.6287,0,0,1,2.6407,1.9405,4.7574,4.7574,0,0,1,1.3407-1.4053,3.25,3.25,0,0,1,1.82-.5352,2.6717,2.6717,0,0,1,2.0653.8677A3.4724,3.4724,0,0,1,275.4536,30.5527Z" fill="#383c45"/><path d="M287.7319,32.8135a6.7548,6.7548,0,0,1-1.0974,4.0062,3.59,3.59,0,0,1-3.0032,1.5153,3.4437,3.4437,0,0,1-1.6176-.39,3.9236,3.9236,0,0,1-1.2427-1.05l-.08.6-.08.6h-1.48V23.332l.84-.1.84-.1v5.7813a3.95,3.95,0,0,1,1.2924-1.1582,3.5694,3.5694,0,0,1,1.7281-.4229,3.3709,3.3709,0,0,1,2.8427,1.4279A6.8677,6.8677,0,0,1,287.7319,32.8135Zm-1.82,0a5.8261,5.8261,0,0,0-.6852-3.203,2.084,2.084,0,0,0-1.8548-.9376,2.4757,2.4757,0,0,0-1.5128.51,4.5552,4.5552,0,0,0-1.0478,1.1706v5.1807a3.6388,3.6388,0,0,0,1.0525,1.0526,2.5361,2.5361,0,0,0,1.3675.4073,2.2371,2.2371,0,0,0,1.9482-.995A5.6446,5.6446,0,0,0,285.9116,32.8135Z" fill="#383c45"/><path d="M298.6328,33.4141h-6.7817a4.4374,4.4374,0,0,0,.9373,2.7225,2.5778,2.5778,0,0,0,2.0026.8175,4.2324,4.2324,0,0,0,1.4329-.23,5.5379,5.5379,0,0,0,1.3288-.71l.37.5.37.5a6.1107,6.1107,0,0,1-1.6538.9678,5.4638,5.4638,0,0,1-1.9673.3526,4.2485,4.2485,0,0,1-3.3884-1.4479,6.0213,6.0213,0,0,1-1.2127-3.9535,6.6781,6.6781,0,0,1,1.1548-4.0386,3.8283,3.8283,0,0,1,3.165-1.563,3.895,3.895,0,0,1,3.1983,1.3878,5.9429,5.9429,0,0,1,1.083,3.7734c0,.18-.0049.3552-.0122.5128S298.6426,33.3037,298.6328,33.4141Zm-1.6211-1.4a4.0844,4.0844,0,0,0-.6374-2.4658,2.2816,2.2816,0,0,0-1.9427-.875,2.1524,2.1524,0,0,0-1.7855.8276,4.7366,4.7366,0,0,0-.795,2.6733h5.1606v-.16Z" fill="#383c45"/><path d="M309.5723,23.332V38.0947h-1.461l-.09-.74-.09-.74a3.7631,3.7631,0,0,1-1.2753,1.25,3.5046,3.5046,0,0,1-1.7852.47,3.4322,3.4322,0,0,1-2.9334-1.4931A6.88,6.88,0,0,1,300.91,32.874a6.8089,6.8089,0,0,1,1.093-3.9787,3.7107,3.7107,0,0,1,4.6828-1.173,4.4811,4.4811,0,0,1,1.2066.93V23.1318l.84.1Zm-1.68,12.002V30.0928a3.8918,3.8918,0,0,0-1.0781-1.0326,2.6748,2.6748,0,0,0-1.4239-.3873,2.24,2.24,0,0,0-1.9551,1.04,5.6779,5.6779,0,0,0-.7246,3.1406,5.9781,5.9781,0,0,0,.6575,3.1206,2.053,2.053,0,0,0,1.8425,1.02,2.7007,2.7007,0,0,0,1.5357-.4323A4.1668,4.1668,0,0,0,307.8926,35.334Z" fill="#383c45"/><path d="M321.3105,23.332V38.0947h-1.4589l-.09-.74-.09-.74a3.7624,3.7624,0,0,1-1.2757,1.25,3.5081,3.5081,0,0,1-1.7868.47,3.43,3.43,0,0,1-2.9317-1.4931A6.8821,6.8821,0,0,1,312.65,32.874a6.8132,6.8132,0,0,1,1.092-3.9787,3.7115,3.7115,0,0,1,4.6834-1.173,4.4613,4.4613,0,0,1,1.2051.93V23.1318l.84.1Zm-1.68,12.002V30.0928A3.8967,3.8967,0,0,0,318.553,29.06a2.67,2.67,0,0,0-1.4221-.3873,2.2425,2.2425,0,0,0-1.9561,1.04,5.6729,5.6729,0,0,0-.7256,3.1406,5.9759,5.9759,0,0,0,.6577,3.1206,2.0551,2.0551,0,0,0,1.8443,1.02,2.6993,2.6993,0,0,0,1.5346-.4323A4.1517,4.1517,0,0,0,319.6309,35.334Z" fill="#383c45"/><path d="M332.9512,33.4141H326.17a4.4368,4.4368,0,0,0,.9375,2.7225,2.58,2.58,0,0,0,2.0039.8175,4.2294,4.2294,0,0,0,1.4326-.23,5.5164,5.5164,0,0,0,1.3272-.71l.37.5.37.5a6.0862,6.0862,0,0,1-1.6523.9678,5.4681,5.4681,0,0,1-1.9688.3526,4.2463,4.2463,0,0,1-3.3874-1.4479,6.0228,6.0228,0,0,1-1.2122-3.9535,6.6781,6.6781,0,0,1,1.1546-4.0386,3.8284,3.8284,0,0,1,3.1657-1.563,3.895,3.895,0,0,1,3.1983,1.3878,5.9423,5.9423,0,0,1,1.083,3.7734c0,.18-.0054.3552-.0132.5128S332.9609,33.3037,332.9512,33.4141Zm-1.6192-1.4a4.0808,4.0808,0,0,0-.6384-2.4658,2.284,2.284,0,0,0-1.9436-.875,2.1511,2.1511,0,0,0-1.7844.8276,4.741,4.741,0,0,0-.7957,2.6733h5.1621v-.16Z" fill="#383c45"/><path d="M343.8906,23.332V38.0947h-1.459l-.09-.74-.09-.74a3.7624,3.7624,0,0,1-1.2757,1.25,3.5084,3.5084,0,0,1-1.7868.47,3.43,3.43,0,0,1-2.9317-1.4931,6.8813,6.8813,0,0,1-1.0273-3.9679,6.8124,6.8124,0,0,1,1.092-3.9787,3.7115,3.7115,0,0,1,4.6834-1.173,4.4593,4.4593,0,0,1,1.205.93V23.1318l.84.1Zm-1.68,12.002V30.0928a3.895,3.895,0,0,0-1.0778-1.0326,2.6705,2.6705,0,0,0-1.4222-.3873,2.2425,2.2425,0,0,0-1.956,1.04,5.6729,5.6729,0,0,0-.7256,3.1406,5.9759,5.9759,0,0,0,.6577,3.1206,2.0548,2.0548,0,0,0,1.8443,1.02,2.7,2.7,0,0,0,1.5346-.4323A4.1515,4.1515,0,0,0,342.2109,35.334Z" fill="#383c45"/><path d="M360.9512,37.1543l-.2.59-.2.59a2.57,2.57,0,0,1-1.2573-.4655,2.0594,2.0594,0,0,1-.7037-1.1547,3.4859,3.4859,0,0,1-1.37,1.23,3.9971,3.9971,0,0,1-1.79.39,3.3829,3.3829,0,0,1-2.44-.8854,3.1338,3.1338,0,0,1-.88-2.2953,3.0211,3.0211,0,0,1,1.2-2.5608,5.5982,5.5982,0,0,1,3.3606-.8806h1.7207v-.84a2.1447,2.1447,0,0,0-.56-1.6652,2.4333,2.4333,0,0,0-1.7-.4949,6.5975,6.5975,0,0,0-1.3162.1476,11.7412,11.7412,0,0,0-1.5256.4325l-.21-.62-.21-.62a11.6371,11.6371,0,0,1,1.8177-.5405,8.6439,8.6439,0,0,1,1.7429-.18,3.7659,3.7659,0,0,1,2.7578.9128,3.45,3.45,0,0,1,.8828,2.5482v4.8808a1.8158,1.8158,0,0,0,.23,1.0329A1.2223,1.2223,0,0,0,360.9512,37.1543Zm-2.5606-1.82v-2.5h-1.5a3.7542,3.7542,0,0,0-2.2363.5576,1.9589,1.9589,0,0,0-.7656,1.6826,2.0481,2.0481,0,0,0,.4878,1.47,1.909,1.909,0,0,0,1.434.51,2.6062,2.6062,0,0,0,1.4922-.4326A3.4228,3.4228,0,0,0,358.3906,35.334Z" fill="#383c45"/><path d="M371.791,30.5527v7.542h-1.68V30.793a2.4717,2.4717,0,0,0-.4553-1.6779,1.5949,1.5949,0,0,0-1.2654-.4628,2.5983,2.5983,0,0,0-1.5976.5352,5.2033,5.2033,0,0,0-1.2227,1.4053v7.5019h-1.6816V27.5723H365.33l.0693.8.0694.8A4.46,4.46,0,0,1,366.88,27.84a3.719,3.719,0,0,1,1.89-.5077,2.9242,2.9242,0,0,1,2.2388.86A3.3878,3.3878,0,0,1,371.791,30.5527Z" fill="#383c45"/><path d="M383.41,23.332V38.0947h-1.459l-.09-.74-.09-.74a3.7624,3.7624,0,0,1-1.2757,1.25,3.5081,3.5081,0,0,1-1.7868.47,3.43,3.43,0,0,1-2.9317-1.4931A6.8821,6.8821,0,0,1,374.75,32.874a6.8132,6.8132,0,0,1,1.092-3.9787,3.7115,3.7115,0,0,1,4.6834-1.173,4.4613,4.4613,0,0,1,1.2051.93V23.1318l.84.1Zm-1.68,12.002V30.0928a3.8939,3.8939,0,0,0-1.0779-1.0326,2.67,2.67,0,0,0-1.4221-.3873,2.2426,2.2426,0,0,0-1.9561,1.04,5.6729,5.6729,0,0,0-.7256,3.1406,5.9759,5.9759,0,0,0,.6577,3.1206,2.0551,2.0551,0,0,0,1.8443,1.02,2.6991,2.6991,0,0,0,1.5346-.4323A4.1517,4.1517,0,0,0,381.7305,35.334Z" fill="#383c45"/><path d="M405.8926,30.5527v7.542h-1.6817V30.793a2.5587,2.5587,0,0,0-.45-1.6779,1.3777,1.3777,0,0,0-1.1106-.4628,2.1657,2.1657,0,0,0-1.4475.5352,6.0481,6.0481,0,0,0-1.1326,1.4053v7.5019h-1.68V30.793a2.5566,2.5566,0,0,0-.4507-1.6779,1.3776,1.3776,0,0,0-1.11-.4628,2.1919,2.1919,0,0,0-1.4556.5352,5.7089,5.7089,0,0,0-1.1245,1.4053v7.5019h-1.6816V27.5723H394.01l.0693.8.0693.8A4.5359,4.5359,0,0,1,395.459,27.84a3.2768,3.2768,0,0,1,1.791-.5077,2.6293,2.6293,0,0,1,2.6406,1.9405,4.7514,4.7514,0,0,1,1.34-1.4053,3.25,3.25,0,0,1,1.82-.5352,2.673,2.673,0,0,1,2.0661.8677A3.4715,3.4715,0,0,1,405.8926,30.5527Z" fill="#383c45"/><path d="M418.1113,32.8135a6.23,6.23,0,0,1-1.2182,3.9985,4.6332,4.6332,0,0,1-6.8362.035,6.1764,6.1764,0,0,1-1.2073-3.9935,6.2318,6.2318,0,0,1,1.2173-3.9985,4.65,4.65,0,0,1,6.8442-.0424A6.186,6.186,0,0,1,418.1113,32.8135Zm-7.4629.04a5.4268,5.4268,0,0,0,.7276,3.1032,2.668,2.668,0,0,0,4.197-.005,5.4739,5.4739,0,0,0,.7375-3.1382,5.4276,5.4276,0,0,0-.7275-3.1032,2.66,2.66,0,0,0-4.189.005A5.4484,5.4484,0,0,0,410.6484,32.8535Z" fill="#383c45"/><path d="M429.7891,32.8135a6.7562,6.7562,0,0,1-1.097,4.0062A3.5887,3.5887,0,0,1,425.69,38.335a3.4443,3.4443,0,0,1-1.6182-.39,3.9318,3.9318,0,0,1-1.2432-1.05l-.08.6-.08.6h-1.4805V23.332l.8408-.1.8408-.1v5.7813a3.9444,3.9444,0,0,1,1.2915-1.1582,3.5689,3.5689,0,0,1,1.7281-.4229,3.3708,3.3708,0,0,1,2.843,1.4279A6.8685,6.8685,0,0,1,429.7891,32.8135Zm-1.82,0a5.828,5.828,0,0,0-.6851-3.203,2.0831,2.0831,0,0,0-1.854-.9376,2.4756,2.4756,0,0,0-1.5132.51,4.5555,4.5555,0,0,0-1.0474,1.1706v5.1807a3.6388,3.6388,0,0,0,1.0525,1.0526,2.5361,2.5361,0,0,0,1.3675.4073,2.236,2.236,0,0,0,1.9477-.995A5.6466,5.6466,0,0,0,427.9688,32.8135Z" fill="#383c45"/><path d="M434.8691,23.7715a1.1439,1.1439,0,0,1-.33.8276,1.214,1.214,0,0,1-.8708.3325,1.1821,1.1821,0,0,1-.8521-.3325,1.2093,1.2093,0,0,1,0-1.6553,1.1821,1.1821,0,0,1,.8521-.3325,1.214,1.214,0,0,1,.8708.3325A1.1443,1.1443,0,0,1,434.8691,23.7715Zm-.34,14.3232h-1.6816V27.5723h1.6816V38.0947Z" fill="#383c45"/><path d="M438.207,36.0947V23.332l.8409-.1.8408-.1V36.0547a1.0792,1.0792,0,0,0,.1621.6575.6274.6274,0,0,0,.5371.2224,2.2171,2.2171,0,0,0,.3725-.03,1.63,1.63,0,0,0,.3287-.09l.22.59.22.59a2.9856,2.9856,0,0,1-.6482.2446,3.0808,3.0808,0,0,1-.7522.0953,2.0884,2.0884,0,0,1-1.541-.5727A2.3036,2.3036,0,0,1,438.207,36.0947Z" fill="#383c45"/><path d="M451.93,33.4141h-6.7813a4.4368,4.4368,0,0,0,.9375,2.7225,2.58,2.58,0,0,0,2.0039.8175,4.23,4.23,0,0,0,1.4327-.23,5.5178,5.5178,0,0,0,1.3271-.71l.37.5.37.5a6.0847,6.0847,0,0,1-1.6523.9678,5.4675,5.4675,0,0,1-1.9687.3526,4.2466,4.2466,0,0,1-3.3875-1.4479,6.0228,6.0228,0,0,1-1.2122-3.9535,6.6781,6.6781,0,0,1,1.1546-4.0386,3.8286,3.8286,0,0,1,3.1658-1.563,3.8949,3.8949,0,0,1,3.1982,1.3878,5.9423,5.9423,0,0,1,1.083,3.7734c0,.18-.0054.3552-.0132.5128S451.94,33.3037,451.93,33.4141Zm-1.6192-1.4a4.0808,4.0808,0,0,0-.6384-2.4658,2.284,2.284,0,0,0-1.9436-.875,2.1512,2.1512,0,0,0-1.7844.8276,4.7418,4.7418,0,0,0-.7957,2.6733h5.1621v-.16Z" fill="#383c45"/><path d="M468.19,30.5527v7.542h-1.68V30.793a2.4717,2.4717,0,0,0-.4554-1.6779,1.5946,1.5946,0,0,0-1.2653-.4628,2.5984,2.5984,0,0,0-1.5977.5352,5.2047,5.2047,0,0,0-1.2226,1.4053v7.5019h-1.6817V27.5723h1.4414l.0694.8.0693.8a4.4589,4.4589,0,0,1,1.4109-1.3332,3.7188,3.7188,0,0,1,1.89-.5077,2.924,2.924,0,0,1,2.2387.86A3.3879,3.3879,0,0,1,468.19,30.5527Z" fill="#383c45"/><path d="M479.77,37.1543l-.2.59-.2.59a2.5711,2.5711,0,0,1-1.2573-.4655,2.0593,2.0593,0,0,1-.7036-1.1547,3.4861,3.4861,0,0,1-1.37,1.23,3.9971,3.9971,0,0,1-1.79.39,3.3826,3.3826,0,0,1-2.44-.8854,3.1338,3.1338,0,0,1-.88-2.2953,3.0211,3.0211,0,0,1,1.2-2.5608,5.598,5.598,0,0,1,3.3606-.8806h1.7207v-.84a2.1448,2.1448,0,0,0-.56-1.6652,2.4331,2.4331,0,0,0-1.7-.4949,6.5966,6.5966,0,0,0-1.3161.1476,11.7424,11.7424,0,0,0-1.5257.4325l-.21-.62-.21-.62a11.6392,11.6392,0,0,1,1.8176-.5405,8.6454,8.6454,0,0,1,1.7429-.18,3.7662,3.7662,0,0,1,2.7579.9128,3.45,3.45,0,0,1,.8828,2.5482v4.8808a1.8158,1.8158,0,0,0,.23,1.0329A1.222,1.222,0,0,0,479.77,37.1543Zm-2.56-1.82v-2.5h-1.5a3.7537,3.7537,0,0,0-2.2363.5576,1.959,1.959,0,0,0-.7657,1.6826,2.0485,2.0485,0,0,0,.4878,1.47,1.9092,1.9092,0,0,0,1.4341.51,2.6064,2.6064,0,0,0,1.4922-.4326A3.4237,3.4237,0,0,0,477.209,35.334Z" fill="#383c45"/><path d="M486.6289,38.0947h-2.041l-1.83-5.2612-1.83-5.2612h1.84l1.4306,4.5112,1.4307,4.5112,1.41-4.5112,1.41-4.5112h1.7813L488.43,32.8335Z" fill="#383c45"/><path d="M494.3691,23.7715a1.1439,1.1439,0,0,1-.33.8276,1.214,1.214,0,0,1-.8708.3325,1.1821,1.1821,0,0,1-.8521-.3325,1.2093,1.2093,0,0,1,0-1.6553,1.1821,1.1821,0,0,1,.8521-.3325,1.214,1.214,0,0,1,.8708.3325A1.1443,1.1443,0,0,1,494.3691,23.7715Zm-.34,14.3232h-1.6816V27.5723h1.6816V38.0947Z" fill="#383c45"/><path d="M506.209,27.9922a6.6232,6.6232,0,0,1-1.3777.2506c-.5027.045-1.053.06-1.6633.07a3.1714,3.1714,0,0,1,1.3786,1.073,2.7988,2.7988,0,0,1,.4632,1.6282,3.3684,3.3684,0,0,1-1.05,2.5423,4.1919,4.1919,0,0,1-2.9107.9977,4.7805,4.7805,0,0,1-.6926-.0474,3.7149,3.7149,0,0,1-.6472-.1528,1.3348,1.3348,0,0,0-.4265.4528,1.19,1.19,0,0,0-.1555.5882.7433.7433,0,0,0,.3.6372,1.9266,1.9266,0,0,0,1.1412.2622h1.68a3.9925,3.9925,0,0,1,2.5733.8155,2.6005,2.6005,0,0,1,.9678,2.0459,2.6485,2.6485,0,0,1-1.2122,2.3377,6.5909,6.5909,0,0,1-3.6277.8224,5.9161,5.9161,0,0,1-3.509-.7752,2.7118,2.7118,0,0,1-.9734-2.3654h1.5215a1.4941,1.4941,0,0,0,.595,1.3829,4.4167,4.4167,0,0,0,2.3659.4374,4.9486,4.9486,0,0,0,2.44-.4475,1.3645,1.3645,0,0,0,.7-1.2722,1.3423,1.3423,0,0,0-.58-1.1707,2.8171,2.8171,0,0,0-1.6013-.39h-1.66a3.1462,3.1462,0,0,1-2.03-.59,1.7323,1.7323,0,0,1-.65-1.3709,1.9008,1.9008,0,0,1,.2917-1.0027,2.6991,2.6991,0,0,1,.8469-.8371,3.0426,3.0426,0,0,1-1.76-2.94,3.4628,3.4628,0,0,1,1.13-2.6235,4.2222,4.2222,0,0,1,2.8718-1.0181,12.0379,12.0379,0,0,0,2.9351-.2147,8.7187,8.7187,0,0,0,1.8247-.6652l.25.77Zm-7.541,2.9814a2.5785,2.5785,0,0,0,.6049,1.7848,2.5558,2.5558,0,0,0,3.4283.03,2.601,2.601,0,0,0,.5879-1.8149,2.52,2.52,0,0,0-.5855-1.7956,2.3159,2.3159,0,0,0-1.7544-.6253,2.1854,2.1854,0,0,0-1.7038.6853A2.5648,2.5648,0,0,0,498.668,30.9736Z" fill="#383c45"/><path d="M516.0684,37.1543l-.1993.59-.1992.59a2.5731,2.5731,0,0,1-1.2588-.4655,2.0523,2.0523,0,0,1-.7021-1.1547,3.4865,3.4865,0,0,1-1.3706,1.23,3.998,3.998,0,0,1-1.79.39,3.386,3.386,0,0,1-2.4419-.8854,3.1331,3.1331,0,0,1-.88-2.2953,3.0205,3.0205,0,0,1,1.2009-2.5608,5.6021,5.6021,0,0,1,3.3616-.8806h1.7187v-.84a2.1447,2.1447,0,0,0-.56-1.6652,2.4334,2.4334,0,0,0-1.7-.4949,6.5841,6.5841,0,0,0-1.3151.1476,11.7484,11.7484,0,0,0-1.5247.4325l-.21-.62-.21-.62a11.6392,11.6392,0,0,1,1.8176-.5405,8.6454,8.6454,0,0,1,1.7429-.18,3.7658,3.7658,0,0,1,2.7578.9128,3.45,3.45,0,0,1,.8829,2.5482v4.8808a1.8177,1.8177,0,0,0,.23,1.0329A1.22,1.22,0,0,0,516.0684,37.1543Zm-2.5606-1.82v-2.5h-1.5a3.75,3.75,0,0,0-2.2346.5576,1.96,1.96,0,0,0-.7654,1.6826,2.0493,2.0493,0,0,0,.4876,1.47,1.9061,1.9061,0,0,0,1.4323.51,2.6063,2.6063,0,0,0,1.493-.4326A3.4249,3.4249,0,0,0,513.5078,35.334Z" fill="#383c45"/><path d="M524.248,37.6348a4.02,4.02,0,0,1-1.0847.5225,4.2,4.2,0,0,1-1.2356.1777,2.7334,2.7334,0,0,1-2.0432-.75,3.05,3.05,0,0,1-.738-2.19V28.873h-1.82V27.5723h1.82v-2.42l.8408-.09.8408-.09v2.6006h2.541l-.0908.65-.0908.65h-2.3594v6.4415a1.9469,1.9469,0,0,0,.3072,1.2224,1.2043,1.2043,0,0,0,1.0131.3977,2.4258,2.4258,0,0,0,.7222-.1075,3.5317,3.5317,0,0,0,.7368-.333l.32.57Z" fill="#383c45"/><path d="M528.168,23.7715a1.1436,1.1436,0,0,1-.33.8276,1.214,1.214,0,0,1-.8708.3325,1.1823,1.1823,0,0,1-.8521-.3325,1.2093,1.2093,0,0,1,0-1.6553,1.1823,1.1823,0,0,1,.8521-.3325,1.214,1.214,0,0,1,.8708.3325A1.144,1.144,0,0,1,528.168,23.7715Zm-.34,14.3232h-1.6816V27.5723h1.6816V38.0947Z" fill="#383c45"/><path d="M540.168,32.8135a6.2318,6.2318,0,0,1-1.2173,3.9985,4.6339,4.6339,0,0,1-6.8369.035,6.1753,6.1753,0,0,1-1.2075-3.9935,6.23,6.23,0,0,1,1.218-3.9985,4.6492,4.6492,0,0,1,6.8435-.0424A6.1866,6.1866,0,0,1,540.168,32.8135Zm-7.461.04a5.4268,5.4268,0,0,0,.7276,3.1032,2.6663,2.6663,0,0,0,4.1953-.005,5.4764,5.4764,0,0,0,.7373-3.1382A5.4268,5.4268,0,0,0,537.64,29.71a2.6587,2.6587,0,0,0-4.1879.005A5.452,5.452,0,0,0,532.707,32.8535Z" fill="#383c45"/><path d="M551.1484,30.5527v7.542h-1.68V30.793a2.4717,2.4717,0,0,0-.4554-1.6779,1.5947,1.5947,0,0,0-1.2654-.4628,2.5983,2.5983,0,0,0-1.5976.5352,5.2067,5.2067,0,0,0-1.2227,1.4053v7.5019h-1.6816V27.5723h1.4414l.0693.8.0694.8a4.4589,4.4589,0,0,1,1.4109-1.3332,3.7188,3.7188,0,0,1,1.89-.5077,2.924,2.924,0,0,1,2.2387.86A3.3878,3.3878,0,0,1,551.1484,30.5527Z" fill="#383c45"/></svg>