<svg id="bbc4851f-c114-42ff-b702-9b4eb278cda4" data-name="Layer 1" xmlns="http://www.w3.org/2000/svg" viewBox="0 0 364 85"><title>img-text-scenario-3</title><path d="M39.32471,31.2334a8.0453,8.0453,0,0,1-1.59021,5.25366A5.2411,5.2411,0,0,1,33.564,38.335a5.258,5.258,0,0,1-4.16369-1.81543,7.98833,7.98833,0,0,1-1.598-5.2666,8.13531,8.13531,0,0,1,1.60534-5.28345,5.59351,5.59351,0,0,1,8.31922-.04748A8.10211,8.10211,0,0,1,39.32471,31.2334Zm-9.68164.01953a7.09993,7.09993,0,0,0,1.09,4.32117A3.36843,3.36843,0,0,0,33.564,36.89453a3.35829,3.35829,0,0,0,2.8606-1.32287,7.23026,7.23026,0,0,0,1.0603-4.33826,7.34389,7.34389,0,0,0-1.053-4.35828A3.34725,3.34725,0,0,0,33.564,25.53223,3.34722,3.34722,0,0,0,30.718,26.87756,7.321,7.321,0,0,0,29.64307,31.25293Z" fill="#383c45"/><path d="M50.28369,30.55273v7.542H48.604V30.793a2.47171,2.47171,0,0,0-.45532-1.67786,1.5947,1.5947,0,0,0-1.26538-.46277,2.59852,2.59852,0,0,0-1.59766.53516A5.205,5.205,0,0,0,44.063,30.59277v7.502H42.38232V27.57227h1.44043l.06983.80029.06982.80029a4.45178,4.45178,0,0,1,1.41052-1.33313,3.72026,3.72026,0,0,1,1.89026-.50769,2.92283,2.92283,0,0,1,2.23792.86035A3.38851,3.38851,0,0,1,50.28369,30.55273Z" fill="#383c45"/><path d="M61.8042,33.41406H55.023a4.43728,4.43728,0,0,0,.93738,2.72254,2.57845,2.57845,0,0,0,2.00305.8175,4.2334,4.2334,0,0,0,1.43274-.22986,5.53,5.53,0,0,0,1.328-.70959l.37012.5.37012.5a6.1,6.1,0,0,1-1.65308.96777,5.46684,5.46684,0,0,1-1.968.35254,4.24769,4.24769,0,0,1-3.38794-1.44788,6.02162,6.02162,0,0,1-1.21264-3.95349,6.67742,6.67742,0,0,1,1.1549-4.03857A3.8288,3.8288,0,0,1,57.563,27.332a3.89487,3.89487,0,0,1,3.19824,1.38782,5.94233,5.94233,0,0,1,1.083,3.77331c0,.18018-.00513.35523-.0127.51282S61.814,33.30371,61.8042,33.41406Zm-1.62012-1.40039a4.083,4.083,0,0,0-.63794-2.46582,2.28283,2.28283,0,0,0-1.94311-.875,2.152,2.152,0,0,0-1.78516.82764,4.73789,4.73789,0,0,0-.79492,2.67334h5.16113v-.16016Z" fill="#383c45"/><path d="M76.523,28.53223l-.37012.53027-.37012.53027a5.71,5.71,0,0,0-1.34008-.6925,4.23911,4.23911,0,0,0-1.40015-.22742,2.47863,2.47863,0,0,0-1.47534.40259,1.29263,1.29263,0,0,0-.54517,1.07788,1.18717,1.18717,0,0,0,.50757,1.04468,5.53247,5.53247,0,0,0,1.81275.71509,6.27931,6.27931,0,0,1,2.57055,1.158,2.617,2.617,0,0,1,.89038,2.10279,2.78516,2.78516,0,0,1-1.23523,2.3833,4.985,4.985,0,0,1-2.82531.77783,6.39961,6.39961,0,0,1-2.28345-.39014,5.22545,5.22545,0,0,1-1.63745-.99072l.4497-.50976.44971-.50977a5.19287,5.19287,0,0,0,1.36328.75989,4.66457,4.66457,0,0,0,1.61817.28015,2.91336,2.91336,0,0,0,1.70239-.45276,1.47756,1.47756,0,0,0,.63745-1.24744,1.39782,1.39782,0,0,0-.52759-1.23315,6.14325,6.14325,0,0,0-2.073-.82739,5.46157,5.46157,0,0,1-2.44543-1.1803,2.42342,2.42342,0,0,1-.73523-1.84021,2.55222,2.55222,0,0,1,1.06531-2.05359,4.37215,4.37215,0,0,1,2.65539-.80774,5.72523,5.72523,0,0,1,1.94336.31519A5.87088,5.87088,0,0,1,76.523,28.53223Z" fill="#383c45"/><path d="M84.70264,37.63477a4.03151,4.03151,0,0,1-1.08545.52258,4.1993,4.1993,0,0,1-1.23487.17761,2.73328,2.73328,0,0,1-2.04321-.75024,3.05042,3.05042,0,0,1-.738-2.19019V28.87305H77.78076V27.57227h1.82031V25.15234l.84034-.09033.84033-.09033v2.60059h2.541l-.09033.65039-.09033.65039H81.28174v6.4414a1.946,1.946,0,0,0,.30749,1.22242,1.20431,1.20431,0,0,0,1.01282.3977,2.43281,2.43281,0,0,0,.72266-.10742,3.53165,3.53165,0,0,0,.7373-.333l.32031.57031Z" fill="#383c45"/><path d="M94.86377,32.81348A6.23069,6.23069,0,0,1,93.646,36.812a4.6337,4.6337,0,0,1-6.83655.035,6.17612,6.17612,0,0,1-1.2074-3.99353A6.23136,6.23136,0,0,1,86.8197,28.855a4.6497,4.6497,0,0,1,6.84387-.04236A6.18617,6.18617,0,0,1,94.86377,32.81348Zm-7.46191.04a5.42722,5.42722,0,0,0,.72753,3.10315,2.66711,2.66711,0,0,0,4.19617-.005,5.47481,5.47481,0,0,0,.73743-3.13818,5.42711,5.42711,0,0,0-.72754-3.10315,2.6592,2.6592,0,0,0-4.18848.005A5.44994,5.44994,0,0,0,87.40186,32.85352Z" fill="#383c45"/><path d="M106.54346,32.81348a6.89075,6.89075,0,0,1-1.045,3.9685,3.5737,3.5737,0,0,1-3.05554,1.553,3.89633,3.89633,0,0,1-1.60535-.31506,3.25794,3.25794,0,0,1-1.215-.94568v5.041l-.84033.1001-.84034.1001V27.57227h1.44043l.06983.73046.06982.73047a4.09663,4.09663,0,0,1,1.38318-1.256,3.64707,3.64707,0,0,1,1.75745-.44519A3.31649,3.31649,0,0,1,105.631,28.82,7.32048,7.32048,0,0,1,106.54346,32.81348Zm-1.82032,0a6.20879,6.20879,0,0,0-.61511-3.12061,2.00615,2.00615,0,0,0-1.84485-1.02,2.60518,2.60518,0,0,0-1.5382.51245,4.53246,4.53246,0,0,0-1.10242,1.18775v5.2207a3.18644,3.18644,0,0,0,1.04516,1.00281,2.72106,2.72106,0,0,0,1.37476.35754,2.237,2.237,0,0,0,1.99292-1.01269A5.7133,5.7133,0,0,0,104.72314,32.81348Z" fill="#383c45"/><path d="M121.32275,28.53223l-.37011.53027-.37012.53027a5.71,5.71,0,0,0-1.34009-.6925,4.239,4.239,0,0,0-1.40014-.22742,2.47866,2.47866,0,0,0-1.47535.40259,1.29265,1.29265,0,0,0-.54516,1.07788,1.18717,1.18717,0,0,0,.50757,1.04468,5.5323,5.5323,0,0,0,1.81274.71509,6.27935,6.27935,0,0,1,2.57056,1.158,2.617,2.617,0,0,1,.89038,2.10279,2.785,2.785,0,0,1-1.23535,2.3833,4.9871,4.9871,0,0,1-2.82618.77783,6.39622,6.39622,0,0,1-2.28259-.39014,5.22643,5.22643,0,0,1-1.63733-.99072l.44971-.50976.44971-.50977a5.19271,5.19271,0,0,0,1.36328.75989,4.66451,4.66451,0,0,0,1.61816.28015,2.91336,2.91336,0,0,0,1.70239-.45276,1.47757,1.47757,0,0,0,.63746-1.24744,1.39782,1.39782,0,0,0-.52759-1.23315,6.14335,6.14335,0,0,0-2.073-.82739,5.46162,5.46162,0,0,1-2.44544-1.1803,2.42341,2.42341,0,0,1-.73522-1.84021,2.55221,2.55221,0,0,1,1.0653-2.05359,4.37216,4.37216,0,0,1,2.6554-.80774,5.72528,5.72528,0,0,1,1.94336.31519A5.871,5.871,0,0,1,121.32275,28.53223Z" fill="#383c45"/><path d="M132.1626,30.55273v7.542h-1.67969V30.793a2.42692,2.42692,0,0,0-.47278-1.67786,1.62344,1.62344,0,0,0-1.26745-.46277,2.58294,2.58294,0,0,0-1.57325.53272,5.24226,5.24226,0,0,0-1.22754,1.38818v7.52149h-1.68066V23.35156l.84033-.1001.84033-.10009v5.9414a4.59,4.59,0,0,1,1.38257-1.27807,3.57744,3.57744,0,0,1,1.81763-.48267,2.91954,2.91954,0,0,1,2.23059.86768A3.38131,3.38131,0,0,1,132.1626,30.55273Z" fill="#383c45"/><path d="M144.3833,32.81348a6.23069,6.23069,0,0,1-1.21777,3.99853,4.6337,4.6337,0,0,1-6.83655.035,6.17612,6.17612,0,0,1-1.2074-3.99353,6.23136,6.23136,0,0,1,1.21765-3.99854,4.64971,4.64971,0,0,1,6.84388-.04236A6.18623,6.18623,0,0,1,144.3833,32.81348Zm-7.46191.04a5.42713,5.42713,0,0,0,.72754,3.10315,2.6671,2.6671,0,0,0,4.19616-.005,5.47481,5.47481,0,0,0,.73743-3.13818,5.42711,5.42711,0,0,0-.72754-3.10315,2.6592,2.6592,0,0,0-4.18848.005A5.44994,5.44994,0,0,0,136.92139,32.85352Z" fill="#383c45"/><path d="M156.063,32.81348a6.89075,6.89075,0,0,1-1.04505,3.9685,3.5737,3.5737,0,0,1-3.05554,1.553,3.89625,3.89625,0,0,1-1.60534-.31506,3.25789,3.25789,0,0,1-1.215-.94568v5.041l-.84033.1001-.84033.1001V27.57227h1.44043l.06982.73046.06982.73047a4.09673,4.09673,0,0,1,1.38318-1.256,3.64713,3.64713,0,0,1,1.75745-.44519A3.31649,3.31649,0,0,1,155.15051,28.82,7.32039,7.32039,0,0,1,156.063,32.81348Zm-1.82031,0a6.20877,6.20877,0,0,0-.61512-3.12061,2.00615,2.00615,0,0,0-1.84485-1.02,2.60518,2.60518,0,0,0-1.5382.51245,4.53246,4.53246,0,0,0-1.10242,1.18775v5.2207a3.18637,3.18637,0,0,0,1.04517,1.00281,2.72105,2.72105,0,0,0,1.37475.35754,2.237,2.237,0,0,0,1.99292-1.01269A5.71329,5.71329,0,0,0,154.24268,32.81348Z" fill="#383c45"/><path d="M166.38135,26.05176v1.52051h2.60058l-.08984.65039-.08984.65039h-2.4209v9.22168h-1.68067V28.87305h-1.86035V27.57227h1.86035v-1.5a2.845,2.845,0,0,1,.82788-2.12281,3.33909,3.33909,0,0,1,2.3733-.81762,5.86571,5.86571,0,0,1,1.31042.13488,6.40987,6.40987,0,0,1,1.18958.40516l-.27.60986-.27.60986a4.709,4.709,0,0,0-.97486-.31213,4.46815,4.46815,0,0,0-.8855-.08728,1.7,1.7,0,0,0-1.25244.38244A1.59364,1.59364,0,0,0,166.38135,26.05176Z" fill="#383c45"/><path d="M179.4624,32.81348a6.23069,6.23069,0,0,1-1.21777,3.99853,4.6337,4.6337,0,0,1-6.83655.035,6.17618,6.17618,0,0,1-1.2074-3.99353,6.23136,6.23136,0,0,1,1.21765-3.99854,4.64971,4.64971,0,0,1,6.84388-.04236A6.18623,6.18623,0,0,1,179.4624,32.81348Zm-7.46191.04a5.42713,5.42713,0,0,0,.72754,3.10315,2.6671,2.6671,0,0,0,4.19616-.005,5.47481,5.47481,0,0,0,.73743-3.13818,5.42711,5.42711,0,0,0-.72754-3.10315,2.65919,2.65919,0,0,0-4.18847.005A5.44986,5.44986,0,0,0,172.00049,32.85352Z" fill="#383c45"/><path d="M188.041,27.45215l-.16016.82031-.16016.82031a3.43266,3.43266,0,0,0-.4292-.09008,3.5288,3.5288,0,0,0-.49072-.03,2.00152,2.00152,0,0,0-1.61963.73755,5.352,5.352,0,0,0-.96045,2.28295v6.10157h-1.68017V27.57227h1.43994l.08008,1.10058.08007,1.10059a4.09511,4.09511,0,0,1,1.14576-1.82862A2.57177,2.57177,0,0,1,187.002,27.332a4.7126,4.7126,0,0,1,.53418.03A3.938,3.938,0,0,1,188.041,27.45215Z" fill="#383c45"/><path d="M204.10156,32.81348a6.75287,6.75287,0,0,1-1.0979,4.00622A3.59129,3.59129,0,0,1,200,38.335a3.443,3.443,0,0,1-1.61719-.39026,3.918,3.918,0,0,1-1.24219-1.05017l-.08007.6001-.08008.6001H195.5V23.332l.83984-.1001.83985-.10009v5.78125a3.956,3.956,0,0,1,1.29321-1.15821,3.5701,3.5701,0,0,1,1.72827-.42285,3.37115,3.37115,0,0,1,2.84229,1.42786A6.8667,6.8667,0,0,1,204.10156,32.81348Zm-1.82031,0a5.82543,5.82543,0,0,0-.6853-3.203,2.08524,2.08524,0,0,0-1.85572-.93762,2.47633,2.47633,0,0,0-1.51245.51,4.55372,4.55372,0,0,0-1.04809,1.17066v5.18066a3.63676,3.63676,0,0,0,1.05249,1.05261,2.5354,2.5354,0,0,0,1.36743.40735,2.23833,2.23833,0,0,0,1.94873-.995A5.64221,5.64221,0,0,0,202.28125,32.81348Z" fill="#383c45"/><path d="M215.70117,32.81348a6.23194,6.23194,0,0,1-1.21728,3.99853,4.63411,4.63411,0,0,1-6.83692.035,6.17552,6.17552,0,0,1-1.20752-3.99353,6.23077,6.23077,0,0,1,1.218-3.99854,4.64929,4.64929,0,0,1,6.84351-.04236A6.18623,6.18623,0,0,1,215.70117,32.81348Zm-7.46094.04a5.42713,5.42713,0,0,0,.72754,3.10315,2.66623,2.66623,0,0,0,4.19532-.005,5.47593,5.47593,0,0,0,.7373-3.13818,5.42711,5.42711,0,0,0-.72754-3.10315,2.6587,2.6587,0,0,0-4.188.005A5.45212,5.45212,0,0,0,208.24023,32.85352Z" fill="#383c45"/><path d="M224.02148,37.63477a4.0427,4.0427,0,0,1-1.08618.52258,4.19673,4.19673,0,0,1-1.23413.17761,2.73327,2.73327,0,0,1-2.04321-.75024,3.05042,3.05042,0,0,1-.738-2.19019V28.87305h-1.82031V27.57227h1.82031V25.15234l.83985-.09033.83984-.09033v2.60059h2.541l-.08984.65039-.08984.65039h-2.36133v6.4414a1.94507,1.94507,0,0,0,.30786,1.22242,1.20431,1.20431,0,0,0,1.01245.3977,2.43723,2.43723,0,0,0,.72315-.10742,3.52951,3.52951,0,0,0,.73779-.333l.32031.57031Z" fill="#383c45"/><path d="M233.82031,30.55273v7.542h-1.67969V30.793a2.42764,2.42764,0,0,0-.47241-1.67786,1.62343,1.62343,0,0,0-1.26782-.46277,2.58291,2.58291,0,0,0-1.57324.53272,5.24226,5.24226,0,0,0-1.22754,1.38818v7.52149h-1.67969V23.35156l.83985-.1001.83984-.10009v5.9414a4.59722,4.59722,0,0,1,1.38306-1.27807,3.57791,3.57791,0,0,1,1.81811-.48267,2.91816,2.91816,0,0,1,2.22974.86768A3.38187,3.38187,0,0,1,233.82031,30.55273Z" fill="#383c45"/><path d="M250.70117,33.41406h-6.78125a4.43817,4.43817,0,0,0,.93726,2.72254,2.57715,2.57715,0,0,0,2.0022.8175,4.23459,4.23459,0,0,0,1.43286-.22986,5.54118,5.54118,0,0,0,1.32885-.70959l.37012.5.37012.5a6.11117,6.11117,0,0,1-1.65381.96777,5.46477,5.46477,0,0,1-1.96729.35254,4.249,4.249,0,0,1-3.38842-1.44788,6.02036,6.02036,0,0,1-1.21314-3.95349A6.67662,6.67662,0,0,1,243.294,28.895a3.82889,3.82889,0,0,1,3.165-1.563,3.89489,3.89489,0,0,1,3.19825,1.38782,5.94233,5.94233,0,0,1,1.083,3.77331c0,.18018-.00488.35523-.0122.51282S250.71094,33.30371,250.70117,33.41406Zm-1.62109-1.40039a4.08479,4.08479,0,0,0-.63745-2.46582,2.28159,2.28159,0,0,0-1.94263-.875,2.15271,2.15271,0,0,0-1.78589.82764,4.73449,4.73449,0,0,0-.79419,2.67334h5.16016v-.16016Z" fill="#383c45"/><path d="M267.02148,30.55273v7.542H265.3418V30.793a2.55657,2.55657,0,0,0-.45069-1.67786,1.37763,1.37763,0,0,0-1.10986-.46277,2.16571,2.16571,0,0,0-1.44751.53516,6.04956,6.04956,0,0,0-1.13257,1.40527v7.502h-1.68164V30.793a2.55837,2.55837,0,0,0-.45-1.67786,1.37753,1.37753,0,0,0-1.1106-.46277,2.18943,2.18943,0,0,0-1.45483.53516,5.73693,5.73693,0,0,0-1.12524,1.40527v7.502h-1.67969V27.57227h1.43945l.07031.80029.07032.80029a4.53643,4.53643,0,0,1,1.3103-1.33313,3.27263,3.27263,0,0,1,1.78931-.50769,2.628,2.628,0,0,1,2.64062,1.94043,4.76614,4.76614,0,0,1,1.34155-1.40527,3.25143,3.25143,0,0,1,1.82056-.53516,2.67041,2.67041,0,0,1,2.06445.86768A3.47279,3.47279,0,0,1,267.02148,30.55273Z" fill="#383c45"/><path d="M279.30078,32.81348a6.75294,6.75294,0,0,1-1.0979,4.00622,3.59129,3.59129,0,0,1-3.00366,1.51526,3.443,3.443,0,0,1-1.61719-.39026,3.918,3.918,0,0,1-1.24219-1.05017l-.08007.6001-.08008.6001h-1.48047V23.332l.83984-.1001.83985-.10009v5.78125a3.956,3.956,0,0,1,1.29321-1.15821,3.57007,3.57007,0,0,1,1.72827-.42285,3.37115,3.37115,0,0,1,2.84229,1.42786A6.8667,6.8667,0,0,1,279.30078,32.81348Zm-1.82031,0a5.82543,5.82543,0,0,0-.6853-3.203,2.08524,2.08524,0,0,0-1.85572-.93762,2.47633,2.47633,0,0,0-1.51245.51,4.55372,4.55372,0,0,0-1.04809,1.17066v5.18066a3.63676,3.63676,0,0,0,1.05249,1.05261,2.5354,2.5354,0,0,0,1.36743.40735,2.23833,2.23833,0,0,0,1.94873-.995A5.64221,5.64221,0,0,0,277.48047,32.81348Z" fill="#383c45"/><path d="M290.20117,33.41406h-6.78125a4.43817,4.43817,0,0,0,.93726,2.72254,2.57715,2.57715,0,0,0,2.0022.8175,4.23459,4.23459,0,0,0,1.43286-.22986,5.54118,5.54118,0,0,0,1.32885-.70959l.37012.5.37012.5a6.11117,6.11117,0,0,1-1.65381.96777,5.46477,5.46477,0,0,1-1.96729.35254,4.249,4.249,0,0,1-3.38842-1.44788,6.02036,6.02036,0,0,1-1.21314-3.95349A6.67662,6.67662,0,0,1,282.794,28.895a3.82889,3.82889,0,0,1,3.165-1.563,3.89489,3.89489,0,0,1,3.19825,1.38782,5.94233,5.94233,0,0,1,1.083,3.77331c0,.18018-.00488.35523-.0122.51282S290.21094,33.30371,290.20117,33.41406Zm-1.62109-1.40039a4.08479,4.08479,0,0,0-.63745-2.46582A2.28159,2.28159,0,0,0,286,28.67285a2.15271,2.15271,0,0,0-1.78589.82764,4.73449,4.73449,0,0,0-.79419,2.67334h5.16016v-.16016Z" fill="#383c45"/><path d="M301.14062,23.332v14.7627h-1.46093l-.08985-.74024L299.5,36.61426a3.76434,3.76434,0,0,1-1.27539,1.25036,3.50444,3.50444,0,0,1-1.78516.47034,3.432,3.432,0,0,1-2.93335-1.493,6.87985,6.87985,0,0,1-1.02758-3.9679,6.80932,6.80932,0,0,1,1.093-3.97876,3.711,3.711,0,0,1,4.68286-1.173,4.48159,4.48159,0,0,1,1.20655.93v-5.5205l.83984.10009ZM299.46094,35.334V30.09277a3.89291,3.89291,0,0,0-1.07813-1.03259,2.67488,2.67488,0,0,0-1.42383-.38733,2.24046,2.24046,0,0,0-1.95507,1.04,5.67747,5.67747,0,0,0-.72461,3.14063,5.9784,5.9784,0,0,0,.65747,3.1206,2.05308,2.05308,0,0,0,1.84253,1.02,2.7,2.7,0,0,0,1.53564-.43237A4.16675,4.16675,0,0,0,299.46094,35.334Z" fill="#383c45"/><path d="M312.87891,23.332v14.7627h-1.459l-.08984-.74024-.08985-.74023a3.76279,3.76279,0,0,1-1.27563,1.25036,3.50882,3.50882,0,0,1-1.78687.47034,3.42987,3.42987,0,0,1-2.93164-1.493,6.88171,6.88171,0,0,1-1.02734-3.9679,6.81277,6.81277,0,0,1,1.092-3.97876,3.71162,3.71162,0,0,1,4.68335-1.173,4.45918,4.45918,0,0,1,1.20508.93v-5.5205l.83984.10009ZM311.19922,35.334V30.09277a3.89539,3.89539,0,0,0-1.07788-1.03259,2.67071,2.67071,0,0,0-1.42212-.38733,2.24269,2.24269,0,0,0-1.95606,1.04,5.67266,5.67266,0,0,0-.72558,3.14063,5.97578,5.97578,0,0,0,.65771,3.1206,2.055,2.055,0,0,0,1.84424,1.02,2.69906,2.69906,0,0,0,1.53467-.43237A4.15172,4.15172,0,0,0,311.19922,35.334Z" fill="#383c45"/><path d="M324.51953,33.41406h-6.78125a4.43659,4.43659,0,0,0,.9375,2.72254,2.57978,2.57978,0,0,0,2.00391.8175,4.2321,4.2321,0,0,0,1.43261-.22986,5.51839,5.51839,0,0,0,1.32715-.70959l.37012.5.37012.5a6.08878,6.08878,0,0,1-1.65235.96777,5.46886,5.46886,0,0,1-1.96875.35254,4.24632,4.24632,0,0,1-3.38745-1.44788,6.02289,6.02289,0,0,1-1.21216-3.95349,6.67809,6.67809,0,0,1,1.15455-4.03857,3.82865,3.82865,0,0,1,3.16577-1.563,3.89487,3.89487,0,0,1,3.19824,1.38782,5.94233,5.94233,0,0,1,1.083,3.77331c0,.18018-.00537.35523-.01319.51282S324.5293,33.30371,324.51953,33.41406Zm-1.61914-1.40039a4.08123,4.08123,0,0,0-.63843-2.46582,2.28407,2.28407,0,0,0-1.9436-.875,2.15117,2.15117,0,0,0-1.78442.82764,4.74137,4.74137,0,0,0-.79566,2.67334h5.16211v-.16016Z" fill="#383c45"/><path d="M335.459,23.332v14.7627H334l-.08984-.74024-.08985-.74023a3.76288,3.76288,0,0,1-1.27563,1.25036,3.50882,3.50882,0,0,1-1.78687.47034,3.42987,3.42987,0,0,1-2.93164-1.493,6.88171,6.88171,0,0,1-1.02734-3.9679,6.81269,6.81269,0,0,1,1.092-3.97876,3.71162,3.71162,0,0,1,4.68335-1.173,4.45949,4.45949,0,0,1,1.20508.93v-5.5205l.83984.10009ZM333.7793,35.334V30.09277a3.89553,3.89553,0,0,0-1.07788-1.03259,2.67071,2.67071,0,0,0-1.42212-.38733,2.24267,2.24267,0,0,0-1.95606,1.04,5.67266,5.67266,0,0,0-.72558,3.14063,5.97578,5.97578,0,0,0,.65771,3.1206,2.055,2.055,0,0,0,1.84424,1.02,2.69908,2.69908,0,0,0,1.53467-.43237A4.15185,4.15185,0,0,0,333.7793,35.334Z" fill="#383c45"/><path d="M90.9126,62.1543l-.19971.59033-.19971.59033a2.57074,2.57074,0,0,1-1.25805-.46545,2.05575,2.05575,0,0,1-.70288-1.15467A3.48674,3.48674,0,0,1,87.182,62.945a3.99851,3.99851,0,0,1-1.78992.39,3.38445,3.38445,0,0,1-2.441-.88538,3.13338,3.13338,0,0,1-.88025-2.29528,3.02074,3.02074,0,0,1,1.20044-2.56079,5.59983,5.59983,0,0,1,3.36108-.88062h1.71973v-.83984a2.145,2.145,0,0,0-.56006-1.66529,2.43336,2.43336,0,0,0-1.6997-.49487,6.59612,6.59612,0,0,0-1.31568.14758,11.76244,11.76244,0,0,0-1.52515.4325l-.21-.62012-.21-.62012a11.63563,11.63563,0,0,1,1.81763-.54052,8.64312,8.64312,0,0,1,1.74292-.18018,3.76608,3.76608,0,0,1,2.75781.91272,3.45018,3.45018,0,0,1,.88281,2.54822v4.88086a1.81626,1.81626,0,0,0,.23011,1.03284A1.221,1.221,0,0,0,90.9126,62.1543ZM88.35205,60.334v-2.5h-1.5a3.75218,3.75218,0,0,0-2.23547.55762,1.95925,1.95925,0,0,0-.76551,1.68262,2.04867,2.04867,0,0,0,.48768,1.47034,1.90732,1.90732,0,0,0,1.43322.51013,2.60621,2.60621,0,0,0,1.49256-.43262A3.42358,3.42358,0,0,0,88.35205,60.334Z" fill="#383c45"/><path d="M101.75244,55.55273v7.542h-1.67969V55.793a2.47171,2.47171,0,0,0-.45532-1.67786,1.5947,1.5947,0,0,0-1.26538-.46277,2.59852,2.59852,0,0,0-1.59766.53516,5.20519,5.20519,0,0,0-1.22265,1.40527v7.502H93.85107V52.57227H95.2915l.06983.80029.06982.80029a4.45178,4.45178,0,0,1,1.41052-1.33313,3.72026,3.72026,0,0,1,1.89026-.50769,2.92283,2.92283,0,0,1,2.23792.86035A3.38851,3.38851,0,0,1,101.75244,55.55273Z" fill="#383c45"/><path d="M113.37256,48.332v14.7627h-1.46l-.08985-.74024-.08984-.74023a3.76361,3.76361,0,0,1-1.27551,1.25036,3.50662,3.50662,0,0,1-1.786.47034,3.43094,3.43094,0,0,1-2.9325-1.493,6.88078,6.88078,0,0,1-1.02746-3.9679,6.811,6.811,0,0,1,1.09253-3.97876,3.71129,3.71129,0,0,1,4.6831-1.173,4.47034,4.47034,0,0,1,1.20581.93005v-5.5205l.83984.10009ZM111.69287,60.334V55.09277a3.89413,3.89413,0,0,0-1.078-1.03259,2.6728,2.6728,0,0,0-1.423-.38733,2.24157,2.24157,0,0,0-1.95556,1.04,5.67506,5.67506,0,0,0-.7251,3.14063,5.97709,5.97709,0,0,0,.65759,3.1206,2.054,2.054,0,0,0,1.84339,1.02,2.69953,2.69953,0,0,0,1.53515-.43237A4.15922,4.15922,0,0,0,111.69287,60.334Z" fill="#383c45"/><path d="M135.854,55.55273v7.542h-1.68066V55.793a2.5575,2.5575,0,0,0-.45032-1.67786,1.37758,1.37758,0,0,0-1.11023-.46277,2.16571,2.16571,0,0,0-1.44751.53516,6.04956,6.04956,0,0,0-1.13257,1.40527v7.502h-1.68066V55.793a2.55837,2.55837,0,0,0-.44995-1.67786,1.37753,1.37753,0,0,0-1.1106-.46277,2.19065,2.19065,0,0,0-1.4552.53516,5.72206,5.72206,0,0,0-1.12487,1.40527v7.502h-1.68067V52.57227h1.44043l.06983.80029.06982.80029a4.53545,4.53545,0,0,1,1.31042-1.33313,3.27468,3.27468,0,0,1,1.79017-.50769,2.62872,2.62872,0,0,1,2.64062,1.94043,4.75906,4.75906,0,0,1,1.3407-1.40527,3.25069,3.25069,0,0,1,1.82043-.53516,2.67174,2.67174,0,0,1,2.06531.86768A3.47223,3.47223,0,0,1,135.854,55.55273Z" fill="#383c45"/><path d="M148.07275,57.81348A6.23063,6.23063,0,0,1,146.855,61.812a4.6337,4.6337,0,0,1-6.83655.035,6.17617,6.17617,0,0,1-1.20739-3.99353,6.2313,6.2313,0,0,1,1.21765-3.99854,4.6497,4.6497,0,0,1,6.84387-.04236A6.18623,6.18623,0,0,1,148.07275,57.81348Zm-7.46191.04a5.42713,5.42713,0,0,0,.72754,3.10315,2.66711,2.66711,0,0,0,4.19617-.005,5.4749,5.4749,0,0,0,.73742-3.13818,5.42711,5.42711,0,0,0-.72754-3.10315,2.65919,2.65919,0,0,0-4.18847.005A5.44986,5.44986,0,0,0,140.61084,57.85352Z" fill="#383c45"/><path d="M159.75146,57.81348a6.75462,6.75462,0,0,1-1.09741,4.00622,3.59008,3.59008,0,0,1-3.00317,1.51526,3.44356,3.44356,0,0,1-1.61768-.39026,3.92493,3.92493,0,0,1-1.24267-1.05017l-.08008.6001-.08008.6001H151.1499V48.332l.84033-.1001.84034-.10009v5.78125a3.94975,3.94975,0,0,1,1.29235-1.15821,3.56928,3.56928,0,0,1,1.72815-.42285,3.371,3.371,0,0,1,2.84266,1.42786A6.86765,6.86765,0,0,1,159.75146,57.81348Zm-1.82031,0a5.82655,5.82655,0,0,0-.68518-3.203,2.0842,2.0842,0,0,0-1.85486-.93762,2.47605,2.47605,0,0,0-1.51281.51,4.55441,4.55441,0,0,0-1.04773,1.17066v5.18066a3.63676,3.63676,0,0,0,1.05249,1.05261,2.5354,2.5354,0,0,0,1.36743.40735,2.23722,2.23722,0,0,0,1.94824-.995A5.6446,5.6446,0,0,0,157.93115,57.81348Z" fill="#383c45"/><path d="M164.83057,48.77148a1.1445,1.1445,0,0,1-.3302.82764,1.21252,1.21252,0,0,1-.87.33252,1.18335,1.18335,0,0,1-.8529-.33252,1.20882,1.20882,0,0,1,0-1.65527,1.18335,1.18335,0,0,1,.8529-.33252,1.21252,1.21252,0,0,1,.87.33252A1.14449,1.14449,0,0,1,164.83057,48.77148Zm-.33985,14.32325h-1.68066V52.57227h1.68066V63.09473Z" fill="#383c45"/><path d="M168.16943,61.09473V48.332l.84034-.1001.84033-.10009V61.05469a1.0771,1.0771,0,0,0,.1626.65747.62856.62856,0,0,0,.53759.22241,2.2246,2.2246,0,0,0,.37244-.03,1.613,1.613,0,0,0,.32776-.09009l.21972.59034.21973.59033a2.97358,2.97358,0,0,1-.64746.24463,3.08664,3.08664,0,0,1-.75293.09521,2.08708,2.08708,0,0,1-1.54016-.57263A2.30406,2.30406,0,0,1,168.16943,61.09473Z" fill="#383c45"/><path d="M181.89209,58.41406h-6.78125a4.43728,4.43728,0,0,0,.93738,2.72254,2.57845,2.57845,0,0,0,2.00305.8175,4.2334,4.2334,0,0,0,1.43274-.22986,5.53,5.53,0,0,0,1.328-.70959l.37012.5.37012.5a6.1,6.1,0,0,1-1.65308.96777,5.46684,5.46684,0,0,1-1.968.35254,4.24769,4.24769,0,0,1-3.38794-1.44788,6.02167,6.02167,0,0,1-1.21264-3.95349,6.67742,6.67742,0,0,1,1.1549-4.03857,3.8288,3.8288,0,0,1,3.16541-1.563,3.89486,3.89486,0,0,1,3.19824,1.38782,5.94233,5.94233,0,0,1,1.083,3.77331c0,.18018-.00513.35523-.0127.51282S181.90186,58.30371,181.89209,58.41406ZM180.272,57.01367a4.083,4.083,0,0,0-.63794-2.46582,2.28281,2.28281,0,0,0-1.94311-.875,2.152,2.152,0,0,0-1.78516.82764,4.73789,4.73789,0,0,0-.79492,2.67334H180.272v-.16016Z" fill="#383c45"/><path d="M198.15039,55.55273v7.542H196.4707V55.793a2.47171,2.47171,0,0,0-.45532-1.67786,1.59471,1.59471,0,0,0-1.26538-.46277,2.59852,2.59852,0,0,0-1.59766.53516,5.20484,5.20484,0,0,0-1.22265,1.40527v7.502H190.25V52.57227h1.43945l.07032.80029.07031.80029a4.44427,4.44427,0,0,1,1.41015-1.33313,3.72192,3.72192,0,0,1,1.89063-.50769,2.9214,2.9214,0,0,1,2.23706.86035A3.389,3.389,0,0,1,198.15039,55.55273Z" fill="#383c45"/><path d="M209.73047,62.1543l-.19922.59033-.19922.59033a2.57175,2.57175,0,0,1-1.25879-.46545,2.05248,2.05248,0,0,1-.70215-1.15467,3.48676,3.48676,0,0,1-1.3706,1.23011,3.99875,3.99875,0,0,1-1.78955.39,3.386,3.386,0,0,1-2.4419-.88538,3.133,3.133,0,0,1-.88037-2.29528,3.02046,3.02046,0,0,1,1.20093-2.56079,5.602,5.602,0,0,1,3.36157-.88062h1.71875v-.83984a2.145,2.145,0,0,0-.56006-1.66529,2.43336,2.43336,0,0,0-1.6997-.49487,6.58963,6.58963,0,0,0-1.31519.14758,11.7678,11.7678,0,0,0-1.52466.4325l-.21-.62012-.21-.62012a11.63531,11.63531,0,0,1,1.81763-.54052,8.643,8.643,0,0,1,1.74292-.18018,3.76609,3.76609,0,0,1,2.75781.91272,3.45018,3.45018,0,0,1,.88281,2.54822v4.88086a1.81745,1.81745,0,0,0,.23,1.03284A1.22016,1.22016,0,0,0,209.73047,62.1543ZM207.16992,60.334v-2.5h-1.5a3.75006,3.75006,0,0,0-2.23462.55762,1.9595,1.9595,0,0,0-.76538,1.68262,2.0492,2.0492,0,0,0,.48755,1.47034,1.90582,1.90582,0,0,0,1.43237.51013,2.606,2.606,0,0,0,1.49292-.43262A3.424,3.424,0,0,0,207.16992,60.334Z" fill="#383c45"/><path d="M216.58984,63.09473h-2.03906l-1.83105-5.26123-1.83106-5.26123h1.8418l1.42969,4.51123,1.42968,4.51123L217,57.0835l1.41016-4.51123h1.78125l-1.80079,5.26123Z" fill="#383c45"/><path d="M224.33008,48.77148A1.1449,1.1449,0,0,1,224,49.59912a1.211,1.211,0,0,1-.86914.33252,1.1848,1.1848,0,0,1-.85376-.33252,1.2085,1.2085,0,0,1,0-1.65527,1.1848,1.1848,0,0,1,.85376-.33252A1.211,1.211,0,0,1,224,47.94385,1.14489,1.14489,0,0,1,224.33008,48.77148Zm-.33985,14.32325h-1.67968V52.57227h1.67968V63.09473Z" fill="#383c45"/><path d="M236.17188,52.99219a6.62884,6.62884,0,0,1-1.37769.25061c-.50269.045-1.053.05993-1.66333.0697a3.166,3.166,0,0,1,1.37768,1.073,2.802,2.802,0,0,1,.46216,1.62817,3.36835,3.36835,0,0,1-1.05029,2.54236,4.192,4.192,0,0,1-2.91064.99768,4.785,4.785,0,0,1-.69263-.04736,3.72175,3.72175,0,0,1-.64722-.15283,1.33715,1.33715,0,0,0-.4248.45275,1.19294,1.19294,0,0,0-.15528.58826.7438.7438,0,0,0,.3.63721,1.92191,1.92191,0,0,0,1.13941.26221h1.68164a3.9927,3.9927,0,0,1,2.57324.81543,2.60062,2.60062,0,0,1,.96777,2.04589,2.64837,2.64837,0,0,1-1.21313,2.33777,6.59593,6.59593,0,0,1-3.62866.82239,5.91127,5.91127,0,0,1-3.50806-.77527,2.71244,2.71244,0,0,1-.97241-2.36536h1.51953a1.49432,1.49432,0,0,0,.595,1.38294,4.41726,4.41726,0,0,0,2.366.43738,4.94915,4.94915,0,0,0,2.44043-.44751,1.36467,1.36467,0,0,0,.70019-1.27222,1.34276,1.34276,0,0,0-.58008-1.17065,2.8128,2.8128,0,0,0-1.59961-.3899h-1.66015a3.15037,3.15037,0,0,1-2.0315-.59008,1.73176,1.73176,0,0,1-.65014-1.37085,1.89715,1.89715,0,0,1,.29272-1.00269,2.709,2.709,0,0,1,.8479-.83716,3.03985,3.03985,0,0,1-1.75976-2.94043A3.4636,3.4636,0,0,1,228.04,53.3501a4.21893,4.21893,0,0,1,2.87012-1.01807,12.04068,12.04068,0,0,0,2.9353-.21472,8.75379,8.75379,0,0,0,1.82642-.66516l.25.77Zm-7.543,2.98144a2.57671,2.57671,0,0,0,.606,1.78479,2.55572,2.55572,0,0,0,3.42823.03,2.60279,2.60279,0,0,0,.58691-1.81482,2.52116,2.52116,0,0,0-.58472-1.79565,2.31594,2.31594,0,0,0-1.75512-.62525,2.18559,2.18559,0,0,0-1.70313.68531A2.564,2.564,0,0,0,228.62891,55.97363Z" fill="#383c45"/><path d="M246.03125,62.1543l-.2002.59033-.20019.59033a2.56977,2.56977,0,0,1-1.25732-.46545,2.05921,2.05921,0,0,1-.70362-1.15467,3.48662,3.48662,0,0,1-1.36987,1.23011,3.9982,3.9982,0,0,1-1.79028.39,3.38294,3.38294,0,0,1-2.44019-.88538,3.13378,3.13378,0,0,1-.88013-2.29528,3.021,3.021,0,0,1,1.2-2.56079,5.59774,5.59774,0,0,1,3.3606-.88062h1.7207v-.83984a2.145,2.145,0,0,0-.56006-1.66529,2.43336,2.43336,0,0,0-1.6997-.49487,6.6026,6.6026,0,0,0-1.31616.14758,11.7571,11.7571,0,0,0-1.52564.4325l-.21-.62012-.21-.62012a11.63531,11.63531,0,0,1,1.81763-.54052,8.643,8.643,0,0,1,1.74292-.18018,3.76609,3.76609,0,0,1,2.75781.91272,3.45022,3.45022,0,0,1,.88281,2.54822v4.88086a1.81516,1.81516,0,0,0,.23023,1.03284A1.22184,1.22184,0,0,0,246.03125,62.1543ZM243.4707,60.334v-2.5h-1.5a3.75431,3.75431,0,0,0-2.23632.55762,1.959,1.959,0,0,0-.76563,1.68262,2.04821,2.04821,0,0,0,.48779,1.47034,1.90887,1.90887,0,0,0,1.43408.51013,2.60637,2.60637,0,0,0,1.49219-.43262A3.42312,3.42312,0,0,0,243.4707,60.334Z" fill="#383c45"/><path d="M254.21094,62.63477a4.0427,4.0427,0,0,1-1.08618.52258,4.19675,4.19675,0,0,1-1.23414.17761,2.7333,2.7333,0,0,1-2.04321-.75024,3.05041,3.05041,0,0,1-.738-2.19019V53.87305h-1.82032V52.57227h1.82032V50.15234l.83984-.09033.83984-.09033v2.60059h2.541l-.08985.65039-.08984.65039h-2.36133v6.4414a1.94513,1.94513,0,0,0,.30786,1.22242,1.20432,1.20432,0,0,0,1.01246.3977,2.43712,2.43712,0,0,0,.72314-.10742,3.52928,3.52928,0,0,0,.73779-.333l.32031.57031Z" fill="#383c45"/><path d="M258.12891,48.77148a1.1449,1.1449,0,0,1-.33008.82764,1.211,1.211,0,0,1-.86914.33252,1.1848,1.1848,0,0,1-.85376-.33252,1.2085,1.2085,0,0,1,0-1.65527,1.1848,1.1848,0,0,1,.85376-.33252,1.211,1.211,0,0,1,.86914.33252A1.14489,1.14489,0,0,1,258.12891,48.77148Zm-.33985,14.32325h-1.67968V52.57227h1.67968V63.09473Z" fill="#383c45"/><path d="M270.13086,57.81348A6.22937,6.22937,0,0,1,268.9126,61.812a4.63328,4.63328,0,0,1-6.83618.035,6.17678,6.17678,0,0,1-1.20728-3.99353,6.232,6.232,0,0,1,1.21729-3.99854,4.65011,4.65011,0,0,1,6.84423-.04236A6.18617,6.18617,0,0,1,270.13086,57.81348Zm-7.46289.04a5.42713,5.42713,0,0,0,.72754,3.10315,2.668,2.668,0,0,0,4.197-.005,5.47379,5.47379,0,0,0,.73755-3.13818,5.42711,5.42711,0,0,0-.72754-3.10315,2.65971,2.65971,0,0,0-4.189.005A5.44768,5.44768,0,0,0,262.668,57.85352Z" fill="#383c45"/><path d="M281.10938,55.55273v7.542h-1.67969V55.793a2.47177,2.47177,0,0,0-.45532-1.67786,1.59473,1.59473,0,0,0-1.26539-.46277,2.59851,2.59851,0,0,0-1.59765.53516,5.205,5.205,0,0,0-1.22266,1.40527v7.502H273.209V52.57227h1.43946l.07031.80029.07031.80029a4.4443,4.4443,0,0,1,1.41016-1.33313,3.72188,3.72188,0,0,1,1.89062-.50769,2.9214,2.9214,0,0,1,2.23706.86035A3.389,3.389,0,0,1,281.10938,55.55273Z" fill="#383c45"/></svg>