<svg id="f856dde0-0e65-4b90-ac36-55bc59cdac69" data-name="Layer 1" xmlns="http://www.w3.org/2000/svg" viewBox="0 0 36.6667 44"><title>icon-location-marker</title><path d="M18.3333,0A18.2015,18.2015,0,0,0,5.3716,31.1118L18.3333,44,31.295,31.1118A18.2014,18.2014,0,0,0,18.3333,0Z" fill="#fff"/><g id="ad1a42ff-a445-4a3c-8b98-41b8d3e4cf9e" data-name="g3810"><g id="fea00082-781d-4bd0-8c5d-f3c6a78b03fa" data-name="g3025"><path id="a66bd774-b34f-4f34-8add-f52134b3777d" data-name="inner artwork" d="M18.2075,8.5621A7.9269,7.9269,0,0,1,19.73,9.68l-.1683.1691a20.8874,20.8874,0,0,0-2.5392.0348c-.0894-.09-.27-.226-.1018-.3394l1.2866-.9819Zm14.96,10.51a2.5926,2.5926,0,0,1-.1019,1.1007c-1.5457.44-2.5609-1.1969-4.0606-.95l.1694.8484c1.3875.0456,2.2542,1.3762,3.6877,1.319-.2036.4066.0908,1.4782-.8113,1.05-.9366-.2251-1.6138-1.05-2.64-1.05-.1238.2273-.0453.542-.0671.8111,1.0827.17,1.8613,1.0849,2.9437,1.2538A1.7863,1.7863,0,0,1,31.78,24.47c-.88-.2142-1.5684-1.0051-2.5057-.9825l-.1669.779c.8909.0228,1.4665.811,2.2671,1.0476.022.3286-.2717.6222-.4408.9155-.7108-.2135-1.2528-.8241-2.0649-.7789-.0113-.306.17-.6535.1018-.9807-.9121.2714-1.5237-.5762-2.2-1.0845C26.7511,21.7218,25,20.63,24.9074,19.072a2.3124,2.3124,0,0,1,.1711-.9988,5.3358,5.3358,0,0,0-.2363-4.3,2.4337,2.4337,0,0,0-.8484-.7764,5.2,5.2,0,0,1,.7463,3.3492c-.0327.9321-.5826,1.8273-.5889,2.7257a1.8739,1.8739,0,0,0,.2505.9643c.7338,1.3214,2.0539,2.5724,1.5575,4.23-.1365.5092-.5429.9029-.6443,1.4209a4.9191,4.9191,0,0,0,2.8092,1.5572c.4057-.2591.18-1.4087,1.0151-.8784l1.2193.61a1.957,1.957,0,0,1-.61.8435,3.0677,3.0677,0,0,0-1.49-.473.8823.8823,0,0,0-.3035.642,2.7144,2.7144,0,0,1,1.1172.4755,2.814,2.814,0,0,1-.7462.8111l-.9456-.3382c-.1579.2259-.486.4633-.3709.7112a1.9744,1.9744,0,0,1,.6072.3731,6.2941,6.2941,0,0,1-1.4555,1.0477c-.4385-1.4332-1.8833-2.438-1.7592-4.0954l-.0672-.0672c-.34.3819-.2262.9924-.2042,1.488.4065,1.038,1.376,1.84,1.5229,2.9783-.17.2931-.5524.3514-.846.4755.0341-2.0525-3.0793-3.6092-1.0828-5.6854.666-1.0166,1.7815-1.9868,1.3862-3.3865-.4058-1.3515-1.8413-2.1887-1.8286-3.7037l.0022-.1182c.327-1.58,1.32-3.2609.5077-4.9414a2.8624,2.8624,0,0,0-1.4205-1.7269,4.8355,4.8355,0,0,1,.8457,4.67,6.1069,6.1069,0,0,0-.7439,2.1162h-.0026a1.769,1.769,0,0,0,.3061,1.1334c.7788,1.2641,2.132,2.6524,1.3536,4.3-.88,1.3193-2.414,2.6614-1.5573,4.3992.62,1.0378,1.58,2.0734,1.3213,3.3492l-1.0153.3382c.6769-2.38-2.64-3.778-1.2516-6.1584.8574-1.2748,2.3908-2.4708,1.5226-4.1626-.5189-1.0483-1.5911-1.6687-1.5572-2.9787l.037-.22c.3493-1.8579,1.7617-3.6165.774-5.6019a3.5265,3.5265,0,0,0-1.3536-1.5226l-.0348.0347a4.1025,4.1025,0,0,1,.8809,4.4316,15.8775,15.8775,0,0,0-1.0546,2.6586,2.1832,2.1832,0,0,0,.2435,1.37c.7332,1.1611,2.0188,2.3926,1.2166,3.8937-.8449,1.24-2.2556,2.4462-1.6922,4.0586.6208,1.4107,1.9166,2.7544,1.2169,4.5036l-1.0476.2365c.8345-1.7045-.4169-3.396-1.15-4.8743-.8917-2.1211,1.9156-3.1367,1.9609-5.0758-.0107-1.2517-1.3413-1.9622-1.6225-3.113-.5759-.4858-1.1729.1933-1.8613.0673-.5082.102-1.2889-.7-1.5923.1694-.3613,1.2741-2.0074,2.2107-1.2841,3.722.6885,1.3431,2.345,2.325,1.7917,4.063-.4954,1.6234-2.1324,3.1691-1.117,5.0414-.4171-.1351-1.1958.1235-1.1845-.5426-.6427-2.2674,2.0982-3.5884,1.2516-5.8547-.394-1.388-2.189-2.1549-1.7939-3.8243.2922-1.3744,1.8342-2.3352,1.6179-3.84a2.2213,2.2213,0,0,0-.0928-.39c-.5755-1.6244-1.75-3.2493-1.05-5.1453a6.6329,6.6329,0,0,1,.9132-1.488,3.4215,3.4215,0,0,0-1.6572,3.1474c-.0488,1.3983.9842,2.5959,1.1312,3.8755a2.3613,2.3613,0,0,1-.3872,1.6059c-.7327.9942-1.6909,2.0425-1.2516,3.3516.4177,1.32,2.0646,2.1205,1.9631,3.6552-.0113,1.8156-2.1208,2.946-1.5228,4.9765l-1.05-.3407c-.417-1.8043,1.5005-2.7275,1.5225-4.3969.2713-1.92-2.1772-2.632-2.03-4.5035-.0105-1.422,1.2411-2.3224,1.7939-3.5184a2.2929,2.2929,0,0,0,.1136-.83c-.0677-1.3224-1.2593-2.3563-1.0615-3.8432a4.7074,4.7074,0,0,1,1.15-2.8763,3.4533,3.4533,0,0,0-1.657,2.4711c-.47,1.52.6522,2.8867.7647,4.2484a2.2482,2.2482,0,0,1-.6627,1.81c-.8127.9578-1.6368,2.1662-1.05,3.4533.6213,1.42,2.5734,2.5258,1.7268,4.2972-.4619,1.117-1.5681,1.9625-1.5227,3.2821a2.8787,2.8787,0,0,1-.846-.4729c0-1.6806,2.3907-2.73,1.2516-4.5012-.101.3493-.1226.8242-.2016,1.219-.3954,1.0272-1.2411,1.8492-1.5576,2.911a4.6519,4.6519,0,0,1-1.523-1.0846l.61-.3732a1.92,1.92,0,0,0-.4057-.6094c-.3959-.0556-.656.2041-.9824.306a5.0679,5.0679,0,0,1-.7789-.7789c.2024-.5765,1.7839-.1.9827-1.0477-.5409-.3382-1.0838.1449-1.5575.3706l-.6422-.811c.5527-.3383,1.1041-.8131,1.7916-.677.1695.3052.1813.7538.5077.9132,1.1621-.0225,1.9857-.9015,2.8766-1.59a3.4008,3.4008,0,0,1-.5748-3.3167c.4419-1.12,1.5934-2.0627,1.6455-3.3a2.1985,2.1985,0,0,0-.1553-.8972c-.6089-1.5682-.8238-3.6879.3383-5.076-.6319.17-1.0044.9574-1.2191,1.5554-.6986,1.5314.1851,2.95.2155,4.4178a3.1619,3.1619,0,0,1-.0812.7949c-.5982,1.2071-1.5673,2.266-1.7245,3.655-.6885.4391-1.2536,1.207-2.2344.9478a2.5976,2.5976,0,0,0,.1345.9479c-.7778-.0327-1.3084.5406-1.9632.8114-.3488-.1119-.44-.563-.5748-.8786.7666-.2588,1.32-1.0273,2.2-1.0152.102-.2834-.0574-.5431-.1022-.8136-1.0947-.4859-2.83,2.4022-2.9762-.1018,1.0941-.0676,1.7931-1.0833,2.8767-1.1845l.0323-.8111c-1.23-.124-2.0206,1.14-3.25,1.0153l-.2709-1.0824c1.4216.0889,2.2689-1.1853,3.6228-1.2538A1.8441,1.8441,0,0,0,7.58,19.19c-1.478-.1927-2.4921,1.4454-4.0607.9478,0,0-.0542-.6815-.0835-1.0659h.0023c-.0107-.15-.0209-.255-.0209-.255,1.3988.5427,2.6278-.462,3.8243-.9806.3045-.0911.779.0669.9155-.2713-.0118-.2594.4614-.5628.0675-.7439-1.75-.2374-2.9115,1.8725-4.7055.9131l-.1345-.2712A15.1775,15.1775,0,0,1,11.4038,5.01a14.0138,14.0138,0,0,1,6.7543-1.6873A13.9814,13.9814,0,0,1,26.2289,5.62a14.72,14.72,0,0,1,6.972,12.0134c-1.8507,1.3981-3.0921-1.3173-4.9766-.71a2.3484,2.3484,0,0,0,.3732.8462c1.67-.0118,2.82,1.7369,4.5684,1.0476l.0017.255ZM11.9109,12.7929c-1.1735-.7674-2.6612-.0448-3.7548.3731a3.6747,3.6747,0,0,0-1.3883-2.64.9288.9288,0,0,0-.3061-.1369.1747.1747,0,0,0-.1691.1018c.3941,2.4252-1.1823,4.1173-2.2994,5.9569a1.7812,1.7812,0,0,0,1.4207.1692c1.1843-.4736,2.3124-1.2979,3.7226-1.0154a10.4523,10.4523,0,0,1,1.692-1.9629c.3511-.3038.8333-.4968,1.0824-.8461Zm3.5881,1.5229c-.0226.1461.0112.4063.2363.3057.35-.485.97-.1012,1.3537-.0671v-.1365a1.2158,1.2158,0,0,0-1.0824-.48,1.61,1.61,0,0,0-.3038.0416A.263.263,0,0,0,15.499,14.3158Zm5.5162-1.4533a2.3358,2.3358,0,0,0-1.6921-1.152,8.8234,8.8234,0,0,0-.9851-.0693c-.062-.0006-.1238-.0014-.1855,0a2.7716,2.7716,0,0,0-2.3481,1.0172c-.0775.2148-.4182.5166-.1018.7093.7107-.0454,1.5217-.1345,1.9956.4754,0,.542.35,1.2631-.2364,1.5227-.4859-.45-1.0612.1914-1.59-.17-.2484-.1469-.4058.0246-.5075.2389a3.9747,3.9747,0,0,0,1.8938,3.72,2.4179,2.4179,0,0,0,1.7963.1018,4.3316,4.3316,0,0,0,2.13-3.3492c-.0332-.249-.0214-.7343-.3708-.7463a1.8927,1.8927,0,0,1-1.3884,0c-.2474.08-.2587.4417-.54.51l-.1714-.1367c-.147-.62-.2376-1.5.3384-1.9285a3.1747,3.1747,0,0,1,2.0649-.1692c.1243-.2144-.0674-.3829-.1021-.5748Zm-.6791,1.1123c-.0448.0011-.0883.0034-.1323.0049-.2364.1576-.9252.0443-.6766.5747.4291-.3393,1.0269-.1015,1.4556.0671.1585-.0787.124-.2365.1346-.3729-.1377-.256-.4666-.28-.7813-.2738Zm4.9117-4.77a7.1761,7.1761,0,0,0-2.3016.6442c-.0669-.6529.4292-1.3424.5423-1.9978a7.6048,7.6048,0,0,0-3.2494,1.423q-.3563-.8608-.7115-1.7267l1.3536-1.2862.0347-.17L19.0874,5.99a17.1648,17.1648,0,0,0-.8114-1.7243c-.3046.5753-.5093,1.1843-.8137,1.759l-1.8263.1021v.1345l1.3861,1.2515a4.5544,4.5544,0,0,1-.744,1.8287A16.1122,16.1122,0,0,0,13.775,7.9879c-.2144-.0691-.52-.1816-.7115-.0347a4.1079,4.1079,0,0,1,.61,1.9657,10.5629,10.5629,0,0,1-1.0153-.4078,2.4736,2.4736,0,0,0-1.3212-.2017,7.4385,7.4385,0,0,1,1.4209,3.0779A12.565,12.565,0,0,1,20.3414,11.17a18.5633,18.5633,0,0,1,3.5859,1.15,7.3015,7.3015,0,0,1,1.3205-3.115Zm3.8567,6.4988c1.15.3044,2.3033,1.557,3.5208.7443-1.0605-1.76-2.6385-3.3844-2.2-5.6854a.2649.2649,0,0,0-.2016-.3385,2.9709,2.9709,0,0,0-1.4928,1.6251,10.0683,10.0683,0,0,1-.336,1.1841A4.8123,4.8123,0,0,0,25.688,12.49c-.3622.0451-.881.0687-.9479.44a7.8661,7.8661,0,0,1,2.7745,2.7072,5.42,5.42,0,0,1,1.59.0667Zm-12.048,1.59.0325.2039c.4408.2936.5765.7914,1.1867.7463.5412.0321.9472-.4749,1.2169-.8808-.7325-.1012-1.6236.0553-2.4361-.0693Zm.6094-.9131c.022.09-.0558.2257.0671.2713.361-.0784,1.0151.192,1.2168-.2366a.8109.8109,0,0,0-.6118-.2292A1.2227,1.2227,0,0,0,17.6659,16.381Z" fill="#067655"/></g></g></svg>