<svg id="ab34554e-0727-496c-9a11-c5790a60f910" data-name="Layer 1" xmlns="http://www.w3.org/2000/svg" viewBox="0 0 52.5 111"><title>img-phone-solid</title><path id="bc9546c1-2c2a-4cb4-afb8-306f197f0a13" data-name="Union 20" d="M6,111a6.0071,6.0071,0,0,1-6-6V6A6.0071,6.0071,0,0,1,6,0H46a6.0071,6.0071,0,0,1,6,6V24.5a.5.5,0,0,1,.5.5v3a.5.5,0,0,1-.5.5v3a.5.5,0,0,1,.5.5v3a.5.5,0,0,1-.5.5V105a6.0071,6.0071,0,0,1-6,6Zm15-8a5,5,0,1,0,5-5A5,5,0,0,0,21,103ZM3,17V93a3,3,0,0,0,3,3H46a3,3,0,0,0,3-3V17a3,3,0,0,0-3-3H6A3,3,0,0,0,3,17ZM22,9.5a.5.5,0,0,0,.5.5h7a.5.5,0,0,0,0-1h-7A.5.5,0,0,0,22,9.5ZM25,5a1,1,0,1,0,1-1A1,1,0,0,0,25,5Zm-3,98a4,4,0,1,1,4,4A4,4,0,0,1,22,103Z" fill="#48dad0"/></svg>