<svg id="bd4e9ba3-0af1-4f95-b6bd-581cf8556fb4" data-name="Layer 1" xmlns="http://www.w3.org/2000/svg" viewBox="0 0 52.5 111"><title>img-phone-outline</title><path d="M46,14H6a3.0033,3.0033,0,0,0-3,3V93a3.0033,3.0033,0,0,0,3,3H46a3.0033,3.0033,0,0,0,3-3V17A3.0033,3.0033,0,0,0,46,14Zm2,79a2.0027,2.0027,0,0,1-2,2H6a2.0023,2.0023,0,0,1-2-2V17a2.002,2.002,0,0,1,2-2H46a2.0023,2.0023,0,0,1,2,2Z" fill="#48dad0"/><path d="M22.5,10h7a.5.5,0,0,0,0-1h-7a.5.5,0,0,0,0,1Z" fill="#48dad0"/><path d="M52.5,28V25a.5.5,0,0,0-.5-.5V6a6.0066,6.0066,0,0,0-6-6H6A6.0066,6.0066,0,0,0,0,6v99a6.0066,6.0066,0,0,0,6,6H46a6.0066,6.0066,0,0,0,6-6V35.5a.5.5,0,0,0,.5-.5V32a.5.5,0,0,0-.5-.5v-3A.5.5,0,0,0,52.5,28ZM51,105a5.0059,5.0059,0,0,1-5,5H6a5.0059,5.0059,0,0,1-5-5V6A5.0059,5.0059,0,0,1,6,1H46a5.0059,5.0059,0,0,1,5,5Z" fill="#48dad0"/><path d="M26,98a5,5,0,1,0,5,5A5.0059,5.0059,0,0,0,26,98Zm0,9a4,4,0,1,1,4-4A4.0042,4.0042,0,0,1,26,107Z" fill="#48dad0"/><circle cx="26" cy="5" r="1" fill="#48dad0"/></svg>