<svg xmlns="http://www.w3.org/2000/svg" xmlns:xlink="http://www.w3.org/1999/xlink" viewBox="0 0 5900 950"><defs><clipPath id="e3a6f212-f384-4d1e-8326-263075e131f2" transform="translate(-0.1708 0.2881)"><path d="M2926.5386,599.6268H3192.38c0-76.0586-59.5257-137.72-132.9326-137.72-73.3951,0-132.909,61.6611-132.909,137.72" fill="none"/></clipPath><linearGradient id="a750dc64-8ae8-40c1-bfca-8903309391fe" x1="2529.1847" y1="927.792" x2="2540.9188" y2="927.792" gradientTransform="matrix(22.6556, 0, 0, -22.6899, -54373.7227, 21582.5506)" gradientUnits="userSpaceOnUse"><stop offset="0" stop-color="#31dabb"/><stop offset="0.0198" stop-color="#31dabb"/><stop offset="0.3919" stop-color="#21cea5"/><stop offset="1" stop-color="#00b77a"/></linearGradient><clipPath id="b378beaf-caa6-4179-b6ee-810a1d28fd58" transform="translate(-0.1708 0.2881)"><path d="M2740.2993,600.6008h224.21c0-43.8259-50.1971-79.3677-112.1048-79.3677-61.9195,0-112.1051,35.5418-112.1051,79.3677" fill="none"/></clipPath><linearGradient id="f387a4e1-3f68-47c3-9234-d74fd34e42d5" x1="2520.0858" y1="927.4796" x2="2531.8195" y2="927.4796" gradientTransform="matrix(19.1082, 0, 0, -19.1371, -45414.0781, 18310.49)" xlink:href="#a750dc64-8ae8-40c1-bfca-8903309391fe"/><clipPath id="ba643939-846f-423c-bd83-04413c3f40ed" transform="translate(-0.1708 0.2881)"><path d="M2478.2363,600.6008h253.8846c0-68.0562-56.8385-123.24-126.9364-123.24-70.11,0-126.9482,55.1842-126.9482,123.24" fill="none"/></clipPath><linearGradient id="bb9adf18-0b8a-4e1e-9392-d60cdd493df6" x1="2510.1843" y1="927.7317" x2="2521.9184" y2="927.7317" gradientTransform="matrix(21.6364, 0, 0, -21.6692, -51833.358, 20642.4841)" xlink:href="#a750dc64-8ae8-40c1-bfca-8903309391fe"/><clipPath id="bc15da1f-8b70-4ae5-a966-df6966d06468" transform="translate(-0.1708 0.2881)"><path d="M2383.5561,600.6008h196.6586c0-52.72-44.0251-95.4782-98.3291-95.4782s-98.33,42.758-98.33,95.4782" fill="none"/></clipPath><linearGradient id="bcaa762f-f71c-409a-8985-f25a51669575" x1="2499.203" y1="928.7264" x2="2510.9362" y2="928.7264" gradientTransform="matrix(16.7609, 0, 0, -16.7862, -39505.3834, 16142.9805)" xlink:href="#a750dc64-8ae8-40c1-bfca-8903309391fe"/><clipPath id="aa93c0cb-40ba-47eb-9df3-a6fa0cb2d960" transform="translate(-0.1708 0.2881)"><path d="M3808.91,599.6268H4001.298c0-54.574-43.0633-98.7988-96.1938-98.7988-53.1191,0-96.1939,44.2248-96.1939,98.7988" fill="none"/></clipPath><linearGradient id="f989fe50-465b-4def-840f-1bf0f0ab1c65" x1="2578.0376" y1="929.0291" x2="2589.7713" y2="929.0291" gradientTransform="matrix(16.3962, 0, 0, -16.421, -38461.2031, 15806.1141)" xlink:href="#a750dc64-8ae8-40c1-bfca-8903309391fe"/><clipPath id="bc1be233-717e-4049-9f82-2c2b5cb0bd6d" transform="translate(-0.1708 0.2881)"><path d="M4131.637,599.6268h121.6446c0-30.93-27.2341-55.9939-60.8162-55.9939-33.5937,0-60.8284,25.0635-60.8284,55.9939" fill="none"/></clipPath><linearGradient id="e43732b6-6b01-4bb6-81f1-980f9a87b16f" x1="2634.3598" y1="931.3995" x2="2646.0945" y2="931.3995" gradientTransform="matrix(10.3663, 0, 0, -10.382, -23177.1123, 10241.7191)" xlink:href="#a750dc64-8ae8-40c1-bfca-8903309391fe"/><clipPath id="b5fb8c72-d11f-429e-8e22-14758ee62135" transform="translate(-0.1708 0.2881)"><path d="M3658.1307,599.6268h159.1342c0-57.3431-35.624-103.8442-79.5671-103.8442s-79.5671,46.5011-79.5671,103.8442" fill="none"/></clipPath><linearGradient id="eaa849e8-71f7-4a7f-b40f-84a2eb09383e" x1="2577.87" y1="930.728" x2="2589.6037" y2="930.728" gradientTransform="matrix(13.5621, 0, 0, -13.5827, -31303.4606, 13189.7782)" xlink:href="#a750dc64-8ae8-40c1-bfca-8903309391fe"/><clipPath id="af1d7fef-e257-44ec-b9dc-04fa73d954aa" transform="translate(-0.1708 0.2881)"><path d="M3598.7694,599.6268h123.2871c0-44.436-27.61-80.4471-61.6377-80.4471-34.0516,0-61.6494,36.0111-61.6494,80.4471" fill="none"/></clipPath><linearGradient id="eeb36c68-f35b-44b8-bcb9-511fccb0996f" x1="2586.5766" y1="932.3337" x2="2598.3115" y2="932.3337" gradientTransform="matrix(10.506, 0, 0, -10.5219, -23576.0332, 10369.6516)" xlink:href="#a750dc64-8ae8-40c1-bfca-8903309391fe"/><clipPath id="e6959f46-a966-41ba-a96b-5690b463a47e" transform="translate(-0.1708 0.2881)"><path d="M2196.39,600.6008h288.4877c0-77.3377-64.5829-140.0433-144.2439-140.0433-79.6723,0-144.2438,62.7056-144.2438,140.0433" fill="none"/></clipPath><linearGradient id="ad6bbcfd-9d68-4838-ba67-27fb665bb75d" x1="2502.0956" y1="927.3216" x2="2513.8293" y2="927.3216" gradientTransform="matrix(24.5863, 0, 0, -24.6235, -59320.9406, 23364.778)" xlink:href="#a750dc64-8ae8-40c1-bfca-8903309391fe"/><clipPath id="f86b477d-e185-453f-97c8-e2076ebc172d" transform="translate(-0.1708 0.2881)"><path d="M1884.6925,599.6268h201.0241c0-72.4446-45-131.1724-100.5121-131.1724s-100.512,58.7278-100.512,131.1724" fill="none"/></clipPath><linearGradient id="adcb4b5b-5879-46fe-a02c-9ffeea15f4ed" x1="2473.2375" y1="929.5777" x2="2484.9712" y2="929.5777" gradientTransform="matrix(17.1323, 0, 0, -17.1582, -40487.6584, 16484.238)" xlink:href="#a750dc64-8ae8-40c1-bfca-8903309391fe"/><clipPath id="e0607694-8968-44ee-a865-e40b68597b1b" transform="translate(-0.1708 0.2881)"><path d="M1989.3465,599.6033H2136.078c0-52.8726-32.8549-95.7362-73.36-95.7362-40.5284,0-73.3715,42.8636-73.3715,95.7362" fill="none"/></clipPath><linearGradient id="e84167a9-7894-4750-9954-e65c2a58ff61" x1="2459.8226" y1="931.1963" x2="2471.557" y2="931.1963" gradientTransform="matrix(12.5044, 0, 0, -12.5233, -28769.405, 12213.708)" xlink:href="#a750dc64-8ae8-40c1-bfca-8903309391fe"/><clipPath id="a81f818d-8426-4449-a4c3-73cfc0667f18" transform="translate(-0.1708 0.2881)"><path d="M1677.6143,599.6268h182.3669c0-65.7211-40.8338-118.9928-91.1835-118.9928s-91.1834,53.2717-91.1834,118.9928" fill="none"/></clipPath><linearGradient id="e9391196-01b7-45f1-adf7-a213a2880345" x1="2455.2168" y1="930.0254" x2="2466.9517" y2="930.0254" gradientTransform="matrix(15.5406, 0, 0, -15.5641, -36477.9809, 15015.4273)" xlink:href="#a750dc64-8ae8-40c1-bfca-8903309391fe"/><clipPath id="b1a8c2a5-050a-4634-a81e-7c4c7e30fb3f" transform="translate(-0.1708 0.2881)"><path d="M1461.1708,663.3191l50.0075-.6923h266.2124c0-92.7793-80.8916-167.9814-180.6922-167.9814-30.9338,0-110.7049,34.075-135.5277,168.6737" fill="none"/></clipPath><linearGradient id="e175b888-298e-4746-a874-95be0a481383" x1="2458.7255" y1="926.3139" x2="2475.1971" y2="926.3139" gradientTransform="matrix(19.1979, 0, 0, -19.227, -45741.322, 18389.4821)" xlink:href="#a750dc64-8ae8-40c1-bfca-8903309391fe"/><clipPath id="a43340a2-c4b4-4da3-a4ee-9d78fe4ee226" transform="translate(-0.1708 0.2881)"><path d="M3103.52,599.6268H3298.888c0-46.2548-43.7436-83.7442-97.6842-83.7442S3103.52,553.372,3103.52,599.6268" fill="none"/></clipPath><linearGradient id="bb362f15-d728-48ac-8116-516fe91dc07a" x1="2538.5529" y1="928.5048" x2="2550.2871" y2="928.5048" gradientTransform="matrix(16.6495, 0, 0, -16.6747, -39162.2198, 16040.5835)" xlink:href="#a750dc64-8ae8-40c1-bfca-8903309391fe"/></defs><title>img-mountains</title><g id="f9ac3325-719d-4e11-b6c8-ea63b2b49383" data-name="mountains"><polygon points="2900.089 595 2900.822 577.712 2906.166 451.596 2906.172 451.596 2906.211 450.587 2913.202 285.732 2932.895 266.753 2932.899 266.753 3205.062 4.475 3567.116 135.21 3620.068 237.486 3718.614 268.376 3774.004 285.732 4032.613 384.147 4217.135 267.802 4217.135 595 2900.089 595" fill="#9a9ca2"/><polygon points="1771.824 595 1223 594.502 1723.725 254.642 1867.514 188.116 1983.756 27.162 2159.984 126.317 2189.509 142.933 2262.89 99.068 2329.273 59.384 2428.619 0 2470.034 32.006 2497.052 52.886 2497.07 52.899 2688.469 200.82 2803.411 162.23 2933.024 266.753 2933.025 266.753 3033.373 347.673 3033.373 347.677 3085.777 389.934 3216.781 367.551 3316.72 472.887 3432.583 595 1771.824 595" fill="#9a9ca2"/><polygon points="3837.315 595 3837.315 325.255 3940.001 319.866 4025.389 367.91 4039.695 375.96 4217.2 264.765 4281.456 404.009 4337.148 385.31 4399.949 435.955 4399.95 435.955 4448.571 475.163 4448.571 475.165 4473.963 495.64 4537.438 484.795 4585.861 535.833 4642 595 3837.315 595" fill="#9a9ca2"/><polygon points="1771.824 595 1456.446 594.502 1765.17 285.012 2269.964 237.486 2322.134 263.836 2392.238 299.24 2476.839 312.745 2797.226 432.522 2906.403 451.596 2906.408 451.596 3050.541 476.774 3277.763 595 1771.824 595" fill="#696d75"/><polygon points="3946.792 595 3993.371 564.598 4130.88 474.848 4217.135 450.235 4217.135 595 3946.792 595" fill="#696d75"/><polygon points="1634.068 416.618 1772.782 215.594 1940.255 269.104 2269.219 237.488 2196.992 287.22 2147.417 297.496 2094.242 361.826 2030.558 410.707 1802.882 462.107 1771.824 481.766 1634.068 416.618" fill="#cccdcf"/><polygon points="2402.212 595 2321.425 347.677 2385.05 499.47 2427.219 595 2402.212 595" fill="#9a9ca2"/><polygon points="2476.246 312.747 2573.471 162.23 2432.342 252.488 2380.155 251.201 2321.426 263.836 2391.583 299.24 2476.246 312.747" fill="#696d75"/><polygon points="3216.637 367.555 3141.183 456.794 3050.373 476.777 2906.173 450.587 3004.149 445.441 3066.14 416.245 3085.545 389.939 3216.637 367.555" fill="#696d75"/><polygon points="2496.442 52.902 2427.946 131.57 2349.974 177.878 2469.39 32.006 2496.425 52.889 2496.442 52.902" fill="#696d75"/><polygon points="2328.535 59.385 2292.877 131.569 2245.568 206.179 2261.066 152.151 2262.108 99.065 2328.535 59.385" fill="#696d75"/><polygon points="2188.675 142.932 2110.98 187.956 2053.067 187.956 2108.533 142.932 2159.13 126.318 2188.675 142.932" fill="#696d75"/><polygon points="3203.122 4.473 3187.677 59.387 3146.078 126.423 3135.991 187.957 3031.066 258.92 3033.107 347.678 2932.688 266.752 3203.122 4.473" fill="#696d75"/><polygon points="3615.489 237.488 3562.072 288.505 3512.317 270.497 3316.642 472.884 3432.585 595 3566.146 595 3523.736 513.62 3558.81 444.155 3623.249 367.555 3630.583 312.946 3713.405 268.373 3615.489 237.488" fill="#696d75"/><polygon points="3757.836 434.322 3854.902 496.896 3874.477 538.059 3991.927 564.601 3946.793 594.999 3777.814 594.999 3803.514 536.775 3757.836 434.322" fill="#696d75"/><polygon points="2743.19 182.294 2777.118 186.883 2795.063 204.035 2813.551 204.035 2842.101 213.468 2856.725 205.536 2802.99 162.23 2743.19 182.294" fill="#fff"/><polygon points="4159.684 300.921 4198.51 295.796 4209.93 306.086 4233.27 299.474 4217.2 264.765 4159.684 300.921" fill="#fff"/></g><g id="f3179c0f-ad1a-48fb-81bc-a5e4030d8c5e" data-name="foreground"><g clip-path="url(#e3a6f212-f384-4d1e-8326-263075e131f2)"><rect x="2926.3679" y="462.1952" width="265.8415" height="137.7197" fill="url(#a750dc64-8ae8-40c1-bfca-8903309391fe)"/></g><g clip-path="url(#b378beaf-caa6-4179-b6ee-810a1d28fd58)"><rect x="2740.1285" y="521.5214" width="224.2099" height="79.3675" fill="url(#f387a4e1-3f68-47c3-9234-d74fd34e42d5)"/></g><g clip-path="url(#ba643939-846f-423c-bd83-04413c3f40ed)"><rect x="2478.0652" y="477.6488" width="253.8846" height="123.2404" fill="url(#bb9adf18-0b8a-4e1e-9392-d60cdd493df6)"/></g><g clip-path="url(#bc15da1f-8b70-4ae5-a966-df6966d06468)"><rect x="2383.3853" y="505.411" width="196.6582" height="95.478" fill="url(#bcaa762f-f71c-409a-8985-f25a51669575)"/></g><g clip-path="url(#aa93c0cb-40ba-47eb-9df3-a6fa0cb2d960)"><rect x="3808.7396" y="501.1161" width="192.3873" height="98.7988" fill="url(#f989fe50-465b-4def-840f-1bf0f0ab1c65)"/></g><g clip-path="url(#bc1be233-717e-4049-9f82-2c2b5cb0bd6d)"><rect x="4131.4662" y="543.921" width="121.6446" height="55.994" fill="url(#e43732b6-6b01-4bb6-81f1-980f9a87b16f)"/></g><g clip-path="url(#b5fb8c72-d11f-429e-8e22-14758ee62135)"><rect x="3657.9595" y="496.0706" width="159.1342" height="103.8442" fill="url(#eaa849e8-71f7-4a7f-b40f-84a2eb09383e)"/></g><g clip-path="url(#af1d7fef-e257-44ec-b9dc-04fa73d954aa)"><rect x="3598.5982" y="519.4679" width="123.2871" height="80.4471" fill="url(#eeb36c68-f35b-44b8-bcb9-511fccb0996f)"/></g><g clip-path="url(#e6959f46-a966-41ba-a96b-5690b463a47e)"><rect x="2196.2186" y="460.8455" width="288.4877" height="140.0433" fill="url(#ad6bbcfd-9d68-4838-ba67-27fb665bb75d)"/></g><g clip-path="url(#f86b477d-e185-453f-97c8-e2076ebc172d)"><rect x="1884.5214" y="468.7424" width="201.0244" height="131.1726" fill="url(#adcb4b5b-5879-46fe-a02c-9ffeea15f4ed)"/></g><g clip-path="url(#e0607694-8968-44ee-a865-e40b68597b1b)"><rect x="1989.1758" y="504.1552" width="146.7311" height="95.7362" fill="url(#e84167a9-7894-4750-9954-e65c2a58ff61)"/></g><g clip-path="url(#a81f818d-8426-4449-a4c3-73cfc0667f18)"><rect x="1677.4431" y="480.9221" width="182.3673" height="118.9929" fill="url(#e9391196-01b7-45f1-adf7-a213a2880345)"/></g><g clip-path="url(#b1a8c2a5-050a-4634-a81e-7c4c7e30fb3f)"><rect x="1460.9995" y="494.9339" width="316.2204" height="168.6733" fill="url(#e175b888-298e-4746-a874-95be0a481383)"/></g><g clip-path="url(#a43340a2-c4b4-4da3-a4ee-9d78fe4ee226)"><rect x="3103.3488" y="516.1708" width="195.3681" height="83.744" fill="url(#bb362f15-d728-48ac-8116-516fe91dc07a)"/></g><path d="M3326.4615,494.4426c-57.1122,0-103.4115,47.0907-103.4115,105.1808h206.824c0-58.09-46.2989-105.1808-103.4125-105.1808" transform="translate(-0.1708 0.2881)" fill="#00afa9"/><path d="M3476.3313,528.9322c-41.9726,0-75.9974,31.6492-75.9974,70.69h151.9943c0-39.0411-34.0248-70.69-75.9969-70.69" transform="translate(-0.1708 0.2881)" fill="#00afa9"/><path d="M1597.6268,599.6223H3552.3282c-2.5048-30.836-22.5595-54.8693-46.941-54.8693-12.4009,0-23.6513,6.2669-32.0768,16.4352-8.0433-8.274-18.1858-13.2505-29.2407-13.2505a38.1427,38.1427,0,0,0-19.7647,5.6948c-7.7039-20.2944-23.7322-34.2888-42.3148-34.2888-20.6954,0-38.2349,17.3386-44.611,41.432a34.2226,34.2226,0,0,0-19.0714-6.0034c-19.8953,0-36.5178,18.0222-40.8327,42.18-10.3151-17.0858-26.3059-28.1-44.307-28.1a46.31,46.31,0,0,0-27.0657,9.0059c-10.0715-19.927-27.3915-33.1054-47.0985-33.1054-14.4156,0-27.5241,7.0982-37.4893,18.6757-8.959-25.0358-28.4243-42.4318-51.0619-42.4318-20.1586,0-37.7958,13.8092-47.7532,34.5057a38.8049,38.8049,0,0,0-22.7-7.5649,38.1506,38.1506,0,0,0-19.7658,5.6948c-7.7039-20.2944-23.7308-34.2888-42.3138-34.2888-20.6949,0-38.2359,17.3386-44.61,41.432a34.2321,34.2321,0,0,0-19.0732-6.0034c-19.0456,0-35.1012,16.5134-40.2265,39.1192-10.314-14.9355-25.2341-24.384-41.8881-24.384a46.3174,46.3174,0,0,0-27.0653,9.0059c-10.07-19.9255-27.3916-33.1052-47.099-33.1052-14.4155,0-27.524,7.098-37.4889,18.6757-8.9593-25.0361-28.4246-42.432-51.0594-42.432-20.1614,0-37.7972,13.8093-47.7546,34.5057a38.8146,38.8146,0,0,0-22.7006-7.5648,38.1461,38.1461,0,0,0-19.7646,5.6947c-7.7025-20.2945-23.7309-34.2889-42.3149-34.2889-20.6939,0-38.2348,17.3386-44.611,41.4336a34.2124,34.2124,0,0,0-19.0714-6.0049c-17.6551,0-32.7363,14.1976-38.9291,34.2767-9.021-7.9759-19.909-12.6452-31.6407-12.6452a46.305,46.305,0,0,0-27.0653,9.0074c-10.0716-19.9271-27.39-33.1069-47.1-33.1069-14.4155,0-27.5226,7.0982-37.486,18.6774-8.9608-25.0375-28.4261-42.4335-51.0623-42.4335-20.16,0-37.7969,13.8092-47.7546,34.5057a38.81,38.81,0,0,0-22.6992-7.5649,38.1528,38.1528,0,0,0-19.7661,5.6948c-7.7021-20.2944-23.7308-34.2874-42.3134-34.2874-20.6939,0-38.2348,17.3372-44.6124,41.4322a34.2117,34.2117,0,0,0-19.0714-6.005c-12.9975,0-24.6088,7.6884-32.3049,19.7523a45.1013,45.1013,0,0,0-53.5069.4247c-10.07-19.9256-27.39-33.1038-47.0989-33.1038-14.4155,0-27.5241,7.0966-37.4889,18.6741-8.9594-25.0359-28.4233-42.4318-51.0609-42.4318-20.16,0-37.7972,13.8092-47.7545,34.5057a38.81,38.81,0,0,0-22.6992-7.5633,38.1412,38.1412,0,0,0-19.7647,5.6932c-7.7039-20.293-23.7323-34.2874-42.3149-34.2874-20.6939,0-38.2348,17.3388-44.6109,41.4322" transform="translate(-0.1708 0.2881)" fill="#00afa9"/><path d="M4364.3694,570.5234a68.78,68.78,0,0,0-53.1467-1.5148c-9.64-16.4426-29.7-27.7809-52.9547-27.7809-25.9,0-47.8506,14.0486-55.8309,33.5691a60.2828,60.2828,0,0,0-23.8691-4.8652c-16.2643,0-30.7984,6.2293-40.4313,16.0046a82.2494,82.2494,0,0,0-66.9628.3448c-12.6036-16.1446-34.279-26.8233-58.9448-26.8233-18.04,0-34.4445,5.7506-46.9171,15.1312-11.2113-20.2839-35.572-34.3791-63.9032-34.3791-25.2284,0-47.302,11.1892-59.7627,27.9572a68.7743,68.7743,0,0,0-53.1446-1.5148c-9.64-16.4428-29.7008-27.7809-52.9565-27.7809-25.9,0-47.8523,14.0485-55.8313,33.5689a60.293,60.293,0,0,0-23.87-4.865c-23.9847,0-44.1719,13.5533-50.4488,32.0467l833.6521,1.76,55.8294.0407c-4.4832-.7544-10.9109-59.9046-70.7438-58.8564-25.2237.4426-47.3,11.1891-59.7627,27.957" transform="translate(-0.1708 0.2881)" fill="#00afa9"/><path d="M2152.8018,591.5832a38.2586,38.2586,0,0,0-3.8444-10.2329c-.25-.4533-.5039-.902-.7728-1.3446a38.8542,38.8542,0,0,0-7.4271-8.9533c-.3745-.3373-.7638-.6716-1.1534-.9953a38.9311,38.9311,0,0,0-10.4386-6.1645c-.4644-.19-.935-.3629-1.4087-.5285a38.8278,38.8278,0,0,0-12.1779-2.1847c-.25-.01-.4991-.01-.75-.01-.2495,0-.4991,0-.7487.01a38.7778,38.7778,0,0,0-12.1736,2.1847c-.4737.1656-.9471.3389-1.4133.5285a38.8615,38.8615,0,0,0-10.4372,6.1645c-.3907.3237-.78.658-1.1559.9953a38.8348,38.8348,0,0,0-7.4243,8.9533c-.2707.4426-.5246.8913-.7756,1.3446a38.3371,38.3371,0,0,0-3.843,10.2329c-.1142.5121-.2134,1.0315-.3036,1.548a38.6679,38.6679,0,0,0-.5941,6.7729h77.7412a38.716,38.716,0,0,0-.5951-6.7729c-.0888-.5165-.1895-1.0359-.3037-1.548" transform="translate(-0.1708 0.2881)" fill="#00b77a"/><path d="M3909.1645,552.2244a72.6529,72.6529,0,0,0-7.2964-19.4286c-.4737-.86-.9578-1.71-1.47-2.5521A73.7167,73.7167,0,0,0,3886.3,513.2452c-.7112-.6429-1.4507-1.2769-2.19-1.8912a73.9159,73.9159,0,0,0-19.82-11.7041c-.8827-.3584-1.7833-.69-2.6853-1.0028a73.6177,73.6177,0,0,0-23.11-4.1483c-.4737-.02-.9489-.02-1.4237-.02s-.949,0-1.4224.02a73.7381,73.7381,0,0,0-23.12,4.1483c-.902.3131-1.7936.6444-2.6763,1.0028a73.8849,73.8849,0,0,0-19.8187,11.7041c-.74.6143-1.4807,1.2483-2.1919,1.8912a73.7509,73.7509,0,0,0-14.0979,16.9985c-.5114.8417-.9955,1.6923-1.4707,2.5521a72.6863,72.6863,0,0,0-7.2946,19.4286c-.22.9727-.4089,1.956-.579,2.9408a73.69,73.69,0,0,0-1.1291,12.8575h147.6028a73.66,73.66,0,0,0-1.1291-12.8575c-.1715-.9848-.36-1.9681-.5787-2.9408" transform="translate(-0.1708 0.2881)" fill="#00b77a"/><path d="M3254.9105,564.168a61.6942,61.6942,0,0,0-6.187-16.4758c-.4029-.73-.8118-1.4515-1.2462-2.1652a62.5772,62.5772,0,0,0-11.9572-14.416c-.6045-.5451-1.2311-1.0825-1.86-1.6036a62.5832,62.5832,0,0,0-16.8072-9.9258c-.7488-.3042-1.5126-.5858-2.2778-.8508a62.4278,62.4278,0,0,0-19.5992-3.5189c-.4029-.0167-.8043-.0167-1.2075-.0167s-.8042,0-1.2071.0167a62.5361,62.5361,0,0,0-19.6082,3.5189c-.7638.265-1.52.5466-2.2688.8508a62.6048,62.6048,0,0,0-16.8072,9.9258c-.6285.5211-1.2555,1.0585-1.86,1.6036a62.54,62.54,0,0,0-11.9555,14.416c-.4344.7137-.8447,1.4349-1.2479,2.1652a61.69,61.69,0,0,0-6.1867,16.4758c-.1848.8252-.3459,1.661-.49,2.4936a62.3894,62.3894,0,0,0-.9575,10.9046h125.18a62.3893,62.3893,0,0,0-.9593-10.9046c-.1443-.8326-.3051-1.6684-.49-2.4936" transform="translate(-0.1708 0.2881)" fill="#31dabb"/><path d="M3355.5647,563.5707a21.148,21.148,0,0,0-2.1231-5.654c-.1382-.2514-.28-.4983-.4286-.7438a21.49,21.49,0,0,0-4.1044-4.9478c-.2059-.1868-.4222-.37-.6374-.55a21.4911,21.4911,0,0,0-5.7688-3.4074c-.2557-.104-.5185-.2-.78-.2907a21.4383,21.4383,0,0,0-6.7281-1.2091c-.1368-.0045-.275-.0045-.4132-.0045s-.2768,0-.4136.0045a21.4657,21.4657,0,0,0-6.731,1.2091c-.2618.09-.5217.1867-.7788.2907a21.508,21.508,0,0,0-5.7674,3.4074c-.2163.1792-.4315.3629-.6388.55a21.4811,21.4811,0,0,0-4.103,4.9478c-.149.2455-.29.4924-.4286.7438a21.1473,21.1473,0,0,0-2.1228,5.654c-.063.2833-.1189.5692-.1683.8553a21.3359,21.3359,0,0,0-.3294,3.7433h42.963a21.5,21.5,0,0,0-.3291-3.7433c-.05-.2861-.1053-.572-.1683-.8553" transform="translate(-0.1708 0.2881)" fill="#bff4f1"/><path d="M4228.335,585.7528a63.8485,63.8485,0,0,0-6.4069-17.0569c-.4161-.756-.84-1.5028-1.29-2.2406a64.7248,64.7248,0,0,0-12.3777-14.9235c-.6259-.5645-1.2734-1.12-1.9244-1.6608a64.8707,64.8707,0,0,0-17.4-10.2752c-.7741-.3147-1.5648-.6053-2.3555-.8792a64.5781,64.5781,0,0,0-20.2921-3.6439c-.4154-.0167-.8315-.0167-1.2483-.0167s-.8329,0-1.249.0167a64.6908,64.6908,0,0,0-20.3,3.6439c-.7906.2739-1.5741.5645-2.3469.8792a64.8127,64.8127,0,0,0-17.3995,10.2752c-.651.5405-1.3006,1.0963-1.9258,1.6608a64.7012,64.7012,0,0,0-12.3769,14.9235c-.4491.7378-.8752,1.4846-1.2913,2.2406a63.8947,63.8947,0,0,0-6.4047,17.0569c-.1913.8539-.36,1.7181-.5085,2.581a64.6777,64.6777,0,0,0-.99,11.2885h129.5863a64.6777,64.6777,0,0,0-.99-11.2885c-.15-.8629-.3173-1.7271-.5078-2.581" transform="translate(-0.1708 0.2881)" fill="#00b77a"/><path d="M2938.4826,516.3525a56.6086,56.6086,0,0,0-48.6551,27.638c-.149-.0014-.29-.0226-.4376-.0226a56.5746,56.5746,0,0,0-56.3906,51.1744h157.5182a56.4194,56.4194,0,0,0-52.0349-78.79" transform="translate(-0.1708 0.2881)" fill="#008f89"/><path d="M3322.7,554.3672a56.62,56.62,0,0,0-54.3971,40.7756h108.7939A56.62,56.62,0,0,0,3322.7,554.3672" transform="translate(-0.1708 0.2881)" fill="#00b77a"/><path d="M3276.2,545.4128a36.9123,36.9123,0,0,0-34.4566,23.6313,25.2218,25.2218,0,0,0-30.9173,10.6742,25.2771,25.2771,0,0,0-39.2644,15.4232h139.1863a36.5013,36.5013,0,0,0,2.3873-12.9223A36.8712,36.8712,0,0,0,3276.2,545.4128" transform="translate(-0.1708 0.2881)" fill="#00b77a"/><path d="M3127.4936,572.7983a28.6841,28.6841,0,0,0-11.1287,2.2316,28.7224,28.7224,0,0,0-52.9719,4.5128,28.5031,28.5031,0,0,0-25.3422-5.8891,28.704,28.704,0,0,0-53.8511,1.2243,28.706,28.706,0,0,0-32.7335,8.1941,28.7064,28.7064,0,0,0-40.5889,17.0708h245.2511a28.6307,28.6307,0,0,0-28.6348-27.3445" transform="translate(-0.1708 0.2881)" fill="#00b77a"/><path d="M4685.4936,572.3674a28.6859,28.6859,0,0,0-11.1287,2.2316,28.7224,28.7224,0,0,0-52.9719,4.5128,28.5031,28.5031,0,0,0-25.3422-5.8891A28.704,28.704,0,0,0,4542.2,574.447a28.7058,28.7058,0,0,0-32.7335,8.1942,28.7062,28.7062,0,0,0-40.5889,17.0707h245.2511a28.6308,28.6308,0,0,0-28.6348-27.3445" transform="translate(-0.1708 0.2881)" fill="#00b77a"/><path d="M3618.6583,520.7807c-22.0153,0-41.5787,7.7216-54.22,19.7071a89.66,89.66,0,0,0-24.499-3.4029c-38.13,0-69.0379,23.0831-69.0379,51.5568a39.0141,39.0141,0,0,0,.6077,6.5h208.9937a41.0583,41.0583,0,0,0,7.1911-22.8045c0-28.4737-30.91-51.5567-69.0361-51.5567" transform="translate(-0.1708 0.2881)" fill="#00b77a"/><path d="M3780.5523,535.9414a56.56,56.56,0,0,0-56.6581,56.4595c0,.926.0945,1.8264.14,2.74h113.0393c.0437-.9141.1386-1.8145.1386-2.74a56.5607,56.5607,0,0,0-56.66-56.4595" transform="translate(-0.1708 0.2881)" fill="#31dabb"/><path d="M3810.8533,562.93a46.4816,46.4816,0,0,0-29.3854,10.4168,56.51,56.51,0,0,0-110.7451-10.873,40.0109,40.0109,0,0,0-39.2661,7.9744,40.1657,40.1657,0,0,0-71.2477,25.2785c0,1.1518.0781,2.2871.173,3.4151h295.8908a46.5413,46.5413,0,0,0-45.4195-36.2118" transform="translate(-0.1708 0.2881)" fill="#31dabb"/><path d="M2503.363,541.6651c-19.0324,0-35.8231,8.5572-45.9835,21.615a61.3971,61.3971,0,0,0-19.4761-3.1921c-24.9816,0-46.1306,14.717-53.4284,35.0537h174.9022c.0573-.9382.1579-1.8687.1579-2.82,0-27.9767-25.1485-50.6563-56.1721-50.6563" transform="translate(-0.1708 0.2881)" fill="#00b77a"/><path d="M1899.8722,596.7119c-2.5048-20.7421-22.56-36.9082-46.9409-36.9082a50.8379,50.8379,0,0,0-32.0768,11.0552,51.3432,51.3432,0,0,0-29.2408-8.913,52.65,52.65,0,0,0-19.7647,3.8307c-7.7038-13.6513-23.7322-23.0647-42.3148-23.0647-20.6953,0-38.2348,11.6629-44.6109,27.87a46.6194,46.6194,0,0,0-19.0714-4.0382c-19.8954,0-36.5179,12.1227-40.8328,28.3729-10.3151-11.4929-26.3059-18.9018-44.307-18.9018a62.4933,62.4933,0,0,0-27.0656,6.0579c-10.0716-13.4041-27.3916-22.2686-47.0986-22.2686a60.8154,60.8154,0,0,0-37.4893,12.5624c-8.959-16.8406-28.4243-28.5421-51.0619-28.5421-20.1585,0-37.7958,9.2888-47.7531,23.2105a53.0516,53.0516,0,0,0-42.4654-1.2579c-7.7038-13.6513-23.7308-23.0647-42.3137-23.0647-20.695,0-38.2359,11.6629-44.6106,27.87a46.633,46.633,0,0,0-19.0733-4.0382c-19.0455,0-35.101,11.1078-40.2264,26.3137-.4489-.4371-.9175-.8578-1.3834-1.2808v5.1357Z" transform="translate(-0.1708 0.2881)" fill="#00afa9"/><path d="M1726.4936,572.3674a28.6859,28.6859,0,0,0-11.1287,2.2316,28.7224,28.7224,0,0,0-52.9719,4.5128,28.5031,28.5031,0,0,0-25.3422-5.8891A28.704,28.704,0,0,0,1583.2,574.447a28.7058,28.7058,0,0,0-32.7335,8.1942,28.7062,28.7062,0,0,0-40.5889,17.0707h245.2511a28.6308,28.6308,0,0,0-28.6348-27.3445" transform="translate(-0.1708 0.2881)" fill="#00b77a"/><rect y="596" width="5900" height="354" fill="#31dabb"/></g></svg>