<svg id="Layer_1" data-name="Layer 1" xmlns="http://www.w3.org/2000/svg" xmlns:xlink="http://www.w3.org/1999/xlink" viewBox="0 0 242.34 247.64194"><defs><clipPath id="clip-path" transform="translate(1 0.01)"><rect x="9.83" y="117.8" width="171.58" height="100.37999" fill="none"/></clipPath><clipPath id="clip-path-2" transform="translate(1 0.01)"><rect x="9.83" y="117.81" width="171.59" height="100.38" fill="none"/></clipPath></defs><title>img-parking-location</title><polygon points="0 229.09 0 52.17 191.5 52.17 191.5 201.86 165.24 229.09 0 229.09" fill="#666766"/><polygon points="10.83 218.19 10.83 117.81 182.42 117.81 182.42 196.49 161.02 218.19 10.83 218.19" fill="#0f1119"/><polygon points="192.45 52.17 1 52.17 1 50.92 191.94 50.92 239.47 2.07 240.33 2.96 192.45 52.17" fill="#fff"/><path d="M238.9,5.01a2.47179,2.47179,0,0,0,2.44-2.51,2.441,2.441,0,1,0-4.88,0,2.47181,2.47181,0,0,0,2.44,2.51" transform="translate(1 0.01)" fill="#fff"/><path d="M84.37,74.51H83.36L80.83,69.2c.07.79.1,1.57.1,2.34v2.97h-.71V68.35h.98l2.54,5.32c-.02-.17-.04-.45-.06-.82s-.03-.72-.03-1.05V68.35h.71v6.16Z" transform="translate(1 0.01)" fill="#fff"/><path d="M89.7,72.41H86.75a2.00722,2.00722,0,0,0,.39,1.2,1.12418,1.12418,0,0,0,.89.39,1.754,1.754,0,0,0,.62-.1,2.24866,2.24866,0,0,0,.58-.32l.32.45a2.44266,2.44266,0,0,1-1.58.59,1.7929,1.7929,0,0,1-1.47-.65,2.72691,2.72691,0,0,1-.53-1.77,3.50548,3.50548,0,0,1,.23-1.3,2.066,2.066,0,0,1,.65-.89,1.63682,1.63682,0,0,1,1-.32,1.66266,1.66266,0,0,1,1.39.61,2.686,2.686,0,0,1,.48,1.7A2.74921,2.74921,0,0,1,89.7,72.41Zm-.7-.63a1.85889,1.85889,0,0,0-.28-1.11.97435.97435,0,0,0-.84-.39.9446.9446,0,0,0-.79.39,2.20619,2.20619,0,0,0-.34,1.18H89Z" transform="translate(1 0.01)" fill="#fff"/><path d="M94.62,74.51h-.89l-1.17-2.04-1.19,2.04h-.83l1.6-2.49L90.73,69.8h.85l1,1.76,1-1.76h.83L93,71.98Z" transform="translate(1 0.01)" fill="#fff"/><path d="M98.35,74.3a1.72278,1.72278,0,0,1-1.01.31,1.14617,1.14617,0,0,1-.89-.34,1.39235,1.39235,0,0,1-.32-.98V70.37h-.79V69.8h.79V68.72l.73-.08V69.8h1.11l-.08.58H96.86v2.88a.9064.9064,0,0,0,.14.55.51383.51383,0,0,0,.44.17,1.2859,1.2859,0,0,0,.64-.2Z" transform="translate(1 0.01)" fill="#fff"/><path d="M92.75,81.35a9.7078,9.7078,0,0,1,2.58,1.57l-1.07,1.16a8.13315,8.13315,0,0,0-2.13-1.28,6.68716,6.68716,0,0,0-2.37-.4,5.93717,5.93717,0,0,0-3.24.94,6.64433,6.64433,0,0,0-2.43,3,12.61821,12.61821,0,0,0-.93,5.19q0,4.665,1.72,6.97a5.62677,5.62677,0,0,0,4.8,2.31,8.40772,8.40772,0,0,0,4.27-1.1v-7.4H89.98l-.21-1.52h5.92v9.86a11.69043,11.69043,0,0,1-6.01,1.7,7.46176,7.46176,0,0,1-6.13-2.77q-2.25-2.775-2.25-8.07a13.36877,13.36877,0,0,1,1.17-5.86,8.45618,8.45618,0,0,1,3.11-3.62,7.81245,7.81245,0,0,1,4.19-1.2A8.5816,8.5816,0,0,1,92.75,81.35Z" transform="translate(1 0.01)" fill="#fff"/><path d="M110.72,100.3a1.89339,1.89339,0,0,0,.99.82l-.38,1.25a3.00434,3.00434,0,0,1-1.64-.82,3.33258,3.33258,0,0,1-.76-1.86,5.25939,5.25939,0,0,1-4.83,2.68,4.74285,4.74285,0,0,1-3.51-1.29,4.67055,4.67055,0,0,1-1.29-3.46,4.5953,4.5953,0,0,1,1.7-3.81,7.48466,7.48466,0,0,1,4.72-1.34h2.96V90.92a3.959,3.959,0,0,0-.83-2.79,3.671,3.671,0,0,0-2.75-.87,12.26756,12.26756,0,0,0-4.21.91l-.45-1.34a13.001,13.001,0,0,1,4.89-1.07q5.07,0,5.07,5.05v7.67A3.93258,3.93258,0,0,0,110.72,100.3Zm-2.03-2.16V93.76H106a5.95385,5.95385,0,0,0-3.61.94,3.32134,3.32134,0,0,0-1.24,2.83,3.49174,3.49174,0,0,0,.86,2.53,3.17888,3.17888,0,0,0,2.4.88A4.68831,4.68831,0,0,0,108.69,98.14Z" transform="translate(1 0.01)" fill="#fff"/><path d="M124.21,85.96l-.33,1.67a5.07258,5.07258,0,0,0-1.36-.18,3.10753,3.10753,0,0,0-2.53,1.17,9.66142,9.66142,0,0,0-1.61,3.67v9.74h-1.72V86.12h1.48l.15,3.56a6.37375,6.37375,0,0,1,1.7-2.94,3.881,3.881,0,0,1,2.68-.96A5.60926,5.60926,0,0,1,124.21,85.96Z" transform="translate(1 0.01)" fill="#fff"/><path d="M137.08,100.3a1.89342,1.89342,0,0,0,.99.82l-.38,1.25a3.00438,3.00438,0,0,1-1.64-.82,3.3325,3.3325,0,0,1-.76-1.86,5.25939,5.25939,0,0,1-4.83,2.68,4.74289,4.74289,0,0,1-3.51-1.29,4.67055,4.67055,0,0,1-1.29-3.46,4.59528,4.59528,0,0,1,1.7-3.81,7.48468,7.48468,0,0,1,4.72-1.34h2.96V90.92a3.959,3.959,0,0,0-.83-2.79,3.671,3.671,0,0,0-2.75-.87,12.26756,12.26756,0,0,0-4.21.91l-.45-1.34a13.001,13.001,0,0,1,4.89-1.07q5.07,0,5.07,5.05v7.67A4.06855,4.06855,0,0,0,137.08,100.3Zm-2.03-2.16V93.76h-2.7a5.95383,5.95383,0,0,0-3.61.94,3.32131,3.32131,0,0,0-1.24,2.83,3.49177,3.49177,0,0,0,.86,2.53,3.17889,3.17889,0,0,0,2.4.88A4.67138,4.67138,0,0,0,135.05,98.14Z" transform="translate(1 0.01)" fill="#fff"/><path d="M154.55,86.45a18.91176,18.91176,0,0,1-4.3.46,4.43212,4.43212,0,0,1,2.64,4.32,4.994,4.994,0,0,1-1.51,3.79,5.69173,5.69173,0,0,1-4.09,1.45,6.07518,6.07518,0,0,1-2.01-.3,2.4379,2.4379,0,0,0-.87.81A1.77565,1.77565,0,0,0,144.1,98c0,1.1.82,1.64,2.46,1.64h2.52a5.44308,5.44308,0,0,1,3.63,1.14,3.67119,3.67119,0,0,1,1.35,2.94,3.87733,3.87733,0,0,1-1.69,3.38,8.759,8.759,0,0,1-5.04,1.19q-3.465,0-4.96-1.08a4.00181,4.00181,0,0,1-1.5-3.49h1.6a3.52106,3.52106,0,0,0,.47,1.83,2.53274,2.53274,0,0,0,1.48.97,10.93434,10.93434,0,0,0,2.9.3,7.07708,7.07708,0,0,0,3.79-.78,2.51876,2.51876,0,0,0,1.19-2.24,2.29685,2.29685,0,0,0-.92-1.96,4.2116,4.2116,0,0,0-2.58-.69h-2.52a4.43493,4.43493,0,0,1-2.83-.79,2.47161,2.47161,0,0,1-.99-2.01,2.78121,2.78121,0,0,1,.44-1.49,4.12791,4.12791,0,0,1,1.24-1.22,4.74858,4.74858,0,0,1-1.97-1.8,5.28845,5.28845,0,0,1-.64-2.68,5.13823,5.13823,0,0,1,1.57-3.9,5.75837,5.75837,0,0,1,4.12-1.49,23.44479,23.44479,0,0,0,4.1-.21,13.80654,13.80654,0,0,0,2.68-.82Zm-10.24,1.8a4.18271,4.18271,0,0,0-.99,2.92,4.01468,4.01468,0,0,0,1.05,2.95,4.44221,4.44221,0,0,0,5.76.02,4.08178,4.08178,0,0,0,1.01-2.94,4.20494,4.20494,0,0,0-.99-2.98,3.79153,3.79153,0,0,0-2.92-1.07A3.73417,3.73417,0,0,0,144.31,88.25Z" transform="translate(1 0.01)" fill="#fff"/><path d="M168.59,94.76H158.25a7.53267,7.53267,0,0,0,1.44,4.61,4.23194,4.23194,0,0,0,3.39,1.51,5.76588,5.76588,0,0,0,2.15-.38,9.14549,9.14549,0,0,0,2.03-1.2l.8,1.13a8.59888,8.59888,0,0,1-2.37,1.46,7.291,7.291,0,0,1-2.7.49,5.88427,5.88427,0,0,1-4.83-2.16,9.32121,9.32121,0,0,1-1.75-6,11.84811,11.84811,0,0,1,.76-4.43,6.561,6.561,0,0,1,2.16-2.95,5.32673,5.32673,0,0,1,3.27-1.05,5.26173,5.26173,0,0,1,4.5,2.06,9.20314,9.20314,0,0,1,1.54,5.65A10.371,10.371,0,0,1,168.59,94.76Zm-1.63-1.83a7.098,7.098,0,0,0-1.08-4.19,3.6829,3.6829,0,0,0-3.21-1.51,3.76851,3.76851,0,0,0-3.11,1.52,8.026,8.026,0,0,0-1.3,4.63h8.71v-.45Z" transform="translate(1 0.01)" fill="#fff"/><rect x="67.99" y="63.6" width="0.7" height="41.40001" fill="#fff"/><path d="M23.94,152.11a2.83269,2.83269,0,0,1,.47,1.72,5.08688,5.08688,0,0,1-.32,1.95,2.66826,2.66826,0,0,1-.98,1.19,6.33632,6.33632,0,0,1-1.76.77l-.17-.56a4.34489,4.34489,0,0,0,1.81-.95,2.28656,2.28656,0,0,0,.67-1.6,1.70256,1.70256,0,0,1-.56.54,1.46016,1.46016,0,0,1-.77.21,1.535,1.535,0,0,1-.82-.23,1.66681,1.66681,0,0,1-.58-.67,2.30777,2.30777,0,0,1-.21-1.01,2.1989,2.1989,0,0,1,.24-1.05,1.69032,1.69032,0,0,1,.66-.69,1.84122,1.84122,0,0,1,.93-.24A1.63152,1.63152,0,0,1,23.94,152.11Zm-.28,1.88a2.919,2.919,0,0,0-.25-1.46.9102.9102,0,0,0-.84-.45.99286.99286,0,0,0-.82.36,1.61981,1.61981,0,0,0-.29,1.03,1.51475,1.51475,0,0,0,.27.97.909.909,0,0,0,.74.33A1.38224,1.38224,0,0,0,23.66,153.99Z" transform="translate(1 0.01)" fill="#fff"/><path d="M28.99,152.27a5.75044,5.75044,0,0,1,0,4.6,1.68925,1.68925,0,0,1-2.86,0,5.77438,5.77438,0,0,1,0-4.61,1.57528,1.57528,0,0,1,1.43-.78A1.60358,1.60358,0,0,1,28.99,152.27Zm-2.3.41a4.58569,4.58569,0,0,0-.29,1.89,4.64009,4.64009,0,0,0,.29,1.9.92242.92242,0,0,0,.87.6.9415.9415,0,0,0,.87-.6,6.33638,6.33638,0,0,0,0-3.79.92723.92723,0,0,0-.87-.59A.9128.9128,0,0,0,26.69,152.68Z" transform="translate(1 0.01)" fill="#fff"/><path d="M34.13,152.27a5.75044,5.75044,0,0,1,0,4.6,1.68925,1.68925,0,0,1-2.86,0,5.77438,5.77438,0,0,1,0-4.61,1.57528,1.57528,0,0,1,1.43-.78A1.60358,1.60358,0,0,1,34.13,152.27Zm-2.3.41a4.58569,4.58569,0,0,0-.29,1.89,4.64009,4.64009,0,0,0,.29,1.9.92242.92242,0,0,0,.87.6.9415.9415,0,0,0,.87-.6,6.33638,6.33638,0,0,0,0-3.79.92723.92723,0,0,0-.87-.59A.9128.9128,0,0,0,31.83,152.68Z" transform="translate(1 0.01)" fill="#fff"/><path d="M39.27,152.27a5.75044,5.75044,0,0,1,0,4.6,1.68925,1.68925,0,0,1-2.86,0,5.77438,5.77438,0,0,1,0-4.61,1.57528,1.57528,0,0,1,1.43-.78A1.60358,1.60358,0,0,1,39.27,152.27Zm-2.3.41a4.58569,4.58569,0,0,0-.29,1.89,4.64009,4.64009,0,0,0,.29,1.9.92242.92242,0,0,0,.87.6.9415.9415,0,0,0,.87-.6,6.33638,6.33638,0,0,0,0-3.79.92723.92723,0,0,0-.87-.59A.9128.9128,0,0,0,36.97,152.68Z" transform="translate(1 0.01)" fill="#fff"/><path d="M46.93,156.06h-.76v1.5h-.71v-1.5h-2.5v-.55l1.76-4.03.61.26-1.59,3.71h1.73l.07-1.64h.64v1.64h.76v.61Z" transform="translate(1 0.01)" fill="#fff"/><path d="M51.65,155.01a1.46662,1.46662,0,0,1,.31.95,1.56113,1.56113,0,0,1-.25.88,1.61577,1.61577,0,0,1-.71.6,2.44588,2.44588,0,0,1-1.04.22,2.26186,2.26186,0,0,1-1.03-.22,1.56122,1.56122,0,0,1-.69-.6,1.57858,1.57858,0,0,1-.24-.87,1.49861,1.49861,0,0,1,.3-.95,2.24366,2.24366,0,0,1,.88-.63,1.91546,1.91546,0,0,1-.71-.58,1.4521,1.4521,0,0,1-.23-.81,1.33129,1.33129,0,0,1,.25-.82,1.555,1.555,0,0,1,.64-.52,2.02538,2.02538,0,0,1,.85-.18,2.18583,2.18583,0,0,1,.85.17,1.54535,1.54535,0,0,1,.65.51,1.33125,1.33125,0,0,1,.25.82,1.24,1.24,0,0,1-.24.77,2.30546,2.30546,0,0,1-.76.59A2.41307,2.41307,0,0,1,51.65,155.01Zm-.79,1.75a.99772.99772,0,0,0,.33-.79,1.18919,1.18919,0,0,0-.12-.56,1.03964,1.03964,0,0,0-.39-.39,3.72685,3.72685,0,0,0-.76-.34l-.23-.08a1.62329,1.62329,0,0,0-.69.55,1.44687,1.44687,0,0,0-.22.83,1.00954,1.00954,0,0,0,.32.79,1.27439,1.27439,0,0,0,.88.28A1.20338,1.20338,0,0,0,50.86,156.76Zm-1.61-4.45a.93442.93442,0,0,0-.27.71.83113.83113,0,0,0,.25.66,2.28211,2.28211,0,0,0,.82.43l.17.06a1.74313,1.74313,0,0,0,.6-.51,1.12991,1.12991,0,0,0,.18-.65.94966.94966,0,0,0-.27-.71,1.051,1.051,0,0,0-.75-.26A1.08634,1.08634,0,0,0,49.25,152.31Z" transform="translate(1 0.01)" fill="#fff"/><path d="M55.86,157.35a1.72277,1.72277,0,0,1-1.01.31,1.1462,1.1462,0,0,1-.89-.34,1.39237,1.39237,0,0,1-.32-.98v-2.92h-.79v-.58h.79v-1.08l.73-.08v1.16h1.11l-.08.58H54.37v2.88a.90636.90636,0,0,0,.14.55.51384.51384,0,0,0,.44.17,1.28592,1.28592,0,0,0,.64-.2Z" transform="translate(1 0.01)" fill="#fff"/><path d="M60.13,153.13a1.539,1.539,0,0,1,.35,1.06v3.38h-.73V154.3a1.11057,1.11057,0,0,0-.2-.74.71065.71065,0,0,0-.57-.22,1.07806,1.07806,0,0,0-.67.22,2.19814,2.19814,0,0,0-.54.64v3.37h-.73v-6.6l.73-.09v2.65a1.66233,1.66233,0,0,1,1.39-.78A1.21125,1.21125,0,0,1,60.13,153.13Z" transform="translate(1 0.01)" fill="#fff"/><path d="M66.97,151.46a2.82107,2.82107,0,0,1,.81.53l-.41.47a2.88024,2.88024,0,0,0-.67-.41,1.83119,1.83119,0,0,0-.71-.13,1.29939,1.29939,0,0,0-.81.24.79286.79286,0,0,0-.31.68.93329.93329,0,0,0,.11.47.86756.86756,0,0,0,.4.34,5.90543,5.90543,0,0,0,.83.33,5.03318,5.03318,0,0,1,.94.39,1.7002,1.7002,0,0,1,.6.56,1.66843,1.66843,0,0,1,.22.9,1.86854,1.86854,0,0,1-.25.95,1.69548,1.69548,0,0,1-.73.64,2.6028,2.6028,0,0,1-1.12.23,2.72042,2.72042,0,0,1-2.01-.79l.42-.48a2.62163,2.62163,0,0,0,.74.47,2.25851,2.25851,0,0,0,.85.16,1.47924,1.47924,0,0,0,.95-.3,1.02515,1.02515,0,0,0,.38-.85,1.13306,1.13306,0,0,0-.12-.54,1.05228,1.05228,0,0,0-.4-.38,4.24155,4.24155,0,0,0-.81-.32,3.32472,3.32472,0,0,1-1.34-.69,1.431,1.431,0,0,1-.42-1.08,1.45971,1.45971,0,0,1,.24-.82,1.576,1.576,0,0,1,.66-.56,2.25588,2.25588,0,0,1,.96-.2A3.23433,3.23433,0,0,1,66.97,151.46Z" transform="translate(1 0.01)" fill="#fff"/><path d="M71.62,157.35a1.72277,1.72277,0,0,1-1.01.31,1.1462,1.1462,0,0,1-.89-.34,1.39237,1.39237,0,0,1-.32-.98v-2.92h-.8v-.58h.79v-1.08l.73-.08v1.16h1.11l-.08.58H70.12v2.88a.90643.90643,0,0,0,.14.55.51384.51384,0,0,0,.44.17,1.28592,1.28592,0,0,0,.64-.2Z" transform="translate(1 0.01)" fill="#fff"/><path d="M75.18,152.79l-.13.73a1.41519,1.41519,0,0,0-.4-.05.87844.87844,0,0,0-.7.32,2.33686,2.33686,0,0,0-.42,1.01v2.76H72.8v-4.71h.63l.07.99a1.78515,1.78515,0,0,1,.5-.81,1.06853,1.06853,0,0,1,.74-.28A1.53514,1.53514,0,0,1,75.18,152.79Z" transform="translate(1 0.01)" fill="#fff"/><path d="M79.74,155.46H76.79a2.00721,2.00721,0,0,0,.39,1.2,1.12418,1.12418,0,0,0,.89.39,1.754,1.754,0,0,0,.62-.1,2.24871,2.24871,0,0,0,.58-.32l.32.45a2.44265,2.44265,0,0,1-1.58.59,1.79291,1.79291,0,0,1-1.47-.65,2.727,2.727,0,0,1-.53-1.77,3.50522,3.50522,0,0,1,.23-1.3,2.06582,2.06582,0,0,1,.65-.89,1.63678,1.63678,0,0,1,1-.32,1.66264,1.66264,0,0,1,1.39.61,2.686,2.686,0,0,1,.48,1.7C79.75,155.19,79.75,155.33,79.74,155.46Zm-.71-.62a1.85887,1.85887,0,0,0-.28-1.11.97435.97435,0,0,0-.84-.39.9446.9446,0,0,0-.79.39,2.20613,2.20613,0,0,0-.34,1.18h2.25Z" transform="translate(1 0.01)" fill="#fff"/><path d="M84.74,155.46H81.79a2.00721,2.00721,0,0,0,.39,1.2,1.12418,1.12418,0,0,0,.89.39,1.754,1.754,0,0,0,.62-.1,2.24871,2.24871,0,0,0,.58-.32l.32.45a2.44265,2.44265,0,0,1-1.58.59,1.79291,1.79291,0,0,1-1.47-.65,2.727,2.727,0,0,1-.53-1.77,3.50522,3.50522,0,0,1,.23-1.3,2.06582,2.06582,0,0,1,.65-.89,1.63678,1.63678,0,0,1,1-.32,1.66264,1.66264,0,0,1,1.39.61,2.686,2.686,0,0,1,.48,1.7C84.76,155.19,84.75,155.33,84.74,155.46Zm-.71-.62a1.85887,1.85887,0,0,0-.28-1.11.97435.97435,0,0,0-.84-.39.9446.9446,0,0,0-.79.39,2.20613,2.20613,0,0,0-.34,1.18h2.25Z" transform="translate(1 0.01)" fill="#fff"/><path d="M88.64,157.35a1.72277,1.72277,0,0,1-1.01.31,1.1462,1.1462,0,0,1-.89-.34,1.39237,1.39237,0,0,1-.32-.98v-2.92h-.79v-.58h.79v-1.08l.73-.08v1.16h1.11l-.08.58H87.15v2.88a.90636.90636,0,0,0,.14.55.51384.51384,0,0,0,.44.17,1.28592,1.28592,0,0,0,.64-.2Z" transform="translate(1 0.01)" fill="#fff"/><path d="M23.67,160.42a2.82107,2.82107,0,0,1,.81.53l-.41.47a2.88037,2.88037,0,0,0-.67-.41,1.83119,1.83119,0,0,0-.71-.13,1.29933,1.29933,0,0,0-.81.24.79283.79283,0,0,0-.31.68.93329.93329,0,0,0,.11.47.86763.86763,0,0,0,.4.34,5.90612,5.90612,0,0,0,.83.33,5.03289,5.03289,0,0,1,.94.39,1.70029,1.70029,0,0,1,.6.56,1.66843,1.66843,0,0,1,.22.9,1.86851,1.86851,0,0,1-.25.95,1.69548,1.69548,0,0,1-.73.64,2.60275,2.60275,0,0,1-1.12.23,2.72036,2.72036,0,0,1-2.01-.79l.42-.48a2.62159,2.62159,0,0,0,.74.47,2.25851,2.25851,0,0,0,.85.16,1.47924,1.47924,0,0,0,.95-.3,1.02514,1.02514,0,0,0,.38-.85,1.13318,1.13318,0,0,0-.12-.54,1.05235,1.05235,0,0,0-.4-.38,4.24142,4.24142,0,0,0-.81-.32,3.32479,3.32479,0,0,1-1.34-.69,1.431,1.431,0,0,1-.42-1.08,1.45973,1.45973,0,0,1,.24-.82,1.576,1.576,0,0,1,.66-.56,2.25588,2.25588,0,0,1,.96-.2A2.741,2.741,0,0,1,23.67,160.42Z" transform="translate(1 0.01)" fill="#fff"/><path d="M29.38,165.88a.59287.59287,0,0,0,.29.21l-.17.53a1.24252,1.24252,0,0,1-.56-.22.918.918,0,0,1-.3-.51,1.54441,1.54441,0,0,1-1.38.73,1.42712,1.42712,0,0,1-1.06-.39,1.38723,1.38723,0,0,1-.39-1.03,1.32815,1.32815,0,0,1,.52-1.14,2.338,2.338,0,0,1,1.47-.4h.75v-.38a.98238.98238,0,0,0-.24-.74,1.0572,1.0572,0,0,0-.74-.23,3.82141,3.82141,0,0,0-1.24.26l-.18-.56a4.38376,4.38376,0,0,1,1.55-.32,1.39145,1.39145,0,0,1,1.58,1.55v2.18A.84538.84538,0,0,0,29.38,165.88Zm-.83-.6v-1.12H27.9c-.87,0-1.31.33-1.31,1a.93407.93407,0,0,0,.21.66.81472.81472,0,0,0,.62.23A1.222,1.222,0,0,0,28.55,165.28Z" transform="translate(1 0.01)" fill="#fff"/><path d="M34.22,162.08a1.53521,1.53521,0,0,1,.34,1.06v3.38h-.73v-3.27a1.11448,1.11448,0,0,0-.19-.74.71068.71068,0,0,0-.57-.22,1.08651,1.08651,0,0,0-.68.22,2.19841,2.19841,0,0,0-.54.64v3.36h-.73V161.8h.63l.06.71a1.98881,1.98881,0,0,1,.63-.6,1.57764,1.57764,0,0,1,.81-.21A1.18505,1.18505,0,0,1,34.22,162.08Z" transform="translate(1 0.01)" fill="#fff"/><path d="M38.6,160.35h3.14l-.09.63h-2.3v2.17h1.99v.62H39.35v2.75H38.6Z" transform="translate(1 0.01)" fill="#fff"/><path d="M45.24,161.75l-.13.73a1.41489,1.41489,0,0,0-.4-.05.87842.87842,0,0,0-.7.32,2.33693,2.33693,0,0,0-.42,1.01v2.76h-.73v-4.71h.63l.07.99a1.7851,1.7851,0,0,1,.5-.81,1.06853,1.06853,0,0,1,.74-.28A1.05185,1.05185,0,0,1,45.24,161.75Z" transform="translate(1 0.01)" fill="#fff"/><path d="M49.63,165.88a.59287.59287,0,0,0,.29.21l-.17.53a1.24256,1.24256,0,0,1-.56-.22.918.918,0,0,1-.3-.51,1.54441,1.54441,0,0,1-1.38.73,1.42712,1.42712,0,0,1-1.06-.39,1.38723,1.38723,0,0,1-.39-1.03,1.32815,1.32815,0,0,1,.52-1.14,2.338,2.338,0,0,1,1.47-.4h.75v-.38a.98238.98238,0,0,0-.24-.74,1.0572,1.0572,0,0,0-.74-.23,3.82141,3.82141,0,0,0-1.24.26l-.18-.56a4.38376,4.38376,0,0,1,1.55-.32,1.39143,1.39143,0,0,1,1.58,1.55v2.18A.94817.94817,0,0,0,49.63,165.88Zm-.82-.6v-1.12h-.65c-.87,0-1.31.33-1.31,1a.93407.93407,0,0,0,.21.66.81472.81472,0,0,0,.62.23A1.23187,1.23187,0,0,0,48.81,165.28Z" transform="translate(1 0.01)" fill="#fff"/><path d="M54.48,162.08a1.53521,1.53521,0,0,1,.34,1.06v3.38h-.73v-3.27a1.11448,1.11448,0,0,0-.19-.74.71068.71068,0,0,0-.57-.22,1.08649,1.08649,0,0,0-.68.22,2.19841,2.19841,0,0,0-.54.64v3.36h-.73V161.8h.63l.06.71a1.98881,1.98881,0,0,1,.63-.6,1.57768,1.57768,0,0,1,.81-.21A1.198,1.198,0,0,1,54.48,162.08Z" transform="translate(1 0.01)" fill="#fff"/><path d="M59.05,161.81a2.07978,2.07978,0,0,1,.64.39l-.36.47a1.57781,1.57781,0,0,0-.47-.26,1.45639,1.45639,0,0,0-.52-.09,1.05048,1.05048,0,0,0-.9.47,2.41742,2.41742,0,0,0-.33,1.39,2.31448,2.31448,0,0,0,.32,1.35,1.07884,1.07884,0,0,0,.91.44,1.3638,1.3638,0,0,0,.51-.09,2.352,2.352,0,0,0,.5-.28l.34.49a2.02945,2.02945,0,0,1-1.38.52,1.79978,1.79978,0,0,1-1.46-.65,2.73759,2.73759,0,0,1-.53-1.78,3.37951,3.37951,0,0,1,.24-1.32,1.89429,1.89429,0,0,1,.69-.87,1.791,1.791,0,0,1,1.06-.31A2.38067,2.38067,0,0,1,59.05,161.81Z" transform="translate(1 0.01)" fill="#fff"/><path d="M61.76,159.73a.48967.48967,0,0,1,.14.37.53081.53081,0,0,1-.14.37.5046.5046,0,0,1-.38.15.49752.49752,0,0,1-.37-.15.48971.48971,0,0,1-.14-.37.53078.53078,0,0,1,.14-.37.49745.49745,0,0,1,.37-.15A.5046.5046,0,0,1,61.76,159.73Zm-.01,6.78h-.73V161.8h.73Z" transform="translate(1 0.01)" fill="#fff"/><path d="M65.71,161.83a2.524,2.524,0,0,1,.71.4l-.31.47a2.60116,2.60116,0,0,0-.59-.31,1.71817,1.71817,0,0,0-.6-.1,1.06624,1.06624,0,0,0-.65.18.57016.57016,0,0,0-.24.48.53007.53007,0,0,0,.22.46,2.64527,2.64527,0,0,0,.8.33,2.8834,2.8834,0,0,1,1.14.54,1.16265,1.16265,0,0,1,.37.92,1.22841,1.22841,0,0,1-.51,1.05,2.06642,2.06642,0,0,1-1.26.37,2.48773,2.48773,0,0,1-1.72-.62l.39-.46a2.12627,2.12627,0,0,0,1.31.47,1.203,1.203,0,0,0,.74-.21.64354.64354,0,0,0,.28-.55.73363.73363,0,0,0-.1-.41.742.742,0,0,0-.34-.27,3.829,3.829,0,0,0-.71-.24,2.32916,2.32916,0,0,1-1.05-.52,1.147,1.147,0,0,1-.32-.83,1.10406,1.10406,0,0,1,.21-.66,1.41672,1.41672,0,0,1,.58-.46,2.01755,2.01755,0,0,1,.83-.17A2.39245,2.39245,0,0,1,65.71,161.83Z" transform="translate(1 0.01)" fill="#fff"/><path d="M70.42,161.81a2.07978,2.07978,0,0,1,.64.39l-.36.47a1.57793,1.57793,0,0,0-.47-.26,1.45643,1.45643,0,0,0-.52-.09,1.05045,1.05045,0,0,0-.9.47,2.41742,2.41742,0,0,0-.33,1.39,2.31448,2.31448,0,0,0,.32,1.35,1.07883,1.07883,0,0,0,.91.44,1.3638,1.3638,0,0,0,.51-.09,2.352,2.352,0,0,0,.5-.28l.34.49a2.02945,2.02945,0,0,1-1.38.52,1.79978,1.79978,0,0,1-1.46-.65,2.73759,2.73759,0,0,1-.53-1.78,3.37951,3.37951,0,0,1,.24-1.32,1.89429,1.89429,0,0,1,.69-.87,1.791,1.791,0,0,1,1.06-.31A2.38066,2.38066,0,0,1,70.42,161.81Z" transform="translate(1 0.01)" fill="#fff"/><path d="M75.49,162.35a3.29557,3.29557,0,0,1-.01,3.6,1.99061,1.99061,0,0,1-2.97.01,3.29561,3.29561,0,0,1,.01-3.6,1.99054,1.99054,0,0,1,2.97-.01Zm-2.4.42a2.51936,2.51936,0,0,0-.32,1.4,2.452,2.452,0,0,0,.31,1.38,1.024,1.024,0,0,0,.91.46,1.049,1.049,0,0,0,.92-.47,2.51936,2.51936,0,0,0,.32-1.4,2.45191,2.45191,0,0,0-.31-1.38,1.02393,1.02393,0,0,0-.91-.46A1.04905,1.04905,0,0,0,73.09,162.77Z" transform="translate(1 0.01)" fill="#fff"/><path d="M78.11,165.63a.55774.55774,0,0,1,.16.41,1.54651,1.54651,0,0,1-.15.6l-.57,1.33h-.52l.35-1.45a.51043.51043,0,0,1-.17-.21.67647.67647,0,0,1-.07-.27.55076.55076,0,0,1,.16-.4.5439.5439,0,0,1,.4-.17A.49559.49559,0,0,1,78.11,165.63Z" transform="translate(1 0.01)" fill="#fff"/><path d="M24.17,169.34a2.87833,2.87833,0,0,1,.74.46l-.41.5a2.14544,2.14544,0,0,0-.57-.34,1.73863,1.73863,0,0,0-.61-.11,1.48542,1.48542,0,0,0-1.24.6,3.19622,3.19622,0,0,0-.47,1.94,3.1623,3.1623,0,0,0,.47,1.9,1.49,1.49,0,0,0,1.24.62,1.58743,1.58743,0,0,0,.68-.13,3.30177,3.30177,0,0,0,.61-.38l.37.49a2.29984,2.29984,0,0,1-.71.49,2.3482,2.3482,0,0,1-.98.19,2.23584,2.23584,0,0,1-1.28-.37,2.47845,2.47845,0,0,1-.88-1.09,4.27475,4.27475,0,0,1-.32-1.73,4.10755,4.10755,0,0,1,.33-1.73,2.49671,2.49671,0,0,1,.89-1.09,2.272,2.272,0,0,1,1.26-.37A2.7291,2.7291,0,0,1,24.17,169.34Z" transform="translate(1 0.01)" fill="#fff"/><path d="M29.34,173.89H27l-.47,1.58h-.77l1.94-6.16h.96l1.93,6.16h-.8Zm-.2-.64-.98-3.3-.98,3.3Z" transform="translate(1 0.01)" fill="#fff"/><path d="M36.64,170.02a2.8327,2.8327,0,0,1,.47,1.72,5.08683,5.08683,0,0,1-.32,1.95,2.66821,2.66821,0,0,1-.98,1.19,6.33573,6.33573,0,0,1-1.76.77l-.17-.56a4.3447,4.3447,0,0,0,1.81-.95,2.2865,2.2865,0,0,0,.67-1.6,1.70253,1.70253,0,0,1-.56.54,1.46017,1.46017,0,0,1-.77.21,1.5349,1.5349,0,0,1-.82-.23,1.73631,1.73631,0,0,1-.58-.67,2.30777,2.30777,0,0,1-.21-1.01,2.19886,2.19886,0,0,1,.24-1.05,1.69034,1.69034,0,0,1,.66-.69,1.84122,1.84122,0,0,1,.93-.24A1.63021,1.63021,0,0,1,36.64,170.02Zm-.28,1.88a2.919,2.919,0,0,0-.25-1.46.91018.91018,0,0,0-.84-.45.99286.99286,0,0,0-.82.36,1.61981,1.61981,0,0,0-.29,1.03,1.51475,1.51475,0,0,0,.27.97.909.909,0,0,0,.74.33A1.394,1.394,0,0,0,36.36,171.9Z" transform="translate(1 0.01)" fill="#fff"/><path d="M41.84,172.92a1.46658,1.46658,0,0,1,.31.95,1.5611,1.5611,0,0,1-.25.88,1.61579,1.61579,0,0,1-.71.6,2.44588,2.44588,0,0,1-1.04.22,2.262,2.262,0,0,1-1.03-.22,1.56126,1.56126,0,0,1-.69-.6,1.57855,1.57855,0,0,1-.24-.87,1.49856,1.49856,0,0,1,.3-.95,2.24367,2.24367,0,0,1,.88-.63,1.91558,1.91558,0,0,1-.71-.58,1.45216,1.45216,0,0,1-.23-.81,1.33134,1.33134,0,0,1,.25-.82,1.555,1.555,0,0,1,.64-.52,2.02523,2.02523,0,0,1,.85-.18,2.18584,2.18584,0,0,1,.85.17,1.54541,1.54541,0,0,1,.65.51,1.33127,1.33127,0,0,1,.25.82,1.24,1.24,0,0,1-.24.77,2.30533,2.30533,0,0,1-.76.59A2.413,2.413,0,0,1,41.84,172.92Zm-.79,1.75a.99775.99775,0,0,0,.33-.79,1.18912,1.18912,0,0,0-.12-.56,1.03957,1.03957,0,0,0-.39-.39,3.72667,3.72667,0,0,0-.76-.34l-.23-.08a1.62325,1.62325,0,0,0-.69.55,1.4468,1.4468,0,0,0-.22.83,1.0096,1.0096,0,0,0,.32.79,1.27447,1.27447,0,0,0,.88.28A1.2035,1.2035,0,0,0,41.05,174.67Zm-1.61-4.46a.9344.9344,0,0,0-.27.71.83113.83113,0,0,0,.25.66,2.28211,2.28211,0,0,0,.82.43l.17.06a1.74308,1.74308,0,0,0,.6-.51,1.12983,1.12983,0,0,0,.18-.65.94966.94966,0,0,0-.27-.71,1.051,1.051,0,0,0-.75-.26A1.13809,1.13809,0,0,0,39.44,170.21Z" transform="translate(1 0.01)" fill="#fff"/><path d="M46.69,170.18a5.75044,5.75044,0,0,1,0,4.6,1.68925,1.68925,0,0,1-2.86,0,5.77438,5.77438,0,0,1,0-4.61,1.57526,1.57526,0,0,1,1.43-.78A1.615,1.615,0,0,1,46.69,170.18Zm-2.31.41a4.58565,4.58565,0,0,0-.29,1.89,4.64007,4.64007,0,0,0,.29,1.9.92243.92243,0,0,0,.87.6.94151.94151,0,0,0,.87-.6,6.33635,6.33635,0,0,0,0-3.79.93644.93644,0,0,0-1.74,0Z" transform="translate(1 0.01)" fill="#fff"/><path d="M51.83,170.18a5.75044,5.75044,0,0,1,0,4.6,1.68925,1.68925,0,0,1-2.86,0,5.77438,5.77438,0,0,1,0-4.61,1.57526,1.57526,0,0,1,1.43-.78A1.615,1.615,0,0,1,51.83,170.18Zm-2.31.41a4.58565,4.58565,0,0,0-.29,1.89,4.64007,4.64007,0,0,0,.29,1.9.92243.92243,0,0,0,.87.6.94151.94151,0,0,0,.87-.6,6.33635,6.33635,0,0,0,0-3.79.93644.93644,0,0,0-1.74,0Z" transform="translate(1 0.01)" fill="#fff"/><path d="M55.8,175.47h-.73v-5.18l-1.38.87-.32-.54,1.79-1.14h.65v5.99Z" transform="translate(1 0.01)" fill="#fff"/><path d="M22.76,177.2a11.64769,11.64769,0,0,0-.72,1.24,5.81434,5.81434,0,0,0-.43,1.24,7.65051,7.65051,0,0,0-.16,1.62,6.95552,6.95552,0,0,0,.16,1.61,5.47819,5.47819,0,0,0,.43,1.24,11.64966,11.64966,0,0,0,.72,1.24l-.46.32c-.38-.55-.67-1.01-.88-1.37a5.59058,5.59058,0,0,1-.52-1.3,6.50513,6.50513,0,0,1-.21-1.75,6.60972,6.60972,0,0,1,.21-1.75,5.77559,5.77559,0,0,1,.52-1.3c.21-.36.5-.82.88-1.37Z" transform="translate(1 0.01)" fill="#fff"/><path d="M26.08,178.56a1.43153,1.43153,0,0,1,.59.55,1.51265,1.51265,0,0,1,.2.76,1.32281,1.32281,0,0,1-.31.91,1.494,1.494,0,0,1-.83.47,1.52506,1.52506,0,0,1,.95.43,1.38409,1.38409,0,0,1,.37,1.03,1.85182,1.85182,0,0,1-.24.94,1.63926,1.63926,0,0,1-.68.65,2.29057,2.29057,0,0,1-2.76-.56l.44-.42a2.01868,2.01868,0,0,0,.59.46,1.49162,1.49162,0,0,0,.67.14,1.19229,1.19229,0,0,0,.89-.33,1.17825,1.17825,0,0,0,.32-.88,1.06612,1.06612,0,0,0-.3-.86,1.338,1.338,0,0,0-.88-.25h-.43l.09-.58h.3a1.08162,1.08162,0,0,0,.77-.29,1.03361,1.03361,0,0,0,.31-.81.90374.90374,0,0,0-.27-.69,1.01691,1.01691,0,0,0-.73-.26,1.45034,1.45034,0,0,0-.63.13,2.18043,2.18043,0,0,0-.59.41l-.38-.45a2.321,2.321,0,0,1,1.65-.7A1.74414,1.74414,0,0,1,26.08,178.56Z" transform="translate(1 0.01)" fill="#fff"/><path d="M31.44,179.03h-2.3v1.83a2.02945,2.02945,0,0,1,.95-.24,1.521,1.521,0,0,1,1.2.51,2.01142,2.01142,0,0,1,.45,1.38,2.118,2.118,0,0,1-.25,1.05,1.79739,1.79739,0,0,1-.7.72,2.08415,2.08415,0,0,1-1.04.26,2.19371,2.19371,0,0,1-.94-.19,2.375,2.375,0,0,1-.76-.56l.44-.44a1.85336,1.85336,0,0,0,.58.43,1.6522,1.6522,0,0,0,.68.14,1.14085,1.14085,0,0,0,.9-.38,1.53693,1.53693,0,0,0,.33-1.05,1.36854,1.36854,0,0,0-.3-.98,1.09453,1.09453,0,0,0-.81-.3,1.97152,1.97152,0,0,0-.44.05,2.31169,2.31169,0,0,0-.42.17h-.58v-2.99h3.1Z" transform="translate(1 0.01)" fill="#fff"/><path d="M36.27,179.14a5.75044,5.75044,0,0,1,0,4.6,1.68925,1.68925,0,0,1-2.86,0,5.7744,5.7744,0,0,1,0-4.61,1.695,1.695,0,0,1,2.86.01Zm-2.31.4a4.58569,4.58569,0,0,0-.29,1.89,4.64009,4.64009,0,0,0,.29,1.9.92242.92242,0,0,0,.87.6.9415.9415,0,0,0,.87-.6,6.33638,6.33638,0,0,0,0-3.79.92723.92723,0,0,0-.87-.59A.93688.93688,0,0,0,33.96,179.54Z" transform="translate(1 0.01)" fill="#fff"/><path d="M42.48,179.74a2.524,2.524,0,0,1,.71.4l-.31.47a2.60116,2.60116,0,0,0-.59-.31,1.71841,1.71841,0,0,0-.6-.1,1.06619,1.06619,0,0,0-.65.18.57018.57018,0,0,0-.24.48.53006.53006,0,0,0,.22.46,2.64527,2.64527,0,0,0,.8.33,2.88333,2.88333,0,0,1,1.14.54,1.16265,1.16265,0,0,1,.37.92,1.22842,1.22842,0,0,1-.51,1.05,2.06641,2.06641,0,0,1-1.26.37,2.48772,2.48772,0,0,1-1.72-.62l.39-.46a2.1263,2.1263,0,0,0,1.31.47,1.203,1.203,0,0,0,.74-.21.64356.64356,0,0,0,.28-.55.73363.73363,0,0,0-.1-.41.74189.74189,0,0,0-.34-.27,3.82762,3.82762,0,0,0-.71-.24,2.32926,2.32926,0,0,1-1.05-.52,1.147,1.147,0,0,1-.32-.83,1.10409,1.10409,0,0,1,.21-.66,1.4168,1.4168,0,0,1,.58-.46,2.01758,2.01758,0,0,1,.83-.17A2.39175,2.39175,0,0,1,42.48,179.74Z" transform="translate(1 0.01)" fill="#fff"/><path d="M48.03,180.24a3.392,3.392,0,0,1,.41,1.81,3.14133,3.14133,0,0,1-.46,1.8,1.51291,1.51291,0,0,1-1.32.68,1.46963,1.46963,0,0,1-1.22-.56v2.25l-.73.09v-6.6h.63l.06.65a1.70817,1.70817,0,0,1,.61-.56,1.531,1.531,0,0,1,.75-.2A1.43824,1.43824,0,0,1,48.03,180.24Zm-.38,1.82c0-1.24-.36-1.85-1.08-1.85a1.06671,1.06671,0,0,0-.64.21,1.99908,1.99908,0,0,0-.5.54v2.36a1.26136,1.26136,0,0,0,.45.44,1.2217,1.2217,0,0,0,.6.16Q47.65,183.905,47.65,182.06Z" transform="translate(1 0.01)" fill="#fff"/><path d="M53.22,183.79a.59287.59287,0,0,0,.29.21l-.17.53a1.24256,1.24256,0,0,1-.56-.22.918.918,0,0,1-.3-.51,1.54441,1.54441,0,0,1-1.38.73,1.42716,1.42716,0,0,1-1.06-.39,1.38724,1.38724,0,0,1-.39-1.03,1.32815,1.32815,0,0,1,.52-1.14,2.338,2.338,0,0,1,1.47-.4h.75v-.38a.98238.98238,0,0,0-.24-.74,1.05715,1.05715,0,0,0-.74-.23,3.82141,3.82141,0,0,0-1.24.26l-.18-.56a4.38376,4.38376,0,0,1,1.55-.32,1.39143,1.39143,0,0,1,1.58,1.55v2.18A.948.948,0,0,0,53.22,183.79Zm-.82-.6v-1.12h-.65c-.87,0-1.31.33-1.31,1a.93406.93406,0,0,0,.21.66.81473.81473,0,0,0,.62.23A1.23186,1.23186,0,0,0,52.4,183.19Z" transform="translate(1 0.01)" fill="#fff"/><path d="M57.37,179.72a2.08,2.08,0,0,1,.64.39l-.36.47a1.578,1.578,0,0,0-.47-.26,1.45617,1.45617,0,0,0-.52-.09,1.05047,1.05047,0,0,0-.9.47,2.41742,2.41742,0,0,0-.33,1.39,2.31454,2.31454,0,0,0,.32,1.35,1.07886,1.07886,0,0,0,.91.44,1.3638,1.3638,0,0,0,.51-.09,2.35187,2.35187,0,0,0,.5-.28l.34.49a2.0294,2.0294,0,0,1-1.38.52,1.79978,1.79978,0,0,1-1.46-.65,2.73755,2.73755,0,0,1-.53-1.78,3.37951,3.37951,0,0,1,.24-1.32,1.89434,1.89434,0,0,1,.69-.87,1.791,1.791,0,0,1,1.06-.31A2.381,2.381,0,0,1,57.37,179.72Z" transform="translate(1 0.01)" fill="#fff"/><path d="M62.66,182.33H59.71a2.00724,2.00724,0,0,0,.39,1.2,1.12421,1.12421,0,0,0,.89.39,1.75379,1.75379,0,0,0,.62-.1,2.24871,2.24871,0,0,0,.58-.32l.32.45a2.44266,2.44266,0,0,1-1.58.59,1.79289,1.79289,0,0,1-1.47-.65,2.72692,2.72692,0,0,1-.53-1.77,3.50535,3.50535,0,0,1,.23-1.3,2.06568,2.06568,0,0,1,.65-.89,1.63672,1.63672,0,0,1,1-.32,1.66266,1.66266,0,0,1,1.39.61,2.686,2.686,0,0,1,.48,1.7C62.68,182.06,62.67,182.19,62.66,182.33Zm-.7-.63a1.85887,1.85887,0,0,0-.28-1.11.97435.97435,0,0,0-.84-.39.94458.94458,0,0,0-.79.39,2.20612,2.20612,0,0,0-.34,1.18h2.25Z" transform="translate(1 0.01)" fill="#fff"/><path d="M65.97,179.74a2.524,2.524,0,0,1,.71.4l-.31.47a2.60132,2.60132,0,0,0-.59-.31,1.71845,1.71845,0,0,0-.6-.1,1.06619,1.06619,0,0,0-.65.18.57016.57016,0,0,0-.24.48.53006.53006,0,0,0,.22.46,2.64527,2.64527,0,0,0,.8.33,2.88326,2.88326,0,0,1,1.14.54,1.16265,1.16265,0,0,1,.37.92,1.2284,1.2284,0,0,1-.51,1.05,2.06639,2.06639,0,0,1-1.26.37,2.48772,2.48772,0,0,1-1.72-.62l.39-.46a2.1263,2.1263,0,0,0,1.31.47,1.203,1.203,0,0,0,.74-.21.64353.64353,0,0,0,.28-.55.73363.73363,0,0,0-.1-.41.74185.74185,0,0,0-.34-.27,3.82788,3.82788,0,0,0-.71-.24,2.32926,2.32926,0,0,1-1.05-.52,1.147,1.147,0,0,1-.32-.83,1.10409,1.10409,0,0,1,.21-.66,1.4168,1.4168,0,0,1,.58-.46,2.01755,2.01755,0,0,1,.83-.17A2.39173,2.39173,0,0,1,65.97,179.74Z" transform="translate(1 0.01)" fill="#fff"/><path d="M68.77,178.24a5.5905,5.5905,0,0,1,.52,1.3,6.50513,6.50513,0,0,1,.21,1.75,6.60972,6.60972,0,0,1-.21,1.75,5.77559,5.77559,0,0,1-.52,1.3c-.21.36-.5.82-.88,1.37l-.46-.32a11.64872,11.64872,0,0,0,.72-1.24,6.01446,6.01446,0,0,0,.43-1.24,7.62088,7.62088,0,0,0,.16-1.61,7.16641,7.16641,0,0,0-.16-1.62,5.31161,5.31161,0,0,0-.43-1.24,12.73135,12.73135,0,0,0-.72-1.24l.46-.32C68.27,177.42,68.56,177.88,68.77,178.24Z" transform="translate(1 0.01)" fill="#fff"/><path d="M106.59,152.05a3.61928,3.61928,0,0,1,.72,2.4,4.26945,4.26945,0,0,1-.33,1.75,2.4822,2.4822,0,0,1-.94,1.12,2.9278,2.9278,0,0,1-2.92,0,2.50829,2.50829,0,0,1-.94-1.11,4.805,4.805,0,0,1,0-3.5,2.48214,2.48214,0,0,1,.94-1.12,2.65275,2.65275,0,0,1,1.46-.39A2.481,2.481,0,0,1,106.59,152.05Zm-2.92.74a3.44891,3.44891,0,0,0-.3,1.66,3.38548,3.38548,0,0,0,.31,1.67.98394.98394,0,0,0,.91.52,1.00385,1.00385,0,0,0,.93-.51,4.79814,4.79814,0,0,0,0-3.34.99869.99869,0,0,0-.92-.51A.9761.9761,0,0,0,103.67,152.79Z" transform="translate(1 0.01)" fill="#fff"/><path d="M112.46,153.31a3.44294,3.44294,0,0,1,.43,1.85,3.56341,3.56341,0,0,1-.22,1.31,1.96856,1.96856,0,0,1-.64.9,1.52724,1.52724,0,0,1-.98.33,1.40007,1.40007,0,0,1-1.12-.49v2.18l-1.38.15V152.8h1.21l.07.53a1.7477,1.7477,0,0,1,.62-.51,1.6455,1.6455,0,0,1,.71-.17A1.43919,1.43919,0,0,1,112.46,153.31Zm-1,1.87a2.6662,2.6662,0,0,0-.18-1.17.58457.58457,0,0,0-.55-.33.79109.79109,0,0,0-.44.14,1.21093,1.21093,0,0,0-.36.41v2.01a.83.83,0,0,0,.71.42C111.18,156.67,111.46,156.18,111.46,155.18Z" transform="translate(1 0.01)" fill="#fff"/><path d="M118.15,155.6h-2.87a1.37,1.37,0,0,0,.33.84,1.02669,1.02669,0,0,0,.72.24,1.4005,1.4005,0,0,0,.54-.1,2.82776,2.82776,0,0,0,.57-.32l.57.79a2.78083,2.78083,0,0,1-1.8.66,2.1786,2.1786,0,0,1-1.72-.68,2.655,2.655,0,0,1-.6-1.83,3.17424,3.17424,0,0,1,.25-1.3,2.09134,2.09134,0,0,1,.74-.91,2.04253,2.04253,0,0,1,1.17-.34,1.97889,1.97889,0,0,1,1.57.64,2.61668,2.61668,0,0,1,.57,1.79C118.18,155.28,118.17,155.45,118.15,155.6Zm-1.32-.92c-.01-.73-.26-1.09-.75-1.09a.63479.63479,0,0,0-.55.27,1.76251,1.76251,0,0,0-.24.89h1.54Z" transform="translate(1 0.01)" fill="#fff"/><path d="M122.99,153.03a1.50156,1.50156,0,0,1,.34,1.06v3.47h-1.38v-3.23a.87892.87892,0,0,0-.11-.5.39467.39467,0,0,0-.33-.14c-.28,0-.55.21-.8.62v3.25h-1.38v-4.75h1.2l.1.56a2.12032,2.12032,0,0,1,.64-.54,1.64893,1.64893,0,0,1,.77-.18A1.22008,1.22008,0,0,1,122.99,153.03Z" transform="translate(1 0.01)" fill="#fff"/><path d="M125.98,150.52a.84629.84629,0,0,1,0,1.16.80662.80662,0,0,1-.59.23.78337.78337,0,0,1-.58-.23.81012.81012,0,0,1,.58-1.39A.84876.84876,0,0,1,125.98,150.52Zm.11,7.04h-1.38v-4.75h1.38Z" transform="translate(1 0.01)" fill="#fff"/><path d="M131.15,153.03a1.50157,1.50157,0,0,1,.34,1.06v3.47h-1.38v-3.23a.87883.87883,0,0,0-.11-.5.39465.39465,0,0,0-.33-.14c-.28,0-.55.21-.8.62v3.25h-1.38v-4.75h1.2l.1.56a2.12044,2.12044,0,0,1,.64-.54,1.649,1.649,0,0,1,.77-.18A1.22,1.22,0,0,1,131.15,153.03Z" transform="translate(1 0.01)" fill="#fff"/><path d="M137.14,153.08a3.53321,3.53321,0,0,1-1.33.19,1.572,1.572,0,0,1,.66.48,1.2234,1.2234,0,0,1,.21.74,1.5349,1.5349,0,0,1-.23.82,1.60476,1.60476,0,0,1-.68.57,2.36749,2.36749,0,0,1-1.03.21,2.97993,2.97993,0,0,1-.53-.05.23458.23458,0,0,0-.11.11.29349.29349,0,0,0-.04.16.23931.23931,0,0,0,.1.21.74183.74183,0,0,0,.41.08h.7a2.23637,2.23637,0,0,1,.93.18,1.46066,1.46066,0,0,1,.62.49,1.17368,1.17368,0,0,1,.22.71,1.32663,1.32663,0,0,1-.62,1.16,3.21479,3.21479,0,0,1-1.8.42,3.942,3.942,0,0,1-1.33-.18,1.2974,1.2974,0,0,1-.69-.51,1.61869,1.61869,0,0,1-.19-.83h1.24a.65678.65678,0,0,0,.08.34.4899.4899,0,0,0,.3.19,2.46007,2.46007,0,0,0,.63.06,1.5554,1.5554,0,0,0,.78-.14.46108.46108,0,0,0,.22-.4.38418.38418,0,0,0-.17-.34.85348.85348,0,0,0-.5-.13h-.67a1.83329,1.83329,0,0,1-1.07-.26.82577.82577,0,0,1-.35-.68.99848.99848,0,0,1,.15-.51,1.30189,1.30189,0,0,1,.4-.41,1.60582,1.60582,0,0,1-.63-.57,1.51849,1.51849,0,0,1-.2-.79,1.59577,1.59577,0,0,1,.56-1.27,2.21575,2.21575,0,0,1,1.47-.47,3.74357,3.74357,0,0,0,1.18-.14,5.92633,5.92633,0,0,0,1-.47Zm-2.98.71a.812.812,0,0,0-.19.58.84828.84828,0,0,0,.19.6.73642.73642,0,0,0,1.03,0,.91786.91786,0,0,0,.18-.62c0-.51-.23-.77-.7-.77A.64909.64909,0,0,0,134.16,153.79Z" transform="translate(1 0.01)" fill="#fff"/><path d="M143.74,153.03a1.50161,1.50161,0,0,1,.34,1.06v3.47H142.7v-3.23a.87892.87892,0,0,0-.11-.5.40129.40129,0,0,0-.32-.14c-.28,0-.55.2-.8.61v3.26h-1.38v-6.64l1.38-.14v2.54a2.00786,2.00786,0,0,1,.61-.5,1.59085,1.59085,0,0,1,.72-.17A1.21276,1.21276,0,0,1,143.74,153.03Z" transform="translate(1 0.01)" fill="#fff"/><path d="M149.16,153.32a2.711,2.711,0,0,1,.6,1.87,3.06563,3.06563,0,0,1-.27,1.33,2.02593,2.02593,0,0,1-.78.88,2.24651,2.24651,0,0,1-1.21.31,2.11247,2.11247,0,0,1-1.66-.67,2.697,2.697,0,0,1-.61-1.87,3.06555,3.06555,0,0,1,.27-1.33,2.02572,2.02572,0,0,1,.78-.88,2.24649,2.24649,0,0,1,1.21-.31A2.11988,2.11988,0,0,1,149.16,153.32Zm-2.29.73a2.31617,2.31617,0,0,0-.21,1.12,2.49781,2.49781,0,0,0,.2,1.14.73126.73126,0,0,0,1.26,0,2.3163,2.3163,0,0,0,.21-1.12,2.49781,2.49781,0,0,0-.2-1.14.73125.73125,0,0,0-1.26,0Z" transform="translate(1 0.01)" fill="#fff"/><path d="M154.86,157.56h-1.19l-.06-.6a1.60942,1.60942,0,0,1-1.4.75,1.18725,1.18725,0,0,1-.96-.39,1.66033,1.66033,0,0,1-.33-1.1v-3.41h1.38v3.23a.84142.84142,0,0,0,.11.49.40222.40222,0,0,0,.34.14.90116.90116,0,0,0,.75-.56v-3.3h1.38v4.75Z" transform="translate(1 0.01)" fill="#fff"/><path d="M159.25,152.73l-.22,1.37a1.90956,1.90956,0,0,0-.42-.06.729.729,0,0,0-.62.29,2.49464,2.49464,0,0,0-.34.87v2.36h-1.38v-4.75h1.2l.11.92a1.60385,1.60385,0,0,1,.47-.77,1.03764,1.03764,0,0,1,.72-.28A1.44748,1.44748,0,0,1,159.25,152.73Z" transform="translate(1 0.01)" fill="#fff"/><path d="M162.77,152.8a2.3214,2.3214,0,0,1,.77.43l-.5.8a2.05381,2.05381,0,0,0-1.14-.37.75552.75552,0,0,0-.41.09.281.281,0,0,0-.14.26.32322.32322,0,0,0,.07.22.64143.64143,0,0,0,.26.17,4.75876,4.75876,0,0,0,.62.21,2.59887,2.59887,0,0,1,1.08.56,1.29174,1.29174,0,0,1,.35.95,1.36129,1.36129,0,0,1-.27.84,1.64282,1.64282,0,0,1-.74.54,2.6921,2.6921,0,0,1-1.05.19,2.91955,2.91955,0,0,1-1.08-.19,2.58859,2.58859,0,0,1-.85-.52l.67-.77a1.9559,1.9559,0,0,0,1.23.47.86609.86609,0,0,0,.49-.12.37641.37641,0,0,0,.18-.33.45257.45257,0,0,0-.07-.27.57741.57741,0,0,0-.27-.18,4.75347,4.75347,0,0,0-.64-.21,2.33881,2.33881,0,0,1-1.03-.57,1.35052,1.35052,0,0,1-.11-1.65,1.52183,1.52183,0,0,1,.66-.52,2.41149,2.41149,0,0,1,1-.19A3.117,3.117,0,0,1,162.77,152.8Z" transform="translate(1 0.01)" fill="#fff"/><path d="M165.89,153.23a.83371.83371,0,0,1,0,1.15.76166.76166,0,0,1-1.11,0,.83371.83371,0,0,1,0-1.15.76166.76166,0,0,1,1.11,0Zm0,3.1a.83372.83372,0,0,1,0,1.15.76166.76166,0,0,1-1.11,0,.83372.83372,0,0,1,0-1.15.76168.76168,0,0,1,1.11,0Z" transform="translate(1 0.01)" fill="#fff"/><path d="M104.94,160.42a2.82094,2.82094,0,0,1,.81.53l-.41.47a2.88058,2.88058,0,0,0-.67-.41,1.83119,1.83119,0,0,0-.71-.13,1.29933,1.29933,0,0,0-.81.24.79283.79283,0,0,0-.31.68.93329.93329,0,0,0,.11.47.86761.86761,0,0,0,.4.34,5.90612,5.90612,0,0,0,.83.33,5.03289,5.03289,0,0,1,.94.39,1.70029,1.70029,0,0,1,.6.56,1.66843,1.66843,0,0,1,.22.9,1.86851,1.86851,0,0,1-.25.95,1.69548,1.69548,0,0,1-.73.64,2.6028,2.6028,0,0,1-1.12.23,2.72038,2.72038,0,0,1-2.01-.79l.42-.48a2.62159,2.62159,0,0,0,.74.47,2.25851,2.25851,0,0,0,.85.16,1.47923,1.47923,0,0,0,.95-.3,1.02514,1.02514,0,0,0,.38-.85,1.13318,1.13318,0,0,0-.12-.54,1.05235,1.05235,0,0,0-.4-.38,4.24169,4.24169,0,0,0-.81-.32,3.32479,3.32479,0,0,1-1.34-.69,1.431,1.431,0,0,1-.42-1.08,1.45981,1.45981,0,0,1,.24-.82,1.57606,1.57606,0,0,1,.66-.56,2.2558,2.2558,0,0,1,.96-.2A2.741,2.741,0,0,1,104.94,160.42Z" transform="translate(1 0.01)" fill="#fab800"/><path d="M110.74,166.51h-.63l-.06-.76a1.83083,1.83083,0,0,1-.61.65,1.57842,1.57842,0,0,1-.83.22,1.22015,1.22015,0,0,1-.95-.38,1.57739,1.57739,0,0,1-.34-1.07v-3.38h.73v3.3a1.1734,1.1734,0,0,0,.17.71.72036.72036,0,0,0,.58.21,1.39023,1.39023,0,0,0,1.19-.84v-3.38h.73v4.72Z" transform="translate(1 0.01)" fill="#fab800"/><path d="M115.66,162.08a1.53516,1.53516,0,0,1,.34,1.06v3.38h-.73v-3.27a1.11442,1.11442,0,0,0-.19-.74.71067.71067,0,0,0-.57-.22,1.08649,1.08649,0,0,0-.68.22,2.19856,2.19856,0,0,0-.54.64v3.36h-.73V161.8h.63l.06.71a1.98892,1.98892,0,0,1,.63-.6,1.57764,1.57764,0,0,1,.81-.21A1.19805,1.19805,0,0,1,115.66,162.08Z" transform="translate(1 0.01)" fill="#fab800"/><path d="M117.55,163.39h2.43v.65h-2.43Z" transform="translate(1 0.01)" fill="#fab800"/><path d="M123.82,160.42a2.82107,2.82107,0,0,1,.81.53l-.41.47a2.88032,2.88032,0,0,0-.67-.41,1.83122,1.83122,0,0,0-.71-.13,1.29931,1.29931,0,0,0-.81.24.79283.79283,0,0,0-.31.68.93329.93329,0,0,0,.11.47.86763.86763,0,0,0,.4.34,5.90633,5.90633,0,0,0,.83.33,5.03318,5.03318,0,0,1,.94.39,1.70038,1.70038,0,0,1,.6.56,1.66843,1.66843,0,0,1,.22.9,1.86851,1.86851,0,0,1-.25.95,1.6955,1.6955,0,0,1-.73.64,2.60275,2.60275,0,0,1-1.12.23,2.72036,2.72036,0,0,1-2.01-.79l.42-.48a2.62159,2.62159,0,0,0,.74.47,2.25846,2.25846,0,0,0,.85.16,1.47924,1.47924,0,0,0,.95-.3,1.02514,1.02514,0,0,0,.38-.85,1.13318,1.13318,0,0,0-.12-.54,1.05239,1.05239,0,0,0-.4-.38,4.24155,4.24155,0,0,0-.81-.32,3.32472,3.32472,0,0,1-1.34-.69,1.431,1.431,0,0,1-.42-1.08,1.45973,1.45973,0,0,1,.24-.82,1.576,1.576,0,0,1,.66-.56,2.25588,2.25588,0,0,1,.96-.2A2.741,2.741,0,0,1,123.82,160.42Z" transform="translate(1 0.01)" fill="#fab800"/><path d="M129.53,165.88a.59289.59289,0,0,0,.29.21l-.17.53a1.24252,1.24252,0,0,1-.56-.22.918.918,0,0,1-.3-.51,1.54439,1.54439,0,0,1-1.38.73,1.4271,1.4271,0,0,1-1.06-.39,1.38723,1.38723,0,0,1-.39-1.03,1.32815,1.32815,0,0,1,.52-1.14,2.338,2.338,0,0,1,1.47-.4h.75v-.38a.98234.98234,0,0,0-.24-.74,1.0572,1.0572,0,0,0-.74-.23,3.82135,3.82135,0,0,0-1.24.26l-.18-.56a4.38376,4.38376,0,0,1,1.55-.32,1.39144,1.39144,0,0,1,1.58,1.55v2.18A.764.764,0,0,0,129.53,165.88Zm-.83-.6v-1.12h-.65c-.87,0-1.31.33-1.31,1a.93412.93412,0,0,0,.21.66.81473.81473,0,0,0,.62.23A1.22193,1.22193,0,0,0,128.7,165.28Z" transform="translate(1 0.01)" fill="#fab800"/><path d="M133.62,166.31a1.7228,1.7228,0,0,1-1.01.31,1.14622,1.14622,0,0,1-.89-.34,1.39231,1.39231,0,0,1-.32-.98v-2.92h-.79v-.58h.79v-1.08l.73-.08v1.16h1.11l-.08.58h-1.03v2.88a.90636.90636,0,0,0,.14.55.51384.51384,0,0,0,.44.17,1.28592,1.28592,0,0,0,.64-.2Z" transform="translate(1 0.01)" fill="#fab800"/><path d="M135.52,162.29a.6053.6053,0,0,1,0,.82.55017.55017,0,0,1-.41.17.54389.54389,0,0,1-.4-.17.55772.55772,0,0,1-.16-.41.55075.55075,0,0,1,.16-.4.54391.54391,0,0,1,.4-.17A.50813.50813,0,0,1,135.52,162.29Zm0,3.34a.6053.6053,0,0,1,0,.82.55017.55017,0,0,1-.41.17.54389.54389,0,0,1-.4-.17.55772.55772,0,0,1-.16-.41.55077.55077,0,0,1,.16-.4.5439.5439,0,0,1,.4-.17A.50809.50809,0,0,1,135.52,165.63Z" transform="translate(1 0.01)" fill="#fab800"/><path d="M141.8,161.09l-2.2,5.5-.67-.22,2.14-5.22h-2.61v-.62h3.35v.56Z" transform="translate(1 0.01)" fill="#fab800"/><path d="M146.15,165.88a.59292.59292,0,0,0,.29.21l-.17.53a1.24252,1.24252,0,0,1-.56-.22.918.918,0,0,1-.3-.51,1.54443,1.54443,0,0,1-1.38.73,1.4271,1.4271,0,0,1-1.06-.39,1.38723,1.38723,0,0,1-.39-1.03,1.32812,1.32812,0,0,1,.52-1.14,2.338,2.338,0,0,1,1.47-.4h.75v-.38a.98238.98238,0,0,0-.24-.74,1.0572,1.0572,0,0,0-.74-.23,3.82141,3.82141,0,0,0-1.24.26l-.18-.56a4.38386,4.38386,0,0,1,1.55-.32,1.39145,1.39145,0,0,1,1.58,1.55v2.18A.94831.94831,0,0,0,146.15,165.88Zm-.82-.6v-1.12h-.65c-.87,0-1.31.33-1.31,1a.93408.93408,0,0,0,.21.66.81471.81471,0,0,0,.62.23A1.242,1.242,0,0,0,145.33,165.28Z" transform="translate(1 0.01)" fill="#fab800"/><path d="M153.36,162.08a1.57245,1.57245,0,0,1,.33,1.05v3.38h-.73v-3.27c0-.64-.22-.96-.67-.96a.92272.92272,0,0,0-.61.21,2.67237,2.67237,0,0,0-.52.65v3.36h-.73v-3.27c0-.64-.22-.96-.67-.96a.96118.96118,0,0,0-.61.21,2.67256,2.67256,0,0,0-.52.65v3.36h-.73v-4.71h.63l.06.71a1.58353,1.58353,0,0,1,1.34-.81,1.178,1.178,0,0,1,.73.23,1.20535,1.20535,0,0,1,.42.64,1.60664,1.60664,0,0,1,1.38-.88A1.19727,1.19727,0,0,1,153.36,162.08Z" transform="translate(1 0.01)" fill="#fab800"/><path d="M155.26,163.39h2.43v.65h-2.43Z" transform="translate(1 0.01)" fill="#fab800"/><path d="M162.49,163.97a1.4666,1.4666,0,0,1,.31.95,1.5611,1.5611,0,0,1-.25.88,1.61567,1.61567,0,0,1-.71.6,2.44591,2.44591,0,0,1-1.04.22,2.262,2.262,0,0,1-1.03-.22,1.56132,1.56132,0,0,1-.69-.6,1.57854,1.57854,0,0,1-.24-.87,1.49859,1.49859,0,0,1,.3-.95,2.24356,2.24356,0,0,1,.88-.63,1.9156,1.9156,0,0,1-.71-.58,1.45215,1.45215,0,0,1-.23-.81,1.33129,1.33129,0,0,1,.25-.82,1.555,1.555,0,0,1,.64-.52,2.0254,2.0254,0,0,1,.85-.18,2.18587,2.18587,0,0,1,.85.17,1.54535,1.54535,0,0,1,.65.51,1.33124,1.33124,0,0,1,.25.82,1.24,1.24,0,0,1-.24.77,2.3055,2.3055,0,0,1-.76.59A2.58166,2.58166,0,0,1,162.49,163.97Zm-.79,1.75a.99774.99774,0,0,0,.33-.79,1.189,1.189,0,0,0-.12-.56,1.03964,1.03964,0,0,0-.39-.39,3.72684,3.72684,0,0,0-.76-.34l-.23-.08a1.62341,1.62341,0,0,0-.69.55,1.4468,1.4468,0,0,0-.22.83,1.00954,1.00954,0,0,0,.32.79,1.27444,1.27444,0,0,0,.88.28A1.31391,1.31391,0,0,0,161.7,165.72Zm-1.62-4.46a.93448.93448,0,0,0-.27.71.83111.83111,0,0,0,.25.66,2.282,2.282,0,0,0,.82.43l.17.06a1.74338,1.74338,0,0,0,.6-.51,1.1299,1.1299,0,0,0,.18-.65.94961.94961,0,0,0-.27-.71,1.051,1.051,0,0,0-.75-.26A1.08634,1.08634,0,0,0,160.08,161.26Z" transform="translate(1 0.01)" fill="#fab800"/><path d="M167.61,162.33a3.392,3.392,0,0,1,.41,1.81,3.1412,3.1412,0,0,1-.46,1.8,1.5129,1.5129,0,0,1-1.32.68,1.46967,1.46967,0,0,1-1.22-.56v2.25l-.73.09v-6.6h.63l.06.65a1.70809,1.70809,0,0,1,.61-.56,1.5311,1.5311,0,0,1,.75-.2A1.41539,1.41539,0,0,1,167.61,162.33Zm-.37,1.82c0-1.24-.36-1.85-1.08-1.85a1.06681,1.06681,0,0,0-.64.21,1.999,1.999,0,0,0-.5.54v2.36a1.26152,1.26152,0,0,0,.45.44,1.2217,1.2217,0,0,0,.6.16Q167.24,165.995,167.24,164.15Z" transform="translate(1 0.01)" fill="#fab800"/><path d="M175.09,162.08a1.57245,1.57245,0,0,1,.33,1.05v3.38h-.73v-3.27c0-.64-.22-.96-.67-.96a.92274.92274,0,0,0-.61.21,2.6726,2.6726,0,0,0-.52.65v3.36h-.73v-3.27c0-.64-.22-.96-.67-.96a.96121.96121,0,0,0-.61.21,2.67279,2.67279,0,0,0-.52.65v3.36h-.73v-4.71h.63l.06.71a1.58351,1.58351,0,0,1,1.34-.81,1.178,1.178,0,0,1,.73.23,1.20535,1.20535,0,0,1,.42.64,1.60662,1.60662,0,0,1,1.38-.88A1.19726,1.19726,0,0,1,175.09,162.08Z" transform="translate(1 0.01)" fill="#fab800"/><path d="M105.62,178.23a2.7019,2.7019,0,0,1,.83.51l-.68.83a2.33746,2.33746,0,0,0-.53-.32,1.47124,1.47124,0,0,0-.56-.11,1.09257,1.09257,0,0,0-.96.53,3.03635,3.03635,0,0,0-.35,1.63,2.98169,2.98169,0,0,0,.35,1.61,1.10489,1.10489,0,0,0,.98.52,1.32,1.32,0,0,0,.6-.13,3.67078,3.67078,0,0,0,.58-.37l.64.84a2.861,2.861,0,0,1-.82.57,2.4989,2.4989,0,0,1-1.07.22,2.78542,2.78542,0,0,1-1.46-.38,2.50141,2.50141,0,0,1-.96-1.11,4.1573,4.1573,0,0,1-.34-1.78,4.10712,4.10712,0,0,1,.35-1.75,2.54041,2.54041,0,0,1,.98-1.11,2.71772,2.71772,0,0,1,1.42-.38A3.122,3.122,0,0,1,105.62,178.23Z" transform="translate(1 0.01)" fill="#fff"/><path d="M111.1,180.18a2.71106,2.71106,0,0,1,.6,1.87,3.06569,3.06569,0,0,1-.27,1.33,2.02578,2.02578,0,0,1-.78.88,2.24645,2.24645,0,0,1-1.21.31,2.11247,2.11247,0,0,1-1.66-.67,2.697,2.697,0,0,1-.61-1.87,3.06563,3.06563,0,0,1,.27-1.33,2.02593,2.02593,0,0,1,.78-.88,2.24657,2.24657,0,0,1,1.21-.31A2.13922,2.13922,0,0,1,111.1,180.18Zm-2.29.74a2.31611,2.31611,0,0,0-.21,1.12,2.49762,2.49762,0,0,0,.2,1.14.73124.73124,0,0,0,1.26,0,2.31611,2.31611,0,0,0,.21-1.12,2.49762,2.49762,0,0,0-.2-1.14.68374.68374,0,0,0-.63-.36A.64982.64982,0,0,0,108.81,180.92Z" transform="translate(1 0.01)" fill="#fff"/><path d="M115.43,179.67a2.32115,2.32115,0,0,1,.77.43l-.5.8a2.05379,2.05379,0,0,0-1.14-.37.75558.75558,0,0,0-.41.09.281.281,0,0,0-.14.26.32319.32319,0,0,0,.07.22.64141.64141,0,0,0,.26.17,4.75948,4.75948,0,0,0,.62.21,2.599,2.599,0,0,1,1.08.56,1.29176,1.29176,0,0,1,.35.95,1.3613,1.3613,0,0,1-.27.84,1.643,1.643,0,0,1-.74.54,2.69225,2.69225,0,0,1-1.05.19,3.01066,3.01066,0,0,1-1.09-.19,2.5885,2.5885,0,0,1-.85-.52l.67-.77a1.95582,1.95582,0,0,0,1.23.47.86605.86605,0,0,0,.49-.12.37643.37643,0,0,0,.18-.33.45267.45267,0,0,0-.07-.27.57751.57751,0,0,0-.27-.18,4.75122,4.75122,0,0,0-.64-.21,2.33876,2.33876,0,0,1-1.03-.57,1.35048,1.35048,0,0,1-.11-1.65,1.52188,1.52188,0,0,1,.66-.52,2.41175,2.41175,0,0,1,1-.19A2.83818,2.83818,0,0,1,115.43,179.67Z" transform="translate(1 0.01)" fill="#fff"/><path d="M120.45,184.2a2.14571,2.14571,0,0,1-.59.28,2.22214,2.22214,0,0,1-.67.1c-1.01-.01-1.52-.58-1.52-1.72v-2.2h-.65v-.99h.65v-1.03l1.38-.16v1.19h1.06l-.15.99h-.91v2.18a.79991.79991,0,0,0,.1.47.36892.36892,0,0,0,.33.14,1.02123,1.02123,0,0,0,.5-.15Z" transform="translate(1 0.01)" fill="#fff"/><path d="M124.08,179.67a2.32115,2.32115,0,0,1,.77.43l-.5.8a2.05377,2.05377,0,0,0-1.14-.37.75552.75552,0,0,0-.41.09.281.281,0,0,0-.14.26.32314.32314,0,0,0,.07.22.64128.64128,0,0,0,.26.17,4.76,4.76,0,0,0,.62.21,2.599,2.599,0,0,1,1.08.56,1.29172,1.29172,0,0,1,.35.95,1.3613,1.3613,0,0,1-.27.84,1.643,1.643,0,0,1-.74.54,2.69234,2.69234,0,0,1-1.05.19,2.91975,2.91975,0,0,1-1.08-.19,2.58871,2.58871,0,0,1-.85-.52l.67-.77a1.95584,1.95584,0,0,0,1.23.47.866.866,0,0,0,.49-.12.37639.37639,0,0,0,.18-.33.4526.4526,0,0,0-.07-.27.57747.57747,0,0,0-.27-.18,4.75122,4.75122,0,0,0-.64-.21,2.33871,2.33871,0,0,1-1.03-.57,1.35044,1.35044,0,0,1-.11-1.65,1.52188,1.52188,0,0,1,.66-.52,2.41172,2.41172,0,0,1,1-.19A2.87162,2.87162,0,0,1,124.08,179.67Z" transform="translate(1 0.01)" fill="#fff"/><path d="M127.2,180.09a.83372.83372,0,0,1,0,1.15.76168.76168,0,0,1-1.11,0,.8337.8337,0,0,1,0-1.15.76166.76166,0,0,1,1.11,0Zm0,3.1a.83372.83372,0,0,1,0,1.15.76166.76166,0,0,1-1.11,0,.8337.8337,0,0,1,0-1.15.76168.76168,0,0,1,1.11,0Z" transform="translate(1 0.01)" fill="#fff"/><path d="M105.71,187.68a1.69262,1.69262,0,0,1,.6,1.42,1.77018,1.77018,0,0,1-.63,1.49,2.63248,2.63248,0,0,1-1.67.49h-.78v2.29h-.75v-6.16h1.53A2.72864,2.72864,0,0,1,105.71,187.68Zm-.59,2.49a1.24883,1.24883,0,0,0,.39-1.05,1.19761,1.19761,0,0,0-.39-.99,1.80033,1.80033,0,0,0-1.12-.3h-.78v2.64h.76A1.8448,1.8448,0,0,0,105.12,190.17Z" transform="translate(1 0.01)" fill="#fab800"/><path d="M111.09,191.28h-2.95a2.00727,2.00727,0,0,0,.39,1.2,1.12421,1.12421,0,0,0,.89.39,1.75379,1.75379,0,0,0,.62-.1,2.24871,2.24871,0,0,0,.58-.32l.32.45a2.44265,2.44265,0,0,1-1.58.59,1.79291,1.79291,0,0,1-1.47-.65,2.72692,2.72692,0,0,1-.53-1.77,3.50544,3.50544,0,0,1,.23-1.3,2.066,2.066,0,0,1,.65-.89,1.63675,1.63675,0,0,1,1-.32,1.66262,1.66262,0,0,1,1.39.61,2.686,2.686,0,0,1,.48,1.7C111.1,191.01,111.1,191.15,111.09,191.28Zm-.71-.63a1.85891,1.85891,0,0,0-.28-1.11.97438.97438,0,0,0-.84-.39.94462.94462,0,0,0-.79.39,2.20619,2.20619,0,0,0-.34,1.18h2.25Z" transform="translate(1 0.01)" fill="#fab800"/><path d="M115.01,188.61l-.13.73a1.4148,1.4148,0,0,0-.4-.05.8784.8784,0,0,0-.7.32,2.33692,2.33692,0,0,0-.42,1.01v2.76h-.73v-4.71h.63l.07.99a1.7851,1.7851,0,0,1,.5-.81,1.06853,1.06853,0,0,1,.74-.28A1.53443,1.53443,0,0,1,115.01,188.61Z" transform="translate(1 0.01)" fill="#fab800"/><path d="M121.69,190.46h-2.61v2.92h-.75v-6.16h.75v2.6h2.61v-2.6h.76v6.16h-.76Z" transform="translate(1 0.01)" fill="#fab800"/><path d="M127.55,189.22a3.29559,3.29559,0,0,1-.01,3.6,1.99059,1.99059,0,0,1-2.97.01,3.29557,3.29557,0,0,1,.01-3.6,1.99055,1.99055,0,0,1,2.97-.01Zm-2.41.41a2.51936,2.51936,0,0,0-.32,1.4,2.45191,2.45191,0,0,0,.31,1.38,1.02393,1.02393,0,0,0,.91.46,1.049,1.049,0,0,0,.92-.47,2.51934,2.51934,0,0,0,.32-1.4,2.45193,2.45193,0,0,0-.31-1.38,1.02393,1.02393,0,0,0-.91-.46A1.072,1.072,0,0,0,125.14,189.63Z" transform="translate(1 0.01)" fill="#fab800"/><path d="M133.01,193.38h-.63l-.06-.76a1.83092,1.83092,0,0,1-.61.65,1.57837,1.57837,0,0,1-.83.22,1.22015,1.22015,0,0,1-.95-.38,1.57739,1.57739,0,0,1-.34-1.07v-3.38h.73v3.3a1.1734,1.1734,0,0,0,.17.71.72036.72036,0,0,0,.58.21,1.39023,1.39023,0,0,0,1.19-.84v-3.38h.73v4.72Z" transform="translate(1 0.01)" fill="#fab800"/><path d="M137.21,188.61l-.13.73a1.41487,1.41487,0,0,0-.4-.05.8784.8784,0,0,0-.7.32,2.33692,2.33692,0,0,0-.42,1.01v2.76h-.73v-4.71h.63l.07.99a1.78493,1.78493,0,0,1,.5-.81,1.06857,1.06857,0,0,1,.74-.28A1.46641,1.46641,0,0,1,137.21,188.61Z" transform="translate(1 0.01)" fill="#fab800"/><path d="M139.12,189.15a.60533.60533,0,0,1,0,.82.55021.55021,0,0,1-.41.17.54389.54389,0,0,1-.4-.17.55772.55772,0,0,1-.16-.41.55075.55075,0,0,1,.16-.4.57952.57952,0,0,1,.81-.01Zm0,3.34a.60531.60531,0,0,1,0,.82.55021.55021,0,0,1-.41.17.54389.54389,0,0,1-.4-.17.55772.55772,0,0,1-.16-.41.55075.55075,0,0,1,.16-.4.57949.57949,0,0,1,.81-.01Z" transform="translate(1 0.01)" fill="#fab800"/><path d="M145.88,192.87a1.9231,1.9231,0,0,1-1.16.58v1.31h-.64v-1.27a2.6704,2.6704,0,0,1-1.78-.77l.44-.48a2.07051,2.07051,0,0,0,1.51.63,1.44577,1.44577,0,0,0,.92-.29,1,1,0,0,0,.37-.82,1.14394,1.14394,0,0,0-.11-.52.98016.98016,0,0,0-.39-.36,4.69005,4.69005,0,0,0-.79-.32,3.32515,3.32515,0,0,1-1.3-.66,1.37018,1.37018,0,0,1-.41-1.04,1.38846,1.38846,0,0,1,.43-1.04,1.7815,1.7815,0,0,1,1.12-.49v-1.31h.64v1.31a2.81654,2.81654,0,0,1,.76.21,2.67715,2.67715,0,0,1,.65.46l-.43.47a1.87161,1.87161,0,0,0-.61-.41,1.98052,1.98052,0,0,0-.7-.13,1.26772,1.26772,0,0,0-.78.23.77974.77974,0,0,0-.3.65.89393.89393,0,0,0,.11.46.97426.97426,0,0,0,.38.33,3.92834,3.92834,0,0,0,.8.31,5.43315,5.43315,0,0,1,.91.38,1.52549,1.52549,0,0,1,.8,1.43A1.759,1.759,0,0,1,145.88,192.87Z" transform="translate(1 0.01)" fill="#fab800"/><path d="M149.93,187.51a1.43149,1.43149,0,0,1,.59.55,1.51259,1.51259,0,0,1,.2.76,1.32287,1.32287,0,0,1-.31.91,1.494,1.494,0,0,1-.83.47,1.525,1.525,0,0,1,.95.43,1.38409,1.38409,0,0,1,.37,1.03,1.85178,1.85178,0,0,1-.24.94,1.63921,1.63921,0,0,1-.68.65,2.29052,2.29052,0,0,1-2.76-.56l.44-.42a2.01877,2.01877,0,0,0,.59.46,1.49162,1.49162,0,0,0,.67.14,1.19228,1.19228,0,0,0,.89-.33,1.17823,1.17823,0,0,0,.32-.88,1.06614,1.06614,0,0,0-.3-.86,1.338,1.338,0,0,0-.88-.25h-.43l.09-.58h.3a1.08157,1.08157,0,0,0,.77-.29,1.03354,1.03354,0,0,0,.31-.81.90378.90378,0,0,0-.27-.69,1.01691,1.01691,0,0,0-.73-.26,1.45048,1.45048,0,0,0-.63.13,2.18,2.18,0,0,0-.59.41l-.38-.45a2.321,2.321,0,0,1,1.65-.7A1.74421,1.74421,0,0,1,149.93,187.51Z" transform="translate(1 0.01)" fill="#fab800"/><path d="M153.09,192.49a.60531.60531,0,0,1,0,.82.55019.55019,0,0,1-.41.17.54389.54389,0,0,1-.4-.17.55771.55771,0,0,1-.16-.41.55074.55074,0,0,1,.16-.4.54387.54387,0,0,1,.4-.17A.52774.52774,0,0,1,153.09,192.49Z" transform="translate(1 0.01)" fill="#fab800"/><path d="M157.8,187.98h-2.3v1.83a2.02935,2.02935,0,0,1,.95-.24,1.521,1.521,0,0,1,1.2.51,2.01135,2.01135,0,0,1,.45,1.38,2.118,2.118,0,0,1-.25,1.05,1.79735,1.79735,0,0,1-.7.72,2.08422,2.08422,0,0,1-1.04.26,2.19383,2.19383,0,0,1-.94-.19,2.37512,2.37512,0,0,1-.76-.56l.44-.44a1.85367,1.85367,0,0,0,.58.43,1.65212,1.65212,0,0,0,.68.14,1.14082,1.14082,0,0,0,.9-.38,1.53685,1.53685,0,0,0,.33-1.05,1.36852,1.36852,0,0,0-.3-.98,1.09451,1.09451,0,0,0-.81-.3,1.97152,1.97152,0,0,0-.44.05,2.31124,2.31124,0,0,0-.42.17h-.58v-2.99h3.1Z" transform="translate(1 0.01)" fill="#fab800"/><path d="M162.63,188.09a5.75042,5.75042,0,0,1,0,4.6,1.68922,1.68922,0,0,1-2.86,0,5.77438,5.77438,0,0,1,0-4.61,1.695,1.695,0,0,1,2.86.01Zm-2.3.41a4.58569,4.58569,0,0,0-.29,1.89,4.64028,4.64028,0,0,0,.29,1.9.92241.92241,0,0,0,.87.6.94148.94148,0,0,0,.87-.6,6.33635,6.33635,0,0,0,0-3.79.92723.92723,0,0,0-.87-.59A.89891.89891,0,0,0,160.33,188.5Z" transform="translate(1 0.01)" fill="#fab800"/><path d="M105.71,196.64a1.69261,1.69261,0,0,1,.6,1.42,1.77015,1.77015,0,0,1-.63,1.49,2.63248,2.63248,0,0,1-1.67.49h-.78v2.29h-.75v-6.16h1.53A2.72845,2.72845,0,0,1,105.71,196.64Zm-.59,2.48a1.24885,1.24885,0,0,0,.39-1.05,1.19759,1.19759,0,0,0-.39-.99,1.80033,1.80033,0,0,0-1.12-.3h-.78v2.64h.76A1.84467,1.84467,0,0,0,105.12,199.12Z" transform="translate(1 0.01)" fill="#fab800"/><path d="M111.09,200.23h-2.95a2.00721,2.00721,0,0,0,.39,1.2,1.12418,1.12418,0,0,0,.89.39,1.754,1.754,0,0,0,.62-.1,2.24871,2.24871,0,0,0,.58-.32l.32.45a2.4427,2.4427,0,0,1-1.58.59,1.79291,1.79291,0,0,1-1.47-.65,2.727,2.727,0,0,1-.53-1.77,3.50542,3.50542,0,0,1,.23-1.3,2.06592,2.06592,0,0,1,.65-.89,1.63669,1.63669,0,0,1,1-.32,1.66264,1.66264,0,0,1,1.39.61,2.686,2.686,0,0,1,.48,1.7C111.1,199.97,111.1,200.1,111.09,200.23Zm-.71-.62a1.85887,1.85887,0,0,0-.28-1.11.97438.97438,0,0,0-.84-.39.94462.94462,0,0,0-.79.39,2.20612,2.20612,0,0,0-.34,1.18h2.25Z" transform="translate(1 0.01)" fill="#fab800"/><path d="M115.01,197.57l-.13.73a1.41514,1.41514,0,0,0-.4-.05.8784.8784,0,0,0-.7.32,2.33688,2.33688,0,0,0-.42,1.01v2.76h-.73v-4.71h.63l.07.99a1.785,1.785,0,0,1,.5-.81,1.06853,1.06853,0,0,1,.74-.28A1.0512,1.0512,0,0,1,115.01,197.57Z" transform="translate(1 0.01)" fill="#fab800"/><path d="M121.71,196.82a2.93513,2.93513,0,0,1,.81,2.4,3.03256,3.03256,0,0,1-.82,2.42,2.9068,2.9068,0,0,1-1.98.7h-1.39v-6.16h1.24A3.27,3.27,0,0,1,121.71,196.82Zm-2.63-.02v4.92h.71a1.87619,1.87619,0,0,0,1.39-.54,2.75165,2.75165,0,0,0,.54-1.96,3.49484,3.49484,0,0,0-.27-1.53,1.43769,1.43769,0,0,0-.71-.71,2.60308,2.60308,0,0,0-1.01-.18Z" transform="translate(1 0.01)" fill="#fab800"/><path d="M127.22,201.7a.59292.59292,0,0,0,.29.21l-.17.53a1.24247,1.24247,0,0,1-.56-.22.9181.9181,0,0,1-.3-.51,1.54439,1.54439,0,0,1-1.38.73,1.4271,1.4271,0,0,1-1.06-.39,1.38721,1.38721,0,0,1-.39-1.03,1.32815,1.32815,0,0,1,.52-1.14,2.338,2.338,0,0,1,1.47-.4h.75v-.38a.98239.98239,0,0,0-.24-.74,1.05725,1.05725,0,0,0-.74-.23,3.82141,3.82141,0,0,0-1.24.26l-.18-.56a4.384,4.384,0,0,1,1.55-.32,1.39145,1.39145,0,0,1,1.58,1.55v2.18A.84519.84519,0,0,0,127.22,201.7Zm-.83-.61v-1.12h-.65c-.87,0-1.31.33-1.31,1a.934.934,0,0,0,.21.66.81469.81469,0,0,0,.62.23A1.20686,1.20686,0,0,0,126.39,201.09Z" transform="translate(1 0.01)" fill="#fab800"/><path d="M130.72,202.36a2.9785,2.9785,0,0,1-.73,1.28,2.27647,2.27647,0,0,1-1.33.58l-.09-.59a2.23186,2.23186,0,0,0,.72-.25,1.27189,1.27189,0,0,0,.43-.4,3.07472,3.07472,0,0,0,.3-.65h-.25l-1.55-4.71H129l1.26,4.16,1.24-4.16h.76Z" transform="translate(1 0.01)" fill="#fab800"/><path d="M134.14,198.11a.60533.60533,0,0,1,0,.82.55018.55018,0,0,1-.41.17.5439.5439,0,0,1-.4-.17.55772.55772,0,0,1-.16-.41.55074.55074,0,0,1,.16-.4.54393.54393,0,0,1,.4-.17A.50811.50811,0,0,1,134.14,198.11Zm0,3.34a.60531.60531,0,0,1,0,.82.55018.55018,0,0,1-.41.17.5439.5439,0,0,1-.4-.17.55771.55771,0,0,1-.16-.41.55074.55074,0,0,1,.16-.4.54393.54393,0,0,1,.4-.17A.50811.50811,0,0,1,134.14,201.45Z" transform="translate(1 0.01)" fill="#fab800"/><path d="M140.91,201.82a1.92313,1.92313,0,0,1-1.16.58v1.31h-.64v-1.27a2.67038,2.67038,0,0,1-1.78-.77l.44-.48a2.07055,2.07055,0,0,0,1.51.63,1.44579,1.44579,0,0,0,.92-.29,1,1,0,0,0,.37-.82,1.144,1.144,0,0,0-.11-.52.98023.98023,0,0,0-.39-.36,4.69175,4.69175,0,0,0-.79-.32,3.32515,3.32515,0,0,1-1.3-.66,1.37016,1.37016,0,0,1-.41-1.04,1.38848,1.38848,0,0,1,.43-1.04,1.78161,1.78161,0,0,1,1.12-.49v-1.31h.64v1.31a2.81618,2.81618,0,0,1,.76.21,2.67728,2.67728,0,0,1,.65.46l-.43.47a1.8714,1.8714,0,0,0-.61-.41,1.98042,1.98042,0,0,0-.7-.13,1.26778,1.26778,0,0,0-.78.23.77975.77975,0,0,0-.3.65.89391.89391,0,0,0,.11.46.9741.9741,0,0,0,.38.33,3.92845,3.92845,0,0,0,.8.31,5.43288,5.43288,0,0,1,.91.38,1.52546,1.52546,0,0,1,.8,1.43A1.73888,1.73888,0,0,1,140.91,201.82Z" transform="translate(1 0.01)" fill="#fab800"/><path d="M144.92,196.47a1.459,1.459,0,0,1,.6.58,1.62546,1.62546,0,0,1,.21.83,2.4508,2.4508,0,0,1-.24,1.06,5.13046,5.13046,0,0,1-.74,1.09c-.33.39-.84.94-1.53,1.67h2.65l-.09.64h-3.4v-.6c.78-.84,1.33-1.46,1.66-1.85a5.18493,5.18493,0,0,0,.71-1.03,2.12345,2.12345,0,0,0,.21-.94,1.038,1.038,0,0,0-.27-.76.97227.97227,0,0,0-.71-.28,1.27912,1.27912,0,0,0-.65.16,2.0178,2.0178,0,0,0-.58.51l-.48-.39a2.54033,2.54033,0,0,1,.78-.67,1.99929,1.99929,0,0,1,.96-.22A1.8202,1.8202,0,0,1,144.92,196.47Z" transform="translate(1 0.01)" fill="#fab800"/><path d="M150.34,196.94h-2.3v1.83a2.02945,2.02945,0,0,1,.95-.24,1.52109,1.52109,0,0,1,1.2.51,2.01144,2.01144,0,0,1,.45,1.38,2.118,2.118,0,0,1-.25,1.05,1.7973,1.7973,0,0,1-.7.72,2.08418,2.08418,0,0,1-1.04.26,2.19371,2.19371,0,0,1-.94-.19,2.3748,2.3748,0,0,1-.76-.56l.44-.44a1.85355,1.85355,0,0,0,.58.43,1.65231,1.65231,0,0,0,.68.14,1.14085,1.14085,0,0,0,.9-.38,1.5369,1.5369,0,0,0,.33-1.05,1.36859,1.36859,0,0,0-.3-.98,1.09457,1.09457,0,0,0-.81-.3,1.97145,1.97145,0,0,0-.44.05,2.31184,2.31184,0,0,0-.42.17h-.58v-2.99h3.1Z" transform="translate(1 0.01)" fill="#fab800"/><path d="M152.75,201.45a.60531.60531,0,0,1,0,.82.55018.55018,0,0,1-.41.17.5439.5439,0,0,1-.4-.17.55771.55771,0,0,1-.16-.41.55074.55074,0,0,1,.16-.4.54393.54393,0,0,1,.4-.17A.52111.52111,0,0,1,152.75,201.45Z" transform="translate(1 0.01)" fill="#fab800"/><path d="M157.41,197.05a5.75044,5.75044,0,0,1,0,4.6,1.68923,1.68923,0,0,1-2.86,0,5.77438,5.77438,0,0,1,0-4.61,1.695,1.695,0,0,1,2.86.01Zm-2.3.4a4.58569,4.58569,0,0,0-.29,1.89,4.64028,4.64028,0,0,0,.29,1.9.92243.92243,0,0,0,.87.6.94149.94149,0,0,0,.87-.6,6.33656,6.33656,0,0,0,0-3.79.93643.93643,0,0,0-1.74,0Z" transform="translate(1 0.01)" fill="#fab800"/><path d="M162.55,197.05a5.75044,5.75044,0,0,1,0,4.6,1.68923,1.68923,0,0,1-2.86,0,5.77438,5.77438,0,0,1,0-4.61,1.695,1.695,0,0,1,2.86.01Zm-2.3.4a4.58569,4.58569,0,0,0-.29,1.89,4.64028,4.64028,0,0,0,.29,1.9.92243.92243,0,0,0,.87.6.94149.94149,0,0,0,.87-.6,6.33656,6.33656,0,0,0,0-3.79.93643.93643,0,0,0-1.74,0Z" transform="translate(1 0.01)" fill="#fab800"/><path d="M25.11,129.08a1.96779,1.96779,0,0,1,.68,1.66,2.05832,2.05832,0,0,1-.72,1.74,3.12667,3.12667,0,0,1-1.96.55H22.1v2.87h-.63v-7.36h1.68A3.09125,3.09125,0,0,1,25.11,129.08Zm-.49,3.02a1.59919,1.59919,0,0,0,.52-1.35,1.52263,1.52263,0,0,0-.51-1.29,2.40834,2.40834,0,0,0-1.49-.39H22.1v3.44h1.02A2.47894,2.47894,0,0,0,24.62,132.1Z" transform="translate(1 0.01)" fill="#fab800"/><path d="M31.13,130.62a1.88385,1.88385,0,0,1,.4,1.26v4.02h-.61v-3.93c0-.87-.34-1.3-1.03-1.3a1.52126,1.52126,0,0,0-.93.3,3.18343,3.18343,0,0,0-.77.87v4.07h-.61V128l.61-.08v3.3A2.15448,2.15448,0,0,1,30,130.17,1.35733,1.35733,0,0,1,31.13,130.62Z" transform="translate(1 0.01)" fill="#fab800"/><path d="M34.46,127.93a.46258.46258,0,0,1,.13.32.408.408,0,0,1-.13.32.41563.41563,0,0,1-.33.13.408.408,0,0,1-.32-.13.4626.4626,0,0,1-.13-.32.444.444,0,0,1,.45-.45A.54021.54021,0,0,1,34.46,127.93Zm-.03,7.97h-.61v-5.62h.61Z" transform="translate(1 0.01)" fill="#fab800"/><path d="M37,135.75a1.11486,1.11486,0,0,1-.26-.8v-6.96l.61-.08v7.02c0,.37.15.55.44.55a.88969.88969,0,0,0,.38-.07l.17.46a1.33166,1.33166,0,0,1-.63.15A.97307.97307,0,0,1,37,135.75Z" transform="translate(1 0.01)" fill="#fab800"/><path d="M40.65,127.93a.46258.46258,0,0,1,.13.32.408.408,0,0,1-.13.32.41563.41563,0,0,1-.33.13.408.408,0,0,1-.32-.13.4626.4626,0,0,1-.13-.32.444.444,0,0,1,.45-.45A.49583.49583,0,0,1,40.65,127.93Zm-.02,7.97h-.61v-5.62h.61Z" transform="translate(1 0.01)" fill="#fab800"/><path d="M46.72,130.92a3.91477,3.91477,0,0,1,.5,2.14,3.78119,3.78119,0,0,1-.54,2.15,1.75174,1.75174,0,0,1-1.54.8,1.88506,1.88506,0,0,1-.89-.21,2.02848,2.02848,0,0,1-.67-.56v2.77l-.61.09v-7.82h.52l.05.82a2.31572,2.31572,0,0,1,.74-.69,1.8492,1.8492,0,0,1,.95-.25A1.64465,1.64465,0,0,1,46.72,130.92Zm-.54,3.96a3.41042,3.41042,0,0,0,.4-1.82c0-1.59-.49-2.39-1.45-2.39a1.42845,1.42845,0,0,0-.85.26,3.122,3.122,0,0,0-.69.71v2.99a1.644,1.644,0,0,0,1.44.86A1.31132,1.31132,0,0,0,46.18,134.88Z" transform="translate(1 0.01)" fill="#fab800"/><path d="M49.67,128.07a.45206.45206,0,0,1,.13.34.74688.74688,0,0,1-.03.2c-.02.07-.06.17-.11.3l-.6,1.33h-.41l.4-1.44a.42507.42507,0,0,1-.21-.39.45343.45343,0,0,1,.14-.33.48268.48268,0,0,1,.35-.14A.41761.41761,0,0,1,49.67,128.07Z" transform="translate(1 0.01)" fill="#fab800"/><path d="M53.8,130.31a2.98024,2.98024,0,0,1,.82.47l-.28.41a2.988,2.988,0,0,0-.71-.39,2.15,2.15,0,0,0-.73-.12,1.43653,1.43653,0,0,0-.88.26.8346.8346,0,0,0-.34.69.76086.76086,0,0,0,.29.63,3.21484,3.21484,0,0,0,1.04.43,3.28341,3.28341,0,0,1,1.34.62,1.39354,1.39354,0,0,1,.41,1.07,1.42,1.42,0,0,1-.57,1.19,2.25882,2.25882,0,0,1-1.41.44,2.882,2.882,0,0,1-1.1-.19,3.07586,3.07586,0,0,1-.86-.53l.33-.4a2.67067,2.67067,0,0,0,.75.45,2.31416,2.31416,0,0,0,.86.15,1.56221,1.56221,0,0,0,.98-.28.92853.92853,0,0,0,.37-.79,1.03255,1.03255,0,0,0-.13-.56,1.00114,1.00114,0,0,0-.43-.37,5.32981,5.32981,0,0,0-.89-.32,3.0305,3.0305,0,0,1-1.25-.59,1.24984,1.24984,0,0,1-.38-.95,1.29448,1.29448,0,0,1,.24-.76,1.62184,1.62184,0,0,1,.65-.53,2.11788,2.11788,0,0,1,.93-.19A3.04334,3.04334,0,0,1,53.8,130.31Z" transform="translate(1 0.01)" fill="#fab800"/><path d="M62.99,129.08a1.96779,1.96779,0,0,1,.68,1.66,2.05832,2.05832,0,0,1-.72,1.74,3.12667,3.12667,0,0,1-1.96.55H59.97v2.87h-.63v-7.36h1.68A3.10312,3.10312,0,0,1,62.99,129.08Zm-.49,3.02a1.59919,1.59919,0,0,0,.52-1.35,1.52263,1.52263,0,0,0-.51-1.29,2.40834,2.40834,0,0,0-1.49-.39H59.97v3.44H61A2.47894,2.47894,0,0,0,62.5,132.1Z" transform="translate(1 0.01)" fill="#fab800"/><path d="M69.02,135.28a.63852.63852,0,0,0,.35.29l-.14.44a1.10044,1.10044,0,0,1-.58-.29,1.1888,1.1888,0,0,1-.27-.66,1.86757,1.86757,0,0,1-1.7.95,1.56922,1.56922,0,0,1-1.69-1.68,1.5981,1.5981,0,0,1,.6-1.34,2.67406,2.67406,0,0,1,1.67-.47h1.05v-.55a1.399,1.399,0,0,0-.29-.98,1.326,1.326,0,0,0-.97-.31,4.39706,4.39706,0,0,0-1.48.32l-.16-.47a4.58757,4.58757,0,0,1,1.72-.38,1.57774,1.57774,0,0,1,1.79,1.78v2.71A1.28272,1.28272,0,0,0,69.02,135.28Zm-.71-.76v-1.55h-.95a2.06946,2.06946,0,0,0-1.27.33,1.1868,1.1868,0,0,0-.44,1,1.22866,1.22866,0,0,0,.3.89,1.12538,1.12538,0,0,0,.85.31A1.63227,1.63227,0,0,0,68.31,134.52Z" transform="translate(1 0.01)" fill="#fab800"/><path d="M73.93,130.22l-.11.59a1.85651,1.85651,0,0,0-.48-.06,1.09665,1.09665,0,0,0-.89.41,3.39115,3.39115,0,0,0-.57,1.29v3.44h-.61v-5.62h.52l.05,1.26a2.34319,2.34319,0,0,1,.6-1.04,1.351,1.351,0,0,1,.95-.34A2.53592,2.53592,0,0,1,73.93,130.22Z" transform="translate(1 0.01)" fill="#fab800"/><path d="M76.18,135.9h-.61v-7.91l.61-.08Zm.76-3.11,2.54,3.11h-.73l-2.51-3.07,2.3-2.55h.7Z" transform="translate(1 0.01)" fill="#fab800"/><path d="M81.68,127.93a.46258.46258,0,0,1,.13.32.408.408,0,0,1-.13.32.41563.41563,0,0,1-.33.13.408.408,0,0,1-.32-.13.4626.4626,0,0,1-.13-.32.444.444,0,0,1,.45-.45A.5172.5172,0,0,1,81.68,127.93Zm-.02,7.97h-.61v-5.62h.61Z" transform="translate(1 0.01)" fill="#fab800"/><path d="M87.55,130.61a1.87339,1.87339,0,0,1,.39,1.27v4.02h-.61v-3.93a1.56364,1.56364,0,0,0-.26-.99.93348.93348,0,0,0-.77-.31,1.52126,1.52126,0,0,0-.93.3,3.1832,3.1832,0,0,0-.77.87v4.07H84v-5.62h.52l.06.96a2.5858,2.5858,0,0,1,.79-.79,1.92016,1.92016,0,0,1,1.03-.28A1.36343,1.36343,0,0,1,87.55,130.61Z" transform="translate(1 0.01)" fill="#fab800"/><path d="M94.39,130.4a6.53835,6.53835,0,0,1-1.52.16,1.56864,1.56864,0,0,1,.93,1.53,1.79238,1.79238,0,0,1-.53,1.34,1.995,1.995,0,0,1-1.44.51,2.16086,2.16086,0,0,1-.71-.11,1.05216,1.05216,0,0,0-.31.28.66254.66254,0,0,0-.11.36c0,.39.29.58.87.58h.89a1.90561,1.90561,0,0,1,1.28.4,1.29,1.29,0,0,1,.48,1.04,1.35941,1.35941,0,0,1-.6,1.19,4.09586,4.09586,0,0,1-3.53.04,1.42169,1.42169,0,0,1-.53-1.23h.57a1.22158,1.22158,0,0,0,.17.65.87.87,0,0,0,.52.34,3.84832,3.84832,0,0,0,1.02.11,2.5607,2.5607,0,0,0,1.34-.27.88817.88817,0,0,0,.42-.79.81892.81892,0,0,0-.32-.69,1.51392,1.51392,0,0,0-.91-.24h-.89a1.547,1.547,0,0,1-1-.28.88061.88061,0,0,1-.35-.71.94022.94022,0,0,1,.16-.53,1.3931,1.3931,0,0,1,.44-.43,1.72872,1.72872,0,0,1-.7-.63,2.06331,2.06331,0,0,1,.33-2.33,2.0212,2.0212,0,0,1,1.45-.53,7.65128,7.65128,0,0,0,1.45-.08,4.85877,4.85877,0,0,0,.95-.29Zm-3.61.63a1.494,1.494,0,0,0-.35,1.03,1.40825,1.40825,0,0,0,.37,1.04,1.35735,1.35735,0,0,0,1.01.38,1.31573,1.31573,0,0,0,1.02-.37,1.42506,1.42506,0,0,0,.35-1.04,1.49518,1.49518,0,0,0-.35-1.05,1.34346,1.34346,0,0,0-1.03-.38A1.30446,1.30446,0,0,0,90.78,131.03Z" transform="translate(1 0.01)" fill="#fab800"/><rect x="20.48" y="142.64" width="151.88" height="0.72" fill="#fff"/><polyline points="57.46 70.81 39.16 64.6 20.96 70.7" fill="none" stroke="#48dad0" stroke-miterlimit="10" stroke-width="1.0877"/><path d="M30.15,98.92V75.73h8.61c6.74,0,10.5,2.86,10.5,8.74,0,6.23-3.91,9.21-9.93,9.21H36.89v8.98H29.43" transform="translate(1 0.01)" fill="none" stroke="#fff" stroke-miterlimit="10" stroke-width="0.8702"/><path d="M38.52,87.7H37.44V81.68h.97c2.8,0,3.37,1.14,3.37,2.84C41.78,86.83,40.89,87.7,38.52,87.7Z" transform="translate(1 0.01)" fill="none" stroke="#fff" stroke-miterlimit="10" stroke-width="0.8702"/><path d="M32.05,237.94a1.459,1.459,0,0,1,.6.58,1.65168,1.65168,0,0,1,.21.83,2.45093,2.45093,0,0,1-.24,1.06,5.13,5.13,0,0,1-.74,1.09c-.33.39-.84.94-1.53,1.67H33l-.09.64h-3.4v-.6c.78-.84,1.33-1.46,1.66-1.85a5.18484,5.18484,0,0,0,.71-1.03,2.12332,2.12332,0,0,0,.21-.94,1.03808,1.03808,0,0,0-.27-.76.97228.97228,0,0,0-.71-.28,1.2792,1.2792,0,0,0-.65.16,2.01806,2.01806,0,0,0-.58.51l-.48-.39a2.54035,2.54035,0,0,1,.78-.67,1.99927,1.99927,0,0,1,.96-.22A1.77285,1.77285,0,0,1,32.05,237.94Z" transform="translate(1 0.01)" fill="#fff"/><path d="M37.3,238.52a5.75044,5.75044,0,0,1,0,4.6,1.68925,1.68925,0,0,1-2.86,0,5.77438,5.77438,0,0,1,0-4.61,1.695,1.695,0,0,1,2.86.01Zm-2.31.4a4.58565,4.58565,0,0,0-.29,1.89,4.64007,4.64007,0,0,0,.29,1.9.92241.92241,0,0,0,.87.6.94151.94151,0,0,0,.87-.6,6.33635,6.33635,0,0,0,0-3.79.92724.92724,0,0,0-.87-.59A.94677.94677,0,0,0,34.99,238.92Z" transform="translate(1 0.01)" fill="#fff"/><path d="M46.94,239.38a1.57248,1.57248,0,0,1,.33,1.05v3.38h-.73v-3.27c0-.64-.22-.96-.67-.96a.92274.92274,0,0,0-.61.21,2.67232,2.67232,0,0,0-.52.65v3.36H44v-3.27c0-.64-.22-.96-.67-.96a.96116.96116,0,0,0-.61.21,2.45545,2.45545,0,0,0-.52.65v3.36h-.73v-4.71h.63l.06.71a1.58353,1.58353,0,0,1,1.34-.81,1.17809,1.17809,0,0,1,.73.23,1.20542,1.20542,0,0,1,.42.64,1.60662,1.60662,0,0,1,1.38-.88A1.20273,1.20273,0,0,1,46.94,239.38Z" transform="translate(1 0.01)" fill="#fff"/><path d="M128.01,239.22a2.93516,2.93516,0,0,1,.81,2.4,3.03255,3.03255,0,0,1-.82,2.42,2.90677,2.90677,0,0,1-1.98.7h-1.39v-6.16h1.24A3.28833,3.28833,0,0,1,128.01,239.22Zm-2.63-.02v4.92h.71a1.87619,1.87619,0,0,0,1.39-.54,2.75163,2.75163,0,0,0,.54-1.96,3.49481,3.49481,0,0,0-.27-1.53,1.43769,1.43769,0,0,0-.71-.71,2.603,2.603,0,0,0-1.01-.18Z" transform="translate(1 0.01)" fill="#fff"/><path d="M133.34,240.58a3.29559,3.29559,0,0,1-.01,3.6,1.99059,1.99059,0,0,1-2.97.01,3.29557,3.29557,0,0,1,.01-3.6,1.78421,1.78421,0,0,1,1.48-.67A1.81129,1.81129,0,0,1,133.34,240.58Zm-2.41.41a2.5193,2.5193,0,0,0-.32,1.4,2.452,2.452,0,0,0,.31,1.38,1.024,1.024,0,0,0,.91.46,1.049,1.049,0,0,0,.92-.47,2.51925,2.51925,0,0,0,.32-1.4,2.452,2.452,0,0,0-.31-1.38,1.02392,1.02392,0,0,0-.91-.46A1.07193,1.07193,0,0,0,130.93,240.99Z" transform="translate(1 0.01)" fill="#fff"/><path d="M139.26,244.74h-1l-.85-4.03-.87,4.03h-.98l-1.09-4.71h.74l.86,4.18.94-4.18h.82l.91,4.18.87-4.18h.7Z" transform="translate(1 0.01)" fill="#fff"/><path d="M144.45,240.3a1.53526,1.53526,0,0,1,.34,1.06v3.38h-.73v-3.27a1.11445,1.11445,0,0,0-.19-.74.71069.71069,0,0,0-.57-.22,1.08639,1.08639,0,0,0-.68.22,2.05556,2.05556,0,0,0-.54.64v3.36h-.73v-4.71h.63l.06.71a1.98863,1.98863,0,0,1,.63-.6,1.57767,1.57767,0,0,1,.81-.21A1.25017,1.25017,0,0,1,144.45,240.3Z" transform="translate(1 0.01)" fill="#fff"/><path d="M146.65,244.58a1.046,1.046,0,0,1-.24-.74v-5.71l.73-.09v5.78a.5129.5129,0,0,0,.07.3.26437.26437,0,0,0,.23.1.94269.94269,0,0,0,.3-.05l.19.53a1.281,1.281,0,0,1-.61.15A.89485.89485,0,0,1,146.65,244.58Z" transform="translate(1 0.01)" fill="#fff"/><path d="M152.08,240.58a3.29561,3.29561,0,0,1-.01,3.6,1.99059,1.99059,0,0,1-2.97.01,3.2956,3.2956,0,0,1,.01-3.6,1.78423,1.78423,0,0,1,1.48-.67A1.8113,1.8113,0,0,1,152.08,240.58Zm-2.41.41a2.5192,2.5192,0,0,0-.32,1.4,2.452,2.452,0,0,0,.31,1.38,1.02393,1.02393,0,0,0,.91.46,1.049,1.049,0,0,0,.92-.47,2.51925,2.51925,0,0,0,.32-1.4,2.452,2.452,0,0,0-.31-1.38,1.02393,1.02393,0,0,0-.91-.46A1.0719,1.0719,0,0,0,149.67,240.99Z" transform="translate(1 0.01)" fill="#fff"/><path d="M157.1,244.1a.59289.59289,0,0,0,.29.21l-.17.53a1.24256,1.24256,0,0,1-.56-.22.918.918,0,0,1-.3-.51,1.54442,1.54442,0,0,1-1.38.73,1.4271,1.4271,0,0,1-1.06-.39,1.38721,1.38721,0,0,1-.39-1.03,1.32815,1.32815,0,0,1,.52-1.14,2.338,2.338,0,0,1,1.47-.4h.75v-.38a.98239.98239,0,0,0-.24-.74,1.05726,1.05726,0,0,0-.74-.23,3.82146,3.82146,0,0,0-1.24.26l-.18-.56a4.38376,4.38376,0,0,1,1.55-.32,1.39145,1.39145,0,0,1,1.58,1.55v2.18A.76392.76392,0,0,0,157.1,244.1Zm-.83-.6v-1.12h-.65c-.87,0-1.31.33-1.31,1a.93408.93408,0,0,0,.21.66.81473.81473,0,0,0,.62.23A1.222,1.222,0,0,0,156.27,243.5Z" transform="translate(1 0.01)" fill="#fff"/><path d="M162.17,238.13v6.61h-.64l-.08-.66a1.60665,1.60665,0,0,1-.57.56,1.53976,1.53976,0,0,1-2.04-.45,3.11945,3.11945,0,0,1-.45-1.79,3.40127,3.40127,0,0,1,.22-1.28,2.0624,2.0624,0,0,1,.62-.88,1.5132,1.5132,0,0,1,.95-.32,1.66664,1.66664,0,0,1,1.25.59v-2.47Zm-1.25,5.93a1.87588,1.87588,0,0,0,.51-.56v-2.35a1.80509,1.80509,0,0,0-.49-.47,1.10706,1.10706,0,0,0-.6-.17.98341.98341,0,0,0-.86.47,2.549,2.549,0,0,0-.31,1.4,2.72725,2.72725,0,0,0,.28,1.39.9042.9042,0,0,0,.81.47A1.14082,1.14082,0,0,0,160.92,244.06Z" transform="translate(1 0.01)" fill="#fff"/><path d="M164.61,237.95a.48964.48964,0,0,1,.14.37.53079.53079,0,0,1-.14.37.50461.50461,0,0,1-.38.15.4975.4975,0,0,1-.37-.15.48966.48966,0,0,1-.14-.37.53078.53078,0,0,1,.14-.37.49746.49746,0,0,1,.37-.15A.52739.52739,0,0,1,164.61,237.95Zm0,6.79h-.73v-4.71h.73Z" transform="translate(1 0.01)" fill="#fff"/><path d="M169.41,240.3a1.53521,1.53521,0,0,1,.34,1.06v3.38h-.73v-3.27a1.11439,1.11439,0,0,0-.19-.74.71068.71068,0,0,0-.57-.22,1.08643,1.08643,0,0,0-.68.22,2.198,2.198,0,0,0-.54.64v3.36h-.73v-4.71h.63l.06.71a1.98853,1.98853,0,0,1,.63-.6,1.57764,1.57764,0,0,1,.81-.21A1.2649,1.2649,0,0,1,169.41,240.3Z" transform="translate(1 0.01)" fill="#fff"/><path d="M175.03,240.21a2.97533,2.97533,0,0,1-.55.11c-.2.02-.46.03-.77.04a1.24964,1.24964,0,0,1,.8,1.21,1.52962,1.52962,0,0,1-.47,1.15,1.77305,1.77305,0,0,1-1.26.44,1.72337,1.72337,0,0,1-.58-.09.60614.60614,0,0,0-.19.2.5836.5836,0,0,0-.06.26c0,.27.21.4.63.4h.73a1.7269,1.7269,0,0,1,.81.17,1.28226,1.28226,0,0,1,.54.46,1.13693,1.13693,0,0,1,.19.66,1.19692,1.19692,0,0,1-.53,1.05,2.81832,2.81832,0,0,1-1.58.36,2.50857,2.50857,0,0,1-1.51-.34,1.26376,1.26376,0,0,1-.44-1.07h.66a.90708.90708,0,0,0,.11.47.71043.71043,0,0,0,.39.26,2.64176,2.64176,0,0,0,.78.09,2.10305,2.10305,0,0,0,1.05-.19.63911.63911,0,0,0,.32-.58.58961.58961,0,0,0-.25-.52,1.18872,1.18872,0,0,0-.7-.18h-.72a1.30852,1.30852,0,0,1-.87-.25.79519.79519,0,0,1-.3-.63.83564.83564,0,0,1,.13-.45,1.21049,1.21049,0,0,1,.37-.38,1.43183,1.43183,0,0,1-.58-.53,1.45523,1.45523,0,0,1-.19-.78,1.60838,1.60838,0,0,1,.22-.85,1.51054,1.51054,0,0,1,.62-.58,1.92568,1.92568,0,0,1,.9-.21,5.99742,5.99742,0,0,0,.91-.04,2.70389,2.70389,0,0,0,.6-.13,4.45885,4.45885,0,0,0,.56-.23Zm-3.03.55a1.31019,1.31019,0,0,0,.01,1.58.95741.95741,0,0,0,.75.3.93458.93458,0,0,0,.74-.29,1.39177,1.39177,0,0,0,0-1.62.97467.97467,0,0,0-.76-.28A.96077.96077,0,0,0,172,240.76Z" transform="translate(1 0.01)" fill="#fff"/><path d="M178.79,243.85a.60528.60528,0,0,1,0,.82.55017.55017,0,0,1-.41.17.54389.54389,0,0,1-.4-.17.55772.55772,0,0,1-.16-.41.55075.55075,0,0,1,.16-.4.57948.57948,0,0,1,.81-.01Zm2.09,0a.60528.60528,0,0,1,0,.82.55017.55017,0,0,1-.41.17.54389.54389,0,0,1-.4-.17.55772.55772,0,0,1-.16-.41.55075.55075,0,0,1,.16-.4.57948.57948,0,0,1,.81-.01Zm2.09,0a.60531.60531,0,0,1,0,.82.55017.55017,0,0,1-.41.17.5439.5439,0,0,1-.4-.17.55771.55771,0,0,1-.16-.41.55074.55074,0,0,1,.16-.4.57949.57949,0,0,1,.81-.01Z" transform="translate(1 0.01)" fill="#fff"/><path d="M70.21,244.74h-.73v-5.18l-1.38.87-.32-.54,1.79-1.14h.65v5.99Z" transform="translate(1 0.01)" fill="#fff"/><path d="M79.84,240.31a1.57244,1.57244,0,0,1,.33,1.05v3.38h-.73v-3.27c0-.64-.22-.96-.67-.96a.92272.92272,0,0,0-.61.21,2.6722,2.6722,0,0,0-.52.65v3.36H76.9v-3.27c0-.64-.22-.96-.67-.96a.96116.96116,0,0,0-.61.21,2.6722,2.6722,0,0,0-.52.65v3.36h-.73v-4.71H75l.06.71a1.5835,1.5835,0,0,1,1.34-.81,1.17814,1.17814,0,0,1,.73.23,1.20554,1.20554,0,0,1,.42.64,1.60664,1.60664,0,0,1,1.38-.88A1.20275,1.20275,0,0,1,79.84,240.31Z" transform="translate(1 0.01)" fill="#fff"/><path d="M82.57,237.95a.48967.48967,0,0,1,.14.37.53079.53079,0,0,1-.14.37.5046.5046,0,0,1-.38.15.49753.49753,0,0,1-.37-.15.4897.4897,0,0,1-.14-.37.53078.53078,0,0,1,.14-.37.49745.49745,0,0,1,.37-.15A.54513.54513,0,0,1,82.57,237.95Zm-.01,6.79h-.73v-4.71h.73Z" transform="translate(1 0.01)" fill="#fff"/><path d="M87.36,240.3a1.53521,1.53521,0,0,1,.34,1.06v3.38h-.73v-3.27a1.11439,1.11439,0,0,0-.19-.74.71066.71066,0,0,0-.57-.22,1.08644,1.08644,0,0,0-.68.22,2.05569,2.05569,0,0,0-.54.64v3.36h-.73v-4.71h.63l.06.71a1.98874,1.98874,0,0,1,.63-.6,1.57764,1.57764,0,0,1,.81-.21A1.25018,1.25018,0,0,1,87.36,240.3Z" transform="translate(1 0.01)" fill="#fff"/><path d="M58.56,236.65a4.69441,4.69441,0,0,1,4.13,4.22" transform="translate(1 0.01)" fill="none" stroke="#fff" stroke-miterlimit="10" stroke-width="0.5439"/><path d="M58.56,246.07a4.70364,4.70364,0,0,0,4.13-4.22" transform="translate(1 0.01)" fill="none" stroke="#fff" stroke-miterlimit="10" stroke-width="0.5439"/><path d="M57.6,236.65a4.69441,4.69441,0,0,0-4.13,4.22" transform="translate(1 0.01)" fill="none" stroke="#fff" stroke-miterlimit="10" stroke-width="0.5439"/><path d="M57.6,246.07a4.70364,4.70364,0,0,1-4.13-4.22" transform="translate(1 0.01)" fill="none" stroke="#fff" stroke-miterlimit="10" stroke-width="0.5439"/><polyline points="14.04 241.41 17.67 242.12 21.2 241.39" fill="none" stroke="#fff" stroke-miterlimit="10" stroke-width="0.5439"/><path d="M13.28,245.28l-1.14,1.18a.73964.73964,0,0,1-.36.09h-.35a1.25094,1.25094,0,0,1-1.23-1.27v-2.2a4.36708,4.36708,0,0,1,.13-1.18,2.45739,2.45739,0,0,1,.21-.36s2-2.55,2.01-2.56a1.91468,1.91468,0,0,1,1.34-.67h5.86a1.33154,1.33154,0,0,1,1.05.67c.01.01,2.01,2.56,2.01,2.56a1.391,1.391,0,0,1,.21.36,4.815,4.815,0,0,1,.13,1.18v2.2a1.25094,1.25094,0,0,1-1.23,1.27h-.35a.73964.73964,0,0,1-.36-.09l-1.13-1.18Z" transform="translate(1 0.01)" fill="none" stroke="#fff" stroke-miterlimit="10" stroke-width="0.5439"/><path d="M115.26,243.8h2.72a1.801,1.801,0,0,0,0-3.6,2.32879,2.32879,0,0,0-.38.04c0-.14-.01-.28-.02-.42a3.45749,3.45749,0,0,0-6.52-1.31,2.98377,2.98377,0,0,0-.42-.04,2.64907,2.64907,0,0,0-2.61,2.69,2.61213,2.61213,0,0,0,2.61,2.64h1.84" transform="translate(1 0.01)" fill="none" stroke="#fff" stroke-miterlimit="10" stroke-width="0.5439"/><line x1="114.88" y1="241.09" x2="114.88" y2="246.82" fill="none" stroke="#fff" stroke-miterlimit="10" stroke-width="0.5439"/><polyline points="113.02 245.33 114.87 247.25 116.72 245.33" fill="none" stroke="#fff" stroke-miterlimit="10" stroke-width="0.5439"/></svg>
