<?xml version="1.0" encoding="utf-8"?>
<!-- Generator: Adobe Illustrator 23.0.1, SVG Export Plug-In . SVG Version: 6.00 Build 0)  -->
<svg version="1.1" id="Layer_1" xmlns="http://www.w3.org/2000/svg" xmlns:xlink="http://www.w3.org/1999/xlink" x="0px" y="0px"
	 viewBox="0 0 167.5 85" style="enable-background:new 0 0 167.5 85;" xml:space="preserve">
<style type="text/css">
	.st0{opacity:0.4;}
	.st1{clip-path:url(#SVGID_2_);fill:#48DAD0;}
	.st2{fill:#FFFFFF;}
	.st3{fill:none;stroke:#FFFFFF;stroke-width:0.4351;stroke-miterlimit:10;}
	.st4{fill:none;stroke:#FFFFFF;stroke-width:0.5439;stroke-miterlimit:10;}
</style>
<g>
	<g class="st0">
		<g>
			<defs>
				<rect id="SVGID_1_" x="45.4" width="103.25" height="37.95"/>
			</defs>
			<clipPath id="SVGID_2_">
				<use xlink:href="#SVGID_1_"  style="overflow:visible;"/>
			</clipPath>
			<polygon class="st1" points="45.41,37.95 45.41,0 133.7,0 148.65,15.56 148.65,37.94 137.21,37.95 			"/>
		</g>
	</g>
</g>
<polygon class="st2" points="1.52,82.77 45.7,37.82 148.6,37.82 148.6,38.76 46.07,38.76 2.17,83.44 "/>
<g>
	<path class="st2" d="M1.85,81.21C0.83,81.21,0,82.05,0,83.1C0,84.15,0.83,85,1.85,85c1.02,0,1.85-0.85,1.85-1.9
		C3.69,82.05,2.87,81.21,1.85,81.21"/>
</g>
<g>
	<g>
		<path class="st2" d="M87.56,5.15h-1.27v4.16h-0.57V5.15h-1.31v-0.5h3.21L87.56,5.15z"/>
	</g>
	<g>
		<path class="st2" d="M90.64,9.31h-0.48l-0.05-0.58c-0.13,0.22-0.29,0.39-0.46,0.49c-0.17,0.11-0.38,0.16-0.63,0.16
			c-0.31,0-0.55-0.1-0.72-0.28c-0.17-0.19-0.25-0.46-0.25-0.81V5.74h0.55v2.49c0,0.25,0.04,0.43,0.13,0.54
			c0.09,0.11,0.23,0.16,0.44,0.16c0.36,0,0.66-0.21,0.9-0.64V5.74h0.55V9.31z"/>
	</g>
	<g>
		<path class="st2" d="M93.83,5.7l-0.1,0.56c-0.11-0.03-0.21-0.04-0.3-0.04c-0.22,0-0.4,0.08-0.53,0.24
			c-0.13,0.16-0.24,0.41-0.32,0.76v2.09h-0.55V5.74h0.47l0.05,0.75c0.09-0.27,0.22-0.48,0.38-0.62s0.34-0.21,0.56-0.21
			C93.62,5.66,93.73,5.68,93.83,5.7z"/>
	</g>
	<g>
		<path class="st2" d="M97.11,5.95c0.17,0.19,0.26,0.46,0.26,0.8v2.56h-0.55V6.83c0-0.26-0.05-0.45-0.15-0.56s-0.24-0.17-0.43-0.17
			c-0.19,0-0.36,0.06-0.51,0.17s-0.28,0.28-0.41,0.49v2.54h-0.55V5.74h0.47l0.05,0.54c0.14-0.19,0.3-0.35,0.48-0.45
			s0.39-0.16,0.61-0.16C96.69,5.66,96.93,5.76,97.11,5.95z"/>
	</g>
	<g>
		<path class="st2" d="M100.54,9.19c-0.12-0.13-0.18-0.32-0.18-0.56V4.31l0.55-0.07v4.38c0,0.1,0.02,0.17,0.06,0.22
			c0.04,0.05,0.1,0.07,0.17,0.07c0.08,0,0.16-0.01,0.22-0.04l0.15,0.4c-0.14,0.08-0.29,0.12-0.46,0.12
			C100.83,9.39,100.66,9.32,100.54,9.19z"/>
	</g>
	<g>
		<path class="st2" d="M104.97,7.72h-2.24c0.03,0.41,0.13,0.71,0.3,0.91c0.17,0.19,0.4,0.29,0.67,0.29c0.17,0,0.33-0.02,0.47-0.07
			s0.29-0.13,0.44-0.24l0.24,0.34c-0.36,0.3-0.76,0.45-1.19,0.45c-0.48,0-0.85-0.16-1.12-0.49c-0.27-0.33-0.4-0.77-0.4-1.34
			c0-0.37,0.06-0.7,0.17-0.99s0.28-0.51,0.5-0.67c0.21-0.16,0.47-0.24,0.76-0.24c0.46,0,0.81,0.15,1.05,0.46
			c0.24,0.31,0.36,0.74,0.36,1.28C104.99,7.52,104.98,7.62,104.97,7.72z M104.44,7.25c0-0.37-0.07-0.65-0.21-0.84
			c-0.14-0.19-0.35-0.29-0.64-0.29c-0.25,0-0.45,0.1-0.6,0.29c-0.15,0.19-0.23,0.49-0.25,0.89h1.7V7.25z"/>
	</g>
	<g>
		<path class="st2" d="M106.95,4.82c-0.08,0.08-0.12,0.22-0.12,0.4v0.52h0.86l-0.06,0.44h-0.8v3.12h-0.55V6.18h-0.61V5.74h0.61V5.23
			c0-0.3,0.09-0.54,0.28-0.73c0.19-0.18,0.44-0.27,0.78-0.27c0.15,0,0.29,0.01,0.42,0.04c0.13,0.03,0.26,0.08,0.4,0.14l-0.18,0.41
			c-0.2-0.09-0.4-0.14-0.61-0.14C107.17,4.7,107.03,4.74,106.95,4.82z"/>
	</g>
	<g>
		<path class="st2" d="M110.59,9.15c-0.23,0.16-0.48,0.24-0.76,0.24c-0.29,0-0.52-0.09-0.68-0.26c-0.16-0.17-0.24-0.42-0.24-0.74
			V6.18h-0.6V5.74h0.6V4.92l0.55-0.06v0.88h0.84l-0.06,0.44h-0.78v2.18c0,0.19,0.03,0.33,0.1,0.42c0.07,0.09,0.18,0.13,0.33,0.13
			c0.15,0,0.31-0.05,0.48-0.15L110.59,9.15z"/>
	</g>
	<g>
		<path class="st2" d="M113.55,4.17c0.07,0.07,0.11,0.17,0.11,0.28s-0.04,0.21-0.11,0.28c-0.07,0.07-0.17,0.11-0.29,0.11
			c-0.11,0-0.21-0.04-0.28-0.11c-0.07-0.07-0.11-0.17-0.11-0.28s0.04-0.21,0.11-0.28c0.07-0.07,0.17-0.11,0.28-0.11
			C113.38,4.06,113.48,4.1,113.55,4.17z M113.55,9.31h-0.55V5.74h0.55V9.31z"/>
	</g>
	<g>
		<path class="st2" d="M117.26,5.95c0.17,0.19,0.26,0.46,0.26,0.8v2.56h-0.55V6.83c0-0.26-0.05-0.45-0.15-0.56s-0.24-0.17-0.43-0.17
			c-0.19,0-0.36,0.06-0.51,0.17s-0.28,0.28-0.41,0.49v2.54h-0.55V5.74h0.47l0.05,0.54c0.14-0.19,0.3-0.35,0.48-0.45
			s0.39-0.16,0.61-0.16C116.84,5.66,117.09,5.76,117.26,5.95z"/>
	</g>
	<g>
		<path class="st2" d="M91.88,12.97c0.7,0.71,1.04,1.62,1.04,2.73c0,0.94-0.19,1.82-0.57,2.65s-0.97,1.73-1.78,2.71
			c-0.81,0.98-2.11,2.45-3.91,4.4h6.65l-0.17,1.11h-7.91V25.5c1.93-2.11,3.31-3.68,4.15-4.7c0.84-1.02,1.43-1.9,1.77-2.65
			c0.34-0.74,0.52-1.54,0.52-2.4c0-0.85-0.24-1.53-0.73-2.04c-0.49-0.51-1.13-0.76-1.93-0.76c-0.65,0-1.22,0.14-1.72,0.41
			c-0.5,0.27-0.97,0.69-1.42,1.24l-0.84-0.65c0.56-0.71,1.17-1.23,1.83-1.56c0.65-0.33,1.4-0.5,2.23-0.5
			C90.24,11.91,91.18,12.26,91.88,12.97z"/>
	</g>
	<g>
		<path class="st2" d="M103.35,13.8c0.75,1.27,1.12,3.12,1.12,5.56c0,2.43-0.38,4.28-1.13,5.54s-1.85,1.9-3.28,1.9
			c-1.45,0-2.55-0.63-3.29-1.9c-0.75-1.27-1.12-3.12-1.12-5.56c0-2.44,0.37-4.29,1.12-5.55c0.75-1.26,1.84-1.89,3.29-1.89
			C101.5,11.91,102.6,12.54,103.35,13.8z M96.91,19.34c0,4.28,1.05,6.42,3.14,6.42c1.03,0,1.8-0.52,2.33-1.56
			c0.53-1.04,0.79-2.65,0.79-4.84c0-2.18-0.26-3.8-0.79-4.85c-0.53-1.05-1.31-1.57-2.33-1.57C97.96,12.95,96.91,15.08,96.91,19.34z"
			/>
	</g>
	<g>
		<path class="st2" d="M122.56,15.92c0.51,0.62,0.77,1.47,0.77,2.54v8.11h-1.22v-7.94c0-0.9-0.17-1.56-0.5-1.98
			c-0.33-0.43-0.79-0.64-1.38-0.64c-0.62,0-1.17,0.2-1.67,0.61c-0.49,0.4-0.97,0.98-1.44,1.74v8.22h-1.22v-7.94
			c0-0.9-0.17-1.56-0.5-1.98c-0.33-0.43-0.79-0.64-1.38-0.64c-0.63,0-1.2,0.2-1.69,0.61c-0.49,0.4-0.96,0.98-1.41,1.74v8.22h-1.22
			V15.22h1.05l0.11,1.93c0.42-0.68,0.92-1.21,1.5-1.59c0.58-0.38,1.21-0.57,1.9-0.57c0.7,0,1.29,0.2,1.77,0.6
			c0.48,0.4,0.8,0.95,0.97,1.66c0.44-0.71,0.95-1.26,1.53-1.66c0.58-0.4,1.23-0.6,1.93-0.6C121.35,14.98,122.05,15.3,122.56,15.92z"
			/>
	</g>
	<g>
		<path class="st2" d="M86.74,31.01h-1.43v1.26h1.24v0.38h-1.24v1.33h1.52v0.38h-1.97v-3.73h1.94L86.74,31.01z"/>
		<path class="st2" d="M89.5,31.68c0.14,0.16,0.21,0.37,0.21,0.64v2.04h-0.44v-1.98c0-0.21-0.04-0.36-0.12-0.45
			c-0.08-0.09-0.19-0.13-0.34-0.13c-0.16,0-0.29,0.05-0.41,0.14s-0.23,0.22-0.33,0.39v2.03h-0.44v-2.85H88l0.04,0.43
			c0.11-0.16,0.24-0.28,0.38-0.36c0.15-0.09,0.31-0.13,0.49-0.13C89.16,31.44,89.36,31.52,89.5,31.68z"/>
		<path class="st2" d="M92.08,34.24c-0.18,0.13-0.39,0.19-0.61,0.19c-0.23,0-0.41-0.07-0.54-0.21c-0.13-0.14-0.19-0.33-0.19-0.59
			v-1.77h-0.48v-0.35h0.48v-0.66l0.44-0.05v0.71h0.67l-0.05,0.35h-0.62v1.75c0,0.15,0.03,0.26,0.08,0.33
			c0.05,0.07,0.14,0.11,0.27,0.11s0.25-0.04,0.39-0.12L92.08,34.24z"/>
		<path class="st2" d="M94.03,31.48l-0.08,0.44c-0.08-0.02-0.17-0.03-0.24-0.03c-0.18,0-0.32,0.06-0.42,0.19
			c-0.11,0.13-0.19,0.33-0.26,0.61v1.67h-0.44v-2.85h0.38l0.04,0.6c0.07-0.22,0.17-0.38,0.3-0.49c0.13-0.11,0.28-0.17,0.45-0.17
			C93.87,31.44,93.96,31.45,94.03,31.48z"/>
		<path class="st2" d="M96.5,33.98c0.04,0.06,0.1,0.1,0.18,0.13l-0.11,0.32c-0.14-0.02-0.25-0.07-0.34-0.13
			c-0.08-0.07-0.14-0.17-0.18-0.31c-0.19,0.29-0.47,0.44-0.83,0.44c-0.27,0-0.48-0.08-0.64-0.24c-0.16-0.16-0.24-0.37-0.24-0.63
			c0-0.3,0.1-0.53,0.31-0.69c0.21-0.16,0.5-0.24,0.89-0.24H96V32.4c0-0.21-0.05-0.35-0.15-0.45s-0.25-0.14-0.45-0.14
			c-0.21,0-0.46,0.05-0.75,0.16l-0.11-0.34c0.33-0.13,0.65-0.2,0.94-0.2c0.32,0,0.56,0.08,0.72,0.24c0.16,0.16,0.24,0.39,0.24,0.7
			v1.32C96.45,33.83,96.46,33.92,96.5,33.98z M96,33.61v-0.68h-0.4c-0.53,0-0.79,0.2-0.79,0.61c0,0.17,0.04,0.31,0.13,0.4
			c0.09,0.09,0.21,0.14,0.38,0.14C95.62,34.08,95.84,33.92,96,33.61z"/>
		<path class="st2" d="M99.34,31.68c0.14,0.16,0.21,0.37,0.21,0.64v2.04h-0.44v-1.98c0-0.21-0.04-0.36-0.12-0.45
			c-0.08-0.09-0.19-0.13-0.34-0.13c-0.16,0-0.29,0.05-0.41,0.14s-0.23,0.22-0.33,0.39v2.03h-0.44v-2.85h0.38l0.04,0.43
			c0.11-0.16,0.24-0.28,0.38-0.36c0.15-0.09,0.31-0.13,0.49-0.13C99.01,31.44,99.21,31.52,99.34,31.68z"/>
		<path class="st2" d="M102,31.51c0.13,0.05,0.26,0.12,0.38,0.23l-0.22,0.29c-0.1-0.07-0.19-0.13-0.29-0.16
			c-0.09-0.03-0.2-0.05-0.32-0.05c-0.23,0-0.41,0.09-0.55,0.28c-0.13,0.19-0.2,0.47-0.2,0.84c0,0.37,0.07,0.64,0.2,0.82
			c0.13,0.18,0.31,0.27,0.55,0.27c0.11,0,0.21-0.02,0.31-0.05c0.09-0.04,0.19-0.09,0.3-0.17l0.21,0.3
			c-0.24,0.21-0.52,0.31-0.83,0.31c-0.37,0-0.67-0.13-0.88-0.39c-0.21-0.26-0.32-0.62-0.32-1.08c0-0.3,0.05-0.57,0.14-0.8
			c0.1-0.23,0.24-0.4,0.42-0.53c0.18-0.12,0.39-0.19,0.64-0.19C101.72,31.44,101.87,31.47,102,31.51z"/>
		<path class="st2" d="M105.12,33.09h-1.79c0.02,0.33,0.1,0.57,0.24,0.73c0.14,0.16,0.32,0.23,0.54,0.23c0.14,0,0.26-0.02,0.37-0.06
			c0.11-0.04,0.23-0.1,0.35-0.2l0.2,0.27c-0.29,0.24-0.61,0.36-0.96,0.36c-0.38,0-0.68-0.13-0.89-0.39
			c-0.21-0.26-0.32-0.62-0.32-1.07c0-0.3,0.05-0.56,0.14-0.79c0.09-0.23,0.22-0.41,0.4-0.54c0.17-0.13,0.38-0.19,0.61-0.19
			c0.37,0,0.65,0.12,0.84,0.37s0.29,0.59,0.29,1.03C105.13,32.93,105.13,33.01,105.12,33.09z M104.69,32.71
			c0-0.29-0.06-0.52-0.17-0.67s-0.28-0.23-0.51-0.23c-0.2,0-0.36,0.08-0.48,0.23c-0.12,0.16-0.19,0.39-0.2,0.72h1.36V32.71z"/>
		<path class="st2" d="M109.26,31.84c0.21,0.27,0.32,0.63,0.32,1.09c0,0.46-0.11,0.82-0.32,1.09c-0.22,0.27-0.52,0.41-0.9,0.41
			c-0.38,0-0.68-0.13-0.9-0.4c-0.21-0.27-0.32-0.63-0.32-1.09c0-0.46,0.11-0.82,0.32-1.09c0.22-0.27,0.52-0.41,0.9-0.41
			C108.75,31.44,109.05,31.58,109.26,31.84z M107.81,32.09c-0.13,0.19-0.19,0.47-0.19,0.85c0,0.37,0.06,0.65,0.19,0.84
			c0.13,0.19,0.31,0.28,0.55,0.28c0.24,0,0.43-0.09,0.56-0.28c0.13-0.19,0.19-0.47,0.19-0.85c0-0.37-0.06-0.65-0.19-0.84
			c-0.13-0.19-0.31-0.28-0.55-0.28C108.12,31.81,107.94,31.91,107.81,32.09z"/>
		<path class="st2" d="M112.29,31.68c0.14,0.16,0.21,0.37,0.21,0.64v2.04h-0.44v-1.98c0-0.21-0.04-0.36-0.12-0.45
			c-0.08-0.09-0.19-0.13-0.34-0.13c-0.16,0-0.29,0.05-0.41,0.14s-0.23,0.22-0.33,0.39v2.03h-0.44v-2.85h0.38l0.04,0.43
			c0.11-0.16,0.24-0.28,0.38-0.36c0.15-0.09,0.31-0.13,0.49-0.13C111.95,31.44,112.15,31.52,112.29,31.68z"/>
		<path class="st2" d="M115.03,34.27c-0.1-0.1-0.15-0.25-0.15-0.45v-3.46l0.44-0.05v3.5c0,0.08,0.02,0.14,0.04,0.18
			c0.03,0.04,0.08,0.06,0.14,0.06c0.07,0,0.13-0.01,0.18-0.03l0.12,0.32c-0.11,0.06-0.24,0.09-0.37,0.09
			C115.27,34.42,115.13,34.37,115.03,34.27z"/>
		<path class="st2" d="M118.5,33.09h-1.79c0.02,0.33,0.1,0.57,0.24,0.73c0.14,0.16,0.32,0.23,0.54,0.23c0.14,0,0.26-0.02,0.37-0.06
			c0.11-0.04,0.23-0.1,0.35-0.2l0.2,0.27c-0.29,0.24-0.61,0.36-0.96,0.36c-0.38,0-0.68-0.13-0.89-0.39
			c-0.21-0.26-0.32-0.62-0.32-1.07c0-0.3,0.05-0.56,0.14-0.79c0.09-0.23,0.22-0.41,0.4-0.54c0.17-0.13,0.38-0.19,0.61-0.19
			c0.37,0,0.65,0.12,0.84,0.37s0.29,0.59,0.29,1.03C118.51,32.93,118.51,33.01,118.5,33.09z M118.07,32.71
			c0-0.29-0.06-0.52-0.17-0.67s-0.28-0.23-0.51-0.23c-0.2,0-0.36,0.08-0.48,0.23c-0.12,0.16-0.19,0.39-0.2,0.72h1.36V32.71z"/>
		<path class="st2" d="M119.9,30.77c-0.07,0.07-0.1,0.17-0.1,0.32v0.41h0.69l-0.05,0.35h-0.64v2.5h-0.44v-2.5h-0.49v-0.35h0.49V31.1
			c0-0.24,0.07-0.44,0.22-0.58c0.15-0.14,0.35-0.22,0.62-0.22c0.12,0,0.24,0.01,0.34,0.04c0.1,0.02,0.21,0.06,0.32,0.11l-0.14,0.33
			c-0.16-0.07-0.32-0.11-0.49-0.11C120.07,30.67,119.96,30.71,119.9,30.77z"/>
		<path class="st2" d="M122.43,34.24c-0.18,0.13-0.39,0.19-0.61,0.19c-0.23,0-0.41-0.07-0.54-0.21c-0.13-0.14-0.19-0.33-0.19-0.59
			v-1.77h-0.48v-0.35h0.48v-0.66l0.44-0.05v0.71h0.67l-0.05,0.35h-0.62v1.75c0,0.15,0.03,0.26,0.08,0.33
			c0.05,0.07,0.14,0.11,0.27,0.11s0.25-0.04,0.39-0.12L122.43,34.24z"/>
		<path class="st2" d="M125.57,30.81c0.16,0.08,0.28,0.19,0.36,0.33c0.08,0.14,0.12,0.29,0.12,0.46c0,0.22-0.06,0.41-0.19,0.55
			c-0.13,0.14-0.29,0.24-0.5,0.28c0.23,0.02,0.42,0.11,0.57,0.26s0.22,0.36,0.22,0.62c0,0.21-0.05,0.4-0.15,0.57
			c-0.1,0.17-0.23,0.3-0.41,0.4s-0.39,0.14-0.62,0.14c-0.43,0-0.78-0.16-1.05-0.48l0.27-0.25c0.12,0.13,0.24,0.22,0.36,0.28
			c0.12,0.06,0.26,0.09,0.41,0.09c0.23,0,0.41-0.07,0.54-0.2c0.13-0.13,0.2-0.31,0.2-0.53c0-0.25-0.06-0.42-0.18-0.52
			s-0.3-0.15-0.53-0.15h-0.26l0.05-0.35h0.18c0.19,0,0.34-0.06,0.47-0.17c0.12-0.12,0.19-0.28,0.19-0.49c0-0.18-0.05-0.32-0.16-0.42
			s-0.26-0.15-0.44-0.15c-0.14,0-0.27,0.03-0.38,0.08c-0.11,0.05-0.23,0.13-0.36,0.25l-0.23-0.27c0.3-0.28,0.63-0.42,1-0.42
			C125.23,30.68,125.41,30.73,125.57,30.81z"/>
		<path class="st2" d="M128.79,31.16c0.2,0.32,0.29,0.78,0.29,1.39c0,0.61-0.1,1.07-0.29,1.39c-0.2,0.32-0.49,0.48-0.87,0.48
			c-0.38,0-0.67-0.16-0.87-0.48c-0.2-0.32-0.29-0.79-0.29-1.4s0.1-1.07,0.29-1.39c0.2-0.32,0.48-0.47,0.87-0.47
			C128.3,30.68,128.59,30.84,128.79,31.16z M127.39,31.4c-0.12,0.24-0.17,0.62-0.17,1.14c0,0.53,0.06,0.91,0.17,1.15
			c0.12,0.24,0.29,0.36,0.53,0.36c0.23,0,0.41-0.12,0.52-0.36c0.12-0.24,0.18-0.62,0.18-1.15c0-0.53-0.06-0.91-0.18-1.15
			c-0.12-0.24-0.29-0.36-0.52-0.36C127.68,31.05,127.51,31.17,127.39,31.4z"/>
	</g>
	<g>
		<path class="st2" d="M134.36,31.68c0.13,0.16,0.2,0.37,0.2,0.64v2.04h-0.44v-1.98c0-0.39-0.13-0.58-0.41-0.58
			c-0.14,0-0.27,0.04-0.37,0.13c-0.1,0.09-0.21,0.22-0.32,0.4v2.03h-0.44v-1.98c0-0.39-0.14-0.58-0.41-0.58
			c-0.14,0-0.26,0.04-0.37,0.13c-0.1,0.09-0.21,0.22-0.31,0.4v2.03h-0.44v-2.85h0.38l0.04,0.43c0.22-0.33,0.49-0.49,0.81-0.49
			c0.17,0,0.32,0.05,0.44,0.14c0.12,0.09,0.21,0.22,0.26,0.39c0.23-0.35,0.5-0.53,0.84-0.53C134.05,31.44,134.23,31.52,134.36,31.68
			z"/>
	</g>
</g>
<rect x="77.02" y="4.36" class="st2" width="0.53" height="27.74"/>
<polygon class="st2" points="65.25,29.39 63.68,29.39 63.68,17.3 59.62,13.31 60.78,12.14 65.25,16.65 "/>
<polygon class="st2" points="62.75,10.96 58.11,10.77 58.3,15.54 56.81,17.05 56.62,9.24 64.22,9.43 "/>
<g>
	<path class="st2" d="M156.68,38.2h-0.55v-3.92l-1.04,0.66l-0.24-0.41l1.35-0.86h0.49V38.2z"/>
	<path class="st2" d="M160.48,36.28c0.16,0.2,0.23,0.44,0.23,0.72c0,0.25-0.06,0.47-0.19,0.67c-0.13,0.2-0.3,0.35-0.53,0.46
		c-0.23,0.11-0.49,0.16-0.78,0.16c-0.29,0-0.55-0.05-0.78-0.16s-0.4-0.26-0.52-0.45c-0.12-0.19-0.18-0.41-0.18-0.66
		c0-0.28,0.08-0.52,0.23-0.72c0.15-0.19,0.37-0.35,0.66-0.48c-0.24-0.12-0.42-0.27-0.53-0.44c-0.11-0.17-0.17-0.38-0.17-0.62
		c0-0.24,0.06-0.45,0.19-0.62c0.12-0.17,0.28-0.31,0.48-0.4s0.41-0.14,0.64-0.14s0.44,0.04,0.64,0.13s0.36,0.21,0.49,0.39
		c0.12,0.17,0.19,0.38,0.19,0.62c0,0.23-0.06,0.42-0.18,0.58s-0.31,0.31-0.57,0.45C160.09,35.91,160.33,36.08,160.48,36.28z
		 M159.89,37.6c0.17-0.15,0.25-0.35,0.25-0.6c0-0.17-0.03-0.31-0.09-0.42c-0.06-0.11-0.16-0.21-0.3-0.29
		c-0.14-0.08-0.33-0.17-0.57-0.26L159,35.96c-0.24,0.11-0.41,0.25-0.52,0.41s-0.17,0.38-0.17,0.63c0,0.26,0.08,0.46,0.24,0.6
		c0.16,0.14,0.38,0.21,0.67,0.21C159.5,37.82,159.72,37.75,159.89,37.6z M158.66,34.23c-0.14,0.13-0.21,0.31-0.21,0.54
		c0,0.22,0.06,0.38,0.19,0.5c0.13,0.12,0.33,0.23,0.62,0.33l0.13,0.05c0.21-0.12,0.36-0.25,0.46-0.38c0.09-0.13,0.14-0.3,0.14-0.49
		c0-0.23-0.07-0.4-0.2-0.54c-0.14-0.13-0.33-0.2-0.57-0.2C158.99,34.03,158.8,34.1,158.66,34.23z"/>
</g>
<g>
	<path class="st2" d="M167.25,34.85c0.17,0.2,0.25,0.46,0.25,0.8v2.56h-0.55v-2.47c0-0.48-0.17-0.73-0.51-0.73
		c-0.18,0-0.33,0.05-0.46,0.16c-0.13,0.11-0.26,0.27-0.4,0.49v2.54h-0.55v-2.47c0-0.48-0.17-0.73-0.51-0.73
		c-0.18,0-0.33,0.05-0.46,0.16s-0.26,0.27-0.39,0.49v2.54h-0.55v-3.57h0.47l0.05,0.54c0.27-0.41,0.61-0.62,1.02-0.62
		c0.22,0,0.4,0.06,0.55,0.18c0.15,0.12,0.26,0.28,0.32,0.49c0.28-0.44,0.63-0.66,1.05-0.66C166.85,34.55,167.08,34.65,167.25,34.85z
		"/>
</g>
<polygon class="st2" points="154.59,28.53 154.59,11.88 161.23,11.88 161.23,25.31 160.75,25.31 160.75,12.37 155.07,12.37 
	155.07,28.03 161.23,28.03 161.23,28.53 "/>
<path class="st3" d="M157.92,17.14c0.88,0,1.6-0.73,1.6-1.64s-0.72-1.64-1.6-1.64c-0.88,0-1.6,0.73-1.6,1.64
	S157.03,17.14,157.92,17.14"/>
<path class="st3" d="M157.92,21.87c0.88,0,1.6-0.73,1.6-1.64c0-0.91-0.72-1.64-1.6-1.64c-0.88,0-1.6,0.73-1.6,1.64
	C156.32,21.13,157.03,21.87,157.92,21.87"/>
<path class="st3" d="M157.92,26.49c0.88,0,1.6-0.73,1.6-1.64s-0.72-1.64-1.6-1.64c-0.88,0-1.6,0.73-1.6,1.64
	S157.03,26.49,157.92,26.49"/>
<g>
	<path class="st2" d="M65.28,46c0.41,0.33,0.61,0.93,0.61,1.81c0,0.87-0.21,1.48-0.62,1.83s-0.91,0.53-1.5,0.53h-1.05v-4.66h0.94
		C64.33,45.51,64.87,45.67,65.28,46z M63.29,45.98v3.72h0.53c0.43,0,0.78-0.14,1.05-0.41c0.27-0.27,0.41-0.77,0.41-1.48
		c0-0.5-0.07-0.89-0.21-1.16c-0.14-0.27-0.32-0.45-0.53-0.54c-0.22-0.09-0.47-0.13-0.76-0.13H63.29z"/>
</g>
<g>
	<path class="st2" d="M69.31,47.02c0.27,0.33,0.4,0.79,0.4,1.36c0,0.57-0.13,1.02-0.41,1.36s-0.65,0.51-1.12,0.51
		c-0.48,0-0.85-0.17-1.12-0.5c-0.27-0.33-0.4-0.79-0.4-1.36c0-0.57,0.14-1.02,0.41-1.36s0.64-0.51,1.12-0.51
		C68.67,46.53,69.04,46.69,69.31,47.02z M67.49,47.34c-0.16,0.23-0.24,0.59-0.24,1.06c0,0.46,0.08,0.81,0.24,1.05
		s0.39,0.35,0.69,0.35c0.3,0,0.54-0.12,0.7-0.35c0.16-0.23,0.24-0.59,0.24-1.06c0-0.47-0.08-0.81-0.24-1.05
		c-0.16-0.23-0.39-0.35-0.69-0.35C67.88,46.99,67.65,47.1,67.49,47.34z"/>
</g>
<g>
	<path class="st2" d="M73.79,50.17h-0.76l-0.64-3.05l-0.66,3.05H71l-0.82-3.57h0.56l0.65,3.17l0.71-3.17h0.62l0.69,3.17l0.66-3.17
		h0.53L73.79,50.17z"/>
	<path class="st2" d="M77.73,46.82c0.17,0.19,0.26,0.46,0.26,0.8v2.56h-0.55V47.7c0-0.26-0.05-0.45-0.15-0.56s-0.24-0.17-0.43-0.17
		c-0.19,0-0.36,0.06-0.51,0.17c-0.15,0.11-0.28,0.28-0.41,0.49v2.54h-0.55v-3.57h0.47l0.05,0.54c0.14-0.19,0.3-0.35,0.48-0.45
		s0.39-0.16,0.61-0.16C77.31,46.53,77.55,46.62,77.73,46.82z"/>
</g>
<g>
	<path class="st2" d="M79.39,50.06c-0.12-0.13-0.18-0.32-0.18-0.56v-4.32l0.55-0.07v4.38c0,0.1,0.02,0.17,0.06,0.22
		c0.04,0.05,0.1,0.07,0.17,0.07c0.08,0,0.16-0.01,0.22-0.04l0.15,0.4c-0.14,0.08-0.29,0.12-0.46,0.12
		C79.68,50.25,79.51,50.19,79.39,50.06z"/>
</g>
<g>
	<path class="st2" d="M83.5,47.02c0.27,0.33,0.4,0.79,0.4,1.36c0,0.57-0.13,1.02-0.41,1.36s-0.65,0.51-1.12,0.51
		c-0.48,0-0.85-0.17-1.12-0.5c-0.27-0.33-0.4-0.79-0.4-1.36c0-0.57,0.14-1.02,0.41-1.36s0.64-0.51,1.12-0.51
		C82.85,46.53,83.23,46.69,83.5,47.02z M81.68,47.34c-0.16,0.23-0.24,0.59-0.24,1.06c0,0.46,0.08,0.81,0.24,1.05
		s0.39,0.35,0.69,0.35c0.3,0,0.54-0.12,0.7-0.35c0.16-0.23,0.24-0.59,0.24-1.06c0-0.47-0.08-0.81-0.24-1.05
		c-0.16-0.23-0.39-0.35-0.69-0.35C82.07,46.99,81.84,47.1,81.68,47.34z"/>
	<path class="st2" d="M87.3,49.7c0.05,0.07,0.12,0.12,0.22,0.16l-0.13,0.4c-0.18-0.03-0.32-0.08-0.42-0.17
		c-0.11-0.08-0.18-0.21-0.22-0.38c-0.24,0.37-0.58,0.55-1.04,0.55c-0.34,0-0.61-0.1-0.8-0.29c-0.2-0.2-0.29-0.46-0.29-0.78
		c0-0.38,0.13-0.66,0.39-0.86s0.63-0.3,1.11-0.3h0.57v-0.29c0-0.26-0.06-0.44-0.18-0.56s-0.31-0.17-0.56-0.17
		c-0.26,0-0.58,0.07-0.94,0.2l-0.14-0.42c0.42-0.16,0.81-0.24,1.17-0.24c0.4,0,0.71,0.1,0.9,0.3s0.3,0.49,0.3,0.87v1.65
		C87.23,49.51,87.25,49.62,87.3,49.7z M86.67,49.24v-0.85h-0.5c-0.66,0-0.99,0.25-0.99,0.76c0,0.22,0.05,0.38,0.16,0.5
		c0.11,0.12,0.26,0.17,0.47,0.17C86.19,49.82,86.47,49.63,86.67,49.24z"/>
	<path class="st2" d="M91.14,45.17v5h-0.48l-0.06-0.5c-0.12,0.18-0.26,0.32-0.43,0.43c-0.17,0.1-0.37,0.16-0.58,0.16
		c-0.41,0-0.73-0.17-0.96-0.5s-0.34-0.78-0.34-1.35c0-0.37,0.05-0.69,0.17-0.97c0.11-0.28,0.27-0.5,0.47-0.66
		c0.2-0.16,0.45-0.24,0.72-0.24c0.36,0,0.67,0.15,0.94,0.45V45.1L91.14,45.17z M90.19,49.66c0.14-0.09,0.27-0.23,0.39-0.42v-1.78
		c-0.11-0.15-0.24-0.27-0.37-0.36c-0.13-0.08-0.28-0.12-0.46-0.12c-0.28,0-0.49,0.12-0.65,0.36c-0.16,0.24-0.23,0.59-0.23,1.06
		c0,0.46,0.07,0.82,0.21,1.05c0.14,0.24,0.35,0.35,0.61,0.35C89.89,49.8,90.06,49.75,90.19,49.66z"/>
	<path class="st2" d="M92.99,45.04c0.07,0.08,0.11,0.17,0.11,0.28c0,0.11-0.04,0.21-0.11,0.28c-0.07,0.08-0.17,0.11-0.29,0.11
		c-0.11,0-0.21-0.04-0.28-0.11c-0.07-0.07-0.11-0.17-0.11-0.28c0-0.11,0.04-0.21,0.11-0.28c0.07-0.07,0.17-0.11,0.28-0.11
		C92.82,44.93,92.91,44.96,92.99,45.04z M92.98,50.17h-0.55v-3.57h0.55V50.17z"/>
	<path class="st2" d="M96.61,46.82c0.17,0.19,0.26,0.46,0.26,0.8v2.56h-0.55V47.7c0-0.26-0.05-0.45-0.15-0.56s-0.24-0.17-0.43-0.17
		c-0.19,0-0.36,0.06-0.51,0.17c-0.15,0.11-0.28,0.28-0.41,0.49v2.54h-0.55v-3.57h0.47l0.05,0.54c0.14-0.19,0.3-0.35,0.48-0.45
		s0.39-0.16,0.61-0.16C96.19,46.53,96.44,46.62,96.61,46.82z"/>
	<path class="st2" d="M100.87,46.75c-0.13,0.04-0.27,0.07-0.42,0.08c-0.15,0.01-0.35,0.02-0.58,0.03c0.4,0.19,0.61,0.49,0.61,0.92
		c0,0.36-0.12,0.65-0.35,0.87c-0.24,0.22-0.55,0.33-0.95,0.33c-0.16,0-0.31-0.02-0.44-0.07c-0.06,0.04-0.11,0.09-0.14,0.15
		c-0.03,0.06-0.05,0.13-0.05,0.2c0,0.2,0.16,0.3,0.47,0.3h0.55c0.23,0,0.44,0.04,0.61,0.13c0.18,0.08,0.31,0.2,0.41,0.35
		c0.1,0.15,0.14,0.31,0.14,0.5c0,0.35-0.13,0.61-0.4,0.8c-0.27,0.18-0.67,0.28-1.19,0.28c-0.54,0-0.92-0.08-1.14-0.25
		c-0.22-0.17-0.33-0.44-0.33-0.81h0.5c0,0.15,0.03,0.27,0.08,0.36c0.06,0.09,0.16,0.15,0.3,0.2s0.34,0.06,0.59,0.06
		c0.37,0,0.63-0.05,0.79-0.15c0.16-0.1,0.24-0.24,0.24-0.44c0-0.17-0.06-0.3-0.19-0.39c-0.12-0.09-0.3-0.14-0.53-0.14H98.9
		c-0.29,0-0.5-0.06-0.66-0.19c-0.15-0.13-0.23-0.29-0.23-0.47c0-0.12,0.03-0.23,0.1-0.34c0.06-0.11,0.16-0.2,0.28-0.29
		c-0.2-0.11-0.34-0.24-0.44-0.4c-0.09-0.16-0.14-0.36-0.14-0.59c0-0.24,0.06-0.45,0.17-0.64c0.11-0.19,0.27-0.33,0.47-0.44
		c0.2-0.1,0.43-0.16,0.68-0.16c0.28,0,0.51,0,0.69-0.03s0.33-0.05,0.46-0.09c0.12-0.04,0.26-0.1,0.42-0.18L100.87,46.75z
		 M98.58,47.17c-0.13,0.15-0.19,0.35-0.19,0.59c0,0.25,0.07,0.46,0.2,0.61s0.32,0.23,0.56,0.23c0.25,0,0.43-0.07,0.56-0.22
		s0.19-0.35,0.19-0.62s-0.06-0.47-0.19-0.61c-0.13-0.14-0.32-0.21-0.58-0.21C98.89,46.94,98.71,47.02,98.58,47.17z"/>
	<path class="st2" d="M103.72,49.5c0.08,0.08,0.12,0.19,0.12,0.31s-0.04,0.23-0.12,0.31c-0.08,0.09-0.18,0.13-0.31,0.13
		c-0.12,0-0.22-0.04-0.3-0.13c-0.08-0.08-0.12-0.19-0.12-0.31c0-0.12,0.04-0.22,0.12-0.3c0.08-0.09,0.18-0.13,0.3-0.13
		C103.53,49.38,103.63,49.42,103.72,49.5z M105.3,49.5c0.08,0.08,0.12,0.19,0.12,0.31s-0.04,0.23-0.12,0.31
		c-0.08,0.09-0.18,0.13-0.31,0.13c-0.12,0-0.22-0.04-0.3-0.13c-0.08-0.08-0.12-0.19-0.12-0.31c0-0.12,0.04-0.22,0.12-0.3
		s0.18-0.13,0.3-0.13C105.11,49.38,105.22,49.42,105.3,49.5z M106.88,49.5c0.08,0.08,0.12,0.19,0.12,0.31s-0.04,0.23-0.12,0.31
		c-0.08,0.09-0.18,0.13-0.31,0.13c-0.12,0-0.22-0.04-0.3-0.13c-0.08-0.08-0.12-0.19-0.12-0.31c0-0.12,0.04-0.22,0.12-0.3
		s0.18-0.13,0.3-0.13C106.7,49.38,106.8,49.42,106.88,49.5z"/>
</g>
<g>
	<path class="st4" d="M54.97,50.56h0.42h1.64c0.73,0,1.32-0.62,1.32-1.37c0-0.75-0.59-1.36-1.32-1.36c-0.1,0-0.19,0.01-0.29,0.03
		c0-0.1,0-0.21-0.02-0.32c-0.16-1.49-1.47-2.56-2.92-2.39c-0.89,0.1-1.63,0.65-2.02,1.4c-0.1-0.02-0.21-0.03-0.32-0.03
		c-1.09,0-1.98,0.91-1.98,2.03c0,1.12,0.89,1.99,1.98,1.99h0.12h1.27"/>
</g>
<line class="st4" x1="53.92" y1="48.5" x2="53.92" y2="52.84"/>
<polyline class="st4" points="52.52,51.71 53.92,53.16 55.32,51.71 "/>
</svg>
