<?xml version="1.0" encoding="utf-8"?>
<!-- Generator: Adobe Illustrator 23.0.1, SVG Export Plug-In . SVG Version: 6.00 Build 0)  -->
<svg version="1.1" baseProfile="basic" id="HERE_x5F_Logo_x5F_2016"
	 xmlns="http://www.w3.org/2000/svg" xmlns:xlink="http://www.w3.org/1999/xlink" x="0px" y="0px" viewBox="0 0 283.5 259.1"
	 xml:space="preserve">
<g id="Logo">
	<rect style="fill:#FF0000;" width="283.5" height="259.1"/>
	<path id="triangle" style="fill:#48DAD0;" d="M78.2,220l-39.1,39.1L0,220H78.2z"/>
	<path id="here" style="fill:#FFFFFF;" d="M135.4,131.2c-8.2-9.7-7.8-14.9-2.7-20c6.1-6.1,12.4-3.5,19.4,3.3L135.4,131.2z M219.1,24.8c6.1-6.1,12.4-3.5,19.4,3.3l-16.7,16.7C213.6,35.1,214,29.9,219.1,24.8z M269.6,41.9C262,53.2,248.9,71.7,235,57.8 l35.1-35.1c-3.1-3.4-5.5-6.2-7.4-8c-18.9-19-40.2-19.2-56.9-2.6c-11.2,11.1-14.1,23.9-10.8,36l-11-12.5 c-3.2,1.8-16.7,13.6-6.6,31.6l-12.6-10.5l-16.7,16.7l22.6,22.6c-17.4-13.8-36.2-12.5-51.3,2.6c-16.2,16.1-15,35.6-2.9,51.7 l-2.4-2.4C98,131.8,80.7,137.4,72.1,146c-6.6,6.6-10.7,15.8-9,22.1l-34.6-34.6l-18.4,18.4L78.2,220h36.6l-24.6-24.6 c-12.9-13.1-13.1-20.1-6.8-26.3c6.1-6,13.1-2.3,25.5,10.1l24.3,24.3l18.3-18.3l-23-23c16.6,12.6,36.5,13.2,54.3-4.5 c0.1-0.1,0.2-0.2,0.3-0.3l0,0c10.9-10.1,14.1-19.8,14.1-19.8l-13.8-9.3c-7.6,11.4-20.8,29.8-34.6,16l35.2-35.2l21.9,21.9l19.1-19.1 l-27.4-27.4c-12.8-12.8-5.2-24.8,0.1-29.4c2.5,5.3,6.1,10.4,10.8,15c17.7,17.8,40.7,21.4,60.8,1.3c0.1-0.1,0.2-0.2,0.3-0.3l0,0 c10.9-10.1,14.1-19.8,14.1-19.8L269.6,41.9z"/>
</g>
</svg>
